<svg preserveAspectRatio="none" width="100%" height="100%" overflow="visible" style="display: block;" viewBox="0 0 68.2967 11.7763" fill="none" xmlns="http://www.w3.org/2000/svg">
<g id="g26">
<path id="path20" fill-rule="evenodd" clip-rule="evenodd" d="M16.7206 8.94972H22.3727V11.7758H13.423V0.000550483H22.3727V2.82608H16.7206V4.2394H20.2528V7.06548H16.7206V8.94972ZM42.391 8.94972H47.5717V11.7758H39.094V0.000550483H42.3916L42.391 8.94972ZM50.8693 0H54.1663V11.7758H50.8693V0ZM57.9342 0V11.7758H60.996V5.18069L65.2349 11.7758H68.2967V0H65.2349V6.69259L60.996 0.0170734L57.9342 0Z" fill="var(--fill-0, #574751)"/>
<path id="path22" d="M28.9648 5.41698H31.3238C31.5092 5.41683 31.6928 5.38018 31.864 5.3091C32.0352 5.23802 32.1907 5.13392 32.3217 5.00273C32.4527 4.87154 32.5566 4.71584 32.6274 4.54452C32.6982 4.37319 32.7345 4.1896 32.7344 4.00421C32.7346 3.81878 32.6983 3.63513 32.6275 3.46374C32.5567 3.29235 32.4529 3.13658 32.3219 3.00533C32.1909 2.87409 32.0354 2.76994 31.8641 2.69882C31.6928 2.62771 31.5093 2.59104 31.3238 2.5909H28.9643V5.41698H28.9648ZM31.7948 0.000550483C32.3204 0.000622781 32.8409 0.104246 33.3265 0.305501C33.8121 0.506757 34.2533 0.801702 34.6248 1.17349C34.9964 1.54528 35.2911 1.98663 35.4921 2.47233C35.6931 2.95803 35.7964 3.47857 35.7962 4.00421C35.7964 4.52984 35.693 5.05034 35.492 5.53601C35.2909 6.02168 34.9962 6.463 34.6247 6.83477C34.2531 7.20654 33.8119 7.50149 33.3264 7.70277C32.8408 7.90405 32.3204 8.00773 31.7948 8.00787H29.2964V11.7758H25.9047V0H31.7948V0.000550483Z" fill="var(--fill-0, #574751)"/>
<path id="path24" fill-rule="evenodd" clip-rule="evenodd" d="M9.65582 2.82659V0.000511715H0V2.82604H5.41642L0 8.95022V11.7763H9.65582V8.95022H4.47458L9.65582 2.82659Z" fill="var(--fill-0, #574751)"/>
</g>
</svg>
