<svg preserveAspectRatio="none" width="100%" height="100%" overflow="visible" style="display: block;" viewBox="0 0 113.659 26.8939" fill="none" xmlns="http://www.w3.org/2000/svg">
<g id="Vector">
<path d="M12.3085 0V9.08774H3.96242V0H0V21.6933H3.96242V12.9007H12.3085V21.6933H16.2709V0H12.3085Z" fill="#33475B"/>
<path d="M28.9522 14.6805C28.9522 15.5499 28.6068 16.3837 27.9921 16.9984C27.3773 17.6132 26.5435 17.9585 25.6741 17.9585C24.8047 17.9585 23.971 17.6132 23.3562 16.9984C22.7414 16.3837 22.3961 15.5499 22.3961 14.6805V5.38888H18.6375V14.6805C18.6375 16.5449 19.3781 18.333 20.6965 19.6513C22.0148 20.9697 23.8029 21.7103 25.6673 21.7103C27.5318 21.7103 29.3198 20.9697 30.6382 19.6513C31.9565 18.333 32.6972 16.5449 32.6972 14.6805V5.38888H28.9522V14.6805Z" fill="#33475B"/>
<path d="M56.8007 6.34648C56.8007 4.44196 58.0606 3.83818 59.441 3.83818C60.5534 3.83818 62.0231 4.68464 62.9841 5.71164L65.4458 2.81118C64.2169 1.14933 61.7241 2.00272e-05 59.6837 2.00272e-05C55.6067 2.00272e-05 52.6577 2.38795 52.6577 6.34648C52.6577 13.6908 61.6348 11.3611 61.6348 15.4711C61.6348 16.7388 60.4039 17.859 58.9945 17.859C56.7715 17.859 56.0513 16.7718 55.0301 15.6225L52.2985 18.4628C54.0458 20.6081 56.2008 21.6972 58.7828 21.6972C62.656 21.6972 65.7719 19.2801 65.7719 15.5022C65.7719 7.34825 56.7948 9.88179 56.7948 6.34648" fill="#33475B"/>
<path d="M112.337 18.2276C110.116 18.2276 109.485 17.2667 109.485 15.7951V9.28163H112.937V5.98124H109.485V1.62666L105.674 3.33704V16.6046C105.674 19.9982 108.015 21.7086 111.226 21.7086C111.73 21.7178 112.233 21.6775 112.729 21.5882L113.659 18.1655C113.239 18.1946 112.758 18.2238 112.337 18.2238" fill="#33475B"/>
<path d="M43.2594 5.49843C41.3976 5.49843 40.0988 6.03814 38.8427 7.27094V0.130438H35.0783V13.365C35.0783 18.3195 38.6602 21.7131 42.6847 21.7131C47.15 21.7131 51.0774 18.2593 51.0774 13.6077C51.0774 9.01432 47.4625 5.50037 43.2594 5.50037V5.49843ZM43.2361 17.9254C42.3913 17.9254 41.5656 17.6749 40.8632 17.2056C40.1608 16.7363 39.6134 16.0692 39.2901 15.2888C38.9668 14.5083 38.8822 13.6496 39.0471 12.821C39.2119 11.9925 39.6186 11.2315 40.216 10.6342C40.8133 10.0368 41.5743 9.63006 42.4028 9.46526C43.2313 9.30046 44.0901 9.38504 44.8706 9.70831C45.651 10.0316 46.3181 10.579 46.7874 11.2814C47.2567 11.9838 47.5072 12.8095 47.5072 13.6543C47.5072 14.7871 47.0572 15.8734 46.2562 16.6744C45.4552 17.4754 44.3688 17.9254 43.2361 17.9254Z" fill="#33475B"/>
<path d="M84.1336 13.4088C84.1336 8.74945 80.2139 5.30345 75.7409 5.30345C71.7164 5.30345 68.1345 8.69703 68.1345 13.6515V26.8939H71.8989V19.7436C73.153 20.9745 74.4538 21.5162 76.3136 21.5162C80.5168 21.5162 84.1317 18.0041 84.1317 13.4088H84.1336ZM80.5692 13.3622C80.5692 14.207 80.3187 15.0328 79.8494 15.7351C79.3801 16.4375 78.713 16.9849 77.9326 17.3082C77.1521 17.6315 76.2933 17.7161 75.4648 17.5513C74.6363 17.3865 73.8753 16.9797 73.278 16.3824C72.6806 15.785 72.2739 15.024 72.1091 14.1955C71.9443 13.367 72.0288 12.5082 72.3521 11.7278C72.6754 10.9473 73.2228 10.2803 73.9252 9.81095C74.6276 9.34163 75.4533 9.09114 76.2981 9.09114C77.4309 9.09114 78.5172 9.54113 79.3182 10.3421C80.1192 11.1431 80.5692 12.2295 80.5692 13.3622Z" fill="#33475B"/>
</g>
</svg>
