<svg preserveAspectRatio="none" width="100%" height="100%" overflow="visible" style="display: block;" viewBox="0 0 11.9701 22.2111" fill="none" xmlns="http://www.w3.org/2000/svg">
<path id="Vector" d="M6.17124 7.39484C4.57523 7.39484 3.13882 8.03325 2.34082 9.04405V1.17041C2.34082 0.532001 1.83541 0 1.17041 0C0.532001 0 0 0.505401 0 1.17041V21.0407C0 21.6791 0.505401 22.2111 1.17041 22.2111C1.80881 22.2111 2.34082 21.7057 2.34082 21.0407V13.5661C2.34082 10.8795 3.64422 9.52285 6.17124 9.52285C8.61845 9.52285 9.62926 10.6401 9.62926 13.3533V21.0407C9.62926 21.6791 10.1347 22.2111 10.7997 22.2111C11.4381 22.2111 11.9701 21.7057 11.9701 21.0407V12.9543C11.9169 9.25685 9.97506 7.39484 6.17124 7.39484Z" fill="var(--fill-0, #4D4D4D)"/>
</svg>
