<svg preserveAspectRatio="none" width="100%" height="100%" overflow="visible" style="display: block;" viewBox="0 0 91.9995 43.0009" fill="none" xmlns="http://www.w3.org/2000/svg">
<g id="Vector">
<path d="M81.5335 13.6229C83.944 11.1809 86.615 11.8992 86.615 14.2676C86.615 16.5793 83.878 19.0747 80.5773 21.0089C80.2574 21.1927 79.8782 21.4065 79.4957 21.5969C79.3671 21.0156 79.2945 20.3709 79.2945 19.6527C79.2945 17.6784 80.1222 15.0527 81.5335 13.6229ZM68.6766 38.5503C65.4747 41.794 61.3826 37.6584 66.1573 32.8212C67.2389 31.7255 69.013 30.5196 70.8596 29.4205C71.9115 32.0663 71.0772 36.1084 68.6766 38.5503ZM48.2816 25.5622C45.825 25.5622 44.2356 22.579 44.7269 18.8943C45.2084 15.2097 47.5925 12.2265 50.0458 12.2265C52.3178 12.2265 53.8478 14.7888 53.673 18.0959C53.6104 18.5736 53.5543 19.0346 53.5082 19.4789C52.8618 22.883 50.5998 25.5622 48.2816 25.5622ZM15.8541 24.3362C15.0528 25.1479 14.0735 25.5789 13.0809 25.5789C12.1543 25.5789 11.353 25.1546 10.6902 24.4831C8.41827 22.1815 8.61612 16.5326 11.5344 13.5661C12.3621 12.7276 13.3612 12.2399 14.39 12.2399C15.31 12.2399 16.1179 12.6541 16.7807 13.3256C18.9208 15.4936 19.0461 21.1025 15.8541 24.3362ZM91.8712 25.5421C91.8712 25.5421 90.961 24.2526 90.6808 23.8852C90.4895 23.6447 90.2521 23.3507 89.6256 23.785C88.2439 24.7237 86.6875 25.5822 84.7684 25.5822C83.3043 25.5822 82.0216 25.2047 81.0686 24.3863C81.4676 24.2025 81.8864 23.9988 82.315 23.7683C84.5804 22.5256 86.4699 20.9488 87.38 20.0268C91.7887 15.5604 90.4071 8.89932 85.0355 8.89932C79.9606 8.89932 75.9509 13.9102 75.9509 19.4756C75.9509 20.3141 76.0498 21.51 76.4059 22.7828C76.1059 22.9298 74.0977 23.9152 71.6872 25.2615C69.4218 23.5378 65.8869 24.3128 65.8869 24.3128C69.1679 19.5959 74.1076 12.2265 74.5264 11.6186C74.8264 11.1843 74.7803 10.7533 74.4901 10.0719C74.1175 9.25342 73.7449 9.10309 73.2337 9.10309H62.9785C62.6422 9.10309 62.3784 9.2601 62.2795 9.64761C62.1872 10.0251 61.9695 11.3413 61.9332 11.7923C61.8871 12.2432 62.3059 12.5205 62.7411 12.5205H70.1704L63.4501 22.2583C63.4039 22.2951 63.3578 22.3418 63.3215 22.4053C62.3487 23.8317 60.8484 25.8327 59.0479 25.8327C57.9301 25.8327 56.5484 25.021 56.5484 22.3686C56.5484 19.7696 57.5839 14.281 58.339 10.0051C58.4214 9.54405 58.2664 9.09307 57.5377 9.09307H55.7208C55.302 9.09307 55.0646 9.3503 55.0019 9.71108C54.8931 10.3658 54.7843 11.0106 54.6755 11.6286C53.7752 9.88813 52.3375 8.90266 50.2568 8.90266C48.3278 8.90266 46.4482 9.63091 44.9116 11.1776C41.0733 15.066 41.8021 21.4031 38.4914 24.7571C37.0636 26.2035 35.4445 25.7626 35.4445 22.9164C35.4445 19.666 36.6712 16.0448 38.0825 12.6074C38.3265 11.9994 38.0627 11.4916 37.8022 11.0974C37.4296 10.5462 37.2845 10.2489 36.6118 10.2489C35.5665 10.2489 33.8947 10.9204 30.5477 10.9204C29.8388 10.9204 29.1562 10.8936 28.5462 10.8469C28.5824 10.3391 28.5923 9.99837 28.6022 9.87143C28.622 9.39372 28.4571 9.08973 27.9559 9.08973H26.2478C25.6279 9.08973 25.4762 9.3837 25.4036 9.87143C25.1135 11.9426 24.5595 19.5524 20.7937 23.3674C20.3585 23.8083 20.0947 23.9487 20.0947 23.9487C21.0312 22.0879 21.539 19.646 21.539 17.7118C21.539 12.2666 18.3569 8.89598 14.3636 8.89598C13.1436 8.89598 11.8543 9.29351 10.6441 10.0552C11.2079 6.73796 11.7257 3.63456 11.907 2.58561C12.062 1.70036 11.7421 1.23936 11.5146 0.871893C11.1288 0.267247 10.7892 0 10.2814 0H4.38873C4.05239 0 3.79848 0.240522 3.71605 0.618008C3.61712 1.05897 3.40608 2.22149 3.3797 2.75598C3.35992 3.227 3.67977 3.40072 4.05239 3.40072H8.36221C7.66974 7.68334 6.36063 15.9847 5.96164 18.0659C5.46372 20.7183 3.59734 23.9687 0.461423 25.1212C0.0690217 25.2682 -0.0925554 25.629 0.0525342 26.0532C0.197624 26.4775 0.735115 27.5832 0.896692 27.8672C1.06157 28.1611 1.42429 28.3549 1.77053 28.2346C3.39949 27.6534 4.88995 26.7147 6.07046 25.5254C6.36063 25.2314 6.64422 24.8974 6.91461 24.5399C8.32264 27.7469 11.1882 28.9161 14.1262 28.9161C17.4435 28.9161 21.0279 27.7469 23.5373 25.1947C26.4753 22.2282 27.702 17.3109 28.2197 13.8267C28.9484 13.9269 29.7761 14.0104 30.5642 14.0104C32.5823 14.0104 34.2739 13.5761 34.2739 13.5761C34.2739 13.5761 32.2393 19.048 32.2393 23.0834C32.2393 27.6333 34.386 28.9228 36.7668 28.9228C39.2135 28.9228 40.9315 27.0621 42.1582 24.7604C42.478 25.4786 42.9496 26.3372 43.5959 26.9886C44.7039 28.111 46.0789 28.9228 48.0607 28.9228C50.3261 28.9228 52.2716 27.5966 53.6532 25.5622C53.8973 26.4173 54.2798 27.1389 54.7975 27.6634C55.4965 28.3716 56.7793 28.9261 58.3884 28.9261C61.1517 28.9261 62.7543 26.8249 67.0542 26.8249C67.5983 26.8249 68.0897 26.9084 68.5348 27.0654C66.5629 28.2814 64.6899 29.5909 63.5424 30.7501C59.9976 34.3412 59.8327 39.0681 62.1608 41.4266C64.9801 44.2828 68.9998 42.853 71.5092 40.3108C74.4472 37.3344 75.3013 31.7088 73.5998 27.8571C75.6541 26.7614 77.3721 25.9497 77.781 25.7559C79.0637 27.5331 81.1906 28.9261 84.6991 28.9261C87.2085 28.9261 89.7377 28.0242 91.7096 26.5142C92.0261 26.3004 92.0888 25.8561 91.8712 25.5421Z" fill="#212123"/>
</g>
</svg>
