<svg preserveAspectRatio="none" width="100%" height="100%" overflow="visible" style="display: block;" viewBox="0 0 95.2 43.5618" fill="none" xmlns="http://www.w3.org/2000/svg">
<g id="Vector">
<path d="M0 34.285L9.85444 18.9512H1.16739C1.09377 18.5095 1.06222 18.0257 1.06222 17.4894C1.06222 16.974 1.09377 16.5008 1.16739 16.0696H15.2286L15.4074 16.5428L5.47936 31.9082H14.7869C14.8605 32.392 14.8921 32.8968 14.8921 33.4016C14.8921 33.8854 14.8605 34.3481 14.7869 34.7899H0.178789L0 34.285Z" fill="#FF4A00"/>
<path d="M28.4381 22.4536C28.4381 21.0128 28.07 20.0242 27.3443 19.4563C26.6186 18.8989 25.5564 18.6149 24.1682 18.6149C23.3163 18.6149 22.517 18.678 21.7808 18.8147C21.0341 18.9514 20.3189 19.1197 19.6038 19.3406C19.141 18.5413 18.9097 17.5737 18.9097 16.4589C19.7405 16.196 20.645 15.9856 21.6441 15.8384C22.6432 15.6912 23.6002 15.6175 24.5257 15.6175C26.9552 15.6175 28.8062 16.175 30.0787 17.2792C31.3408 18.3835 31.9823 20.1609 31.9823 22.5903V34.3063C31.1304 34.4956 30.0998 34.7059 28.8798 34.9057C27.6598 35.1161 26.4188 35.2107 25.1568 35.2107C23.9683 35.2107 22.8851 35.1056 21.928 34.8847C20.971 34.6639 20.1507 34.3168 19.4776 33.8225C18.8045 33.3387 18.2892 32.7182 17.9211 31.961C17.553 31.2038 17.3742 30.2888 17.3742 29.2266C17.3742 28.1854 17.5845 27.2599 18.0157 26.4711C18.4364 25.6823 19.0148 25.0198 19.751 24.5044C20.4767 23.9786 21.3181 23.5894 22.2751 23.337C23.2216 23.0846 24.2207 22.9479 25.2724 22.9479C26.0507 22.9479 26.6922 22.9689 27.1865 23.0005C27.6808 23.032 28.1015 23.0846 28.4486 23.1267V22.4536H28.4381ZM28.4381 25.9978C28.07 25.9453 27.6072 25.9032 27.0498 25.8506C26.4924 25.798 26.0192 25.777 25.63 25.777C24.1156 25.777 22.9692 26.0609 22.1804 26.6183C21.3917 27.1757 20.992 28.0276 20.992 29.174C20.992 29.8996 21.1287 30.4781 21.3917 30.8882C21.6546 31.2984 21.9911 31.6139 22.3908 31.8348C22.7904 32.0556 23.2321 32.1924 23.7264 32.2344C24.2102 32.287 24.673 32.308 25.1147 32.308C25.6721 32.308 26.2505 32.2765 26.85 32.2134C27.4495 32.1503 27.9753 32.0662 28.4381 31.9399V25.9978Z" fill="#FF4A00"/>
<path d="M35.9261 16.0704C36.168 16.0178 36.4204 15.9862 36.6728 15.9652C36.9252 15.9442 37.1881 15.9337 37.4616 15.9337C37.7035 15.9337 37.9559 15.9442 38.2293 15.9652C38.4922 15.9862 38.7552 16.0283 38.9971 16.0704C39.0181 16.123 39.0496 16.2702 39.0917 16.5226C39.1233 16.775 39.1653 17.0485 39.1969 17.3429C39.2284 17.6374 39.2705 17.9108 39.3021 18.1843C39.3336 18.4577 39.3546 18.626 39.3546 18.6996C39.5965 18.3105 39.891 17.9319 40.2276 17.5638C40.5641 17.1957 40.9743 16.8697 41.4475 16.5752C41.9208 16.2807 42.4572 16.0493 43.0566 15.8811C43.6561 15.7128 44.3187 15.6287 45.0443 15.6287C46.1381 15.6287 47.1583 15.8074 48.0943 16.1755C49.0303 16.5436 49.8296 17.101 50.5027 17.8688C51.1758 18.6365 51.6911 19.6146 52.0697 20.7925C52.4483 21.9704 52.6376 23.3692 52.6376 24.9783C52.6376 28.1965 51.7647 30.71 50.0294 32.519C48.2836 34.3279 45.8226 35.2429 42.6359 35.2429C42.0996 35.2429 41.5527 35.2113 40.9953 35.1377C40.4379 35.0641 39.9436 34.9694 39.5334 34.8432V43.4251C39.239 43.4777 38.934 43.5092 38.5974 43.5303C38.2714 43.5513 37.9664 43.5618 37.7035 43.5618C37.4405 43.5618 37.1356 43.5513 36.8095 43.5303C36.4835 43.5092 36.1785 43.4672 35.9156 43.4251V16.0704H35.9261ZM39.5439 31.7302C40.0067 31.8985 40.48 32.0247 40.9637 32.0983C41.4475 32.1719 42.0785 32.2035 42.8673 32.2035C43.7402 32.2035 44.55 32.0667 45.2757 31.7828C46.0014 31.4988 46.6324 31.0676 47.1583 30.4892C47.6841 29.9002 48.0943 29.164 48.3993 28.2806C48.7043 27.3972 48.8515 26.335 48.8515 25.1255C48.8515 23.1799 48.4939 21.6339 47.7788 20.4875C47.0636 19.3412 45.8857 18.7732 44.2556 18.7732C43.6456 18.7732 43.0671 18.8784 42.4992 19.0993C41.9418 19.3201 41.437 19.6462 41.0058 20.0879C40.5641 20.5296 40.217 21.0765 39.9436 21.7496C39.6701 22.4226 39.5439 23.2114 39.5439 24.1369V31.7302Z" fill="#FF4A00"/>
<path d="M57.1389 18.9092H54.762C54.7095 18.7093 54.6779 18.4885 54.6569 18.2361C54.6358 17.9837 54.6253 17.7313 54.6253 17.4894C54.6253 17.2475 54.6358 16.9951 54.6569 16.7427C54.6779 16.4903 54.72 16.2589 54.762 16.0696H60.6831V34.8004C60.4202 34.853 60.1152 34.8845 59.7892 34.9055C59.4631 34.9266 59.1582 34.9371 58.8952 34.9371C58.6533 34.9371 58.3694 34.9266 58.0328 34.9055C57.7068 34.8845 57.4018 34.8424 57.1389 34.8004V18.9092Z" fill="#FF4A00"/>
<path d="M68.4552 26.3241C68.5078 28.3644 69.0336 29.8684 70.0432 30.8149C71.0529 31.7614 72.5463 32.2347 74.513 32.2347C76.2378 32.2347 77.8889 31.9297 79.4454 31.3197C79.6453 31.6878 79.803 32.1295 79.9187 32.6554C80.0449 33.1812 80.108 33.6966 80.1396 34.2119C79.3403 34.5484 78.4569 34.8114 77.4893 34.9796C76.5322 35.1479 75.4595 35.232 74.2921 35.232C72.5884 35.232 71.1265 34.9901 69.9065 34.5169C68.6866 34.0436 67.6874 33.3705 66.8987 32.5081C66.1099 31.6457 65.5314 30.6256 65.1634 29.4372C64.7953 28.2593 64.6165 26.9657 64.6165 25.5459C64.6165 24.1576 64.7953 22.864 65.1423 21.6546C65.4894 20.4451 66.0363 19.4039 66.7619 18.51C67.4876 17.6266 68.4131 16.9114 69.5174 16.3961C70.6217 15.8702 71.9363 15.6073 73.4402 15.6073C74.7338 15.6073 75.8591 15.8282 76.8372 16.2699C77.8153 16.7116 78.6251 17.3111 79.2877 18.0788C79.9398 18.8465 80.4446 19.7615 80.7811 20.8132C81.1176 21.8754 81.2964 23.0218 81.2964 24.2628C81.2964 24.5993 81.2859 24.9674 81.2544 25.3355C81.2333 25.7141 81.2018 26.0402 81.1808 26.3031H68.4552V26.3241ZM77.7312 23.6213C77.7312 22.9377 77.6365 22.2856 77.4577 21.6651C77.2789 21.0446 77.0055 20.5082 76.6584 20.0455C76.3009 19.5827 75.8591 19.2146 75.3123 18.9307C74.7654 18.6467 74.1133 18.51 73.3561 18.51C71.8732 18.51 70.7374 18.9622 69.9381 19.8562C69.1493 20.7606 68.6655 22.0122 68.4972 23.6213H77.7312Z" fill="#FF4A00"/>
<path d="M85.293 16.0696C85.5559 16.017 85.8188 15.9854 86.0607 15.9644C86.3026 15.9434 86.555 15.9329 86.8285 15.9329C87.0914 15.9329 87.3648 15.9434 87.6278 15.9644C87.8907 15.9854 88.1431 16.0275 88.3534 16.0696C88.427 16.4377 88.5007 16.9109 88.5743 17.5104C88.6479 18.1099 88.6795 18.6147 88.6795 19.0249C89.1948 18.194 89.8679 17.4789 90.7092 16.8689C91.5506 16.2589 92.6233 15.9539 93.938 15.9539C94.1378 15.9539 94.3376 15.9644 94.5374 15.9749C94.7478 15.9854 94.916 16.0065 95.0633 16.0275C95.1159 16.2484 95.1474 16.4797 95.1684 16.7216C95.1895 16.9635 95.2 17.2159 95.2 17.4894C95.2 17.7839 95.179 18.0888 95.1474 18.4044C95.1159 18.7199 95.0633 19.0249 95.0212 19.3193C94.8214 19.2668 94.6216 19.2457 94.4217 19.2457C94.2114 19.2457 94.0536 19.2457 93.9274 19.2457C93.2754 19.2457 92.6444 19.3404 92.0449 19.5192C91.4454 19.6979 90.9091 20.024 90.4358 20.4867C89.9625 20.9495 89.5839 21.5805 89.3 22.3903C89.016 23.1896 88.8793 24.2308 88.8793 25.4928V34.8004C88.6163 34.853 88.3114 34.8845 87.9853 34.9055C87.6593 34.9266 87.3543 34.9371 87.0914 34.9371C86.8285 34.9371 86.5235 34.9266 86.1974 34.9055C85.8714 34.8845 85.5559 34.8424 85.2614 34.8004V16.0696H85.293Z" fill="#FF4A00"/>
<path d="M64.122 5.04816H60.5883L63.0914 2.54512C62.8916 2.27167 62.6707 2.00875 62.4393 1.76686C62.1974 1.52497 61.945 1.30411 61.6611 1.1148L59.158 3.61785V0.0841361C58.832 0.031551 58.4954 0 58.1484 0H58.1379C57.7908 0 57.4543 0.031551 57.1282 0.0841361V3.61785L54.6252 1.1148C54.3517 1.31463 54.0888 1.53548 53.8469 1.76686C53.605 2.00875 53.3947 2.26116 53.1949 2.54512L55.7084 5.04816H52.1747C52.1747 5.04816 52.0906 5.71074 52.0906 6.0578C52.0906 6.40486 52.1221 6.7414 52.1747 7.06743H55.7084L53.2054 9.57048C53.5945 10.1174 54.0783 10.6011 54.6357 11.0008L57.1387 8.49774V12.0315C57.4648 12.084 57.8013 12.1156 58.1484 12.1156H58.1589C58.506 12.1156 58.8425 12.084 59.1685 12.0315V8.49774L61.6716 11.0008C61.945 10.801 62.2079 10.5801 62.4498 10.3487C62.6917 10.1068 62.9126 9.85444 63.1019 9.57048L60.5988 7.06743H64.1326C64.1851 6.7414 64.2167 6.40486 64.2167 6.0578V6.04728C64.2062 5.71074 64.1851 5.37419 64.122 5.04816ZM59.6628 6.06831C59.6628 6.52055 59.5787 6.95174 59.4314 7.35139C59.0318 7.49863 58.6006 7.58276 58.1484 7.58276C57.6961 7.58276 57.2649 7.49863 56.8653 7.35139C56.7181 6.95174 56.6339 6.52055 56.6339 6.06831V6.0578C56.6339 5.60557 56.7181 5.17437 56.8653 4.77472C57.2649 4.62748 57.6961 4.54335 58.1484 4.54335C58.6006 4.54335 59.0318 4.62748 59.4314 4.77472C59.5787 5.17437 59.6628 5.60557 59.6628 6.06831Z" fill="#FF4A00"/>
</g>
</svg>
