<svg preserveAspectRatio="none" width="100%" height="100%" overflow="visible" style="display: block;" viewBox="0 0 161.039 45.03" fill="none" xmlns="http://www.w3.org/2000/svg">
<g id="Vector">
<path d="M63.3354 12.8628V16.6428H53.1899V20.7732H62.5302V24.5802H53.1899V32.5242H48.3118V12.8628H63.3354Z" fill="#0073FF"/>
<path d="M67.3212 12.8359H71.5351V16.1712H67.3212V12.8359ZM67.3212 17.9568H71.5351V32.5175H67.3212V17.9568Z" fill="#0073FF"/>
<path d="M74.5543 17.9837H79.05C80.8282 24.4454 81.1301 25.7661 81.5998 28.5421C82.1836 25.3146 82.2708 24.9575 83.1297 21.5279L84.0154 17.9702H88.397L83.7 32.504H79.2446L74.5543 17.9837Z" fill="#0073FF"/>
<path d="M104.568 28.8116C104.074 29.6052 103.486 30.3359 102.817 30.988C101.32 32.3414 99.3692 33.0777 97.3549 33.0498C93.0538 33.0498 90.0343 30.267 90.0343 25.5302C90.0343 22.0197 91.7521 17.5053 97.4623 17.5053C98.4275 17.4757 99.3885 17.6459 100.285 18.0052C101.182 18.3646 101.996 18.9054 102.676 19.594C104.568 21.6154 104.689 24.4723 104.729 26.1097H94.3958C94.3958 27.9222 95.3889 29.728 97.7105 29.728C100.032 29.728 100.844 28.1917 101.374 27.1675L104.568 28.8116ZM100.321 23.4212C100.286 22.6636 100.003 21.9389 99.5155 21.3594C98.9515 20.832 98.206 20.5446 97.4354 20.5576C97.0297 20.555 96.628 20.6376 96.2559 20.8C95.8838 20.9625 95.5496 21.2012 95.2748 21.5009C94.8135 22.0466 94.5157 22.7125 94.416 23.4212H100.321Z" fill="#0073FF"/>
<path d="M108.956 13.7792H113.204V18.3206H116.002V20.9349H113.177V27.5112C113.177 28.4006 113.177 29.1754 114.284 29.1754L115.814 29.1216V32.4569C115.072 32.5913 114.32 32.6656 113.566 32.6792C112.09 32.6792 110.486 32.5983 109.54 31.2575C108.956 30.395 108.93 29.3641 108.93 27.9761V20.908H106.823V18.2869H108.93L108.956 13.7792Z" fill="#0073FF"/>
<path d="M123.678 19.4863C124.841 18.4637 126.32 17.8758 127.865 17.822V21.6222L126.456 21.8445C124.403 22.2017 123.772 22.5183 123.772 24.3511V32.5175H119.525V17.9567H123.685L123.678 19.4863Z" fill="#0073FF"/>
<path d="M130.952 22.1208C130.943 21.5011 131.077 20.8877 131.342 20.328C131.607 19.7684 131.997 19.2775 132.482 18.8933C133.824 17.8422 135.528 17.6198 137.226 17.6198C138.923 17.6198 143.311 18.0308 143.311 21.7906V30.2064C143.311 31.7696 143.392 31.9919 143.727 32.4906H139.567V31.143C138.46 31.9515 137.266 32.8746 135.139 32.8746C131.824 32.8746 130.401 30.4759 130.401 28.4275C130.401 26.0894 132.26 24.7553 133.448 24.2567C135.313 23.6559 137.222 23.2052 139.158 22.9091V22.1275C139.104 21.4537 139.051 20.342 137.501 20.342C135.615 20.342 135.36 21.5144 135.253 22.0467L130.952 22.1208ZM136.36 26.5005C135.642 26.7767 134.528 27.1743 134.528 28.3063C134.551 28.7174 134.734 29.103 135.038 29.3793C135.342 29.6556 135.742 29.8002 136.152 29.7819C136.676 29.7657 137.185 29.6023 137.621 29.3102C139.03 28.4208 139.091 27.0867 139.124 25.5774L136.36 26.5005Z" fill="#0073FF"/>
<path d="M152.464 19.2908C152.857 18.8081 153.352 18.4192 153.913 18.1521C154.747 17.8008 155.64 17.6132 156.544 17.5995C157.439 17.5776 158.326 17.7766 159.127 18.179C160.65 18.9876 161.039 20.2948 161.039 22.552V32.5174H156.799V24.3308C156.872 23.6018 156.806 22.8654 156.604 22.1612C156.436 21.8024 156.163 21.5037 155.821 21.305C155.479 21.1063 155.085 21.0171 154.692 21.0494C152.444 21.0494 152.444 22.8619 152.444 24.6677V32.5174H148.19V18.0106H152.491L152.464 19.2908Z" fill="#0073FF"/>
<path d="M22.2704 22.5385H26.7728C26.9507 22.5385 27.1214 22.4675 27.2472 22.3412C27.3731 22.2148 27.4438 22.0434 27.4438 21.8647C27.4434 21.7723 27.4252 21.6807 27.3901 21.5952L19.6468 0.43122C19.599 0.306699 19.5154 0.199244 19.4067 0.122471C19.298 0.0456986 19.169 0.00307678 19.0362 0H14.5204C14.3424 0 14.1718 0.0709785 14.0459 0.19734C13.9201 0.323702 13.8494 0.495096 13.8494 0.673798C13.8495 0.751928 13.8631 0.829445 13.8896 0.902887L21.6396 22.1208C21.6908 22.246 21.7784 22.3528 21.8909 22.4273C22.0034 22.5018 22.1356 22.5406 22.2704 22.5385Z" fill="#0073FF"/>
<path d="M21.4718 45.0299H25.9742C26.1521 45.0299 26.3228 44.9589 26.4486 44.8325C26.5744 44.7062 26.6452 44.5348 26.6452 44.3561C26.6451 44.278 26.6314 44.2004 26.6049 44.127L10.6419 0.444665C10.5936 0.319095 10.5091 0.210924 10.399 0.134065C10.289 0.0572063 10.1586 0.0151922 10.0245 0.0134446H5.52886C5.3509 0.0134446 5.18024 0.084423 5.05441 0.210785C4.92857 0.337146 4.85787 0.50854 4.85787 0.687243C4.85796 0.765373 4.87158 0.842889 4.89812 0.916332L20.8612 44.6054C20.91 44.7287 20.994 44.8347 21.1026 44.9102C21.2113 44.9857 21.3397 45.0274 21.4718 45.0299Z" fill="#0073FF"/>
<path d="M12.6013 45.0299H17.097C17.266 45.0305 17.4291 44.9669 17.5535 44.852C17.6779 44.7371 17.7545 44.5792 17.768 44.41C17.7677 44.3209 17.7542 44.2323 17.7277 44.1472L9.95761 22.963C9.9098 22.8385 9.82624 22.731 9.71754 22.6543C9.60883 22.5775 9.47985 22.5349 9.34698 22.5318H4.82447C4.65358 22.5421 4.49307 22.6176 4.37582 22.7429C4.25856 22.8681 4.19342 23.0337 4.19373 23.2056C4.19352 23.2794 4.20718 23.3525 4.23399 23.4212L11.9706 44.6122C12.0218 44.7374 12.1093 44.8442 12.2218 44.9187C12.3343 44.9932 12.4666 45.0319 12.6013 45.0299Z" fill="#0073FF"/>
<path d="M22.8139 0.9231L26.444 10.8347C26.4918 10.9592 26.5753 11.0667 26.684 11.1434C26.7927 11.2202 26.9217 11.2628 27.0546 11.2659H31.5368C31.7148 11.2659 31.8855 11.1949 32.0113 11.0685C32.1371 10.9422 32.2078 10.7708 32.2078 10.5921C32.2078 10.514 32.1941 10.4364 32.1676 10.363L28.5375 0.444689C28.4897 0.320168 28.4061 0.212713 28.2974 0.13594C28.1887 0.0591671 28.0597 0.0165453 27.9269 0.0134686H23.4245C23.2465 0.0134686 23.0759 0.084447 22.95 0.210809C22.8242 0.33717 22.7535 0.508564 22.7535 0.687267C22.7592 0.768907 22.7797 0.848826 22.8139 0.9231Z" fill="#0073FF"/>
<path d="M4.30107 45.0299H8.79676C8.97472 45.0299 9.14538 44.9589 9.27121 44.8326C9.39705 44.7062 9.46775 44.5348 9.46775 44.3561C9.46766 44.278 9.45404 44.2005 9.4275 44.127L5.77727 34.1885C5.72903 34.0629 5.64448 33.9548 5.53445 33.8779C5.42443 33.8011 5.29398 33.759 5.15997 33.7573H0.670997C0.493037 33.7573 0.322376 33.8283 0.19654 33.9546C0.0707038 34.081 0 34.2524 0 34.4311C0.000245533 34.5114 0.0138512 34.5911 0.0402582 34.6669L3.67033 44.6054C3.72047 44.7319 3.80761 44.8401 3.92019 44.9159C4.03278 44.9917 4.16554 45.0314 4.30107 45.0299Z" fill="#0073FF"/>
</g>
</svg>
