<svg preserveAspectRatio="none" width="100%" height="100%" overflow="visible" style="display: block;" viewBox="0 0 114.869 22" fill="none" xmlns="http://www.w3.org/2000/svg">
<path id="Vector" d="M52.1067 7.80023V21.0851H49.0384V0.298264L62.7692 14.1715V0.81539H65.8393V21.6782L52.1067 7.80023ZM83.914 0C77.9069 0 73.0216 4.92685 73.0216 10.9874C73.0216 17.0451 77.9069 21.9716 83.914 21.9716C89.9192 21.9716 94.8068 17.0451 94.8068 10.9874C94.8068 4.92685 89.9192 0 83.914 0ZM83.914 18.8515C79.6562 18.8515 76.1896 15.3229 76.1896 10.9874C76.1896 6.65135 79.6562 3.12329 83.914 3.12329C88.1735 3.12329 91.6363 6.65135 91.6363 10.9874C91.6363 15.323 88.1735 18.8515 83.914 18.8515ZM30.9534 0C24.9465 0 20.0609 4.92685 20.0609 10.9874C20.0609 17.0451 24.9465 21.9716 30.9534 21.9716C36.9615 21.9716 41.8458 17.0451 41.8458 10.9874C41.8458 4.92685 36.9617 0 30.9534 0ZM30.9534 18.8515C26.6939 18.8515 23.2315 15.3229 23.2315 10.9874C23.2315 6.65135 26.6939 3.12329 30.9534 3.12329C35.2115 3.12329 38.6775 6.65135 38.6775 10.9874C38.6776 15.323 35.2115 18.8515 30.9534 18.8515ZM6.69995 12.5308L6.68753 12.5255C4.6367 11.8686 3.26395 11.2212 2.22969 10.4238C0.751271 9.28797 0 7.83844 0 6.11644C0 4.50381 0.74351 2.93225 2.03913 1.79603C3.36281 0.637005 5.18678 0 7.17337 0C11.3318 0 13.7081 2.79458 13.8078 2.91446L11.2846 4.63383C10.7002 4.19348 9.16486 3.20496 7.17326 3.20496C4.67192 3.20496 3.17678 4.68506 3.17678 6.11644C3.17678 7.11499 3.7197 8.213 7.64811 9.47399L7.66328 9.4765C9.70874 10.1315 11.0865 10.7808 12.1196 11.5759C13.5994 12.7143 14.3496 14.1638 14.3496 15.8861C14.3496 17.4986 13.6059 19.0726 12.3075 20.2065C10.9867 21.3632 9.16331 22 7.17457 22C3.0175 22 0.640945 19.208 0.541484 19.0876L3.0667 17.3683C3.65021 17.8095 5.18559 18.7977 7.17445 18.7977C9.67686 18.7977 11.1732 17.3206 11.1732 15.8861C11.1735 14.8875 10.6321 13.7893 6.69995 12.5308ZM107.22 12.5308L107.206 12.5255C105.157 11.8686 103.783 11.2212 102.75 10.4237C101.273 9.28761 100.518 7.83808 100.518 6.11608C100.518 4.50345 101.264 2.93201 102.561 1.79579C103.88 0.637005 105.702 0 107.694 0C111.852 0 114.23 2.79458 114.331 2.91446L111.804 4.63383C111.221 4.19348 109.686 3.20496 107.694 3.20496C105.191 3.20496 103.695 4.68506 103.695 6.11644C103.695 7.11499 104.239 8.213 108.17 9.47399L108.185 9.4765C110.233 10.1315 111.606 10.7808 112.641 11.5759C114.117 12.7143 114.869 14.1638 114.869 15.8861C114.869 17.4986 114.126 19.0726 112.831 20.2065C111.508 21.3632 109.684 22 107.694 22C103.537 22 101.163 19.208 101.062 19.0876L103.586 17.3683C104.171 17.8095 105.702 18.7977 107.694 18.7977C110.199 18.7977 111.691 17.3206 111.691 15.8861C111.691 14.8875 111.15 13.7893 107.22 12.5308V12.5308Z" fill="var(--fill-0, #222222)"/>
</svg>
