<svg preserveAspectRatio="none" width="100%" height="100%" overflow="visible" style="display: block;" viewBox="0 0 200.286 29" fill="none" xmlns="http://www.w3.org/2000/svg">
<g id="Vector">
<path d="M20.8102 16.3426C20.888 16.4721 20.9148 16.626 20.8854 16.7741C20.6108 18.0218 19.9427 19.1482 18.9796 19.9876C18.9268 20.0275 18.8823 20.0775 18.8488 20.1346C18.8368 20.1608 18.8306 20.1892 18.8306 20.218C18.8306 20.2468 18.8368 20.2752 18.8488 20.3013C18.8681 20.3237 18.8923 20.3413 18.9195 20.3526C18.9468 20.364 18.9763 20.3688 19.0057 20.3667C19.1452 20.3296 19.28 20.2769 19.4078 20.2098C19.9727 19.8889 20.4718 19.4641 20.8788 18.9578C21.124 18.6603 21.3659 18.3628 21.598 18.0555C22.0351 17.4486 22.3585 16.7675 22.5526 16.0452C22.729 15.46 22.8794 14.8683 23.0625 14.2832C23.1373 14.0686 23.228 13.8599 23.3339 13.6588C23.3764 13.5969 23.4258 13.5399 23.4809 13.4888H23.5267C23.5724 13.6425 23.6281 13.7896 23.6607 13.9465C23.7462 14.44 23.7583 14.9433 23.6967 15.4404C23.6289 16.0873 23.4963 16.7257 23.3012 17.3462C23.1644 17.7276 22.9799 18.09 22.752 18.4249C22.1791 19.3691 21.5026 20.2462 20.735 21.0401C20.1695 21.5862 19.5582 22.0827 18.9076 22.5242C18.8602 22.5485 18.8171 22.5806 18.7802 22.6191C18.7421 22.6648 18.7224 22.723 18.7246 22.7825C18.7383 22.8091 18.7582 22.8319 18.7827 22.849C18.8072 22.8661 18.8355 22.8769 18.8651 22.8806C19.0019 22.8797 19.138 22.8621 19.2705 22.8282C19.8745 22.6542 20.4394 22.3656 20.9344 21.9783C22.3189 20.9576 23.4434 19.6249 24.2164 18.0882C24.709 17.0857 25.0285 16.007 25.1611 14.8977C25.2407 14.1975 25.2484 13.491 25.1841 12.7893C25.128 12.4297 25.139 12.0628 25.2167 11.7073C25.2373 11.6258 25.2669 11.5468 25.305 11.4719C25.3933 11.3019 25.5208 11.2921 25.6057 11.4719C25.6951 11.642 25.7611 11.8235 25.8019 12.0113C25.9813 12.9104 26.0375 13.8298 25.9686 14.7441C25.8417 16.2295 25.4683 17.6834 24.8637 19.0461C24.2514 20.4491 23.332 21.6969 22.1733 22.6975C21.7974 23.0244 21.4378 23.3513 21.0488 23.6586C20.5816 23.9983 20.0811 24.2897 19.5549 24.5281C18.394 25.1049 17.1584 25.5175 15.8839 25.7539C15.1027 25.8895 14.3094 25.9422 13.5171 25.9108C13.1282 25.9108 12.7358 25.8848 12.3469 25.8651C11.4674 25.8164 10.5997 25.6402 9.77088 25.3421C8.5707 24.9244 7.41712 24.3832 6.32871 23.7272C5.05941 22.949 3.97685 21.901 3.15781 20.6576C2.75348 20.0729 2.40126 19.4538 2.10521 18.8074C2.09012 18.769 2.06583 18.735 2.03448 18.7081C2.00313 18.6814 1.96568 18.6627 1.92542 18.6538C1.71045 18.6003 1.51046 18.4987 1.34056 18.3565C1.17066 18.2144 1.03531 18.0354 0.944727 17.8333C0.70233 17.2413 0.514141 16.6286 0.38247 16.0027C0.1429 14.9921 0.0146448 13.9585 0 12.92C0.00981828 12.2626 0.0699257 11.6069 0.179794 10.9586C0.303878 10.0778 0.523089 9.21307 0.833585 8.37946C1.10819 7.64992 1.49415 6.96733 1.97772 6.35596C2.25885 6.00291 2.49095 5.60736 2.76554 5.24778C4.50827 2.94448 7.00336 1.32505 9.81667 0.671235C10.3593 0.540477 10.902 0.403179 11.4512 0.301841C11.9415 0.210311 12.4319 0.15147 12.9352 0.105704C13.5171 0.053401 14.099 0.00763573 14.6842 0.00109781C17.0316 -0.0315898 19.3313 0.666404 21.2646 1.99843C21.4849 2.13169 21.6834 2.29819 21.853 2.49205C21.9782 2.6446 22.0616 2.8271 22.0949 3.02162C22.1078 3.06739 22.134 3.10831 22.1701 3.1393C22.631 3.58388 23.1214 4.00557 23.5463 4.48284C24.2217 5.22066 24.7104 6.10957 24.9716 7.07513C25.0913 7.4651 25.133 7.87484 25.0943 8.28093C25.0555 8.68699 24.9372 9.08151 24.746 9.44186C24.4263 9.98013 23.9767 10.4297 23.4384 10.7495C22.8396 11.1569 22.1212 11.3514 21.3986 11.3019C20.723 11.271 20.0818 10.9957 19.5942 10.5271C19.0818 9.99475 18.5359 9.49573 17.9597 9.03321C17.5805 8.74554 17.1882 8.47427 16.7927 8.216C16.3145 7.92866 15.7848 7.73765 15.2333 7.65374C14.6061 7.539 13.9673 7.50058 13.3308 7.53932C11.9394 7.56584 10.5931 8.03789 9.48975 8.88615C8.66293 9.51083 7.98239 10.3085 7.49573 11.2234C7.22012 11.7786 7.04629 12.3787 6.9825 12.9952C6.92927 13.3755 6.89872 13.7587 6.89097 14.1426C6.9218 15.2371 7.2072 16.3093 7.72456 17.2742C8.10681 18.0228 8.61552 18.6996 9.22825 19.2749C9.79817 19.787 10.4296 20.2263 11.1079 20.5824C11.88 21.001 12.7327 21.2495 13.6087 21.3115C14.759 21.4316 15.921 21.2572 16.9855 20.8048C17.4957 20.5649 17.9655 20.2474 18.3781 19.8633C19.0907 19.2504 19.6885 18.5153 20.1433 17.6927C20.3133 17.3952 20.431 17.0683 20.5748 16.7546C20.6173 16.6597 20.6663 16.5649 20.7154 16.4734C20.7453 16.429 20.7805 16.3885 20.82 16.3524" fill="black"/>
<path d="M192.009 11.3607C194.363 11.3607 195.931 13.1129 195.931 15.7019C195.931 18.2909 194.363 20.0169 192.009 20.0169C189.655 20.0169 188.06 18.2909 188.06 15.6757C188.06 13.0606 189.629 11.3607 192.009 11.3607ZM123.099 11.0992C124.93 11.0992 126.132 12.1191 126.421 13.7405H119.804C120.092 12.1061 121.295 11.0992 123.099 11.0992ZM63.7872 17.4802C63.7872 19.0754 62.8458 20.0169 61.172 20.0169C59.4983 20.0169 58.5046 19.0754 58.5046 17.4802V8.53636C58.5046 8.44963 58.4702 8.36652 58.4088 8.30515C58.3475 8.24385 58.2644 8.20945 58.1777 8.20945H54.778C54.6912 8.20945 54.6081 8.24385 54.5468 8.30515C54.4855 8.36652 54.451 8.44963 54.451 8.53636V17.6371C54.451 21.6122 56.7786 23.5997 59.7075 23.5997C61.7997 23.5997 63.2119 22.3183 63.8134 20.383V22.8675C63.8181 22.9527 63.854 23.0331 63.9143 23.0933C63.9746 23.1537 64.0551 23.1896 64.1403 23.1944H67.5661C67.6528 23.1944 67.736 23.1599 67.7973 23.0986C67.8586 23.0373 67.8931 22.9541 67.8931 22.8675V8.53636C67.8931 8.44963 67.8586 8.36652 67.7973 8.30515C67.736 8.24385 67.6528 8.20945 67.5661 8.20945H64.1272C64.0405 8.20945 63.9574 8.24385 63.8961 8.30515C63.8347 8.36652 63.8003 8.44963 63.8003 8.53636L63.7872 17.4802ZM98.9873 17.4802C98.9873 19.0754 98.0456 20.0169 96.3722 20.0169C94.6981 20.0169 93.7047 19.0754 93.7047 17.4802V8.53636C93.7047 8.44963 93.67 8.36652 93.6086 8.30515C93.548 8.24385 93.4649 8.20945 93.3776 8.20945H89.9784C89.8912 8.20945 89.808 8.24385 89.7467 8.30515C89.6853 8.36652 89.6514 8.44963 89.6514 8.53636V17.6371C89.6514 21.6122 91.9789 23.5997 94.9081 23.5997C96.9998 23.5997 98.4122 22.3183 99.0131 20.383V22.8675C99.018 22.9527 99.0543 23.0331 99.1149 23.0933C99.1746 23.1537 99.2554 23.1896 99.3402 23.1944H102.766C102.853 23.1944 102.936 23.1599 102.998 23.0986C103.058 23.0373 103.093 22.9541 103.093 22.8675V8.53636C103.093 8.44963 103.058 8.36652 102.998 8.30515C102.936 8.24385 102.853 8.20945 102.766 8.20945H99.3273C99.2408 8.20945 99.1577 8.24385 99.0963 8.30515C99.0349 8.36652 99.0002 8.44963 99.0002 8.53636L98.9873 17.4802ZM106.441 22.8675C106.441 22.9541 106.475 23.0373 106.536 23.0986C106.597 23.1599 106.681 23.1944 106.768 23.1944H110.141C110.228 23.1944 110.311 23.1599 110.372 23.0986C110.433 23.0373 110.468 22.9541 110.468 22.8675V14.6558C110.468 12.5898 111.776 12.1976 113.607 12.1976H114.966C115.053 12.1976 115.136 12.1632 115.198 12.1019C115.259 12.0406 115.293 11.9574 115.293 11.8706V8.53636C115.293 8.44963 115.259 8.36652 115.198 8.30515C115.136 8.24385 115.053 8.20945 114.966 8.20945H114.639C112.443 8.20945 111.083 9.22937 110.455 11.7138V8.54945C110.455 8.46271 110.421 8.37953 110.359 8.31823C110.298 8.25693 110.215 8.22253 110.128 8.22253H106.755C106.668 8.22253 106.584 8.25693 106.523 8.31823C106.462 8.37953 106.428 8.46271 106.428 8.54945L106.441 22.8675ZM158.979 22.8675C158.979 22.9541 159.014 23.0373 159.075 23.0986C159.136 23.1599 159.219 23.1944 159.306 23.1944H162.706C162.793 23.1944 162.876 23.1599 162.937 23.0986C162.998 23.0373 163.033 22.9541 163.033 22.8675V13.7405C163.033 12.2761 163.844 11.3607 165.386 11.3607C166.929 11.3607 167.793 12.2761 167.793 13.7405V22.8675C167.793 22.9541 167.827 23.0373 167.888 23.0986C167.949 23.1599 168.033 23.1944 168.119 23.1944H171.545C171.632 23.1944 171.715 23.1599 171.777 23.0986C171.838 23.0373 171.872 22.9541 171.872 22.8675V13.7405C171.872 12.2761 172.709 11.3607 174.226 11.3607C175.743 11.3607 176.632 12.2761 176.632 13.7405V22.8675C176.636 22.9527 176.672 23.0331 176.733 23.0933C176.793 23.1537 176.873 23.1896 176.958 23.1944H180.358C180.445 23.1944 180.528 23.1599 180.589 23.0986C180.651 23.0373 180.685 22.9541 180.685 22.8675V13.6097C180.685 9.73929 178.397 7.77793 175.481 7.77793C173.023 7.77793 171.768 9.3732 171.114 11.3738C170.929 10.3758 170.405 9.47238 169.631 8.81693C168.856 8.16147 167.878 7.79432 166.864 7.77793C164.72 7.77793 163.752 9.08553 163.02 11.0207V8.53636C163.02 8.44963 162.985 8.36652 162.924 8.30515C162.862 8.24385 162.78 8.20945 162.693 8.20945H159.293C159.206 8.20945 159.123 8.24385 159.062 8.30515C159 8.36652 158.966 8.44963 158.966 8.53636L158.979 22.8675ZM200.273 15.7019C200.273 11.3084 197.684 7.77793 193.525 7.77793C190.806 7.77793 188.714 9.21629 188.06 11.2561V8.53636C188.06 8.44963 188.026 8.36652 187.964 8.30515C187.903 8.24385 187.82 8.20945 187.733 8.20945H184.32C184.234 8.20945 184.151 8.24385 184.089 8.30515C184.028 8.36652 183.993 8.44963 183.993 8.53636V28.6732C183.993 28.7598 184.028 28.843 184.089 28.9043C184.151 28.9656 184.234 29 184.32 29H187.746C187.833 29 187.916 28.9656 187.977 28.9043C188.039 28.843 188.073 28.7598 188.073 28.6732V20.1739C188.727 22.2137 190.819 23.6259 193.538 23.6259C197.697 23.6259 200.286 20.1215 200.286 15.7019H200.273ZM143.628 14.8193L146.266 7.69948L148.911 14.8193H143.628ZM130.552 15.7085C130.552 11.2365 127.885 7.60141 123.073 7.60141C118.549 7.60141 115.594 11.2365 115.594 15.7085C115.594 20.3373 118.889 23.7893 123.91 23.7893C126.63 23.7893 128.957 22.5863 130.056 20.9911C130.084 20.9538 130.105 20.911 130.116 20.8654C130.128 20.8198 130.131 20.7723 130.123 20.7258C130.116 20.6793 130.099 20.6348 130.074 20.5949C130.049 20.5551 130.016 20.5208 129.977 20.4942L127.689 18.4544C127.657 18.4264 127.62 18.4055 127.58 18.3929C127.539 18.3803 127.496 18.3764 127.454 18.3813C127.413 18.3862 127.372 18.4 127.337 18.4216C127.3 18.4432 127.269 18.4722 127.245 18.5066C126.854 19.0705 126.329 19.5283 125.717 19.8387C125.105 20.1491 124.426 20.3025 123.74 20.285C121.805 20.285 120.026 19.3696 119.764 16.8591H130.225C130.27 16.8632 130.313 16.8574 130.355 16.8424C130.397 16.8274 130.435 16.8035 130.465 16.7723C130.497 16.7411 130.521 16.7034 130.536 16.6619C130.551 16.6204 130.557 16.5761 130.552 16.5322V15.7085ZM77.2684 11.3934C77.2684 11.4801 77.3029 11.5633 77.3642 11.6246C77.4254 11.6859 77.5086 11.7203 77.5953 11.7203H79.7921V18.7421C79.7921 21.5664 81.2305 23.214 84.238 23.214H87.0363C87.1228 23.214 87.2059 23.1795 87.2673 23.1182C87.3287 23.0569 87.3626 22.9737 87.3626 22.8871V19.945C87.3667 19.901 87.361 19.8568 87.3465 19.8153C87.3311 19.7739 87.3077 19.7361 87.2762 19.705C87.2447 19.6737 87.2076 19.6498 87.1656 19.6348C87.1244 19.6198 87.08 19.6141 87.0363 19.6181H85.1369C84.1952 19.6181 83.8818 19.2912 83.8818 18.4936V11.7268H86.9935C87.08 11.7268 87.1631 11.6924 87.2245 11.6311C87.2859 11.5698 87.3206 11.4866 87.3206 11.4V8.54945C87.3206 8.46271 87.2859 8.37953 87.2245 8.31823C87.1631 8.25693 87.08 8.22253 86.9935 8.22253H83.8818V3.90749C83.8818 3.82079 83.8471 3.73764 83.7857 3.67634C83.7244 3.61503 83.6412 3.58059 83.5548 3.58059H80.0797C80.0358 3.57658 79.9914 3.58227 79.95 3.59728C79.9085 3.61228 79.8708 3.63623 79.8396 3.66742C79.8084 3.69862 79.7845 3.7363 79.7695 3.77779C79.7545 3.81928 79.7488 3.86356 79.7528 3.90749V8.19636H77.556C77.4694 8.19636 77.3862 8.23077 77.3249 8.29214C77.2636 8.35344 77.2292 8.43654 77.2292 8.52328L77.2684 11.3934ZM136.005 22.9002C135.991 22.9354 135.985 22.9735 135.989 23.0112C135.992 23.049 136.005 23.0854 136.026 23.1173C136.046 23.1493 136.074 23.176 136.106 23.195C136.139 23.2141 136.177 23.2251 136.215 23.227H140.215C140.316 23.23 140.413 23.1995 140.494 23.1402C140.575 23.081 140.633 22.9964 140.66 22.9002L142.255 18.559H150.31L151.944 22.9002C151.972 22.9964 152.03 23.081 152.111 23.1402C152.191 23.1995 152.289 23.23 152.389 23.227H156.468C156.506 23.2251 156.544 23.2141 156.577 23.195C156.609 23.176 156.637 23.1493 156.657 23.1173C156.678 23.0854 156.691 23.049 156.694 23.0112C156.698 22.9735 156.692 22.9354 156.678 22.9002L149.355 3.88788C149.326 3.80128 149.269 3.7265 149.194 3.67468C149.118 3.62284 149.029 3.59673 148.937 3.60021H143.733C143.637 3.59077 143.541 3.61408 143.46 3.66633C143.38 3.71859 143.319 3.79669 143.288 3.88788L136.005 22.9002ZM44.8665 19.5527C41.3883 19.5527 39.0608 16.9637 39.0608 13.3809C39.0608 9.79817 41.3883 7.20914 44.8665 7.20914C45.8225 7.21901 46.7631 7.45095 47.614 7.88665C48.465 8.32235 49.203 8.94986 49.7699 9.71966C49.794 9.76214 49.8279 9.79824 49.8688 9.82506C49.9097 9.85179 49.9563 9.86835 50.005 9.87351C50.0535 9.8786 50.1026 9.87206 50.1481 9.85445C50.1937 9.83677 50.2343 9.8085 50.2668 9.772L53.0389 7.3922C53.1032 7.33338 53.1439 7.25324 53.1535 7.16666C53.1631 7.08008 53.141 6.99295 53.0912 6.92147C51.3913 4.43705 48.5146 3.18178 44.8796 3.18178C38.6685 3.18178 34.5758 7.81063 34.5758 13.3809C34.5758 19.0036 38.6816 23.6324 44.8796 23.6324C48.5146 23.6324 51.5744 22.0894 53.0912 19.8404C53.1417 19.7692 53.1642 19.6819 53.1545 19.595C53.1449 19.5083 53.1037 19.4281 53.0389 19.3696L50.2406 17.0814C50.2106 17.0454 50.172 17.0176 50.1285 17.0001C50.085 16.9827 50.0378 16.9762 49.9913 16.9814C49.9447 16.9866 49.9001 17.0032 49.8614 17.0298C49.8228 17.0563 49.7914 17.092 49.7699 17.1337C49.193 17.8852 48.4504 18.4933 47.5998 18.9107C46.7493 19.328 45.8139 19.5433 44.8665 19.5396V19.5527ZM75.0194 2.54107H71.5543C71.5103 2.53704 71.4661 2.54274 71.4246 2.55774C71.383 2.57275 71.3454 2.5967 71.3142 2.6279C71.283 2.65909 71.2591 2.69677 71.244 2.73826C71.229 2.77975 71.2234 2.82403 71.2273 2.86796V22.874C71.2273 22.9607 71.2618 23.0438 71.3231 23.1051C71.3844 23.1664 71.4676 23.2009 71.5543 23.2009H75.003C75.0897 23.2009 75.1729 23.1664 75.2342 23.1051C75.2955 23.0438 75.3299 22.9607 75.3299 22.874V2.86142C75.3339 2.81749 75.3283 2.7732 75.3132 2.73172C75.2982 2.69023 75.2742 2.65256 75.2431 2.62136C75.2119 2.59017 75.1742 2.56622 75.1327 2.55121C75.0912 2.5362 75.047 2.5305 75.003 2.53452" fill="black"/>
</g>
</svg>
