<svg preserveAspectRatio="none" width="100%" height="100%" overflow="visible" style="display: block;" viewBox="0 0 89.7351 23.1558" fill="none" xmlns="http://www.w3.org/2000/svg">
<path id="Vector" d="M0 22.8369H13.9317V19.0431H4.6014V1.07331H0V22.8369ZM16.8938 22.8369H21.421V6.51422H16.8938V22.8369ZM19.168 4.58015C20.4858 4.58015 21.6228 3.58122 21.6228 2.28475C21.6228 0.998917 20.4858 0 19.168 0C17.8609 0 16.7239 0.998917 16.7239 2.28475C16.7239 3.58122 17.8609 4.58015 19.168 4.58015ZM29.5744 13.4004C29.5849 11.2963 30.8389 10.0636 32.6666 10.0636C34.4839 10.0636 35.5785 11.2538 35.5679 13.2516V22.8369H40.0949V12.444C40.0949 8.63957 37.8633 6.30168 34.4626 6.30168C32.0397 6.30168 30.2863 7.49188 29.5531 9.39407H29.3618V6.51422H25.0472V22.8369H29.5744V13.4004ZM51.144 23.1558C55.1929 23.1558 57.9027 21.1897 58.5403 18.1612L54.3639 17.8849C53.9069 19.1282 52.7274 19.7764 51.229 19.7764C48.9655 19.7764 47.5309 18.278 47.5309 15.8445V15.8339H58.6465V14.5906C58.6465 9.04338 55.2884 6.30168 50.9739 6.30168C46.1706 6.30168 43.0571 9.71287 43.0571 14.75C43.0571 19.9252 46.1282 23.1558 51.144 23.1558ZM47.5309 13.0284C47.616 11.1687 49.0399 9.681 51.0484 9.681C53.0037 9.681 54.3639 11.0837 54.3852 13.0284H47.5309ZM66.3191 23.1452C68.7313 23.1452 70.2935 22.0931 71.0905 20.5735H71.218V22.8369H75.5113V11.8276C75.5113 7.9382 72.1851 6.30168 68.6569 6.30168C64.64 6.30168 62.1002 8.172 61.4733 11.1475L65.6601 11.4876C65.9683 10.4036 66.9354 9.6066 68.5613 9.6066C70.1234 9.6066 70.9736 10.3717 70.9843 11.7426C70.9949 12.8159 69.8684 12.9753 67.031 13.2516C63.8004 13.5491 60.8994 14.6331 60.8994 18.278C60.8994 21.5086 63.2054 23.1452 66.3191 23.1452ZM67.6156 20.0208C66.2234 20.0208 65.2245 19.3726 65.2245 18.1292C65.2245 16.8541 66.2766 16.227 67.8706 16.0039C68.8588 15.8658 70.4741 15.632 71.016 15.2707V17.0029C71.016 18.7138 69.6027 20.0208 67.6156 20.0208ZM79.0233 22.8369H83.5504V13.6023C83.5609 11.6044 85.0063 10.2336 86.834 10.2336C87.4503 10.2336 87.9499 10.4036 88.3749 10.6162L89.7351 6.87553C89.1401 6.51422 88.3749 6.28042 87.5035 6.28042C85.6651 6.28042 84.1774 7.34311 83.5822 9.3622H83.4123V6.51422H79.0233V22.8369Z" fill="var(--fill-0, #040406)"/>
</svg>
