<svg preserveAspectRatio="none" width="100%" height="100%" overflow="visible" style="display: block;" viewBox="0 0 31.0184 35.1152" fill="none" xmlns="http://www.w3.org/2000/svg">
<path id="Vector" d="M27.1506 6.75119C27.1253 6.57423 26.9736 6.47311 26.8472 6.47311C26.7208 6.47311 24.2181 6.42255 24.2181 6.42255C24.2181 6.42255 22.1199 4.40016 21.9176 4.17264C21.7154 3.9704 21.3109 4.02096 21.1593 4.07152C21.1593 4.07152 20.7548 4.19792 20.0975 4.40016C19.9964 4.04624 19.8194 3.61648 19.5919 3.16144C18.8588 1.74577 17.7465 0.987375 16.4319 0.987375C16.3308 0.987375 16.255 0.987375 16.1538 1.01265C16.1033 0.962095 16.078 0.911535 16.0274 0.886256C15.446 0.279539 14.7129 -0.02382 13.8281 0.0014599C12.1343 0.0520197 10.4406 1.29073 9.05019 3.4648C8.08956 5.00688 7.35644 6.92815 7.12892 8.41966C5.18237 9.02638 3.81726 9.45613 3.7667 9.45613C2.78079 9.75949 2.75551 9.78477 2.62911 10.7201C2.57855 11.428 0 31.3738 0 31.3738L21.6396 35.1152L31.0184 32.7895C30.9931 32.7895 27.1759 6.92815 27.1506 6.75119ZM19.0105 4.75408C18.5049 4.90576 17.9487 5.08272 17.342 5.28495C17.342 4.42544 17.2156 3.212 16.8364 2.20081C18.1257 2.40305 18.7577 3.86928 19.0105 4.75408ZM16.2044 5.61359C15.0668 5.96751 13.8281 6.34671 12.5894 6.72591C12.9433 5.38607 13.6006 4.07152 14.4095 3.18672C14.7129 2.85809 15.1426 2.50417 15.623 2.30193C16.1286 3.28784 16.2297 4.67824 16.2044 5.61359ZM13.8787 1.13905C14.2831 1.13905 14.6118 1.21489 14.8898 1.41713C14.4348 1.64465 13.9798 1.99857 13.5753 2.45361C12.4883 3.61648 11.654 5.41135 11.3254 7.15567C10.2889 7.4843 9.27771 7.78766 8.36764 8.06574C8.97435 5.31023 11.2748 1.21489 13.8787 1.13905Z" fill="var(--fill-0, #95BF47)"/>
</svg>
