<svg preserveAspectRatio="none" width="100%" height="100%" overflow="visible" style="display: block;" viewBox="0 0 12.7164 20.879" fill="none" xmlns="http://www.w3.org/2000/svg">
<path id="Vector" d="M12.4178 0H9.6657C9.4842 0 9.3647 0.1207 9.3647 0.3004V7.3709V13.2181C9.3647 13.2339 9.3647 13.2496 9.3647 13.2648C9.3647 13.2806 9.3647 13.2963 9.3647 13.3115V14.0879H9.3495C9.3174 14.922 9.227 15.4704 9.0666 15.9843C8.6775 17.1918 7.7483 17.8562 6.3734 17.8562C5.027 17.8562 4.1001 17.1918 3.7093 15.9843C3.5005 15.3187 3.4118 14.5942 3.4118 13.2648C3.4118 11.936 3.5005 11.2097 3.7093 10.5465C4.0926 9.3618 4.9897 8.6927 6.2917 8.6664H7.4665C7.5237 8.6524 7.561 8.6075 7.561 8.5422L7.5762 5.7796C7.5762 5.709 7.5318 5.6617 7.4665 5.6536L6.5285 5.6501H5.426V5.6507C3.014 5.6763 1.2483 6.8523 0.508598 9.1535C0.149298 10.2729 0 11.3019 0 13.2648C0 15.2283 0.149298 16.2561 0.508598 17.3732C1.2564 19.7006 3.0519 20.879 5.5048 20.879C7.4508 20.879 8.6477 20.155 9.3343 19.1564H9.3635V20.2443C9.3635 20.4263 9.4837 20.547 9.6645 20.547H12.4166C12.5963 20.547 12.7164 20.4269 12.7164 20.2443V0.3004C12.7176 0.1201 12.5974 0 12.4178 0Z" fill="var(--fill-0, #204156)"/>
</svg>
