<svg preserveAspectRatio="none" width="100%" height="100%" overflow="visible" style="display: block;" viewBox="0 0 166.319 42" fill="none" xmlns="http://www.w3.org/2000/svg">
<g id="Vector">
<path fill-rule="evenodd" clip-rule="evenodd" d="M58.2031 27.1679C58.2031 27.8798 57.6812 28.4651 56.9386 28.4651C56.2163 28.4651 55.6943 27.8785 55.6943 27.1679V14.7986C55.6943 14.0865 56.2162 13.5012 56.9588 13.5012C57.6812 13.5012 58.2031 14.0879 58.2031 14.7986V27.1679Z" fill="black"/>
<path fill-rule="evenodd" clip-rule="evenodd" d="M74.4188 14.7985V26.1011C74.4188 27.6291 73.6365 28.4878 72.3922 28.4878H72.2925C71.1087 28.4878 70.5459 27.7758 70.0447 26.7291L67.5157 21.6011L65.2679 16.3065L65.3284 21.4345L65.3486 27.1478C65.3486 27.8598 64.8272 28.4451 64.0841 28.4451C63.3617 28.4451 62.8403 27.8584 62.8403 27.1478V15.8452C62.8403 14.4425 63.6226 13.4585 64.9879 13.4585H65.0882C66.3526 13.4585 66.874 14.1705 67.3763 15.2172L69.8644 20.3038L71.9918 25.2438L71.9319 20.5131L71.9117 14.7999C71.9117 14.0878 72.4331 13.5025 73.1762 13.5025C73.8969 13.5012 74.4188 14.0865 74.4188 14.7985Z" fill="black"/>
<path fill-rule="evenodd" clip-rule="evenodd" d="M84.4745 27.1479C84.4745 27.8598 83.9532 28.4451 83.21 28.4451C82.4882 28.4451 81.9663 27.8585 81.9663 27.1479V15.9505H78.8555C78.2137 15.9505 77.6924 15.4479 77.6924 14.7159C77.6924 14.0039 78.2137 13.5026 78.8555 13.5026H87.5853C88.2271 13.5026 88.749 14.0052 88.749 14.7372C88.749 15.4492 88.2271 15.9505 87.5853 15.9505H84.4745V27.1479Z" fill="black"/>
<path fill-rule="evenodd" clip-rule="evenodd" d="M92.0204 26.7293V15.1133C92.0204 14.0253 92.6023 13.4187 93.6662 13.46H100.891C101.533 13.46 102.054 13.9826 102.054 14.6947C102.054 15.4067 101.533 15.908 100.891 15.908H94.5085V19.508H100.148C100.771 19.508 101.272 19.9893 101.272 20.68C101.272 21.3706 100.771 21.852 100.148 21.852H94.5085V25.9959H100.891C101.533 25.9959 102.054 26.5186 102.054 27.2306C102.054 27.9426 101.533 28.444 100.891 28.444H93.6058C92.5625 28.4453 91.9812 27.8386 92.0204 26.7293Z" fill="black"/>
<path fill-rule="evenodd" clip-rule="evenodd" d="M115.723 28.5079C116.425 28.1306 116.647 27.3559 116.305 26.7493L113.796 22.1039C115.864 21.6853 117.068 20.0946 117.068 17.9386C117.068 15.6786 115.704 13.46 112.432 13.46H107.676C106.613 13.4187 106.031 14.0253 106.031 15.1133V27.1693C106.031 27.8799 106.552 28.4666 107.275 28.4666C108.018 28.4666 108.539 27.8813 108.539 27.1693L108.519 22.6066H111.168L113.958 27.9853C114.297 28.5919 115.041 28.864 115.723 28.5079ZM112.491 20.24H108.517V15.9067H112.471C113.795 15.9067 114.538 16.7853 114.538 18.0627C114.538 19.34 113.836 20.24 112.491 20.24Z" fill="black"/>
<path fill-rule="evenodd" clip-rule="evenodd" d="M122.245 27.3359C120.74 25.9332 120.058 23.7359 120.058 20.9732C120.058 18.1892 120.72 16.0132 122.206 14.6319C123.129 13.7946 124.372 13.2292 126.18 13.2292C127.765 13.2292 128.99 13.6066 129.912 14.4225C130.716 15.0919 131.297 16.0346 131.638 17.3532C131.819 18.0439 131.357 18.7345 130.595 18.8812C129.873 19.0066 129.291 18.5252 129.07 17.8346C128.829 17.1652 128.507 16.6839 128.127 16.3479C127.605 15.8666 126.963 15.6572 126.119 15.6572C125.216 15.6572 124.433 15.9292 123.851 16.5359C123.008 17.4146 122.646 18.9852 122.646 20.9732C122.646 22.9412 122.988 24.5105 123.871 25.3892C124.453 25.9958 125.216 26.2678 126.099 26.2678C127.022 26.2678 127.724 26.0172 128.307 25.4519C128.607 25.1585 128.869 24.7825 129.05 24.3425C129.31 23.6932 129.853 23.2119 130.554 23.3799C131.256 23.5479 131.699 24.2585 131.478 24.9492C131.116 26.0998 130.494 27.0212 129.652 27.6492C128.729 28.3398 127.585 28.6958 126.14 28.6958C124.293 28.6958 123.129 28.1305 122.245 27.3359Z" fill="black"/>
<path fill-rule="evenodd" clip-rule="evenodd" d="M140.67 13.2292C136.314 13.2292 134.468 16.2852 134.468 20.9732C134.468 25.8079 136.295 28.7172 140.67 28.7172C144.964 28.7172 146.852 25.8079 146.852 20.9732C146.852 16.2012 144.985 13.2292 140.67 13.2292ZM140.65 15.6786C143.038 15.6786 144.282 17.4146 144.282 20.9732C144.282 24.5305 143.017 26.2678 140.65 26.2678C138.261 26.2678 137.057 24.5318 137.057 20.9732C137.057 17.4159 138.301 15.6786 140.65 15.6786Z" fill="black"/>
<path fill-rule="evenodd" clip-rule="evenodd" d="M166.319 27.1478C166.319 27.8598 165.797 28.4451 165.055 28.4451C164.332 28.4451 163.81 27.8584 163.81 27.1478V21.5385L163.871 16.0758L162.124 21.6225L160.359 27.0851C160.058 28.0478 159.436 28.4251 158.653 28.4251C157.83 28.4251 157.228 28.0278 156.907 27.0651L155.1 21.6238L153.434 16.1612L153.494 21.5398V27.1491C153.494 27.8611 152.972 28.4464 152.23 28.4464C151.507 28.4464 150.986 27.8598 150.986 27.1491V15.9518C150.986 14.4025 151.788 13.5025 153.193 13.5025C154.518 13.5025 155.261 14.2345 155.681 15.5745L157.528 21.2878L158.652 25.1811L159.796 21.2878L161.642 15.5745C162.064 14.2345 162.787 13.5025 164.111 13.5025C165.516 13.5025 166.299 14.3812 166.299 15.9518L166.319 27.1478Z" fill="black"/>
<path d="M35.438 23.1117C35.438 23.486 35.2946 23.8451 35.0393 24.1099C34.784 24.3746 34.4378 24.5233 34.0767 24.5233C33.7157 24.5233 33.3694 24.3746 33.1141 24.1099C32.8588 23.8451 32.7154 23.486 32.7154 23.1117V10.5001C32.7154 10.1257 32.8588 9.76659 33.1141 9.50188C33.3694 9.23711 33.7157 9.08838 34.0767 9.08838C34.4378 9.08838 34.784 9.23711 35.0393 9.50188C35.2946 9.76659 35.438 10.1257 35.438 10.5001V23.1117ZM34.9655 31.8499C34.7855 32.0366 29.7229 36.4116 20.4415 36.4116C11.1601 36.4116 6.13135 32.0599 5.9176 31.8733C5.78287 31.7555 5.67193 31.6113 5.59107 31.449C5.51021 31.2866 5.46109 31.1093 5.44642 30.9272C5.43181 30.7451 5.45196 30.5618 5.50578 30.3878C5.5596 30.2138 5.646 30.0526 5.76008 29.9133C5.99505 29.6314 6.32791 29.4572 6.6862 29.4288C7.04449 29.4004 7.39908 29.5201 7.67258 29.7616C7.75137 29.8199 12.2739 33.6233 20.4303 33.6233C28.5866 33.6233 33.1429 29.7966 33.188 29.7616C33.4645 29.5222 33.8203 29.4041 34.1795 29.4325C34.5388 29.4608 34.8732 29.6333 35.1117 29.9133C35.3413 30.191 35.4558 30.5514 35.4305 30.9162C35.4053 31.2811 35.2422 31.6208 34.9768 31.8616L34.9655 31.8499ZM5.43382 10.5001C5.45415 10.1245 5.61705 9.77253 5.88692 9.52109C6.15672 9.26971 6.51159 9.13928 6.87385 9.15838C7.20968 9.17814 7.52659 9.32621 7.76341 9.57395C8.00023 9.82169 8.14023 10.1516 8.15636 10.5001V23.0883C8.15636 23.4627 8.01295 23.8218 7.75764 24.0865C7.5024 24.3513 7.15615 24.5 6.79512 24.5C6.43409 24.5 6.08784 24.3513 5.83254 24.0865C5.57724 23.8218 5.43382 23.4627 5.43382 23.0883V10.5001ZM12.2627 7.70009C12.283 7.3245 12.4459 6.97254 12.7157 6.7211C12.9856 6.46972 13.3404 6.33929 13.7027 6.35839C14.0385 6.37816 14.3554 6.52622 14.5922 6.77396C14.8291 7.02171 14.9691 7.3516 14.9852 7.70009V26.3667C14.9852 26.741 14.8418 27.1001 14.5865 27.3649C14.3312 27.6296 13.985 27.7783 13.624 27.7783C13.2629 27.7783 12.9167 27.6296 12.6614 27.3649C12.4061 27.1001 12.2627 26.741 12.2627 26.3667V7.70009ZM19.1253 7.00009C19.1253 6.62568 19.2687 6.2666 19.524 6.00189C19.7793 5.73713 20.1255 5.58839 20.4865 5.58839C20.8476 5.58839 21.1938 5.73713 21.4491 6.00189C21.7044 6.2666 21.8478 6.62568 21.8478 7.00009V27.2999C21.8478 27.6744 21.7044 28.0334 21.4491 28.2981C21.1938 28.5629 20.8476 28.7117 20.4865 28.7117C20.1255 28.7117 19.7793 28.5629 19.524 28.2981C19.2687 28.0334 19.1253 27.6744 19.1253 27.2999V7.00009ZM25.8753 7.70009C25.8753 7.32567 26.0188 6.9666 26.2741 6.70189C26.5294 6.43712 26.8756 6.28839 27.2366 6.28839C27.5977 6.28839 27.9439 6.43712 28.1992 6.70189C28.4545 6.9666 28.5979 7.32567 28.5979 7.70009V26.3667C28.5979 26.741 28.4545 27.1001 28.1992 27.3649C27.9439 27.6296 27.5977 27.7783 27.2366 27.7783C26.8756 27.7783 26.5294 27.6296 26.2741 27.3649C26.0188 27.1001 25.8753 26.741 25.8753 26.3667V7.70009ZM35.8092 0.000118423H5.11882C4.45007 -0.00452956 3.78704 0.127687 3.16768 0.389206C2.54827 0.650669 1.98474 1.03628 1.50925 1.52393C1.03376 2.01163 0.655701 2.59173 0.396758 3.23114C0.137759 3.87049 0.00296799 4.5566 0 5.2501V36.7499C0.00296799 37.4434 0.137759 38.1295 0.396758 38.7689C0.655701 39.4083 1.03376 39.9884 1.50925 40.4761C1.98474 40.9637 2.54827 41.3493 3.16768 41.6108C3.78704 41.8723 4.45007 42.0044 5.11882 41.9999H35.8092C36.477 42.0044 37.1391 41.8727 37.7578 41.6119C38.3764 41.3512 38.9395 40.9666 39.4148 40.4802C39.8902 39.9938 40.2685 39.415 40.5281 38.777C40.7877 38.1389 40.9236 37.4541 40.9281 36.7616V5.2501C40.9251 4.55755 40.7906 3.87245 40.5324 3.23383C40.2741 2.5952 39.8971 2.01561 39.4228 1.52807C38.9485 1.04059 38.3862 0.654756 37.7682 0.392565C37.1501 0.130374 36.4883 -0.00296156 35.8205 0.000118423" fill="black"/>
</g>
</svg>
