<svg preserveAspectRatio="none" width="100%" height="100%" overflow="visible" style="display: block;" viewBox="0 0 134.408 16.8088" fill="none" xmlns="http://www.w3.org/2000/svg">
<g id="Vector">
<path d="M9.98346 16.5002V10.0053H3.75497V16.5002H0V0.313509H3.75497V6.64823H9.98346V0.310137H13.7384V16.4968L9.98346 16.5002Z" fill="black"/>
<path d="M18.4763 16.5002V0.313574H28.7329V3.75493H22.2313V6.64829H28.1512V9.91766H22.2313V13.0757H28.7329V16.5002H18.4763Z" fill="black"/>
<path d="M33.2063 16.5002V0.313574H36.9595V13.0791H43.4544V16.5036L33.2063 16.5002Z" fill="black"/>
<path d="M46.6055 16.5002V0.313574H50.3656V13.0791H56.8588V16.5036L46.6055 16.5002Z" fill="black"/>
<path d="M67.4509 16.765C62.4364 16.765 59.2344 13.1651 59.2344 8.41535C59.2344 3.66558 62.5915 0.0438118 67.606 0.0438118C72.6205 0.0438118 75.8224 3.64534 75.8224 8.41535C75.8224 13.1854 72.4435 16.765 67.4509 16.765ZM67.5133 3.40254C64.952 3.40254 63.2288 5.50007 63.2288 8.41535C63.2288 11.3306 64.952 13.4298 67.5133 13.4298C70.0745 13.4298 71.7994 11.3087 71.7994 8.41535C71.7994 5.52199 70.0795 3.40254 67.5133 3.40254Z" fill="black"/>
<path d="M83.9361 16.765C82.1033 16.765 79.8894 16.0366 78.4815 15.1075L79.5185 11.7066C80.8218 12.6559 82.5231 13.2747 84.0474 13.2747C85.3727 13.2747 85.8802 12.6559 85.8802 11.8618C85.8802 11.0187 85.4603 10.4471 82.9868 9.45399C80.1373 8.30575 79.1475 6.64831 79.1475 4.70422C79.1475 2.34367 81.068 0.0438118 84.8449 0.0438118C86.612 0.0438118 88.4245 0.662614 89.3738 1.30334L88.4212 4.66038C87.4921 4.01966 85.9915 3.3351 84.8415 3.3351C83.4724 3.3351 82.921 3.97582 82.921 4.63846C82.921 5.69903 83.7371 6.05311 85.7706 6.91303C88.7955 8.19447 89.7009 9.65296 89.7009 11.7286C89.7009 14.3134 87.8243 16.765 83.9361 16.765Z" fill="black"/>
<path d="M93.7273 16.5003V0.313587H97.4824V16.5003H93.7273Z" fill="black"/>
<path d="M116.202 7.40031V15.1311C114.345 16.2329 112.219 16.7984 110.061 16.765C105.313 16.765 101.558 13.3641 101.558 8.41535C101.558 3.46662 105.356 0.0438118 110.26 0.0438118C112.381 0.0438118 114.08 0.596856 115.692 1.43654L114.124 4.46142C113.009 3.87438 111.769 3.56385 110.509 3.55598C107.284 3.55598 105.562 5.56582 105.562 8.41535C105.562 11.5077 107.638 13.4298 110.283 13.4298C111.475 13.4298 112.072 13.2966 112.669 12.9881V10.6022H109.42V7.39862L116.202 7.40031Z" fill="black"/>
<path d="M134.034 16.8088L124.271 8.04106V16.5003H120.516V0.0893636L121.022 0L130.653 8.70202V0.310244H134.408V16.7431L134.034 16.8088Z" fill="black"/>
</g>
</svg>
