<svg preserveAspectRatio="none" width="100%" height="100%" overflow="visible" style="display: block;" viewBox="0 0 188.686 34.0372" fill="none" xmlns="http://www.w3.org/2000/svg">
<g id="Vector">
<path d="M60.4964 22.6804C57.7596 22.6804 56.1552 20.5413 56.1552 18.1191C56.1552 15.3194 57.9798 13.4633 60.4964 13.4633C61.8176 13.4633 62.6985 13.9981 63.5164 14.5014L64.8375 12.1422C63.8939 11.5445 62.321 10.8209 60.6537 10.8209C56.3125 10.8209 53.1982 13.9037 53.1982 18.1191C53.1982 22.3029 56.3754 25.4173 60.6537 25.4173C62.4782 25.4173 63.7995 24.6623 64.8375 24.0331L63.5164 21.6738C62.6985 22.24 61.4716 22.6804 60.4964 22.6804ZM69.7764 4.37207H72.5762V25.0398H69.7764V4.37207ZM88.7139 11.2613L88.3993 12.4568C87.6444 11.6388 86.04 10.8209 84.3413 10.8209C80.881 10.8209 77.7038 13.5577 77.7038 18.0247C77.7038 22.6489 80.881 25.4487 84.3413 25.4487C86.04 25.4487 87.5815 24.6308 88.3993 23.8129L88.7139 25.0712H91.0732V11.3557H88.7139V11.2613ZM88.4622 18.2134C88.4622 21.3593 86.5433 22.7748 84.7188 22.7748C82.8628 22.7748 80.7237 21.5166 80.7237 18.0561C80.7237 15.8542 81.8876 13.4948 84.4986 13.4948C86.4804 13.4948 88.4622 15.0992 88.4622 18.0561V18.2134ZM101.077 19.3145C102.996 19.8178 103.814 20.1953 103.814 21.1705C103.814 21.9255 103.153 22.7119 101.612 22.7119C100.196 22.7119 99.032 22.2086 97.9311 21.6109L96.6727 23.9702C97.6479 24.5679 99.8185 25.3858 101.612 25.3858C104.694 25.3858 106.487 23.3096 106.487 21.202C106.487 17.5843 102.933 17.0181 101.989 16.7035C100.007 16.1687 99.5039 15.7598 99.5039 14.9419C99.5039 14.061 100.259 13.4633 101.706 13.4633C102.964 13.4633 103.908 13.8408 104.789 14.2812L106.11 11.922C104.852 11.3872 103.373 10.8209 101.706 10.8209C98.686 10.8209 96.8615 12.96 96.8615 14.9419C96.8615 18.1191 99.5353 18.937 101.077 19.3145ZM116.082 19.3145C118.001 19.8178 118.818 20.1953 118.818 21.1705C118.818 21.9255 118.158 22.7119 116.616 22.7119C115.201 22.7119 114.037 22.2086 112.936 21.6109L111.678 23.9702C112.653 24.5679 114.824 25.3858 116.616 25.3858C119.7 25.3858 121.492 23.3096 121.492 21.202C121.492 17.5843 117.938 17.0181 116.994 16.7035C115.012 16.1687 114.509 15.7598 114.509 14.9419C114.509 14.061 115.264 13.4633 116.711 13.4633C117.969 13.4633 118.913 13.8408 119.794 14.2812L121.115 11.922C119.857 11.3872 118.379 10.8209 116.711 10.8209C113.691 10.8209 111.866 12.96 111.866 14.9419C111.835 18.1191 114.54 18.937 116.082 19.3145ZM133.635 10.8209C131.937 10.8209 130.396 11.6388 129.578 12.4568L129.263 11.1984H126.904V30.7336H129.546V23.9387L129.64 23.8758C130.396 24.6937 131.937 25.3544 133.415 25.3544C136.969 25.3544 140.273 23.0579 140.273 17.9303C140.336 13.3375 137.159 10.8209 133.635 10.8209ZM133.321 22.7748C131.497 22.7748 129.578 21.3593 129.578 18.2134V18.0561C129.578 15.0362 131.559 13.4948 133.541 13.4948C136.183 13.4948 137.316 15.8542 137.316 18.0561C137.316 21.5166 135.177 22.7748 133.321 22.7748ZM155.939 11.2613L155.625 12.5197C154.87 11.7018 153.265 10.8838 151.566 10.8838C148.106 10.8838 144.929 13.6206 144.929 18.0876C144.929 22.7119 148.106 25.5117 151.566 25.5117C153.265 25.5117 154.806 24.6937 155.625 23.8758L155.939 25.1342H158.299V11.4186H155.939V11.2613ZM155.656 18.2134C155.656 21.3593 153.737 22.7748 151.912 22.7748C150.056 22.7748 147.917 21.5166 147.917 18.0561C147.917 15.8542 149.081 13.4948 151.692 13.4948C153.674 13.4948 155.656 15.0992 155.656 18.0561V18.2134ZM168.302 19.3145C170.221 19.8178 171.038 20.1953 171.038 21.1705C171.038 21.9255 170.378 22.7119 168.836 22.7119C167.421 22.7119 166.257 22.2086 165.156 21.6109L163.898 23.9702C164.873 24.5679 167.043 25.3858 168.836 25.3858C171.919 25.3858 173.712 23.3096 173.712 21.202C173.712 17.5843 170.158 17.0181 169.214 16.7035C167.232 16.1687 166.729 15.7598 166.729 14.9419C166.729 14.061 167.484 13.4633 168.931 13.4633C170.189 13.4633 171.133 13.8408 172.014 14.2812L173.335 11.922C172.077 11.3872 170.599 10.8209 168.931 10.8209C165.911 10.8209 164.086 12.96 164.086 14.9419C164.055 18.1191 166.76 18.937 168.302 19.3145ZM183.276 19.3145C185.195 19.8178 186.012 20.1953 186.012 21.1705C186.012 21.9255 185.352 22.7119 183.81 22.7119C182.394 22.7119 181.231 22.2086 180.13 21.6109L178.872 23.9702C179.847 24.5679 182.017 25.3858 183.81 25.3858C186.893 25.3858 188.686 23.3096 188.686 21.202C188.686 17.5843 185.132 17.0181 184.188 16.7035C182.206 16.1687 181.703 15.7598 181.703 14.9419C181.703 14.061 182.458 13.4633 183.905 13.4633C185.163 13.4633 186.107 13.8408 186.987 14.2812L188.309 11.922C187.051 11.3872 185.572 10.8209 183.905 10.8209C180.885 10.8209 179.06 12.96 179.06 14.9419C179.06 18.1191 181.765 18.937 183.276 19.3145Z" fill="#333333"/>
<path d="M29.1926 0H24.128C23.2472 0 22.3664 0.660521 22.272 1.54135L21.517 5.15906C21.4226 5.81958 20.8564 6.26 20.1958 6.26H14.5964C7.01506 6.35437 0 12.0797 0 20.1957C0 27.431 6.03987 34.0372 14.7222 34.0372H20.4474C21.3283 34.0372 22.2091 33.3766 22.3035 32.4957L23.0585 28.8781C23.1529 28.2175 23.7191 27.7771 24.3796 27.7771H29.3185C37.7807 27.7771 44.0407 21.2968 44.0407 13.9357C43.9148 5.81958 36.9942 0 29.1926 0ZM29.0668 22.3978H23.1214C22.2406 22.3978 21.4856 23.0584 21.2654 23.9393L20.5103 27.4625C20.416 28.1231 19.8497 28.5635 19.1892 28.5635H14.785C10.2866 28.5635 5.44217 25.3863 5.44217 20.1014C5.44217 15.2569 9.72041 11.6393 14.785 11.6393H21.5799C22.4608 11.6393 23.2158 10.9786 23.436 10.0979L24.1909 6.57458C24.2852 5.91396 24.8515 5.47354 25.5121 5.47354H29.0354C33.754 5.47354 38.3783 8.77667 38.3783 13.9357C38.3154 18.6544 34.2573 22.3978 29.0668 22.3978Z" fill="#333333"/>
</g>
</svg>
