<svg preserveAspectRatio="none" width="100%" height="100%" overflow="visible" style="display: block;" viewBox="0 0 80.912 20.7195" fill="none" xmlns="http://www.w3.org/2000/svg">
<path id="Vector" fill-rule="evenodd" clip-rule="evenodd" d="M2.58214 14.344L2.55898 14.0394H0L0.0142496 14.382C0.171588 18.1937 2.76026 20.7195 7.36346 20.7195C11.7541 20.7195 14.74 18.4544 14.74 15.0256C14.74 13.1719 14.0922 11.8598 12.8579 10.9644C11.9079 10.2751 10.7733 9.88623 8.89054 9.4813L8.47671 9.39343L8.06644 9.30793C4.64654 8.59724 3.56239 7.97797 3.56239 6.1374C3.56239 4.23331 5.12984 3.02091 7.76007 3.02091C10.3191 3.02091 11.9358 4.57233 12.0112 7.01494L12.0213 7.33377H14.5619L14.5541 6.99772C14.4657 3.19012 11.893 0.627574 7.73454 0.627574C3.65857 0.627574 0.967189 3.06306 0.967189 6.21578C0.967189 8.06466 1.61436 9.35187 2.85051 10.2116C3.79216 10.8671 4.88344 11.215 6.80832 11.6009C7.00489 11.6405 7.20161 11.6793 7.39849 11.7173C9.21947 12.0747 10.0228 12.2956 10.756 12.7189C11.6662 13.2444 12.1175 13.9948 12.1175 15.1574C12.1175 17.1761 10.4087 18.3261 7.4163 18.3261C4.55214 18.3261 2.77451 16.9 2.58214 14.344V14.344ZM20.0877 0.328927V0H17.5626V20.4054H20.0877V16.555L22.7465 13.964L27.4939 20.2742L27.5925 20.4048H30.7339L30.3332 19.877L24.5354 12.2338L29.8825 6.90807L30.4466 6.34521H27.0148L26.918 6.44258L20.0877 13.3269V0.328927V0.328927ZM43.8607 14.2145H44.1724L44.192 13.9046C44.2025 13.7373 44.2104 13.5698 44.2158 13.4023C44.2182 13.3168 44.2193 13.239 44.2193 13.1702C44.2193 9.02116 41.4615 5.96463 37.3861 5.96463C33.3184 5.96463 30.4204 9.21828 30.4204 13.3287C30.4204 17.5584 33.1872 20.7195 37.4128 20.7195C40.6077 20.7195 43.0764 18.8302 43.9658 15.9649L44.0988 15.5368H41.4508L41.3724 15.7565C40.8143 17.3251 39.3021 18.3659 37.4389 18.3659C35.0046 18.3659 33.3066 16.6993 33.0008 14.2145H43.8613H43.8607ZM32.9289 12.2433C33.3552 9.97885 34.9815 8.47611 37.1955 8.47611C39.4772 8.47611 41.0524 9.92957 41.3968 12.2433H32.9295H32.9289ZM52.3582 8.55508H52.6866V6.32146H49.6092V2.51149H47.0841V6.32146H44.5328V8.55508H47.0841V16.4244C47.0841 19.0059 48.4248 20.4054 50.8852 20.4054C51.3144 20.4054 51.6849 20.3798 51.9955 20.3365C52.1878 20.3098 52.3202 20.2819 52.3933 20.2617L52.6343 20.1952V17.8565L52.2353 17.9426C52.1183 17.9663 52.0007 17.9869 51.8826 18.0043C51.6309 18.0425 51.3767 18.0634 51.1221 18.0667C50.0439 18.0667 49.6092 17.5608 49.6092 16.2932V8.55508H52.3582V8.55508ZM60.1907 20.7195C63.6587 20.7195 66.1073 18.4959 66.7224 15.3497L66.7996 14.9549H64.272L64.2079 15.2007C63.6813 17.2081 62.2516 18.3653 60.1907 18.3653C57.6199 18.3653 55.8458 16.311 55.8458 13.3554C55.8458 10.3766 57.6163 8.31818 60.1907 8.31818C62.2516 8.31818 63.6813 9.47596 64.2079 11.4834L64.272 11.7292H66.7996L66.7224 11.3343C66.1073 8.18756 63.6587 5.96463 60.1907 5.96463C56.1623 5.96463 53.3141 9.24143 53.3141 13.3554C53.3141 17.4462 56.1664 20.7195 60.1907 20.7195V20.7195ZM71.5144 0.328334V0H68.9946V20.4054H71.5144V12.1507C71.5144 9.73661 72.9797 8.31996 75.2026 8.31996C77.3258 8.31996 78.3922 9.55314 78.3922 11.8877V20.4054H80.912V11.5184C80.912 8.22022 78.8761 6.02875 75.5179 6.02875C73.7902 6.02875 72.4014 6.66404 71.5144 7.57483V0.328927V0.328334Z" fill="var(--fill-0, black)"/>
</svg>
