<svg preserveAspectRatio="none" width="100%" height="100%" overflow="visible" style="display: block;" viewBox="0 0 13.6554 21.7281" fill="none" xmlns="http://www.w3.org/2000/svg">
<path id="Vector" d="M2.27049 0.341877C0.942369 2.38543 0.168393 4.73918 0.0245176 7.17215C-0.119357 9.60511 0.371813 12.0337 1.44983 14.2195L5.02803 21.3759C5.08093 21.4817 5.16226 21.5707 5.26289 21.6329C5.36352 21.6952 5.47949 21.7281 5.5978 21.7281H13.0184C13.127 21.7281 13.2338 21.7003 13.3286 21.6475C13.4235 21.5946 13.5032 21.5183 13.5603 21.426C13.6174 21.3336 13.6499 21.2282 13.6548 21.1197C13.6597 21.0112 13.6367 20.9033 13.5882 20.8062C13.5882 20.8062 3.60494 0.837341 3.35405 0.337879C3.30444 0.236212 3.22718 0.150587 3.13113 0.0908256C3.03508 0.0310641 2.92414 -0.000413326 2.81101 4.09831e-06C2.69789 0.000421523 2.58718 0.0327169 2.49157 0.0931856C2.39597 0.153654 2.31934 0.239847 2.27049 0.341877V0.341877Z" fill="var(--fill-0, #2684FF)"/>
</svg>
