<svg preserveAspectRatio="none" width="100%" height="100%" overflow="visible" style="display: block;" viewBox="0 0 7.29809 7.26385" fill="none" xmlns="http://www.w3.org/2000/svg">
<path id="Vector" d="M6.22676 6.20261C5.71511 6.71087 5.06332 7.05641 4.35406 7.19542C3.6448 7.33443 2.91004 7.26064 2.24298 6.9834C1.57593 6.70617 1.00663 6.23799 0.607303 5.63824C0.207978 5.0385 -0.00337965 4.33422 4.08694e-05 3.61474C0.00346139 2.89526 0.221506 2.19301 0.626515 1.59705C1.03153 1.0011 1.60525 0.538297 2.27491 0.267358C2.94458 -0.00358096 3.68001 -0.0704497 4.38791 0.0752332C5.09581 0.220916 5.74429 0.572586 6.25109 1.08563C6.92627 1.76914 7.3026 2.69059 7.29805 3.64911C7.29349 4.60763 6.90841 5.5255 6.22676 6.20261V6.20261Z" fill="var(--fill-0, #D5465F)"/>
</svg>
