<svg preserveAspectRatio="none" width="100%" height="100%" overflow="visible" style="display: block;" viewBox="0 0 11.3583 22.2111" fill="none" xmlns="http://www.w3.org/2000/svg">
<path id="Vector" d="M5.87863 13.5129L10.6932 9.65585C11.0923 9.33665 11.1455 8.93765 11.1455 8.72485C11.1455 8.08644 10.6401 7.55444 9.97506 7.55444C9.78886 7.55444 9.46965 7.58104 9.17705 7.84704L2.34081 13.4331V1.17041C2.34081 0.532001 1.8354 0 1.1704 0C0.531993 0 0 0.505401 0 1.17041V21.0407C0 21.6791 0.505393 22.2111 1.1704 22.2111C1.8088 22.2111 2.34081 21.7057 2.34081 21.0407V16.2527L3.96341 14.9493L9.20365 21.6791C9.49625 22.0249 9.81545 22.2111 10.1879 22.2111C10.8263 22.2111 11.3583 21.7057 11.3583 21.0407C11.3583 20.8545 11.3317 20.5885 11.1189 20.3225L5.87863 13.5129Z" fill="var(--fill-0, #4D4D4D)"/>
</svg>
