<svg preserveAspectRatio="none" width="100%" height="100%" overflow="visible" style="display: block;" viewBox="0 0 80.1747 24.628" fill="none" xmlns="http://www.w3.org/2000/svg">
<path id="Vector" d="M9.60067 20.3177L9.94572 19.9118L11.0215 23.3217L10.8794 23.4638C10.0675 24.2148 8.84967 24.6005 7.28677 24.6005H7.22587C5.80506 24.6005 4.6887 24.1945 3.9174 23.4435C3.1461 22.6722 2.74015 21.5153 2.74015 20.0538V10.7576H0V7.00261H2.74015V2.47628H6.96201V7.00261H10.3111V10.7576H6.94171V19.1405C6.94171 19.5261 7.0432 20.7643 8.22045 20.7643C8.82937 20.7643 9.3977 20.541 9.60067 20.2974V20.3177ZM11.8334 24.2148V7.0229H16.0552V24.2148H11.8334V24.2148ZM13.924 0C14.425 1.60303e-05 14.9147 0.148321 15.3315 0.426222C15.7482 0.704124 16.0734 1.09918 16.2661 1.56161C16.4587 2.02404 16.5101 2.53314 16.4138 3.02474C16.3176 3.51634 16.0779 3.96844 15.7251 4.32407C15.3723 4.67969 14.9221 4.92292 14.4313 5.0231C13.9405 5.12328 13.431 5.07592 12.9671 4.887C12.5031 4.69807 12.1055 4.37604 11.8243 3.96148C11.5431 3.54692 11.3908 3.0584 11.3868 2.55747C11.3868 1.17725 12.5438 0 13.924 0ZM27.4015 6.59666C31.055 6.59666 33.0645 8.58581 33.0645 12.219V24.1945H28.8426V13.2339C28.7614 11.2854 27.8277 10.3923 25.8386 10.3923C24.0524 10.3923 22.6113 11.4883 21.8806 12.422V24.1945H17.6587V7.0432H21.8806V8.86997C23.0984 7.69272 25.047 6.63725 27.4015 6.63725V6.59666ZM47.1103 8.80908V0.730707H51.3321V24.2351H47.1103V22.4489C46.4642 23.1303 45.6871 23.674 44.8255 24.0472C43.9639 24.4204 43.0357 24.6155 42.0968 24.6208C37.4893 24.6208 34.4041 21.0078 34.4041 15.629C34.4041 10.2299 37.4893 6.61696 42.0968 6.61696C43.0378 6.62125 43.9679 6.81793 44.8301 7.19491C45.6922 7.57188 46.4682 8.12119 47.1103 8.80908ZM47.1103 12.4423C46.6398 11.8295 46.0385 11.3293 45.3503 10.9782C44.6621 10.6271 43.9043 10.4339 43.132 10.4126C40.5136 10.4126 38.768 12.5032 38.768 15.629C38.768 18.7345 40.5136 20.8251 43.132 20.8251C44.6543 20.8251 46.3187 20.0132 47.1103 18.836V12.4423ZM61.1967 6.61696C66.1898 6.61696 69.6607 10.4735 69.6607 15.9538V17.1107H56.8936C57.3199 19.5261 59.2278 21.0687 61.8259 21.0687C63.47 21.0687 65.2764 20.3583 66.3116 19.3231L66.5958 19.0796L68.6052 21.9618L68.4022 22.1445C66.5003 23.8308 64.0208 24.7179 61.4808 24.6208C56.2035 24.6208 52.4891 20.9063 52.4891 15.6087C52.448 14.4391 52.6438 13.2732 53.0645 12.1811C53.4852 11.089 54.1223 10.0932 54.9374 9.25343C55.7525 8.41365 56.729 7.74722 57.808 7.29417C58.8871 6.84111 60.0466 6.61077 61.217 6.61696H61.1967ZM56.8733 13.924H65.5403C65.2967 11.3463 63.1655 10.169 61.1967 10.169C58.2332 10.169 57.1169 12.4017 56.8733 13.9443V13.924ZM79.8703 6.61696H80.1747V10.8794L79.8094 10.8185C79.5049 10.7576 79.1193 10.717 78.7336 10.717C77.3737 10.717 75.486 11.671 74.7756 12.6859V24.1945H70.5538V7.0229H74.7959V8.93086C76.1964 7.46945 78.0435 6.61696 79.8703 6.61696V6.61696Z" fill="var(--fill-0, #424242)"/>
</svg>
