<svg preserveAspectRatio="none" width="100%" height="100%" overflow="visible" style="display: block;" viewBox="0 0 56.4324 26.9788" fill="none" xmlns="http://www.w3.org/2000/svg">
<g id="Vector">
<path d="M12.1498 0H4.27463C3.73572 0 3.27742 0.391515 3.19336 0.923515L0.00826746 21.1176C-0.0550659 21.5161 0.253539 21.8753 0.657721 21.8753H4.41742C4.95632 21.8753 5.41463 21.4838 5.49869 20.9507L6.35772 15.504C6.44063 14.9708 6.90008 14.5793 7.43784 14.5793H9.93087C15.1184 14.5793 18.1124 12.069 18.8943 7.09449C19.2466 4.91812 18.9092 3.20812 17.8901 2.01055C16.7709 0.695515 14.7857 0 12.1498 0ZM13.0584 7.37546C12.6277 10.2013 10.4686 10.2013 8.38093 10.2013H7.19257L8.02627 4.92388C8.07578 4.60491 8.35214 4.37 8.67457 4.37H9.21923C10.6414 4.37 11.9829 4.37 12.6761 5.18067C13.0895 5.6643 13.2161 6.38285 13.0584 7.37546Z" fill="#253B80"/>
<path d="M35.6904 7.28448H31.9192C31.598 7.28448 31.3205 7.51938 31.2709 7.83835L31.104 8.89314L30.8403 8.51084C30.0238 7.32593 28.2033 6.92981 26.3862 6.92981C22.2189 6.92981 18.6595 10.0861 17.9663 14.5137C17.6059 16.7223 18.1183 18.8342 19.3712 20.307C20.5204 21.6611 22.1648 22.2254 24.1212 22.2254C27.479 22.2254 29.341 20.0663 29.341 20.0663L29.1729 21.1142C29.1095 21.5149 29.4181 21.8742 29.82 21.8742H33.217C33.757 21.8742 34.2131 21.4827 34.2983 20.9495L36.3364 8.04217C36.4009 7.6449 36.0935 7.28448 35.6904 7.28448ZM30.4338 14.6242C30.0699 16.7787 28.3599 18.225 26.1789 18.225C25.0838 18.225 24.2087 17.8738 23.6468 17.2082C23.0894 16.5473 22.8775 15.6065 23.0549 14.5586C23.3946 12.4225 25.1334 10.929 27.2809 10.929C28.3518 10.929 29.2224 11.2848 29.7958 11.9562C30.3704 12.6344 30.5984 13.581 30.4338 14.6242Z" fill="#253B80"/>
<path d="M55.7751 7.28442H51.9855C51.6239 7.28442 51.2842 7.46406 51.0792 7.76461L45.8525 15.4636L43.637 8.06515C43.4977 7.60224 43.0705 7.28442 42.5868 7.28442H38.8628C38.4103 7.28442 38.0959 7.72661 38.2398 8.15267L42.4141 20.4025L38.4897 25.9424C38.1811 26.3788 38.492 26.9788 39.0252 26.9788H42.8102C43.1695 26.9788 43.5057 26.8038 43.7095 26.509L56.314 8.31503C56.6157 7.87976 56.306 7.28442 55.7751 7.28442Z" fill="#253B80"/>
</g>
</svg>
