<svg preserveAspectRatio="none" width="100%" height="100%" overflow="visible" style="display: block;" viewBox="0 0 13.9724 14.0005" fill="none" xmlns="http://www.w3.org/2000/svg">
<path id="Vector" d="M13.9724 11.0001C13.9724 9.34302 12.6316 7.99971 10.978 7.99971C9.32448 7.99971 7.98417 9.34302 7.98417 11.0001V14H10.978C11.7729 13.9992 12.5349 13.6827 13.0965 13.1201C13.658 12.5576 13.9731 11.795 13.9724 11.0001V11.0001ZM5.98826 11.0001V2.99989C5.98892 2.20502 5.67383 1.44244 5.11229 0.879863C4.55075 0.317288 3.78875 0.00079725 2.99388 0C1.3403 0 0 1.34331 0 2.99989V10.9996C0 12.6572 1.3403 14.0005 2.99388 14.0005C3.78875 13.9997 4.55075 13.6832 5.11229 13.1206C5.67383 12.5581 5.98892 11.7955 5.98826 11.0006" fill="var(--fill-0, #2EB67D)"/>
</svg>
