<svg preserveAspectRatio="none" width="100%" height="100%" overflow="visible" style="display: block;" viewBox="0 0 13.0523 15.2166" fill="none" xmlns="http://www.w3.org/2000/svg">
<path id="Vector" d="M9.63905 8.42822C11.0882 8.42822 12.28 8.39962 12.69 8.30428C12.8425 8.27568 12.8997 8.21847 12.9283 8.09453C13.0142 7.77036 13.0523 7.09344 13.0523 6.26396C13.0523 3.44184 11.3552 0 6.96949 0C2.48842 0 0 3.65159 0 7.77036C0 11.422 1.92591 15.2166 7.32225 15.2166C9.3435 15.2166 10.6497 14.8924 11.7747 14.3585C11.8891 14.3013 11.9463 14.2059 11.9463 14.0343V11.565C11.9463 11.422 11.8605 11.3934 11.7747 11.4506C10.6497 11.9273 9.4293 12.1656 8.09452 12.1656C5.07218 12.1656 3.69926 10.4971 3.61345 8.42822H9.63905ZM3.61344 5.87306C3.85181 4.42386 4.76708 2.85072 6.81693 2.85072C9.07653 2.85072 9.66765 4.74803 9.66765 5.6061C9.66765 5.6347 9.66765 5.75865 9.66765 5.84446C9.54371 5.87306 9.16234 5.87306 8.0373 5.87306H3.61344Z" fill="var(--fill-0, #FA0C00)"/>
</svg>
