<svg preserveAspectRatio="none" width="100%" height="100%" overflow="visible" style="display: block;" viewBox="0 0 16.4966 19.023" fill="none" xmlns="http://www.w3.org/2000/svg">
<path id="Vector" fill-rule="evenodd" clip-rule="evenodd" d="M11.0844 2.1982V1.22771C11.0842 0.902019 10.9539 0.589747 10.7222 0.359533C10.4905 0.129319 10.1764 1.02453e-07 9.84883 1.93655e-07H6.9682C6.80599 -9.039e-05 6.64535 0.0315984 6.49546 0.0932533C6.34557 0.154908 6.20937 0.245324 6.09462 0.359333C5.97988 0.473343 5.88885 0.608713 5.82673 0.757712C5.76461 0.906711 5.73262 1.06642 5.73259 1.22771V2.22395C5.73259 2.33497 5.8357 2.41267 5.94828 2.3867C6.76317 2.15285 7.60719 2.03461 8.45533 2.03546C9.27715 2.03546 10.0906 2.14626 10.8769 2.36072C10.9016 2.367 10.9275 2.36754 10.9525 2.36228C10.9775 2.35702 11.0009 2.34611 11.021 2.33039C11.0411 2.31468 11.0572 2.29458 11.0682 2.27166C11.0792 2.24874 11.0848 2.2236 11.0844 2.1982V2.1982ZM3.18994 3.46821L2.69777 2.97883C2.5252 2.80678 2.30511 2.68961 2.06544 2.64218C1.82577 2.59474 1.57733 2.61919 1.35166 2.71241C1.20177 2.77409 1.06562 2.86463 0.951043 2.97883L0.362709 3.56246C0.247645 3.67604 0.156352 3.81116 0.0940973 3.96002C0.0318428 4.10888 -0.000139208 4.26852 4.55455e-07 4.42974C-0.000139208 4.59096 0.0318428 4.7506 0.0940973 4.89946C0.156352 5.04832 0.247645 5.18344 0.362709 5.29702L0.846555 5.77813C0.924922 5.85491 1.0375 5.83721 1.10639 5.76043C1.39184 5.37063 1.70701 5.00321 2.04911 4.66144C2.39412 4.31721 2.76693 4.0017 3.16381 3.71808C3.25027 3.66613 3.25883 3.54591 3.18994 3.46821V3.46821ZM8.44678 6.54933V10.7474C8.44678 10.8676 8.57716 10.9536 8.68881 10.8936L12.4421 8.96199C12.5274 8.91947 12.5535 8.81581 12.511 8.73098C11.7329 7.37363 10.2885 6.44681 8.61993 6.38659C8.53347 6.38659 8.44678 6.45508 8.44678 6.54933ZM8.44678 16.6623C5.31718 16.6623 2.77476 14.1374 2.77476 11.0303C2.77476 7.92301 5.31718 5.39954 8.44678 5.39954C11.5775 5.39954 14.1193 7.92301 14.1193 11.0303C14.1193 14.1374 11.5861 16.6623 8.44678 16.6623ZM8.44678 3.03055C4.00204 3.03055 0.396924 6.6107 0.396924 11.0303C0.396924 15.4511 4.00204 19.023 8.44678 19.023C12.8915 19.023 16.4966 15.4428 16.4966 11.022C16.4966 6.60128 12.8998 3.03055 8.44678 3.03055V3.03055Z" fill="var(--fill-0, white)"/>
</svg>
