<svg preserveAspectRatio="none" width="100%" height="100%" overflow="visible" style="display: block;" viewBox="0 0 131 32" fill="none" xmlns="http://www.w3.org/2000/svg">
<g id="logo-layer" clip-path="url(#clip0_418_230)">
<path id="Vector" d="M10.9769 12.6024V11.3554C10.5461 11.2868 10.111 11.2493 9.67486 11.243C5.45244 11.234 1.71417 13.9833 0.446236 18.03C-0.821698 22.0767 0.674953 26.4818 4.141 28.9048C1.54468 26.1129 0.823771 22.0486 2.30028 18.5275C3.77679 15.0063 7.17499 12.6857 10.9769 12.6024Z" fill="var(--fill-0, #25F4EE)"/>
<path id="Vector_2" d="M11.2109 26.7277C13.5717 26.7245 15.5123 24.8558 15.6156 22.486V1.33894H19.4608C19.3823 0.897072 19.3449 0.448832 19.3489 0H14.0897V21.1266C14.0023 23.5085 12.0572 25.3951 9.68503 25.399C8.97615 25.3929 8.27885 25.2178 7.65053 24.8879C8.47645 26.0377 9.79967 26.7215 11.2109 26.7277V26.7277Z" fill="var(--fill-0, #25F4EE)"/>
<path id="Vector_3" d="M26.6427 8.51404V7.33864C25.2275 7.33912 23.8438 6.91954 22.6652 6.13257C23.6984 7.33937 25.0946 8.17533 26.6427 8.51404Z" fill="var(--fill-0, #25F4EE)"/>
<path id="Vector_4" d="M22.6652 6.13254C21.5042 4.80416 20.8642 3.09657 20.8647 1.32871H19.4609C19.8273 3.30409 20.986 5.04118 22.6652 6.13254Z" fill="var(--fill-0, #FE2C55)"/>
<path id="Vector_5" d="M9.67484 16.5272C7.64894 16.5377 5.89011 17.9322 5.40894 19.9095C4.92778 21.8869 5.84778 23.9395 7.64034 24.888C6.66905 23.5406 6.53184 21.7598 7.28518 20.2783C8.03852 18.7968 9.55512 17.8649 11.2109 17.8662C11.6524 17.8717 12.0908 17.9405 12.513 18.0706V12.6944C12.0819 12.6295 11.6468 12.5953 11.2109 12.5922H10.9769V16.6806C10.5526 16.5662 10.114 16.5146 9.67484 16.5272Z" fill="var(--fill-0, #FE2C55)"/>
<path id="Vector_6" d="M26.6426 8.51401V12.6024C24.0229 12.5973 21.4712 11.7641 19.3489 10.2209V20.9631C19.3377 26.3234 15.0098 30.6628 9.67486 30.6627C7.69362 30.6663 5.7601 30.052 4.141 28.9047C6.84305 31.8247 11.0482 32.7858 14.7415 31.3277C18.4348 29.8695 20.8638 26.2891 20.8646 22.302V11.5905C22.994 13.1236 25.5489 13.9459 28.1685 13.9413V8.67755C27.6557 8.67591 27.1443 8.62111 26.6426 8.51401Z" fill="var(--fill-0, #FE2C55)"/>
<path id="Vector_7" d="M19.349 20.9631V10.2209C21.4777 11.7553 24.033 12.5777 26.6528 12.5717V8.48335C25.1051 8.15497 23.7055 7.3299 22.6652 6.13254C20.986 5.04118 19.8273 3.30409 19.4609 1.32871H15.6156V22.486C15.5387 24.3736 14.2804 26.0051 12.4805 26.5511C10.6805 27.0971 8.73386 26.4378 7.6302 24.9084C5.83764 23.9599 4.91763 21.9073 5.3988 19.9299C5.87996 17.9526 7.63879 16.5581 9.6647 16.5477C10.1063 16.5516 10.545 16.6205 10.9668 16.7521V12.6637C7.14351 12.7288 3.71964 15.0574 2.23894 18.5997C0.75823 22.1419 1.50041 26.2286 4.13084 29.0172C5.76591 30.1267 7.70224 30.7014 9.67487 30.6627C15.0098 30.6628 19.3377 26.3234 19.349 20.9631V20.9631Z" fill="var(--fill-0, black)"/>
<path id="Vector_8" d="M48.0023 12.7212H43.7502V30.0968H38.4299V12.7212H33.1199L33.1097 7.95825H49.5078L48.0023 12.7212Z" fill="var(--fill-0, black)"/>
<path id="Vector_9" d="M91.6323 12.7212H87.0139V30.0968H81.7039V12.7212H76.3735L76.3633 7.95825H93.1378L91.6323 12.7212Z" fill="var(--fill-0, black)"/>
<path id="Vector_10" d="M55.764 30.0967H50.5454L50.5048 15.0004H55.764V30.0967Z" fill="var(--fill-0, black)"/>
<path id="Vector_11" d="M63.0983 18.2098L68.3067 13.0994H74.573L67.9913 19.5181L75.3664 30.0968H69.5782L64.6547 22.7479L63.0983 24.2606V30.0968H57.8493V7.89692H63.0983V18.2098Z" fill="var(--fill-0, black)"/>
<path id="Vector_12" d="M118.793 18.2098L123.991 13.0994H130.257L123.676 19.5181L131 30.0968H125.212L120.298 22.7479L118.793 24.2606V30.0968H113.534L113.483 7.89692H118.793V18.2098Z" fill="var(--fill-0, black)"/>
<path id="Vector_13" d="M53.1394 13.2731C54.6001 13.2731 55.7843 12.0834 55.7843 10.6157C55.7843 9.14803 54.6001 7.95825 53.1394 7.95825C51.6787 7.95825 50.4945 9.14803 50.4945 10.6157C50.4945 12.0834 51.6787 13.2731 53.1394 13.2731Z" fill="var(--fill-0, black)"/>
<path id="Vector_14" d="M92.4665 21.0615C92.4681 16.3461 96.0784 12.4249 100.757 12.0568C100.523 12.0568 100.208 12.0568 99.9738 12.0568C95.2188 12.3355 91.5049 16.2911 91.5049 21.0768C91.5049 25.8625 95.2188 29.8181 99.9738 30.0968C100.208 30.0968 100.523 30.0968 100.757 30.0968C96.0667 29.7278 92.4521 25.7886 92.4665 21.0615V21.0615Z" fill="var(--fill-0, #25F4EE)"/>
<path id="Vector_15" d="M102.802 12.0262C102.558 12.0262 102.242 12.0262 102.008 12.0262C106.672 12.4132 110.261 16.3291 110.261 21.0308C110.261 25.7325 106.672 29.6484 102.008 30.0354C102.242 30.0354 102.558 30.0354 102.802 30.0354C107.768 30.0354 111.794 25.9902 111.794 21.0001C111.794 16.0101 107.768 11.9648 102.802 11.9648V12.0262Z" fill="var(--fill-0, #FE2C55)"/>
<path id="Vector_16" d="M101.378 25.4565C98.9618 25.4565 97.0034 23.4888 97.0034 21.0615C97.0034 18.6342 98.9618 16.6665 101.378 16.6665C103.793 16.6665 105.752 18.6342 105.752 21.0615C105.746 23.4864 103.791 25.4508 101.378 25.4565ZM101.378 12.0262C96.4111 12.0262 92.3851 16.0714 92.3851 21.0615C92.3851 26.0515 96.4111 30.0968 101.378 30.0968C106.344 30.0968 110.37 26.0515 110.37 21.0615C110.37 18.6652 109.423 16.367 107.736 14.6725C106.05 12.9781 103.763 12.0262 101.378 12.0262V12.0262Z" fill="var(--fill-0, black)"/>
</g>
<defs>
<clipPath id="clip0_418_230">
<rect width="131" height="32" fill="white"/>
</clipPath>
</defs>
</svg>
