<svg preserveAspectRatio="none" width="100%" height="100%" overflow="visible" style="display: block;" viewBox="0 0 25.7073 11.2192" fill="none" xmlns="http://www.w3.org/2000/svg">
<path id="Vector" d="M19.4866 1.26548C18.6225 2.11976 17.5976 2.79599 16.4705 3.25545C15.3434 3.7149 14.1363 3.94855 12.9184 3.94301C11.7007 3.94479 10.495 3.7048 9.37165 3.23707C8.24835 2.76935 7.23007 2.08329 6.37643 1.21907C6.04652 0.849647 5.64433 0.551134 5.19448 0.341807C4.74462 0.13248 4.25658 0.0167445 3.76022 0.0016861C3.26386 -0.0133723 2.76964 0.0725641 2.30781 0.254233C1.84598 0.435901 1.42627 0.709478 1.07437 1.05821C0.72247 1.40695 0.445789 1.82351 0.261267 2.28238C0.0767453 2.74125 -0.0117339 3.23278 0.00124701 3.72687C0.0142279 4.22096 0.128396 4.70721 0.33676 5.15585C0.545125 5.6045 0.843301 6.00609 1.21303 6.33605C2.74251 7.87522 4.56213 9.09883 6.56762 9.93675C8.5731 10.7747 10.725 11.2104 12.9 11.2191C15.075 11.2277 17.2304 10.809 19.2425 9.987C21.2546 9.165 23.084 7.95586 24.6257 6.42887C24.9663 6.09301 25.2372 5.69367 25.4227 5.25364C25.6083 4.81361 25.705 4.34151 25.7072 3.86429C25.7095 3.38707 25.6173 2.91409 25.4359 2.47234C25.2545 2.03059 24.9875 1.62872 24.65 1.28969C24.3126 0.950655 23.9114 0.681094 23.4693 0.496394C23.0272 0.311694 22.5528 0.215473 22.0734 0.213224C21.5939 0.210976 21.1187 0.302744 20.6749 0.483289C20.231 0.663835 19.8273 0.929623 19.4866 1.26548V1.26548Z" fill="var(--fill-0, #EB5A68)"/>
</svg>
