<svg preserveAspectRatio="none" width="100%" height="100%" overflow="visible" style="display: block;" viewBox="0 0 62.9897 22.1477" fill="none" xmlns="http://www.w3.org/2000/svg">
<g id="Group">
<path id="Vector" fill-rule="evenodd" clip-rule="evenodd" d="M30.6709 22.1393L27.1818 21.307V7.25786L30.6709 6.59366V22.1393ZM55.0782 18.8267C52.5475 18.8351 50.496 16.7921 50.4792 14.2614C50.4792 14.253 50.4792 14.2446 50.4792 14.2362C50.4792 11.7475 52.5223 9.70447 55.0698 9.70447C57.6173 9.70447 59.6603 11.7475 59.6603 14.2362C59.6687 16.7669 57.6173 18.8183 55.095 18.8267C55.095 18.8267 55.0866 18.8267 55.0782 18.8267ZM62.9897 14.2362C62.9897 18.6081 59.4501 22.1477 55.0782 22.1477C50.7062 22.1477 47.1666 18.6081 47.1666 14.2362C47.1666 9.92307 50.7146 6.38347 55.0866 6.38347C59.4585 6.38347 62.9897 9.92307 62.9897 14.2362ZM18.1016 21.3154L21.5319 22.03V12.5715C21.5319 8.03136 17.9923 6.43392 15.5541 6.43392C13.9482 6.43392 12.6198 6.82066 11.4596 7.98091C10.2405 6.82066 8.80276 6.37506 7.64251 6.37506C5.92736 6.37506 4.48966 7.08971 3.48915 8.30881V6.70296L0 7.36716V21.307L3.48915 22.0216V12.4622C3.48915 10.9152 4.59896 9.86422 6.3057 9.86422C7.91155 9.86422 9.0718 10.9152 9.0718 12.4622V21.3154L12.5021 22.03V12.4622C12.5021 10.9152 13.6624 9.86422 15.3271 9.86422C16.9329 9.86422 18.0932 10.9152 18.0932 12.4622L18.1016 21.3154ZM44.5603 6.38347L42.5088 6.66092C38.6918 7.54372 36.2031 8.76282 36.2031 12.9666V21.3154L39.6923 21.9796V13.4627C39.6923 11.5289 40.8021 10.6377 42.5172 10.3098L44.5687 9.98192L44.5603 6.38347ZM27.3499 0.624264C26.5176 1.47343 26.5176 2.81865 27.3499 3.66782C28.1991 4.54221 29.6032 4.55062 30.4691 3.70145C30.4775 3.69304 30.4944 3.67622 30.5028 3.66782C31.3351 2.82706 31.3351 1.46502 30.5028 0.624264C29.6116 -0.208088 28.2327 -0.208088 27.3499 0.624264Z" fill="var(--fill-0, #050038)"/>
</g>
</svg>
