<svg preserveAspectRatio="none" width="100%" height="100%" overflow="visible" style="display: block;" viewBox="0 0 13.4851 20.0348" fill="none" xmlns="http://www.w3.org/2000/svg">
<path id="Vector" d="M2.1726 20.0348C1.9936 20.0348 1.8736 19.9135 1.8736 19.7309V17.3107C1.8736 17.1299 1.9936 17.0068 2.1726 17.0068H2.71261C3.85061 17.0068 4.4216 16.4946 4.8706 15.2831L5.2906 14.0423L0.0156024 0.303301C-0.0443976 0.121301 0.0755998 0 0.2566 0H3.2226C3.4016 0 3.5226 0.121301 3.5806 0.303301L6.8486 9.836H6.9076L10.0246 0.303301C10.0846 0.121301 10.2046 0 10.3826 0H13.2286C13.4106 0 13.5306 0.121301 13.4686 0.303301L7.9566 15.4948C6.6986 18.9452 5.49861 20.0337 3.10261 20.0337L2.1726 20.0348Z" fill="var(--fill-0, #204156)"/>
</svg>
