<svg preserveAspectRatio="none" width="100%" height="100%" overflow="visible" style="display: block;" viewBox="0 0 118 32" fill="none" xmlns="http://www.w3.org/2000/svg">
<g id="logo-layer">
<path id="Vector" d="M29.5629 16C29.5629 24.0766 23.1521 30.6244 15.2411 30.6244C7.33017 30.6244 0.916672 24.0766 0.916672 16C0.916672 7.92342 7.33017 1.37565 15.2411 1.37565C23.1521 1.37565 29.5629 7.92342 29.5629 16Z" fill="var(--fill-0, #EE3023)"/>
<path id="Vector_2" d="M15.3543 24.1545C11.4199 24.1682 7.3249 20.7396 7.30648 15.2316C7.2933 11.591 9.21974 8.08468 11.6778 6.00509C14.0779 3.97923 17.3649 2.67611 20.344 2.66536C20.7282 2.66536 21.1309 2.69755 21.3756 2.78353C18.7702 3.33434 16.6965 5.81157 16.7043 8.61931C16.7043 8.71329 16.7122 8.81272 16.7227 8.85842C21.0834 9.9439 23.0625 12.6307 23.0756 16.3466C23.0862 20.0651 20.2123 24.1383 15.3542 24.1545" fill="var(--fill-0, white)"/>
<path id="Vector_3" d="M114.352 15.4385C114.323 15.0704 114.247 14.7479 114.123 14.4766C113.999 14.2025 113.847 13.9822 113.665 13.8129C113.483 13.641 113.289 13.5174 113.078 13.4341C112.865 13.3536 112.652 13.3132 112.433 13.3132C111.968 13.3132 111.525 13.4905 111.104 13.8452C110.683 14.1999 110.436 14.7291 110.362 15.4385H114.352ZM110.299 17.4079C110.357 18.308 110.631 18.9582 111.125 19.3558C111.617 19.7535 112.257 19.955 113.039 19.955C113.402 19.955 113.744 19.9201 114.062 19.8556C114.381 19.7885 114.665 19.7051 114.912 19.6003C115.16 19.4982 115.37 19.3934 115.544 19.2913C115.718 19.1866 115.847 19.0898 115.936 19.0012L116.652 21.2393C116.549 21.3118 116.386 21.4113 116.162 21.5375C115.939 21.6639 115.66 21.7793 115.328 21.8922C114.997 22.0023 114.604 22.0964 114.157 22.1797C113.71 22.2602 113.218 22.3005 112.683 22.3005C112.002 22.3005 111.357 22.1904 110.741 21.9701C110.128 21.7471 109.588 21.4032 109.128 20.9383C108.665 20.4735 108.296 19.8958 108.023 19.2027C107.746 18.5094 107.609 17.6819 107.609 16.7227C107.609 15.8226 107.736 15.0247 107.988 14.3315C108.241 13.6383 108.588 13.0552 109.028 12.5823C109.47 12.1121 109.983 11.7494 110.567 11.4968C111.154 11.247 111.778 11.1207 112.444 11.1207C113.11 11.1207 113.723 11.2336 114.289 11.4538C114.852 11.6742 115.339 12.0181 115.752 12.4829C116.162 12.9477 116.489 13.5496 116.726 14.2884C116.965 15.0246 117.084 15.9033 117.084 16.9215V17.4079L110.299 17.4079Z" fill="var(--fill-0, #EE3023)"/>
<path id="Vector_4" d="M38.8134 22.0561L34.4342 11.3867H37.2949L40.0266 18.4718L42.6741 11.3867H45.4059L41.1556 22.0561H38.8134Z" fill="var(--fill-0, #EE3023)"/>
<path id="Vector_5" d="M53.0273 16.6664C53.0273 16.2231 52.9773 15.8012 52.8747 15.4009C52.7747 15.0006 52.622 14.6566 52.4194 14.3692C52.2167 14.079 51.972 13.8506 51.6825 13.6813C51.393 13.5093 51.0535 13.4234 50.664 13.4234C50.2745 13.4234 49.9324 13.5094 49.6455 13.6813C49.3561 13.8506 49.1087 14.079 48.9087 14.3692C48.706 14.6566 48.5534 15.0006 48.4534 15.4009C48.3508 15.8012 48.3007 16.2231 48.3007 16.6664C48.3007 17.1258 48.3507 17.553 48.4534 17.9453C48.5534 18.3376 48.7008 18.6815 48.8955 18.977C49.0903 19.2726 49.3376 19.5063 49.635 19.6783C49.9298 19.8475 50.2745 19.9335 50.664 19.9335C51.0535 19.9335 51.393 19.8475 51.6825 19.6783C51.972 19.5063 52.2167 19.2726 52.4194 18.977C52.622 18.6815 52.7747 18.3376 52.8747 17.9453C52.9773 17.553 53.0273 17.1258 53.0273 16.6664ZM55.6722 16.6781C55.6722 17.374 55.5669 18.0564 55.359 18.7281C55.1485 19.3998 54.8379 19.999 54.4248 20.5309C54.0142 21.0629 53.4931 21.4902 52.8642 21.8153C52.2352 22.1404 51.5009 22.3016 50.664 22.3016C49.8245 22.3016 49.0903 22.1403 48.4639 21.8153C47.8349 21.4902 47.3139 21.063 46.9007 20.531C46.4901 19.999 46.1796 19.3998 45.969 18.7281C45.7611 18.0564 45.6559 17.374 45.6559 16.6781C45.6559 15.9849 45.7611 15.3078 45.969 14.6415C46.1796 13.9778 46.4901 13.384 46.9007 12.8601C47.3139 12.3362 47.8349 11.917 48.4639 11.6C49.0903 11.2829 49.8245 11.1217 50.664 11.1217C51.5009 11.1217 52.2325 11.283 52.8536 11.6C53.4747 11.917 53.9958 12.3362 54.4142 12.8601C54.8353 13.384 55.1485 13.9778 55.359 14.6415C55.5669 15.3078 55.6722 15.9849 55.6722 16.6781Z" fill="var(--fill-0, #EE3023)"/>
<path id="Vector_6" d="M63.7489 13.735C63.2305 13.5281 62.7489 13.4233 62.3015 13.4233C61.8436 13.4233 61.4462 13.5148 61.1172 13.692C60.7856 13.8692 60.5119 14.1084 60.2961 14.412C60.0803 14.7157 59.9198 15.0569 59.8119 15.4357C59.704 15.8119 59.6487 16.2015 59.6487 16.6018C59.6487 17.0451 59.696 17.4696 59.7908 17.878C59.8829 18.2838 60.0277 18.6411 60.2224 18.9447C60.4145 19.2483 60.6593 19.4928 60.954 19.6782C61.2488 19.8609 61.5988 19.955 62.0015 19.955C62.3331 19.955 62.6699 19.861 63.0147 19.6782C63.3594 19.4928 63.6042 19.2725 63.7489 19.0226L63.7489 13.735ZM63.9647 22.056L63.8568 21.2393C63.6121 21.5187 63.2884 21.7659 62.8831 21.9781C62.4804 22.1931 62.0041 22.3006 61.4567 22.3006C60.7382 22.3006 60.1014 22.1448 59.5566 21.8357C59.0066 21.5268 58.546 21.113 58.1723 20.5971C57.7986 20.0813 57.5118 19.4821 57.317 18.8023C57.1249 18.1252 57.0275 17.4159 57.0275 16.6771C57.0275 15.9839 57.1275 15.3041 57.3275 14.6404C57.5302 13.9768 57.8355 13.383 58.246 12.8591C58.6592 12.3352 59.1724 11.916 59.7935 11.599C60.4119 11.2819 61.1409 11.1207 61.9751 11.1207C62.5225 11.1207 63.1147 11.2254 63.7489 11.4297V7.29199H66.4359V22.056H63.9647Z" fill="var(--fill-0, #EE3023)"/>
<path id="Vector_7" d="M74.0047 17.0533C73.7152 17.0689 73.4152 17.0963 73.1099 17.1312C72.8047 17.1689 72.5152 17.2172 72.2388 17.2763C71.6546 17.3945 71.2519 17.5961 71.0256 17.8835C70.8019 18.1737 70.6888 18.4854 70.6888 18.8266C70.6888 19.1786 70.8151 19.4634 71.0703 19.6783C71.3256 19.8906 71.6835 19.998 72.1494 19.998C72.4994 19.998 72.8389 19.9255 73.1652 19.7777C73.4915 19.63 73.7731 19.4446 74.0047 19.2243V17.0533ZM74.2205 22.0481L74.1153 21.2501C73.8231 21.5779 73.4547 21.8358 73.0047 22.0212C72.5546 22.2066 72.0625 22.3006 71.5256 22.3006C71.0756 22.3006 70.6414 22.2226 70.2308 22.0669C69.815 21.9138 69.4492 21.6907 69.1308 21.4032C68.8123 21.1157 68.5544 20.7638 68.3597 20.3419C68.1623 19.9201 68.0649 19.4446 68.0649 18.9126C68.0649 18.3833 68.1649 17.9131 68.3702 17.5074C68.5729 17.1016 68.8466 16.7604 69.1966 16.4783C69.544 16.1989 69.944 15.9705 70.394 15.7932C70.8414 15.6159 71.3151 15.4815 71.8072 15.3928C72.1546 15.3203 72.5362 15.2665 72.9494 15.2288C73.3626 15.1912 73.7073 15.159 73.9837 15.1294V14.9736C73.9837 14.3825 73.8363 13.9634 73.5363 13.7108C73.2389 13.4609 72.8284 13.3347 72.3073 13.3347C72.002 13.3347 71.7099 13.3723 71.4335 13.4475C71.1572 13.5201 70.9125 13.6115 70.694 13.7216C70.4756 13.8345 70.2835 13.9446 70.115 14.0548C69.9493 14.1649 69.815 14.2643 69.7124 14.353L68.8229 12.4292C68.9387 12.3245 69.115 12.2009 69.3545 12.0531C69.594 11.9053 69.8808 11.7602 70.2229 11.6205C70.5624 11.4807 70.944 11.3626 71.3704 11.2658C71.7967 11.1691 72.2573 11.1208 72.7468 11.1208C73.3257 11.1208 73.8547 11.1988 74.3311 11.3545C74.8074 11.5103 75.2206 11.7522 75.568 12.0853C75.9127 12.4158 76.1838 12.835 76.3812 13.3455C76.5759 13.8533 76.6733 14.4685 76.6733 15.1913V22.0481H74.2205Z" fill="var(--fill-0, #EE3023)"/>
<path id="Vector_8" d="M84.979 9.72629C84.8922 9.6834 84.7237 9.61887 84.4711 9.53815C84.2158 9.45763 83.8816 9.41727 83.4605 9.41727C83.0868 9.41727 82.771 9.5329 82.5183 9.76119C82.2657 9.98956 82.1394 10.363 82.1394 10.8789V11.3867H84.3948V13.6006H82.1604V22.0561H79.4708V13.6006H78.0839V11.3867H79.4708V10.8117C79.4708 10.1185 79.5577 9.53282 79.7313 9.05188C79.905 8.57362 80.1472 8.18134 80.4577 7.88041C80.7682 7.5768 81.1341 7.3538 81.5525 7.21409C81.9736 7.07429 82.4289 7.00449 82.921 7.00449C83.571 7.00449 84.1079 7.06629 84.5342 7.19264C84.9606 7.31898 85.2106 7.40221 85.2816 7.4479L84.979 9.72629Z" fill="var(--fill-0, #EE3023)"/>
<path id="Vector_9" d="M92.3083 16.6664C92.3083 16.2231 92.2557 15.8012 92.1557 15.4009C92.0557 15.0006 91.903 14.6566 91.7004 14.3692C91.4977 14.079 91.253 13.8506 90.9635 13.6813C90.674 13.5093 90.3345 13.4234 89.945 13.4234C89.5555 13.4234 89.2134 13.5094 88.9266 13.6813C88.6371 13.8506 88.3897 14.079 88.187 14.3692C87.987 14.6566 87.8344 15.0006 87.7318 15.4009C87.6317 15.8012 87.5818 16.2231 87.5818 16.6664C87.5818 17.1258 87.6317 17.553 87.7318 17.9453C87.8344 18.3376 87.9818 18.6815 88.1765 18.977C88.3713 19.2726 88.6186 19.5063 88.9134 19.6783C89.2108 19.8475 89.5555 19.9335 89.945 19.9335C90.3345 19.9335 90.674 19.8475 90.9635 19.6783C91.253 19.5063 91.4977 19.2726 91.7004 18.977C91.903 18.6815 92.0557 18.3376 92.1557 17.9453C92.2557 17.553 92.3083 17.1258 92.3083 16.6664ZM94.9532 16.6781C94.9532 17.374 94.8479 18.0564 94.6374 18.7281C94.4295 19.3998 94.1189 19.999 93.7058 20.5309C93.2952 21.0629 92.7741 21.4902 92.1452 21.8153C91.5162 22.1404 90.7819 22.3016 89.945 22.3016C89.1055 22.3016 88.3713 22.1403 87.7449 21.8153C87.1159 21.4902 86.5949 21.063 86.1817 20.531C85.7711 19.999 85.4606 19.3998 85.2501 18.7281C85.0395 18.0564 84.9369 17.374 84.9369 16.6781C84.9369 15.9849 85.0395 15.3078 85.2501 14.6415C85.4606 13.9778 85.7711 13.384 86.1817 12.8601C86.5949 12.3362 87.1159 11.917 87.7449 11.6C88.3713 11.2829 89.1055 11.1217 89.945 11.1217C90.7819 11.1217 91.5135 11.283 92.1346 11.6C92.7557 11.917 93.2768 12.3362 93.6952 12.8601C94.1163 13.384 94.4295 13.9778 94.6374 14.6415C94.8479 15.3078 94.9532 15.9849 94.9532 16.6781Z" fill="var(--fill-0, #EE3023)"/>
<path id="Vector_10" d="M103.298 22.0561V15.9705C103.298 15.1591 103.133 14.5304 102.801 14.0871C102.467 13.6464 102.006 13.4234 101.411 13.4234C100.993 13.4234 100.606 13.5336 100.253 13.7566C99.8982 13.9769 99.5903 14.2214 99.3298 14.4874V22.0561H96.6428V11.3868H99.0929L99.2219 12.2278C99.6429 11.8758 100.114 11.6017 100.643 11.411C101.169 11.2176 101.701 11.1235 102.235 11.1235C102.785 11.1235 103.29 11.2068 103.754 11.3761C104.217 11.548 104.614 11.8167 104.946 12.1848C105.28 12.5529 105.535 13.0338 105.717 13.6222C105.896 14.2133 105.988 14.9226 105.988 15.7475V22.0561H103.298Z" fill="var(--fill-0, #EE3023)"/>
</g>
</svg>
