<svg preserveAspectRatio="none" width="100%" height="100%" overflow="visible" style="display: block;" viewBox="0 0 127.894 21.5646" fill="none" xmlns="http://www.w3.org/2000/svg">
<path id="Vector" d="M10.2488 16.9157C11.3009 16.1247 11.4408 16.5666 12.3287 17.4504C12.7727 17.8923 13.987 18.661 13.1923 19.3108C11.5341 20.6586 10.038 21.2639 7.9215 21.2639C3.13112 21.2417 -0.256408 17.6824 0.0152426 12.9609C0.130796 10.8463 0.972104 8.84475 2.63242 7.47269C4.15083 6.19344 6.04225 5.63655 8.02895 5.68296C9.00268 5.68008 9.96732 5.86936 10.8671 6.23985C11.4765 6.45887 12.0508 6.76471 12.572 7.14783C13.6242 7.95493 13.1336 8.42708 12.3145 9.24023C12.128 9.42586 11.9415 9.61351 11.7773 9.79914C11.3577 10.2168 11.0759 10.5195 10.5164 10.124C9.44194 9.37945 8.08368 8.98398 6.80044 9.3169C2.66485 10.3621 2.85136 17.6885 7.92353 17.7127C8.76436 17.7017 9.57943 17.4223 10.2488 16.9157V16.9157ZM125.208 21.3547C125.042 21.3555 124.878 21.3236 124.724 21.2609C124.571 21.1981 124.431 21.1057 124.314 20.989C124.196 20.8724 124.103 20.7337 124.04 20.5811C123.977 20.4284 123.944 20.2648 123.945 20.0997L124.016 3.86699C124.015 3.70186 124.047 3.5382 124.11 3.38546C124.173 3.23272 124.266 3.09392 124.383 2.97705C124.5 2.86019 124.64 2.76759 124.793 2.70458C124.947 2.64157 125.111 2.60941 125.277 2.60994H126.633C126.799 2.60941 126.964 2.64164 127.117 2.70477C127.271 2.7679 127.41 2.86069 127.527 2.97777C127.645 3.09484 127.737 3.23388 127.8 3.38686C127.863 3.53984 127.895 3.70371 127.894 3.86901L127.823 20.1017C127.824 20.2667 127.792 20.4303 127.729 20.5829C127.666 20.7356 127.573 20.8742 127.455 20.9909C127.338 21.1076 127.199 21.2001 127.046 21.2628C126.892 21.3256 126.728 21.3575 126.562 21.3567L125.208 21.3547ZM118.113 19.4722C116.641 20.8442 115.238 21.5646 113.158 21.5646C108.953 21.5404 106.942 18.0759 106.942 14.1918L106.967 7.5877C106.966 7.42266 106.998 7.25915 107.062 7.10662C107.125 6.9541 107.218 6.81557 107.336 6.69906C107.453 6.58255 107.593 6.49035 107.746 6.42781C107.899 6.36527 108.064 6.33362 108.23 6.33469H109.586C109.752 6.33388 109.916 6.3658 110.069 6.42859C110.223 6.49137 110.362 6.58379 110.479 6.70049C110.597 6.81719 110.689 6.95586 110.753 7.10849C110.816 7.26112 110.848 7.42468 110.847 7.58972L110.825 14.1938C110.825 16.3568 111.992 18.0537 114.283 18.0537C116.574 18.0537 117.975 16.1469 117.997 14.0182V11.6595C117.978 11.5679 117.971 11.4744 117.975 11.381L117.997 7.63613C117.996 7.47109 118.028 7.30753 118.091 7.1549C118.154 7.00227 118.247 6.8636 118.364 6.7469C118.482 6.6302 118.621 6.53778 118.774 6.47499C118.928 6.41221 119.092 6.38029 119.258 6.38109H120.596C120.762 6.38029 120.926 6.41221 121.079 6.47499C121.233 6.53778 121.372 6.6302 121.489 6.7469C121.607 6.8636 121.699 7.00227 121.762 7.1549C121.826 7.30753 121.858 7.47109 121.857 7.63613L121.812 20.1017C121.809 20.4315 121.674 20.7466 121.438 20.9778C121.202 21.2089 120.883 21.3372 120.551 21.3345H119.406C119.081 21.3244 118.771 21.1913 118.541 20.9623C118.311 20.7332 118.177 20.4255 118.167 20.1017L118.113 19.4722ZM101.982 6.38109H104.599C104.765 6.38345 104.929 6.41849 105.081 6.48418C105.233 6.54988 105.371 6.64493 105.486 6.76386C105.601 6.88279 105.691 7.02325 105.752 7.17711C105.812 7.33098 105.841 7.49521 105.838 7.66034V8.5199C105.835 8.85124 105.702 9.16834 105.467 9.40302C105.232 9.6377 104.914 9.77124 104.581 9.77493H101.957L101.911 20.0311C101.912 20.1962 101.88 20.3599 101.816 20.5126C101.753 20.6654 101.661 20.8042 101.543 20.921C101.426 21.0379 101.287 21.1305 101.133 21.1935C100.98 21.2565 100.816 21.2887 100.65 21.2881H99.2956C99.1296 21.2887 98.9651 21.2565 98.8117 21.1935C98.6582 21.1306 98.5187 21.038 98.4014 20.9211C98.284 20.8043 98.1909 20.6655 98.1277 20.5128C98.0644 20.36 98.0321 20.1963 98.0326 20.0311L98.0792 5.84639C98.0792 2.7532 99.8551 0.309721 103.034 0.0312734C103.127 0.0312734 103.196 0.00907816 103.289 0.00907816C103.476 -0.00302605 103.664 -0.00302605 103.851 0.00907816H105.067C105.233 0.0114366 105.397 0.0464084 105.549 0.111979C105.701 0.17755 105.838 0.272424 105.954 0.391139C106.069 0.509854 106.159 0.650064 106.22 0.803696C106.28 0.957328 106.309 1.12135 106.306 1.28631V2.07726C106.304 2.40965 106.17 2.72786 105.934 2.96309C105.698 3.19831 105.379 3.33167 105.045 3.33431H104.064C102.568 3.33431 101.937 4.47231 101.913 5.86859L101.982 6.38109ZM92.5895 6.33469H95.458C95.7894 6.33788 96.106 6.47184 96.3382 6.70715C96.5704 6.94246 96.6994 7.25988 96.6967 7.58972V8.44927C96.6935 8.77911 96.5589 9.09419 96.3224 9.32534C96.086 9.55648 95.7671 9.6848 95.4357 9.68211H92.5651L92.5428 15.9573C92.5428 17.1679 93.1267 17.864 94.341 17.864H94.9249C95.2564 17.8678 95.573 18.0022 95.8052 18.2378C96.0373 18.4734 96.1662 18.7911 96.1635 19.1211V19.9928C96.1598 20.3224 96.025 20.6372 95.7887 20.8682C95.5524 21.0993 95.2338 21.2277 94.9026 21.2256H93.8038C93.6008 21.2296 93.3977 21.2215 93.1956 21.2014C90.0878 20.9996 88.7093 18.994 88.7093 15.9694C88.7336 11.8996 88.7336 7.85404 88.7559 3.78427C88.7575 3.62077 88.7915 3.4592 88.8558 3.30876C88.9201 3.15832 89.0136 3.02197 89.1309 2.90749C89.2482 2.793 89.387 2.70264 89.5393 2.64154C89.6917 2.58045 89.8547 2.54983 90.0189 2.55143H91.3508C91.6822 2.55462 91.9988 2.68858 92.231 2.92389C92.4632 3.1592 92.5922 3.47662 92.5895 3.80646V6.33469ZM51.0309 6.17125H53.8995C54.2308 6.17445 54.5474 6.30841 54.7797 6.54371C55.0119 6.77902 55.1408 7.09645 55.1381 7.42628V8.28987C55.1344 8.61954 54.9996 8.93431 54.7633 9.16534C54.527 9.39638 54.2084 9.52487 53.8772 9.52271H50.9985V15.7999C50.9985 17.0105 51.5823 17.7067 52.7966 17.7067H53.3825C53.5465 17.7082 53.7086 17.742 53.8595 17.8059C54.0104 17.8698 54.1472 17.9627 54.262 18.0792C54.3768 18.1958 54.4675 18.3337 54.5287 18.4851C54.59 18.6365 54.6207 18.7985 54.6191 18.9617V19.8212C54.6159 20.1511 54.4813 20.4662 54.2449 20.6973C54.0085 20.9285 53.6896 21.0568 53.3582 21.0541H52.4946C49.105 21.0319 47.1427 19.5892 47.1427 15.808C47.167 11.7382 47.167 7.69061 47.1893 3.62083C47.193 3.29081 47.3281 2.97573 47.5648 2.74464C47.8015 2.51355 48.1207 2.3853 48.4523 2.38799H49.7842C50.1155 2.39172 50.4319 2.52619 50.6638 2.76188C50.8956 2.99757 51.024 3.3152 51.0208 3.64504L51.0309 6.17125ZM34.1622 7.93879C35.5407 6.65954 37.0368 5.84639 38.9749 5.84639C43.1814 5.86859 45.3546 9.27655 45.3303 13.2172L45.308 19.8212C45.3085 19.9865 45.2762 20.1502 45.2129 20.3029C45.1497 20.4557 45.0567 20.5945 44.9393 20.7113C44.8219 20.8281 44.6824 20.9207 44.529 20.9837C44.3755 21.0467 44.211 21.0788 44.045 21.0783H42.6908C42.5248 21.0788 42.3603 21.0467 42.2069 20.9837C42.0534 20.9207 41.9139 20.8281 41.7966 20.7113C41.6792 20.5945 41.5862 20.4557 41.5229 20.3029C41.4596 20.1502 41.4273 19.9865 41.4278 19.8212L41.4522 13.2636C41.4522 11.1006 40.2845 9.40366 37.9937 9.40366C35.7029 9.40366 34.3021 11.2882 34.2798 13.427L34.2554 19.8212C34.2522 20.1511 34.1176 20.4662 33.8812 20.6973C33.6448 20.9285 33.3259 21.0568 32.9945 21.0541H31.6626C31.3312 21.0509 31.0146 20.9169 30.7824 20.6816C30.5502 20.4463 30.4212 20.1289 30.4239 19.799C30.4462 15.8221 30.4462 11.8229 30.4706 7.84597V7.31127C30.4716 6.98179 30.6039 6.66617 30.8384 6.43357C31.0728 6.20097 31.3904 6.07036 31.7214 6.07036H32.8668C33.1922 6.07999 33.5017 6.21297 33.7319 6.44212C33.9621 6.67127 34.0957 6.97928 34.1054 7.3032L34.1622 7.93879ZM75.7998 8.10021C77.1783 6.82298 78.6724 6.00781 80.6125 6.00781C84.819 6.03203 86.9902 9.45007 86.9679 13.3806L86.9436 19.9928C86.9444 20.1579 86.9123 20.3215 86.8493 20.4743C86.7862 20.627 86.6934 20.7658 86.5762 20.8827C86.459 20.9995 86.3196 21.0922 86.1663 21.1552C86.0129 21.2182 85.8486 21.2503 85.6826 21.2498H84.3284C84.1624 21.2503 83.998 21.2182 83.8445 21.1552C83.691 21.0922 83.5516 20.9996 83.4342 20.8828C83.3168 20.766 83.2238 20.6272 83.1605 20.4744C83.0972 20.3217 83.0649 20.158 83.0655 19.9928L83.0898 13.4351C83.0898 11.2721 81.9201 9.57517 79.6313 9.57517C77.3425 9.57517 75.9397 11.4577 75.9154 13.5985L75.8829 19.9928C75.8792 20.3228 75.7441 20.6378 75.5074 20.8689C75.2707 21.1 74.9515 21.2283 74.62 21.2256H73.2881C72.957 21.2219 72.641 21.0877 72.4092 20.8524C72.1774 20.6172 72.0487 20.3 72.0514 19.9706L72.0981 7.48076C72.0986 7.31659 72.1317 7.15414 72.1956 7.00277C72.2594 6.8514 72.3528 6.71409 72.4701 6.59876C72.5875 6.48342 72.7267 6.39234 72.8796 6.33074C73.0325 6.26914 73.1961 6.23825 73.361 6.23985H74.5064C74.8331 6.25059 75.1432 6.38535 75.3731 6.61648C75.6031 6.84762 75.7355 7.15758 75.743 7.48278L75.7998 8.10021ZM21.4412 5.72936C16.884 5.70515 13.6606 8.98398 13.6363 13.4956C13.614 18.0537 16.7907 21.2881 21.3946 21.3103C25.9985 21.3325 29.2218 18.1243 29.2441 13.536C29.2684 9.0546 25.9741 5.75156 21.4412 5.72936ZM59.2696 15.0553C59.596 17.1477 61.6071 18.0073 63.5694 18.0315C64.5532 18.023 65.5242 17.8092 66.4197 17.404C66.5637 17.3456 66.7039 17.2782 66.8394 17.2022C67.3077 16.946 67.7273 16.7845 68.149 17.2022C68.3821 17.4343 68.5929 17.6683 68.8261 17.8761C69.0463 18.0853 69.2496 18.3113 69.4343 18.5521C70.0647 19.341 69.6208 19.5287 68.897 20.017C67.3543 21.04 65.3453 21.5504 63.4985 21.5504C58.5459 21.5283 55.2739 18.5238 55.2739 13.5521C55.2983 8.85282 58.5682 5.73744 63.2876 5.75963C68.1024 5.78384 70.8351 8.59859 70.906 13.3887C70.9283 14.6901 70.975 15.1098 69.6208 15.1098L59.2696 15.0553ZM21.4412 9.24023C23.8009 9.24023 25.366 11.2882 25.366 13.5441C25.366 15.8927 23.8942 17.7813 21.4169 17.7813C18.9396 17.7813 17.4921 15.8745 17.4921 13.5259C17.4921 11.1773 18.9882 9.24023 21.4412 9.24023V9.24023ZM59.373 11.8229L67.1313 11.8451C66.8495 9.91415 65.2379 9.14741 63.3931 9.14741C61.5483 9.14741 59.9467 10.009 59.373 11.8229Z" fill="var(--fill-0, #29303A)"/>
</svg>
