<svg preserveAspectRatio="none" width="100%" height="100%" overflow="visible" style="display: block;" viewBox="0 0 160.943 27.4651" fill="none" xmlns="http://www.w3.org/2000/svg">
<path id="Vector" d="M2.10656 13.2093L0 21.0647H10.4249L14.6907 5.08462L2.10656 13.2093ZM38.319 6.29334C38.0642 7.24045 37.5732 7.93612 36.841 8.38037C36.1105 8.82376 35.0853 9.04631 33.7619 9.04631H29.5572L31.0335 3.54208H35.2382C36.5598 3.54208 37.4679 3.76293 37.9605 4.21312C38.4532 4.66331 38.5721 5.35134 38.319 6.30269V6.29334ZM42.6723 6.18377C43.2074 4.19613 42.9866 2.66718 42.008 1.59691C41.0312 0.535134 39.3171 0 36.8707 0H27.4872L21.8386 21.0741H26.3974L28.6738 12.5799H31.6638C32.3348 12.5799 32.8632 12.6903 33.2488 12.9027C33.6353 13.1235 33.8621 13.5058 33.9317 14.0579L34.7455 21.0741H39.6296L38.838 14.5336C38.6766 13.0726 38.0081 12.2146 36.8334 11.9598C38.3309 11.5266 39.5855 10.8046 40.5963 9.80229C41.6 8.80732 42.3172 7.56026 42.6723 6.19226V6.18377ZM53.7538 13.5312C53.3715 14.9583 52.7855 16.037 51.9929 16.793C51.1996 17.549 50.2516 17.9227 49.1457 17.9227C48.0194 17.9227 47.2557 17.5575 46.8523 16.8185C46.4479 16.0795 46.4343 15.0092 46.8098 13.6077C47.1852 12.2062 47.7841 11.1104 48.608 10.3204C49.4319 9.53048 50.3952 9.1355 51.5011 9.1355C52.6054 9.1355 53.3614 9.51774 53.7436 10.2763C54.1343 11.0382 54.1428 12.128 53.7606 13.5465L53.7538 13.5312ZM55.7516 6.07335L55.1808 8.20539C54.9345 7.44091 54.4563 6.82933 53.7495 6.37064C53.0411 5.92045 52.1645 5.69111 51.1189 5.69111C49.8363 5.69111 48.6046 6.02238 47.4239 6.68493C46.2432 7.34747 45.2069 8.28183 44.3235 9.48801C43.4401 10.6942 42.7946 12.0617 42.3784 13.5992C41.9706 15.1451 41.8857 16.4957 42.132 17.6679C42.3869 18.8486 42.922 19.749 43.7459 20.3776C44.5784 21.0146 45.6401 21.3289 46.9397 21.3289C47.9724 21.3341 48.9935 21.1108 49.9297 20.6749C50.8553 20.2574 51.6786 19.6428 52.3421 18.8741L51.7475 21.0962H56.1559L60.1813 6.08099H55.7644L55.7516 6.07335ZM76.023 6.07335H63.2027L62.3066 9.42006H69.7662L59.9044 17.9397L59.0618 21.0826H72.2958L73.1919 17.7359H65.1989L75.2118 9.08878L76.023 6.07335ZM87.3075 13.5058C86.9109 14.9838 86.3222 16.0948 85.545 16.8185C84.7678 17.549 83.8266 17.9142 82.7215 17.9142C80.4111 17.9142 79.6517 16.4448 80.44 13.5058C80.8307 12.0448 81.4219 10.9465 82.2119 10.2066C83.0018 9.46423 83.9591 9.09388 85.0846 9.09388C86.1889 9.09388 86.9346 9.46168 87.3186 10.2024C87.7025 10.9414 87.6991 12.0431 87.3075 13.5041V13.5058ZM89.8881 6.63821C88.873 6.00624 87.5777 5.69026 85.9977 5.69026C84.3983 5.69026 82.9177 6.00454 81.5553 6.63311C80.1985 7.25775 79.006 8.19019 78.0727 9.35635C77.1128 10.537 76.4222 11.9216 75.9984 13.5015C75.5822 15.0755 75.5312 16.4575 75.854 17.6407C76.1768 18.8214 76.8563 19.7303 77.8756 20.3589C78.9034 20.9925 80.2115 21.3077 81.8169 21.3077C83.3968 21.3077 84.8663 20.99 86.2169 20.358C87.5675 19.7227 88.7227 18.8206 89.6825 17.6314C90.6423 16.4473 91.3304 15.0661 91.7551 13.4862C92.1798 11.9063 92.2308 10.5268 91.908 9.34106C91.5852 8.16037 90.9142 7.25149 89.9034 6.61867L89.8881 6.63821ZM105.626 10.0843L106.756 5.9986C106.374 5.80323 105.872 5.7013 105.244 5.7013C104.233 5.7013 103.265 5.95103 102.33 6.45728C101.527 6.88709 100.844 7.49357 100.266 8.25296L100.852 6.05296L99.5723 6.05806H96.4294L92.3777 21.0673H96.8482L98.9505 13.2212C99.2563 12.0804 99.8067 11.1826 100.601 10.5455C101.391 9.90592 102.376 9.58569 103.565 9.58569C104.296 9.58569 104.975 9.75303 105.621 10.0869L105.626 10.0843ZM118.065 13.578C117.683 14.9795 117.105 16.0498 116.315 16.7888C115.525 17.5312 114.574 17.9015 113.47 17.9015C112.365 17.9015 111.609 17.5278 111.21 16.7803C110.802 16.0285 110.794 14.9455 111.176 13.5219C111.558 12.0991 112.145 11.0076 112.951 10.2516C113.758 9.48971 114.71 9.10917 115.814 9.10917C116.901 9.10917 117.632 9.4999 118.023 10.2899C118.413 11.0798 118.422 12.1756 118.046 13.5771L118.065 13.578ZM121.172 6.66284C120.344 6.0003 119.286 5.66902 118.004 5.66902C116.88 5.66902 115.809 5.92385 114.793 6.4386C113.778 6.95249 112.954 7.65326 112.321 8.54006L112.337 8.43813L113.087 6.05126H108.721L107.608 10.2049L107.574 10.3493L102.987 27.46H107.463L109.774 18.8469C110.003 19.6131 110.47 20.2145 111.184 20.6494C111.897 21.0826 112.778 21.2975 113.826 21.2975C115.125 21.2975 116.365 20.9832 117.542 20.3546C118.722 19.7244 119.742 18.8172 120.608 17.645C121.475 16.4728 122.118 15.1137 122.528 13.5763C122.944 12.0363 123.029 10.6628 122.791 9.46083C122.549 8.2572 122.013 7.32539 121.186 6.66624L121.172 6.66284ZM136.021 13.5168C135.639 14.9353 135.053 16.0226 134.263 16.7701C133.473 17.5227 132.521 17.8973 131.417 17.8973C130.287 17.8973 129.523 17.532 129.124 16.793C128.716 16.054 128.707 14.9837 129.081 13.5822C129.455 12.1807 130.051 11.0849 130.875 10.295C131.699 9.505 132.663 9.11087 133.769 9.11087C134.873 9.11087 135.621 9.49311 136.012 10.2491C136.402 11.0076 136.405 12.0974 136.024 13.5194L136.021 13.5168ZM138.017 6.05466L137.445 8.1867C137.199 7.41797 136.723 6.80639 136.018 6.35195C135.305 5.89836 134.43 5.67242 133.385 5.67242C132.102 5.67242 130.864 6.00369 129.682 6.66624C128.501 7.32879 127.465 8.25805 126.581 9.46083C125.698 10.6636 125.052 12.0346 124.636 13.572C124.224 15.1154 124.143 16.4685 124.39 17.6458C124.639 18.818 125.175 19.7235 126.004 20.3555C126.831 20.984 127.898 21.3017 129.197 21.3017C130.242 21.3017 131.24 21.0843 132.187 20.6477C133.111 20.2283 133.932 19.6129 134.594 18.8444L133.999 21.0681H138.408L142.432 6.05891H138.024L138.017 6.05466ZM160.94 6.05975L160.943 6.05551H158.233C158.147 6.05551 158.07 6.05975 157.991 6.06145H156.585L155.863 7.06377L155.685 7.3016L155.608 7.42052L149.896 15.3779L148.715 6.05975H144.037L146.407 20.2196L141.174 27.4651H145.838L147.103 25.6703C147.139 25.6176 147.171 25.5735 147.214 25.5174L148.692 23.4193L148.734 23.3599L155.354 13.9738L160.934 6.07419L160.943 6.0691H160.94V6.05975Z" fill="var(--fill-0, black)"/>
</svg>
