<svg preserveAspectRatio="none" width="100%" height="100%" overflow="visible" style="display: block;" viewBox="0 0 81.0909 22.3087" fill="none" xmlns="http://www.w3.org/2000/svg">
<path id="Vector" d="M3.53079 9.05218C3.53079 10.023 2.73791 10.8103 1.76596 10.8103C0.794005 10.8103 0 10.023 0 9.05335V5.35359C0.0116319 4.8931 0.202735 4.45537 0.532542 4.13379C0.86235 3.81221 1.30476 3.63226 1.7654 3.63226C2.22604 3.63226 2.66844 3.81221 2.99824 4.13379C3.32805 4.45537 3.51915 4.8931 3.53079 5.35359V9.05218V9.05218ZM13.2266 13.9063C13.2266 14.3745 13.0406 14.8236 12.7096 15.1546C12.3785 15.4857 11.9295 15.6717 11.4613 15.6717C10.993 15.6717 10.544 15.4857 10.2129 15.1546C9.88186 14.8236 9.69586 14.3745 9.69586 13.9063V5.35359C9.69586 4.88538 9.88186 4.43634 10.2129 4.10526C10.544 3.77419 10.993 3.58819 11.4613 3.58819C11.9295 3.58819 12.3785 3.77419 12.7096 4.10526C13.0406 4.43634 13.2266 4.88538 13.2266 5.35359V13.9075V13.9063ZM22.9236 20.5489C22.9236 21.5197 22.1308 22.3081 21.1588 22.3081C20.1857 22.3081 19.3928 21.5197 19.3928 20.5489V1.83861C19.4045 1.37812 19.5956 0.940385 19.9254 0.618803C20.2552 0.297222 20.6976 0.117203 21.1582 0.117203C21.6189 0.117203 22.0613 0.297222 22.3911 0.618803C22.7209 0.940385 22.912 1.37812 22.9236 1.83861V20.5489V20.5489ZM32.6195 13.9063C32.6195 14.3745 32.4335 14.8236 32.1024 15.1546C31.7713 15.4857 31.3223 15.6717 30.8541 15.6717C30.3859 15.6717 29.9369 15.4857 29.6058 15.1546C29.2747 14.8236 29.0887 14.3745 29.0887 13.9063V5.35359C29.0887 4.88538 29.2747 4.43634 29.6058 4.10526C29.9369 3.77419 30.3859 3.58819 30.8541 3.58819C31.3223 3.58819 31.7713 3.77419 32.1024 4.10526C32.4335 4.43634 32.6195 4.88538 32.6195 5.35359V13.9075V13.9063ZM42.3052 9.05218C42.3055 9.51796 42.1208 9.96479 41.7918 10.2945C41.4628 10.6241 41.0163 10.8097 40.5505 10.8103C40.0837 10.8106 39.6359 10.6258 39.3051 10.2965C38.9742 9.96713 38.7875 9.52014 38.7857 9.05335V5.35359C38.7857 4.88687 38.9711 4.43927 39.3011 4.10925C39.6311 3.77923 40.0787 3.59383 40.5455 3.59383C41.0122 3.59383 41.4598 3.77923 41.7898 4.10925C42.1198 4.43927 42.3052 4.88687 42.3052 5.35359V9.05218V9.05218ZM52.0056 13.9063C51.994 14.3653 51.8035 14.8016 51.4747 15.1222C51.146 15.4427 50.705 15.6221 50.2458 15.6221C49.7867 15.6221 49.3457 15.4427 49.0169 15.1222C48.6882 14.8016 48.4977 14.3653 48.4861 13.9063V5.35359C48.4861 4.88687 48.6715 4.43927 49.0015 4.10925C49.3315 3.77923 49.7791 3.59383 50.2458 3.59383C50.7125 3.59383 51.1601 3.77923 51.4902 4.10925C51.8202 4.43927 52.0056 4.88687 52.0056 5.35359V13.9075V13.9063ZM61.7082 20.5489C61.7082 21.0156 61.5228 21.4632 61.1928 21.7933C60.8628 22.1233 60.4152 22.3087 59.9484 22.3087C59.4817 22.3087 59.0341 22.1233 58.7041 21.7933C58.3741 21.4632 58.1887 21.0156 58.1887 20.5489V1.83861C58.1783 1.60102 58.2161 1.36381 58.2998 1.14123C58.3836 0.918654 58.5115 0.715332 58.6759 0.543532C58.8404 0.371733 59.0379 0.235012 59.2566 0.141606C59.4753 0.0481993 59.7106 0 59.9484 0C60.1862 0 60.4216 0.0481993 60.6403 0.141606C60.859 0.235012 61.0565 0.371733 61.2209 0.543532C61.3854 0.715332 61.5133 0.918654 61.5971 1.14123C61.6808 1.36381 61.7186 1.60102 61.7082 1.83861V20.5489V20.5489ZM71.4086 13.9063C71.4086 14.8783 70.6213 15.6678 69.6268 15.6678C69.1602 15.6675 68.7127 15.4819 68.3828 15.1518C68.0529 14.8217 67.8677 14.3741 67.8677 13.9075V5.35359C67.8677 4.37714 68.656 3.58991 69.6268 3.58991C70.6213 3.58991 71.4086 4.37714 71.4086 5.35359V13.9075V13.9063ZM81.0909 9.05218C81.0909 9.51935 80.9053 9.96743 80.575 10.2978C80.2447 10.6281 79.7966 10.8137 79.3295 10.8137C78.8623 10.8137 78.4143 10.6281 78.0839 10.2978C77.7536 9.96743 77.568 9.51935 77.568 9.05218V5.35359C77.568 4.37714 78.3575 3.58881 79.3295 3.58881C80.3003 3.58881 81.0898 4.37714 81.0898 5.35359V9.05218H81.0909Z" fill="var(--fill-0, #00A5DE)"/>
</svg>
