<svg preserveAspectRatio="none" width="100%" height="100%" overflow="visible" style="display: block;" viewBox="0 0 179.69 26.8437" fill="none" xmlns="http://www.w3.org/2000/svg">
<g id="Vector">
<path fill-rule="evenodd" clip-rule="evenodd" d="M26.2179 2.36678C26.9321 2.53737 27.5585 2.9649 27.9776 3.56781C28.412 4.32832 28.6189 5.19763 28.5735 6.0723C28.5729 7.22188 28.3971 8.36466 28.0521 9.46126C27.6465 10.7412 27.139 11.9865 26.5345 13.1854L25.8269 14.7402L22.3448 6.28644C22.1746 5.88371 22.0315 5.47002 21.9166 5.04816C21.8254 4.72617 21.7692 4.3953 21.749 4.06126C21.7313 3.63893 21.8824 3.22691 22.1688 2.91604C22.4552 2.60516 22.8535 2.42096 23.2759 2.40402V2.15264H12.7738V2.40402C13.1311 2.46938 13.4765 2.58867 13.7979 2.75781C14.1259 2.97843 14.4023 3.26747 14.6079 3.60506C14.9707 4.1754 15.2822 4.77671 15.539 5.40195L17.1776 9.3123L14.2169 15.1685L9.80379 4.92712C9.6902 4.72249 9.59666 4.50735 9.52448 4.28471C9.48684 4.12272 9.46502 3.95747 9.45931 3.79126C9.45693 3.47951 9.56964 3.17783 9.77586 2.94402C10.0304 2.66931 10.3508 2.4642 10.7069 2.34816V2.1154H0V2.36678C0.870736 2.63266 1.65911 3.11658 2.29034 3.77264C3.11876 4.72554 3.79691 5.79928 4.30138 6.95678L11.0793 22.0209H11.3586L17.4662 9.91747L22.6893 22.0209H22.9686L29.1786 8.61402C29.8366 7.08715 30.6675 5.6408 31.6552 4.30333C32.3003 3.46503 33.1324 2.78912 34.0852 2.32954V2.08747H26.2179V2.36678Z" fill="#54575A"/>
<path d="M43.2931 15.6713C42.6228 17.3937 41.1424 18.2409 38.8055 18.2409C37.5374 18.3078 36.3032 17.8183 35.4259 16.9002C34.5301 15.8184 34.0747 14.4389 34.1503 13.0364H43.4607V12.8595C43.4758 11.7435 43.1511 10.6492 42.5297 9.72195C41.8935 8.82614 41.033 8.11335 40.0345 7.65506C38.939 7.15579 37.7469 6.90463 36.5431 6.91954C35.2035 6.90216 33.8812 7.22235 32.6979 7.85057C31.5443 8.46224 30.5787 9.37627 29.9048 10.4947C29.1862 11.704 28.8246 13.092 28.8621 14.4982C28.8341 15.8004 29.1556 17.0864 29.7931 18.2223C30.4211 19.3084 31.3359 20.2006 32.4372 20.8013C33.6157 21.442 34.9414 21.763 36.2824 21.7323C37.9902 21.8121 39.6695 21.2732 41.0121 20.2147C42.3587 19.0637 43.2637 17.4808 43.5724 15.7364L43.2931 15.6713ZM34.7555 8.71643C34.9743 7.90386 35.7109 7.33902 36.5524 7.3385C36.808 7.33964 37.0598 7.4002 37.2879 7.5154C37.5272 7.64715 37.7241 7.84409 37.8559 8.08333C38.0013 8.31431 38.12 8.56107 38.2097 8.81885C38.3288 9.18688 38.4008 9.56855 38.4238 9.95471C38.4238 10.4109 38.489 11.044 38.489 11.8168V12.5244H34.1503C34.1539 11.7929 34.2005 11.0624 34.29 10.3364C34.3937 9.77083 34.5495 9.21605 34.7555 8.67919V8.71643Z" fill="#54575A"/>
<path d="M59.9119 19.4419C59.822 19.5203 59.705 19.5604 59.586 19.5536H59.2694C58.9661 19.5592 58.6839 19.3985 58.5339 19.1347C58.32 18.61 58.2338 18.042 58.2826 17.4774V10.7274C58.3656 9.6574 58.032 8.59667 57.3515 7.76674C56.6 7.06534 55.5805 6.72552 54.5584 6.83571C53.4283 6.85505 52.3039 7.00184 51.2067 7.27329C49.9605 7.55381 48.7513 7.97875 47.6036 8.5395C46.6677 8.92751 45.824 9.50801 45.127 10.2433C44.6397 10.7449 44.3517 11.4069 44.317 12.1054C44.2947 12.6505 44.5125 13.1779 44.9129 13.5485C45.3569 13.9212 45.9261 14.111 46.505 14.0792C47.207 14.0598 47.8743 13.7695 48.367 13.2692C48.9626 12.6459 49.2698 11.8018 49.2143 10.9416V10.4481C49.1686 9.72693 49.3834 9.01331 49.8195 8.43709C50.1681 7.99888 50.7028 7.75051 51.2626 7.76674C51.6623 7.74846 52.0574 7.85946 52.3891 8.08329C52.7452 8.3636 52.9868 8.76413 53.0688 9.20985C53.2309 9.95262 53.3028 10.7123 53.2829 11.4723V12.9526C51.8398 13.3716 50.4898 13.8278 49.4005 14.2561C48.3023 14.6733 47.2297 15.1552 46.1884 15.6992C45.0214 16.2126 44.2509 17.3484 44.2053 18.6226C44.1936 19.5041 44.6145 20.3354 45.3319 20.8478C46.1793 21.4375 47.1958 21.7349 48.2274 21.695C49.2897 21.7138 50.3418 21.4843 51.2998 21.0247C52.0979 20.5996 52.7962 20.0093 53.3481 19.2929C53.413 19.9641 53.7131 20.5906 54.1953 21.0619C54.7078 21.5146 55.3739 21.7544 56.0574 21.7323C56.8245 21.7432 57.5804 21.547 58.2453 21.1643C58.9604 20.7839 59.5686 20.2301 60.0143 19.5536L59.9119 19.4419ZM51.6163 19.6933C50.527 19.6933 49.9591 18.9485 49.9591 17.4309C49.9484 16.5207 50.2808 15.6398 50.8901 14.9636C51.5738 14.2877 52.4059 13.7808 53.3201 13.4833V17.6916C53.3581 18.2247 53.1954 18.7527 52.8639 19.1719C52.5739 19.5338 52.1258 19.7318 51.6629 19.7026L51.6163 19.6933Z" fill="#54575A"/>
<path fill-rule="evenodd" clip-rule="evenodd" d="M59.9119 20.9968C60.4102 21.0021 60.8756 20.7483 61.1409 20.3264C61.4667 19.57 61.601 18.745 61.5319 17.9243V6.10952C61.6166 5.11026 61.4199 4.10725 60.964 3.214C60.6402 2.66794 60.0436 2.34283 59.4092 2.36676V2.05021C60.5823 1.76159 61.8112 1.48228 63.0123 1.11917C64.2133 0.756071 65.4143 0.45814 66.4664 0.076416V18.4923C66.417 19.1296 66.5258 19.7692 66.783 20.3543C67.0271 20.7008 67.4207 20.9114 67.8444 20.9223V21.2388H59.9119V20.9968Z" fill="#54575A"/>
<path fill-rule="evenodd" clip-rule="evenodd" d="M70.386 20.9223C69.7264 20.1671 69.4065 19.1739 69.5015 18.1757V8.46502H67.3508L67.2856 8.22295C68.1441 7.79921 68.9582 7.29083 69.7156 6.70536C70.5927 6.01253 71.4289 5.26957 72.2201 4.48019C72.9962 3.69809 73.715 2.8611 74.3708 1.97571L74.6222 2.05019V7.23605H77.8622L77.1639 8.43709H74.6222V17.2167C74.5753 17.8608 74.7074 18.5052 75.0039 19.0788C75.2536 19.4383 75.6649 19.6509 76.1025 19.6467C76.3404 19.6339 76.577 19.6027 76.8101 19.5536C77.0381 19.5048 77.2535 19.4098 77.4432 19.2743L77.6201 19.5257C76.877 20.1572 76.0723 20.7124 75.2181 21.183C74.4858 21.5555 73.6748 21.7471 72.8532 21.7416C71.9578 21.795 71.0755 21.5054 70.386 20.9316V20.9223Z" fill="#54575A"/>
<path fill-rule="evenodd" clip-rule="evenodd" d="M93.1781 20.3916C92.9454 19.6998 92.8505 18.9692 92.8988 18.2409V10.8671C92.8988 8.22298 91.8002 6.88229 89.6495 6.88229C89.0753 6.87026 88.5029 6.95203 87.955 7.12436C87.3576 7.33621 86.7885 7.62076 86.2605 7.9716C85.7019 8.36264 84.9943 8.90264 84.1843 9.56367V0.141602C83.0485 0.495395 81.9312 0.849188 80.7581 1.16574C79.585 1.48229 78.3933 1.79884 77.0898 2.09677V2.41333C77.7242 2.38939 78.3209 2.7145 78.6447 3.26057C79.0822 4.15651 79.275 5.15227 79.2033 6.14677V17.6916C79.2788 18.5817 79.1349 19.4768 78.7843 20.2985C78.5038 20.7464 78.0093 21.0149 77.4809 21.0061V21.3226H85.525V21.0061C85.1012 20.9976 84.7127 20.7681 84.5009 20.4009C84.2324 19.7176 84.1241 18.9819 84.1843 18.2502V10.0571C84.5322 9.75119 84.9246 9.50004 85.3481 9.31229C85.6741 9.14318 86.0333 9.04783 86.4002 9.03298C86.873 9.02232 87.316 9.26331 87.564 9.66608C87.9051 10.3288 88.0535 11.0739 87.9923 11.8168V18.2409C88.0037 18.8076 87.9695 19.3742 87.8898 19.9354C87.8576 20.2319 87.7186 20.5065 87.4988 20.7082C87.2625 20.8809 86.9811 20.9812 86.6888 20.9968V21.3133H94.2023V20.9968C93.7758 20.9979 93.3828 20.7657 93.1781 20.3916Z" fill="#54575A"/>
<path fill-rule="evenodd" clip-rule="evenodd" d="M99.5648 21.5275C98.8945 21.3785 98.2614 21.2761 97.7028 21.1737C97.2155 21.0713 96.7201 21.0121 96.2224 20.9968C95.9978 21.0033 95.7738 21.0251 95.5521 21.062C95.3702 21.1202 95.1928 21.1918 95.0214 21.2761V14.7589L95.31 14.6844C96.1401 16.0247 97.074 17.2979 98.1031 18.4923C98.7606 19.2885 99.5475 19.9684 100.431 20.5033C101.072 20.8816 101.8 21.0899 102.544 21.1085C103.081 21.1576 103.616 20.9937 104.034 20.6523C104.347 20.3332 104.512 19.8977 104.49 19.4513C104.514 18.8874 104.281 18.3429 103.857 17.9709C103.162 17.4542 102.393 17.046 101.576 16.7606L99.5276 15.9506C98.2599 15.5168 97.0873 14.8435 96.0735 13.9675C95.4147 13.3035 95.0579 12.3979 95.0866 11.463C95.0611 10.6332 95.2955 9.81621 95.7569 9.12609C96.2385 8.40222 96.9079 7.82294 97.6935 7.45023C98.6431 7.0088 99.6817 6.79216 100.729 6.81713C101.352 6.80964 101.975 6.85637 102.591 6.95678C103.187 7.06851 103.754 7.13368 104.211 7.2454C104.667 7.35713 105.058 7.38506 105.309 7.38506C105.473 7.40494 105.639 7.40494 105.803 7.38506L106.119 7.28264L106.51 12.5709L106.259 12.6454C105.391 11.1734 104.322 9.82921 103.084 8.65126C102.328 7.92388 101.338 7.48839 100.291 7.4223C99.7791 7.39355 99.2747 7.55615 98.8759 7.87851C98.5027 8.17926 98.2924 8.63777 98.3079 9.11678C98.2827 9.63503 98.4911 10.1373 98.8759 10.4854C99.4241 10.938 100.057 11.2767 100.738 11.4816L103.168 12.2916C104.383 12.6212 105.507 13.223 106.454 14.0513C107.121 14.7255 107.478 15.6457 107.441 16.593C107.502 18.0276 106.918 19.4142 105.849 20.373C104.642 21.3327 103.126 21.8193 101.585 21.7416C100.898 21.7306 100.213 21.6621 99.5369 21.5368L99.5648 21.5275Z" fill="#54575A"/>
<path fill-rule="evenodd" clip-rule="evenodd" d="M111.492 5.96057C112.296 5.98365 113.075 5.67614 113.647 5.10969C114.218 4.54325 114.533 3.76731 114.517 2.96264C114.498 2.20597 114.199 1.48322 113.679 0.932987C113.125 0.312205 112.323 -0.029132 111.492 0.00195271C110.977 -0.00379615 110.472 0.141899 110.039 0.420918C109.588 0.694027 109.208 1.07061 108.931 1.51954C108.659 1.95231 108.511 2.45148 108.503 2.96264C108.51 3.76782 108.846 4.53503 109.434 5.0854C109.968 5.6509 110.714 5.96808 111.492 5.96057Z" fill="#54575A"/>
<path fill-rule="evenodd" clip-rule="evenodd" d="M140.381 20.4289C140.117 19.8292 140.009 19.1729 140.065 18.5203V10.8671C140.065 8.22301 138.975 6.88232 136.825 6.88232C136.224 6.88578 135.628 6.97994 135.056 7.16163C134.429 7.38962 133.837 7.70291 133.296 8.09267C132.649 8.51558 132.027 8.97566 131.434 9.4706C131.351 8.80773 131.038 8.19501 130.549 7.73887C129.894 7.17573 129.048 6.88576 128.185 6.92887C127.215 6.93767 126.26 7.1669 125.392 7.59922C124.472 8.03033 123.629 8.60901 122.896 9.31232V6.88232C122.226 7.12439 121.481 7.41301 120.671 7.65508C119.861 7.89715 119.051 8.18577 118.241 8.43715C117.431 8.68853 116.761 8.85611 116.193 8.99577V9.31232C116.743 9.32256 117.249 9.61434 117.534 10.0851C117.85 10.9416 117.984 11.8551 117.925 12.7665V18.5203C117.988 19.1855 117.798 19.8502 117.394 20.3823C117.06 20.7276 116.599 20.9196 116.118 20.913C115.614 20.9528 115.119 20.7569 114.778 20.3823C114.419 19.8314 114.258 19.1747 114.322 18.5203V6.77991C113.232 7.19887 112.096 7.58991 110.905 7.9437C109.713 8.29749 108.465 8.64198 107.227 8.9306V9.20991C107.906 9.21134 108.536 9.5634 108.894 10.1409C109.274 11.0208 109.443 11.9773 109.387 12.934V17.5892C109.439 18.4668 109.306 19.3454 108.996 20.1682C108.732 20.659 108.213 20.9582 107.655 20.9409V21.2575H124.237V20.9409C123.817 20.8968 123.44 20.6637 123.213 20.3078C122.954 19.7231 122.845 19.0831 122.896 18.4458V9.91749C123.166 9.65236 123.482 9.43792 123.827 9.28439C124.168 9.11363 124.545 9.02741 124.926 9.03301C125.415 8.99848 125.884 9.22969 126.155 9.63818C126.469 10.3093 126.603 11.0502 126.546 11.7889V18.4923C126.6 19.1298 126.491 19.7705 126.229 20.3544C126.01 20.6904 125.643 20.9014 125.243 20.9223V21.2389H132.858V20.9223C132.441 20.8977 132.056 20.6898 131.806 20.3544C131.568 19.7383 131.469 19.0768 131.518 18.4178V9.88025C131.826 9.60561 132.156 9.35651 132.505 9.13543C132.837 8.93681 133.216 8.82776 133.603 8.81887C134.078 8.80823 134.523 9.05351 134.767 9.46129C135.104 10.1619 135.249 10.9395 135.186 11.7144V18.4178C135.244 19.0763 135.162 19.7396 134.944 20.3637C134.709 20.7146 134.304 20.9134 133.883 20.8851V21.2016H141.517V20.8851C141.079 21.0075 140.613 20.8204 140.381 20.4289Z" fill="#54575A"/>
<path d="M157 10.9416C156.839 10.1225 156.474 9.35729 155.939 8.71644C155.042 7.52034 153.626 6.82764 152.131 6.85437C151.344 6.83905 150.562 6.99469 149.841 7.31057C149.137 7.64424 148.482 8.07346 147.895 8.58609V6.84506C147.225 7.09644 146.452 7.3385 145.642 7.62712C144.832 7.91575 143.984 8.1485 143.137 8.39988C142.29 8.65126 141.545 8.85609 140.847 9.03299V9.3123C141.289 9.35816 141.719 9.4877 142.113 9.69402C142.457 9.94956 142.685 10.3315 142.746 10.7554C142.906 11.4133 142.978 12.0896 142.96 12.7664V22.5423C142.992 23.3478 142.907 24.1537 142.709 24.9351C142.608 25.4067 142.332 25.8225 141.936 26.0989C141.536 26.3297 141.092 26.4755 140.633 26.5271V26.8437H150.083V26.5271C149.449 26.5277 148.841 26.2726 148.398 25.8195C147.996 25.1271 147.82 24.3264 147.895 23.5292V20.8571C148.218 21.1022 148.58 21.2911 148.966 21.4157C149.515 21.5835 150.086 21.6682 150.66 21.6671C151.54 21.6663 152.412 21.4988 153.23 21.1737C154.03 20.8296 154.753 20.3259 155.352 19.6933C155.996 18.9737 156.487 18.1312 156.796 17.2168C157.17 16.175 157.356 15.0746 157.345 13.9675C157.348 12.9361 157.229 11.908 156.991 10.9044L157 10.9416ZM151.247 19.3209C150.926 20.167 150.139 20.7464 149.236 20.8013C148.935 20.8023 148.637 20.7421 148.36 20.6244C148.179 20.5325 148.012 20.4131 147.867 20.2706V9.09816C148.329 8.68866 148.909 8.43747 149.524 8.38126C150.26 8.38126 150.865 8.87471 151.386 9.82437C151.952 11.285 152.193 12.8512 152.094 14.4144C152.094 16.7047 151.842 18.334 151.275 19.3209H151.247Z" fill="#54575A"/>
<path fill-rule="evenodd" clip-rule="evenodd" d="M157.177 20.9968C157.678 21.0035 158.147 20.7498 158.415 20.3265C158.732 19.5675 158.863 18.744 158.797 17.9244V6.10955C158.879 5.11145 158.686 4.10994 158.238 3.21404C157.915 2.66797 157.318 2.34286 156.684 2.36679V2.05024C157.847 1.76162 159.086 1.48231 160.287 1.11921C161.488 0.756104 162.679 0.448863 163.741 0.0671387V18.4923C163.687 19.1298 163.796 19.7705 164.057 20.3544C164.302 20.7008 164.695 20.9114 165.119 20.9223V21.2389H157.177V20.9968Z" fill="#54575A"/>
<path d="M179.373 15.6712C178.703 17.3937 177.185 18.2409 174.885 18.2409C173.619 18.3004 172.387 17.812 171.506 16.9002C170.604 15.8237 170.159 14.4367 170.268 13.0364H179.578V12.8595C179.588 11.7442 179.263 10.6514 178.647 9.72193C178.01 8.8295 177.158 8.1122 176.17 7.63641C173.82 6.58571 171.119 6.66455 168.834 7.85055C167.679 8.46145 166.714 9.37565 166.041 10.4947C165.319 11.6966 164.951 13.0778 164.979 14.4795C164.951 15.7818 165.273 17.0677 165.91 18.2037C166.542 19.2901 167.46 20.1822 168.564 20.7826C169.742 21.4246 171.068 21.7457 172.409 21.7137C174.125 21.7927 175.813 21.2543 177.166 20.1961C178.494 19.0431 179.385 17.4685 179.69 15.7364L179.373 15.6712ZM170.835 8.71641C171.075 7.91829 171.799 7.36327 172.632 7.33848C172.888 7.33961 173.14 7.40017 173.368 7.51538C173.607 7.64713 173.804 7.84407 173.936 8.08331C174.081 8.31429 174.2 8.56104 174.29 8.81883C174.409 9.18686 174.481 9.56853 174.504 9.95469C174.504 10.4109 174.569 11.044 174.569 11.8168V12.5243H170.23C170.234 11.7929 170.28 11.0623 170.37 10.3364C170.474 9.77081 170.629 9.21602 170.835 8.67917V8.71641Z" fill="#54575A"/>
</g>
</svg>
