<svg preserveAspectRatio="none" width="100%" height="100%" overflow="visible" style="display: block;" viewBox="0 0 174 30" fill="none" xmlns="http://www.w3.org/2000/svg">
<g id="logo-layer" clip-path="url(#clip0_418_1015)">
<path id="Vector" d="M132.348 1.67724V5.01109H135.671C137.122 5.01109 138.076 5.9077 138.619 6.48724C139.054 6.96451 148.624 17.5942 148.854 17.8738C149.083 18.1533 149.083 18.1566 149.083 18.3338V23.6013C149.083 23.8428 149.058 24.0836 149.01 24.3204C148.942 24.4733 148.841 24.6099 148.713 24.7206C148.586 24.8313 148.436 24.9136 148.272 24.9616C147.958 25.0002 147.642 25.0196 147.326 25.0196L143.999 25.0156V28.3494H162.659V25.0156H159.147C158.833 25.0171 158.519 24.9975 158.207 24.9569C158.045 24.9094 157.895 24.8274 157.768 24.7167C157.641 24.606 157.54 24.4693 157.473 24.3164C157.424 24.0796 157.399 23.8388 157.397 23.5973V18.3332C157.377 18.1601 157.421 17.9857 157.522 17.8424L167.875 6.27217C168.825 5.2358 169.32 5.01041 170.566 5.01041H174V1.67656H158.622V5.00374H160.943C161.068 4.99642 161.191 5.02424 161.3 5.08388C161.409 5.14351 161.498 5.23245 161.556 5.34015C161.615 5.44786 161.641 5.56979 161.631 5.69145C161.621 5.81311 161.575 5.92939 161.5 6.02648C161.451 6.09464 155.062 13.4548 154.982 13.5265C154.902 13.5981 154.85 13.5808 154.791 13.5025C154.731 13.4241 148.419 6.02649 148.419 6.02649C147.973 5.49126 148.321 5.00376 148.843 5.00376H151.105V1.67657L132.348 1.67724Z" fill="var(--fill-0, #0F0F0F)"/>
<path id="Vector_2" d="M86.5827 1.67725V5.0111H89.5611C91.7117 5.0111 91.8584 6.18432 91.8584 7.20704V22.8103C91.8584 23.7444 91.9137 25.0262 90.5425 25.0262H86.8675V28.3567H102.559V25.0262H98.7314C97.2036 25.0262 97.1338 24.3412 97.1165 22.8855V9.51816L118.668 28.3567H124.149L123.86 7.08053C123.888 5.52598 123.985 5.00776 125.628 5.00776H129.062V1.67725H113.054V5.00776H116.57C118.185 5.00776 118.455 5.61803 118.476 7.08053L118.668 18.2147L99.9596 1.67725H86.5827Z" fill="var(--fill-0, #0F0F0F)"/>
<path id="Vector_3" d="M15.921 0C12.5489 0 8.7174 0.620449 5.48101 2.04545C2.46036 3.36817 2.19345e-05 5.49186 2.19345e-05 9.01345C-0.0045681 10.8577 0.711384 12.6337 2.00102 13.9773C2.8745 14.7682 4.28412 16.1114 7.96596 16.9023C9.612 17.2432 13.1303 17.792 16.6347 18.1534C20.139 18.5148 23.5356 18.8354 24.9276 19.2001C26.0342 19.4763 27.8957 19.8513 27.8957 21.8968C27.8957 23.9422 25.9367 24.5557 25.5957 24.6886C25.2546 24.8216 22.9019 25.8785 18.6772 25.8785C15.878 25.8023 13.1043 25.3351 10.44 24.4909C8.86356 23.9386 7.21093 23.2124 5.66928 21.3681C5.04696 20.4997 4.7016 19.4699 4.67694 18.4091H0.848931V28.9094H5.10172V27.4878C5.10103 27.3823 5.12908 27.2786 5.18294 27.1872C5.23681 27.0959 5.31454 27.0203 5.40816 26.9682C5.50178 26.9161 5.60791 26.8894 5.71557 26.8908C5.82323 26.8923 5.92856 26.9218 6.02069 26.9764C8.02409 27.8304 10.108 28.4902 12.2426 28.9466C14.4767 29.4035 15.9212 29.7343 18.6982 29.7343C21.6285 29.7889 24.5489 29.385 27.3493 28.5378C29.2088 28.0384 30.9535 27.1947 32.4891 26.0523C33.3527 25.4024 34.0508 24.5651 34.5285 23.6063C35.0061 22.6475 35.2503 21.5933 35.2418 20.5265C35.2566 18.4995 34.4582 16.5479 33.0185 15.0919C32.2179 14.3309 31.2904 13.7096 30.276 13.2548C29.1856 12.7722 28.0535 12.3853 26.8932 12.0989C24.6869 11.5705 19.7318 10.9092 17.3619 10.6774C14.8772 10.4251 10.5653 10.0737 8.84274 9.55212C8.32075 9.3919 7.25568 8.89799 7.25568 7.68776C7.25568 6.82526 7.74294 6.09559 8.70342 5.50582C10.2311 4.56831 13.3145 3.98503 16.53 3.98503C19.6425 3.94818 22.7295 4.53882 25.5991 5.72021C26.3699 6.04938 27.0949 6.47338 27.7564 6.98198C28.8348 7.8843 29.5816 9.10797 29.8825 10.4656H33.3176V1.32635H29.4896V2.38636C29.4896 2.72727 29.1416 3.17743 28.4456 2.80584C26.7195 1.9263 21.8683 0.023862 15.921 0V0Z" fill="var(--fill-0, #0F0F0F)"/>
<path id="Vector_4" d="M61.9895 0C55.9587 0 49.5552 2.04521 45.936 5.26679C44.5563 6.49741 43.4549 7.99737 42.7026 9.67015C41.9504 11.3429 41.564 13.1515 41.5683 14.9794C41.5468 16.8148 41.9252 18.6336 42.6784 20.3144C43.4316 21.9951 44.5422 23.4991 45.936 24.7259C49.8336 28.1588 55.6803 30 61.9895 30C68.3092 30 74.2809 28.1793 78.0845 24.7259C79.437 23.4703 80.5159 21.9594 81.2563 20.2844C81.9967 18.6093 82.3831 16.8047 82.3924 14.9794C82.4111 13.1559 82.037 11.3491 81.2948 9.67678C80.5525 8.00449 79.4586 6.5043 78.0845 5.2741C74.0025 1.64683 68.6607 0 61.9895 0V0ZM61.9895 3.89981C65.2886 3.89981 68.4657 5.06264 70.6059 7.12515C72.6765 9.12286 73.7583 11.9456 73.7583 14.966C73.7583 18.1297 72.774 20.6933 70.6059 22.807C68.4379 24.9206 65.3338 26.0523 61.9895 26.0523C58.6696 26.0523 55.4991 24.8967 53.3589 22.807C52.3353 21.7666 51.5316 20.5383 50.9941 19.1927C50.4566 17.8471 50.1959 16.4107 50.2269 14.966C50.2269 11.9592 51.2952 9.12627 53.3589 7.12515C55.4991 5.05242 58.6905 3.89981 61.9895 3.89981Z" fill="var(--fill-0, #0F0F0F)"/>
</g>
<defs>
<clipPath id="clip0_418_1015">
<rect width="174" height="30" fill="white"/>
</clipPath>
</defs>
</svg>
