<svg preserveAspectRatio="none" width="100%" height="100%" overflow="visible" style="display: block;" viewBox="0 0 12.0759 15.2522" fill="none" xmlns="http://www.w3.org/2000/svg">
<path id="Vector" d="M6.0543 0C3.6866 0 2.0993 0.5746 0.929802 1.4221C0.811402 1.5143 0.780498 1.6636 0.871498 1.8147L1.9774 3.8132C2.0702 3.9648 2.2475 3.9952 2.3986 3.8738C3.0881 3.3302 4.0757 2.8746 5.695 2.8746C8.0557 2.8746 8.8572 3.5909 8.898 5.1653H8.8986V5.1846C8.8997 5.2213 8.8997 5.2587 8.8997 5.2977V10.0192C8.8997 11.6834 7.7617 12.4989 5.695 12.4989C4.0757 12.4989 3.2077 11.8951 3.2077 10.6853C3.2077 9.3227 4.1672 8.716 6.3238 8.716L6.9794 8.7172C7.1591 8.7172 7.2798 8.5959 7.2798 8.4156V6.4755C7.2798 6.2946 7.1591 6.1739 6.9794 6.1739H6.8354L5.7848 6.1733C2.2195 6.1733 0 7.6281 0 10.8037C0 13.861 2.2195 15.2522 4.855 15.2522C6.8908 15.2522 8.24 14.5569 8.9295 13.5582H8.9587V14.6175C8.9587 14.7995 9.08 14.9209 9.2591 14.9209H11.7755C11.9558 14.9209 12.0759 14.8001 12.0759 14.6175V5.0848C12.0765 1.5143 10.459 0 6.0543 0Z" fill="var(--fill-0, #204156)"/>
</svg>
