<svg preserveAspectRatio="none" width="100%" height="100%" overflow="visible" style="display: block;" viewBox="0 0 13.3765 21.4138" fill="none" xmlns="http://www.w3.org/2000/svg">
<path id="Vector" d="M7.58922 21.4138C9.37211 21.4138 11.2694 21.0896 13.1953 20.2601C13.3479 20.2029 13.3765 20.1362 13.3765 19.9932C13.3193 19.4593 13.2525 18.687 13.2525 18.0959V0.171617C13.2525 0.0572063 13.2525 0 13.1095 0H9.87744C9.7535 0 9.69628 0.0572063 9.69628 0.209753V6.28303C9.19096 6.22582 8.8382 6.19722 8.41869 6.19722C3.20349 6.19722 0 9.63906 0 13.939C0 18.9254 3.2893 21.4138 7.58922 21.4138V21.4138ZM9.69627 18.0959C9.16236 18.2675 8.57124 18.3342 7.97059 18.3342C5.60611 18.3342 3.67066 16.9995 3.67066 13.7578C3.67066 10.888 5.66331 9.19096 8.30428 9.19096C8.8382 9.19096 9.30537 9.24816 9.69627 9.40071V18.0959Z" fill="var(--fill-0, #FA0C00)"/>
</svg>
