<svg preserveAspectRatio="none" width="100%" height="100%" overflow="visible" style="display: block;" viewBox="0 0 38 38" fill="none" xmlns="http://www.w3.org/2000/svg">
<g id="Vector">
<path d="M0.239289 22.2057L15.7943 37.7607C7.85086 36.418 1.582 30.1491 0.239289 22.2057Z" fill="#5E6AD2"/>
<path d="M0 17.9828L20.0172 38C21.2077 37.9364 22.3691 37.7633 23.4914 37.4906L0.509432 14.5086C0.236716 15.631 0.0636084 16.7923 0 17.9828Z" fill="#5E6AD2"/>
<path d="M1.50586 11.5212L26.4789 36.4943C27.3885 36.1039 28.2615 35.6446 29.0913 35.123L2.87713 8.90881C2.3555 9.73864 1.89623 10.6116 1.50586 11.5212Z" fill="#5E6AD2"/>
<path d="M4.56891 6.61717C8.05582 2.56555 13.2214 0 18.9863 0C29.4873 0 38 8.51271 38 19.0137C38 24.7786 35.4345 29.9442 31.3828 33.4311L4.56891 6.61717Z" fill="#5E6AD2"/>
</g>
</svg>
