<svg preserveAspectRatio="none" width="100%" height="100%" overflow="visible" style="display: block;" viewBox="0 0 8.48545 21.3599" fill="none" xmlns="http://www.w3.org/2000/svg">
<path id="Vector" d="M7.36824 0C3.35162 0 1.94181 2.79301 1.94181 5.39983V6.99584H1.0906C0.4788 6.99584 0 7.47464 0 8.08644C0 8.69825 0.4788 9.17705 1.0906 9.17705H1.94181V20.1895C1.94181 20.8279 2.44721 21.3599 3.11222 21.3599C3.75062 21.3599 4.28262 20.8545 4.28262 20.1895V9.17705H6.86284C7.47464 9.17705 7.95344 8.69825 7.95344 8.08644C7.95344 7.47464 7.47464 6.99584 6.86284 6.99584H4.28262V5.39983C4.28262 3.93682 4.81462 2.20781 7.39484 2.20781C8.00664 2.20781 8.48545 1.72901 8.48545 1.1172C8.45885 0.478798 7.98005 0 7.36824 0Z" fill="var(--fill-0, #4D4D4D)"/>
</svg>
