<svg preserveAspectRatio="none" width="100%" height="100%" overflow="visible" style="display: block;" viewBox="0 0 7.19698 7.19699" fill="none" xmlns="http://www.w3.org/2000/svg">
<path id="Vector" d="M6.74717 3.59849C6.74717 2.76341 6.41543 1.96253 5.82494 1.37204C5.23445 0.781547 4.43357 0.449812 3.59849 0.449812C2.76341 0.449812 1.96253 0.781547 1.37204 1.37204C0.781544 1.96253 0.449812 2.76341 0.449812 3.59849C0.449812 4.43358 0.781544 5.23445 1.37204 5.82495C1.96253 6.41544 2.76341 6.74717 3.59849 6.74717C4.43357 6.74717 5.23445 6.41544 5.82494 5.82495C6.41543 5.23445 6.74717 4.43358 6.74717 3.59849V3.59849ZM7.19698 3.59849C7.19698 4.55287 6.81786 5.46816 6.14301 6.14301C5.46817 6.81786 4.55287 7.19699 3.59849 7.19699C2.64411 7.19699 1.72882 6.81786 1.05397 6.14301C0.379123 5.46816 0 4.55287 0 3.59849C0 2.64411 0.379123 1.72882 1.05397 1.05397C1.72882 0.379126 2.64411 0 3.59849 0C4.55287 0 5.46817 0.379126 6.14301 1.05397C6.81786 1.72882 7.19698 2.64411 7.19698 3.59849Z" fill="var(--fill-0, black)" fill-opacity="0.15"/>
</svg>
