<svg preserveAspectRatio="none" width="100%" height="100%" overflow="visible" style="display: block;" viewBox="0 0 115.45 29" fill="none" xmlns="http://www.w3.org/2000/svg">
<path id="Vector" d="M37.2464 11.4076C37.2464 9.34597 35.1848 7.14692 31.7488 7.14692C27.9005 7.14692 23.5024 10.0332 22.8152 15.8057C22.128 21.5782 25.7014 24.1896 29.4123 24.1896C33.1232 24.1896 34.91 22.8152 36.8341 20.891C35.1848 18.8294 32.9858 19.7915 32.5735 19.9289C32.1611 20.2038 31.4739 20.4787 30.3744 20.4787C29 20.4787 27.4882 19.7915 27.4882 17.1801C36.5592 16.218 37.2464 13.4692 37.2464 11.4076ZM32.8483 11.6825C32.8483 12.3697 32.5735 13.4692 28.0379 14.019C29 10.5829 30.7867 10.3081 31.6114 10.3081C32.436 10.4455 32.8483 10.9953 32.8483 11.6825ZM17.5924 12.2322C17.5924 12.2322 15.6682 18.2796 15.5308 18.8294C15.5308 18.2796 14.019 7.4218 14.019 7.4218C10.7204 7.4218 8.93365 9.75829 8.109 12.2322C8.109 12.2322 5.77251 18.2796 5.63507 18.8294C5.49763 18.4171 5.22275 12.3697 5.22275 12.3697C4.94787 9.34597 2.19905 7.4218 0 7.4218L2.74882 23.9147C6.18483 23.9147 8.109 21.5782 9.07109 19.1043C9.07109 19.1043 11.1327 13.7441 11.2701 13.4692C11.2701 13.7441 12.782 23.9147 12.782 23.9147C16.218 23.9147 18.1422 21.7156 19.1043 19.3791L23.9147 7.4218C20.3412 7.4218 18.5545 9.75829 17.5924 12.2322ZM50.0284 7.00948C47.9668 7.00948 46.3175 8.109 44.9431 9.89573L46.0427 0C43.1564 0 40.9573 2.47393 40.4076 6.04739L38.2085 23.7772C39.8578 23.7772 41.5071 23.3649 42.4692 22.128C43.2938 23.2275 44.5308 24.0521 46.3175 24.0521C51.128 24.0521 54.4265 18.5545 54.4265 13.3318C54.564 8.52133 52.2275 7.00948 50.0284 7.00948ZM49.4787 15.5308C48.9289 18.4171 47.4171 20.3412 45.7678 20.3412C44.2559 20.3412 43.5687 19.654 43.5687 19.654C43.8436 17.1801 44.1185 15.5308 44.6682 14.1564C45.218 12.782 46.5924 10.7204 47.9668 10.7204C49.3412 10.8578 50.0284 12.6446 49.4787 15.5308ZM66.5213 7.4218H63.2227V7.28436C63.4976 5.08531 63.91 3.98578 65.6967 3.84834C66.7962 3.7109 67.346 3.16114 67.4834 2.47393C67.6208 1.92417 67.8957 0.137441 67.8957 0.137441C61.1611 0.137441 59.0995 3.0237 58.5498 7.4218V7.55924H58.4123C57.3128 7.55924 56.0758 8.79621 55.9384 10.3081L55.8009 10.8578H58L56.0758 26.2512L55.5261 29C55.6635 29 55.6635 29 55.8009 29C58.9621 28.8626 60.8863 26.3886 61.436 22.8152L62.9479 10.7204H64.0474C65.0095 10.7204 66.2464 9.75829 66.5213 7.97156V7.4218ZM83.8389 7.14692C79.9905 7.14692 76.4171 10.0332 75.3175 14.4313C74.218 18.8294 75.8673 24.1896 81.5024 24.1896C87.1374 24.1896 90.436 18.6919 90.436 14.1564C90.2986 9.62085 87.2749 7.14692 83.8389 7.14692ZM85.3507 15.3934C85.2133 17.455 84.2512 20.4787 81.7772 20.4787C79.3033 20.4787 79.7156 16.9052 79.8531 15.2559C80.128 13.4692 81.09 10.8578 83.2891 10.8578C85.3507 10.8578 85.6256 13.1943 85.3507 15.3934ZM109.403 12.2322C109.403 12.2322 107.479 18.2796 107.341 18.8294C107.341 18.2796 105.829 7.4218 105.829 7.4218C102.531 7.4218 100.744 9.75829 99.9194 12.2322C99.9194 12.2322 97.5829 18.2796 97.4455 18.8294C97.4455 18.4171 97.0332 12.3697 97.0332 12.3697C96.8957 9.34597 94.0095 7.55924 91.8104 7.55924L94.5592 24.0521C97.9953 24.0521 99.9194 21.7156 100.882 19.2417C100.882 19.2417 102.943 13.8815 103.081 13.6066C103.081 13.8815 104.592 24.0521 104.592 24.0521C108.028 24.0521 109.953 21.8531 110.915 19.5166L115.45 7.4218C112.014 7.4218 110.227 9.75829 109.403 12.2322ZM69.6825 0.137441L66.9337 22.6777L66.3839 25.4265C66.5213 25.4265 66.5213 25.4265 66.6588 25.4265C69.6825 25.4265 71.8815 22.6777 72.1564 19.3791L73.8057 6.45972C74.218 2.61137 71.7441 0.137441 69.6825 0.137441Z" fill="var(--fill-0, #1B1B1B)"/>
</svg>
