<svg preserveAspectRatio="none" width="100%" height="100%" overflow="visible" style="display: block;" viewBox="0 0 107.758 31.9974" fill="none" xmlns="http://www.w3.org/2000/svg">
<path id="Vector" d="M11.4923 19.3798C11.4923 20.0926 11.3415 20.7549 11.04 21.3674C10.7385 21.9712 10.3113 22.4909 9.77511 22.9105C9.23067 23.3381 8.58578 23.6652 7.84 23.8998C7.09458 24.1346 6.27378 24.252 5.38578 24.252C4.32178 24.252 3.36711 24.1094 2.52978 23.816C1.69218 23.5308 0.846222 23.0444 0 22.3733L1.39911 20.1004C2.06916 20.6623 2.672 21.0729 3.21689 21.3333C3.75298 21.5933 4.30578 21.7191 4.87555 21.7191C5.57075 21.7191 6.12356 21.5429 6.55111 21.1824C6.97831 20.8218 7.17929 20.3438 7.17929 19.7317C7.17929 19.4718 7.1374 19.2286 7.06204 19.0022C6.98666 18.7757 6.84427 18.541 6.64329 18.2978C6.44222 18.063 6.15751 17.7947 5.79733 17.518C5.44551 17.2412 4.98489 16.889 4.41511 16.478C3.98791 16.1761 3.5608 15.8574 3.15022 15.5384C2.73982 15.2114 2.37129 14.8676 2.02756 14.4984C1.69253 14.1294 1.42453 13.7186 1.21511 13.2575C1.01404 12.8047 0.905244 12.2762 0.905244 11.6975C0.905244 11.0267 1.04764 10.406 1.324 9.85218C1.60036 9.2984 1.98569 8.82907 2.47156 8.43529C2.95733 8.04116 3.53556 7.73929 4.22178 7.52151C4.90018 7.30347 5.63689 7.19449 6.44133 7.19449C7.28729 7.19449 8.1 7.30347 8.88667 7.52996C9.67396 7.75636 10.4031 8.08338 11.0813 8.51929L9.81644 10.5655C8.95378 9.96169 8.04044 9.65173 7.08578 9.65173C6.50782 9.65173 6.02178 9.80267 5.64489 10.1045C5.268 10.4064 5.07529 10.7838 5.07529 11.245C5.07529 11.6811 5.24284 12.0752 5.57787 12.4192C5.91289 12.7714 6.49076 13.2494 7.31209 13.8868C8.14133 14.4906 8.82853 15.0272 9.36453 15.4796C9.90898 15.9324 10.3361 16.3685 10.6543 16.7712C10.9726 17.1738 11.182 17.5763 11.3076 17.9952C11.4332 18.4228 11.4919 18.8756 11.4919 19.3792L11.4923 19.3798ZM25.8567 15.5478C25.8567 16.1767 25.7897 16.8563 25.6557 17.5852C25.53 18.3148 25.3039 18.986 24.9857 19.6065C24.6674 20.227 24.257 20.7389 23.7457 21.1327C23.2348 21.5352 22.5812 21.7364 21.8026 21.7364C20.4959 21.7364 19.4657 21.2165 18.7119 20.1684C17.958 19.1284 17.5812 17.6947 17.5812 15.8751C17.5812 14.0049 17.9581 12.5293 18.7288 11.4307C19.491 10.332 20.5297 9.78711 21.8364 9.78711C23.0764 9.78711 24.0559 10.307 24.7759 11.3302C25.4963 12.3613 25.8568 13.7702 25.8568 15.548L25.8567 15.5478ZM30.3963 15.3884C30.3963 14.1724 30.2204 13.0658 29.877 12.0764C29.5252 11.0782 29.0394 10.2231 28.3943 9.50222C27.7494 8.78107 26.9952 8.22756 26.1161 7.82489C25.237 7.42222 24.2654 7.22116 23.2014 7.22116C22.029 7.22116 20.9988 7.44756 20.1108 7.88364C19.2229 8.32809 18.3934 9.02409 17.6396 9.97964L17.6146 7.60631H13.435V31.9974H17.6066V21.6952C18.017 22.1732 18.4106 22.5756 18.7959 22.9023C19.1728 23.2293 19.5581 23.4977 19.9515 23.6989C20.3451 23.9002 20.7555 24.0511 21.1906 24.135C21.6261 24.2188 22.0955 24.2608 22.5897 24.2608C23.6955 24.2608 24.7337 24.0343 25.6884 23.5983C26.643 23.1539 27.4724 22.5334 28.1675 21.7281C28.8626 20.9228 29.4075 19.9841 29.8012 18.9192C30.2033 17.8454 30.3959 16.6632 30.3959 15.3885L30.3963 15.3884ZM32.2558 23.8667H36.5438V0H32.2558V23.8667ZM54.8336 23.875V7.59058H50.5456V16.3532C50.5456 17.1332 50.5121 17.7372 50.4451 18.1648C50.378 18.5924 50.2692 18.9698 50.1184 19.3221C49.5154 20.6635 48.4011 21.3435 46.7851 21.3435C45.5202 21.3435 44.6411 20.8907 44.138 19.9764C43.937 19.6325 43.8029 19.2384 43.7276 18.8021C43.6522 18.3661 43.6103 17.7372 43.6103 16.907V7.59147H39.3223V16.8448C39.3223 17.4737 39.3307 18.0101 39.3391 18.4377C39.3475 18.8653 39.381 19.2595 39.4228 19.595C39.4647 19.9305 39.5149 20.2324 39.5736 20.4928C39.6238 20.7527 39.7076 21.0043 39.8165 21.2391C40.2101 22.2373 40.8388 22.992 41.7179 23.5031C42.5973 24.0146 43.6779 24.2662 44.9508 24.2662C46.0983 24.2662 47.1116 24.0649 47.9828 23.6624C48.8539 23.2599 49.7001 22.6055 50.5205 21.6917L50.5289 23.8722L54.8338 23.8805L54.8336 23.875ZM73.3136 23.8667V14.6311C73.3136 14.0021 73.3052 13.4658 73.2968 13.0213C73.2884 12.5769 73.2634 12.1912 73.2131 11.864C73.1712 11.5369 73.1126 11.2518 73.054 11.0086C72.9869 10.7571 72.9116 10.5139 72.8278 10.279C72.4341 9.30658 71.8056 8.55191 70.9265 8.02302C70.0474 7.49413 68.9665 7.2264 67.6847 7.2264C66.5372 7.2264 65.5238 7.42764 64.6527 7.83013C63.7816 8.23262 62.9354 8.89502 62.1149 9.8008L62.1066 7.62035H57.7928V23.8692H62.1146V15.0977C62.1146 14.3429 62.1397 13.7475 62.1983 13.3279C62.2485 12.9086 62.3575 12.5145 62.5083 12.1368C62.7846 11.4827 63.2202 10.9964 63.798 10.6612C64.3759 10.3261 65.0629 10.1581 65.8665 10.1581C67.1314 10.1581 68.0105 10.6109 68.5136 11.5252C68.7063 11.8691 68.8403 12.2632 68.9156 12.6906C68.991 13.1183 69.0329 13.7555 69.0329 14.5777V23.8488L73.3129 23.8572L73.3136 23.8667ZM91.0558 22.7929L84.5234 14.6667L90.0425 8.74667L86.7927 7.34667L81.0469 14.0133H80.5947V0.00444444H76.2729V23.8711H80.5947V15.2258L87.0604 24.1947L91.0551 22.7938L91.0558 22.7929ZM107.758 16.9564V14.2978L94.7625 7.77333V10.6996L104.834 15.6053L94.7625 20.5778V23.4373L107.758 16.9556V16.9564ZM96.0247 3.552C95.2292 3.552 94.5838 4.20604 94.5838 5.01156C94.5838 5.83333 95.2292 6.47911 96.0247 6.47911C96.8292 6.47911 97.4656 5.83342 97.4656 5.01156C97.4656 4.19813 96.8292 3.552 96.0247 3.552V3.552ZM96.0336 3.7784C96.678 3.7784 97.1972 4.33182 97.1972 5.01929C97.1972 5.70693 96.678 6.26018 96.0336 6.25218C95.3803 6.25218 94.8603 5.70711 94.8603 5.01129C94.8603 4.332 95.3803 3.7784 96.0336 3.7784ZM95.7571 5.1624H95.9323C96.142 5.1624 96.2425 5.23788 96.2843 5.44756C96.318 5.6656 96.3598 5.80818 96.3936 5.85849H96.67C96.6443 5.80818 96.6025 5.70756 96.5696 5.456C96.5358 5.2128 96.4434 5.08702 96.2932 5.06187V5.04508C96.4692 4.99477 96.6114 4.86064 96.6114 4.65095C96.6114 4.50002 96.5607 4.3826 96.4603 4.31548C96.3598 4.24002 96.2007 4.18971 95.958 4.18971C95.7652 4.18971 95.6309 4.20648 95.4976 4.23163V5.8583H95.7571V5.1623V5.1624ZM95.7571 4.40764C95.7989 4.39926 95.8576 4.39088 95.9411 4.39088C96.2345 4.39088 96.3349 4.53346 96.3349 4.67604C96.3349 4.87728 96.15 4.95275 95.9411 4.95275H95.7571V4.40768V4.40764Z" fill="var(--fill-0, #0C1724)"/>
</svg>
