<svg preserveAspectRatio="none" width="100%" height="100%" overflow="visible" style="display: block;" viewBox="0 0 145.376 19.4945" fill="none" xmlns="http://www.w3.org/2000/svg">
<path id="Vector" fill-rule="evenodd" clip-rule="evenodd" d="M125.413 5.93695H128.556V19.3177H125.413V5.93695ZM126.998 3.75055C126.468 3.76274 125.953 3.5665 125.566 3.20395C125.379 3.03326 125.23 2.82447 125.13 2.59161C125.03 2.35874 124.981 2.1072 124.987 1.85385C124.983 1.6072 125.033 1.36276 125.133 1.13727C125.233 0.911784 125.381 0.710589 125.566 0.547479C125.757 0.366451 125.982 0.224962 126.227 0.131154C126.473 0.037346 126.735 -0.00692849 126.998 0.000878846C127.528 -0.00841798 128.041 0.187417 128.43 0.547479C128.615 0.704473 128.763 0.900653 128.864 1.12185C128.964 1.34304 129.014 1.58373 129.01 1.82652C129.014 2.08779 128.965 2.34715 128.865 2.58871C128.765 2.83027 128.617 3.04893 128.43 3.23128C128.237 3.40677 128.011 3.54172 127.765 3.62811C127.519 3.71449 127.258 3.75056 126.998 3.73415V3.75055ZM120.783 19.4926C120.509 19.4987 120.237 19.4488 119.982 19.3461C119.728 19.2433 119.498 19.0897 119.305 18.8948C119.112 18.6999 118.961 18.4677 118.861 18.2124C118.761 17.9571 118.714 17.6841 118.723 17.4101C118.713 17.1334 118.759 16.8575 118.858 16.5992C118.958 16.3409 119.109 16.1054 119.302 15.9069C119.499 15.7185 119.731 15.5708 119.985 15.4723C120.24 15.3738 120.511 15.3265 120.783 15.333C121.057 15.3262 121.329 15.3753 121.584 15.4775C121.838 15.5797 122.069 15.7327 122.261 15.9272C122.454 16.1217 122.606 16.3535 122.706 16.6085C122.806 16.8635 122.853 17.1363 122.844 17.4101C122.854 17.6843 122.807 17.9577 122.707 18.2133C122.608 18.469 122.457 18.7015 122.264 18.8966C122.07 19.0917 121.84 19.2452 121.585 19.3477C121.33 19.4502 121.058 19.4995 120.783 19.4926V19.4926ZM134.541 18.6181C135.683 19.1921 136.944 19.491 138.223 19.491C139.501 19.491 140.762 19.1921 141.904 18.6181C142.961 18.0604 143.842 17.2178 144.446 16.1857C145.071 15.1052 145.392 13.8756 145.375 12.6273C145.395 11.3873 145.073 10.1657 144.446 9.0963C143.839 8.06083 142.952 7.2177 141.887 6.66393C140.745 6.08993 139.485 5.791 138.206 5.791C136.928 5.791 135.667 6.08993 134.525 6.66393C133.462 7.22237 132.575 8.06429 131.961 9.0963C131.345 10.1697 131.032 11.39 131.054 12.6273C131.035 13.873 131.348 15.1013 131.961 16.1857C132.582 17.218 133.474 18.0595 134.541 18.6181V18.6181ZM141.073 15.661C140.301 16.3974 139.276 16.8083 138.209 16.8083C137.142 16.8083 136.116 16.3974 135.345 15.661C134.972 15.2522 134.683 14.7737 134.496 14.2531C134.308 13.7326 134.225 13.1801 134.251 12.6273C134.225 12.0746 134.308 11.5221 134.496 11.0015C134.683 10.4809 134.972 10.0025 135.345 9.5937C136.114 8.8535 137.141 8.44005 138.209 8.44005C139.277 8.44005 140.303 8.8535 141.073 9.5937C141.455 9.99769 141.753 10.4744 141.947 10.9956C142.141 11.5167 142.229 12.0716 142.204 12.6273C142.229 13.183 142.141 13.7379 141.947 14.2591C141.753 14.7802 141.455 15.257 141.073 15.661V15.661ZM52.2451 18.5853C51.8468 18.901 51.387 19.13 50.895 19.2576C50.3615 19.4083 49.8095 19.4837 49.2552 19.4817C48.0166 19.5616 46.7966 19.1491 45.8608 18.3338C45.4397 17.8923 45.1157 17.3676 44.9095 16.7934C44.7033 16.2191 44.6196 15.6081 44.6637 14.9996V3.08917H47.7794V6.1228H51.3487V8.61529H47.7794V14.9394C47.7444 15.479 47.9143 16.0118 48.2549 16.4317C48.4363 16.6056 48.6521 16.7397 48.8883 16.8253C49.1246 16.911 49.3762 16.9463 49.6269 16.9291C50.255 16.9505 50.8718 16.7577 51.376 16.3825L52.2451 18.5853ZM7.21072 19.4817C5.91913 19.5023 4.64241 19.2037 3.49384 18.6126C2.42953 18.0618 1.53987 17.2252 0.924827 16.1966C0.30068 15.1239 -0.0187241 13.9011 0.00107191 12.6601C-0.0210188 11.4275 0.29872 10.2129 0.924827 9.15096C1.53379 8.12725 2.41325 7.29129 3.46651 6.73499C4.62397 6.14139 5.91013 5.84285 7.21072 5.86589C8.40729 5.83948 9.59134 6.11388 10.6543 6.66393C11.627 7.17145 12.4107 7.97819 12.8899 8.96511L10.5122 10.3863C10.1682 9.79472 9.66678 9.31029 9.0637 8.98698C8.48928 8.67242 7.84374 8.51056 7.18886 8.5169C6.65446 8.50001 6.12225 8.59265 5.62498 8.78911C5.12771 8.98557 4.6759 9.28171 4.29735 9.6593C3.90846 10.0549 3.60571 10.5267 3.40815 11.045C3.2106 11.5634 3.12252 12.117 3.14948 12.6711C3.11957 13.225 3.20089 13.7792 3.38865 14.3012C3.5764 14.8232 3.86679 15.3022 4.24268 15.7102C4.88101 16.3014 5.68437 16.684 6.54568 16.8071C7.407 16.9301 8.28536 16.7877 9.0637 16.3989C9.6595 16.0681 10.1587 15.5877 10.5122 15.005L12.8899 16.3989C12.3847 17.3811 11.5939 18.1872 10.6215 18.711C9.56915 19.2509 8.39866 19.5195 7.21619 19.4926L7.21072 19.4817ZM32.9009 19.0608C33.9345 19.3403 35.0005 19.4818 36.0712 19.4817C37.9351 19.4817 39.4109 19.11 40.4877 18.3885C40.9948 18.0742 41.4122 17.6344 41.6995 17.1116C41.9868 16.5887 42.1342 16.0006 42.1275 15.4041C42.1768 14.6049 41.9075 13.8188 41.3787 13.2177C40.901 12.7096 40.3005 12.3331 39.635 12.1245C38.7749 11.8789 37.898 11.6962 37.0113 11.5779C36.2084 11.4334 35.42 11.2176 34.6555 10.9329C34.4282 10.8578 34.2318 10.7101 34.0966 10.5127C33.9613 10.3152 33.8946 10.0787 33.9067 9.83967C33.906 9.61021 33.971 9.38536 34.094 9.19165C34.217 8.99794 34.3929 8.84347 34.6008 8.74647C35.2533 8.42996 35.9757 8.28509 36.6998 8.32559C38.0417 8.30467 39.3642 8.6485 40.526 9.3204L41.7285 6.95363C41.0266 6.56567 40.2687 6.28907 39.482 6.13373C38.5862 5.92266 37.6693 5.81446 36.749 5.81123C35.2345 5.73449 33.734 6.13399 32.4582 6.95363C31.9635 7.28223 31.5602 7.73081 31.2859 8.25748C31.0116 8.78414 30.8752 9.37173 30.8894 9.96539C30.8396 10.7886 31.1055 11.5997 31.6328 12.2338C32.1343 12.7391 32.7516 13.1144 33.4311 13.327C34.315 13.5803 35.2154 13.7721 36.1259 13.9009C36.8987 14.0006 37.6602 14.1744 38.3997 14.4202C38.6108 14.4795 38.7962 14.6072 38.9268 14.7833C39.0574 14.9594 39.1258 15.1739 39.1212 15.3931C39.1212 16.3734 38.1902 16.8617 36.3281 16.858C35.4839 16.8538 34.644 16.738 33.8301 16.5137C33.0718 16.2968 32.3498 15.9689 31.6875 15.5407L30.4904 17.9075C31.2311 18.431 32.0555 18.8247 32.9282 19.0717L32.9009 19.0608ZM56.6944 18.6126C57.8287 19.184 59.0811 19.4816 60.3512 19.4816C61.6212 19.4816 62.8736 19.184 64.0079 18.6126C65.056 18.057 65.9286 17.2204 66.5277 16.1966C67.1493 15.1228 67.4685 13.9007 67.4515 12.6601C67.4707 11.4279 67.1512 10.214 66.5277 9.15096C65.9286 8.12717 65.056 7.29057 64.0079 6.73499C62.8736 6.16358 61.6212 5.86594 60.3512 5.86594C59.0811 5.86594 57.8287 6.16358 56.6944 6.73499C55.6416 7.29391 54.761 8.12915 54.1472 9.15096C53.54 10.2195 53.2304 11.4313 53.2508 12.6601C53.2324 13.8974 53.5417 15.1175 54.1472 16.1966C54.7669 17.2261 55.6575 18.0656 56.7217 18.6235L56.6944 18.6126ZM63.1825 15.6719C62.4185 16.4084 61.3987 16.8199 60.3375 16.8199C59.2763 16.8199 58.2565 16.4084 57.4924 15.6719C57.1202 15.2671 56.8319 14.7925 56.6442 14.2755C56.4566 13.7585 56.3733 13.2095 56.3992 12.6601C56.3739 12.1108 56.4575 11.562 56.6451 11.0451C56.8327 10.5282 57.1207 10.0535 57.4924 9.64836C58.2584 8.91567 59.2775 8.50674 60.3375 8.50674C61.3975 8.50674 62.4166 8.91567 63.1825 9.64836C63.5618 10.0496 63.8564 10.523 64.0489 11.0404C64.2414 11.5578 64.3278 12.1086 64.3031 12.6601C64.3336 13.2116 64.2525 13.7635 64.0646 14.2829C63.8768 14.8023 63.5861 15.2784 63.2099 15.6828L63.1825 15.6719ZM87.2329 5.86589C87.9638 5.82807 88.6947 5.93887 89.3814 6.1916C90.0682 6.44432 90.6966 6.83372 91.2286 7.33625C92.207 8.29826 92.6989 9.74675 92.6989 11.709V19.3177H89.5778V12.0971C89.6648 11.1689 89.4124 10.2407 88.8673 9.48438C88.5876 9.17893 88.2432 8.9399 87.8592 8.7848C87.4752 8.62969 87.0614 8.56243 86.6481 8.58796C86.1769 8.56799 85.707 8.65162 85.2717 8.83295C84.8363 9.01428 84.446 9.28889 84.1282 9.63743C83.4392 10.4544 83.0926 11.5061 83.1608 12.5727V19.3177H80.0397V12.0971C80.1094 11.1614 79.8354 10.2324 79.269 9.48438C78.9891 9.17924 78.6446 8.94042 78.2607 8.78534C77.8768 8.63026 77.4631 8.56283 77.0498 8.58796C76.5769 8.56712 76.105 8.64752 75.6658 8.8238C75.2265 9.00008 74.8299 9.26816 74.5026 9.6101C73.8281 10.4444 73.4925 11.5021 73.5625 12.5727V19.3177H70.4414V11.8785C70.4414 8.15068 73.2673 5.86589 76.9569 5.86589C78.1369 5.85025 79.3103 6.04459 80.4223 6.43982C81.1896 6.78731 81.8337 7.359 82.2698 8.07962C82.831 7.36675 83.5595 6.80348 84.3906 6.43982C85.2998 6.04323 86.285 5.85104 87.2767 5.87683L87.2329 5.86589ZM109.326 13.6659C109.359 13.2687 109.376 12.9626 109.376 12.7476C109.403 11.4971 109.104 10.2611 108.507 9.16189C107.96 8.13951 107.126 7.29963 106.107 6.74592C105.049 6.15497 103.853 5.85508 102.642 5.87683C101.404 5.85724 100.182 6.15654 99.0942 6.74592C98.0612 7.31522 97.2075 8.16135 96.629 9.18922C96.0358 10.2525 95.7341 11.4537 95.7544 12.6711C95.7334 13.9086 96.0428 15.1294 96.6508 16.2076C97.275 17.2404 98.1765 18.0775 99.2527 18.6235C100.334 19.1355 101.507 19.4276 102.702 19.483C103.898 19.5383 105.092 19.3558 106.216 18.946C107.098 18.5981 107.878 18.0342 108.485 17.3062L106.812 15.3877C106.341 15.8648 105.777 16.2393 105.154 16.4877C104.531 16.736 103.864 16.8528 103.194 16.8307C102.164 16.8676 101.149 16.5704 100.302 15.9835C99.547 15.4215 99.0348 14.5926 98.87 13.6659H109.326ZM100.094 9.26028C100.805 8.65916 101.711 8.34012 102.642 8.36385C103.571 8.33469 104.478 8.65448 105.183 9.26028C105.868 9.86071 106.305 10.6948 106.408 11.5997H98.8482C98.9585 10.6921 99.4027 9.85813 100.094 9.26028V9.26028ZM120.084 5.87683V8.8394C119.846 8.79241 119.604 8.7668 119.362 8.76287C118.837 8.73536 118.313 8.81847 117.822 9.0068C117.331 9.19513 116.886 9.48447 116.514 9.85607C115.784 10.6936 115.417 11.7867 115.492 12.8952V19.3177H112.371V12.6164C112.371 7.75713 115.492 5.2701 120.084 5.87683V5.87683ZM21.6956 19.4926C19.9137 19.4926 18.017 19.0007 16.9894 18.0223C15.9618 17.0439 15.4644 15.5571 15.4644 13.6167V6.01348H18.5855V13.1958C18.5121 14.1598 18.7962 15.1171 19.3835 15.8851C20.0248 16.4448 20.8471 16.7533 21.6984 16.7533C22.5496 16.7533 23.3719 16.4448 24.0132 15.8851C24.5982 15.1159 24.882 14.1595 24.8112 13.1958V6.01348H27.9323V13.6167C27.9323 15.5589 27.424 17.0275 26.4073 18.0223C25.3688 19.0007 23.4611 19.4926 21.6847 19.4926H21.6956Z" fill="var(--fill-0, #2F326A)"/>
</svg>
