<svg preserveAspectRatio="none" width="100%" height="100%" overflow="visible" style="display: block;" viewBox="0 0 141.742 22.4341" fill="none" xmlns="http://www.w3.org/2000/svg">
<path id="Vector" d="M38.9341 16.8719V9.76478C38.9341 9.57929 38.8097 9.45578 38.6232 9.45578H36.2597V6.67463H38.6232C38.8097 6.67463 38.9341 6.55097 38.9341 6.36563V1.91597H42.2926V6.36563C42.2926 6.55097 42.417 6.67463 42.6037 6.67463H45.9V9.45578H42.6037C42.417 9.45578 42.2926 9.57929 42.2926 9.76478V16.0686C42.2926 19.0351 43.35 19.2822 44.7183 19.2822C45.2158 19.2822 45.9621 19.2204 46.3975 19.1586V22.0632C45.8378 22.1251 44.9049 22.2487 43.8475 22.2487C42.5414 22.1869 38.9341 22.1869 38.9341 16.8719ZM130.237 18.6024L132.973 17.1809C133.595 18.6024 134.777 19.5294 136.145 19.5294C137.202 19.5294 138.384 19.0967 138.384 17.7989C138.384 16.9337 137.824 16.4393 136.518 16.0068L134.652 15.3887C132.04 14.5853 130.734 13.1021 130.734 11.0008C130.734 8.34329 132.973 6.36563 136.021 6.36563C138.446 6.36563 140.499 7.66346 141.494 9.70295L138.757 11.1861C138.135 9.88829 137.14 9.14677 135.958 9.14677C134.777 9.14677 133.968 9.76478 133.968 10.6918C133.968 11.4951 134.59 12.1133 135.834 12.4839L137.7 13.1021C140.436 13.9673 141.742 15.4504 141.742 17.4899C141.742 20.7037 138.944 22.3724 136.145 22.3724C133.346 22.3106 131.107 20.8891 130.237 18.6024ZM119.912 15.8213C119.85 15.8831 119.788 15.9449 119.788 16.0068V21.9397H116.367V0H119.788V11.9896C119.788 12.1133 119.85 12.2368 119.974 12.2368C120.099 12.2986 120.223 12.2368 120.285 12.1749L125.821 6.6128H129.988L123.519 13.1021C123.395 13.2256 123.395 13.3493 123.519 13.4728L130.547 21.9397H126.38L120.969 15.2651C120.907 15.2033 120.845 15.1414 120.783 15.1414C120.721 15.1414 120.658 15.1414 120.596 15.2033L119.912 15.8213ZM114.688 8.71412L112.511 10.7536C111.267 9.8266 110.023 9.39395 108.655 9.39395C105.794 9.39395 103.679 11.4951 103.679 14.3381C103.679 17.1809 105.794 19.2822 108.655 19.2822C109.899 19.2822 111.205 18.8496 112.573 17.9226L114.501 19.9621C111.702 22.0016 110.21 22.3724 108.282 22.3724C105.98 22.3724 103.928 21.5689 102.435 20.0856C101.005 18.6642 100.196 16.5629 100.196 14.3381C100.196 9.70295 103.617 6.3038 108.344 6.3038C109.899 6.3038 112.2 6.55097 114.688 8.71412ZM98.6414 2.10132C98.6414 3.2138 97.7085 4.1408 96.5889 4.1408C95.4694 4.1408 94.5365 3.2138 94.5365 2.10132C94.5365 0.988828 95.4694 0.0618254 96.5889 0.0618254C97.7085 0.0618254 98.6414 0.988828 98.6414 2.10132ZM98.3304 21.9397H94.9097V6.67463H98.3304V21.9397ZM87.4463 15.2651V22.0016H84.0256V6.73646H87.384V8.59046C87.384 8.71412 87.4463 8.83778 87.5706 8.89946C87.6951 8.96129 87.8194 8.89946 87.8817 8.77594C88.7523 7.35446 90.3694 6.42746 92.1109 6.42746C92.3597 6.42746 92.5463 6.42746 92.6706 6.48929V9.95012C92.484 9.88829 92.1731 9.88829 91.8622 9.88829C89.1255 9.82661 87.4463 11.9278 87.4463 15.2651ZM69.0987 14.3381C69.0987 11.5569 71.2134 9.39395 73.9499 9.39395C76.6865 9.39395 78.8011 11.5569 78.8011 14.3381C78.8011 17.1191 76.6865 19.2822 73.9499 19.2822C71.2134 19.2822 69.0987 17.1191 69.0987 14.3381ZM69.4097 20.1474C69.4719 20.1474 69.4719 20.1474 69.5341 20.1474C69.5962 20.1474 69.7207 20.2092 69.7828 20.2711C70.9645 21.6307 72.706 22.3724 74.6963 22.3724C78.9256 22.3724 82.1597 18.8496 82.1597 14.3381C82.1597 12.1133 81.4134 10.1356 79.9828 8.59046C78.6146 7.10729 76.6865 6.3038 74.634 6.3038C72.706 6.3038 70.9024 7.10729 69.7207 8.52863C69.6585 8.59046 69.5341 8.65229 69.4097 8.59046C69.2853 8.52863 69.2231 8.46695 69.2231 8.34329V0.0618254H65.8024V22.0016H69.2231V20.4564C69.2231 20.2711 69.2853 20.2092 69.4097 20.1474ZM55.2292 19.2822C52.5549 19.2822 50.378 17.1191 50.378 14.3381C50.378 11.5569 52.4927 9.39395 55.2292 9.39395C57.9658 9.39395 60.0804 11.5569 60.0804 14.3381C60.0804 17.1191 57.9036 19.2822 55.2292 19.2822ZM63.2524 21.9397V6.67463H59.8939V8.21963C59.8939 8.34329 59.8316 8.46695 59.7073 8.46695C59.5829 8.52863 59.4585 8.46694 59.3962 8.40512C58.2769 7.04546 56.5353 6.3038 54.4829 6.3038C50.2536 6.3038 47.0195 9.82661 47.0195 14.3381C47.0195 18.8496 50.3158 22.3724 54.4829 22.3724C56.4109 22.3724 58.2145 21.5689 59.3962 20.1474C59.4585 20.0239 59.5829 20.0239 59.7073 20.0856C59.8316 20.1474 59.8939 20.2092 59.8939 20.3329V22.0016H63.2524V21.9397ZM26.4329 19.2822C23.7585 19.2822 21.5817 17.1191 21.5817 14.3381C21.5817 11.5569 23.6963 9.39395 26.4329 9.39395C29.1072 9.39395 31.2841 11.5569 31.2841 14.3381C31.2841 17.1191 29.1072 19.2822 26.4329 19.2822ZM34.4561 21.9397V6.67463H31.0975V8.21963C31.0975 8.34329 31.0354 8.46695 30.9109 8.46695C30.7866 8.52863 30.6622 8.46694 30.6 8.40512C29.4805 7.04546 27.7389 6.3038 25.6866 6.3038C21.4573 6.3038 18.2231 9.82661 18.2231 14.3381C18.2231 18.8496 21.5196 22.3724 25.6866 22.3724C27.6146 22.3724 29.4183 21.5689 30.6 20.1474C30.6622 20.0239 30.7866 20.0239 30.9109 20.0856C31.0354 20.1474 31.0975 20.2092 31.0975 20.3329V22.0016H34.4561V21.9397ZM8.27195 19.2822C5.53536 19.2822 3.42073 17.1191 3.42073 14.3381C3.42073 11.5569 5.53536 9.39395 8.27195 9.39395C10.9463 9.39395 13.1232 11.5569 13.1232 14.3381C13.1232 17.1191 10.9463 19.2822 8.27195 19.2822ZM16.2951 21.9397V0.0618254H12.8744V8.28146C12.8744 8.40512 12.8122 8.52863 12.6878 8.52863C12.5634 8.59046 12.439 8.52863 12.3768 8.46695C11.1951 7.10729 9.45365 6.36563 7.46341 6.36563C3.23415 6.36563 0 9.88829 0 14.3999C0 16.6248 0.746341 18.6024 2.17683 20.1474C3.54511 21.6307 5.47317 22.4341 7.5256 22.4341C9.45365 22.4341 11.2573 21.6307 12.439 20.2092C12.5012 20.1474 12.6256 20.0856 12.75 20.1474C12.8744 20.2092 12.9366 20.2711 12.9366 20.3947V22.0016H16.2951V21.9397Z" fill="var(--fill-0, black)"/>
</svg>
