<svg preserveAspectRatio="none" width="100%" height="100%" overflow="visible" style="display: block;" viewBox="0 0 107.273 25.9601" fill="none" xmlns="http://www.w3.org/2000/svg">
<g id="Logo">
<path id="Vector" fill-rule="evenodd" clip-rule="evenodd" d="M0 19.2008L3.84419 16.2564C5.88556 18.9215 8.05343 20.1497 10.4691 20.1497C12.8714 20.1497 14.9797 18.9357 16.9296 16.2916L20.8267 19.1656C18.0154 22.9778 14.5176 24.992 10.4691 24.992C6.43402 24.992 2.90386 22.992 0 19.2008Z" fill="url(#paint0_linear_418_976)"/>
<path id="Vector_2" fill-rule="evenodd" clip-rule="evenodd" d="M10.4553 6.40368L3.61328 12.2993L0.452403 8.63109L10.4689 0L20.4076 8.63781L17.2311 12.2926L10.4553 6.40368Z" fill="url(#paint1_linear_418_976)"/>
<path id="Vector_3" d="M47.0664 4.97711H43.1926V21.118H47.0664V4.97711Z" fill="var(--fill-0, black)"/>
<path id="Vector_4" fill-rule="evenodd" clip-rule="evenodd" d="M35.3644 21.1893C33.0808 21.1893 31.1778 20.4493 29.6343 18.9691C28.0907 17.4679 27.3295 15.5437 27.3295 13.1967C27.3295 10.8285 28.1119 8.88319 29.6554 7.36081C31.2201 5.81723 33.1231 5.05604 35.3856 5.05604C38.1766 5.05604 40.6506 6.26127 42.0883 8.14315L39.5721 10.7862C38.3668 9.49639 37.056 8.84092 35.6393 8.84092C34.4341 8.84092 33.4403 9.24265 32.6156 10.0673C31.8121 10.8919 31.4104 11.928 31.4104 13.1756C31.4104 14.3808 31.8121 15.3957 32.6156 16.2204C33.4403 17.0238 34.4341 17.4256 35.6182 17.4256C37.1617 17.4256 38.5149 16.749 39.6355 15.4169L42.2576 17.9331C41.5388 18.8845 40.5659 19.6669 39.3606 20.2801C38.1557 20.8933 36.8234 21.1893 35.3644 21.1893Z" fill="var(--fill-0, black)"/>
<path id="Vector_5" fill-rule="evenodd" clip-rule="evenodd" d="M52.8775 6.26859C52.8775 7.42748 51.9384 8.36692 50.7795 8.36692C49.6205 8.36692 48.681 7.42748 48.681 6.26859C48.681 5.10973 49.6205 4.17029 50.7795 4.17029C51.9384 4.17029 52.8775 5.10973 52.8775 6.26859ZM52.7161 9.33534H48.8424V21.1182H52.7161V9.33534Z" fill="var(--fill-0, black)"/>
<path id="Vector_6" fill-rule="evenodd" clip-rule="evenodd" d="M60.2033 21.2103C58.3638 21.2103 56.8836 20.6394 55.7208 19.4976C54.5789 18.3558 54.0078 16.8969 54.0078 15.0996C54.0078 13.3023 54.5789 11.8433 55.7417 10.7015C56.9048 9.55973 58.4059 8.98882 60.2667 8.98882C62.6985 8.98882 64.8338 10.1729 65.8276 12.3931L62.8463 13.9578C62.2542 12.964 61.4298 12.4565 60.3514 12.4565C59.5691 12.4565 58.9345 12.7102 58.4272 13.2177C57.9408 13.7252 57.6871 14.3595 57.6871 15.0996C57.6871 16.6431 58.8077 17.7849 60.3092 17.7849C61.3873 17.7849 62.3811 17.1929 62.8041 16.2836L65.7855 18.0598C64.7704 20.0051 62.6773 21.2103 60.2033 21.2103Z" fill="var(--fill-0, black)"/>
<path id="Vector_7" fill-rule="evenodd" clip-rule="evenodd" d="M70.6325 4.97711H66.7588V21.1179H70.6325V17.0089L71.0863 16.5856L74.6274 21.1179H79.1338L73.6932 14.1546L78.8615 9.3351H74.128L70.6325 12.5949V4.97711Z" fill="var(--fill-0, black)"/>
<path id="Vector_8" fill-rule="evenodd" clip-rule="evenodd" d="M79.8331 15.0186V4.97711H83.8686V14.7938C83.8686 16.5488 84.8913 17.3946 86.3704 17.3946C87.8278 17.3946 88.8721 16.5065 88.8721 14.7938V4.97711H92.9072V15.0186C92.9072 19.6281 89.6711 21.362 86.3704 21.362C83.0909 21.362 79.8331 19.6281 79.8331 15.0186Z" fill="var(--fill-0, black)"/>
<path id="Vector_9" fill-rule="evenodd" clip-rule="evenodd" d="M101.623 21.4406C104.743 21.4406 107.273 18.6946 107.273 15.3071C107.273 11.9197 104.743 9.1736 101.623 9.1736C100.352 9.1736 99.1782 9.62985 98.2338 10.3998V9.33502H94.5214V25.9601H98.2338V20.2145C99.1782 20.9844 100.352 21.4406 101.623 21.4406ZM98.2338 15.3134V15.3008C98.2372 13.7882 99.428 12.5632 100.897 12.5632C102.368 12.5632 103.56 13.7917 103.56 15.3071C103.56 16.8225 102.368 18.051 100.897 18.051C99.428 18.051 98.2372 16.8259 98.2338 15.3134Z" fill="var(--fill-0, black)"/>
</g>
<defs>
<linearGradient id="paint0_linear_418_976" x1="0" y1="26.5649" x2="20.8267" y2="26.5649" gradientUnits="userSpaceOnUse">
<stop stop-color="#8930FD"/>
<stop offset="1" stop-color="#49CCF9"/>
</linearGradient>
<linearGradient id="paint1_linear_418_976" x1="0.452403" y1="14.514" x2="20.4076" y2="14.514" gradientUnits="userSpaceOnUse">
<stop stop-color="#FF02F0"/>
<stop offset="1" stop-color="#FFC800"/>
</linearGradient>
</defs>
</svg>
