<svg preserveAspectRatio="none" width="100%" height="100%" overflow="visible" style="display: block;" viewBox="0 0 75 32" fill="none" xmlns="http://www.w3.org/2000/svg">
<g id="logo-layer" clip-path="url(#clip0_418_1033)">
<path id="Vector" d="M64.5194 13.9772C63.2659 14.2706 59.9554 14.4337 59.9554 14.4337L59.5483 15.7597C59.5483 15.7597 61.1875 15.6184 62.3874 15.7379C62.3874 15.7379 62.7731 15.7053 62.8159 16.1727C62.8373 16.6509 62.7838 17.1509 62.7838 17.1509C62.7838 17.1509 62.7516 17.4443 62.3552 17.5204C61.8946 17.5965 58.7877 17.7378 58.7877 17.7378L58.2841 19.455C58.2841 19.455 58.102 19.8463 58.5198 19.7376C58.9055 19.6289 62.1624 18.9985 62.5909 19.0855C63.0409 19.1942 63.5551 19.8246 63.4052 20.3897C63.2337 21.0745 59.9768 23.183 58.0056 23.0417C58.0056 23.0417 56.9664 23.1069 56.0986 21.6831C55.2629 20.3245 56.3878 17.7704 56.3878 17.7704C56.3878 17.7704 55.8843 16.5748 56.2593 16.1401C56.2593 16.1401 56.4735 15.9553 57.1163 15.901L57.9199 14.2272C57.9199 14.2272 57.0092 14.2815 56.4735 13.6077C55.9807 12.9555 55.9379 12.6729 56.3236 12.499C56.7307 12.2817 60.5018 11.5969 63.0945 11.6839C63.0945 11.6839 64.0051 11.5752 64.8086 13.1729C64.8086 13.1729 65.1729 13.825 64.5301 13.9772M54.7487 20.4115C54.4273 21.2049 53.5381 22.0418 52.4667 21.531C51.3739 21.0093 49.6491 17.4443 49.6491 17.4443C49.6491 17.4443 49.0063 16.1183 48.8777 16.1618C48.8777 16.1618 48.7384 15.901 48.6634 17.3574C48.5563 18.8029 48.6849 21.6179 48.0956 22.0635C47.5599 22.4983 46.9171 22.3135 46.5529 21.8027C46.2529 21.2918 46.1243 20.0637 46.2958 17.9225C46.4886 15.7814 46.9707 13.499 47.5814 12.7925C48.2242 12.0752 48.7384 12.5969 48.9313 12.7925C48.9313 12.7925 49.7562 13.5533 51.1489 15.8031L51.3846 16.2161C51.3846 16.2161 52.6488 18.3573 52.7774 18.3464C52.7774 18.3464 52.8845 18.4551 52.9702 18.3682C53.0988 18.3355 53.0559 17.64 53.0559 17.64C53.0559 17.64 52.8203 15.3249 51.6418 11.4122C51.6418 11.4122 51.4704 10.9122 51.5882 10.434C51.6953 9.99923 52.156 10.2166 52.156 10.2166C52.156 10.2166 53.9345 11.0861 54.8022 14.0207C55.6593 16.9552 55.0808 19.6181 54.7594 20.4115M46.0279 12.8794C45.8565 13.1838 45.7815 13.6077 45.0423 13.7272C45.0423 13.7272 37.8643 14.238 37.5107 14.7489C37.5107 14.7489 37.275 15.0532 37.6607 15.1293C38.0678 15.2162 39.6963 15.4336 40.4676 15.4771C41.3033 15.4771 44.1102 15.4988 45.1387 16.7813C45.1387 16.7813 45.7279 17.39 45.7065 18.7703C45.6851 20.1832 45.4387 20.6832 44.8923 21.194C44.3245 21.6722 39.4606 23.8895 36.3215 20.4984C36.3215 20.4984 34.8859 18.8681 36.8251 17.6291C36.8251 17.6291 38.2178 16.7596 41.7854 17.7704C41.7854 17.7704 42.8567 18.1616 42.8139 18.5638C42.7496 18.9985 41.9247 19.4333 40.7248 19.4116C39.5677 19.3789 38.7106 18.8138 38.882 18.9116C39.0427 18.9659 37.6286 18.216 37.1893 18.7268C36.7608 19.205 36.8679 19.4876 37.2964 19.7811C38.3678 20.4115 42.5782 20.1832 43.8317 18.7594C43.8317 18.7594 44.3352 18.1834 43.5745 17.716C42.8246 17.2813 40.639 17.0096 39.7927 16.977C38.9892 16.9335 35.9787 16.977 35.5287 16.1835C35.5287 16.1835 35.1002 15.6184 35.5716 14.075C36.0644 12.4447 39.5677 11.8143 41.089 11.6839C41.089 11.6839 45.2673 11.51 46.0493 12.3795C46.0493 12.3795 46.1565 12.5751 46.0279 12.8686M34.1788 22.4331C33.6753 22.8135 32.6039 22.6504 32.2933 22.2157C31.9933 21.8353 31.8861 20.3354 31.9397 17.9769C32.0147 15.564 32.0468 12.6077 32.5825 12.1295C33.1182 11.6621 33.4396 12.0752 33.6539 12.3904C33.8681 12.7164 34.1467 13.0751 34.1895 13.825C34.2538 14.5858 34.4359 18.4986 34.4359 18.4986C34.4359 18.4986 34.6716 22.0635 34.1895 22.4331M35.2502 9.71665C33.7717 10.2275 32.7646 10.0644 31.9076 9.68404C31.5326 10.3688 31.3076 10.5753 31.0291 10.6187C30.6005 10.6622 30.2256 9.96663 30.172 9.74925C30.0863 9.58622 29.8827 9.29277 30.1291 8.62977C29.2935 7.86896 29.2292 6.8473 29.3792 6.16257C29.572 5.35828 30.9862 2.33678 35.2716 1.97811C35.2716 1.97811 37.3714 1.82595 37.7357 2.9563H37.8C37.8 2.9563 39.8355 2.9563 39.7927 4.80398C39.7927 6.65166 37.5429 8.95583 35.2502 9.74925M37.1572 4.45618C35.8073 4.67355 33.7289 6.4995 32.7325 8.01025C34.2645 8.29284 36.9429 8.18416 38.1428 5.72782C38.1428 5.72782 38.7106 4.18446 37.1572 4.45618ZM31.2326 5.65174C30.8041 6.35821 30.7827 6.78209 30.9862 7.06468C31.4897 6.30386 32.379 5.1083 33.7181 4.17359C32.6897 4.28228 31.8219 4.71703 31.2326 5.65174ZM67.7334 22.357C66.7478 24.8133 65.9121 27.3023 65.43 31.0302C65.43 31.0302 65.3229 31.7584 64.7336 31.5193C64.1444 31.3019 63.1802 30.3238 62.9659 28.9434C62.7516 27.1392 63.5444 24.096 65.1622 20.5962C64.6908 19.8354 64.3587 18.7051 64.6265 17.1183C64.6265 17.1183 65.055 14.1837 67.9477 11.5317C67.9477 11.5317 68.2905 11.2383 68.4833 11.3361C68.719 11.4448 68.6226 12.3795 68.4298 12.8577C68.2584 13.3142 66.9727 15.5749 66.9727 15.5749C66.9727 15.5749 66.1692 17.1183 66.3942 18.3247C67.9155 15.9553 71.376 11.1513 73.5187 12.6729C74.8793 13.6511 74.8793 16.8031 73.8615 18.629C73.058 20.0745 70.7867 23.0634 67.7548 22.3678M72.2116 14.9771C71.4188 15.8466 70.0046 17.4987 68.8904 19.7376C70.0689 19.6072 71.2153 18.9442 71.5688 18.6073C72.1366 18.0964 73.4437 16.7161 73.2401 14.8902C73.2401 14.8902 73.1115 13.9337 72.2116 14.9771M24.2153 23.6395C20.4227 24.8133 16.8444 24.2699 14.8946 23.7482C14.841 24.5525 14.7553 24.8894 14.6268 25.0198C14.4768 25.1937 13.234 25.9111 12.5483 24.8894C12.2484 24.4003 12.0984 23.5199 12.0127 22.7156C7.62015 20.6941 5.58459 17.716 5.52031 17.6073C5.41318 17.4987 4.41682 16.4444 5.41318 15.1401C6.34525 13.9663 9.43072 12.7816 12.1948 12.3143C12.3019 9.92315 12.5591 8.07547 12.8912 7.26031C13.2876 6.28213 13.7911 7.15163 14.2411 7.80375C14.6053 8.29284 14.8303 10.3905 14.8517 12.0643C16.6516 11.9773 17.7444 12.1078 19.7478 12.499C22.3833 12.9555 24.1403 14.325 24.001 15.8683C23.8725 17.39 22.5011 18.0204 21.9655 18.0638C21.4298 18.1073 20.5727 17.7052 20.5727 17.7052C19.9728 17.4226 20.5192 17.1617 21.2155 16.8574C21.9869 16.477 21.8155 16.0966 21.8155 16.0966C21.5369 15.2271 18.1193 14.651 14.7232 14.651C14.7232 16.5531 14.7982 19.705 14.8517 21.5418C17.2301 21.9983 19.0086 21.9005 19.0086 21.9005C19.0086 21.9005 27.6865 21.6505 27.9329 16.0314C28.2007 10.4014 19.255 5.01049 12.6662 3.31496C6.08812 1.5651 2.35984 2.80413 2.03843 2.96716C1.68489 3.14106 2.00629 3.20628 2.00629 3.20628C2.00629 3.20628 2.35984 3.26062 3.00265 3.47799C3.64545 3.69537 3.13121 4.02143 3.13121 4.02143C2.00629 4.41271 0.752819 4.18446 0.506409 3.66276C0.259999 3.15193 0.667111 2.68458 1.14922 1.99985C1.59918 1.29338 2.11343 1.31512 2.11343 1.31512C10.2557 -1.5651 20.1978 3.59755 20.1978 3.59755C29.497 8.35805 31.0826 13.9555 30.9112 16.1292C30.7612 18.2703 29.947 21.8896 24.2153 23.6504M6.32382 15.8683C5.40246 16.3031 6.04527 16.9987 6.04527 16.9987C7.78085 18.879 9.90212 20.0637 11.9377 20.8028C12.1734 17.5421 12.1519 16.3792 12.1519 14.738C9.00219 14.9554 7.1809 15.4771 6.32382 15.8683Z" fill="var(--fill-0, black)"/>
</g>
<defs>
<clipPath id="clip0_418_1033">
<rect width="75" height="32" fill="white"/>
</clipPath>
</defs>
</svg>
