<svg preserveAspectRatio="none" width="100%" height="100%" overflow="visible" style="display: block;" viewBox="0 0 100 30.0903" fill="none" xmlns="http://www.w3.org/2000/svg">
<path id="Logo" d="M14.4433 11.334C14.4433 13.0391 13.0391 14.4433 11.334 14.4433C9.62889 14.4433 8.22467 13.0391 8.22467 11.334C8.22467 9.62889 9.62889 8.22467 11.334 8.22467C13.0391 8.22467 14.4433 9.62889 14.4433 11.334ZM11.334 15.6469C9.62889 15.6469 8.22467 17.0512 8.22467 18.7563C8.22467 20.4614 9.62889 21.8656 11.334 21.8656C13.0391 21.8656 14.4433 20.4614 14.4433 18.7563C14.4433 17.0512 13.0391 15.6469 11.334 15.6469ZM30.0903 15.0451C30.0903 23.3701 23.3701 30.0903 15.0451 30.0903C6.72016 30.0903 0 23.3701 0 15.0451C0 6.72016 6.72016 0 15.0451 0C23.3701 0 30.0903 6.72016 30.0903 15.0451ZM26.0782 15.0451C26.0782 8.92678 21.1635 4.01204 15.0451 4.01204C8.92678 4.01204 4.01204 8.92678 4.01204 15.0451C4.01204 21.1635 8.92678 26.0782 15.0451 26.0782C21.1635 26.0782 26.0782 21.1635 26.0782 15.0451ZM18.7563 15.6469C17.0512 15.6469 15.6469 17.0512 15.6469 18.7563C15.6469 20.4614 17.0512 21.8656 18.7563 21.8656C20.4614 21.8656 21.8656 20.4614 21.8656 18.7563C21.8656 17.0512 20.4614 15.6469 18.7563 15.6469ZM18.7563 8.22467C17.0512 8.22467 15.6469 9.62889 15.6469 11.334C15.6469 13.0391 17.0512 14.4433 18.7563 14.4433C20.4614 14.4433 21.8656 13.0391 21.8656 11.334C21.8656 9.62889 20.4614 8.22467 18.7563 8.22467ZM70.5115 5.91775C70.6118 5.91775 70.7121 6.01805 70.8124 6.11835V9.32798C70.8124 9.52859 70.6118 9.62889 70.5115 9.62889H65.1956C64.995 9.62889 64.8947 9.42829 64.8947 9.32798V6.21866C64.8947 6.01805 65.0953 5.91775 65.1956 5.91775H70.5115ZM70.4112 10.4313H60.1805C60.0802 10.4313 59.8796 10.5316 59.8796 10.7322L58.5757 15.7472L58.4754 16.0481L56.8706 10.7322C56.8706 10.6319 56.67 10.4313 56.5697 10.4313H52.5577C52.4574 10.4313 52.2568 10.5316 52.2568 10.7322L50.7523 15.7472L50.652 16.0481L50.5517 15.7472L49.9498 13.2397L49.348 10.7322C49.348 10.6319 49.1474 10.4313 49.0471 10.4313H41.0231V6.11835C41.0231 6.01805 40.8225 5.81745 40.6219 5.91775L35.6068 7.52257C35.4062 7.52257 35.3059 7.62287 35.3059 7.82347V10.5316H34.002C33.9017 10.5316 33.7011 10.6319 33.7011 10.8325V14.6439C33.7011 14.7442 33.8014 14.9448 34.002 14.9448H35.3059V19.659C35.3059 22.9689 37.1113 24.4734 40.4213 24.4734C41.8255 24.4734 43.1294 24.1725 44.0321 23.671V19.659C44.0321 19.4584 43.8315 19.3581 43.7312 19.4584C43.2297 19.659 42.7282 19.7593 42.327 19.7593C41.4243 19.7593 40.9228 19.3581 40.9228 18.3551V14.9448H43.8315C43.9318 14.9448 44.1324 14.8445 44.1324 14.6439V11.4343L47.9438 24.0722C47.9438 24.1725 48.1444 24.3731 48.2447 24.3731H52.4574C52.5577 24.3731 52.7583 24.2728 52.7583 24.0722L54.5637 18.4554L55.4664 21.3641L56.2688 24.0722C56.2688 24.1725 56.4694 24.3731 56.5697 24.3731H60.7823C60.8826 24.3731 61.0833 24.2728 61.0833 24.0722L64.8947 11.4343V24.0722C64.8947 24.1725 64.995 24.3731 65.1956 24.3731H70.3109C70.4112 24.3731 70.6118 24.2728 70.6118 24.0722V10.7322C70.6118 10.6319 70.5115 10.4313 70.4112 10.4313ZM77.1314 5.91775H72.0161C71.9158 5.91775 71.7151 6.01805 71.7151 6.21866V23.9719C71.7151 24.0722 71.8155 24.2728 72.0161 24.2728H77.1314C77.2317 24.2728 77.4323 24.1725 77.4323 23.9719V6.11835C77.4323 6.01805 77.332 5.91775 77.1314 5.91775ZM83.9519 5.91775H78.6359C78.5356 5.91775 78.335 6.01805 78.335 6.21866V9.32798C78.335 9.42829 78.4353 9.62889 78.6359 9.62889H83.9519C84.0522 9.62889 84.2528 9.52859 84.2528 9.32798V6.11835C84.2528 6.01805 84.1525 5.91775 83.9519 5.91775ZM83.8516 10.4313H78.7362C78.6359 10.4313 78.4353 10.5316 78.4353 10.7322V23.8716C78.4353 23.9719 78.5356 24.1725 78.7362 24.1725H83.8516C83.9519 24.1725 84.1525 24.0722 84.1525 23.8716V10.7322C84.1525 10.6319 84.0522 10.4313 83.8516 10.4313ZM100 17.2518C100 21.0632 96.7904 24.3731 92.2768 24.3731C87.8636 24.3731 84.654 21.0632 84.654 17.2518C84.654 13.4403 87.8636 10.1304 92.3771 10.1304C96.7904 10.1304 100 13.4403 100 17.2518ZM94.5838 17.3521C94.5838 15.9478 93.5807 14.8445 92.3771 14.9448C91.0732 14.9448 90.1705 16.0481 90.1705 17.3521C90.1705 18.656 91.1735 19.7593 92.3771 19.7593C93.681 19.7593 94.5838 18.656 94.5838 17.3521Z" fill="var(--fill-0, #F22F46)"/>
</svg>
