<svg preserveAspectRatio="none" width="100%" height="100%" overflow="visible" style="display: block;" viewBox="0 0 66.4891 14.595" fill="none" xmlns="http://www.w3.org/2000/svg">
<path id="Vector" d="M47.8587 10.304C47.7123 10.3784 46.5681 11.0563 44.8674 11.0563C42.5688 11.0563 40.974 9.45707 40.974 7.29806C40.974 5.20437 42.5001 3.53636 44.8674 3.53636C46.5388 3.53636 47.7022 4.20085 47.8587 4.28419V0.502288C47.4127 0.378401 46.1975 0.00109985 44.6185 0.00109985C40.6192 0.00109985 37.1087 2.75813 37.1087 7.29916C37.1087 11.5057 40.2847 14.5916 44.6185 14.5916C46.2854 14.5916 47.522 14.1862 47.8587 14.0859V10.304ZM10.7455 10.304C10.6025 10.3784 9.45935 11.0563 7.75872 11.0563C5.45554 11.0563 3.8619 9.45707 3.8619 7.29806C3.8619 5.20437 5.38909 3.53636 7.75872 3.53636C9.43007 3.53636 10.5924 4.20085 10.7455 4.28419V0.502288C10.304 0.378401 9.08994 0.00109985 7.50193 0.00109985C3.50601 0.00109985 0 2.75813 0 7.29916C0 11.5057 3.17602 14.5916 7.50306 14.5916C9.17666 14.5916 10.411 14.1862 10.7455 14.0859V10.304V10.304ZM59.0435 11.0034C56.934 11.0034 55.3674 9.34332 55.3674 7.29806C55.3674 5.24829 56.934 3.58929 59.0435 3.58929C61.1507 3.58929 62.7218 5.24829 62.7218 7.29806C62.7218 9.34332 61.1507 11.0034 59.0435 11.0034ZM66.4891 7.29806C66.4891 3.26722 63.3773 0.00109985 59.0446 0.00109985C54.7097 0.00109985 51.6024 3.26719 51.6024 7.29916C51.6024 11.3221 54.7108 14.5916 59.0435 14.5916C63.3773 14.5916 66.4891 11.3221 66.4891 7.29806M32.6724 11.1385C32.6195 11.1554 31.1227 11.5688 29.8928 11.5688C28.4681 11.5688 27.6933 11.0912 27.6933 10.4143C27.6933 9.55615 28.7384 9.25662 29.323 9.07191L30.3039 8.7599C32.6127 8.02558 33.6635 6.44548 33.6635 4.72908C33.6635 1.18929 30.5506 0 27.8296 0C25.9386 0 24.167 0.349114 23.9924 0.385154V3.62875C24.3055 3.54991 25.7967 3.10392 27.3498 3.10392C29.1191 3.10392 29.9323 3.62195 29.9323 4.41934C29.9323 5.13338 29.2284 5.54562 28.3465 5.82268C28.1325 5.89476 27.8082 5.99614 27.5874 6.06822C25.6075 6.69441 23.9564 7.85892 23.9564 10.1903C23.9564 12.8257 25.9296 14.595 29.207 14.595C30.938 14.595 32.5666 14.1749 32.6724 14.1468V11.1397V11.1385Z" fill="var(--fill-0, #00A5DE)"/>
</svg>
