<svg preserveAspectRatio="none" width="100%" height="100%" overflow="visible" style="display: block;" viewBox="0 0 102.898 19.6917" fill="none" xmlns="http://www.w3.org/2000/svg">
<path id="Vector" d="M99.644 11.4008C99.5556 11.8438 99.4006 12.2202 99.1901 12.5523C98.9801 12.884 98.703 13.1502 98.3494 13.3601C98.0058 13.5598 97.5747 13.67 97.0652 13.67C96.5672 13.67 96.1352 13.5707 95.7925 13.3601C95.4501 13.1598 95.1584 12.8834 94.9399 12.5523C94.7294 12.2205 94.5744 11.8438 94.4751 11.4008C94.3775 10.9611 94.3292 10.5119 94.3311 10.0616C94.3311 9.59673 94.3758 9.13158 94.4642 8.70048C94.5526 8.2575 94.7075 7.87013 94.9181 7.53806C95.128 7.19443 95.4051 6.9292 95.7587 6.70803C96.1024 6.49747 96.5338 6.38689 97.043 6.38689C97.5409 6.38689 97.9617 6.49747 98.3047 6.70803C98.6485 6.92068 98.9399 7.20813 99.1573 7.54899C99.3788 7.892 99.5337 8.2903 99.633 8.72234C99.7324 9.165 99.777 9.60767 99.777 10.0616C99.777 10.5155 99.7324 10.9581 99.644 11.4008ZM102.589 7.82577C102.378 7.08415 102.068 6.44218 101.648 5.87769C101.216 5.32444 100.685 4.87022 100.043 4.53845C99.4003 4.20638 98.6259 4.02925 97.7293 4.02925C97.0208 4.02925 96.3785 4.17327 95.7922 4.45005C95.2052 4.72683 94.7181 5.18042 94.3417 5.78928H94.2977V4.33915H91.3312V19.6917H94.4526V14.3008H94.4967C94.8646 14.8424 95.3686 15.2776 95.958 15.5628C96.556 15.8505 97.1979 15.9946 97.9061 15.9946C98.7365 15.9946 99.4668 15.8287 100.098 15.5075C100.707 15.1956 101.24 14.7534 101.659 14.2123C102.079 13.67 102.389 13.0499 102.589 12.3417C102.799 11.6332 102.898 10.9032 102.898 10.139C102.898 9.3312 102.799 8.55646 102.589 7.81453V7.82577V7.82577ZM87.1916 11.4008C87.1032 11.8438 86.9483 12.2202 86.7377 12.5523C86.5272 12.8844 86.2507 13.1502 85.8965 13.3601C85.5534 13.5598 85.1217 13.67 84.6128 13.67C84.1142 13.67 83.6941 13.5707 83.3395 13.3601C82.9973 13.1597 82.7056 12.8833 82.487 12.5523C82.2771 12.2205 82.1221 11.8438 82.0228 11.4008C81.9249 10.9612 81.8766 10.512 81.8788 10.0616C81.8788 9.59673 81.9228 9.13158 82.0112 8.70048C82.1002 8.2575 82.2546 7.87013 82.4651 7.53806C82.6757 7.19443 82.9521 6.9292 83.3064 6.70803C83.6494 6.49747 84.0811 6.38689 84.59 6.38689C85.0886 6.38689 85.5088 6.49747 85.8524 6.70803C86.1961 6.92062 86.4873 7.20809 86.7043 7.54899C86.9258 7.892 87.0807 8.2903 87.1807 8.72234C87.28 9.165 87.3241 9.60767 87.3241 10.0616C87.3241 10.5155 87.28 10.9581 87.1916 11.4008V11.4008ZM89.1947 5.87769C88.7742 5.32444 88.2319 4.87022 87.5899 4.53845C86.948 4.20638 86.1732 4.02925 85.2763 4.02925C84.5678 4.02925 83.9262 4.17327 83.3392 4.45005C82.7528 4.72683 82.2658 5.18042 81.8894 5.78928H81.8447V4.33915H78.8782V19.6917H81.9997V14.3008H82.0443C82.4123 14.8424 82.9163 15.2776 83.5057 15.5628C84.103 15.8505 84.745 15.9946 85.4532 15.9946C86.2944 15.9946 87.0139 15.8287 87.6455 15.5075C88.2543 15.1954 88.7869 14.7532 89.2056 14.2123C89.6267 13.67 89.9366 13.0499 90.1472 12.3417C90.3514 11.6253 90.4557 10.884 90.4571 10.139C90.4571 9.3312 90.3571 8.55646 90.1472 7.81453C89.9366 7.07322 89.6267 6.43093 89.1947 5.86675V5.87769V5.87769ZM68.6504 9.64109L70.6982 3.87399H70.7425L72.724 9.64109H68.6504ZM68.9825 0L63.0386 15.7065H66.5143L67.7432 12.209H73.6206L74.8049 15.7065H78.3912L72.5138 0H68.9716H68.9825V0ZM62.784 10.7257C62.5734 10.3715 62.3079 10.0616 61.9649 9.81822C61.6328 9.57486 61.2451 9.38618 60.8134 9.23154C60.376 9.08784 59.9329 8.96236 59.4851 8.85542C59.0424 8.75546 58.6107 8.6558 58.1899 8.5674C57.7691 8.47899 57.3818 8.37902 57.0609 8.26843C56.7292 8.15785 56.4633 8.01414 56.264 7.83671C56.0535 7.65958 55.9541 7.4384 55.9541 7.15069C55.9541 6.91827 56.0094 6.7299 56.1309 6.58588C56.2528 6.44218 56.3968 6.34253 56.5627 6.26505C56.7289 6.18758 56.9169 6.14322 57.1275 6.12135C57.3186 6.1002 57.5106 6.08914 57.7029 6.08824C58.2565 6.08824 58.7435 6.19883 59.1534 6.40907C59.5629 6.61931 59.7953 7.02886 59.8284 7.62647H62.7949C62.7393 6.91796 62.5516 6.34253 62.2526 5.87737C61.9536 5.41222 61.5775 5.04734 61.1236 4.77056C60.6697 4.49378 60.1496 4.29479 59.5738 4.17295C58.9984 4.05112 58.4005 3.99583 57.7807 3.99583C57.1612 3.99583 56.5633 4.05143 55.9766 4.16171C55.3899 4.27229 54.8589 4.46067 54.394 4.73745C53.9182 5.01423 53.5415 5.37973 53.265 5.84426C52.977 6.3091 52.8333 6.91827 52.8333 7.64833C52.8333 8.1466 52.9326 8.56708 53.1432 8.91009C53.3425 9.25372 53.619 9.54113 53.9511 9.77355C54.2944 9.99503 54.6708 10.1834 55.1025 10.3271C55.5343 10.4708 55.9769 10.593 56.4308 10.6923C57.5489 10.9247 58.4124 11.1571 59.0431 11.3896C59.6629 11.622 59.9731 11.9762 59.9731 12.4411C59.9731 12.7179 59.9065 12.9503 59.7738 13.1383C59.6438 13.3221 59.4733 13.4736 59.2755 13.581C59.0762 13.6916 58.8547 13.7694 58.6113 13.8244C58.3826 13.8764 58.1487 13.9024 57.9141 13.9018C57.6042 13.9018 57.3052 13.869 57.0284 13.7912C56.7407 13.7138 56.4861 13.6026 56.265 13.4479C56.0435 13.293 55.8663 13.0937 55.7226 12.8503C55.5786 12.607 55.5121 12.3189 55.5121 11.9869H52.5456C52.5787 12.7503 52.7452 13.3814 53.066 13.8906C53.3759 14.4001 53.7855 14.7984 54.2725 15.1083C54.7595 15.4182 55.324 15.6394 55.9551 15.7721C56.5861 15.9052 57.2278 15.9717 57.8919 15.9717C58.5342 15.9717 59.1758 15.9052 59.7959 15.7831C60.4157 15.6615 60.9693 15.4401 61.4563 15.1302C61.9433 14.8203 62.3307 14.4107 62.6297 13.9125C62.9283 13.4036 63.0833 12.7838 63.0833 12.0309C63.0833 11.4998 62.9839 11.0572 62.7734 10.7026L62.784 10.7257V10.7257ZM49.8662 0.929995H46.7448V4.33915H44.8516V6.43093H46.7448V13.139C46.7448 13.7147 46.8441 14.1686 47.0325 14.5226C47.2208 14.8771 47.4864 15.1423 47.8185 15.342C48.1505 15.53 48.5273 15.6628 48.9587 15.7293C49.4131 15.797 49.8719 15.8302 50.3313 15.8287C50.6412 15.8287 50.9511 15.8177 51.2832 15.8068C51.5763 15.7969 51.8685 15.7672 52.1576 15.7181V13.2939C52.0048 13.3284 51.8494 13.3505 51.6931 13.3601C51.5236 13.3734 51.3538 13.3808 51.1839 13.3823C50.6525 13.3823 50.3092 13.2939 50.1323 13.1165C49.9552 12.9397 49.8665 12.5851 49.8665 12.0653V6.43093H52.1576V4.33915H49.8665V0.929995H49.8662ZM40.9111 11.3124C40.9111 11.4892 40.8892 11.7219 40.8558 12.0209C40.8185 12.3267 40.7166 12.621 40.5568 12.8844C40.391 13.1724 40.1473 13.4157 39.8043 13.6263C39.4725 13.8362 38.9852 13.9362 38.3767 13.9362C38.133 13.9362 37.8893 13.9137 37.646 13.8697C37.4135 13.825 37.2033 13.7475 37.0262 13.6372C36.8491 13.5263 36.7163 13.3826 36.6054 13.1833C36.506 12.9953 36.4504 12.7628 36.4504 12.4748C36.4504 12.1759 36.506 11.9434 36.6054 11.7444C36.705 11.5558 36.8487 11.4008 37.0152 11.2683C37.1811 11.1465 37.3804 11.0472 37.6129 10.9697C37.8453 10.8922 38.0668 10.8366 38.3101 10.7923C38.56 10.7493 38.811 10.7124 39.0627 10.6817C39.3173 10.6486 39.55 10.6151 39.7824 10.5711C40.0149 10.527 40.2251 10.4714 40.4244 10.4052C40.6237 10.339 40.7896 10.2503 40.9227 10.1284V11.2908L40.9111 11.3124V11.3124ZM44.0325 13.183V7.26097C44.0325 6.57495 43.8776 6.02139 43.568 5.6009C43.2581 5.18011 42.8592 4.85928 42.3834 4.62686C41.8964 4.39444 41.365 4.23949 40.7783 4.15109C40.2025 4.07237 39.622 4.03167 39.0408 4.02925C38.4095 4.02925 37.7787 4.09579 37.1589 4.21763C36.5395 4.33946 35.9747 4.54939 35.4764 4.84866C34.9859 5.14049 34.5663 5.5375 34.2477 6.01108C33.9269 6.4981 33.7385 7.10664 33.6945 7.83733H36.8159C36.8712 7.21786 37.0815 6.78613 37.4354 6.52028C37.79 6.25443 38.2658 6.12198 38.8859 6.12198C39.1626 6.12198 39.4279 6.14385 39.6718 6.17727C39.8986 6.20707 40.1169 6.28241 40.3138 6.39876C40.5022 6.50935 40.6459 6.66429 40.7568 6.8636C40.8674 7.06291 40.9227 7.32813 40.9227 7.67145C40.9336 7.99228 40.8452 8.23626 40.6346 8.41307C40.4244 8.57895 40.1476 8.71203 39.7937 8.80044C39.4397 8.88885 39.0411 8.95539 38.5872 8.99975C38.1333 9.04411 37.6685 9.0994 37.2036 9.17687C36.7388 9.25435 36.2736 9.35369 35.8088 9.47552C35.3439 9.59736 34.9341 9.78542 34.5798 10.0403C34.2146 10.2946 33.9269 10.6267 33.6945 11.0362C33.4621 11.457 33.3512 11.9884 33.3512 12.6304C33.3512 13.2171 33.4505 13.7263 33.6501 14.1467C33.837 14.5567 34.1176 14.917 34.4692 15.1986C34.8348 15.4828 35.252 15.6933 35.6979 15.8184C36.1627 15.9511 36.6719 16.0174 37.2142 16.0174C37.9227 16.0174 38.6091 15.918 39.2842 15.7075C39.9519 15.5036 40.5573 15.1344 41.0442 14.6341C41.0551 14.8221 41.0885 15.0099 41.1217 15.1986C41.1548 15.3754 41.2101 15.5638 41.2657 15.7409H44.4315C44.2875 15.5085 44.1769 15.1539 44.1216 14.6891C44.063 14.2006 44.0334 13.7091 44.0329 13.2171V13.183H44.0325ZM31.1707 5.32412C30.8608 4.92582 30.44 4.60468 29.9089 4.3832C29.3775 4.15077 28.6915 4.03987 27.8499 4.03987C27.2632 4.03987 26.6656 4.19482 26.0458 4.49378C25.4261 4.79274 24.9278 5.27977 24.5295 5.93267H24.4629V0.0109337H21.3415V15.7178H24.4629V9.75168C24.4629 8.58926 24.6513 7.75923 25.0387 7.25003C25.4151 6.74083 26.0349 6.49748 26.8871 6.49748C27.6287 6.49748 28.1601 6.72989 28.4478 7.19442C28.7359 7.65927 28.8908 8.35684 28.8908 9.29746V15.7178H32.0123V8.72234C32.0123 8.01383 31.9457 7.37218 31.8239 6.79644C31.702 6.22069 31.4806 5.72274 31.1707 5.32412ZM14.6666 10.8366H14.6222L11.9438 0.011246H8.71142L5.98828 10.7039H5.94392L3.4532 0.011246H0L4.16171 15.7181H7.65959L10.2718 5.02516H10.3162L12.9728 15.7181H16.4041L18.2857 8.74452L20.6324 0.011246H17.2451L14.6666 10.8366V10.8366Z" fill="var(--fill-0, #272525)"/>
</svg>
