<svg preserveAspectRatio="none" width="100%" height="100%" overflow="visible" style="display: block;" viewBox="0 0 110.076 25.0909" fill="none" xmlns="http://www.w3.org/2000/svg">
<path id="logo-layer" fill-rule="evenodd" clip-rule="evenodd" d="M85.4222 8.7185L86.3902 1.90922C85.4002 1.13311 82.3204 -0.322463 77.9206 0.0641279C72.4208 0.547367 69.2309 4.45722 69.8909 9.24568C70.3576 12.6314 73.1888 13.8319 75.554 14.8347C76.5339 15.2502 77.4339 15.6318 78.0526 16.1209C80.1645 17.7902 78.8665 19.6573 76.2486 19.7451C73.6307 19.833 70.9469 18.4272 69.077 15.7035L68.175 22.7105C69.3263 23.7355 72.9136 25.6187 78.0526 24.9509C80.6118 24.7093 85.673 22.728 85.4442 16.7359C85.5469 15.3814 84.8282 12.2769 81.1324 10.6954C76.5126 8.7185 75.5447 7.774 76.7326 6.08266C77.9206 4.39132 82.5404 4.98437 85.4222 8.7185ZM34.6925 0.393618H28.0928L30.4027 24.7093H35.8804L42.5901 9.3555L44.966 24.7093H50.3338L59.1554 0.393618H52.7317L48.1999 14.3197L46.154 0.393618H41.4242L35.4184 14.3197L34.6925 0.393618ZM68.043 0.415584H61.3113L57.9014 24.7313H64.6551L68.043 0.415584ZM93.6059 14.5393H109.709C110.156 12.6284 110.558 8.02001 108.587 4.87457C106.123 0.942759 102.757 -0.265339 97.8957 0.108073C93.0339 0.481485 87.8641 4.80867 87.2701 11.7497C86.6762 18.6908 89.47 21.2827 90.768 22.4689C92.0659 23.655 94.5078 25.2145 98.6436 25.0608C102.779 24.907 106.893 22.996 108.829 18.9764L103.439 16.5162C102.853 17.5999 101.046 19.7671 98.5116 19.7671C96.9644 19.8623 93.817 18.95 93.6059 14.5393ZM94.1339 9.8606H103.681C103.703 8.28641 102.863 5.16 99.3257 5.24786C95.7882 5.33572 94.3906 8.35963 94.1339 9.8606ZM11.7035 24.7093H16.7413L25.5849 0.393618H2.70588L6.8637 7.7081L0 15.7914L12.3195 15.8133L13.7274 11.9914H8.40363L11.7035 8.2133L9.59158 4.54508H19.0512L11.7035 24.7093Z" fill="var(--fill-0, #163300)"/>
</svg>
