<svg preserveAspectRatio="none" width="100%" height="100%" overflow="visible" style="display: block;" viewBox="0 0 96 32" fill="none" xmlns="http://www.w3.org/2000/svg">
<g id="logo-layer" clip-path="url(#clip0_418_290)">
<path id="Vector" fill-rule="evenodd" clip-rule="evenodd" d="M79.1378 28.3468L75.5839 24.3551L72.0558 28.3468H64.6391L71.8927 20.2004L64.6391 12.0539H72.2876L75.8758 16.0113L79.3352 12.0539H86.7176L79.4983 20.166L86.8206 28.3468H79.1378ZM50.3979 28.3468V2.68H64.6391V8.40566H56.4326V12.0539H64.6391V17.5564H56.4326V22.6039H64.6391V28.3468H50.3979Z" fill="var(--fill-0, #FF6600)"/>
<path id="Vector_2" fill-rule="evenodd" clip-rule="evenodd" d="M44.3889 2.68V13.1871H44.3202C43.0848 11.7803 41.2707 11.0205 39.4015 11.1269C35.641 11.1599 32.3725 13.717 31.4353 17.359C30.2421 13.4446 27.1432 11.0496 22.6194 11.0496C18.9196 11.0496 16.001 12.7063 14.473 15.419V12.0539H6.81586V8.39708H15.1597V2.68H0V28.3468H6.81586V17.5564H13.606C13.394 18.3982 13.2902 19.2636 13.2969 20.1317C13.2969 25.4882 17.383 29.2395 22.6108 29.2395C26.9973 29.2395 29.8902 27.1793 31.4182 23.4194H25.5809C24.9879 24.474 23.8087 25.0568 22.6108 24.8873C20.7086 24.8455 19.186 23.2961 19.1771 21.3936H31.092C31.607 25.6857 34.9205 29.3082 39.4616 29.3082C41.4071 29.3143 43.227 28.348 44.3117 26.7329H44.3803V28.3468H50.3893V2.68L44.3889 2.68ZM19.3831 17.6337C19.6681 16.0778 21.0205 14.9454 22.6022 14.9382C24.2218 14.8563 25.6349 16.0271 25.8556 17.6337H19.3831ZM40.732 24.441C38.5173 24.441 37.1438 22.3807 37.1438 20.2175C37.1438 17.917 38.3456 15.7022 40.732 15.7022C43.1184 15.7022 44.1657 17.917 44.1657 20.2175C44.1657 22.5181 43.1614 24.441 40.7406 24.441H40.732Z" fill="var(--fill-0, #4D148C)"/>
<path id="Vector_3" fill-rule="evenodd" clip-rule="evenodd" d="M95.4134 25.2822C95.3757 23.9074 94.2374 22.8198 92.8623 22.8447C91.4872 22.8697 90.3891 23.9979 90.4013 25.3731C90.4135 26.7484 91.5315 27.857 92.9068 27.8575C93.5882 27.8726 94.2452 27.6038 94.7206 27.1154C95.196 26.627 95.4469 25.9629 95.4134 25.2822V25.2822ZM92.2544 25.411V27.1278H91.7136V23.3851H93.0613C93.8511 23.3851 94.2116 23.7285 94.2116 24.4066C94.2256 24.7941 93.9502 25.132 93.5678 25.1964C93.8768 25.2479 93.997 25.5226 94.0657 26.0548C94.0893 26.4108 94.1675 26.7612 94.2975 27.0935H93.6536C93.5483 26.6805 93.4652 26.2621 93.4047 25.8402C93.3483 25.5498 93.0692 25.3586 92.7781 25.411H92.2544ZM92.9326 24.9303C93.4562 24.9303 93.6107 24.647 93.6107 24.4066C93.6107 24.1663 93.4648 23.883 92.9326 23.883H92.2544V24.9388H92.9326V24.9303ZM89.8165 25.2736C89.8026 24.0172 90.5487 22.8767 91.7055 22.3863C92.8623 21.8958 94.2008 22.1524 95.0942 23.0359C95.9876 23.9194 96.2591 25.2549 95.7816 26.4171C95.304 27.5793 94.1719 28.3381 92.9154 28.3382C92.0939 28.3569 91.3001 28.0411 90.7158 27.4633C90.1315 26.8856 89.807 26.0953 89.8165 25.2736Z" fill="var(--fill-0, #FF6600)"/>
</g>
<defs>
<clipPath id="clip0_418_290">
<rect width="96" height="32" fill="white"/>
</clipPath>
</defs>
</svg>
