<svg preserveAspectRatio="none" width="100%" height="100%" overflow="visible" style="display: block;" viewBox="0 0 45.0764 22.2266" fill="none" xmlns="http://www.w3.org/2000/svg">
<g id="Vector">
<path d="M12.1498 0.0012207H4.27348C3.73573 0.0012207 3.27742 0.392736 3.19336 0.924736L0.00826891 21.1189C-0.0550644 21.5173 0.253546 21.8766 0.655425 21.8766H4.69724C5.07263 21.8766 5.39391 21.6025 5.45264 21.2294L6.35657 15.5052C6.43948 14.9721 6.89894 14.5806 7.4367 14.5806H9.92858C15.1173 14.5806 18.1101 12.0703 18.8931 7.09571C19.2466 4.91934 18.9069 3.20934 17.8878 2.01177C16.7697 0.696736 14.7857 0.0012207 12.1498 0.0012207ZM13.0584 7.37668C12.6289 10.2025 10.4698 10.2025 8.38094 10.2025H7.19373L8.02857 4.9251C8.07809 4.60613 8.35215 4.37122 8.67572 4.37122H9.22039C10.6414 4.37122 11.984 4.37122 12.6772 5.18189C13.0906 5.66552 13.2161 6.38407 13.0584 7.37668Z" fill="#179BD7"/>
<path d="M35.6892 7.2857H31.9203C31.5967 7.2857 31.3215 7.52061 31.2731 7.83958L31.1062 8.89436L30.8413 8.51206C30.0249 7.32715 28.2055 6.93103 26.3884 6.93103C22.2211 6.93103 18.6629 10.0873 17.9697 14.5149C17.6104 16.7235 18.1205 18.8354 19.3734 20.3082C20.5249 21.6624 22.1669 22.2266 24.1234 22.2266C27.4812 22.2266 29.3432 20.0675 29.3432 20.0675L29.1751 21.1154C29.1117 21.5161 29.4203 21.8754 29.8245 21.8754H33.2203C33.7581 21.8754 34.2164 21.4839 34.3005 20.9507L36.3398 8.04339C36.402 7.64612 36.0934 7.2857 35.6892 7.2857ZM30.4325 14.6255C30.0709 16.7799 28.3586 18.2262 26.1777 18.2262C25.0849 18.2262 24.2074 17.875 23.6455 17.2095C23.0882 16.5485 22.8786 15.6077 23.0536 14.5598C23.3956 12.4238 25.1321 10.9302 27.2797 10.9302C28.3506 10.9302 29.2211 11.2861 29.7946 11.9574C30.3715 12.6356 30.5995 13.5822 30.4325 14.6255Z" fill="#179BD7"/>
<path d="M40.1351 0.55503L36.9028 21.1188C36.8395 21.5172 37.1481 21.8765 37.55 21.8765H40.7995C41.3396 21.8765 41.7979 21.485 41.8808 20.9518L45.0682 0.758848C45.1315 0.360424 44.8229 0 44.421 0H40.7822C40.461 0.00115152 40.1846 0.236061 40.1351 0.55503Z" fill="#179BD7"/>
</g>
</svg>
