<svg preserveAspectRatio="none" width="100%" height="100%" overflow="visible" style="display: block;" viewBox="0 0 78.2849 28.2762" fill="none" xmlns="http://www.w3.org/2000/svg">
<path id="Vector" fill-rule="evenodd" clip-rule="evenodd" d="M19.9046 22.4473C14.3627 22.4733 14.3627 18.0005 14.3627 17.2884L14.3532 0.533058L17.7341 0V16.6528C17.7341 17.0572 17.7341 19.6149 19.9043 19.6232V22.4473H19.9046V22.4473ZM6.20025 19.7094C7.23775 19.7094 8.00755 19.6491 8.54364 19.5466V16.1303C8.27595 16.0595 8.00421 16.0048 7.72991 15.9665C7.34082 15.909 6.94799 15.8803 6.55464 15.8805C6.17545 15.8794 5.79676 15.9082 5.42213 15.9665C5.04139 16.0184 4.69509 16.1209 4.39272 16.2671C4.09035 16.4133 3.83883 16.6197 3.65736 16.885C3.46757 17.1516 3.38112 17.3061 3.38112 17.7093C3.38112 18.4982 3.65736 18.9545 4.15901 19.254C4.66065 19.5549 5.34376 19.7094 6.20025 19.7094V19.7094ZM5.9062 7.51982C7.02091 7.51982 7.9634 7.65774 8.72464 7.93266C9.4852 8.20735 10.0994 8.59283 10.5486 9.08222C11.0077 9.57987 11.3184 10.2414 11.5084 10.9455C11.7074 11.6493 11.8025 12.4217 11.8025 13.2708V21.9073C11.2842 22.0181 10.4966 22.1466 9.44243 22.3011C8.38806 22.4556 7.20354 22.5335 5.88817 22.5335C5.01527 22.5335 4.21125 22.4473 3.4937 22.2845C2.76689 22.1218 2.15359 21.8554 1.63415 21.4862C1.12442 21.1173 0.727031 20.6445 0.432981 20.0617C0.147253 19.477 0 18.6538 0 17.7955C0 16.9712 0.163669 16.4476 0.485229 15.8805C0.808296 15.3189 1.26156 14.8422 1.8073 14.49C2.36951 14.1294 3.00869 13.8721 3.74405 13.7177C4.47918 13.5632 5.24898 13.4855 6.04352 13.4855C6.41571 13.4855 6.80476 13.5115 7.21995 13.5538C7.62658 13.5975 8.06788 13.6754 8.53508 13.7862V13.2366C8.53508 12.8511 8.49116 12.4819 8.39615 12.1387C8.30501 11.8006 8.13934 11.4868 7.91115 11.2202C7.67767 10.9538 7.37645 10.7474 6.99571 10.6023C6.61497 10.4561 6.12998 10.3439 5.55136 10.3439C4.77323 10.3439 4.06423 10.4384 3.41556 10.5504C2.76689 10.6612 2.2308 10.791 1.82394 10.9361L1.41847 8.18137C1.84174 8.03518 2.47261 7.88898 3.28634 7.74394C4.09867 7.58832 4.9725 7.51982 5.90597 7.51982H5.9062V7.51982ZM72.6745 19.6149C73.7123 19.6149 74.4807 19.5549 75.0168 19.451V16.0361C74.827 15.9842 74.5591 15.9239 74.2045 15.8722C73.815 15.8148 73.4218 15.786 73.028 15.786C72.6568 15.786 72.2762 15.812 71.8955 15.8722C71.5161 15.9239 71.1699 16.0267 70.8673 16.1729C70.5637 16.3191 70.3136 16.5255 70.1321 16.7908C69.9412 17.0572 69.8559 17.2116 69.8559 17.6151C69.8559 18.404 70.1321 18.8602 70.6338 19.1597C71.1437 19.4687 71.8185 19.6149 72.6745 19.6149V19.6149ZM72.3888 7.435C73.5035 7.435 74.4463 7.57177 75.2075 7.84646C75.9676 8.12115 76.5821 8.50686 77.0314 8.99625C77.4808 9.48563 77.801 10.1555 77.9908 10.8593C78.1901 11.5634 78.2849 12.3357 78.2849 13.186V21.8211C77.7666 21.9322 76.9792 22.0606 75.9251 22.2163C74.8707 22.3707 73.6859 22.4473 72.3708 22.4473C71.4979 22.4473 70.6939 22.3613 69.9768 22.1986C69.2497 22.0358 68.6367 21.7694 68.1172 21.4002C67.6073 21.0311 67.2101 20.5582 66.9158 19.9758C66.6301 19.3921 66.4831 18.5678 66.4831 17.7093C66.4831 16.885 66.6479 16.3616 66.9681 15.7943C67.2913 15.2328 67.7446 14.7562 68.2904 14.4041C68.8526 14.0443 69.4918 13.7862 70.2269 13.6317C70.9623 13.4772 71.7318 13.4005 72.5275 13.4005C72.8988 13.4005 73.2879 13.4264 73.7028 13.469C74.118 13.5115 74.5507 13.5892 75.0168 13.7011V13.1518C75.0168 12.7649 74.974 12.396 74.8792 12.0528C74.7884 11.7145 74.6227 11.4007 74.3942 11.1342C74.1605 10.8676 73.8593 10.6612 73.4788 10.5161C73.0978 10.3699 72.6131 10.2591 72.0342 10.2591C71.2563 10.2591 70.5471 10.3534 69.8984 10.4644C69.2497 10.5763 68.7137 10.7048 68.307 10.851L67.9013 8.0954C68.3248 7.94921 68.9557 7.80416 69.7692 7.65774C70.5815 7.51154 71.4544 7.435 72.3888 7.435V7.435ZM62.2376 5.83835C63.3699 5.83835 64.2962 4.92809 64.2962 3.80312C64.2962 2.67931 63.3794 1.76882 62.2376 1.76882C61.0968 1.76882 60.18 2.67931 60.18 3.80312C60.18 4.92809 61.1051 5.83835 62.2376 5.83835ZM63.9404 22.4473H60.5427V7.95725L63.9402 7.42557V22.4473H63.9404ZM57.9836 22.4473C52.4417 22.4733 52.4417 18.0005 52.4417 17.2884L52.4323 0.533058L55.8134 0V16.6528C55.8134 17.0572 55.8134 19.6149 57.9836 19.6232V22.4473V22.4473ZM46.9937 15.0314C46.9937 13.5798 46.6735 12.37 46.0512 11.5291C45.4287 10.6789 44.5558 10.2591 43.4399 10.2591C42.3252 10.2591 41.4509 10.6789 40.8295 11.5291C40.2067 12.3783 39.9034 13.5798 39.9034 15.0314C39.9034 16.4995 40.2153 17.4852 40.8381 18.3355C41.4606 19.194 42.3335 19.6149 43.4494 19.6149C44.5641 19.6149 45.4382 19.1857 46.0607 18.3355C46.683 17.4771 46.9937 16.4995 46.9937 15.0314ZM50.4518 15.0231C50.4518 16.1563 50.2881 17.0135 49.9504 17.95C49.6136 18.8851 49.1381 19.6834 48.525 20.3449C47.9108 21.0051 47.1754 21.5205 46.3106 21.8814C45.4465 22.2411 44.1145 22.4473 43.4492 22.4473C42.7827 22.439 41.4604 22.2505 40.6041 21.8814C39.7479 21.5122 39.0127 21.0051 38.3994 20.3449C37.7852 19.6834 37.3099 18.8851 36.9636 17.95C36.6183 17.0135 36.4454 16.1563 36.4454 15.0231C36.4454 13.8899 36.6005 12.7991 36.9468 11.8723C37.2931 10.9455 37.7769 10.1555 38.3994 9.49505C39.0222 8.8335 39.7657 8.32642 40.6124 7.96668C41.4687 7.60602 42.4114 7.435 43.4313 7.435C44.4524 7.435 45.394 7.6143 46.2586 7.96668C47.1243 8.32642 47.868 8.8335 48.4727 9.49505C49.0856 10.1555 49.5616 10.9455 49.9079 11.8723C50.2706 12.7991 50.452 13.8899 50.452 15.0231H50.4518V15.0231ZM25.0063 15.0231C25.0063 16.4299 25.317 17.9923 25.9395 18.6444C26.5621 19.2977 27.3659 19.6232 28.3527 19.6232C28.8888 19.6232 29.3988 19.5466 29.8741 19.4004C30.3496 19.254 30.7294 19.0818 31.0329 18.8768V10.5421C30.7911 10.4904 29.7793 10.284 28.8012 10.2591C27.5737 10.2237 26.6404 10.7225 25.9834 11.5197C25.3345 12.3192 25.0063 13.7177 25.0063 15.0231V15.0231ZM34.4046 21.649C34.4046 23.9414 33.8162 25.6146 32.6312 26.6796C31.4479 27.7432 29.6406 28.2762 27.2022 28.2762C26.3117 28.2762 24.4616 28.104 22.9828 27.7786L23.5273 25.1172C24.764 25.3742 26.3982 25.4438 27.2544 25.4438C28.6112 25.4438 29.58 25.1689 30.1586 24.6195C30.7386 24.0699 31.0232 23.255 31.0232 22.1726V21.623C30.6864 21.7857 30.2453 21.9496 29.7009 22.1218C29.1567 22.2845 28.5256 22.3707 27.8155 22.3707C26.882 22.3707 26.0341 22.2245 25.2657 21.9322C24.4961 21.6407 23.8296 21.2115 23.2852 20.6444C22.7408 20.0783 22.3081 19.3662 22.0057 18.5159C21.7033 17.6656 21.5468 16.1469 21.5468 15.0314C21.5468 13.9843 21.7116 12.6706 22.032 11.7944C22.3603 10.9195 22.8266 10.1637 23.4584 9.53758C24.0811 8.91143 24.8424 8.43032 25.7329 8.0777C26.6236 7.72624 27.6682 7.50327 28.801 7.50327C29.9002 7.50327 30.9118 7.64004 31.8973 7.80416C32.8828 7.96668 33.7212 8.1377 34.4043 8.32642V21.649H34.4046V21.649Z" fill="var(--fill-0, #5468FF)"/>
</svg>
