<svg preserveAspectRatio="none" width="100%" height="100%" overflow="visible" style="display: block;" viewBox="0 0 157.818 25.104" fill="none" xmlns="http://www.w3.org/2000/svg">
<path id="Vector" fill-rule="evenodd" clip-rule="evenodd" d="M8.68631 4.48102V21.2414C8.68631 21.765 8.71915 21.8631 9.21169 21.8955L11.9025 22.1249V24.7108H0.384139V22.1253L3.20581 21.8959C3.66551 21.8631 3.73119 21.7322 3.73119 21.2414V9.93904C3.73119 9.46988 3.37674 9.5477 0.909969 10.3794L0 7.69538L5.63749 4.48102H8.68631ZM19.5628 4.58223H21.4996C23.8288 4.58223 25.7652 5.1382 25.7652 8.28058C25.7652 11.9789 23.37 12.4697 21.2041 12.4697H19.5628V4.58223ZM21.9584 15.9715H19.5628V21.2086C19.5628 21.7326 19.596 21.7979 20.0886 21.8631L24.781 22.1249V24.7104H11.9169V22.1249L13.9842 21.8955C14.443 21.8307 14.5096 21.7326 14.5096 21.2414V4.51701C14.5096 4.02626 14.4434 3.89492 13.9842 3.86208L11.9169 3.63313V1.01477H23.0416C29.1132 1.01477 30.9502 4.22238 30.9502 7.98595C30.9502 13.6806 27.5051 15.9719 21.9584 15.9719V15.9715ZM40.34 20.3909C39.5857 20.9468 38.4697 21.5694 37.3537 21.5694C36.271 21.5694 35.4834 21.0782 35.4834 19.7688C35.4834 18.4598 36.1725 17.9686 38.108 17.8382L40.34 17.6744V20.3913V20.3909ZM55.4258 14.1398C58.018 14.7286 60.9391 15.6453 60.9391 19.4746C60.9391 23.4671 57.6906 25.104 53.5226 25.104C50.8238 25.104 48.1852 24.4634 47.2648 24.0496V24.7108H41.2261L40.8978 22.9435L40.7336 22.9112C39.4867 24.122 37.8458 25.104 35.2202 25.104C31.086 25.104 30.4289 22.2895 30.4289 20.2595C30.4289 16.9871 32.4642 15.4816 36.5661 15.2198L40.34 14.958V13.1579C40.34 11.6195 40.1763 10.5724 38.1409 10.5724C36.5665 10.5724 35.7456 10.8013 35.7456 12.7652L31.118 12.3721C31.118 7.95402 35.155 7.33148 38.1742 7.33148C43.1626 7.33148 45.1642 8.67417 45.1642 13.2559V21.2091C45.1642 21.7326 45.1971 21.7983 45.6892 21.8635L47.0246 22.0853V19.1795L50.5359 19.4418L50.8642 21.3071C50.8966 21.6017 50.9632 21.7326 51.2583 21.7979C51.6519 21.9292 52.538 22.1253 53.7853 22.1253C55.5243 22.1253 56.5085 21.635 56.5085 20.4237C56.5085 19.1147 55.1959 18.7216 53.5226 18.427C50.7662 17.9362 47.156 17.3474 47.156 13.0598C47.156 9.00118 50.6344 7.33148 54.4083 7.33148C57.0006 7.33148 59.5276 7.92118 60.447 8.28058V13.0265L56.9353 12.798L56.607 11.0955C56.5746 10.8337 56.5085 10.7033 56.2795 10.6376C55.8526 10.5071 55.065 10.3758 54.1789 10.3758C52.538 10.3758 51.619 10.9974 51.619 12.0446C51.619 13.3868 53.4241 13.681 55.4258 14.1398V14.1398ZM150.796 19.8344C149.91 20.5874 148.696 21.2419 147.58 21.2419C145.512 21.2419 144.594 19.4741 144.594 16.2998C144.594 13.3868 145.545 11.1283 147.974 11.1283C148.925 11.1283 149.976 11.5539 150.796 12.1107V19.8344ZM156.243 21.8964L157.818 22.1258V24.7113H151.714L151.387 22.8783L151.157 22.845C149.779 24.1873 148.171 25.1035 145.775 25.1035C141.903 25.1035 139.409 22.6489 139.409 16.3979C139.409 9.81939 142.722 7.33193 146.366 7.33193C148.269 7.33193 149.745 7.9864 150.993 8.90312V3.92775C150.993 3.60029 150.861 3.37134 150.566 3.27328L148.761 2.65119L149.122 0H155.718V21.2738C155.718 21.765 155.751 21.8307 156.243 21.8959V21.8964ZM100.981 10.5391C100.522 10.6043 100.325 10.7685 100.194 11.1936L96.1576 24.7104H90.9717L88.4123 13.7471H88.2157L85.623 24.7108H79.7156L75.5805 11.1616C75.45 10.7685 75.285 10.7028 74.8914 10.6048L74.572 10.5368V13.0265L71.0608 12.798L70.7324 11.0955C70.7 10.8337 70.6339 10.7033 70.4049 10.6376C69.9776 10.5071 69.1905 10.3758 68.3043 10.3758C66.6634 10.3758 65.744 10.9974 65.744 12.0446C65.744 13.3868 67.5495 13.6819 69.5512 14.1398C72.1435 14.7286 75.0645 15.6453 75.0645 19.4746C75.0645 23.4676 71.816 25.104 67.6476 25.104C64.6613 25.104 61.7407 24.3182 61.1496 23.9255V19.18L64.6613 19.4418L64.9897 21.3071C65.0221 21.6017 65.0886 21.7326 65.3837 21.7979C65.7773 21.9292 66.6634 22.1253 67.9107 22.1253C69.6493 22.1253 70.6339 21.635 70.6339 20.4237C70.6339 19.1147 69.3214 18.7216 67.6476 18.427C64.8912 17.9362 61.2814 17.3474 61.2814 13.0598C61.2814 9.00118 64.7598 7.33148 68.5337 7.33148C70.6771 7.33148 72.7737 7.73451 73.9558 8.07772L74.0385 7.65939H82.3412V10.3758L80.5032 10.5724L83.1288 19.7688H83.3586L86.2788 8.08446H91.2348L94.0574 19.7688H94.254L96.7153 10.5724L94.8446 10.3758L95.2705 7.65939H102.163V8.62424C101.753 9.22587 101.393 9.85962 101.085 10.5193L100.981 10.5395V10.5391ZM134.915 11.3573C134.062 11.3573 133.045 12.077 132.552 12.503V21.1758C132.552 21.6994 132.586 21.7974 133.078 21.8307L136.326 22.092V24.7108H125.595V22.0597L127.072 21.8631C127.531 21.7974 127.597 21.6994 127.597 21.2086V11.6186C127.597 11.2588 127.498 11.0298 127.171 10.9318L125.592 10.3785C125.541 10.2714 125.485 10.168 125.432 10.0636L125.76 7.65894H131.535L131.929 10.2768H132.126C133.209 8.60804 134.653 7.33148 136.753 7.33148C137.507 7.33148 139.017 7.46237 139.608 7.6261V13.583L135.67 13.4521L135.342 11.7171C135.276 11.4225 135.178 11.3573 134.915 11.3573V11.3573Z" fill="var(--fill-0, #4E5F89)"/>
</svg>
