<svg preserveAspectRatio="none" width="100%" height="100%" overflow="visible" style="display: block;" viewBox="0 0 77.6303 20.2105" fill="none" xmlns="http://www.w3.org/2000/svg">
<g id="Vector">
<path d="M11.0167 17.9872L11.8999 17.8973L11.9615 19.6945C9.99621 19.9913 8.01304 20.1542 6.02567 20.1823C3.83483 20.1823 2.28242 19.5481 1.36843 18.2798C0.454434 17.0116 -0.0017068 15.0381 4.79886e-06 12.3594C4.79886e-06 7.02439 2.12067 4.35601 6.362 4.3543C8.41592 4.3543 9.9478 4.92769 10.9576 6.07445C11.9675 7.22122 12.4741 9.0184 12.4775 11.466L12.3569 13.2015H2.31323C2.31323 14.8857 2.61789 16.1335 3.22722 16.9448C3.83655 17.7561 4.89602 18.1617 6.40565 18.1617C7.9187 18.1669 9.45571 18.1087 11.0167 17.9872ZM10.1951 11.3838C10.1951 9.51647 9.89645 8.19769 9.2991 7.42747C8.70175 6.65725 7.72786 6.27129 6.37741 6.26958C5.02696 6.26958 4.01199 6.67522 3.33248 7.48652C2.65298 8.29782 2.30296 9.59692 2.28242 11.3838H10.1951Z" fill="#1C1E23"/>
<path d="M15.6611 20.0616V0.035944H17.9435V20.0616H15.6611Z" fill="#1C1E23"/>
<path d="M32.3185 9.25288V16.9294C32.3185 17.6996 34.2132 17.6585 34.2132 17.6585L34.0977 19.6765C32.493 19.6765 31.1657 19.81 30.3698 19.0372C28.6463 19.8027 26.7794 20.1922 24.8936 20.1797C23.4952 20.1797 22.4297 19.7835 21.6972 18.991C20.9646 18.1985 20.5992 17.0595 20.6009 15.5738C20.6009 14.0916 20.9766 13.0004 21.728 12.3004C22.4794 11.6003 23.6561 11.1724 25.2581 11.0167L30.0361 10.5623V9.25288C30.0361 8.22592 29.8135 7.4848 29.3685 7.02951C29.1247 6.80062 28.837 6.62348 28.5228 6.50876C28.2087 6.39404 27.8745 6.34411 27.5406 6.36199H21.5431V4.35172H27.3891C29.1144 4.35172 30.3672 4.74795 31.1477 5.54042C31.9282 6.33289 32.3185 7.57038 32.3185 9.25288ZM22.9398 15.4608C22.9398 17.3282 23.71 18.2619 25.2504 18.2619C26.6401 18.2603 28.0195 18.0233 29.33 17.561L30.0283 17.3171V12.2952L25.5329 12.7214C24.6189 12.8036 23.959 13.0672 23.5534 13.5122C23.1477 13.9572 22.9432 14.6068 22.9398 15.4608Z" fill="#1C1E23"/>
<path d="M41.2297 6.3928C39.0166 6.3928 37.91 7.16302 37.91 8.70345C37.91 9.41548 38.1668 9.91783 38.6802 10.2105C39.1937 10.5032 40.3499 10.8079 42.1488 11.1245C43.9562 11.4412 45.2348 11.8827 45.9845 12.4493C46.7342 13.0158 47.1098 14.0804 47.1116 15.6431C47.1116 17.2075 46.6092 18.3543 45.6045 19.0834C44.5998 19.8126 43.1338 20.178 41.2066 20.1797C39.9485 20.1797 35.7483 19.7124 35.7483 19.7124L35.8715 17.7355C38.2849 17.9666 40.0281 18.1386 41.2066 18.1386C42.385 18.1386 43.281 17.9512 43.8998 17.5764C44.5185 17.2015 44.8266 16.5725 44.8266 15.6893C44.8266 14.8061 44.5698 14.2079 44.0358 13.8922C43.5018 13.5764 42.3516 13.2786 40.5673 12.9936C38.7829 12.7086 37.5121 12.2927 36.7624 11.7458C36.0127 11.199 35.6353 10.1823 35.6353 8.70089C35.6353 7.2195 36.1488 6.13349 37.204 5.41462C38.2592 4.69575 39.5532 4.34916 41.1141 4.34916C42.3516 4.34916 46.6469 4.66495 46.6469 4.66495V6.65468C44.3799 6.55455 42.5262 6.3928 41.2297 6.3928Z" fill="#1C1E23"/>
<path d="M58.113 6.63414H53.2734V13.9101C53.2734 15.6542 53.4001 16.8002 53.6534 17.3479C53.9101 17.8973 54.5109 18.1694 55.4634 18.1694L58.172 17.9872L58.3261 19.8742C57.3004 20.0638 56.262 20.1762 55.2195 20.2105C53.638 20.2105 52.5426 19.8246 51.9332 19.0526C51.3239 18.2807 51.0201 16.8096 51.0218 14.6393V6.63414H48.8703V4.65725H51.0321V0H53.2837V4.65725H58.113V6.63414Z" fill="#1C1E23"/>
<path d="M61.2862 2.71374V0.0641861H63.5687V2.71374H61.2862ZM61.2862 20.0616V4.65726H63.5687V20.0616H61.2862Z" fill="#1C1E23"/>
<path d="M73.4557 4.35173C74.5956 4.40038 75.731 4.52302 76.855 4.71887L77.5841 4.80873L77.4942 6.66495C76.3015 6.51383 75.1018 6.42299 73.8999 6.39281C72.1746 6.39281 71.003 6.80359 70.3851 7.62516C69.7672 8.44672 69.4574 9.96833 69.4557 12.19C69.4557 14.4151 69.745 15.9623 70.3235 16.8318C70.902 17.7013 72.1087 18.1378 73.9435 18.1412L77.5379 17.8691L77.6303 19.7561C76.2311 19.9931 74.8176 20.1355 73.3992 20.1823C71.027 20.1823 69.3889 19.573 68.4852 18.3543C67.5815 17.1356 67.1296 15.0817 67.1296 12.1926C67.1296 9.30167 67.6166 7.27257 68.5905 6.10526C69.5644 4.93795 71.1861 4.35344 73.4557 4.35173Z" fill="#1C1E23"/>
</g>
</svg>
