<svg preserveAspectRatio="none" width="100%" height="100%" overflow="visible" style="display: block;" viewBox="0 0 22.3256 25.9206" fill="none" xmlns="http://www.w3.org/2000/svg">
<path id="Vector" d="M19.4142 0C19.3819 0.206121 19.3451 0.416849 19.3036 0.633334C17.8792 7.94661 13.006 10.473 6.78204 10.473H3.61307C2.85192 10.473 2.21053 11.0258 2.09192 11.7765L0.469434 22.0665L0.00997975 24.9833C-0.0671718 25.4761 0.312828 25.9206 0.810283 25.9206H6.43083C7.0964 25.9206 7.6618 25.437 7.76659 24.7806L7.82186 24.495L8.8801 17.7794L8.94804 17.4109C9.05168 16.7522 9.61822 16.2686 10.2838 16.2686H11.1244C16.5699 16.2686 20.8328 14.0577 22.0788 7.65988C22.5993 4.98721 22.3298 2.75558 20.9526 1.18606C20.5357 0.712788 20.0187 0.320121 19.4142 0Z" fill="var(--fill-0, #179BD7)"/>
</svg>
