<svg preserveAspectRatio="none" width="100%" height="100%" overflow="visible" style="display: block;" viewBox="0 0 151.593 46" fill="none" xmlns="http://www.w3.org/2000/svg">
<g id="Vector">
<path d="M53.4695 29.5769V16.2623C53.4695 16.1013 53.5385 15.9633 53.6535 15.8484C53.7914 15.7334 53.9524 15.6644 54.1364 15.6874H57.8847C58.9885 15.6414 60.0923 16.0093 60.9432 16.7222C61.702 17.4121 62.093 18.4929 62.093 19.9646V20.1486C62.093 21.6203 61.702 22.7241 60.9202 23.414C60.0463 24.1269 58.9425 24.5178 57.8157 24.4488H55.1482V29.5769C55.1482 29.7608 55.0562 29.9218 54.8953 30.0138C54.5273 30.2208 54.0904 30.2208 53.7225 30.0138C53.5615 29.9218 53.4695 29.7608 53.4695 29.5769ZM55.1252 23.0691H57.8157C58.5286 23.115 59.2415 22.8621 59.7474 22.3562C60.2533 21.7813 60.5062 21.0224 60.4373 20.2406V20.0106C60.5062 19.2517 60.2533 18.4929 59.7474 17.895C59.2185 17.4121 58.5286 17.1591 57.8157 17.2051H55.1482L55.1252 23.0691Z" fill="#FF6C37"/>
<path d="M67.8879 25.9666V20.0107C67.8879 18.5159 68.2789 17.4351 69.0377 16.7452C70.8774 15.3655 73.4069 15.3655 75.2466 16.7452C76.0285 17.4351 76.4194 18.5389 76.4194 20.0107V25.9666C76.4194 27.4613 76.0285 28.5421 75.2466 29.232C73.4069 30.6347 70.8774 30.6347 69.0377 29.232C68.2789 28.5421 67.8879 27.4613 67.8879 25.9666ZM69.5666 25.9666C69.5666 27.8292 70.4175 28.7721 72.1652 28.7721C72.878 28.8181 73.5679 28.5651 74.0968 28.0822C74.6027 27.5073 74.8327 26.7484 74.7867 25.9666V19.9877C74.8557 19.2288 74.6027 18.4699 74.0968 17.872C73.5679 17.3891 72.878 17.1362 72.1652 17.1822C70.4405 17.1822 69.5896 18.102 69.5896 19.9877L69.5666 25.9666Z" fill="#FF6C37"/>
<path d="M82.3064 28.1281C82.3064 27.8982 82.3983 27.6912 82.5363 27.5073C82.6513 27.3463 82.8123 27.2313 83.0192 27.2083C83.2032 27.2313 83.3642 27.3233 83.4791 27.4613C83.6631 27.6222 83.8471 27.8062 84.054 28.0132C84.33 28.2661 84.6519 28.4501 84.9969 28.5651C85.4568 28.749 85.9627 28.818 86.4456 28.818C87.1815 28.864 87.8944 28.6341 88.4693 28.1971C88.9752 27.7372 89.2511 27.0473 89.2051 26.3575C89.2281 25.6906 88.9982 25.0697 88.5382 24.5868C88.0783 24.1269 87.5264 23.7819 86.9055 23.552C86.2616 23.322 85.6408 23.0691 84.9739 22.7931C84.33 22.5172 83.7781 22.1032 83.3412 21.5513C82.8813 20.9304 82.6283 20.1716 82.6743 19.3897C82.6513 18.7688 82.7893 18.1479 83.0652 17.573C83.2952 17.0901 83.6631 16.6992 84.123 16.4232C84.56 16.1703 85.0199 15.9863 85.5028 15.8484C86.0087 15.7334 86.5146 15.6644 87.0205 15.6644C87.8254 15.6644 88.6072 15.7794 89.3661 16.0093C90.102 16.2623 90.4929 16.5842 90.4929 16.9751C90.4929 17.1821 90.4239 17.3891 90.2859 17.573C90.1939 17.757 89.987 17.895 89.78 17.895C89.4811 17.803 89.1821 17.688 88.8832 17.55C88.3083 17.2971 87.6874 17.1591 87.0435 17.1821C86.3766 17.1591 85.6868 17.3201 85.1119 17.665C84.6059 18.01 84.33 18.6079 84.376 19.2287C84.353 19.8036 84.583 20.3555 85.0199 20.7235C85.5028 21.1144 86.0547 21.4363 86.6526 21.6203C87.2965 21.8503 87.9404 22.1032 88.5842 22.4022C89.2281 22.7241 89.78 23.207 90.1939 23.8049C90.6539 24.5408 90.8838 25.3916 90.8608 26.2655C90.8608 27.6222 90.4699 28.657 89.665 29.3469C88.7912 30.0828 87.6644 30.4507 86.5146 30.3817C85.4798 30.4047 84.445 30.1518 83.5481 29.6459C82.7203 29.094 82.3064 28.6111 82.3064 28.1281Z" fill="#FF6C37"/>
<path d="M95.8049 16.4231C95.8049 16.2391 95.8509 16.0552 95.9659 15.9172C96.0578 15.7562 96.2188 15.6872 96.4028 15.6872H104.451C104.635 15.6872 104.796 15.7562 104.888 15.9172C105.003 16.0552 105.049 16.2391 105.049 16.4231C105.049 16.6071 105.003 16.814 104.888 16.975C104.796 17.136 104.635 17.2049 104.451 17.2049H101.301V29.5767C101.301 29.7607 101.209 29.9217 101.048 30.0136C100.68 30.2206 100.243 30.2206 99.8752 30.0136C99.7142 29.9217 99.6222 29.7607 99.6222 29.5767V17.2049H96.4258C96.2418 17.2049 96.0808 17.136 95.9889 16.975C95.8739 16.814 95.8049 16.63 95.8049 16.4231Z" fill="#FF6C37"/>
<path d="M110.706 29.577V16.5383C110.637 16.1474 110.913 15.7794 111.304 15.7105C111.396 15.6875 111.488 15.6875 111.557 15.7105C112.086 15.7105 112.523 16.0554 112.891 16.7683L115.995 22.7242L119.123 16.7683C119.514 16.0784 119.951 15.7105 120.457 15.7105C120.847 15.6415 121.215 15.9174 121.284 16.3083C121.307 16.3773 121.307 16.4463 121.284 16.5153V29.554C121.284 29.7379 121.192 29.8989 121.031 29.9909C120.664 30.1978 120.227 30.1978 119.859 29.9909C119.698 29.8989 119.606 29.7379 119.606 29.554V19.1828L116.616 24.7938C116.524 25.0698 116.271 25.2767 115.972 25.2767C115.696 25.2537 115.443 25.0698 115.351 24.7938L112.362 19.0679V29.554C112.362 29.7379 112.27 29.8989 112.109 29.9909C111.948 30.1059 111.741 30.1749 111.557 30.1749C111.35 30.1749 111.143 30.1289 110.982 30.0139C110.798 29.9449 110.683 29.7609 110.706 29.577Z" fill="#FF6C37"/>
<path d="M126.964 29.4849C126.964 29.439 126.987 29.37 127.01 29.324L131.057 16.2853C131.172 15.8944 131.517 15.7104 132.069 15.7104C132.621 15.7104 132.966 15.8944 133.081 16.2853L137.151 29.393V29.5079C137.151 29.7149 137.013 29.8989 136.829 29.9909C136.622 30.1288 136.37 30.1978 136.094 30.1748C135.841 30.1978 135.588 30.0598 135.496 29.8069L134.622 26.9094H129.425L128.551 29.8069C128.482 30.0598 128.206 30.2208 127.953 30.1978C127.723 30.1978 127.493 30.1288 127.286 29.9909C127.079 29.8989 126.964 29.7149 126.964 29.4849ZM129.839 25.5297H134.277L132.069 18.125L129.839 25.5297Z" fill="#FF6C37"/>
<path d="M142.877 29.5767V16.2621C142.877 15.8712 143.153 15.6872 143.705 15.6872C143.958 15.6872 144.211 15.7792 144.418 15.9402C144.648 16.1701 144.855 16.4461 144.97 16.745L149.914 26.4033V16.2621C149.914 16.0781 150.006 15.9172 150.167 15.8482C150.535 15.6412 150.972 15.6412 151.34 15.8482C151.501 15.9402 151.593 16.1011 151.593 16.2621V29.5767C151.593 29.7607 151.501 29.9217 151.34 30.0136C151.156 30.1286 150.972 30.1746 150.765 30.1746C150.305 30.1516 149.891 29.8527 149.73 29.4157L144.533 19.4585V29.5767C144.533 29.7607 144.441 29.9217 144.303 30.0136C143.935 30.2206 143.498 30.2206 143.13 30.0136C142.969 29.9217 142.877 29.7607 142.877 29.5767Z" fill="#FF6C37"/>
<path d="M45.8119 25.9205C47.4216 13.3187 38.5222 1.79782 25.9435 0.188112C13.3647 -1.4216 1.79782 7.4778 0.188112 20.0565C-1.4216 32.6353 7.4778 44.1792 20.0565 45.8119C32.6583 47.4216 44.1792 38.5222 45.8119 25.9205Z" fill="#FF6C37"/>
</g>
</svg>
