<svg preserveAspectRatio="none" width="100%" height="100%" overflow="visible" style="display: block;" viewBox="0 0 143.791 23.03" fill="none" xmlns="http://www.w3.org/2000/svg">
<g id="Vector">
<path d="M143.733 11.6541V7.05999C142.834 7.09594 140.138 7.4626 138.945 8.89332V7.37633H133.912V22.6828H138.945V15.4502C139.664 12.0423 142.921 11.6829 143.747 11.6541H143.733ZM98.6546 11.8338C98.1146 11.3509 97.4973 10.962 96.8285 10.6835C96.2777 10.4151 95.6725 10.2773 95.0598 10.2809C94.606 10.2764 94.1567 10.3722 93.7442 10.5613C93.5562 10.6376 93.3969 10.7708 93.2885 10.9423C93.1802 11.1139 93.1284 11.315 93.1402 11.5175C93.1353 11.7228 93.1971 11.9243 93.3163 12.0915C93.4356 12.2587 93.6059 12.3828 93.8017 12.4449C94.5041 12.705 95.2251 12.9116 95.9585 13.0632C96.5559 13.1927 97.1424 13.3682 97.7128 13.5881C98.2864 13.8068 98.8243 14.1097 99.3089 14.4868C99.7816 14.8587 100.173 15.3236 100.459 15.8528C100.76 16.4443 100.909 17.1017 100.891 17.7652C100.922 18.5755 100.739 19.3797 100.361 20.0967C99.9819 20.8137 99.4207 21.4181 98.7337 21.8489C98.0748 22.276 97.3441 22.5804 96.5768 22.7475C95.8044 22.9329 95.013 23.027 94.2187 23.0279C92.9599 23.028 91.7095 22.8241 90.5161 22.424C89.3829 22.0716 88.3469 21.4613 87.4893 20.641L89.9768 17.5279C90.5831 18.0818 91.272 18.5378 92.0187 18.8796C92.6721 19.2083 93.3938 19.3782 94.1252 19.3757C94.552 19.3713 94.9723 19.2705 95.3546 19.0809C95.5489 18.9906 95.7109 18.843 95.8189 18.6579C95.9268 18.4728 95.9756 18.2592 95.9585 18.0456C95.9611 17.8179 95.8935 17.595 95.7649 17.4072C95.6362 17.2193 95.4528 17.0757 95.2396 16.9959C94.4898 16.6839 93.7123 16.4432 92.9174 16.277C92.3677 16.1479 91.8272 15.9822 91.2997 15.7809C90.7801 15.5791 90.295 15.2977 89.8618 14.9469C89.448 14.5938 89.1062 14.1642 88.8553 13.6815C88.5746 13.1044 88.4366 12.4683 88.4527 11.8266C88.4291 10.9968 88.633 10.1764 89.0422 9.4541C89.4273 8.80406 89.9561 8.25073 90.588 7.83646C91.2156 7.41591 91.9113 7.107 92.6442 6.92339C93.3812 6.73044 94.1397 6.63139 94.9017 6.62862C96.0542 6.62744 97.1997 6.80945 98.2951 7.16783C99.3409 7.4946 100.301 8.04957 101.106 8.79267L98.6546 11.8338ZM128.11 13.0417C128.104 12.3371 127.849 11.6573 127.391 11.1221C127.095 10.8195 126.736 10.586 126.34 10.4381C125.944 10.2902 125.519 10.2316 125.098 10.2665C124.639 10.2627 124.184 10.3406 123.753 10.4966C123.362 10.6397 122.999 10.8515 122.682 11.1221C122.387 11.3864 122.143 11.7033 121.963 12.0567C121.803 12.3634 121.703 12.6977 121.668 13.0417H128.11ZM132.747 15.1195V15.7306C132.759 15.9245 132.759 16.119 132.747 16.3129H121.647C121.679 16.7237 121.81 17.1208 122.028 17.4704C122.244 17.8214 122.525 18.1287 122.855 18.3763C123.199 18.634 123.583 18.8355 123.991 18.973C124.409 19.1168 124.849 19.1897 125.292 19.1887C125.994 19.2092 126.69 19.0561 127.319 18.743C127.849 18.466 128.308 18.0727 128.664 17.5927L132.165 19.7998C131.435 20.8404 130.443 21.6689 129.289 22.2011C128.016 22.7744 126.631 23.0568 125.234 23.0279C124.126 23.0344 123.025 22.852 121.977 22.4887C120.989 22.1521 120.077 21.6217 119.296 20.9286C118.519 20.2274 117.904 19.3665 117.491 18.4051C117.032 17.3238 116.806 16.1575 116.83 14.9829C116.815 13.8227 117.032 12.6713 117.47 11.5966C117.873 10.6318 118.467 9.75862 119.217 9.02992C119.971 8.31766 120.857 7.76068 121.826 7.39071C122.871 6.99314 123.98 6.79559 125.098 6.80836C126.157 6.7984 127.209 6.99119 128.196 7.37633C129.114 7.73846 129.942 8.29809 130.619 9.01554C131.316 9.76546 131.854 10.6482 132.201 11.611C132.594 12.7332 132.786 13.916 132.769 15.1051L132.747 15.1195ZM72.118 11.5247V6.90182H67.8043V3.47241C67.6965 1.49529 66.7618 0.0214388 62.9442 0.0214388V17.8299C62.9407 18.5435 63.0326 19.2544 63.2174 19.9436C63.3804 20.5492 63.675 21.1114 64.0801 21.59C64.514 22.0669 65.0602 22.4277 65.669 22.6397C66.5195 22.9103 67.4081 23.0414 68.3004 23.0279C69.6003 23.0438 70.8928 22.8296 72.118 22.3953V18.2972C71.3002 18.5069 70.4603 18.6179 69.6161 18.6279C69.3532 18.6605 69.0864 18.6313 68.8368 18.5427C68.5872 18.4541 68.3617 18.3085 68.1782 18.1175C67.8907 17.6507 67.762 17.1034 67.8115 16.5574V11.5247H72.118Z" fill="#008FB4"/>
<path d="M112.487 14.5157L118.167 7.32613H112.157L107.124 13.6817V3.61633C107.031 1.54575 106.132 0.0215686 102.257 0.0215686V22.683H107.124V15.364L112.876 22.683H118.951L112.487 14.5157ZM86.6338 22.6686V12.5314C86.6338 8.16731 83.1685 6.59999 80.0986 6.59999C77.6813 6.47936 75.3034 7.24645 73.4123 8.75685L75.9502 11.9059C76.9721 11.0083 78.2491 10.4527 79.6025 10.317C81.4502 10.317 81.8312 11.3738 81.8312 12.7255V12.9843H80.1704C75.8999 12.9843 73.3332 14.832 73.3332 18.1248C73.3332 21.7196 76.4966 22.6542 80.3502 22.6542L86.6338 22.6686ZM81.8312 19.4836H80.2352C78.9914 19.4836 78.2293 18.966 78.2293 17.8947C78.2293 16.8235 78.9914 16.2052 80.5155 16.2052H81.8312V19.4836ZM45.215 2.80392C45.215 3.54756 45.5104 4.26075 46.0362 4.78659C46.562 5.31242 47.2752 5.60783 48.0189 5.60783C48.7625 5.60783 49.4757 5.31242 50.0015 4.78659C50.5274 4.26075 50.8228 3.54756 50.8228 2.80392C50.8228 2.06027 50.5274 1.34708 50.0015 0.821248C49.4757 0.295412 48.7625 0 48.0189 0C47.2752 0 46.562 0.295412 46.0362 0.821248C45.5104 1.34708 45.215 2.06027 45.215 2.80392ZM45.6895 6.9379H45.481V22.683H50.5496V10.2523C50.4058 8.33986 49.428 6.9379 45.6895 6.9379ZM61.83 11.6542V7.06012C60.9385 7.09607 58.2352 7.46273 57.0417 8.89345V7.37646H52.0091V22.683H57.0417V15.5725C57.0383 15.5319 57.0383 15.491 57.0417 15.4503C57.7607 12.0425 61.0104 11.683 61.8443 11.6542H61.83ZM142.274 20.3751H141.993V20.9072H142.274C142.31 20.9091 142.346 20.9037 142.38 20.8912C142.414 20.8787 142.445 20.8594 142.471 20.8345C142.497 20.8096 142.518 20.7796 142.532 20.7464C142.547 20.7131 142.554 20.6773 142.554 20.6411C142.554 20.605 142.547 20.5692 142.532 20.5359C142.518 20.5027 142.497 20.4727 142.471 20.4478C142.445 20.4229 142.414 20.4036 142.38 20.3911C142.346 20.3786 142.31 20.3732 142.274 20.3751ZM142.554 21.849L142.209 21.13H141.993V21.849H141.677V20.1019H142.353C142.424 20.1 142.496 20.1125 142.562 20.1389C142.629 20.1652 142.69 20.2047 142.741 20.2551C142.792 20.3054 142.832 20.3656 142.859 20.4319C142.887 20.4983 142.9 20.5694 142.899 20.6411C142.9 20.7458 142.868 20.848 142.807 20.9332C142.746 21.0184 142.66 21.0823 142.561 21.1157L142.942 21.8346L142.554 21.849ZM142.223 19.6921C141.961 19.6792 141.7 19.7452 141.476 19.8817C141.251 20.0182 141.072 20.2189 140.963 20.4579C140.853 20.6968 140.818 20.9632 140.861 21.2225C140.904 21.4818 141.024 21.7223 141.205 21.9128C141.386 22.1033 141.62 22.2352 141.877 22.2915C142.134 22.3477 142.402 22.3257 142.646 22.2283C142.89 22.1309 143.1 21.9626 143.247 21.745C143.395 21.5275 143.474 21.2707 143.474 21.0078C143.479 20.8391 143.45 20.6712 143.39 20.5136C143.33 20.3561 143.239 20.212 143.122 20.0897C143.006 19.9675 142.867 19.8694 142.713 19.8011C142.558 19.7329 142.392 19.6958 142.223 19.6921ZM142.223 22.6255C141.903 22.6354 141.586 22.5497 141.314 22.3794C141.043 22.2091 140.827 21.9618 140.696 21.6689C140.566 21.376 140.525 21.0508 140.579 20.7347C140.633 20.4185 140.78 20.1256 141.002 19.8932C141.223 19.6609 141.508 19.4995 141.821 19.4297C142.134 19.3599 142.461 19.3848 142.76 19.5012C143.059 19.6175 143.317 19.8202 143.5 20.0834C143.684 20.3465 143.785 20.6583 143.791 20.9791C143.796 21.4011 143.635 21.8083 143.341 22.1115C143.047 22.4147 142.645 22.5891 142.223 22.5967V22.6255ZM31.332 13.8039L33.5823 7.33332L35.8326 13.8039H31.332ZM35.9477 0.0215686H31.4254L24.4444 18.4699H21.698C19.8256 18.5492 17.9703 18.0848 16.3562 17.1327C15.7128 16.7198 15.1907 16.1435 14.8433 15.4626C14.4959 14.7817 14.3357 14.0207 14.3791 13.2575V11.1006H12.1503C10.0772 11.0438 8.09193 10.2512 6.54966 8.86469C5.34474 7.60091 4.58714 5.97711 4.3928 4.24182H20.0157C22.8555 4.24182 23.9052 5.6294 24.5594 6.87319C24.8809 7.49703 25.1224 8.15889 25.2784 8.84312L27.2555 3.61633C27.2555 3.61633 25.6019 0.0215686 20.0157 0.0215686H0V2.17843C0 6.2477 1.20784 9.51175 3.59477 11.8555C5.46844 13.6287 7.8388 14.7875 10.3889 15.1771C11.2876 19.7928 15.5294 22.6686 21.698 22.6686H28.1111L29.549 18.513H37.5797L39.0176 22.6614H44.5032L35.9477 0.0215686Z" fill="#008FB4"/>
</g>
</svg>
