<svg preserveAspectRatio="none" width="100%" height="100%" overflow="visible" style="display: block;" viewBox="0 0 23.3988 23.301" fill="none" xmlns="http://www.w3.org/2000/svg">
<path id="Vector" d="M19.2868 0C19.4921 0.173503 19.7615 0.15669 19.999 0.233604C21.9666 0.873953 23.355 2.68375 23.365 4.7529C23.3875 9.3416 23.4344 13.9317 23.3521 18.5193C23.3006 21.4049 21.0948 23.229 18.6021 23.2705C16.1535 23.3112 13.704 23.3112 11.2538 23.2705C5.8963 23.1767 1.06935 18.9776 0.18824 13.6974C0.0605436 12.9328 -0.00240338 12.1588 7.0147e-05 11.3836C0.00650942 9.31512 0.00257418 7.24704 0.00328965 5.17861C0.00328965 2.54101 1.34302 0.794537 3.89798 0.100526C3.97239 0.0801353 4.06289 0.100525 4.09438 0.000358087L19.2868 0ZM12.8239 16.4638V16.4906H15.0633C15.2093 16.4906 15.3556 16.4938 15.5015 16.4906C16.1294 16.4731 16.5554 16.0817 16.5569 15.5247C16.5583 14.9677 16.1326 14.5588 15.5062 14.5553C14.0134 14.547 12.5202 14.5553 11.027 14.5528C9.53985 14.5528 8.77036 13.7933 8.76893 12.3258C8.76893 10.8713 8.77072 9.41637 8.76893 7.96145C8.76893 7.24597 8.40511 6.80774 7.81627 6.79486C7.19918 6.78163 6.82463 7.21127 6.82319 7.94928C6.81998 9.4042 6.82319 10.8591 6.82319 12.3137C6.82319 13.022 6.88795 13.7124 7.21063 14.3653C7.76619 15.489 8.90201 16.3915 10.1974 16.4574C11.0699 16.4996 11.9478 16.4638 12.8239 16.4638ZM13.6234 6.7895C12.9741 6.7895 12.3248 6.77734 11.6759 6.79308C11.0781 6.80775 10.7243 7.18337 10.7193 7.76791C10.7147 8.336 11.0817 8.71735 11.6909 8.72379C12.9731 8.73667 14.2551 8.73667 15.537 8.72379C16.1197 8.71842 16.549 8.29808 16.5583 7.77292C16.568 7.21413 16.1419 6.79952 15.5209 6.78878C14.8891 6.78091 14.2563 6.7895 13.6234 6.7895ZM13.1323 10.6706C12.6783 10.6706 12.224 10.6649 11.7703 10.6706C11.154 10.6799 10.7329 11.0641 10.72 11.6168C10.7072 12.1695 11.1329 12.5977 11.7496 12.6052C12.6897 12.6169 13.63 12.6169 14.5704 12.6052C15.1631 12.597 15.5777 12.1895 15.5835 11.6494C15.5895 11.0913 15.1638 10.6835 14.5425 10.671C14.0727 10.6624 13.6023 10.6706 13.1323 10.6706Z" fill="var(--fill-0, #453AFE)"/>
</svg>
