<svg preserveAspectRatio="none" width="100%" height="100%" overflow="visible" style="display: block;" viewBox="0 0 39.7527 43" fill="none" xmlns="http://www.w3.org/2000/svg">
<path id="Vector" d="M38.7687 18.3903H27.106C26.4377 18.3903 25.9364 19.0754 26.1703 19.7103L28.9774 26.9786C29.1111 27.2961 28.8437 27.6469 28.5095 27.6302L24.9005 27.3963C24.7501 27.3796 24.583 27.4631 24.4828 27.5968L21.6924 31.5568C21.542 31.774 21.2413 31.8575 21.0074 31.7072L16.897 28.9001C16.7466 28.7831 16.5127 28.7831 16.3624 28.9001L10.648 32.7765C10.2804 33.0271 9.79585 32.6763 9.91281 32.2585L11.5001 26.5609C11.567 26.327 11.45 26.0763 11.2161 25.9928L8.19181 24.7563C7.89106 24.6227 7.79081 24.2718 8.00802 24.0045L10.6981 20.6961C10.8318 20.5291 10.8485 20.2951 10.7148 20.128L8.42574 16.8699C8.22523 16.5691 8.40903 16.1514 8.79333 16.118L12.2854 15.8506C12.5361 15.8339 12.7533 15.6167 12.7366 15.3494L12.4692 10.4537C12.4525 10.1029 12.8034 9.85222 13.1376 9.98589L17.4651 11.7737C17.6489 11.8573 17.8828 11.8071 17.9998 11.64L20.9906 8.31502C21.2246 8.04769 21.659 8.13123 21.7927 8.44869L23.5805 13.0603C23.8144 13.6284 24.5329 13.8456 25.0341 13.4613L32.0518 8.23148C32.8538 7.64668 32.3358 6.37682 31.35 6.51049L26.7384 7.12871C26.5212 7.16213 26.304 7.02846 26.2372 6.82795L23.8144 0.595622C23.5471 -0.0560157 22.6949 -0.206394 22.2271 0.311575L16.9472 6.04265C16.7968 6.19302 16.5963 6.22644 16.4125 6.15961L9.44496 3.21888C8.82674 2.96825 8.14169 3.38597 8.10827 4.07102L7.85764 11.239C7.84093 11.4897 7.65714 11.6902 7.40651 11.7069L1.05722 12.1246C0.305326 12.1747 -0.0789731 13.0102 0.322035 13.6117L4.54933 19.8273C4.683 19.9944 4.66629 20.245 4.51591 20.4121L0.238492 25.3411C-0.195934 25.8257 -0.0121384 26.5943 0.589373 26.8449L5.51843 28.9669C5.73564 29.0672 5.8526 29.3011 5.78577 29.5183L2.64454 41.7992C2.42733 42.668 3.41314 43.3364 4.13161 42.8184L15.9446 34.3471C16.095 34.2302 16.3289 34.2135 16.496 34.3471L21.8762 38.1233C22.3273 38.4407 22.9289 38.3071 23.2296 37.8726L26.5881 32.7097C26.6883 32.5593 26.8721 32.4757 27.0559 32.5092L35.1095 33.4783C35.7611 33.5785 36.4127 33.0271 36.1788 32.4256L32.8371 23.7538C32.7368 23.5199 32.8371 23.2693 33.1211 23.1189L39.2365 20.2283C40.1221 19.7772 39.8046 18.3903 38.7687 18.3903Z" fill="var(--fill-0, #8039E9)"/>
</svg>
