<svg preserveAspectRatio="none" width="100%" height="100%" overflow="visible" style="display: block;" viewBox="0 0 41.7312 24.4923" fill="none" xmlns="http://www.w3.org/2000/svg">
<path id="Vector" d="M37.2543 23.1748C37.5876 22.0319 37.4606 20.9843 36.9051 20.2065C36.3971 19.4922 35.54 19.0795 34.5082 19.0319L14.9684 18.7779C14.8414 18.7779 14.7303 18.7144 14.6668 18.6192C14.6033 18.524 14.5874 18.397 14.6192 18.27C14.6827 18.0795 14.8731 17.9367 15.0795 17.9208L34.7939 17.6668C37.1273 17.5557 39.667 15.6668 40.5559 13.3493L41.6829 10.4128C41.7305 10.2858 41.7464 10.1588 41.7146 10.0318C40.4448 4.28575 35.3178 0 29.1907 0C23.5399 0 18.7462 3.65083 17.0319 8.71436C15.9208 7.88896 14.5081 7.44451 12.9842 7.58737C10.2699 7.85721 8.09531 10.0318 7.82546 12.7461C7.76197 13.4446 7.80959 14.1271 7.96832 14.762C3.53971 14.889 0 18.5081 0 22.9685C0 23.3653 0.0317463 23.7621 0.0793658 24.1589C0.111112 24.3494 0.269843 24.4923 0.46032 24.4923H36.5241C36.7305 24.4923 36.9209 24.3494 36.9844 24.1431L37.2543 23.1748Z" fill="var(--fill-0, #F38020)"/>
</svg>
