<svg preserveAspectRatio="none" width="100%" height="100%" overflow="visible" style="display: block;" viewBox="0 0 9.9052 17.4159" fill="none" xmlns="http://www.w3.org/2000/svg">
<path id="Vector" d="M5.56354 1.91579C5.56354 2.41662 5.58429 2.91746 5.55675 3.41829C5.53814 3.75206 5.66836 3.82575 5.97601 3.8211C6.98161 3.80572 7.98828 3.83005 8.99388 3.80787C9.34482 3.8 9.43533 3.91876 9.42137 4.24931C9.39705 4.82992 9.39919 5.41339 9.42137 5.99436C9.43282 6.297 9.32944 6.37929 9.03359 6.37464C8.01154 6.3589 6.98913 6.37464 5.96671 6.36498C5.69698 6.36176 5.55495 6.40074 5.55781 6.72593C5.57641 8.79472 5.55281 10.8639 5.5893 12.932C5.60969 14.0942 6.33053 14.7206 7.50248 14.711C7.94157 14.7115 8.37614 14.6224 8.7796 14.4491C9.0733 14.3211 9.17776 14.4155 9.26362 14.6827C9.45107 15.2666 9.65248 15.8461 9.86211 16.4224C9.94904 16.6614 9.91613 16.7959 9.65498 16.8957C8.26946 17.4255 6.85497 17.589 5.41114 17.2062C3.73193 16.7612 2.63868 15.3166 2.58072 13.3462C2.51776 11.2145 2.53636 9.07985 2.55389 6.94666C2.55783 6.4816 2.43727 6.32312 1.96398 6.36032C1.43167 6.40253 0.893279 6.3571 0.358462 6.3757C0.0797842 6.38536 -0.00678824 6.28877 0.000724249 6.01796C0.0175379 5.40409 0.022904 4.78914 0.000724249 4.17562C-0.0114388 3.85365 0.129869 3.80357 0.404253 3.81108C0.98808 3.82647 1.57298 3.80393 2.15717 3.8211C2.45981 3.82969 2.55318 3.71021 2.55068 3.42187C2.53923 2.51715 2.56141 1.61136 2.53959 0.706639C2.53172 0.369292 2.64869 0.265191 2.97638 0.24158C3.70366 0.191855 4.43309 0.129971 5.15214 0.0144222C5.54279 -0.0481819 5.58465 0.0945515 5.57248 0.412938C5.54887 0.913055 5.56175 1.4146 5.56354 1.91579Z" fill="var(--fill-0, #453AFE)"/>
</svg>
