<svg preserveAspectRatio="none" width="100%" height="100%" overflow="visible" style="display: block;" viewBox="0 0 144.41 21.9985" fill="none" xmlns="http://www.w3.org/2000/svg">
<g id="Vector">
<path d="M10.8308 0.240684C16.7997 0.240684 21.6615 5.1025 21.6615 11.1196C21.6615 17.1367 16.7997 21.9985 10.8308 21.9985C4.86181 21.9985 0 17.1848 0 11.1196C0 5.05436 4.86181 0.240684 10.8308 0.240684ZM95.744 0V19.0622C95.744 20.5063 96.3216 20.8914 97.4288 21.1802L97.4769 21.4209H91.3636V19.0622C90.6415 20.7951 89.1493 21.8541 87.2238 21.8541C83.9505 21.8541 81.7844 18.8696 81.7844 14.441C81.7844 11.9379 82.5064 9.8199 83.8542 8.23139C85.1539 6.69101 86.935 5.87268 88.9086 5.87268C89.8713 5.87268 90.6896 6.06523 91.3636 6.49846V3.89908C91.3636 3.32144 91.2192 2.93634 90.9303 2.64752C90.5452 2.31056 89.9195 2.16615 88.9567 2.26243H88.9086V2.02174L95.744 0ZM118.946 5.92082V19.0622C118.946 20.5063 119.524 20.8914 120.631 21.1802V21.4209H114.517V19.014C113.795 20.7469 112.207 21.8541 110.426 21.8541C108.308 21.8541 106.96 20.8914 106.43 19.014L106.334 18.5326C106.238 18.0513 106.19 17.5699 106.19 17.0885V10.0606C106.19 8.52021 105.853 8.03884 104.505 7.94256H104.457V7.70188L110.57 5.92082V16.9923C110.57 18.6289 111.292 19.5435 112.64 19.5435C113.458 19.5435 114.132 19.1103 114.517 18.3882V10.0606C114.517 8.47207 114.229 7.9907 113.121 7.89443H113.073V7.65374L118.946 5.92082ZM74.8045 5.87268C76.4412 5.87268 78.0297 6.45033 79.0887 7.4612C80.2921 8.61648 80.9179 10.3013 80.966 12.5156V12.5637H71.7719C71.5794 15.7407 73.553 18.3401 76.1524 18.4364C78.0297 18.5808 79.6663 17.4255 80.5809 15.5482L80.8216 15.6444C80.2921 19.1584 78.2222 21.8059 74.612 21.8059C70.5204 21.8059 68.2098 18.3882 68.1135 14.1041V12.9969C68.3061 11.1196 68.8837 9.4348 69.8946 8.18325C70.5204 7.41306 71.2424 6.83542 72.1089 6.45033C72.8309 6.06523 73.8899 5.87268 74.7564 5.87268H74.8045ZM138.489 5.92082C141.089 5.92082 142.677 7.55747 142.677 10.3494V19.3028C142.677 20.3618 143.159 20.8914 144.362 21.1802H144.41V21.4209H138.249V10.4938C138.249 8.76089 137.623 7.89443 136.323 7.89443C135.264 7.89443 134.735 8.66462 134.446 9.33853C134.494 9.67549 134.542 10.0124 134.542 10.3494V19.4472C134.542 20.5544 134.879 20.9395 135.842 21.1802H135.89V21.4209H130.162V10.4938C130.162 8.76089 129.488 7.89443 128.236 7.89443C127.225 7.89443 126.696 8.61648 126.455 9.19412V19.4954C126.455 20.6025 126.792 20.9876 127.755 21.2283H127.803V21.469H122.075V10.0124C122.075 8.47207 121.69 7.9907 120.39 7.89443H120.342V7.65374L126.455 5.96896V8.52021C127.081 6.88356 128.525 5.92082 130.354 5.92082C132.424 5.92082 133.868 6.93169 134.35 8.76089C134.975 7.02797 136.564 5.92082 138.489 5.92082ZM50.688 0.962735L56.4163 14.3929L62.1446 0.962735H68.3061L68.2579 1.20342L68.188 1.21899C67.1265 1.46093 66.5731 1.85787 66.5731 3.17703V19.5435C66.6694 20.6025 67.2471 20.9395 68.2579 21.1802H68.3061V21.4209H60.4598V21.1802H60.5079C61.5188 20.9395 62.0964 20.6025 62.1927 19.5435V3.61026L54.6352 21.3727H54.202L46.8371 4.09162V19.1584C46.8371 20.5063 47.4147 20.8914 48.5219 21.132H48.57V21.3727H44.0451V21.132H44.0933C45.2004 20.8914 45.7781 20.5063 45.7781 19.1584V3.17703C45.7781 1.8292 45.2004 1.4441 44.0933 1.20342H44.0451V0.962735H50.688ZM103.205 5.92082V19.0622L103.206 19.151C103.23 20.5223 103.806 20.8974 104.89 21.1802L104.938 21.4209H98.8248V10.0606C98.8248 8.52021 98.4878 8.03884 97.14 7.94256H97.0919V7.70188L103.205 5.92082ZM28.16 0.866462C31.0963 0.866462 33.5513 5.48759 33.5513 11.1196C33.5513 16.7997 31.1445 21.3727 28.16 21.3727C25.1755 21.3727 22.7687 16.7997 22.7687 11.1196C22.7687 5.43945 25.1755 0.866462 28.16 0.866462ZM36.4395 1.92547C37.5467 1.92547 38.365 6.06523 38.365 11.1196C38.365 16.1739 37.4985 20.3137 36.4395 20.3137C35.3911 20.3137 34.5314 16.2563 34.5143 11.2709L34.5141 11.1196C34.5141 6.06523 35.3805 1.92547 36.4395 1.92547ZM89.6306 6.73915C87.7052 6.73915 86.5018 9.29039 86.5018 13.2376C86.5018 15.1149 86.8387 16.7516 87.4164 17.8587C87.9459 18.9177 88.716 19.4954 89.5825 19.4954C90.449 19.4954 91.0747 19.1103 91.3636 18.3882V7.79815C91.0266 7.12424 90.4008 6.73915 89.6306 6.73915ZM74.7564 6.78728C73.0235 6.78728 72.0126 8.85716 71.8682 11.7454V11.7935H77.1151C77.2114 9.53108 76.8263 8.03884 76.1042 7.31679C75.7191 6.97983 75.2859 6.78728 74.7564 6.78728ZM100.847 0.14441C102.242 0.14441 103.301 1.20342 103.301 2.59938C103.301 3.99535 102.242 5.05436 100.847 5.05436C99.4505 5.05436 98.3915 3.99535 98.3915 2.59938C98.3915 1.20342 99.4505 0.14441 100.847 0.14441Z" fill="black"/>
</g>
</svg>
