<svg preserveAspectRatio="none" width="100%" height="100%" overflow="visible" style="display: block;" viewBox="0 0 125.455 27.3838" fill="none" xmlns="http://www.w3.org/2000/svg">
<path id="Logo" d="M97.7316 19.4526C98.2746 19.4678 98.8151 19.3748 99.3218 19.1793C99.8286 18.9837 100.291 18.6894 100.683 18.3134L102.147 19.9049C101.18 20.8987 99.8399 21.6379 97.7565 21.6379C94.1847 21.6379 91.8777 19.27 91.8777 16.0623C91.8643 15.3274 91.9986 14.5973 92.2727 13.9153C92.5467 13.2332 92.9549 12.6132 93.473 12.0918C93.9911 11.5704 94.6086 11.1584 95.2889 10.8801C95.9692 10.6018 96.6985 10.463 97.4334 10.4717C100.98 10.4717 102.992 13.1713 102.815 16.9133H94.4295C94.7276 18.4662 95.8172 19.4601 97.7279 19.4601M100.283 15.1293C100.055 13.6757 99.1901 12.6073 97.4546 12.6073C95.8432 12.6073 94.7189 13.5192 94.4295 15.1293H100.283ZM42.6758 19.3371L49.1298 12.7813H42.8311V10.7115H52.1238V12.8235L45.6699 19.3769H52.2096V21.4354H42.6783L42.6758 19.3371ZM59.4537 19.4539C59.9966 19.469 60.5372 19.3761 61.0439 19.1805C61.5507 18.9849 62.0135 18.6906 62.4055 18.3147L63.8715 19.9049C62.9049 20.8987 61.5644 21.6379 59.481 21.6379C55.9093 21.6379 53.6022 19.27 53.6022 16.0623C53.5889 15.3274 53.7232 14.5973 53.9972 13.9153C54.2713 13.2332 54.6794 12.6132 55.1976 12.0918C55.7157 11.5704 56.3332 11.1584 57.0135 10.8801C57.6938 10.6018 58.423 10.463 59.158 10.4717C62.7049 10.4717 64.7163 13.1713 64.5399 16.9133H56.154C56.4522 18.4662 57.5417 19.4601 59.4525 19.4601M62.008 15.1293C61.7806 13.6757 60.9147 12.6073 59.1791 12.6073C57.5678 12.6073 56.4435 13.5192 56.154 15.1293H62.008ZM78.4715 16.0486C78.4715 12.6297 81.0308 10.4767 83.8509 10.4767C84.5275 10.4676 85.1979 10.6068 85.815 10.8846C86.432 11.1623 86.9808 11.5718 87.4226 12.0843V5.76697H89.7023V21.4205H87.4226V19.9297C86.9889 20.4631 86.4409 20.8921 85.8189 21.185C85.197 21.4779 84.5172 21.6272 83.8298 21.6218C81.0941 21.6218 78.4728 19.4601 78.4728 16.0523M87.5506 16.0325C87.4698 13.026 83.8236 11.5973 81.7116 13.7515C79.5996 15.9058 81.1401 19.5259 84.1503 19.5247C86.1082 19.5247 87.5493 17.9593 87.5493 16.0461M104.3 19.152L106.365 18.0811C106.921 19.075 107.98 19.675 109.119 19.6465C110.411 19.6465 111.077 18.983 111.077 18.2327C111.077 17.363 109.83 17.1816 108.474 16.9034C106.65 16.5306 104.752 15.9157 104.752 13.7105C104.752 12.0172 106.363 10.4531 108.902 10.4755C110.889 10.4755 112.388 11.2706 113.232 12.5527L111.319 13.6037C111.054 13.2119 110.694 12.8941 110.272 12.6802C109.851 12.4664 109.381 12.3634 108.909 12.3812C107.683 12.3812 107.045 12.9813 107.045 13.667C107.045 14.4373 108.034 14.6522 109.585 14.9964C111.349 15.3691 113.349 15.9604 113.349 18.1892C113.349 19.68 112.057 21.6591 109.005 21.6379C106.768 21.6379 105.198 20.7372 104.292 19.1532M119.538 16.6686L117.731 18.6402V21.423H115.451V5.76945H117.731V16.0113L122.571 10.6978H125.348L121.151 15.2945L125.455 21.4218H122.874L119.538 16.6686ZM71.569 10.4941C68.8582 10.4941 66.5997 12.252 66.5997 15.1653V21.423H68.9229V15.4324C68.9229 13.6745 69.9329 12.6247 71.6585 12.6247C73.3841 12.6247 74.2426 13.6757 74.2426 15.4324V21.4006H76.5533V15.1429C76.5533 12.2296 74.2736 10.4717 71.584 10.4717M16.6909 7.23293V27.3838H0L16.6909 7.23293ZM16.6909 0C16.6912 2.21375 15.8123 4.33699 14.2474 5.90281C12.6825 7.46863 10.5598 8.34882 8.34608 8.3498C6.13233 8.34882 4.00961 7.46863 2.44472 5.90281C0.879833 4.33699 0.000912016 2.21375 0.00124166 0H16.6909ZM19.4402 27.3813C19.4412 25.1684 20.3207 23.0464 21.8855 21.4817C23.4502 19.917 25.5722 19.0374 27.7851 19.0365C29.9979 19.0374 32.1199 19.917 33.6847 21.4817C35.2494 23.0464 36.1289 25.1684 36.1299 27.3813H19.4402ZM19.4402 20.1484V0.00248333H36.1311L19.4402 20.1484Z" fill="var(--fill-0, #03363D)"/>
</svg>
