<svg preserveAspectRatio="none" width="100%" height="100%" overflow="visible" style="display: block;" viewBox="0 0 13.9724 14" fill="none" xmlns="http://www.w3.org/2000/svg">
<path id="Vector" d="M2.99388 14C3.78875 13.9992 4.55075 13.6827 5.11229 13.1201C5.67383 12.5576 5.98892 11.795 5.98826 11.0001C5.98892 10.2052 5.67383 9.44265 5.11229 8.88007C4.55075 8.3175 3.78875 8.00101 2.99388 8.00021H1.51062e-06V11.0001C1.51062e-06 12.6567 1.3403 14 2.99388 14ZM2.99388 6.00028H10.9786C12.6316 6.00028 13.9724 4.65697 13.9724 2.99989C13.9731 2.20502 13.658 1.44244 13.0965 0.879863C12.5349 0.317289 11.7729 0.00079725 10.9781 0H2.99388C1.3403 0 1.51062e-06 1.34331 1.51062e-06 2.99989C-0.000393626 3.39345 0.0767329 3.78323 0.226975 4.14698C0.377218 4.51073 0.597635 4.84132 0.875642 5.11989C1.15365 5.39846 1.4838 5.61954 1.84725 5.77051C2.2107 5.92148 2.60032 5.99939 2.99388 5.99978" fill="var(--fill-0, #ECB22E)"/>
</svg>
