<svg preserveAspectRatio="none" width="100%" height="100%" overflow="visible" style="display: block;" viewBox="0 0 167.356 45" fill="none" xmlns="http://www.w3.org/2000/svg">
<g id="Vector">
<path fill-rule="evenodd" clip-rule="evenodd" d="M76.5295 27.8212C75.361 28.0907 74.7565 27.7312 74.7565 26.9572C74.7565 25.8967 75.853 25.4722 77.4195 25.4722C78.1085 25.4722 78.7585 25.5317 78.7585 25.5317C78.7585 25.9857 77.772 27.5347 76.5295 27.8212ZM77.7185 17.2037C73.978 17.2037 71.2925 18.5792 71.2925 18.5792V22.6227C71.2925 22.6227 74.2575 20.9182 76.663 20.9182C78.582 20.9182 78.818 21.9537 78.731 22.8127C78.731 22.8127 78.177 22.6662 76.488 22.6662C72.5065 22.6662 70.4975 24.4757 70.4975 27.3767C70.4975 30.1287 72.7555 31.2786 74.6585 31.2786C77.4345 31.2786 78.6555 29.4127 79.03 28.5277C79.2905 27.9137 79.3385 27.4997 79.5715 27.4997C79.839 27.4997 79.749 27.7967 79.7355 28.4077C79.7135 29.4782 79.7645 30.2872 79.934 30.9691H83.6154V24.3472C83.6154 20.2127 82.1525 17.2037 77.7185 17.2037Z" fill="#100F0D"/>
<path fill-rule="evenodd" clip-rule="evenodd" d="M101.949 24.2479C101.949 23.0384 103.073 21.9369 105.137 21.9369C107.386 21.9369 109.195 23.0199 109.601 23.2659V18.5849C109.601 18.5849 108.172 17.2089 104.659 17.2089C100.957 17.2089 97.8733 19.3754 97.8733 24.0389C97.8733 28.7019 100.672 31.2879 104.649 31.2879C107.757 31.2879 109.609 29.5804 109.609 29.5804V25.1349C109.023 25.4624 107.39 26.5959 105.16 26.5959C102.798 26.5959 101.949 25.5089 101.949 24.2479ZM52.744 17.5154C52.7445 17.5184 52.979 18.5244 52.67 19.8399C52.5125 20.5089 52.223 21.0779 52.5725 21.0779C52.8135 21.0779 52.814 20.8779 53.1275 20.1609C53.586 19.1129 54.5525 17.2054 56.811 17.2054C58.958 17.2054 59.9695 18.5099 60.3045 19.7314C60.5595 20.6594 60.3365 21.0779 60.6475 21.0779C60.8685 21.0779 60.945 20.5964 61.217 19.9874C61.7055 18.8964 62.768 17.2054 64.917 17.2054C68.1595 17.2054 69.3975 19.5469 69.3975 23.0594V30.9739H64.5805V23.6774C64.5805 22.4609 64.384 21.2809 63.275 21.2809C62.2475 21.2809 61.7685 23.1019 61.7685 24.2774V30.9769H56.863V23.6779C56.863 22.1214 56.6435 21.2814 55.5495 21.2814C54.6025 21.2814 54.05 22.9569 54.05 24.2779V30.9744H49.1641V17.5154H52.744ZM85.2189 17.5339C85.2209 17.5349 86.0524 18.0144 87.6664 18.0144C89.2834 18.0144 90.1043 17.5339 90.1043 17.5339V30.9774H85.2189V17.5339ZM125.553 17.5339C125.555 17.5349 126.387 18.0144 128.001 18.0144C129.618 18.0144 130.439 17.5339 130.439 17.5339V30.9774H125.553V17.5339ZM96.5713 13.441V30.9774H91.6853V13.441H96.5713ZM115.407 13.441C115.408 13.4425 115.61 13.9465 115.61 15.4454C115.61 17.6589 115.128 19.4604 114.901 20.1469C114.78 20.5104 114.565 21.0714 114.874 21.0814C115.052 21.0869 115.159 20.8189 115.377 20.3539C115.594 19.8884 116.67 17.2084 119.498 17.2084C123.393 17.2084 123.966 20.3984 123.966 23.8529V30.9769H119.08V23.5604C119.08 22.0394 118.761 21.2839 117.742 21.2839C116.511 21.2839 116.076 23.1899 116.076 24.2809V30.9769H111.19V13.4405L115.407 13.441ZM135.67 17.5154C135.67 17.5184 135.905 18.5244 135.596 19.8399C135.438 20.5089 135.149 21.0779 135.498 21.0779C135.739 21.0779 135.74 20.8779 136.053 20.1609C136.511 19.1129 137.478 17.2054 139.737 17.2054C141.982 17.2054 142.872 18.5159 143.23 19.7314C143.47 20.5459 143.262 21.0779 143.573 21.0779C143.794 21.0779 143.871 20.5964 144.143 19.9874C144.63 18.8964 145.694 17.2054 147.843 17.2054C151.085 17.2054 152.323 19.5469 152.323 23.0594V30.9739H147.506V23.6774C147.506 22.4609 147.31 21.2809 146.201 21.2809C145.173 21.2809 144.694 23.1019 144.694 24.2774V30.9769H139.788V23.6779C139.788 22.1214 139.57 21.2814 138.475 21.2814C137.528 21.2814 136.976 22.9569 136.976 24.2779V30.9744H132.09V17.5154H135.67ZM87.6469 13.305C85.9959 13.305 84.6564 14.179 84.6564 15.2569C84.6564 16.3349 85.9954 17.2089 87.6469 17.2089C89.2988 17.2089 90.6378 16.3349 90.6378 15.2569C90.6378 14.179 89.2993 13.305 87.6469 13.305ZM127.982 13.305C126.33 13.305 124.991 14.179 124.991 15.2569C124.991 16.3349 126.33 17.2089 127.982 17.2089C129.633 17.2089 130.973 16.3349 130.973 15.2569C130.973 14.179 129.634 13.305 127.982 13.305Z" fill="#100F0D"/>
<path fill-rule="evenodd" clip-rule="evenodd" d="M160.646 28.0772C159.526 28.0772 158.702 26.6567 158.702 24.6772C158.702 22.7547 159.548 21.2782 160.607 21.2782C161.966 21.2782 162.546 22.5247 162.546 24.6772C162.546 26.9167 162.011 28.0772 160.646 28.0772ZM161.986 17.2007C159.476 17.2007 158.324 19.0832 157.824 20.1557C157.494 20.8642 157.511 21.0727 157.269 21.0727C156.921 21.0727 157.21 20.5037 157.367 19.8347C157.677 18.5172 157.442 17.5107 157.442 17.5107H153.864V34.6821H158.748V29.2382C159.325 30.2187 160.396 31.2662 162.046 31.2662C165.579 31.2662 167.356 28.2777 167.356 24.2402C167.356 19.6642 165.229 17.2007 161.987 17.2007" fill="#100F0D"/>
<path fill-rule="evenodd" clip-rule="evenodd" d="M31.8923 21.2638C32.2208 21.2248 32.5353 21.2228 32.8248 21.2638C32.9923 20.8798 33.0208 20.2183 32.8703 19.4978C32.6469 18.4268 32.3438 17.7788 31.7178 17.8798C31.0919 17.9808 31.0688 18.7568 31.2928 19.8273C31.4188 20.4298 31.6429 20.9448 31.8923 21.2638Z" fill="#231F20"/>
<path fill-rule="evenodd" clip-rule="evenodd" d="M26.5218 22.1114C26.9693 22.3079 27.2448 22.4383 27.3523 22.3243C27.4218 22.2533 27.4008 22.1179 27.2938 21.9434C27.0728 21.5829 26.6183 21.2169 26.1358 21.0114C25.1498 20.5869 23.9733 20.7279 23.0658 21.3799C22.7663 21.5994 22.4823 21.9034 22.5228 22.0879C22.5358 22.1474 22.5808 22.1923 22.6858 22.2073C22.9328 22.2353 23.7958 21.7994 24.7903 21.7384C25.4918 21.6954 26.0738 21.9149 26.5218 22.1114Z" fill="#231F20"/>
<path fill-rule="evenodd" clip-rule="evenodd" d="M25.623 22.6254C25.0395 22.7174 24.718 22.9099 24.5115 23.0884C24.3355 23.2424 24.2265 23.4129 24.2275 23.5324C24.228 23.5894 24.2525 23.6224 24.272 23.6389C24.2985 23.6624 24.33 23.6754 24.368 23.6754C24.4995 23.6754 24.795 23.5569 24.795 23.5569C25.6065 23.2664 26.142 23.3019 26.6725 23.3619C26.9655 23.3949 27.1045 23.4129 27.1685 23.3124C27.1875 23.2834 27.2105 23.2209 27.152 23.1259C27.0155 22.9044 26.426 22.5299 25.623 22.6254Z" fill="#231F20"/>
<path fill-rule="evenodd" clip-rule="evenodd" d="M30.0801 24.5115C30.4761 24.706 30.9121 24.6295 31.0541 24.341C31.1961 24.0525 30.9901 23.6605 30.5941 23.466C30.1981 23.2715 29.7621 23.348 29.6201 23.6365C29.4781 23.9255 29.6841 24.317 30.0801 24.5115Z" fill="#231F20"/>
<path fill-rule="evenodd" clip-rule="evenodd" d="M32.6264 22.2872C32.3049 22.2817 32.0379 22.6347 32.0304 23.0762C32.0229 23.5177 32.2779 23.8792 32.5994 23.8847C32.9209 23.8902 33.1879 23.5372 33.1954 23.0957C33.2029 22.6547 32.9479 22.2927 32.6264 22.2872Z" fill="#231F20"/>
<path fill-rule="evenodd" clip-rule="evenodd" d="M11.0166 30.2419C10.9366 30.1414 10.8051 30.1719 10.6776 30.2019C10.5886 30.2229 10.4881 30.2459 10.3776 30.2444C10.1411 30.2399 9.94061 30.1389 9.82811 29.9659C9.68161 29.7409 9.69011 29.4054 9.85161 29.0214L9.92711 28.8494C10.1851 28.2704 10.6166 27.3019 10.1321 26.3789C9.76711 25.6839 9.17212 25.2514 8.45662 25.1604C7.76962 25.0734 7.06263 25.3279 6.61163 25.8254C5.90013 26.6104 5.78863 27.6789 5.92613 28.0564C5.97663 28.1944 6.05563 28.2329 6.11263 28.2409C6.23363 28.2569 6.41263 28.1689 6.52463 27.8674L6.55663 27.7694C6.60663 27.6099 6.69963 27.3129 6.85213 27.0749C7.03612 26.7879 7.32213 26.5904 7.65812 26.5179C8.00012 26.4444 8.35012 26.5099 8.64312 26.7019C9.14162 27.0279 9.33362 27.6389 9.12062 28.2214C9.01062 28.5229 8.83162 29.0994 8.87112 29.5729C8.95112 30.5314 9.54061 30.9164 10.0701 30.9574C10.5851 30.9769 10.9451 30.6874 11.0361 30.4764C11.0896 30.3514 11.0446 30.2754 11.0151 30.2429" fill="#231F20"/>
<path fill-rule="evenodd" clip-rule="evenodd" d="M15.9149 12.6371C17.5949 10.6961 19.6624 9.00862 21.5149 8.06112C21.5789 8.02812 21.6469 8.09763 21.6124 8.16063C21.4654 8.42712 21.1819 8.99761 21.0924 9.43011C21.0784 9.49761 21.1519 9.54812 21.2089 9.50962C22.3614 8.72412 24.3658 7.88212 26.1243 7.77412C26.1998 7.76962 26.2363 7.86613 26.1763 7.91263C25.9088 8.11763 25.6163 8.40162 25.4028 8.68862C25.3663 8.73762 25.4008 8.80762 25.4618 8.80812C26.6963 8.81712 28.4368 9.24912 29.5713 9.88562C29.6478 9.92862 29.5933 10.0771 29.5073 10.0576C27.7908 9.66411 24.9813 9.36562 22.0624 10.0776C19.4569 10.7131 17.4679 11.6946 16.0174 12.7496C15.9439 12.8031 15.8554 12.7056 15.9149 12.6371ZM24.2808 31.443L24.2813 31.444L24.2823 31.446L24.2808 31.443ZM31.2078 32.2605C31.2578 32.2395 31.2918 32.183 31.2863 32.1265C31.2793 32.057 31.2173 32.0065 31.1478 32.0135C31.1478 32.0135 27.5633 32.544 24.1768 31.3045C24.5458 30.1055 25.5263 30.5385 27.0088 30.658C29.6808 30.8175 32.0758 30.427 33.8458 29.919C35.3793 29.479 37.3938 28.611 38.9583 27.376C39.4858 28.535 39.6723 29.811 39.6723 29.811C39.6723 29.811 40.0808 29.738 40.4223 29.948C40.7448 30.1465 40.9812 30.559 40.8197 31.626C40.4907 33.619 39.6438 35.237 38.2198 36.7255C37.3528 37.6585 36.3008 38.4695 35.0968 39.0595C34.4573 39.3955 33.7768 39.686 33.0573 39.9205C27.6893 41.6739 22.1944 39.7465 20.4234 35.6075C20.2819 35.2965 20.1624 34.9705 20.0684 34.63C19.3139 31.9025 19.9544 28.63 21.9574 26.57C22.0809 26.439 22.2069 26.2835 22.2069 26.089C22.2069 25.9265 22.1034 25.755 22.0139 25.633C21.3129 24.6165 18.8854 22.8845 19.3729 19.5326C19.7229 17.1246 21.8289 15.4286 23.7923 15.5291L24.2898 15.5576C25.1408 15.6081 25.8828 15.7171 26.5833 15.7466C27.7558 15.7976 28.8098 15.6271 30.0588 14.5866C30.4798 14.2356 30.8178 13.9311 31.3893 13.8346C31.4493 13.8241 31.5988 13.7706 31.8973 13.7846C32.2023 13.8011 32.4923 13.8846 32.7528 14.0581C33.7538 14.7241 33.8958 16.3376 33.9478 17.5176C33.9773 18.1911 34.0588 19.8211 34.0868 20.2891C34.1503 21.3591 34.4318 21.5096 35.0008 21.6971C35.3208 21.8026 35.6178 21.8811 36.0558 22.0041C37.3808 22.376 38.1663 22.7535 38.6618 23.2385C38.9573 23.5415 39.0948 23.8635 39.1373 24.1705C39.2933 25.3105 38.2523 26.7185 35.4958 27.998C32.4828 29.3965 28.8273 29.7505 26.3018 29.469L25.4168 29.369C23.3968 29.097 22.2444 31.7075 23.4568 33.4965C24.2383 34.6495 26.3668 35.3995 28.4963 35.4C33.3788 35.4005 37.1318 33.3155 38.5278 31.515L38.6393 31.356C38.7083 31.2525 38.6513 31.1955 38.5658 31.254C37.4253 32.0345 32.3593 35.133 26.9403 34.2005C26.9403 34.2005 26.2818 34.092 25.6808 33.8585C25.2033 33.6725 24.2033 33.2125 24.0818 32.187C28.4548 33.5395 31.2078 32.2605 31.2078 32.2605ZM7.18844 21.8681C5.66745 22.1636 4.32696 23.0255 3.50746 24.2165C3.01746 23.808 2.10497 23.017 1.94347 22.7085C0.634974 20.2236 3.37146 15.3926 5.28345 12.6641C10.0084 5.92163 17.4084 0.818161 20.8339 1.74416C21.3909 1.90165 23.2353 4.04014 23.2353 4.04014C23.2353 4.04014 19.8109 5.94013 16.6354 8.58862C12.3564 11.8831 9.12493 16.6716 7.18844 21.8681ZM9.74392 33.2705C9.51392 33.31 9.27893 33.3255 9.04193 33.3195C6.75344 33.258 4.28196 31.198 4.03646 28.755C3.76496 26.0545 5.14495 23.9765 7.58793 23.4835C7.87993 23.4245 8.23293 23.3905 8.61343 23.4105C9.98242 23.4855 11.9994 24.5365 12.4599 27.5185C12.8679 30.1595 12.2199 32.8485 9.74392 33.2705ZM40.7417 28.4885C40.7222 28.419 40.5942 27.9525 40.4188 27.39C40.2433 26.827 40.0618 26.4315 40.0618 26.4315C40.7657 25.378 40.7783 24.4355 40.6843 23.902C40.5843 23.2405 40.3088 22.677 39.7538 22.094C39.1988 21.5116 38.0633 20.9146 36.4678 20.4666L35.6308 20.2341C35.6268 20.1996 35.5868 18.2606 35.5508 17.4281C35.5243 16.8261 35.4728 15.8866 35.1813 14.9616C34.8338 13.7091 34.2288 12.6131 33.4733 11.9121C35.5583 9.75111 36.8598 7.37013 36.8563 5.32814C36.8503 1.40066 32.0268 0.212168 26.0823 2.67366L24.8228 3.20815C24.8173 3.20265 22.5459 0.974164 22.5119 0.944164C15.7344 -4.9673 -5.45549 18.5861 1.31897 24.3065L2.79946 25.561C2.41547 26.556 2.26446 27.696 2.38796 28.9215C2.54596 30.496 3.35796 32.005 4.67445 33.171C5.92395 34.278 7.56693 34.979 9.16092 34.9775C11.7974 41.0529 17.8214 44.7799 24.8843 44.9899C32.4608 45.2149 38.8208 41.6599 41.4857 35.274C41.6602 34.826 42.3997 32.8065 42.3997 31.0235C42.3997 29.232 41.3867 28.4885 40.7417 28.4885Z" fill="#231F20"/>
</g>
</svg>
