<svg preserveAspectRatio="none" width="100%" height="100%" overflow="visible" style="display: block;" viewBox="0 0 40.5411 24.6471" fill="none" xmlns="http://www.w3.org/2000/svg">
<path id="Vector" d="M31.2904 14.7513C28.107 14.7513 25.9996 12.3398 25.4117 11.4057C26.166 5.49643 28.3733 3.62807 31.2904 3.62807C34.1744 3.62807 36.415 5.88748 36.415 9.18961C36.415 12.4918 34.1744 14.7513 31.2904 14.7513ZM31.2904 0C26.0995 0 23.1933 3.31307 22.3614 6.72389C21.4186 4.98589 20.7198 2.66132 20.1763 0.499678H12.9998V9.24401C12.9998 12.4159 11.5246 14.7621 8.64064 14.7621C5.75673 14.7621 4.10403 12.4159 4.10403 9.24401L4.1373 0.499678H0V9.24401C0 11.7967 0.84299 14.1104 2.38477 15.7615C3.97093 17.4669 6.13386 18.3576 8.64064 18.3576C13.632 18.3576 17.115 14.6101 17.115 9.24401V3.36738C17.6362 5.3009 18.8786 9.01587 21.2522 12.2747L19.0339 24.6471H23.2377L24.7018 15.881C25.1788 16.272 25.689 16.6196 26.2325 16.9347C27.6411 17.8037 29.2495 18.2925 30.9133 18.3467C30.9133 18.3467 31.1684 18.3576 31.3015 18.3576C36.4482 18.3576 40.5411 14.4581 40.5411 9.18961C40.5411 3.92136 36.4371 0 31.2904 0Z" fill="var(--fill-0, #14A800)"/>
</svg>
