<svg preserveAspectRatio="none" width="100%" height="100%" overflow="visible" style="display: block;" viewBox="0 0 83.5543 17.571" fill="none" xmlns="http://www.w3.org/2000/svg">
<path id="Vector" d="M12.9018 0.491495H17.571L10.9358 17.2023H6.75807L0 0.491495H4.79208L8.84692 11.673L12.9018 0.491495V0.491495ZM19.0455 17.0795H23.5918V0.491495H19.0455V17.0795ZM25.6806 11.673H30.227C30.3499 12.7789 31.0871 13.8848 33.0531 13.8848C34.7733 13.8848 35.6334 13.2704 35.6334 12.4103C35.6334 9.58417 26.4179 12.2874 26.4179 5.6522C26.4179 2.58035 28.9982 0.122874 33.0531 0.122874C38.0909 0.122874 39.8111 3.3176 39.934 5.77507H35.6334C35.5106 4.66921 34.7733 3.80909 33.176 3.80909C31.7015 3.80909 30.8414 4.54633 30.8414 5.40645C30.8414 8.23255 40.0569 5.40645 40.0569 12.2874C40.0569 15.2364 37.4765 17.571 33.0531 17.571C27.7695 17.4481 25.9264 14.8677 25.6806 11.673V11.673ZM42.2686 17.0795H46.815V0.491495H42.2686V17.0795ZM57.505 13.5161C59.8396 13.5161 61.6827 11.7959 61.6827 8.72405C61.6827 5.77507 59.8396 3.93197 57.505 3.93197C55.1704 3.93197 53.3273 5.6522 53.3273 8.72405C53.3273 11.7959 55.1704 13.5161 57.505 13.5161ZM48.7809 8.72405C48.7809 3.93197 52.2214 0 57.505 0C62.7886 0 66.229 3.93197 66.229 8.72405C66.229 13.5161 62.7886 17.4481 57.505 17.4481C52.2214 17.4481 48.7809 13.5161 48.7809 8.72405ZM72.4956 2.45748C73.2329 0.982991 74.9531 0 77.4106 0C81.4654 0 83.5543 2.70323 83.5543 6.63519V17.0795H79.0079V7.12669C79.0079 5.1607 78.1478 3.80909 76.1818 3.80909C73.9701 3.80909 72.7414 5.1607 72.7414 7.49531V17.0795H68.195V0.491495H72.4956V2.45748Z" fill="var(--fill-0, #FF3366)"/>
</svg>
