<svg preserveAspectRatio="none" width="100%" height="100%" overflow="visible" style="display: block;" viewBox="0 0 90.4507 29.0716" fill="none" xmlns="http://www.w3.org/2000/svg">
<g id="Vector">
<path d="M7.76092 13.0442C6.67389 12.4627 6.11773 11.9571 6.11773 11.2746C6.11773 10.4151 6.90141 9.85891 8.11484 9.85891C9.53051 9.85891 10.7945 10.4404 10.7945 10.4404L11.7804 7.40677C11.7804 7.40677 10.8703 6.69893 8.19068 6.69893C4.44926 6.69893 1.84543 8.84772 1.84543 11.856C1.84543 13.5751 3.05887 14.8643 4.67678 15.7997C5.99133 16.5328 6.44637 17.0637 6.44637 17.8474C6.44637 18.6563 5.78909 19.3136 4.57566 19.3136C2.78079 19.3136 1.06175 18.3782 1.06175 18.3782L0 21.4118C0 21.4118 1.56735 22.4736 4.22174 22.4736C8.06428 22.4736 10.8451 20.5776 10.8451 17.1648C10.8198 15.3194 9.42939 14.0048 7.76092 13.0442Z" fill="black"/>
<path d="M23.0806 6.64859C21.1846 6.64859 19.6931 7.55866 18.5555 8.92378L18.5049 8.8985L20.1481 0.303342H15.8758L11.7047 22.1957H15.977L17.3926 14.7129C17.9488 11.8815 19.415 10.1372 20.7801 10.1372C21.7408 10.1372 22.12 10.7945 22.12 11.7298C22.12 12.3113 22.0694 13.0444 21.943 13.6258L20.3251 22.1957H24.5974L26.2659 13.3478C26.4428 12.4124 26.5692 11.3001 26.5692 10.5417C26.5945 8.11482 25.3305 6.64859 23.0806 6.64859Z" fill="black"/>
<path d="M36.2763 6.64822C31.1192 6.64822 27.7065 11.2997 27.7065 16.4821C27.7065 19.7937 29.7541 22.4734 33.5967 22.4734C38.6526 22.4734 42.0654 17.9483 42.0654 12.6395C42.0907 9.58068 40.2958 6.64822 36.2763 6.64822ZM34.1781 19.2123C32.7119 19.2123 32.1052 17.9736 32.1052 16.4062C32.1052 13.9541 33.3691 9.95988 35.6949 9.95988C37.2117 9.95988 37.7173 11.2744 37.7173 12.5384C37.7173 15.1675 36.428 19.2123 34.1781 19.2123Z" fill="black"/>
<path d="M53.0375 6.64822C50.1556 6.64822 48.5124 9.20148 48.5124 9.20148H48.4618L48.7146 6.90101H44.9226C44.7457 8.44309 44.3918 10.8194 44.0631 12.589L41.0801 28.2625H45.3524L46.5405 21.9173H46.6417C46.6417 21.9173 47.5265 22.4734 49.1444 22.4734C54.1751 22.4734 57.4614 17.3163 57.4614 12.1087C57.4614 9.22676 56.1722 6.64822 53.0375 6.64822ZM48.9421 19.2629C47.8298 19.2629 47.1725 18.6309 47.1725 18.6309L47.8804 14.6367C48.386 11.957 49.7764 10.1874 51.2679 10.1874C52.5824 10.1874 52.9869 11.4008 52.9869 12.5384C52.9869 15.3192 51.3437 19.2629 48.9421 19.2629Z" fill="black"/>
<path d="M63.5784 0.50549C62.2133 0.50549 61.1263 1.59252 61.1263 2.98292C61.1263 4.24691 61.9352 5.13171 63.1487 5.13171H63.1992C64.5391 5.13171 65.6767 4.22163 65.7019 2.65428C65.7019 1.41557 64.8677 0.50549 63.5784 0.50549Z" fill="black"/>
<path d="M57.5874 22.1702H61.8597L64.7669 7.00227H60.4693L57.5874 22.1702Z" fill="black"/>
<path d="M75.6622 6.97724H72.6792L72.8309 6.26941C73.0837 4.80318 73.9432 3.5139 75.3842 3.5139C76.1426 3.5139 76.7493 3.74142 76.7493 3.74142L77.5835 0.379198C77.5835 0.379198 76.8504 0 75.2578 0C73.741 0 72.2242 0.429758 71.0613 1.41567C69.5951 2.65439 68.9125 4.44926 68.5839 6.26941L68.4575 6.97724H66.4604L65.8284 10.2131H67.8255L65.5503 22.1957H69.8226L72.0978 10.2131H75.0555L75.6622 6.97724Z" fill="black"/>
<path d="M85.9762 7.00227C85.9762 7.00227 83.2965 13.752 82.1084 17.4429H82.0578C81.982 16.2547 80.9961 7.00227 80.9961 7.00227H76.4962L79.0748 20.9315C79.1254 21.2348 79.1001 21.4371 78.9737 21.6393C78.4681 22.6 77.6338 23.5353 76.6479 24.2179C75.839 24.7993 74.9289 25.1785 74.221 25.4313L75.4092 29.0716C76.2687 28.8946 78.0889 28.1615 79.6057 26.7459C81.5522 24.9257 83.3724 22.0944 85.2178 18.2518L90.4507 7.00227H85.9762Z" fill="black"/>
</g>
</svg>
