<svg preserveAspectRatio="none" width="100%" height="100%" overflow="visible" style="display: block;" viewBox="0 0 28.9 34" fill="none" xmlns="http://www.w3.org/2000/svg">
<path id="D-Copy" fill-rule="evenodd" clip-rule="evenodd" d="M0 30.9361C0 32.7945 1.20602 33.9998 3.06513 33.9998L12.0207 34C17.3632 34 21.7335 32.1931 24.7047 29.0299H0V30.9361ZM12.0207 0.000169999L3.06513 0C1.20602 0 0 1.20546 0 3.06389V4.9701H24.7047C21.7335 1.80692 17.3632 0.000169999 12.0207 0.000169999ZM19.8363 21.8446C19.8363 23.348 20.8161 24.3235 22.3267 24.3235H27.693C28.3013 22.8146 28.71 21.1557 28.9 19.3656H22.3267C20.8161 19.3656 19.8363 20.3409 19.8363 21.8446ZM12.3981 12.1677C12.3981 13.6713 13.3779 14.6466 14.8885 14.6466H28.9C28.71 12.8565 28.3013 11.1977 27.693 9.68876H14.8885C13.3779 9.68876 12.3981 10.664 12.3981 12.1677ZM14.8868 21.8446C14.8868 20.3409 13.907 19.3656 12.3964 19.3656H0V24.3235H12.3964C13.907 24.3235 14.8868 23.3482 14.8868 21.8446ZM7.4487 12.1677C7.4487 10.664 6.46888 9.68876 4.95826 9.68876H0V14.6466H4.95826C6.46888 14.6466 7.4487 13.6713 7.4487 12.1677Z" fill="var(--fill-0, #0062FF)"/>
</svg>
