<svg preserveAspectRatio="none" width="100%" height="100%" overflow="visible" style="display: block;" viewBox="0 0 7.29809 7.26386" fill="none" xmlns="http://www.w3.org/2000/svg">
<path id="Vector" d="M6.22779 6.2016C5.71634 6.71006 5.06468 7.05586 4.35548 7.19515C3.64627 7.33444 2.91148 7.26093 2.24432 6.98396C1.57715 6.70699 1.00766 6.23903 0.608099 5.63944C0.208536 5.03985 -0.00310114 4.33566 3.43419e-05 3.61618C0.00316982 2.8967 0.220936 2.19435 0.625711 1.59824C1.03048 1.00212 1.60403 0.539098 2.27358 0.267897C2.94314 -0.00330475 3.67854 -0.0704617 4.38651 0.0749444C5.09447 0.220351 5.74309 0.571767 6.25009 1.08462C6.92554 1.76786 7.30223 2.68916 7.29805 3.64768C7.29388 4.6062 6.90917 5.52422 6.22779 6.2016Z" fill="var(--fill-0, #47A1FF)"/>
</svg>
