<svg preserveAspectRatio="none" width="100%" height="100%" overflow="visible" style="display: block;" viewBox="0 0 45.6157 45.97" fill="none" xmlns="http://www.w3.org/2000/svg">
<path id="Vector" d="M23.223 41.2213C19.404 41.2213 15.8399 40.0701 12.8625 38.1111L5.62309 40.4241L7.96979 33.4286C5.71181 30.3291 4.38382 26.5104 4.38382 22.3927C4.38382 12.01 12.8294 3.56441 23.2121 3.56441C33.5948 3.56441 42.0404 12.01 42.0404 22.3927C42.0404 32.7751 33.5948 41.221 23.2121 41.221H23.223V41.2213ZM23.223 0C10.8585 0 0.830343 10.0291 0.830343 22.393C0.830343 26.6213 2.00369 30.584 4.04019 33.96L0 45.97L12.3977 41.9964C15.7114 43.8287 19.4365 44.7885 23.223 44.7857C35.5873 44.7857 45.6157 34.7572 45.6157 22.393C45.6154 10.0291 35.5873 0 23.223 0Z" fill="var(--fill-0, #FEFEFE)"/>
</svg>
