<svg preserveAspectRatio="none" width="100%" height="100%" overflow="visible" style="display: block;" viewBox="0 0 120 32" fill="none" xmlns="http://www.w3.org/2000/svg">
<g id="logo-layer" clip-path="url(#clip0_418_873)">
<path id="Vector" d="M69.9265 8.93023L76.8382 6.32558L69.9265 3.64651V0L81.7647 4.83721V7.81395L69.9265 12.6512V8.93023Z" fill="var(--fill-0, #A100FF)"/>
<path id="Vector_2" d="M4.55882 32C2.05882 32 0 30.7349 0 27.907V27.7581C0 24.3349 2.94118 23.1442 6.54412 23.1442H8.23529V22.4744C8.23529 21.0604 7.64706 20.2418 6.17647 20.2418C4.85294 20.2418 4.19118 20.986 4.11765 22.0279H0.441176C0.735294 18.9023 3.16176 17.4139 6.39706 17.4139C9.70588 17.4139 12.1324 18.8279 12.1324 22.3256V31.7023H8.38235V30.0651C7.64706 31.107 6.39706 32 4.55882 32ZM8.23529 27.0884V25.7488H6.69118C4.77941 25.7488 3.82353 26.2698 3.82353 27.5349V27.6837C3.82353 28.6511 4.41176 29.3209 5.73529 29.3209C7.05882 29.2465 8.23529 28.5023 8.23529 27.0884ZM20.8824 32C17.0588 32 14.2647 29.6186 14.2647 24.8558V24.6325C14.2647 19.8697 17.2059 17.3395 20.8824 17.3395C24.0441 17.3395 26.6176 18.9767 26.9118 22.6232H23.2353C23.0147 21.2837 22.2794 20.3907 20.9559 20.3907C19.3382 20.3907 18.1618 21.7302 18.1618 24.4837V24.9302C18.1618 27.7581 19.1912 29.0232 20.9559 29.0232C22.2794 29.0232 23.2353 28.0558 23.4559 26.493H26.9853C26.7647 29.7674 24.6324 32 20.8824 32ZM35.2941 32C31.4706 32 28.6765 29.6186 28.6765 24.8558V24.6325C28.6765 19.8697 31.6176 17.3395 35.2941 17.3395C38.4559 17.3395 41.0294 18.9767 41.3235 22.6232H37.6471C37.4265 21.2837 36.6912 20.3907 35.3676 20.3907C33.75 20.3907 32.5735 21.7302 32.5735 24.4837V24.9302C32.5735 27.7581 33.6029 29.0232 35.3676 29.0232C36.6912 29.0232 37.6471 28.0558 37.8676 26.493H41.3971C41.1765 29.7674 39.0441 32 35.2941 32ZM49.7794 32C45.8088 32 43.0882 29.6186 43.0882 24.9302V24.6325C43.0882 19.9442 45.9559 17.3395 49.7059 17.3395C53.1618 17.3395 56.0294 19.2744 56.0294 23.9628V25.6744H46.9853C47.1323 28.2046 48.2353 29.1721 49.8529 29.1721C51.3235 29.1721 52.1323 28.3535 52.4265 27.386H56.0294C55.5882 29.9907 53.3823 32 49.7794 32ZM47.0588 23.0698H52.2059C52.1323 20.986 51.1765 20.093 49.6323 20.093C48.4559 20.1674 47.3529 20.8372 47.0588 23.0698ZM58.3823 17.7116H62.2794V19.7953C62.9412 18.4558 64.3382 17.4139 66.4706 17.4139C68.9706 17.4139 70.6618 18.9767 70.6618 22.3256V31.7023H66.7647V22.9209C66.7647 21.2837 66.1029 20.5395 64.7059 20.5395C63.3823 20.5395 62.2794 21.3581 62.2794 23.1442V31.7023H58.3823V17.7116V17.7116ZM77.7941 13.4698V17.7116H80.4412V20.6139H77.7941V27.2372C77.7941 28.2791 78.2353 28.8 79.1912 28.8C79.7794 28.8 80.1471 28.7256 80.5147 28.5767V31.6279C80.0735 31.7767 79.2647 31.9256 78.3088 31.9256C75.2941 31.9256 73.8971 30.5116 73.8971 27.6837V20.6139H72.2794V17.7116H73.8971V15.107L77.7941 13.4698ZM95 31.7023H91.1765V29.6186C90.5147 30.9581 89.1912 32 87.1323 32C84.6323 32 82.7941 30.4372 82.7941 27.1628V17.7116H86.6912V26.6418C86.6912 28.2791 87.3529 29.0232 88.6765 29.0232C90 29.0232 91.1029 28.1302 91.1029 26.4186V17.7116H95V31.7023ZM97.8676 17.7116H101.765V20.3163C102.574 18.4558 103.897 17.5628 105.956 17.5628V21.4325C103.309 21.4325 101.765 22.2511 101.765 24.5581V31.7767H97.8676V17.7116ZM113.824 32C109.853 32 107.132 29.6186 107.132 24.9302V24.6325C107.132 19.9442 110 17.3395 113.75 17.3395C117.206 17.3395 120.074 19.2744 120.074 23.9628V25.6744H111.103C111.25 28.2046 112.353 29.1721 113.971 29.1721C115.441 29.1721 116.25 28.3535 116.544 27.386H120.147C119.559 29.9907 117.426 32 113.824 32ZM111.029 23.0698H116.25C116.176 20.986 115.221 20.093 113.676 20.093C112.5 20.1674 111.397 20.8372 111.029 23.0698Z" fill="var(--fill-0, black)"/>
</g>
<defs>
<clipPath id="clip0_418_873">
<rect width="120" height="32" fill="white"/>
</clipPath>
</defs>
</svg>
