<svg preserveAspectRatio="none" width="100%" height="100%" overflow="visible" style="display: block;" viewBox="0 0 76.3236 34.0007" fill="none" xmlns="http://www.w3.org/2000/svg">
<g id="Vector">
<path d="M0 17.6437C0.0461594 17.3806 0.0963327 17.1182 0.139147 16.853C0.476312 14.7434 1.49985 13.0261 3.0987 11.6315C4.41458 10.4853 5.88098 9.55532 7.35607 8.63742C9.36166 7.3881 11.3084 6.05242 13.1661 4.59087C13.2491 4.52592 13.3126 4.38332 13.3133 4.27686C13.3233 2.99139 13.32 1.70526 13.32 0.419786V0.122521H18.0998V0.395014C18.0998 5.7257 18.1072 11.057 18.0958 16.3877C18.0918 18.4304 17.7607 20.4162 16.792 22.2433C15.4902 24.6991 13.4919 26.2155 10.7157 26.6353C8.73416 26.9353 6.76871 26.8476 4.921 26.0415C2.06513 24.7962 0.428814 22.5868 0.0568631 19.4695C0.0495043 19.4086 0.0194003 19.349 0 19.2894V17.6437ZM13.32 10.3192C12.2309 11.2559 11.0569 11.9535 9.86139 12.6251C8.51742 13.3796 7.2303 14.2178 6.05759 15.2295C4.6815 16.4165 4.12023 19.3383 5.92379 20.9277C7.53335 22.3457 10.9378 22.7086 12.5246 19.8672C13.0758 18.8817 13.2906 17.7971 13.3046 16.6823C13.3314 14.6256 13.3167 12.5688 13.3193 10.5127L13.32 10.3192Z" fill="#1562E7"/>
<path d="M39.9347 34.0007C39.9267 33.9077 39.9126 33.8146 39.9126 33.7222C39.9113 28.3052 39.9039 22.8888 39.916 17.4724C39.92 15.4143 40.2485 13.4138 41.1803 11.5519C42.347 9.22329 44.2202 7.79991 46.7696 7.30915C48.6435 6.94895 50.5159 7.00251 52.3489 7.57897C55.3841 8.53302 57.5863 11.27 57.882 14.4187C58.2065 17.8795 56.9421 20.6385 54.2308 22.7709C52.9624 23.7678 51.5876 24.6001 50.2075 25.4276C48.311 26.5651 46.5315 27.8686 44.8316 29.2847C44.6731 29.4159 44.6055 29.5484 44.6075 29.7587C44.6169 31.1734 44.6122 32.5867 44.6122 34.0007H39.9347ZM44.6115 23.6279C44.7038 23.5489 44.7534 23.5027 44.8062 23.4612C45.3481 23.0294 45.8592 22.55 46.4392 22.1791C47.4172 21.5544 48.4541 21.0208 49.4395 20.4069C50.3607 19.8331 51.2745 19.2372 52.0419 18.4559C53.6079 16.8625 53.5544 14.3953 51.9683 12.8849C50.3694 11.3617 46.6566 11.1167 45.231 14.3096C44.8196 15.2309 44.6483 16.2083 44.6269 17.2059C44.5975 18.6019 44.6142 19.9991 44.6122 21.3958C44.6109 22.1228 44.6115 22.8493 44.6115 23.6279Z" fill="#1562E7"/>
<path d="M76.3229 22.0672C76.254 22.3632 76.1985 22.6631 76.1129 22.955C75.6613 24.4889 74.7836 25.6846 73.3206 26.3936C72.6275 26.7297 71.893 26.9051 71.1169 26.9045C67.3834 26.9011 63.6485 26.9025 59.9149 26.9025H59.5885V22.1703H59.8755C63.5582 22.1703 67.2416 22.171 70.9236 22.1703C71.3645 22.1703 71.5237 22.0063 71.6 21.5751C71.7538 20.7081 71.1972 20.0741 70.4312 19.7012C69.8352 19.4113 69.191 19.3195 68.536 19.3155C67.067 19.3075 65.6133 19.187 64.2098 18.7183C62.5835 18.176 61.2 17.2842 60.2621 15.8099C59.634 14.8224 59.448 13.7077 59.5028 12.5608C59.6179 10.1345 60.9418 8.54971 63.0906 7.59498C63.7689 7.29303 64.5141 7.24483 65.2554 7.24483C68.5186 7.24684 71.7812 7.2455 75.0445 7.24617C75.086 7.24617 75.1281 7.25085 75.185 7.2542V11.9348H74.888C71.7103 11.9348 68.5327 11.9348 65.3557 11.9341C65.0079 11.9341 64.668 11.9421 64.4466 12.2823C64.1228 12.779 64.28 13.4345 64.8179 13.7753C65.4012 14.1435 66.0535 14.3337 66.7291 14.3959C67.6389 14.481 68.5568 14.4789 69.4673 14.5633C71.4782 14.7514 73.2824 15.423 74.6752 16.9568C75.5429 17.9102 76.0761 19.0363 76.2694 20.3164C76.2774 20.3707 76.3055 20.4216 76.3236 20.4731L76.3229 22.0672Z" fill="#1562E7"/>
<path d="M35.4631 0.000669515C35.6036 0.0495441 35.7475 0.0910541 35.8833 0.149302C37.6841 0.921923 37.9731 2.6707 36.9195 3.9006C36.2131 4.72544 35.0062 4.95174 34.0683 4.45429C33.1023 3.94345 32.5518 2.80192 32.8501 1.78828C33.101 0.937991 33.7077 0.390327 34.5433 0.100427C34.6436 0.0656125 34.7447 0.0334758 34.8457 0L35.4631 0.000669515Z" fill="#1562E7"/>
<path d="M25.1239 26.8925H20.4116V26.6093C20.4116 23.3521 20.3868 20.0955 20.4183 16.8384C20.4524 13.3642 21.9034 10.6286 24.8416 8.73989C26.0698 7.95053 27.4606 7.57962 28.8909 7.36002C29.3531 7.28972 29.8234 7.26696 30.3125 7.22009V11.813C29.5411 11.8438 28.8059 12.0172 28.1028 12.3238C26.1153 13.1895 25.1319 14.7167 25.1259 16.8738C25.1185 20.1143 25.1239 23.3534 25.1239 26.5939V26.8925Z" fill="#1562E7"/>
<path d="M37.5069 7.26558H32.7993V26.8951H37.5069V7.26558Z" fill="#1562E7"/>
</g>
</svg>
