<svg preserveAspectRatio="none" width="100%" height="100%" overflow="visible" style="display: block;" viewBox="0 0 35.0312 38.1781" fill="none" xmlns="http://www.w3.org/2000/svg">
<path id="Vector" d="M30.875 6.97656C29.5687 6.26406 27.55 7.45156 26.3625 9.58906L24.1062 13.3891C23.275 14.9328 23.3938 16.8328 24.4625 18.3766L24.5813 18.4953C25.65 19.9203 26.9563 21.3453 27.4313 21.8203C27.6688 22.0578 27.9063 22.4141 28.025 22.8891C28.3813 24.1953 27.6688 25.6203 26.2438 25.9766C24.9375 26.3328 23.5125 25.6203 23.1562 24.1953C23.0375 23.8391 23.0375 23.4828 23.0375 23.2453C23.1562 22.6516 22.9188 21.8203 22.0875 20.8703C21.2563 20.0391 19.7125 21.7016 19.1188 23.3641V23.4828C18.6438 25.1453 18.2875 26.6891 18.4062 26.8078C18.4062 26.9266 18.525 26.9266 18.525 27.0453C19.2375 28.4703 18.7625 30.1328 17.3375 30.8453C15.9125 31.5578 14.25 31.0828 13.5375 29.6578C12.825 28.2328 13.3 26.5703 14.725 25.8578C14.8437 25.8578 14.8438 25.7391 14.9625 25.7391C15.0813 25.7391 15.3187 25.0266 15.675 24.0766C15.9125 23.2453 16.0313 22.8891 16.15 22.5328C16.2688 22.0578 16.5063 20.8703 16.3875 20.3953C16.2688 19.8016 15.675 19.8016 15.0812 20.1578C14.725 20.3953 14.0125 20.9891 13.775 21.2266C13.1813 21.7016 12.7063 22.4141 12.4688 23.0078C12.35 23.2453 12.1125 23.6016 11.875 23.8391C10.8063 24.6703 9.2625 24.5516 8.3125 23.4828C7.48125 22.4141 7.6 20.8703 8.66875 19.9203C9.025 19.6828 9.38125 19.4453 9.7375 19.4453C10.3312 19.3266 12.4688 18.0203 13.775 17.0703C14.0125 16.9516 14.3687 16.5953 14.4875 16.4766C14.8437 16.0016 14.4875 15.6453 14.1312 15.6453C13.0625 15.7641 11.875 15.8828 11.6375 16.2391C11.5188 16.3578 11.4 16.5953 11.1625 16.7141C10.2125 17.4266 8.7875 17.1891 8.075 16.2391C7.3625 15.2891 7.6 13.8641 8.55 13.1516C8.90625 12.7953 9.5 12.6766 9.85625 12.6766C10.6875 12.6766 12.825 13.1516 14.4875 12.7953L14.9625 12.6766C16.7438 12.3203 18.8813 10.7766 19.7125 9.23281C19.7125 9.23281 20.5438 7.80781 21.4938 6.02656C22.5625 4.24531 22.4437 2.22656 21.375 1.63281L19.3562 0.445313C18.2875 -0.148438 16.7437 -0.148438 15.675 0.445313L1.9 8.28281C0.83125 8.87656 0 10.3016 0 11.4891V26.6891C0 27.8766 0.83125 29.3016 1.9 29.8953L15.675 37.7328C16.7437 38.3266 18.4062 38.3266 19.3562 37.7328L33.1312 29.8953C34.2 29.3016 35.0312 27.8766 35.0312 26.6891V11.4891C35.0312 10.3016 34.2 8.87656 33.1312 8.28281C33.1312 8.28281 32.1813 7.68906 30.875 6.97656Z" fill="var(--fill-0, #5FCF80)"/>
</svg>
