<svg preserveAspectRatio="none" width="100%" height="100%" overflow="visible" style="display: block;" viewBox="0 0 127 30" fill="none" xmlns="http://www.w3.org/2000/svg">
<g id="logo-layer" clip-path="url(#clip0_418_261)">
<path id="Vector" d="M111.242 10.0992C111.947 10.0992 112.527 9.73371 112.606 9.26151L113.302 1.41266C113.302 0.636873 112.39 3.27655e-07 111.244 3.27655e-07C110.099 3.27655e-07 109.188 0.63687 109.188 1.41279L109.884 9.26151C109.96 9.73357 110.541 10.0992 111.244 10.0992H111.242M106.986 12.5508C107.34 11.9427 107.313 11.2594 106.941 10.9558L100.469 6.43032C99.796 6.04187 98.7871 6.50944 98.2145 7.49933C97.6399 8.48797 97.7418 9.59213 98.4128 9.98072L105.579 13.3068C106.027 13.4723 106.638 13.1537 106.989 12.5461L106.986 12.5508M115.501 12.5465C115.854 13.1542 116.462 13.4729 116.91 13.3072L124.076 9.98114C124.752 9.59269 124.848 8.48839 124.278 7.49976C123.703 6.51084 122.692 6.04229 122.021 6.43074L115.549 10.9562C115.179 11.2594 115.152 11.9433 115.503 12.5512L115.501 12.5465M111.242 19.9036C111.947 19.9036 112.527 20.266 112.606 20.7386L113.302 28.5864C113.302 29.3645 112.39 30 111.244 30C110.099 30 109.188 29.3645 109.188 28.5864L109.884 20.7386C109.96 20.266 110.541 19.9036 111.244 19.9036H111.242M115.501 17.4515C115.854 16.8422 116.462 16.5263 116.91 16.6938L124.076 20.0176C124.752 20.4065 124.848 21.5118 124.278 22.5012C123.703 23.4869 122.692 23.9567 122.021 23.5688L115.549 19.0476C115.179 18.742 115.152 18.0577 115.503 17.4502H115.501M106.986 17.4507C107.34 18.0577 107.313 18.742 106.941 19.0482L100.469 23.5693C99.796 23.9572 98.7871 23.4873 98.2145 22.5016C97.6399 21.5122 97.7418 20.4069 98.4128 20.018L105.579 16.6942C106.027 16.5267 106.638 16.8426 106.989 17.4521H106.986" fill="var(--fill-0, #FDBB30)"/>
<path id="Vector_2" d="M70.4197 19.0333C70.4197 19.2742 70.3982 19.5226 70.332 19.7408C70.0575 20.6469 69.1164 21.4132 67.9389 21.4132C66.9571 21.4132 66.1773 20.8572 66.1773 19.6831C66.1773 17.886 68.1615 17.3897 70.4203 17.4022L70.4197 19.0332V19.0333ZM73.9625 15.9016C73.9625 12.9384 72.6923 10.3309 68.4005 10.3309C66.1974 10.3309 64.4489 10.9478 63.4945 11.4976L64.1935 13.8798C65.0657 13.3309 66.4559 12.8765 67.7714 12.8765C69.9484 12.8704 70.3049 14.1054 70.3049 14.8957V15.0828C65.5595 15.0758 62.5598 16.7138 62.5598 20.0505C62.5598 22.0894 64.0876 23.999 66.7434 23.999C68.3753 23.999 69.7422 23.3497 70.5602 22.3085H70.6409C70.6409 22.3085 71.1822 24.569 74.1703 23.7041C74.0143 22.7641 73.9631 21.7606 73.9631 20.5539L73.9627 15.9016M0.0239701 6.29547C0.0239701 6.29547 3.12498 18.962 3.62016 21.0177C4.1978 23.4172 5.23887 24.3005 8.23902 23.7041L10.1752 15.8513C10.6662 13.8998 10.9947 12.5085 11.3111 10.5253H11.3662C11.5883 12.5295 11.9033 13.9059 12.3074 15.8578C12.3074 15.8578 13.0951 19.423 13.4993 21.295C13.9039 23.1664 15.0299 24.3466 17.969 23.7041L22.5828 6.29491H18.8587L17.2829 13.8221C16.8592 16.0122 16.4751 17.7255 16.1787 19.7287H16.1261C15.8568 17.7432 15.5139 16.0998 15.0836 13.9654L13.4442 6.29491H9.56343L7.80888 13.772C7.3123 16.0447 6.84662 17.8792 6.55162 19.8157H6.49796C6.19509 17.9922 5.79193 15.6857 5.35561 13.4867C5.35561 13.4867 4.31397 8.13845 3.94761 6.29491L0.0239701 6.29547M29.6271 19.0333C29.6271 19.2742 29.6056 19.5226 29.5384 19.7408C29.2645 20.6469 28.3228 21.4132 27.1453 21.4132C26.1634 21.4132 25.3847 20.8572 25.3847 19.6831C25.3847 17.886 27.3684 17.3897 29.6275 17.4022L29.6271 19.0332V19.0333ZM33.1695 15.9016C33.1695 12.9384 31.8993 10.3309 27.6083 10.3309C25.4047 10.3309 23.6547 10.9478 22.7009 11.4976L23.3991 13.8798C24.2712 13.3309 25.6613 12.8765 26.9773 12.8765C29.1558 12.8704 29.5123 14.1054 29.5123 14.8957V15.0828C24.7649 15.0758 21.7666 16.7138 21.7666 20.0505C21.7666 22.0894 23.2936 23.999 25.9475 23.999C27.5816 23.999 28.9476 23.3497 29.7666 22.3085H29.8464C29.8464 22.3085 30.3892 24.569 33.3765 23.7041C33.2203 22.7641 33.1695 21.7606 33.1695 20.5539V15.9016M39.0816 20.0086V6.29547H35.5345V23.7047H39.0816V20.0086ZM85.4831 6.29547V19.1379C85.4831 20.9093 85.8181 22.149 86.5325 22.9077C87.1584 23.5711 88.1869 24.0004 89.4202 24.0004C90.4693 24.0004 91.5007 23.8009 91.9874 23.6209L91.9416 20.8586C91.5795 20.9469 91.1637 21.0183 90.5945 21.0183C89.3858 21.0183 88.9817 20.2464 88.9817 18.6569V13.7431H92.0705V10.4117H88.9817V6.29547H85.4831M76.3277 10.6263V23.7047H79.9867V17.0083C79.9867 16.6463 80.0086 16.3309 80.0661 16.0425C80.3368 14.6391 81.4128 13.7431 82.9585 13.7431C83.3821 13.7431 83.6854 13.7891 84.014 13.8356V10.4117C83.7383 10.357 83.5511 10.3314 83.2081 10.3314C81.8427 10.3314 80.2891 11.2097 79.6372 13.0937H79.5383V10.6263H76.3277ZM41.5652 10.6263V23.7047H45.13V16.0355C45.13 15.6756 45.1725 15.295 45.2975 14.9651C45.5929 14.1929 46.3138 13.2886 47.4642 13.2886C48.9034 13.2886 49.5754 14.5009 49.5754 16.2504V23.7037H53.1375V15.9411C53.1375 15.5977 53.1845 15.1838 53.2864 14.881C53.5788 14.0022 54.3554 13.2876 55.425 13.2876C56.8833 13.2876 57.5833 14.4786 57.5833 16.5379V23.7033H61.1477V16C61.1477 11.9381 59.0785 10.3301 56.7424 10.3301C55.7087 10.3301 54.892 10.5882 54.1534 11.0394C53.5332 11.4203 52.9769 11.96 52.4916 12.6694H52.4389C51.8756 11.2599 50.5502 10.3308 48.823 10.3308C46.6042 10.3308 45.607 11.4521 45.0021 12.4029H44.949V10.6259H41.5652" fill="var(--fill-0, #1A75CF)"/>
<path id="Vector_3" d="M125.874 23.0688H125.928C125.999 23.0688 126.045 23.0394 126.045 22.9957C126.045 22.946 126.002 22.9189 125.935 22.9189C125.913 22.9189 125.889 22.9236 125.874 22.9236V23.07V23.0686L125.874 23.0688ZM125.866 23.4214H125.676V22.8059C125.719 22.7975 125.819 22.7826 125.948 22.7826C126.087 22.7826 126.15 22.8022 126.196 22.833C126.234 22.8598 126.262 22.9058 126.262 22.9678C126.262 23.031 126.204 23.0845 126.118 23.1078V23.1157C126.188 23.1343 126.226 23.185 126.246 23.2739C126.265 23.3627 126.277 23.399 126.289 23.4218H126.075C126.056 23.399 126.045 23.3445 126.032 23.2902C126.02 23.2279 125.991 23.1966 125.927 23.1966H125.865L125.866 23.4214V23.4214ZM125.944 22.6054C125.672 22.6054 125.467 22.8264 125.467 23.1081C125.467 23.3826 125.672 23.6065 125.951 23.6065C126.231 23.6111 126.437 23.3827 126.437 23.1036C126.437 22.8258 126.231 22.6054 125.948 22.6054H125.944ZM125.956 22.4383C126.335 22.4383 126.638 22.7361 126.638 23.1035C126.638 23.4753 126.335 23.7734 125.951 23.7734C125.566 23.7734 125.26 23.4749 125.26 23.1036C125.26 22.7361 125.567 22.4385 125.951 22.4385H125.955" fill="var(--fill-0, #FDBB30)"/>
</g>
<defs>
<clipPath id="clip0_418_261">
<rect width="127" height="30" fill="white"/>
</clipPath>
</defs>
</svg>
