<svg preserveAspectRatio="none" width="100%" height="100%" overflow="visible" style="display: block;" viewBox="0 0 75.5159 25.1434" fill="none" xmlns="http://www.w3.org/2000/svg">
<g id="Vector">
<path d="M7.59442 22.6487C5.96384 22.6487 4.7776 22.1595 4.03569 21.1811C3.29378 20.2028 2.91467 18.6599 2.89836 16.5524V13.495C2.89836 11.3427 3.27747 9.78344 4.03569 8.81733C4.79391 7.85121 6.00461 7.36816 7.66779 7.36816C8.71638 7.30977 9.75481 7.60002 10.6212 8.19363C10.957 8.41859 11.238 8.71619 11.4434 9.06441C11.6487 9.41263 11.7731 9.80256 11.8074 10.2054C11.8143 10.2394 11.8327 10.27 11.8593 10.2922C11.886 10.3145 11.9194 10.327 11.9542 10.3276H14.4979C14.5384 10.3276 14.5773 10.3115 14.6059 10.2829C14.6346 10.2542 14.6507 10.2153 14.6507 10.1748C14.6405 8.95294 14.161 7.78177 13.3116 6.90344C12.1131 5.55822 10.1809 4.88561 7.51493 4.88561C5.04461 4.88561 3.17352 5.60714 1.90168 7.05019C0.629829 8.49325 -0.0040569 10.6456 1.95356e-05 13.5073V17.1394C1.95356e-05 19.789 0.635945 21.7845 1.90779 23.1256C3.17964 24.4668 5.05276 25.1394 7.52715 25.1434C10.5111 25.1434 12.5677 24.2996 13.6968 22.612C14.034 22.1332 14.2997 21.608 14.4856 21.0527C14.6298 20.4914 14.7017 19.914 14.6996 19.3345C14.6997 19.295 14.6844 19.257 14.657 19.2285C14.6297 19.2 14.5924 19.1832 14.5529 19.1817H11.9603C11.9256 19.1823 11.8921 19.1948 11.8654 19.2171C11.8388 19.2393 11.8205 19.2699 11.8135 19.3039C11.4161 21.3462 10.0464 22.6487 7.59442 22.6487Z" fill="#25314C"/>
<path d="M58.2115 7.49656C58.2504 7.49656 58.2877 7.4811 58.3152 7.45358C58.3428 7.42606 58.3582 7.38873 58.3582 7.34981V5.03236C58.3591 5.01285 58.3559 4.99338 58.3488 4.97519C58.3418 4.95699 58.331 4.94046 58.3172 4.92666C58.3034 4.91285 58.2868 4.90207 58.2686 4.89501C58.2504 4.88794 58.231 4.88474 58.2115 4.8856H53.9312V0.14675C53.9312 0.107829 53.9158 0.0705032 53.8882 0.042982C53.8607 0.0154607 53.8234 0 53.7845 0L51.1796 0.794904C51.1407 0.794904 51.1034 0.810365 51.0759 0.837886C51.0483 0.865407 51.0329 0.902733 51.0329 0.941654V4.8856H48.1896C48.1506 4.8856 48.1133 4.90107 48.0858 4.92859C48.0583 4.95611 48.0428 4.99344 48.0428 5.03236V7.34981C48.0428 7.38873 48.0583 7.42606 48.0858 7.45358C48.1133 7.4811 48.1506 7.49656 48.1896 7.49656H51.0329V19.7259C51.0329 21.4135 51.412 22.6487 52.1702 23.4313C52.9284 24.214 54.1493 24.6135 55.8329 24.6298H58.2176C58.2565 24.6298 58.2938 24.6143 58.3214 24.5868C58.3489 24.5593 58.3643 24.522 58.3643 24.4831V22.2084C58.3643 22.1695 58.3489 22.1322 58.3214 22.1046C58.2938 22.0771 58.2565 22.0617 58.2176 22.0617H56.0897C55.7887 22.0948 55.4841 22.0567 55.2005 21.9505C54.9169 21.8443 54.6623 21.6729 54.4571 21.4502C54.0704 20.8047 53.897 20.0536 53.9618 19.3039V7.49656H58.2115Z" fill="#25314C"/>
<path d="M32.1142 10.1625C32.101 9.91169 32.0578 9.66331 31.9857 9.42268C31.7318 8.55308 31.3009 7.74535 30.72 7.05019C29.4482 5.60714 27.5771 4.88561 25.1068 4.88561C22.4408 4.88561 20.5065 5.55822 19.304 6.90344C18.4904 7.78846 18.052 8.95464 18.081 10.1564C18.081 10.197 18.0971 10.2359 18.1258 10.2645C18.1545 10.2932 18.1934 10.3093 18.2339 10.3093H20.7776C20.8132 10.3083 20.8473 10.295 20.8741 10.2715C20.9009 10.2481 20.9187 10.216 20.9243 10.1809C20.9413 9.78362 21.0493 9.39557 21.2402 9.04673C21.431 8.6979 21.6995 8.39764 22.025 8.16917C22.8942 7.57678 23.9341 7.28671 24.9845 7.3437C26.6477 7.3437 27.8584 7.82675 28.6166 8.79287C28.9658 9.25246 29.1778 9.80152 29.228 10.3766C29.228 10.5783 29.228 10.7862 29.228 10.988V13.1526C28.4698 13.0548 27.7116 12.9814 26.9534 12.9325C26.1952 12.8836 25.5715 12.8591 25.0823 12.8591C22.4122 12.8591 20.4535 13.3605 19.2061 14.3633C17.9587 15.3661 17.3351 16.958 17.3351 19.1389C17.3351 21.1771 17.9282 22.6629 19.1144 23.5964C20.16 24.4036 22.3552 24.8194 24.5687 24.9417C25.1523 24.9671 25.737 24.9467 26.3175 24.8805C28.1829 24.7187 30.0211 24.3265 31.7901 23.7126C31.8845 23.6845 31.9677 23.6275 32.0281 23.5497C32.0884 23.4718 32.1228 23.3769 32.1264 23.2785V10.9391C32.1447 10.6578 32.1325 10.3949 32.1142 10.1625ZM21.97 21.9822C21.653 21.8765 21.3632 21.7022 21.1212 21.4718C20.8791 21.2414 20.6909 20.9606 20.5697 20.6492C20.3956 20.1609 20.3127 19.6448 20.3251 19.1266C20.3251 17.7529 20.6859 16.7725 21.4074 16.1855C22.1289 15.5985 23.4334 15.305 25.3208 15.305C25.7305 15.305 28.1702 15.5129 29.0813 15.6168C29.1267 15.6214 29.1688 15.6427 29.1993 15.6766C29.2298 15.7105 29.2466 15.7546 29.2464 15.8003V21.548C29.2463 21.5881 29.234 21.6271 29.211 21.6599C29.188 21.6927 29.1556 21.7177 29.118 21.7315C26.8273 22.597 24.3156 22.6851 21.97 21.9822Z" fill="#25314C"/>
<path d="M75.4793 10.1625C75.4602 9.91944 75.413 9.67937 75.3386 9.44713C75.0847 8.57753 74.6538 7.76981 74.0729 7.07465C72.801 5.63159 70.9299 4.91006 68.4596 4.91006C65.7855 4.91006 63.8512 5.58267 62.6568 6.9279C61.8433 7.81292 61.4049 8.9791 61.4339 10.1809C61.4339 10.2214 61.45 10.2603 61.4787 10.289C61.5073 10.3177 61.5462 10.3338 61.5868 10.3338H64.1305C64.166 10.3328 64.2002 10.3194 64.227 10.296C64.2538 10.2725 64.2715 10.2405 64.2772 10.2053C64.2941 9.80808 64.4022 9.42002 64.593 9.07119C64.7839 8.72236 65.0524 8.42209 65.3778 8.19363C66.2467 7.60039 67.2869 7.31025 68.3373 7.36815C70.0005 7.36815 71.2112 7.85121 71.9694 8.81732C72.3214 9.2754 72.5337 9.82529 72.5809 10.401C72.5809 10.6028 72.6115 10.8107 72.6115 11.0125V13.1771C71.8533 13.0792 71.095 13.0059 70.3368 12.9569C69.5786 12.908 68.9488 12.8836 68.4596 12.8836C65.7936 12.8836 63.837 13.385 62.5896 14.3878C61.3422 15.3906 60.7205 16.9824 60.7246 19.1633C60.7246 21.2015 61.3177 22.6874 62.504 23.6209C63.5496 24.428 65.7447 24.8438 67.9582 24.9661C68.5419 24.9916 69.1266 24.9711 69.707 24.905C71.5725 24.7432 73.4107 24.3509 75.1796 23.7371C75.2741 23.709 75.3573 23.652 75.4176 23.5741C75.478 23.4962 75.5123 23.4014 75.5159 23.3029V10.9391C75.5098 10.6578 75.4976 10.3949 75.4793 10.1625ZM65.335 21.9822C65.0181 21.8765 64.7283 21.7022 64.4863 21.4718C64.2442 21.2414 64.056 20.9606 63.9348 20.6492C63.7607 20.1609 63.6778 19.6448 63.6902 19.1266C63.6902 17.7529 64.051 16.7725 64.7725 16.1855C65.494 15.5985 66.7985 15.305 68.6859 15.305C69.0956 15.305 71.5353 15.5129 72.4464 15.6168C72.4913 15.6226 72.5326 15.6443 72.5629 15.678C72.5932 15.7116 72.6104 15.755 72.6115 15.8003V21.548C72.6098 21.5877 72.5968 21.626 72.5741 21.6585C72.5513 21.691 72.5197 21.7163 72.4831 21.7315C70.1924 22.597 67.6807 22.6851 65.335 21.9822Z" fill="#25314C"/>
<path d="M45.5724 7.71664C45.6086 7.71506 45.6428 7.69955 45.6679 7.67334C45.693 7.64714 45.7069 7.61226 45.7069 7.576V5.02619C45.7069 4.53702 42.35 5.28912 42.0381 5.38695C41.3331 5.54614 40.6708 5.85587 40.0967 6.29492C39.5225 6.73397 39.0501 7.29196 38.7118 7.93065V5.6132C38.7118 5.59232 38.7076 5.57165 38.6997 5.55236C38.6917 5.53307 38.68 5.51554 38.6652 5.50078C38.6504 5.48602 38.6329 5.47431 38.6136 5.46632C38.5943 5.45833 38.5737 5.45421 38.5528 5.45421H36.0274C35.9853 5.45421 35.9448 5.47096 35.915 5.50078C35.8852 5.53059 35.8685 5.57103 35.8685 5.6132V24.483C35.8684 24.5258 35.885 24.5668 35.9146 24.5976C35.9443 24.6284 35.9847 24.6465 36.0274 24.6481H38.6323C38.675 24.6465 38.7154 24.6284 38.7451 24.5976C38.7747 24.5668 38.7913 24.5258 38.7912 24.483V13.9108C38.7636 12.6685 39.0144 11.4359 39.525 10.3031C39.8459 9.58605 40.3579 8.9711 41.0051 8.52567C41.6522 8.08024 42.4094 7.82149 43.1938 7.77778C43.7596 7.70662 44.3295 7.6719 44.8998 7.67383L45.5724 7.71664Z" fill="#25314C"/>
</g>
</svg>
