<svg preserveAspectRatio="none" width="100%" height="100%" overflow="visible" style="display: block;" viewBox="0 0 12.7959 15.251" fill="none" xmlns="http://www.w3.org/2000/svg">
<path id="Vector" d="M5.0458 6.1716C4.9676 6.1716 4.9163 6.2235 4.9163 6.3016V6.388V6.6411V8.2441V8.4594V8.5836C4.9163 8.6618 4.9676 8.7143 5.0458 8.7143H5.1205H12.4657C12.6757 8.7143 12.7959 8.5941 12.7959 8.4139C12.7959 6.0514 12.6448 5.0522 12.3164 4.0243C11.5062 1.5429 9.3496 0 6.3828 0C3.5064 0 1.2898 1.4822 0.4795 4.0243C0.1815 4.9623 0 6.1127 0 7.6258C0 9.1389 0.21 10.2578 0.5116 11.1969C1.3201 13.7379 3.4767 15.251 6.5327 15.251C9.1985 15.251 11.2378 14.222 12.4651 12.7696C12.5841 12.6191 12.5841 12.468 12.4348 12.3455L10.6685 10.7723C10.5174 10.6515 10.3681 10.683 10.2176 10.8329C9.4995 11.6204 8.4507 12.2253 6.8325 12.2253C5.2161 12.2253 4.0763 11.439 3.5968 10.0174C3.5245 9.8185 3.4644 9.6097 3.4265 9.3828H3.4259C3.3168 8.7668 3.2527 8.1671 3.2527 7.2863C3.276 6.4562 3.3238 5.926 3.4417 5.2522C3.4428 5.2429 3.4446 5.2347 3.4463 5.226C3.4475 5.219 3.4487 5.2137 3.4498 5.2067V5.2073C3.4784 5.0487 3.5175 4.8993 3.5659 4.7506C3.9556 3.5705 5.0341 2.8746 6.4137 2.8746C7.7624 2.8746 8.8392 3.5705 9.2288 4.7506C9.3496 5.1157 9.4085 5.4768 9.4085 5.9925C9.4085 6.1132 9.349 6.1727 9.2288 6.1727H5.292L5.2926 6.1721L5.0458 6.1716Z" fill="var(--fill-0, #204156)"/>
</svg>
