<svg preserveAspectRatio="none" width="100%" height="100%" overflow="visible" style="display: block;" viewBox="0 0 236.375 24" fill="none" xmlns="http://www.w3.org/2000/svg">
<g id="Vector">
<path d="M177.315 0.229445H175.709V1.83556C175.709 2.24857 175.893 2.75335 176.719 2.75335H178.325V1.14723C178.325 0.780115 178.187 0.229445 177.315 0.229445Z" fill="#356AE6"/>
<path d="M177.178 5.41494H175.893V18.6769C175.893 19.2276 176.26 19.5947 176.765 19.6406V19.6864H178.233V6.37861C178.187 5.78205 177.866 5.41494 177.178 5.41494Z" fill="#356AE6"/>
<path d="M99.4417 15.7858C98.891 15.2352 98.2027 15.3728 97.7897 15.74C96.0918 17.1625 94.5315 17.7132 92.5124 17.7132C88.4742 17.7132 85.2619 14.3174 85.2619 9.95794C85.2619 5.59847 88.3824 2.24856 92.5124 2.24856C94.4857 2.24856 96.1377 2.84512 97.6979 4.17591C98.065 4.49713 98.7075 4.6348 99.1664 4.13002C99.5794 3.71702 99.9923 3.25813 99.9923 3.25813L100.084 3.16635L99.9923 3.07457C98.3403 1.46845 96.2753 0 92.5124 0C87.0516 0 82.8298 4.40535 82.8298 10.0038C82.8298 15.6482 86.9598 19.9159 92.4665 19.9159C95.5411 19.9159 97.7897 18.9063 100.084 16.5201L100.13 16.4283L100.084 16.3365C100.084 16.4283 99.9465 16.2447 99.4417 15.7858Z" fill="#356AE6"/>
<path d="M134.317 5.0937C132.298 5.0937 130.692 5.96559 129.453 7.70938C128.902 6.60804 127.618 5.00192 124.956 5.00192C122.662 5.00192 121.423 6.19504 120.505 7.38816V6.3786C120.505 5.69026 120.092 5.27726 119.449 5.27726H118.164V19.5488H119.449C120.092 19.5488 120.459 19.3652 120.459 18.5851V11.4723C120.459 8.99427 122.065 7.15871 124.222 7.15871C126.424 7.15871 127.709 8.67305 127.709 11.2428V18.5851C127.709 19.2734 128.076 19.5947 128.719 19.5947H130.004V11.4264C130.004 8.48949 131.885 7.2046 133.767 7.2046C136.015 7.2046 137.3 8.71894 137.3 11.2887V18.4474C137.3 19.044 137.438 19.5947 138.356 19.5947H139.595V10.8298C139.641 7.29638 137.621 5.0937 134.317 5.0937Z" fill="#356AE6"/>
<path d="M150.883 5.13956C148.772 5.13956 147.029 6.05734 145.606 8.03057V6.56212C145.606 5.82789 145.193 5.46078 144.459 5.46078H143.312V22.9904C143.312 23.6788 143.633 24 144.321 24H145.606V17.2084C147.029 19.044 148.726 19.9617 150.883 19.9617C154.187 19.9617 157.675 17.3461 157.675 12.5277C157.675 7.70935 154.187 5.13956 150.883 5.13956ZM155.289 12.5277C155.289 15.6482 153.315 17.8049 150.47 17.8049C148.038 17.8049 145.514 15.7858 145.514 12.4818C145.514 9.1778 148.038 7.15868 150.47 7.15868C152.856 7.20457 155.289 9.04013 155.289 12.5277Z" fill="#356AE6"/>
<path d="M193.331 6.42449V7.6176C192.367 6.3786 190.669 5.00192 187.962 5.00192C186.264 5.00192 184.566 5.64437 183.327 6.7916C181.996 8.0306 181.262 9.82028 181.262 11.7476C181.262 16.1071 184.704 18.4474 187.962 18.4474C190.073 18.4474 191.862 17.5755 193.377 15.74V17.1166C193.377 20.2371 191.541 22.0268 188.421 22.0268C186.906 22.0268 185.438 21.6597 184.061 20.8796C183.694 20.6501 183.419 20.5583 183.189 20.5583C182.914 20.5583 182.639 20.696 182.455 21.0172C182.088 21.6138 181.95 21.8891 181.95 21.8891L181.904 21.9809L181.996 22.0268C183.878 23.3576 186.034 24 188.421 24C193.01 24 195.671 21.4761 195.671 17.0708V5.36904H194.386C193.973 5.36904 193.331 5.73615 193.331 6.42449ZM193.468 11.8853C193.468 14.8222 190.899 16.566 188.421 16.566C185.713 16.566 183.694 14.5469 183.694 11.8853C183.694 9.17783 185.713 7.25049 188.421 7.25049C190.853 7.2046 193.468 8.81072 193.468 11.8853Z" fill="#356AE6"/>
<path d="M206.501 5.13956C204.482 5.13956 202.922 5.96556 201.82 7.61757V6.42445C201.82 5.73611 201.27 5.46078 200.719 5.46078H199.434V19.7323H201.774L201.729 11.564C201.729 9.04013 203.426 7.29634 205.859 7.29634C208.245 7.29634 209.621 8.81068 209.621 11.4264V18.7686C209.621 19.457 209.943 19.7323 210.539 19.7323H211.916V10.8298C211.962 7.34223 209.851 5.13956 206.501 5.13956Z" fill="#356AE6"/>
<path d="M166.302 5.18549C164.513 5.18549 162.906 5.5526 161.163 6.33272L161.071 6.37861L161.117 6.47039C161.117 6.47039 161.346 7.11283 161.53 7.57172C161.713 8.03061 162.264 8.07651 162.677 7.89295C163.87 7.43406 164.926 7.20461 166.119 7.20461C168.734 7.20461 170.157 8.5354 170.157 10.9216V14.3633C170.157 16.5201 168.23 18.0344 165.568 18.0344C163.916 18.0344 162.126 17.2084 162.126 15.3729C162.126 13.6291 163.549 12.6654 166.119 12.6654H167.266C167.954 12.6654 168.275 12.3442 168.275 11.7017V10.9216H165.889C161.989 10.9216 159.786 12.5736 159.786 15.4188C159.786 17.5755 161.438 19.9618 165.155 19.9618C167.174 19.9618 168.872 19.1817 170.111 17.7132V18.6769C170.111 19.3193 170.432 19.5947 171.121 19.5947H172.405V10.8757C172.36 7.2505 170.203 5.18549 166.302 5.18549Z" fill="#356AE6"/>
<path d="M108.528 5.18549C106.325 5.18549 104.765 5.73616 103.388 6.33272L103.296 6.4245L103.342 6.51628C103.342 6.51628 103.572 7.15872 103.755 7.61762C103.939 8.07651 104.489 8.12239 104.902 7.93884C106.096 7.47995 107.151 7.2505 108.344 7.2505C110.96 7.2505 112.428 8.58128 112.428 10.9675V14.3633C112.428 16.5201 110.501 18.0344 107.839 18.0344C106.187 18.0344 104.444 17.2084 104.444 15.3729C104.444 13.6291 105.866 12.6654 108.39 12.6654H109.537C110.226 12.6654 110.547 12.3442 110.547 11.7017V10.9216H108.206C104.306 10.9216 102.057 12.5736 102.057 15.4188C102.057 17.5755 103.709 19.9618 107.38 19.9618C109.4 19.9618 111.097 19.1817 112.382 17.7132V18.6769C112.382 19.3193 112.704 19.5947 113.346 19.5947H114.631V10.8757C114.585 7.2505 112.428 5.18549 108.528 5.18549Z" fill="#356AE6"/>
<path d="M235.549 10.5086C235.228 10.2333 222.149 1.10136 221.553 0.734247L221.369 0.596581V2.84515C221.369 3.57937 221.736 3.80882 222.195 4.17593L222.287 4.22182C222.929 4.68071 232.245 11.1511 233.484 12.023C232.245 12.8949 222.792 19.457 222.195 19.8241C221.461 20.283 221.415 20.6042 221.415 21.2467V23.4035C221.415 23.4035 235.319 13.7209 235.595 13.4914C236.237 13.0325 236.375 12.436 236.375 12.0689V11.7935C236.375 11.3346 236.099 10.8757 235.549 10.5086Z" fill="#356AE6"/>
<path d="M227.381 13.0325C227.748 13.0325 228.115 12.8948 228.482 12.6195C228.941 12.2983 229.354 12.0229 229.354 12.0229L229.492 11.9312L229.354 11.8394C229.308 11.7935 223.205 7.57169 222.562 7.15869C222.287 6.92924 221.92 6.88335 221.69 7.02102C221.461 7.15869 221.277 7.38813 221.277 7.75525V9.17781L221.323 9.2237C221.369 9.26959 225.545 12.1606 226.371 12.7113C226.738 12.9407 227.059 13.0325 227.381 13.0325Z" fill="#356AE6"/>
<path d="M32.7647 16.3824C32.26 15.8776 31.6175 16.1989 31.3422 16.4283C30.2867 17.392 29.0936 17.8509 27.8087 17.8509C25.0095 17.8509 22.8068 15.5105 22.8068 12.4818C22.8068 9.49904 24.9636 7.1587 27.671 7.1587C29.2313 7.1587 30.2408 7.84704 31.0668 8.48948C31.6634 8.99426 32.1682 9.04015 32.5812 8.58126C32.9483 8.21415 33.3613 7.75526 33.3613 7.75526L33.4531 7.66348L33.3613 7.5717C31.7552 5.82791 29.9655 5.0478 27.671 5.0478C23.5869 5.0478 20.3288 8.30593 20.3288 12.4818C20.3288 16.566 23.6328 19.9159 27.671 19.9159C30.6538 19.9159 32.3517 18.4015 33.4531 17.1166H33.5448L33.4531 17.0249C33.4531 17.0249 33.2236 16.8413 32.7647 16.3824Z" fill="#356AE6"/>
<path d="M48 0.229445H46.3939V1.83556C46.3939 2.24857 46.5775 2.75335 47.4035 2.75335H49.0096V1.33078C49.0555 0.688335 48.6425 0.229445 48 0.229445Z" fill="#356AE6"/>
<path d="M47.8164 5.41494H46.4856V18.6769C46.4856 19.2276 46.8527 19.5947 47.3575 19.6406V19.6864H48.8259V6.37861C48.8718 5.78205 48.5047 5.41494 47.8164 5.41494Z" fill="#356AE6"/>
<path d="M62.9139 6.19502C62.7303 6.6998 59.2427 15.1434 58.5544 16.7036C57.912 15.0975 54.4244 6.65391 54.2408 6.19502C54.0114 5.64435 53.5525 5.32312 52.9559 5.32312H51.3039L51.3957 5.46079C51.4416 5.64435 56.9942 18.4474 57.2236 18.9522C57.4531 19.5487 57.8202 19.6864 58.4167 19.6864H58.6921C59.2427 19.6864 59.6099 19.457 59.8393 18.9522C60.0687 18.4474 65.6213 5.73613 65.6672 5.59846L65.759 5.4149H64.1529C63.5563 5.4149 63.1433 5.64435 62.9139 6.19502Z" fill="#356AE6"/>
<path d="M77.2773 11.7017H71.8165C71.2199 11.7017 70.8528 12.0688 70.8528 12.6654V13.5832H70.9905C73.6062 13.5373 76.6348 13.5373 77.8738 13.5373C78.6081 13.5373 79.1587 13.3537 79.5717 12.9407C79.9389 12.5277 80.1224 11.8853 80.0765 11.151C79.6635 7.47991 77.0478 5.09368 73.4685 5.09368C69.5679 5.09368 66.5851 8.30592 66.5851 12.5277C66.5851 16.7954 69.6597 19.9617 73.7438 19.9617C76.1301 19.9617 77.9197 19.1357 79.6176 17.3002L79.7094 17.2084L79.6176 17.1166C79.6176 17.1166 79.2964 16.8413 78.9293 16.5201C78.3786 16.0612 77.8738 16.2447 77.5985 16.5201C76.589 17.4378 75.3499 17.8967 73.8356 17.8967C71.2199 17.8967 69.2926 16.0153 68.9714 13.2161C68.9714 13.2161 68.9255 12.8948 68.9255 12.4818C68.9255 12.0229 68.9714 11.7017 68.9714 11.7017C69.2467 8.94836 71.0823 7.02102 73.4226 7.02102C75.7629 7.02102 77.4608 8.58125 77.6903 10.9675C77.7362 11.1969 77.6903 11.3805 77.6444 11.4723C77.5067 11.6558 77.415 11.7017 77.2773 11.7017Z" fill="#356AE6"/>
<path d="M11.2887 0.96367C11.0134 0.413001 10.6922 0.229445 10.0956 0.229445H9.54493C9.08604 0.229445 8.67304 0.50478 8.4436 0.917782C8.26004 1.33078 0.183555 19.3193 0.0917768 19.5029L0 19.6864H1.51434C2.15679 19.6864 2.56979 19.4111 2.89101 18.7686C3.16635 18.218 4.49713 15.1893 4.72658 14.6845H10.6463C11.3805 14.6845 11.8394 14.2256 11.8394 13.5373V12.5277H5.64436L9.82027 3.16635C10.6922 5.09369 16.5201 18.4015 16.7954 18.9522C17.1625 19.6864 18.0344 19.6864 18.3098 19.6864H19.6864L19.5946 19.5029C19.5946 19.3193 11.5641 1.56023 11.2887 0.96367Z" fill="#356AE6"/>
<path d="M43.0899 17.6214C42.8605 17.4837 42.5392 17.4379 42.218 17.5296C41.7132 17.6673 41.3461 17.7591 40.8872 17.7591C39.4188 17.7591 38.6387 17.0248 38.6387 15.5105V7.47991H43.0899V6.51624C43.0899 5.78202 42.4475 5.4149 41.8968 5.4149H38.5928V1.37666C38.5928 0.734216 38.1339 0.275324 37.4456 0.275324H36.2983V15.8317C36.2983 18.4474 37.7209 19.9159 40.3825 19.9159C41.392 19.9159 42.5392 19.6864 43.2735 19.3193L43.3194 19.2734V19.2275C43.3194 19.2275 43.3652 18.8145 43.3652 18.3097C43.4111 17.9426 43.2276 17.7591 43.0899 17.6214Z" fill="#356AE6"/>
</g>
</svg>
