<svg preserveAspectRatio="none" width="100%" height="100%" overflow="visible" style="display: block;" viewBox="0 0 168.286 32" fill="none" xmlns="http://www.w3.org/2000/svg">
<path id="Vector" d="M166.801 14.878C167.789 15.9261 168.286 17.347 168.286 19.1473V28.618H164.621V20.221C164.621 19.1601 164.322 18.3243 163.723 17.7135C163.123 17.1027 162.314 16.7941 161.288 16.7941C160.077 16.8133 159.114 17.2313 158.407 18.0414C157.699 18.8515 157.342 19.8931 157.342 21.1597V28.618H153.703V7.57404H157.342V16.3376C158.369 14.3508 160.172 13.3414 162.747 13.3028C164.456 13.3028 165.813 13.8236 166.801 14.878ZM145.608 16.5626C144.397 16.5626 143.409 16.9805 142.657 17.8099C141.905 18.6458 141.523 19.7195 141.523 21.044C141.523 22.4071 141.905 23.5001 142.657 24.3359C143.416 25.1654 144.397 25.5833 145.615 25.5833C147.406 25.5833 148.751 24.9853 149.649 23.7959L151.918 25.699C151.249 26.6827 150.331 27.4671 149.261 27.9687C148.158 28.4959 146.883 28.7595 145.424 28.7595C143.951 28.7595 142.638 28.438 141.491 27.7951C140.363 27.1714 139.432 26.2262 138.82 25.0882C138.183 23.9245 137.864 22.5871 137.864 21.0761C137.864 19.5459 138.189 18.1893 138.833 17.0191C139.451 15.8682 140.388 14.9295 141.523 14.2994C142.67 13.6564 143.989 13.3349 145.487 13.3349C146.851 13.3349 148.069 13.5728 149.139 14.0551C150.21 14.5373 151.083 15.2252 151.759 16.1125L149.547 18.2407C148.521 17.122 147.215 16.5626 145.608 16.5626ZM135.538 13.4442V28.618H131.898V26.207C131.382 27.0171 130.662 27.6793 129.814 28.123C128.966 28.5666 127.991 28.7916 126.889 28.7916C125.467 28.7916 124.224 28.4637 123.147 27.8143C122.076 27.165 121.235 26.2455 120.642 25.0625C120.05 23.8794 119.75 22.5228 119.75 20.9926C119.75 19.4816 120.05 18.1443 120.649 16.9805C121.242 15.8168 122.083 14.9166 123.154 14.2737C124.224 13.6307 125.461 13.3092 126.863 13.3092C127.966 13.3092 128.947 13.5343 129.801 13.9779C130.656 14.4215 131.382 15.0774 131.898 15.8939V13.4571L135.538 13.4442ZM130.579 24.5738C131.344 23.828 131.784 22.8379 131.898 21.6098V20.5361C131.784 19.3016 131.35 18.3179 130.585 17.572C129.821 16.8262 128.852 16.4533 127.673 16.4533C126.423 16.4533 125.404 16.8841 124.62 17.7456C123.836 18.6072 123.434 19.7195 123.415 21.0761C123.434 22.4392 123.836 23.5451 124.62 24.4067C125.404 25.2682 126.423 25.699 127.673 25.699C128.845 25.699 129.814 25.3261 130.579 24.5738ZM116.085 15.3988C117.29 16.7812 117.889 18.7165 117.889 21.2112C117.889 21.6998 117.876 22.0727 117.863 22.3171H106.805C107.047 23.3972 107.544 24.2395 108.303 24.8567C109.055 25.474 109.985 25.7762 111.088 25.7762C111.84 25.7762 112.592 25.6283 113.287 25.3325C113.982 25.0496 114.606 24.6188 115.123 24.0723L117.079 26.1427C116.321 26.9849 115.39 27.6407 114.345 28.0715C113.274 28.528 112.082 28.7531 110.776 28.7531C109.246 28.7531 107.895 28.4316 106.728 27.7886C105.588 27.1714 104.644 26.2262 104.026 25.0818C103.389 23.918 103.076 22.5807 103.076 21.0697C103.076 19.5588 103.395 18.215 104.045 17.0448C104.67 15.8939 105.607 14.9423 106.748 14.3058C107.908 13.65 109.221 13.3285 110.693 13.3285C113.083 13.3285 114.881 14.0229 116.085 15.3988ZM114.562 19.8545C114.524 18.7358 114.16 17.8485 113.472 17.1863C112.784 16.524 111.866 16.1897 110.725 16.1897C109.66 16.1897 108.768 16.5176 108.048 17.167C107.328 17.8164 106.888 18.7101 106.716 19.8481H114.562V19.8545ZM99.1182 14.1129C99.985 13.5921 100.998 13.3221 102.158 13.3028V16.8776C100.61 16.7812 99.3732 17.1477 98.449 17.9707C97.5248 18.7937 97.0595 19.906 97.0595 21.3012V28.618H93.4201V13.4442H97.0595V16.3633C97.5694 15.3795 98.2514 14.6273 99.1182 14.1129ZM90.6921 27.6793C89.5002 28.4187 88.2446 28.7852 86.938 28.7852C85.6505 28.7852 84.5924 28.3994 83.7766 27.6343C82.9544 26.8692 82.5465 25.7376 82.5465 24.2459V9.89512L86.1604 9.45791V14.0615H90.4435V16.7555H86.1604V23.5965C86.1604 24.2974 86.2879 24.7924 86.5492 25.0818C86.8105 25.3775 87.1993 25.519 87.722 25.519C88.2828 25.519 88.9903 25.3132 89.8508 24.8953L90.6921 27.6793ZM75.803 13.4442H79.4169V21.9506C79.4169 26.9142 75.9942 28.7595 72.5206 28.7595C69.0469 28.7595 65.6305 26.9142 65.6305 21.9506V13.4442H69.2444V22.0792C69.2444 23.9823 70.6467 25.5254 72.5269 25.5254C74.4072 25.5254 75.8094 23.9823 75.8094 22.0792L75.803 13.4442ZM58.1414 9.84368C59.7029 10.6988 61.0032 11.9654 61.9083 13.5021C62.8261 15.0516 63.2786 16.7748 63.2786 18.6651C63.2786 20.5554 62.8197 22.2785 61.9083 23.8409C61.0032 25.3904 59.7029 26.6699 58.1414 27.5443C56.5416 28.4509 54.776 28.9074 52.832 28.9074C50.888 28.9074 49.1225 28.4509 47.5291 27.5443C45.9675 26.6699 44.6673 25.3904 43.7622 23.8409C42.8507 22.2785 42.3918 20.5554 42.3918 18.6651C42.3918 16.7748 42.8507 15.0516 43.7622 13.5021C44.6673 11.959 45.9675 10.6988 47.5291 9.84368C49.1225 8.9564 50.8944 8.51276 52.832 8.51276C54.776 8.50633 56.5479 8.94997 58.1414 9.84368ZM49.5623 12.8077C48.5489 13.3864 47.7075 14.2287 47.1275 15.2445C46.5284 16.2797 46.2288 17.4177 46.2288 18.6651C46.2288 19.9124 46.5348 21.0569 47.1403 22.0985C47.7267 23.1208 48.568 23.9695 49.575 24.5674C50.5948 25.1718 51.6975 25.474 52.8958 25.474C54.0494 25.4804 55.1839 25.1654 56.1719 24.5674C57.1726 23.9695 57.9948 23.1208 58.5684 22.0985C59.1612 21.0504 59.4607 19.8674 59.448 18.6651C59.448 17.4177 59.1548 16.2797 58.5684 15.2445C58.0011 14.2351 57.1726 13.3928 56.1719 12.8077C55.1776 12.2162 54.0494 11.9076 52.8958 11.914C51.723 11.9076 50.5757 12.2162 49.5623 12.8077ZM14.9656 0C20.1219 0 27.9107 1.60096 31.531 5.27225C32.4488 6.20454 33.6534 8.02411 33.6534 10.6988C33.6534 15.4438 29.8738 22.7286 25.7053 26.9592C23.551 29.1453 20.1219 32 15.5073 32C10.9947 32 7.5529 28.9009 6.55859 27.8851C2.73434 24.0145 0 18.1378 0 12.6663C0 9.20715 0.975184 6.18525 3.45457 3.67129C5.74912 1.35021 9.70722 0 14.9656 0ZM21.3457 18.9351C23.0857 17.1734 23.5574 15.0002 23.5574 13.8043C23.5574 12.9363 23.3343 11.6697 22.2635 10.5831C20.6255 8.91782 18.8026 8.44846 16.8267 8.44846C14.3218 8.44846 12.6391 9.25216 11.5174 10.3838C10.6378 11.2839 9.87932 12.647 9.87932 14.5951C9.87932 16.5369 10.9055 18.4143 12.0145 19.5459C13.0471 20.5875 14.666 21.3591 16.2913 21.3591C17.923 21.3591 19.6057 20.6968 21.3457 18.9351Z" fill="var(--fill-0, #5952FF)"/>
</svg>
