<svg preserveAspectRatio="none" width="100%" height="100%" overflow="visible" style="display: block;" viewBox="0 0 94.1238 17.621" fill="none" xmlns="http://www.w3.org/2000/svg">
<path id="Vector" d="M0 14.548L2.98262 12.1987C3.82764 13.6528 5.16707 14.5011 6.69878 14.5011C8.3662 14.5011 9.25808 13.4202 9.25808 12.2391C9.25808 10.8302 7.5438 10.3842 5.71319 9.8155C3.4124 9.10943 0.8531 8.21756 0.8531 4.93118C0.8531 2.18446 3.2476 0 6.55821 0C9.35179 0 10.9497 1.05668 12.3344 2.48821L9.63454 4.5321C8.93009 3.47542 7.92027 2.91638 6.58245 2.91638C5.05559 2.91638 4.23319 3.73878 4.23319 4.81808C4.23319 6.13328 5.87799 6.57921 7.7086 7.18996C10.0336 7.94127 12.664 8.96725 12.664 12.2617C12.664 14.9858 10.5038 17.6146 6.72302 17.6146C3.62245 17.6146 1.55271 16.2994 0.0064618 14.5447M26.2668 5.64694H29.4594V6.95406C29.8435 6.46325 30.336 6.06798 30.8983 5.79917C31.4606 5.53036 32.0774 5.39531 32.7006 5.40459C35.4715 5.40459 37.1373 7.18996 37.1373 10.2194V17.3803H33.8768V10.6476C33.8768 9.07389 33.1497 8.15939 31.7166 8.15939C30.4967 8.15939 29.4869 9.00441 29.4869 10.9772V17.3868H26.2668V5.64694ZM37.9 11.5169C37.9 7.35961 40.9537 5.41105 43.6067 5.41105C45.1336 5.41105 46.3308 5.97493 47.1047 6.79734V0.245588H50.3216V17.3868H47.0966V16.0716C46.3179 16.9877 45.077 17.6178 43.5518 17.6178C41.0619 17.6178 37.8967 15.6466 37.8967 11.5136M47.1952 11.4894C47.1952 9.75249 45.9285 8.34358 44.19 8.34358C43.3648 8.36225 42.5797 8.70315 42.0027 9.29335C41.4257 9.88354 41.1027 10.6761 41.1027 11.5015C41.1027 12.3269 41.4257 13.1195 42.0027 13.7097C42.5797 14.2999 43.3648 14.6408 44.19 14.6594C45.9285 14.6594 47.1952 13.2279 47.1952 11.4894ZM51.0729 8.81376C51.0729 3.92943 54.76 0.00807663 59.8318 0.00807663C62.3684 0.00807663 64.5028 0.920962 66.0474 2.37673C66.6727 2.96731 67.2054 3.6487 67.6276 4.39799L64.7581 6.1462C63.7014 4.19603 62.0808 3.18782 59.8512 3.18782C56.728 3.18782 54.3092 5.74712 54.3092 8.82345C54.3092 11.9693 56.6811 14.4575 59.9643 14.4575C62.4541 14.4575 64.2152 13.0486 64.826 10.8657H59.4521V7.73607H68.3515V9.0545C68.3515 13.6561 65.0635 17.6178 59.9675 17.6178C54.6146 17.6178 51.0681 13.5559 51.0681 8.81376M69.1642 5.64371H72.3584V7.56803C72.9449 6.34816 74.0016 5.64371 75.598 5.64371H76.8905L75.724 8.77013H74.8467C73.1324 8.77013 72.3811 9.66201 72.3811 11.84V17.3819H69.1658L69.1642 5.64371ZM77.7275 5.64371H80.9444V17.3835H77.7356V8.77013H76.5674L77.7275 5.64371ZM79.3351 3.85672C79.7158 3.85704 80.088 3.74446 80.4047 3.5332C80.7213 3.32195 80.9682 3.02152 81.1141 2.66993C81.26 2.31833 81.2984 1.93136 81.2243 1.55797C81.1502 1.18459 80.9671 0.841553 80.698 0.57227C80.429 0.302987 80.0861 0.119552 79.7128 0.045171C79.3394 -0.0292105 78.9524 0.00880283 78.6007 0.154403C78.249 0.300003 77.9484 0.546649 77.7368 0.863137C77.5253 1.17963 77.4124 1.55174 77.4124 1.9324C77.4124 2.44249 77.6149 2.9317 77.9755 3.29253C78.336 3.65337 78.825 3.85629 79.3351 3.85672M81.7022 11.5169C81.7022 7.35961 84.7543 5.41105 87.4073 5.41105C88.9341 5.41105 90.1314 5.97493 90.9069 6.79734V0.245588H94.1238V17.3868H90.9118V16.0716C90.1362 16.9877 88.8921 17.6211 87.3572 17.6211C84.869 17.6211 81.7022 15.6499 81.7022 11.5169ZM91.0006 11.4926C91.0006 9.75572 89.7323 8.34681 87.9954 8.34681C87.1702 8.36548 86.3851 8.70638 85.8081 9.29658C85.2312 9.88677 84.9081 10.6794 84.9081 11.5047C84.9081 12.3301 85.2312 13.1227 85.8081 13.7129C86.3851 14.3031 87.1702 14.644 87.9954 14.6627C89.7323 14.6627 91.0006 13.2311 91.0006 11.4926ZM25.509 11.4926C25.509 8.11253 23.0434 5.41105 19.4517 5.41105C18.6503 5.41084 17.8568 5.5687 17.1165 5.87561C16.3763 6.18252 15.7038 6.63244 15.1377 7.19961C14.5716 7.76678 14.1229 8.44005 13.8174 9.18087C13.5119 9.92169 13.3555 10.7155 13.3572 11.5169C13.3572 14.8986 15.8938 17.6211 19.5567 17.6211C22.0934 17.6211 23.9191 16.398 24.9451 14.6433L22.3923 13.1213C22.1269 13.636 21.7228 14.0663 21.2258 14.3636C20.7287 14.6608 20.1584 14.8131 19.5793 14.8032C17.8893 14.8032 16.8326 13.9582 16.4561 12.6672H25.5203L25.509 11.4926ZM16.5886 10.0837C16.8304 9.52217 17.2345 9.04563 17.7489 8.71516C18.2633 8.3847 18.8646 8.21537 19.4759 8.22887C20.838 8.22887 21.8478 8.86384 22.2711 10.0837H16.5886Z" fill="var(--fill-0, #243746)"/>
</svg>
