<svg preserveAspectRatio="none" width="100%" height="100%" overflow="visible" style="display: block;" viewBox="0 0 141.917 26" fill="none" xmlns="http://www.w3.org/2000/svg">
<g id="Vector">
<path fill-rule="evenodd" clip-rule="evenodd" d="M2.4389 22.8519C-0.813008 19.6276 -0.812956 14.4 2.43899 11.1757L11.2714 2.41826C14.0205 -0.307421 18.2134 -0.728966 21.409 1.15363C22.3976 1.73593 22.3889 3.07173 21.5759 3.87781C20.7629 4.6839 19.4358 4.61452 18.3323 4.29451C16.9192 3.88472 15.33 4.23234 14.2156 5.33736L5.38311 14.0947C3.75714 15.7069 3.75712 18.3207 5.38307 19.9329C7.00906 21.5451 9.64535 21.5451 11.2713 19.9329L28.936 2.41837C32.1881 -0.805952 37.4605 -0.805966 40.7125 2.41834L49.545 11.1757C52.797 14.3999 52.797 19.6276 49.545 22.8519C46.2931 26.0763 41.0206 26.0763 37.7686 22.8519L34.8245 19.9329L31.1443 23.5818C28.3952 26.3074 24.2023 26.729 21.0066 24.8464C20.0182 24.2641 20.0268 22.9283 20.8399 22.1222C21.6528 21.3161 22.9799 21.3854 24.0835 21.7055C25.4966 22.1153 27.0857 21.7676 28.2001 20.6626L31.9855 16.9095C33.5534 15.3549 36.0955 15.3549 37.6635 16.9095L40.7127 19.9329C42.3387 21.545 44.9749 21.545 46.6009 19.9329C48.2269 18.3207 48.2269 15.7069 46.6009 14.0947L37.7683 5.33745C36.1424 3.7253 33.5062 3.72531 31.8802 5.33747L14.2155 22.852C10.9634 26.0764 5.69087 26.0764 2.4389 22.8519Z" fill="black"/>
<path d="M85.2449 4.67957C83.1987 4.67957 81.6485 5.41229 80.6254 6.87775C79.7263 5.41229 78.3001 4.67957 76.4089 4.67957C74.4557 4.67957 73.0295 5.35123 72.0993 6.72509V5.10699H68.0999V20.3721H72.0993V11.7931C72.0993 9.56441 73.2464 8.3432 75.0137 8.3432C76.6569 8.3432 77.618 9.41176 77.618 11.2436V20.3721H81.6175V11.7931C81.6175 9.56441 82.6717 8.3432 84.5009 8.3432C86.1441 8.3432 87.1051 9.41176 87.1051 11.2436V20.3721H91.1046V10.9688C91.1046 7.15252 88.8104 4.67957 85.2449 4.67957Z" fill="black"/>
<path d="M105.973 6.90827C104.764 5.41229 103.089 4.67957 100.919 4.67957C98.8419 4.67957 97.0748 5.47336 95.5866 7.0304C94.1294 8.58744 93.3853 10.4803 93.3853 12.7396C93.3853 14.9988 94.1294 16.9222 95.5866 18.4793C97.0748 20.0363 98.8419 20.7996 100.919 20.7996C103.089 20.7996 104.764 20.0668 105.973 18.5708V20.3721H109.972V5.10699H105.973V6.90827ZM98.5939 15.8536C97.7878 15.0293 97.3847 13.9913 97.3847 12.7396C97.3847 11.4878 97.7878 10.4498 98.5939 9.65601C99.4 8.83169 100.423 8.43479 101.663 8.43479C102.903 8.43479 103.927 8.83169 104.733 9.65601C105.57 10.4498 105.973 11.4878 105.973 12.7396C105.973 13.9913 105.57 15.0293 104.733 15.8536C103.927 16.6475 102.903 17.0443 101.663 17.0443C100.423 17.0443 99.4 16.6475 98.5939 15.8536Z" fill="black"/>
<path d="M124.729 7.73253V5.10693H113.103V8.8011H119.334L112.792 17.7465V20.372H125.039V16.6779H118.156L124.729 7.73253Z" fill="black"/>
<path d="M141.762 14.3577C141.855 13.7776 141.917 13.2586 141.917 12.7396C141.917 10.4498 141.174 8.55691 139.685 6.99987C138.228 5.44282 136.336 4.67957 134.073 4.67957C131.686 4.67957 129.702 5.44282 128.182 6.99987C126.663 8.52638 125.888 10.4498 125.888 12.7396C125.888 15.0599 126.663 16.9833 128.214 18.5097C129.764 20.0363 131.81 20.7996 134.383 20.7996C137.359 20.7996 139.623 19.7004 141.142 17.5328L137.918 15.701C137.142 16.7085 135.965 17.2275 134.445 17.2275C132.058 17.2275 130.601 16.2811 130.074 14.3577H141.762ZM130.012 11.3046C130.477 9.3507 131.934 8.22108 134.073 8.22108C135.902 8.22108 137.452 9.22858 137.918 11.3046H130.012Z" fill="black"/>
</g>
</svg>
