<svg preserveAspectRatio="none" width="100%" height="100%" overflow="visible" style="display: block;" viewBox="0 0 82.788 25.3419" fill="none" xmlns="http://www.w3.org/2000/svg">
<path id="Vector" d="M0.00050096 23.1706L1.46862 19.7391C3.07608 20.9296 5.17274 21.5596 7.26991 21.5596C8.8077 21.5596 9.78611 20.9647 9.78611 20.0544C9.75102 17.5332 0.524792 19.494 0.454619 13.1554C0.419533 9.93398 3.28559 7.44785 7.34008 7.44785C9.75102 7.44785 12.163 8.04332 13.8752 9.40918L12.5033 12.9138C10.9279 11.9008 8.98213 11.1946 7.13007 11.1946C5.87197 11.1946 5.0329 11.7895 5.0329 12.5604C5.06799 15.0466 14.3649 13.6807 14.4697 19.7391C14.4697 23.0307 11.6733 25.3419 7.68894 25.3419C4.75371 25.3419 2.06258 24.6417 0 23.1706H0.00050096ZM58.4585 18.4966C58.088 19.155 57.5489 19.703 56.8967 20.0844C56.2444 20.4658 55.5025 20.6669 54.7469 20.6669C52.3921 20.6669 50.4834 18.7542 50.4834 16.3949C50.4834 14.0356 52.3921 12.1229 54.7469 12.1229C55.5025 12.1229 56.2444 12.324 56.8967 12.7054C57.5489 13.0867 58.088 13.6348 58.4585 14.2932L62.5401 12.0276C61.0113 9.2954 58.0951 7.44785 54.7469 7.44785C49.8152 7.44785 45.8174 11.4532 45.8174 16.3949C45.8174 21.3361 49.8152 25.3419 54.7469 25.3419C58.0951 25.3419 61.0113 23.4944 62.5401 20.7622L58.4585 18.4966ZM17.1182 24.9916H22.2208V0H17.1187L17.1182 24.9916ZM65.1169 0V24.9916H70.2195V17.5041L76.2659 24.9916H82.788L75.099 16.0967L82.2286 7.79671H75.9862L70.2195 14.6972V0H65.1169ZM37.941 7.79771V9.82922C37.1024 8.42827 35.0403 7.44785 32.8735 7.44785C28.4 7.44785 24.8703 11.4051 24.8703 16.3774C24.8703 21.3496 28.4 25.3419 32.8735 25.3419C35.0403 25.3419 37.1024 24.3615 37.941 22.9606V24.9916H43.0436V7.79771H37.941ZM37.941 18.5312C37.2072 19.7567 35.6694 20.6664 33.9572 20.6664C31.6019 20.6664 29.6932 18.7542 29.6932 16.3949C29.6932 14.0356 31.6019 12.1229 33.9572 12.1229C35.6694 12.1229 37.2072 13.0682 37.941 14.3283V18.5312Z" fill="var(--fill-0, black)"/>
</svg>
