<svg preserveAspectRatio="none" width="100%" height="100%" overflow="visible" style="display: block;" viewBox="0 0 103 32" fill="none" xmlns="http://www.w3.org/2000/svg">
<g id="logo-layer">
<path id="Vector" fill-rule="evenodd" clip-rule="evenodd" d="M63.6449 14.9164C63.2967 15.0301 62.8207 15.1266 62.2295 15.201C61.9476 15.2381 61.6344 15.2567 61.2675 15.2567C60.6513 15.2567 59.9838 15.2072 59.3374 15.1564L59.3151 15.1556C58.7162 15.11 58.1497 15.0672 57.6061 15.0672C57.2179 15.0672 56.862 15.0903 56.5206 15.1343C55.5051 15.2614 54.7042 15.5826 54.7042 15.5826L54.7129 15.4995C54.9096 13.4474 56.621 11.6955 58.6917 11.4184C58.8826 11.3959 59.0793 11.3831 59.2761 11.3831C61.227 11.3831 63.1191 12.8733 63.6813 14.8529L63.6954 14.9042L63.6449 14.9164V14.9164ZM66.0286 15.7876L66.028 15.7596C66.0192 15.6276 65.9942 15.4142 65.9666 15.1847C65.9133 14.7684 65.823 14.3585 65.6983 13.9633C64.7566 10.9702 62.2357 9.03865 59.2761 9.03865C58.9807 9.03865 58.6756 9.0575 58.3746 9.09885C54.5791 9.59101 52.0013 13.057 52.5032 16.9894C52.9597 20.5494 55.8024 22.9883 59.262 22.9883C59.5539 22.9883 59.8579 22.9679 60.1648 22.9308C62.0086 22.6948 63.6286 21.9167 64.8423 20.4035C64.9107 20.3173 64.9445 20.2073 64.9318 20.1086C64.9208 20.021 64.8699 19.9377 64.7781 19.8708C64.5745 19.7232 63.8477 19.3679 63.4522 19.1782L63.1903 19.048C63.0704 18.9858 62.9845 18.9578 62.9062 18.9578C62.8103 18.9578 62.7193 19.0073 62.6304 19.1159C61.8481 20.0323 60.8579 20.5138 59.8462 20.6475C59.6456 20.6723 59.4511 20.6855 59.262 20.6855C57.4183 20.6855 55.5574 19.4415 55.0173 17.7341L55.0038 17.6893L55.0434 17.6701C55.1392 17.6222 56.002 17.2174 57.2806 17.2174C57.4392 17.2174 57.6007 17.2239 57.7584 17.2381C58.1252 17.2673 58.4935 17.3153 58.882 17.3648C59.599 17.4603 60.3425 17.5592 61.2103 17.5592C61.7453 17.5592 62.2711 17.5203 62.8072 17.4451C64.9177 17.0352 65.755 16.4389 65.7617 16.4334C66.0596 16.2392 66.0485 16.0783 66.0286 15.7876M99.0898 9.82229C99.0898 9.64371 98.9444 9.49999 98.7689 9.49999H97.0222C96.8484 9.49999 96.7043 9.64371 96.7043 9.82229V22.3362C96.7043 22.513 96.8484 22.6592 97.0222 22.6592H98.7689C98.9444 22.6592 99.0898 22.513 99.0898 22.3362V9.82229ZM97.8971 5.03672C97.0288 5.03672 96.3203 5.75104 96.3203 6.62731C96.3203 7.50156 97.0288 8.21426 97.8971 8.21426C98.7675 8.21426 99.4737 7.50156 99.4737 6.62731C99.4737 5.75104 98.7675 5.03672 97.8971 5.03672ZM74.7748 11.4153C77.2502 11.4153 79.1899 13.4681 79.1899 16.0902C79.1899 18.728 77.3494 20.7152 74.9079 20.7152C73.6752 20.7152 72.5325 20.2697 71.6964 19.4628C70.8338 18.6331 70.3608 17.4615 70.3608 16.1687C70.3608 13.5475 72.3406 11.4153 74.7748 11.4153M74.6973 22.9926C74.8076 22.9973 74.922 23.0017 75.0333 23.0017C76.8279 23.0017 78.4956 22.3036 79.7349 21.0454C80.9916 19.7628 81.6816 18.0039 81.6816 16.0902C81.6816 12.1363 78.6606 9.03865 74.8029 9.03865C71.6638 9.03865 69.014 11.1214 68.2037 14.2197C68.0659 14.7457 67.9232 16.0872 67.9232 17.425V27.2438C67.9232 27.4228 68.0659 27.5686 68.2435 27.5686H69.976C70.1551 27.5686 70.3001 27.421 70.3001 27.2412L70.2987 21.056L70.3896 21.145C71.2406 21.9781 72.8188 22.9038 74.6973 22.9926M43.6466 11.4153C46.1198 11.4153 48.0603 13.4681 48.0603 16.0902C48.0603 18.728 46.2204 20.7152 43.777 20.7152C42.5412 20.7152 41.4038 20.2697 40.5683 19.4628C39.7043 18.6331 39.2289 17.4615 39.2289 16.1687C39.2289 13.5475 41.2106 11.4153 43.6466 11.4153M43.5698 22.9926C43.6802 22.9973 43.7939 23.0017 43.9031 23.0017C45.6998 23.0017 47.3681 22.3036 48.6053 21.0454C49.8622 19.7628 50.5545 18.0039 50.5545 16.0902C50.5545 12.1363 47.5308 9.03865 43.6726 9.03865C40.5347 9.03865 37.882 11.1214 37.0737 14.2197C36.9333 14.7457 36.7929 16.0872 36.7929 17.425V27.2438C36.7929 27.4228 36.9369 27.5686 37.1101 27.5686H38.8479C39.0261 27.5686 39.1711 27.421 39.1711 27.2412L39.1683 21.056L39.256 21.145C40.1074 21.9781 41.6856 22.9038 43.5698 22.9926M83.3507 20.8006C84.8591 22.1915 86.5069 22.9861 88.6464 22.9861H88.7142C92.4069 22.962 94.0567 20.9283 94.0567 18.9246C94.0567 16.1531 91.4616 15.3956 90.6665 15.2275C90.4115 15.1775 90.1461 15.1272 89.8741 15.0727C89.2314 14.948 88.5641 14.8193 87.9578 14.6504C87.5327 14.5327 86.1468 14.0677 86.1468 13.0235C86.1468 11.8742 87.4128 11.2546 88.6019 11.2546C89.6009 11.2546 90.4338 11.424 91.4996 12.2626C91.5829 12.3287 91.6998 12.4043 91.8424 12.4043C91.9478 12.4043 92.0488 12.3676 92.1574 12.2894C92.4525 12.0702 92.9925 11.6113 93.3492 11.2519C93.4333 11.1662 93.4725 11.0723 93.4675 10.9742C93.4592 10.8218 93.347 10.6971 93.2892 10.6491C91.8639 9.50993 90.4923 9.04371 88.5583 9.03865H88.5442C85.7777 9.03865 83.6891 10.8305 83.6891 13.2062C83.6891 15.0887 85.225 16.4257 88.0091 16.9766L89.7524 17.3133C90.8983 17.5253 91.5424 18.1385 91.5201 18.9969C91.4996 19.8337 90.4811 20.7002 88.8077 20.7002C87.4418 20.7002 86.2385 20.1629 85.2305 19.241L85.2158 19.2264C85.1446 19.1613 85.0595 19.0821 84.945 19.0821C84.8649 19.0821 84.7801 19.1196 84.6885 19.1915C84.5835 19.2775 83.4193 20.205 83.295 20.3362C83.2381 20.3978 83.2113 20.4629 83.2125 20.5312C83.2153 20.6396 83.2863 20.741 83.3507 20.8006M101.637 21.0915C101.757 21.0915 101.825 21.1861 101.825 21.2897C101.825 21.388 101.757 21.4821 101.629 21.4821H101.36V21.0915H101.637V21.0915ZM101.789 21.7413C102.009 21.6854 102.104 21.4867 102.104 21.2897C102.104 21.0497 101.953 20.8115 101.637 20.8115H101.076V22.2651H101.36V21.7628H101.454L101.812 22.2651H102.157L101.789 21.7413V21.7413ZM101.568 22.7311C102.227 22.7311 102.746 22.1966 102.746 21.5319C102.746 20.8687 102.227 20.3291 101.568 20.3291C100.91 20.3291 100.39 20.8687 100.39 21.5319C100.39 22.1966 100.91 22.7311 101.568 22.7311ZM101.568 20.0727C102.366 20.0727 103 20.7276 103 21.5319C103 22.3362 102.366 22.9861 101.568 22.9861C100.771 22.9861 100.141 22.3362 100.141 21.5319C100.141 20.7276 100.771 20.0727 101.568 20.0727Z" fill="var(--fill-0, #004883)"/>
<path id="Vector_2" fill-rule="evenodd" clip-rule="evenodd" d="M27.1075 27.314C20.9076 33.5624 10.8516 33.5616 4.65205 27.314C-1.55068 21.0647 -1.55068 10.9331 4.65205 4.68582C10.853 -1.56204 20.9076 -1.56204 27.1063 4.68643C33.309 10.9329 33.309 21.0645 27.1075 27.3138" fill="var(--fill-0, white)"/>
<path id="Vector_3" fill-rule="evenodd" clip-rule="evenodd" d="M28.2409 7.92579C28.5384 8.89673 28.7014 9.92726 28.7014 10.9957C28.7014 14.4428 27.0194 17.474 24.4611 19.3733C20.0123 22.6747 13.5284 22.6792 4.57561 25.5217C7.27775 28.7758 11.3382 30.847 15.8791 30.847C24.0175 30.847 30.6145 24.1999 30.6145 16C30.6145 13.0233 29.74 10.252 28.2409 7.92579" fill="var(--fill-0, #004883)"/>
<path id="Vector_4" fill-rule="evenodd" clip-rule="evenodd" d="M24.7161 4.12048C22.2538 2.25563 19.1948 1.15253 15.8795 1.15253C7.74145 1.15253 1.14462 7.80113 1.14462 16C1.14462 19.3004 2.21324 22.3486 4.02057 24.8132C13.9309 21.9057 21.7561 14.0727 24.7161 4.12048Z" fill="var(--fill-0, #E32934)"/>
</g>
</svg>
