<svg preserveAspectRatio="none" width="100%" height="100%" overflow="visible" style="display: block;" viewBox="0 0 128.545 34.45" fill="none" xmlns="http://www.w3.org/2000/svg">
<g id="Vector">
<path d="M44.9356 28.7744V14.2194H45.1949L55.7896 28.7744H59.1236V7.40015H55.4192V21.9185H55.1598L44.5652 7.40015H41.2312V28.7744H44.9356ZM69.6071 29.1044C74.497 29.1044 77.4976 25.9514 77.4976 20.672C77.4976 15.4293 74.497 12.2396 69.6071 12.2396C64.7543 12.2396 61.7167 15.4293 61.7167 20.672C61.7537 25.9514 64.7173 29.1044 69.6071 29.1044ZM69.6071 26.0247C67.014 26.0247 65.5322 24.0816 65.5322 20.672C65.5322 17.2991 67.014 15.3193 69.6071 15.3193C72.2002 15.3193 73.682 17.2991 73.682 20.672C73.682 24.0816 72.2002 26.0247 69.6071 26.0247ZM80.8686 8.61001V12.6796H78.2755V15.6126H80.8686V24.4483C80.8686 27.6012 82.3504 28.8478 86.1289 28.8478C86.8327 28.8478 87.5366 28.7744 88.0922 28.6645V25.8048C87.6477 25.8414 87.3513 25.8781 86.8327 25.8781C85.2769 25.8781 84.573 25.1815 84.573 23.5684V15.6126H88.0922V12.6796H84.573V8.61001H80.8686ZM90.3149 28.7744H94.0193V12.5696H90.3149V28.7744ZM92.1671 9.8932C93.3896 9.8932 94.3898 8.90331 94.3898 7.69345C94.3898 6.44692 93.3896 5.45703 92.1671 5.45703C90.9446 5.45703 89.9444 6.44692 89.9444 7.69345C89.9444 8.90331 90.9446 9.8932 92.1671 9.8932ZM104.169 29.1044C109.059 29.1044 112.06 25.9514 112.06 20.672C112.06 15.4293 109.059 12.2396 104.169 12.2396C99.3166 12.2396 96.279 15.4293 96.279 20.672C96.279 25.9514 99.2426 29.1044 104.169 29.1044ZM104.169 26.0247C101.576 26.0247 100.095 24.0816 100.095 20.672C100.095 17.2991 101.576 15.3193 104.169 15.3193C106.726 15.3193 108.244 17.2991 108.244 20.672C108.207 24.0816 106.726 26.0247 104.169 26.0247ZM114.245 28.7744H117.95V19.3522C117.95 16.9691 119.358 15.4659 121.543 15.4659C123.803 15.4659 124.84 16.7124 124.84 19.1688V28.7744H128.545V18.2889C128.545 14.4027 126.544 12.2396 122.914 12.2396C120.469 12.2396 118.839 13.3395 118.061 15.1726H117.802V12.5696H114.208C114.245 12.5696 114.245 28.7744 114.245 28.7744Z" fill="black"/>
<path fill-rule="evenodd" clip-rule="evenodd" d="M5.71206 6.0321C6.79023 6.9019 7.18021 6.83323 9.19893 6.69589L28.2162 5.55142C28.6291 5.55142 28.285 5.13941 28.1474 5.09363L24.9816 2.82758C24.3852 2.36979 23.5594 1.82044 22.0224 1.95778L3.62452 3.30825C2.95926 3.37692 2.82162 3.72026 3.0969 3.97205L5.71206 6.0321ZM6.85905 10.4498V30.4094C6.85905 31.4852 7.38667 31.8743 8.60249 31.8056L29.5008 30.5925C30.7166 30.5238 30.8543 29.7913 30.8543 28.9215V9.09928C30.8543 8.22948 30.5102 7.7488 29.7761 7.81747L7.93723 9.09928C7.13433 9.16795 6.85905 9.57996 6.85905 10.4498ZM27.4821 11.5256C27.6197 12.1207 27.4821 12.7387 26.8857 12.8074L25.8763 13.0134V27.7542C25.0046 28.212 24.2017 28.4866 23.5135 28.4866C22.4353 28.4866 22.16 28.1433 21.3571 27.1362L14.7733 16.813V26.7928L16.8609 27.2506C16.8609 27.2506 16.8609 28.4638 15.1863 28.4638L10.5524 28.7384C10.4148 28.4638 10.5524 27.8 11.0112 27.6626L12.227 27.3193V14.135L10.5524 13.9976C10.4148 13.4025 10.7589 12.5327 11.6994 12.464L16.6774 12.1207L23.5364 22.5583V13.3338L21.793 13.1278C21.6553 12.3954 22.2059 11.846 22.8712 11.7773L27.4821 11.5256ZM2.08754 1.4771L21.2424 0.0808408C23.5823 -0.125164 24.2017 0.0121729 25.6698 1.08798L31.7719 5.3683C32.7812 6.10077 33.1253 6.30677 33.1253 7.1079V30.6154C33.1253 32.0803 32.5977 32.9501 30.7166 33.0874L8.48779 34.4379C7.06552 34.5066 6.40026 34.3006 5.66618 33.3621L1.147 27.5253C0.3441 26.4495 0 25.6484 0 24.7099V3.81182C0 2.59868 0.550559 1.61443 2.08754 1.4771Z" fill="black"/>
</g>
</svg>
