<svg preserveAspectRatio="none" width="100%" height="100%" overflow="visible" style="display: block;" viewBox="0 0 60.4656 15.6904" fill="none" xmlns="http://www.w3.org/2000/svg">
<g id="Vector">
<path d="M0 13.0276C0 11.6414 1.11661 10.5212 2.49242 10.5212C3.15668 10.5212 3.79377 10.7851 4.26348 11.2548C4.73318 11.7245 4.99704 12.3616 4.99704 13.0259C4.99704 13.6901 4.73318 14.3272 4.26348 14.7969C3.79377 15.2666 3.15668 15.5305 2.49242 15.5305C1.11835 15.5305 0 14.4086 0 13.0259" fill="#499FDD"/>
<path d="M28.4204 11.9439C26.2706 11.9439 24.7713 10.2359 24.7713 7.79387C24.7713 5.35361 26.2706 3.64734 28.4204 3.64734C30.5806 3.64734 32.0956 5.35361 32.0956 7.79387C32.0956 10.2741 30.6171 11.9439 28.4204 11.9439ZM28.4204 0C23.8669 0 20.564 3.27861 20.564 7.79387C20.564 12.3109 23.8669 15.5877 28.4204 15.5877C32.9843 15.5877 36.3047 12.3109 36.3047 7.79561C36.3047 3.27861 32.9826 0 28.4204 0Z" fill="#499FDD"/>
<path d="M55.4703 0.0156923C54.5845 0.0189563 53.7107 0.221179 52.9135 0.607425C52.1164 0.993671 51.4161 1.55407 50.8646 2.24724L50.555 2.64032L50.3115 2.20027C49.5149 0.751424 48.1478 0.0156923 46.2467 0.0156923C44.2517 0.0156923 42.9142 1.12885 42.2932 1.78979L41.8862 2.22984L41.7296 1.65065C41.5035 0.815778 40.7609 0.358338 39.6373 0.358338H37.8336L37.8162 15.3512H41.9123V8.73314C41.9123 8.15221 41.9854 7.57997 42.1298 6.97991C42.5211 5.37974 43.5959 3.65956 45.4031 3.83175C46.5162 3.93959 47.0625 4.80055 47.0625 6.46334V15.3512H51.1881V8.73314C51.1881 8.00785 51.256 7.46518 51.4195 6.92251C51.7499 5.3954 52.8735 3.83001 54.6163 3.83001C55.8791 3.83001 56.3451 4.54313 56.3451 6.46334V13.1597C56.3451 14.6729 57.0201 15.3512 58.535 15.3512H60.4621L60.4656 5.77979C60.4656 1.95503 58.7819 0.0156923 55.4703 0.0156923ZM18.1897 10.1455C18.1776 10.1611 16.4157 12.0187 14.0937 12.0187C11.9787 12.0187 9.84285 10.7212 9.84285 7.82522C9.84285 5.32408 11.4986 3.57607 13.8711 3.57607C14.6398 3.57607 15.5165 3.85088 15.6539 4.31528L15.673 4.39355C15.7607 4.71327 15.9513 4.99513 16.2155 5.19545C16.4796 5.39577 16.8025 5.50334 17.134 5.5015L19.3778 5.50497V3.54302C19.3778 0.954922 16.0852 0.0156923 13.8711 0.0156923C9.13317 0.0156923 5.69626 3.31343 5.69626 7.85652C5.69626 12.3961 9.09493 15.6904 13.7841 15.6904C17.8506 15.6904 20.0631 13.0171 20.0839 12.991L20.2022 12.8449L18.4246 9.89674L18.1897 10.1455Z" fill="#499FDD"/>
</g>
</svg>
