<svg preserveAspectRatio="none" width="100%" height="100%" overflow="visible" style="display: block;" viewBox="0 0 102.965 33" fill="none" xmlns="http://www.w3.org/2000/svg">
<g id="Vector">
<path d="M7.03722 21.6486H0.00407286V25.1653H7.03722V21.6486Z" fill="#404041"/>
<path d="M17.5838 21.6486H10.5551V25.1653H17.5838V21.6486Z" fill="#404041"/>
<path d="M17.5856 14.6155H0V18.1322H17.5856V14.6155Z" fill="#404041"/>
<path d="M10.5548 7.58296H0.00407693V11.0994H10.5548V7.58296Z" fill="#404041"/>
<path d="M17.5874 7.58296H14.071V11.0994H17.5874V7.58296Z" fill="#404041"/>
<path d="M68.6383 7.56291C62.9906 7.56291 60.0738 11.5568 60.0738 16.4835C60.0738 21.4105 62.9187 25.4048 68.6383 25.4048C74.3579 25.4048 77.2029 21.4105 77.2029 16.4835C77.2031 11.5568 74.2858 7.56291 68.6383 7.56291ZM72.9111 16.4995C72.9071 19.6676 71.8396 22.2337 68.6383 22.2337C65.4371 22.2337 64.3694 19.6679 64.3661 16.4995V16.4837C64.3694 13.3158 65.4373 10.7499 68.6386 10.7499C71.8396 10.7499 72.9071 13.3158 72.9111 16.4837V16.4917C72.9111 16.4944 72.9111 16.4968 72.9111 16.4995Z" fill="#404041"/>
<path d="M43.3504 25.1649V0.500684C43.3504 0.500684 46.6035 0.0385817 46.8558 0.00463943C47.1415 -0.0339615 47.5209 0.16947 47.5209 0.571674V9.71478C48.1959 9.07298 48.9393 8.55564 49.7495 8.16142C50.5604 7.76765 51.5112 7.57043 52.6035 7.57043C53.5493 7.57043 54.3872 7.73082 55.1188 8.05183C55.8509 8.37218 56.4616 8.82297 56.9513 9.4022C57.4409 9.98233 57.8125 10.6745 58.0658 11.4793C58.3189 12.2842 58.4456 13.1707 58.4456 14.1388V25.1647H54.2749V14.1388C54.2749 13.0808 54.03 12.2618 53.5404 11.6817C53.0506 11.1022 52.316 10.8122 51.3364 10.8122C50.616 10.8122 49.941 10.9755 49.3109 11.3023C48.6802 11.6289 48.0837 12.073 47.5209 12.6363V25.1649H43.3504Z" fill="#404041"/>
<path d="M99.0292 25.4025C96.1592 25.4025 94.3605 23.7322 94.3605 20.6162V11.3812H91.126C91.126 11.3812 91.8135 9.00348 91.8679 8.81624C91.9224 8.62923 92.0647 8.42824 92.3502 8.38853C92.6357 8.34882 94.3565 8.10878 94.3565 8.10878L95.1514 3.05205C95.1514 3.05205 97.4868 2.72283 97.857 2.6676C98.2066 2.61524 98.5237 2.86703 98.5237 3.24794V8.10878H102.614V11.3812H98.5237V20.4917C98.5237 21.7356 99.281 22.211 100.007 22.211C100.451 22.211 101.058 21.9754 101.512 21.7651C101.792 21.6355 102.226 21.7316 102.338 22.1227C102.437 22.4692 102.965 24.3085 102.965 24.3085C102.51 24.6023 101.072 25.4025 99.0292 25.4025Z" fill="#404041"/>
<path d="M88.8352 11.4364C88.0223 11.1724 86.4945 10.7497 85.0412 10.7497C83.5604 10.7497 82.3952 11.2613 82.3952 12.4926C82.3952 14.0304 84.9063 14.4781 86.6251 15.105C87.7743 15.5241 90.8559 16.3411 90.8559 19.6555C90.8559 23.6815 87.5125 25.4028 83.9459 25.4028C80.3789 25.4028 78.2716 24.0762 78.2716 24.0762C78.2716 24.0762 78.8249 22.1217 78.9369 21.7359C79.0383 21.3887 79.4418 21.267 79.6989 21.3657C80.6169 21.7195 82.2745 22.2113 84.1482 22.2113C86.0452 22.2113 86.963 21.6321 86.963 20.3973C86.963 18.7539 84.4014 18.2516 82.7071 17.7172C81.54 17.3494 78.4508 16.4915 78.4508 12.8464C78.4508 9.25562 81.6039 7.57093 84.9737 7.57093C87.8262 7.57093 89.2254 8.16747 90.2705 8.6999C90.2705 8.6999 89.6881 10.7296 89.6016 11.0319C89.4996 11.3913 89.2047 11.5561 88.8352 11.4364Z" fill="#404041"/>
<path d="M41.723 8.16538C41.723 7.77693 41.3911 7.55464 41.0746 7.5908C39.675 7.75119 38.6764 8.40985 38.0304 9.02303C36.7619 8.02916 35.0011 7.55464 33.0249 7.55464C29.0628 7.55464 25.9672 9.46694 25.9672 13.6367C25.9672 16.0304 26.9861 17.6799 28.6042 18.6509C27.4025 19.2197 26.6021 20.4267 26.6021 21.6134C26.6021 23.5984 28.1703 24.2201 28.1703 24.2201C28.1703 24.2201 25.4283 25.5509 25.4283 28.2135C25.4283 31.6219 28.565 33 32.3978 33C37.9226 33 41.7237 30.7181 41.7237 26.5281C41.7237 23.9494 39.7504 22.5258 35.4501 22.3566C32.8983 22.2558 31.2453 22.164 30.8358 22.0284C30.2947 21.8488 30.0287 21.4155 30.0287 20.9372C30.0287 20.4092 30.4624 19.9065 31.1461 19.5613C31.7425 19.6669 32.3718 19.719 33.0254 19.719C36.9909 19.719 40.0834 17.8123 40.0834 13.637C40.0834 12.6245 39.9006 11.7455 39.5683 10.9946C40.1508 10.6838 40.8676 10.465 41.7235 10.465C41.7235 10.465 41.723 8.51966 41.723 8.16538ZM30.8041 25.1869C30.8041 25.1869 32.8847 25.2656 34.9639 25.3619C37.2997 25.4699 38.0275 25.9733 38.0275 27.1828C38.0275 28.6605 35.9977 30.0978 33.1609 30.0978C30.4682 30.0978 29.1231 29.161 29.1231 27.6012C29.1231 26.7063 29.5957 25.7051 30.8041 25.1869ZM33.0325 16.8084C31.1555 16.8084 29.6911 15.8115 29.6911 13.6367C29.6911 11.4618 31.1568 10.4648 33.0325 10.4648C34.9084 10.4648 36.3739 11.4591 36.3739 13.6367C36.3739 15.8144 34.9102 16.8084 33.0325 16.8084Z" fill="#404041"/>
</g>
</svg>
