<svg preserveAspectRatio="none" width="100%" height="100%" overflow="visible" style="display: block;" viewBox="0 0 116.931 27.8477" fill="none" xmlns="http://www.w3.org/2000/svg">
<path id="Vector" fill-rule="evenodd" clip-rule="evenodd" d="M9.90078 9.67313L6.7961 8.99954C5.24258 8.66275 4.38731 7.70454 4.38731 6.30044C4.38731 4.5159 5.97166 3.16967 8.07307 3.16967C10.9809 3.16967 11.8395 5.30903 12.034 5.96554C12.0956 6.18375 12.2474 6.36874 12.4514 6.47073C12.6506 6.57272 12.8736 6.5879 13.0871 6.51342L14.7236 5.93613C14.9201 5.86635 15.0825 5.7242 15.1777 5.53872C15.2729 5.35323 15.2937 5.13839 15.2359 4.93808C14.8137 3.45333 13.2626 0 8.00192 0C4.10744 0 0.820128 2.97898 0.820128 6.50584C0.820128 9.53699 2.80912 11.776 6.14244 12.5017L9.10243 13.1469C10.8841 13.5216 11.9486 14.6079 11.9486 16.0499C11.9486 17.8905 10.4354 19.0337 7.99718 19.0337C5.13205 19.0337 3.75167 17.1552 3.41487 15.3953C3.39357 15.2819 3.34841 15.1742 3.28237 15.0795C3.21633 14.9848 3.13092 14.9052 3.0318 14.846C2.93268 14.7868 2.82212 14.7494 2.70743 14.7361C2.59274 14.7229 2.47654 14.7341 2.36654 14.7692L0.568718 15.3431C0.379763 15.4007 0.218672 15.5259 0.116273 15.6948C0.0138738 15.8638 -0.0226433 16.0645 0.0137155 16.2587C0.573459 19.176 2.9704 22.2878 8.03038 22.2878C12.3063 22.2878 15.5309 19.5033 15.5309 15.8128C15.5309 12.6962 13.4741 10.4572 9.88608 9.66507L9.90078 9.67313ZM28.2684 12.5112C28.2779 12.5729 28.2495 12.6203 28.2305 12.6393C28.2148 12.6587 28.1949 12.6744 28.1723 12.685C28.1497 12.6957 28.125 12.7012 28.1 12.701H21.5064C21.4802 12.701 21.4543 12.695 21.4307 12.6835C21.4071 12.672 21.3865 12.6552 21.3703 12.6346C21.3553 12.6172 21.3445 12.5966 21.3387 12.5744C21.3329 12.5522 21.3324 12.5289 21.3371 12.5065C21.6383 11.1318 22.8171 9.74571 24.7715 9.74571C26.6912 9.74571 27.9971 10.7751 28.2651 12.5032L28.2684 12.5112ZM24.7458 6.66712C21.2735 6.66712 17.6826 9.57019 17.6826 14.4324C17.6826 16.7757 18.4511 18.7775 19.9074 20.2148C21.2565 21.5478 23.0998 22.283 25.0969 22.283C28.0711 22.283 30.4809 20.729 31.5434 18.1276C31.6288 17.9142 31.6241 17.677 31.532 17.4683C31.4867 17.367 31.4209 17.2762 31.3389 17.2014C31.2569 17.1266 31.1603 17.0696 31.0553 17.0338L29.6038 16.5309C29.4095 16.4642 29.1972 16.4732 29.0093 16.5561C28.8214 16.6391 28.6717 16.7898 28.59 16.9783C27.9639 18.4535 26.7875 19.1983 25.094 19.1983C23.0448 19.1983 21.4842 17.8179 21.2138 15.7625C21.2104 15.7395 21.2122 15.716 21.2192 15.6938C21.2262 15.6716 21.2381 15.6513 21.2541 15.6344C21.2731 15.6107 21.3158 15.5727 21.3822 15.5727H31.0041C31.4357 15.5727 31.7962 15.2359 31.82 14.8062C31.8295 14.6686 31.8342 14.5168 31.8342 14.3669C31.8342 9.61383 29.1161 6.6619 24.7425 6.6619L24.7458 6.66712ZM41.1302 18.2035C38.8201 18.2035 37.3828 16.6002 37.3828 14.0197C37.3828 11.4771 38.8533 9.83394 41.1302 9.83394C43.336 9.83394 44.8179 11.5132 44.8179 14.0178C44.8179 16.5196 43.335 18.2016 41.1297 18.2016L41.1302 18.2035ZM47.2874 7.10353H45.5465C45.0958 7.10353 44.7282 7.47021 44.7282 7.94314C44.7281 7.97659 44.7181 8.00925 44.6995 8.03708C44.681 8.06491 44.6547 8.08668 44.6239 8.09968C44.5907 8.11391 44.5242 8.13289 44.4645 8.07596C43.5679 7.25627 42.3061 6.84026 40.717 6.84026C36.7784 6.84026 33.9195 9.86193 33.9195 14.0221C33.9195 18.1642 36.7784 21.1706 40.717 21.1706C42.1733 21.1706 43.492 20.6925 44.4313 19.8244C44.4929 19.7675 44.5593 19.7817 44.5926 19.796C44.6163 19.8054 44.6969 19.8481 44.6969 19.9525V20.5502C44.6969 23.4438 43.4304 24.7933 40.717 24.7933C38.9951 24.7933 37.6432 23.726 37.2779 22.0762C37.2305 21.8627 37.1024 21.6825 36.9174 21.5672C36.7324 21.4519 36.5095 21.4154 36.296 21.4629L34.5864 21.8566C34.3765 21.9065 34.1945 22.0369 34.0797 22.2197C33.9649 22.4024 33.9265 22.6229 33.9726 22.8338C34.5845 25.8317 37.296 27.8477 40.7132 27.8477C43.2606 27.8477 45.2007 27.0721 46.4815 25.5423C47.5393 24.2777 48.099 22.5221 48.099 20.4653V7.93413C48.099 7.48349 47.7338 7.11823 47.2831 7.11823L47.2874 7.10353ZM67.9837 6.69368C66.0578 6.69368 64.491 7.4204 63.4516 8.79983C63.4341 8.82537 63.4102 8.84594 63.3824 8.85957C63.3545 8.8732 63.3237 8.87942 63.2927 8.87763C63.2698 8.87791 63.2472 8.87213 63.2272 8.86089C63.2072 8.84964 63.1906 8.83333 63.1789 8.81359C62.3075 7.46641 60.8033 6.69321 59.052 6.69321C57.6588 6.69321 56.3197 7.18275 55.3766 8.03801C55.3539 8.06179 55.3242 8.0778 55.2919 8.08376C55.2595 8.08972 55.2261 8.08533 55.1964 8.07122C55.1673 8.05927 55.1426 8.03866 55.1256 8.01218C55.1086 7.9857 55.1002 7.95464 55.1015 7.92322C55.1015 7.47258 54.7344 7.10732 54.2837 7.10732H52.6301C52.1794 7.10732 51.8142 7.47258 51.8142 7.92322V21.0298C51.8142 21.4804 52.1814 21.8466 52.632 21.8466H54.3729C54.8235 21.8466 55.1888 21.4785 55.1888 21.0279V13.0382C55.1888 11.0967 56.3747 9.79172 58.144 9.79172C60.4589 9.79172 60.8052 11.6071 60.8052 12.6886V21.0421C60.8052 21.4927 61.1705 21.858 61.6211 21.858H63.3919C63.8425 21.858 64.2078 21.4908 64.2078 21.0402V13.0098C64.2078 11.1142 65.4126 9.79077 67.1346 9.79077C69.4509 9.79077 69.7957 11.6076 69.7957 12.6891V21.0426C69.7957 21.4932 70.161 21.8585 70.6116 21.8585H72.3525C72.8032 21.8585 73.1684 21.4913 73.1684 21.0407V12.3931C73.1684 8.46541 70.5642 6.70886 67.9837 6.70886V6.69368ZM79.7525 12.7123C79.7264 12.7123 79.7006 12.7063 79.677 12.695C79.6535 12.6837 79.6328 12.6672 79.6164 12.6469C79.602 12.6296 79.5917 12.6092 79.5862 12.5874C79.5808 12.5655 79.5804 12.5427 79.5851 12.5207C79.8868 11.1451 81.0651 9.75994 83.0213 9.75994C84.9406 9.75994 86.247 10.7893 86.5145 12.516C86.524 12.5776 86.4941 12.6251 86.4766 12.644C86.4597 12.6617 86.4394 12.6758 86.417 12.6856C86.3946 12.6954 86.3705 12.7006 86.3461 12.701H79.7525V12.7123ZM82.9924 6.6785C79.5201 6.6785 75.9292 9.58348 75.9292 14.4438C75.9292 16.7899 76.6976 18.7903 78.152 20.229C79.4992 21.562 81.3397 22.2925 83.3415 22.2925C86.311 22.2925 88.7207 20.7366 89.788 18.1324C89.8734 17.9189 89.8687 17.6817 89.7738 17.473C89.6789 17.2643 89.5082 17.1125 89.2947 17.0366L87.8432 16.5347C87.44 16.3957 86.9941 16.5917 86.829 16.9816C86.2029 18.453 85.0264 19.2016 83.333 19.2016C81.2837 19.2016 79.7231 17.8184 79.4527 15.7625C79.4491 15.7392 79.4506 15.7154 79.4572 15.6928C79.4637 15.6702 79.4752 15.6493 79.4907 15.6316C79.5096 15.6078 79.5523 15.5723 79.6187 15.5723H89.2435C89.6752 15.5723 90.0342 15.2355 90.0594 14.8052C90.0675 14.6677 90.0736 14.5159 90.0736 14.3641C90.0736 9.61099 87.3555 6.65573 82.9819 6.65573L82.9924 6.6785ZM100.435 6.70839C98.9617 6.70839 97.6705 7.21026 96.7014 8.15992C96.6791 8.18231 96.6507 8.19745 96.6197 8.20338C96.5887 8.2093 96.5567 8.20573 96.5277 8.19313C96.4979 8.18011 96.4725 8.15859 96.4548 8.13126C96.4371 8.10393 96.4278 8.072 96.4281 8.03944V7.93508C96.4281 7.48444 96.061 7.11918 95.6103 7.11918H93.9026C93.452 7.11918 93.0848 7.48444 93.0848 7.93508V21.0392C93.0848 21.4899 93.4501 21.8566 93.9007 21.8566H95.6701C96.1208 21.8566 96.4884 21.4889 96.4884 21.0383V13.3883C96.4884 11.6768 97.264 9.84769 99.4436 9.84769C101.403 9.84769 102.397 10.9307 102.397 13.0662V21.0355C102.397 21.4861 102.762 21.8514 103.213 21.8514H104.982C105.433 21.8514 105.799 21.4814 105.799 21.0307V12.5971C105.799 8.96349 103.741 6.70554 100.434 6.70554L100.435 6.70839ZM114.043 10.2575H116.107C116.558 10.2575 116.923 9.88991 116.923 9.43975V7.93413C116.923 7.48349 116.558 7.11823 116.107 7.11823H114.043C114.022 7.11823 114 7.11394 113.98 7.1056C113.96 7.09725 113.941 7.08502 113.926 7.06961C113.911 7.05419 113.898 7.03589 113.89 7.01574C113.882 6.9956 113.877 6.97401 113.877 6.95221V3.48274C113.877 3.0321 113.509 2.6659 113.059 2.6659H111.522C111.072 2.6659 110.706 3.0321 110.706 3.48274V5.27582C110.706 6.11544 110.385 7.11776 108.862 7.11776H108.6C108.149 7.11776 107.784 7.48301 107.784 7.93366V9.43737C107.784 9.88802 108.15 10.2533 108.6 10.2533H110.312C110.405 10.2533 110.478 10.3244 110.478 10.4193V17.6628C110.478 20.3381 112.108 21.9984 114.728 21.9984C115.459 21.9984 116.027 21.894 116.301 21.8324C116.671 21.747 116.931 21.4197 116.931 21.0355V19.6413C116.931 19.5266 116.906 19.4132 116.86 19.3085C116.813 19.2038 116.745 19.1101 116.659 19.0335C116.574 18.9569 116.473 18.8991 116.364 18.8638C116.255 18.8285 116.14 18.8166 116.026 18.8287C115.841 18.8477 115.661 18.8586 115.521 18.8586C114.33 18.8586 113.885 18.4222 113.885 17.2505V10.4198C113.885 10.3287 113.96 10.2547 114.051 10.2547" fill="var(--fill-0, #43AF79)"/>
</svg>
