<svg preserveAspectRatio="none" width="100%" height="100%" overflow="visible" style="display: block;" viewBox="0 0 14.855 16.0788" fill="none" xmlns="http://www.w3.org/2000/svg">
<path id="Vector" d="M14.7644 9.16121H4.12823C4.45998 10.9298 5.57499 12.3201 7.86485 12.3201C9.03972 12.3201 9.85371 11.941 10.3052 11.1826H14.6746C13.8913 14.0887 11.1791 16.0788 7.77422 16.0788C3.1338 16.0788 0 12.5729 0 8.05508C0 3.38032 3.10387 0 7.65366 0C11.7819 0 14.855 3.06392 14.855 7.73952C14.855 8.37148 14.825 8.71841 14.7644 9.16121ZM4.15818 6.57062H10.6968C10.4557 4.67561 9.37066 3.6331 7.6836 3.6331C5.6648 3.6331 4.5498 4.86477 4.15818 6.57062Z" fill="var(--fill-0, #10069F)"/>
</svg>
