<svg preserveAspectRatio="none" width="100%" height="100%" overflow="visible" style="display: block;" viewBox="0 0 27.4009 23.4689" fill="none" xmlns="http://www.w3.org/2000/svg">
<path id="Vector" d="M6.1437 4.91496C7.49531 4.91496 8.60117 3.93197 8.60117 2.45748C8.60117 1.10587 7.49531 0 6.1437 0C4.79208 0 3.68622 0.982991 3.68622 2.45748C3.68622 3.93197 4.79208 4.91496 6.1437 4.91496ZM0.982992 17.9396C0.860118 18.554 0.737243 19.1683 0.737243 19.7827C0.737243 21.8716 1.84311 23.346 4.30059 23.346C6.38944 23.346 7.9868 22.1173 9.21554 20.1513L8.4783 23.1003H12.5331L14.8677 13.8848C15.4821 11.5501 16.588 10.3214 18.3082 10.3214C19.6598 10.3214 20.5199 11.1815 20.5199 12.5331C20.5199 12.9018 20.5199 13.3933 20.3971 13.8848L19.1683 18.1853C19.0455 18.7997 18.9226 19.4141 18.9226 20.0284C18.9226 21.9944 20.1513 23.4689 22.6088 23.4689C24.6977 23.4689 26.4179 22.1173 27.4009 18.7997L25.8035 18.1853C25.0663 20.3971 24.329 20.7657 23.8375 20.7657C23.346 20.7657 22.9774 20.3971 22.9774 19.6598C22.9774 19.2912 23.1003 18.9226 23.1003 18.554L24.2062 14.3762C24.4519 13.3933 24.5748 12.5331 24.5748 11.7959C24.5748 8.72405 22.7317 7.12669 20.3971 7.12669C18.3082 7.12669 16.0965 9.09267 14.9906 11.0587L15.7279 7.49531H9.58417L8.72405 10.69H11.5501L9.82991 17.4481C8.4783 20.5199 5.89795 20.6428 5.52933 20.5199C5.03783 20.3971 4.66921 20.1513 4.66921 19.537C4.66921 19.1683 4.79208 18.554 4.91496 17.9396L7.61818 7.24956H0.860117L0 10.4443H2.8261L0.982992 17.9396V17.9396Z" fill="var(--fill-0, white)"/>
</svg>
