<svg preserveAspectRatio="none" width="100%" height="100%" overflow="visible" style="display: block;" viewBox="0 0 108.442 31" fill="none" xmlns="http://www.w3.org/2000/svg">
<path id="Vector" fill-rule="evenodd" clip-rule="evenodd" d="M108.442 8.29722H103.656L100.301 16.9462L96.964 8.29722H92.1778L97.9964 21.9642L94.3775 31H99.1286L108.442 8.29722V8.29722ZM79.3344 15.899C79.3344 18.0824 81.2429 19.5192 83.1177 19.5192C84.9602 19.5192 86.7704 18.1822 86.7704 15.8976C86.7704 13.613 84.9602 12.2747 83.1177 12.2747C81.2429 12.2747 79.3344 13.7128 79.3344 15.8976V15.899ZM86.7704 23.5303V21.8011C85.7999 23.2702 83.5356 23.8255 82.3737 23.8255C78.527 23.8255 74.679 20.7929 74.679 15.8976C74.679 11.0037 78.5257 7.97104 82.3737 7.97104C83.3428 7.97104 85.6072 8.29452 86.7704 9.99278V8.30261H91.2317V23.533L86.7704 23.5317V23.5303ZM73.4094 23.5303H68.948V21.638C68.2027 23.0397 66.3953 23.8565 64.5191 23.8565C60.6387 23.8565 57.2112 20.7579 57.2112 15.9596C57.2112 11.071 60.6387 7.96835 64.5191 7.96835C66.3926 7.96835 68.2054 8.75009 68.948 10.1532V0H73.4094V23.5303ZM68.851 15.8639C68.851 13.5807 67.2026 12.2423 65.3601 12.2423C63.4516 12.2423 61.8666 13.6777 61.8666 15.8639C61.8666 18.1202 63.4516 19.5489 65.3588 19.5489C67.2363 19.5516 68.851 18.0501 68.851 15.8639V15.8639ZM46.1806 15.4703C46.1806 13.1548 47.3774 12.3717 48.9611 12.3717C50.4801 12.3717 51.58 13.3826 51.58 15.4043V23.5277H56.0736V14.4271C56.0736 10.0898 53.9387 7.96835 50.5435 7.96835C48.7657 7.96835 46.9879 8.97922 46.1792 10.513V8.29722H41.6883V23.5277H46.1806V15.4703V15.4703ZM32.5635 23.7891C28.2963 23.7891 24.7367 20.6581 24.7367 15.8626C24.7367 11.0643 28.2922 7.9643 32.5635 7.9643C36.8347 7.9643 40.4213 11.0643 40.4213 15.8626C40.4213 20.6608 36.8307 23.7905 32.5635 23.7905V23.7891V23.7891ZM32.5635 19.3548C34.437 19.3548 35.991 17.9827 35.991 15.8639C35.991 13.8085 34.4383 12.4054 32.5635 12.4054C32.1121 12.3983 31.6639 12.4832 31.2464 12.6549C30.8288 12.8266 30.4506 13.0815 30.1347 13.4041C29.817 13.7284 29.5677 14.1133 29.4017 14.5359C29.2357 14.9584 29.1563 15.4101 29.1683 15.8639C29.1697 17.9854 30.721 19.3548 32.5635 19.3548ZM16.6807 12.373C18.0056 12.373 19.1701 13.4176 19.1701 15.4057V23.5303H23.6314V14.88C23.6314 10.2812 21.3954 7.96565 17.8115 7.96565C16.7467 7.96565 14.7412 8.28913 13.2855 10.6721C12.4445 8.91048 10.8284 7.99665 8.44009 7.99665C7.61087 7.99243 6.79799 8.22712 6.09862 8.67265C5.39925 9.11818 4.84299 9.75571 4.49635 10.509V8.29857H0V23.529H4.4923V15.4703C4.4923 13.1548 5.75387 12.3717 7.11113 12.3717C8.40504 12.3717 9.56687 13.3826 9.60057 15.3073V23.529H14.0942V15.4703C14.0942 13.2559 15.2587 12.3744 16.6807 12.3744V12.373Z" fill="var(--fill-0, #333333)"/>
</svg>
