<svg preserveAspectRatio="none" width="100%" height="100%" overflow="visible" style="display: block;" viewBox="0 0 30.6335 7.29375" fill="none" xmlns="http://www.w3.org/2000/svg">
<path id="Vector" d="M27.7087 1.33906C28.698 1.33906 29.2897 2.04262 29.2897 3.19501V7.14414H30.6335V3.10471C30.6335 1.14497 29.7102 0.00875097 27.9742 0.00875097C27.2949 0.00875097 26.2166 0.194752 25.5737 1.44419C25.4243 1.07566 25.1779 0.754478 24.8606 0.514785C24.5433 0.275092 24.167 0.125837 23.7717 0.0828818C23.5228 0.0373143 23.2694 0.0223772 23.0169 0.0384036C22.4643 0.0828818 21.4804 0.426578 21.1124 1.20562V0.15836H19.7673V7.14414H21.1124V3.37427C21.1124 1.90784 22.0721 1.33906 23.0331 1.33906C23.9334 1.33906 24.5251 2.0278 24.5251 3.18019V7.14414H25.8622V3.37427C25.8622 2.20705 26.563 1.32558 27.7087 1.33906ZM14.8302 5.97693C15.4448 5.9904 16.0378 5.7451 16.4678 5.30032C16.8991 4.85553 17.1282 4.25036 17.1053 3.62901C17.1053 2.22188 16.0702 1.33906 14.8302 1.33906C13.5888 1.33906 12.5551 2.22188 12.5551 3.62901C12.5308 4.24901 12.7599 4.85284 13.1885 5.29627C13.6172 5.74105 14.2075 5.98771 14.8194 5.97693H14.8302V5.97693ZM14.8302 7.28701C12.8651 7.28701 11.2248 5.8354 11.2248 3.62093C11.2248 1.40645 12.8651 0.0006646 14.8302 0.0006646C16.7953 0.0006646 18.4491 1.40645 18.4491 3.62093C18.4491 5.8354 16.7859 7.29375 14.8208 7.29375L14.8302 7.28701ZM4.30367 3.62093L4.29019 3.62901C4.29019 1.41453 5.97363 0.00875156 7.95224 0.0006646C8.44929 -0.00895222 8.94283 0.0858923 9.40091 0.279063C9.85899 0.472233 10.2714 0.759425 10.6115 1.12206L9.59254 1.99006C9.37611 1.77753 9.11973 1.60999 8.83819 1.4971C8.55665 1.38421 8.25554 1.3282 7.95224 1.33232C6.71224 1.33232 5.63398 2.21514 5.63398 3.62093C5.63398 4.57114 6.19871 5.42701 7.06536 5.79092C7.93202 6.15484 8.92941 5.95266 9.59254 5.28145L10.6263 6.14945C10.2852 6.51581 9.87082 6.80639 9.41016 7.00236C8.94949 7.19833 8.45279 7.29531 7.95224 7.28701C5.98846 7.28701 4.30367 5.8354 4.30367 3.62093ZM6.32439e-05 5.80306C-0.00136098 5.68092 0.0212823 5.55971 0.066708 5.44633C0.112134 5.33295 0.179453 5.22963 0.264812 5.14227C0.350171 5.05491 0.451899 4.98522 0.564194 4.93718C0.676489 4.88913 0.797148 4.86368 0.91928 4.86227C1.04141 4.86368 1.16207 4.88913 1.27437 4.93718C1.38666 4.98522 1.48839 5.05491 1.57375 5.14227C1.65911 5.22963 1.72643 5.33295 1.77185 5.44633C1.81728 5.55971 1.83992 5.68092 1.8385 5.80306C1.8265 6.03959 1.72471 6.26263 1.55389 6.42668C1.38307 6.59074 1.1561 6.68344 0.91928 6.68588C0.682456 6.68344 0.455484 6.59074 0.284669 6.42668C0.113853 6.26263 0.0120641 6.03959 6.32439e-05 5.80306Z" fill="var(--fill-0, #333333)"/>
</svg>
