<svg preserveAspectRatio="none" width="100%" height="100%" overflow="visible" style="display: block;" viewBox="0 0 22.8588 22.8588" fill="none" xmlns="http://www.w3.org/2000/svg">
<path id="Vector" d="M11.4294 22.8588C13.6902 22.8588 15.9001 22.1883 17.7798 20.9322C19.6595 19.6761 21.1244 17.8908 21.9893 15.802C22.8542 13.7132 23.0802 11.4149 22.6388 9.19763C22.1973 6.98039 21.1082 4.94388 19.5093 3.34567C17.9103 1.74745 15.8733 0.65934 13.6558 0.218952C11.4384 -0.221437 9.14012 0.00568363 7.05177 0.871586C4.96341 1.73749 3.17876 3.20327 1.92354 5.08355C0.668323 6.96382 -0.00107988 9.17412 1.30763e-06 11.4349C1.13586e-06 12.9355 0.29567 14.4215 0.870118 15.8079C1.44457 17.1943 2.28654 18.4539 3.34793 19.5147C4.40931 20.5756 5.66932 21.417 7.05597 21.9908C8.44262 22.5646 9.92873 22.8595 11.4294 22.8588V22.8588Z" fill="var(--fill-0, #FFCD00)"/>
</svg>
