<svg preserveAspectRatio="none" width="100%" height="100%" overflow="visible" style="display: block;" viewBox="0 0 91.2853 21.5292" fill="none" xmlns="http://www.w3.org/2000/svg">
<path id="Vector" fill-rule="evenodd" clip-rule="evenodd" d="M3.58011 0.114983H0V21.2417H13.1176V18.0512H3.58011V0.114983ZM20.866 6.46739C23.0428 6.46739 24.5034 7.35845 25.3054 8.45073L25.4772 6.75483H28.5705V21.2417H25.4772L25.3054 19.5459C24.5034 20.6382 23.0428 21.5292 20.866 21.5292C16.9421 21.5292 14.2785 18.3386 14.2785 13.9983C14.2785 9.62918 16.9421 6.46739 20.866 6.46739ZM21.6106 9.51425C19.3766 9.51425 17.7727 11.2677 17.7727 13.9983C17.7727 16.729 19.3766 18.4824 21.6106 18.4824C23.3291 18.4824 24.3603 17.5625 25.1335 16.3265V11.67C24.3603 10.4341 23.3291 9.51425 21.6106 9.51425ZM37.2354 1.8971H33.7985V6.75483H31.0775V9.68676H33.7985V16.1254C33.7985 19.6321 35.8892 21.5292 39.183 21.5292C40.615 21.5292 41.6747 21.1268 42.3908 20.6669L41.4742 17.965C41.0446 18.2237 40.4145 18.4248 39.498 18.4248C38.1518 18.4248 37.2354 17.5625 37.2354 16.0966V9.68676H41.5888V6.75483H37.2354V1.8971ZM49.0794 1.8971H45.6425V6.75483H42.9215V9.68676H45.6425V16.1254C45.6425 19.6321 47.7332 21.5292 51.027 21.5292C52.459 21.5292 53.5187 21.1268 54.2348 20.6669L53.3182 17.965C52.8886 18.2237 52.2586 18.4248 51.342 18.4248C49.9958 18.4248 49.0794 17.5625 49.0794 16.0966V9.68676H53.4329V6.75483H49.0794V1.8971ZM59.9782 6.75483H56.5413V21.2417H59.9782V6.75483ZM58.2597 0C57.0568 0 56.1403 0.891058 56.1403 2.12705C56.1403 3.36304 57.0568 4.2541 58.2597 4.2541C59.4914 4.2541 60.4078 3.36304 60.4078 2.12705C60.4078 0.891058 59.4914 0 58.2597 0ZM70.362 6.46739C65.9221 6.46739 62.9724 9.62918 62.9724 13.9983C62.9724 18.3386 65.9513 21.5292 70.39 21.5292C72.9964 21.5292 74.9722 20.3507 76.2614 18.3386L73.7987 16.4128C73.1108 17.5625 71.9945 18.5111 70.4192 18.5111C67.87 18.5111 66.4663 16.5278 66.4663 13.9983C66.4663 11.44 67.8127 9.48552 70.39 9.48552C71.9945 9.48552 73.0536 10.4053 73.7122 11.5551L76.2042 9.65803C74.915 7.6459 72.9964 6.46739 70.362 6.46739ZM84.6687 6.46739C89.1086 6.46739 91.2853 9.80168 91.2853 13.8546V15.0618H81.0884C81.1748 17.3613 82.5493 18.6261 84.9548 18.6261C86.6446 18.6261 87.8766 17.8787 88.5352 16.959L90.9127 18.9135C89.4799 20.6382 87.5905 21.5292 84.9268 21.5292C80.459 21.5292 77.5945 18.3674 77.5945 14.027C77.5945 9.65803 80.5162 6.46739 84.6687 6.46739ZM84.6115 9.22682C82.5785 9.22682 81.2028 10.5778 81.0884 12.5899H87.9058C87.8193 10.6065 86.6738 9.22682 84.6115 9.22682Z" fill="var(--fill-0, #0E0E29)"/>
</svg>
