<svg preserveAspectRatio="none" width="100%" height="100%" overflow="visible" style="display: block;" viewBox="0 0 86.8032 19.0714" fill="none" xmlns="http://www.w3.org/2000/svg">
<path id="Vector" fill-rule="evenodd" clip-rule="evenodd" d="M13.4288 5.27296C12.9688 4.64874 12.3693 4.19291 11.6301 3.90544C10.8909 3.61797 10.1681 3.47424 9.46176 3.47424C8.55828 3.47424 7.73696 3.6385 6.99776 3.96704C6.25856 4.29557 5.62203 4.7473 5.08816 5.32224C4.55429 5.89717 4.14363 6.57066 3.85616 7.34272C3.56869 8.11478 3.42496 8.95253 3.42496 9.856C3.42496 10.8087 3.56458 11.6794 3.84384 12.4678C4.12309 13.2563 4.52143 13.9339 5.03888 14.5006C5.55632 15.0674 6.17642 15.5068 6.89919 15.8189C7.62197 16.131 8.43508 16.287 9.33856 16.287C10.2749 16.287 11.1044 16.1022 11.8272 15.7326C12.55 15.363 13.1331 14.8743 13.5766 14.2666L16.0653 16.016C15.2932 16.9852 14.3487 17.7367 13.2317 18.2706C12.1147 18.8044 10.8087 19.0714 9.31392 19.0714C7.9505 19.0714 6.69798 18.8455 5.55632 18.3938C4.41466 17.942 3.43318 17.3096 2.61184 16.4965C1.7905 15.6834 1.14987 14.7142 0.689917 13.589C0.229968 12.4637 0 11.2194 0 9.856C0 8.45973 0.242288 7.19899 0.726877 6.07376C1.21147 4.94853 1.87674 3.99168 2.72272 3.2032C3.5687 2.41472 4.56661 1.80694 5.71648 1.37984C6.86635 0.952744 8.11476 0.7392 9.46176 0.7392C10.0203 0.7392 10.6034 0.792586 11.2112 0.89936C11.819 1.00613 12.4021 1.1704 12.9606 1.39216C13.5191 1.61392 14.0448 1.88907 14.5376 2.2176C15.0304 2.54614 15.4493 2.94037 15.7942 3.40032L13.4288 5.27296ZM17.8886 0H20.8454V18.6278H17.8886V0ZM31.8912 11.5315C31.8912 11.1537 31.8378 10.7923 31.731 10.4474C31.6243 10.1024 31.4559 9.79851 31.2259 9.53568C30.9959 9.27285 30.7044 9.06341 30.3512 8.90736C29.998 8.75131 29.5832 8.67328 29.1069 8.67328C28.2198 8.67328 27.4683 8.94021 26.8523 9.47408C26.2363 10.0079 25.8955 10.6938 25.8297 11.5315H31.8912ZM34.848 12.8621V13.2563C34.848 13.3877 34.8398 13.5191 34.8233 13.6506H25.8297C25.8626 14.0777 25.9735 14.4678 26.1624 14.821C26.3513 15.1741 26.6018 15.478 26.9139 15.7326C27.226 15.9873 27.5792 16.1885 27.9734 16.3363C28.3677 16.4842 28.7783 16.5581 29.2054 16.5581C29.9446 16.5581 30.5688 16.4226 31.0781 16.1515C31.5873 15.8805 32.0062 15.5068 32.3347 15.0304L34.3059 16.6074C33.1396 18.1843 31.4477 18.9728 29.2301 18.9728C28.3102 18.9728 27.4642 18.8291 26.6921 18.5416C25.9201 18.2541 25.2507 17.8476 24.684 17.3219C24.1173 16.7963 23.6738 16.1515 23.3534 15.3877C23.0331 14.6238 22.8729 13.7573 22.8729 12.7882C22.8729 11.8354 23.0331 10.9689 23.3534 10.1886C23.6738 9.40837 24.1132 8.7431 24.6717 8.1928C25.2302 7.6425 25.8913 7.21541 26.6552 6.91152C27.419 6.60763 28.2445 6.45568 29.1315 6.45568C29.9528 6.45568 30.7126 6.5912 31.4107 6.86224C32.1088 7.13328 32.7125 7.53573 33.2217 8.0696C33.731 8.60347 34.1293 9.26874 34.4168 10.0654C34.7043 10.8621 34.848 11.7943 34.848 12.8621ZM44.9011 17.1248H44.8272C44.5315 17.6505 44.0551 18.0816 43.3981 18.4184C42.741 18.7551 41.9936 18.9235 41.1558 18.9235C40.6794 18.9235 40.1825 18.8619 39.6651 18.7387C39.1477 18.6155 38.6713 18.4102 38.236 18.1227C37.8007 17.8352 37.4393 17.4574 37.1518 16.9893C36.8644 16.5211 36.7206 15.9421 36.7206 15.2522C36.7206 14.3651 36.9711 13.6588 37.4721 13.1331C37.9732 12.6075 38.6179 12.205 39.4064 11.9258C40.1949 11.6465 41.0696 11.4617 42.0305 11.3714C42.9915 11.281 43.9319 11.2358 44.8518 11.2358V10.9402C44.8518 10.201 44.5849 9.65477 44.051 9.3016C43.5172 8.94842 42.8806 8.77184 42.1414 8.77184C41.5172 8.77184 40.9176 8.90325 40.3427 9.16608C39.7678 9.42891 39.2914 9.74922 38.9136 10.127L37.3859 8.32832C38.0594 7.7041 38.8356 7.23595 39.7144 6.92384C40.5932 6.61173 41.4844 6.45568 42.3878 6.45568C43.4391 6.45568 44.3056 6.60352 44.9873 6.8992C45.6691 7.19488 46.207 7.5809 46.6013 8.05728C46.9955 8.53366 47.2706 9.06752 47.4267 9.65888C47.5828 10.2502 47.6608 10.8416 47.6608 11.433V18.6278H44.9011V17.1248ZM44.8518 13.2317H44.1865C43.7102 13.2317 43.2092 13.2522 42.6835 13.2933C42.1578 13.3343 41.6733 13.4247 41.2297 13.5643C40.7862 13.7039 40.4166 13.9011 40.1209 14.1557C39.8253 14.4103 39.6774 14.7594 39.6774 15.2029C39.6774 15.4821 39.739 15.7162 39.8622 15.9051C39.9854 16.094 40.1456 16.246 40.3427 16.361C40.5398 16.4759 40.7616 16.5581 41.008 16.6074C41.2544 16.6566 41.5008 16.6813 41.7472 16.6813C42.7656 16.6813 43.5377 16.4102 44.0633 15.8682C44.589 15.3261 44.8518 14.5869 44.8518 13.6506V13.2317ZM50.2304 6.80064H53.064V8.77184H53.1133C53.4418 8.08191 53.9017 7.52341 54.4931 7.09632C55.0845 6.66922 55.7744 6.45568 56.5629 6.45568C56.6778 6.45568 56.801 6.45979 56.9325 6.468C57.0639 6.47621 57.1789 6.49675 57.2774 6.5296V9.24C57.0803 9.19072 56.9119 9.15787 56.7723 9.14144C56.6327 9.12501 56.4972 9.1168 56.3657 9.1168C55.6922 9.1168 55.1502 9.24 54.7395 9.4864C54.3288 9.7328 54.0085 10.0285 53.7785 10.3734C53.5486 10.7184 53.3925 11.0716 53.3104 11.433C53.2282 11.7943 53.1872 12.0818 53.1872 12.2954V18.6278H50.2304V6.80064ZM62.2054 0V8.30368H62.2793C62.4272 8.10656 62.6161 7.90123 62.8461 7.68768C63.076 7.47413 63.3512 7.27701 63.6715 7.09632C63.9918 6.91562 64.3655 6.76368 64.7926 6.64048C65.2197 6.51728 65.7043 6.45568 66.2464 6.45568C67.0841 6.45568 67.8562 6.61584 68.5625 6.93616C69.2689 7.25648 69.8767 7.69589 70.3859 8.2544C70.8951 8.81291 71.2894 9.46997 71.5686 10.2256C71.8479 10.9812 71.9875 11.7943 71.9875 12.665C71.9875 13.5356 71.852 14.3528 71.5809 15.1166C71.3099 15.8805 70.9239 16.5458 70.4229 17.1125C69.9218 17.6792 69.3141 18.1309 68.5995 18.4677C67.8849 18.8044 67.0759 18.9728 66.1725 18.9728C65.3347 18.9728 64.5503 18.7921 63.8193 18.4307C63.0883 18.0693 62.5175 17.5437 62.1069 16.8538H62.0576V18.6278H59.2486V0H62.2054ZM68.9814 12.665C68.9814 12.205 68.9116 11.7492 68.772 11.2974C68.6323 10.8457 68.4229 10.4391 68.1437 10.0778C67.8644 9.71637 67.5112 9.4248 67.0841 9.20304C66.657 8.98128 66.156 8.8704 65.5811 8.8704C65.039 8.8704 64.5544 8.98539 64.1273 9.21536C63.7002 9.44533 63.3348 9.74101 63.0309 10.1024C62.727 10.4638 62.497 10.8744 62.3409 11.3344C62.1849 11.7943 62.1069 12.2543 62.1069 12.7142C62.1069 13.1742 62.1849 13.63 62.3409 14.0818C62.497 14.5335 62.727 14.94 63.0309 15.3014C63.3348 15.6628 63.7002 15.9544 64.1273 16.1762C64.5544 16.3979 65.039 16.5088 65.5811 16.5088C66.156 16.5088 66.657 16.3938 67.0841 16.1638C67.5112 15.9339 67.8644 15.6382 68.1437 15.2768C68.4229 14.9154 68.6323 14.5047 68.772 14.0448C68.9116 13.5848 68.9814 13.1249 68.9814 12.665ZM74.015 6.80064H76.9718V18.6278H74.015V6.80064ZM73.5961 2.78432C73.5961 2.30794 73.7727 1.89317 74.1259 1.54C74.4791 1.18682 74.9267 1.01024 75.4688 1.01024C76.0108 1.01024 76.4667 1.17861 76.8363 1.51536C77.2059 1.85211 77.3907 2.27509 77.3907 2.78432C77.3907 3.29355 77.2059 3.71653 76.8363 4.05328C76.4667 4.39003 76.0108 4.5584 75.4688 4.5584C74.9267 4.5584 74.4791 4.38181 74.1259 4.02864C73.7727 3.67546 73.5961 3.2607 73.5961 2.78432ZM78.8691 9.16608V6.80064H80.9388V3.37568H83.8464V6.80064H86.8032V9.16608H83.8464V14.6608C83.8464 15.1865 83.9408 15.6218 84.1297 15.9667C84.3186 16.3117 84.7416 16.4842 85.3987 16.4842C85.5958 16.4842 85.8094 16.4636 86.0393 16.4226C86.2693 16.3815 86.4746 16.3199 86.6553 16.2378L86.7539 18.5539C86.4911 18.6525 86.179 18.7305 85.8176 18.788C85.4562 18.8455 85.1112 18.8742 84.7827 18.8742C83.9942 18.8742 83.3536 18.7634 82.8608 18.5416C82.368 18.3198 81.9778 18.0159 81.6904 17.6299C81.4029 17.2439 81.2058 16.8004 81.099 16.2994C80.9922 15.7983 80.9388 15.2604 80.9388 14.6854V9.16608H78.8691Z" fill="var(--fill-0, #27282A)"/>
</svg>
