<svg preserveAspectRatio="none" width="100%" height="100%" overflow="visible" style="display: block;" viewBox="0 0 118.396 22.8589" fill="none" xmlns="http://www.w3.org/2000/svg">
<path id="Vector" d="M118.396 10.3563V7.47464H114.817V2.99471L114.697 3.0318L111.336 4.0602L111.269 4.08033V7.4748H105.964V5.58379C105.964 4.70327 106.161 4.02945 106.549 3.58008C106.934 3.1361 107.486 2.91038 108.189 2.91038C108.694 2.91038 109.217 3.02942 109.744 3.26417L109.876 3.32314V0.288327L109.814 0.265502C109.322 0.0889233 108.654 0 107.826 0C106.782 0 105.834 0.227143 105.007 0.677308C104.179 1.12811 103.528 1.77165 103.072 2.58987C102.618 3.40715 102.387 4.35106 102.387 5.39564V7.47464H99.8954V10.3563H102.387V22.4964H105.964V10.3563H111.269V18.0711C111.269 21.2484 112.768 22.8585 115.724 22.8585C116.209 22.8585 116.721 22.8016 117.243 22.6902C117.774 22.5758 118.136 22.4615 118.349 22.3394L118.396 22.3115V19.4032L118.25 19.4994C118.056 19.6288 117.814 19.7345 117.531 19.8131C117.246 19.8932 117.009 19.9333 116.824 19.9333C116.132 19.9333 115.62 19.7467 115.302 19.3785C114.981 19.0069 114.817 18.3572 114.817 17.4483V10.3563H118.396ZM91.9072 19.9337C90.6089 19.9337 89.5852 19.5032 88.8638 18.6552C88.138 17.8029 87.7703 16.5878 87.7703 15.0439C87.7703 13.451 88.138 12.2044 88.8642 11.337C89.586 10.4754 90.5998 10.038 91.878 10.038C93.1184 10.038 94.1057 10.4557 94.813 11.2801C95.5237 12.1088 95.8845 13.3455 95.8845 14.9569C95.8845 16.5881 95.5453 17.8411 94.8764 18.6793C94.2121 19.5112 93.2132 19.9337 91.9072 19.9337V19.9337ZM92.0662 7.11276C89.5892 7.11276 87.6218 7.83857 86.219 9.27007C84.8171 10.7017 84.1064 12.6829 84.1064 15.1591C84.1064 17.5111 84.8002 19.4029 86.1687 20.7811C87.5373 22.1598 89.3998 22.8582 91.704 22.8582C94.1051 22.8582 96.0334 22.1223 97.4355 20.671C98.8375 19.2212 99.5478 17.2587 99.5478 14.8404C99.5478 12.4517 98.8813 10.5457 97.5661 9.1767C96.2503 7.80703 94.3996 7.11276 92.0662 7.11276V7.11276ZM78.339 7.11276C76.6541 7.11276 75.2603 7.54375 74.1956 8.39351C73.1244 9.24835 72.5811 10.3695 72.5811 11.7262C72.5811 12.4314 72.6984 13.0578 72.9291 13.5891C73.1614 14.1222 73.5207 14.5915 73.9981 14.9854C74.4719 15.3761 75.2033 15.7854 76.1724 16.2018C76.9871 16.5371 77.5947 16.8206 77.9807 17.0441C78.3579 17.2632 78.6256 17.4834 78.7768 17.6978C78.9238 17.9077 78.9983 18.1949 78.9983 18.5493C78.9983 19.5585 78.2425 20.0496 76.6874 20.0496C76.1106 20.0496 75.4526 19.9291 74.7319 19.6917C74.0162 19.4578 73.3408 19.1154 72.7293 18.6763L72.5807 18.5698V22.0137L72.6353 22.0391C73.1414 22.2727 73.7795 22.4697 74.5317 22.6247C75.2824 22.7799 75.9644 22.8589 76.5569 22.8589C78.3853 22.8589 79.8577 22.4258 80.9321 21.571C82.0133 20.7103 82.5612 19.5627 82.5612 18.1591C82.5612 17.1465 82.2662 16.2782 81.6848 15.5779C81.1074 14.8833 80.1051 14.2457 78.7073 13.682C77.5936 13.235 76.8801 12.8639 76.5858 12.5791C76.302 12.3039 76.158 11.9148 76.158 11.422C76.158 10.9851 76.3358 10.6351 76.7009 10.3517C77.0688 10.0669 77.5809 9.92201 78.2232 9.92201C78.8192 9.92201 79.4289 10.0162 80.0354 10.2007C80.6414 10.3852 81.1736 10.6323 81.6179 10.9346L81.7641 11.0344V7.76756L81.708 7.74347C81.2981 7.56768 80.7576 7.41726 80.101 7.29521C79.4475 7.17395 78.8547 7.11276 78.339 7.11276V7.11276ZM63.2558 19.9337C61.9578 19.9337 60.9339 19.5032 60.2126 18.6552C59.4867 17.8029 59.1196 16.5881 59.1196 15.0439C59.1196 13.451 59.4871 12.2044 60.2134 11.337C60.9346 10.4754 61.9483 10.038 63.2272 10.038C64.467 10.038 65.4544 10.4557 66.1618 11.2801C66.8727 12.1088 67.2333 13.3455 67.2333 14.9569C67.2333 16.5881 66.8939 17.8411 66.225 18.6793C65.5607 19.5112 64.5623 19.9337 63.2558 19.9337V19.9337ZM63.4153 7.11276C60.9377 7.11276 58.9701 7.83857 57.5681 9.27007C56.1662 10.7017 55.455 12.6829 55.455 15.1591C55.455 17.512 56.1493 19.4029 57.5178 20.7811C58.8864 22.1598 60.7487 22.8582 63.053 22.8582C65.4537 22.8582 67.3825 22.1223 68.7846 20.671C70.1863 19.2212 70.8969 17.2587 70.8969 14.8404C70.8969 12.4517 70.2302 10.5457 68.9148 9.1767C67.5987 7.80703 65.7482 7.11276 63.4153 7.11276V7.11276ZM50.0251 10.0761V7.47464H46.4917V22.496H50.0251V14.812C50.0251 13.5054 50.3214 12.432 50.906 11.6212C51.4831 10.8201 52.2522 10.4142 53.1912 10.4142C53.5095 10.4142 53.8667 10.4666 54.2537 10.5705C54.6366 10.6737 54.914 10.7857 55.0776 10.9037L55.2261 11.0113V7.44896L55.1689 7.42439C54.8398 7.28459 54.3743 7.21405 53.7853 7.21405C52.8973 7.21405 52.1027 7.49936 51.4221 8.06112C50.8247 8.55487 50.3929 9.23186 50.0627 10.0761H50.0251ZM40.1638 7.11276C38.5428 7.11276 37.0969 7.46037 35.867 8.1456C34.6346 8.83242 33.6815 9.81296 33.033 11.0598C32.3874 12.3036 32.0596 13.7565 32.0596 15.3768C32.0596 16.7961 32.3774 18.0985 33.0056 19.2464C33.6341 20.3963 34.5236 21.2958 35.6497 21.9197C36.7741 22.5428 38.0738 22.8587 39.5127 22.8587C41.1919 22.8587 42.6256 22.523 43.7751 21.8609L43.8216 21.8343V18.597L43.6731 18.7055C43.1524 19.0848 42.5705 19.3875 41.9444 19.6056C41.3199 19.8236 40.7505 19.9337 40.2512 19.9337C38.8647 19.9337 37.7517 19.4999 36.9437 18.6446C36.1341 17.7882 35.7235 16.5856 35.7235 15.0723C35.7235 13.5495 36.1517 12.316 36.9954 11.4058C37.8366 10.4983 38.9517 10.038 40.3095 10.038C41.4709 10.038 42.6027 10.4313 43.6734 11.208L43.8216 11.3156V7.90467L43.7737 7.87772C43.3708 7.65217 42.8212 7.46592 42.139 7.32469C41.4596 7.18377 40.7952 7.11276 40.1638 7.11276V7.11276ZM29.626 7.4748H26.0926V22.496H29.626V7.4748V7.4748ZM27.8954 1.07564C27.3139 1.07564 26.8066 1.27362 26.3899 1.66593C25.9715 2.05935 25.7592 2.55469 25.7592 3.13927C25.7592 3.71465 25.9689 4.20096 26.3834 4.58391C26.7952 4.96576 27.304 5.1593 27.8956 5.1593C28.487 5.1593 28.9977 4.96576 29.4144 4.58455C29.8338 4.20096 30.0466 3.71481 30.0466 3.13927C30.0466 2.57513 29.8396 2.08487 29.4317 1.68178C29.0242 1.27948 28.5071 1.07564 27.8954 1.07564ZM19.0792 6.3665V22.496H22.6853V1.53547H17.6943L11.3505 17.1044L5.19417 1.53547H0V22.4959H3.38875V6.36492H3.5051L10.006 22.496H12.5634L18.9629 6.3665H19.0792V6.3665Z" fill="var(--fill-0, #706D6E)"/>
</svg>
