<svg preserveAspectRatio="none" width="100%" height="100%" overflow="visible" style="display: block;" viewBox="0 0 15.4876 22.7427" fill="none" xmlns="http://www.w3.org/2000/svg">
<path id="Vector" d="M15.4876 22.4271H11.2996V21.5424C10.1846 22.3008 8.82845 22.7427 7.20128 22.7427C3.22359 22.7427 0 19.2996 0 14.8454C0 10.4548 3.22439 6.97948 7.20128 6.97948C8.82845 6.97948 10.1846 7.42143 11.2996 8.17977V0H15.4876V22.4271ZM11.2987 17.2791V12.4457C10.365 11.1504 9.12945 10.7084 7.89391 10.7084C5.69468 10.7084 4.15733 12.6357 4.15733 14.8462C4.15733 17.089 5.69387 19.0477 7.89391 19.0477C9.12945 19.0477 10.365 18.6057 11.2987 17.2791Z" fill="var(--fill-0, #10069F)"/>
</svg>
