<svg preserveAspectRatio="none" width="100%" height="100%" overflow="visible" style="display: block;" viewBox="0 0 79.3058 33" fill="none" xmlns="http://www.w3.org/2000/svg">
<g id="Vector">
<path fill-rule="evenodd" clip-rule="evenodd" d="M79.3058 17.0508C79.3058 11.4113 76.5741 6.96133 71.3532 6.96133C66.1102 6.96133 62.938 11.4113 62.938 17.0067C62.938 23.6375 66.6829 26.986 72.0581 26.986C74.6796 26.986 76.6622 26.3912 78.1602 25.5541V21.1482C76.6622 21.8972 74.9439 22.3598 72.763 22.3598C70.6262 22.3598 68.7317 21.6108 68.4893 19.0114H79.2617C79.2617 18.725 79.3058 17.5795 79.3058 17.0508ZM68.4233 14.958C68.4233 12.4687 69.9433 11.4333 71.3311 11.4333C72.6749 11.4333 74.1068 12.4687 74.1068 14.958H68.4233Z" fill="#635BFF"/>
<path fill-rule="evenodd" clip-rule="evenodd" d="M54.4345 6.96132C52.2756 6.96132 50.8877 7.97467 50.1167 8.67961L49.8303 7.31379H44.9839V33L50.4912 31.8324L50.5132 25.5981C51.3063 26.1709 52.4738 26.986 54.4124 26.986C58.3557 26.986 61.9465 23.8138 61.9465 16.8305C61.9244 10.442 58.2896 6.96132 54.4345 6.96132ZM53.1127 22.1395C51.813 22.1395 51.0419 21.6769 50.5132 21.1042L50.4912 12.9313C51.064 12.2924 51.857 11.8518 53.1127 11.8518C55.1174 11.8518 56.5052 14.0988 56.5052 16.9847C56.5052 19.9366 55.1394 22.1395 53.1127 22.1395Z" fill="#635BFF"/>
<path fill-rule="evenodd" clip-rule="evenodd" d="M37.4057 5.66154L42.935 4.47196V0L37.4057 1.16756V5.66154Z" fill="#635BFF"/>
<path d="M42.935 7.33579H37.4057V26.6115H42.935V7.33579Z" fill="#635BFF"/>
<path fill-rule="evenodd" clip-rule="evenodd" d="M31.4795 8.96595L31.1271 7.33578H26.3687V26.6115H31.8761V13.5481C33.1758 11.8518 35.3787 12.1602 36.0617 12.4025V7.33578C35.3567 7.07143 32.7793 6.58678 31.4795 8.96595Z" fill="#635BFF"/>
<path fill-rule="evenodd" clip-rule="evenodd" d="M20.465 2.55538L15.0899 3.70091L15.0679 21.3464C15.0679 24.6067 17.5131 27.008 20.7735 27.008C22.5799 27.008 23.9016 26.6775 24.6286 26.281V21.809C23.9237 22.0954 20.443 23.1088 20.443 19.8484V12.028H24.6286V7.33575H20.443L20.465 2.55538Z" fill="#635BFF"/>
<path fill-rule="evenodd" clip-rule="evenodd" d="M5.57342 12.9313C5.57342 12.0721 6.27836 11.7417 7.44592 11.7417C9.12015 11.7417 11.235 12.2484 12.9092 13.1516V7.97468C11.0808 7.24771 9.27435 6.96133 7.44592 6.96133C2.97396 6.96133 0 9.29644 0 13.1956C0 19.2757 8.37115 18.3064 8.37115 20.9279C8.37115 21.9413 7.48998 22.2717 6.25633 22.2717C4.4279 22.2717 2.09279 21.5227 0.242322 20.5094V25.7524C2.29105 26.6335 4.36181 27.008 6.25633 27.008C10.8384 27.008 13.9886 24.739 13.9886 20.7958C13.9666 14.231 5.57342 15.3986 5.57342 12.9313Z" fill="#635BFF"/>
</g>
</svg>
