<svg preserveAspectRatio="none" width="100%" height="100%" overflow="visible" style="display: block;" viewBox="0 0 82 36" fill="none" xmlns="http://www.w3.org/2000/svg">
<g id="logo-layer" clip-path="url(#clip0_418_254)">
<path id="Vector" d="M17.9939 36C27.9234 36 35.9878 27.9502 35.9878 18.004C35.9878 8.05722 27.9234 0 17.9939 0C8.04907 0 0 8.05722 0 18.004C0 27.9502 8.04907 36 17.9939 36Z" fill="var(--fill-0, #A50034)"/>
<path id="Vector_2" d="M17.2699 10.1029V25.8971H22.2854V24.477H18.7155V10.1029H17.2699Z" fill="var(--fill-0, white)"/>
<path id="Vector_3" d="M12.248 14.4123C13.4412 14.4123 14.403 13.441 14.403 12.2548C14.403 11.0677 13.4412 10.0926 12.248 10.0926C11.0547 10.0926 10.0929 11.0677 10.0929 12.2548C10.0929 13.4419 11.0547 14.4123 12.248 14.4123Z" fill="var(--fill-0, white)"/>
<path id="Vector_4" d="M18.715 2.93819C18.527 2.92887 18.1694 2.91722 17.9985 2.91722C9.69296 2.91722 2.93349 9.68665 2.93349 17.9965C2.93349 22.0328 4.5001 25.816 7.33769 28.661C10.1869 31.4995 13.9677 33.0678 17.9985 33.0678C22.014 33.0678 25.7939 31.4995 28.638 28.661C31.4826 25.816 33.0566 22.0328 33.0566 17.9965V17.3258H32.4472H22.2994V18.7138H31.6218C31.6218 18.7441 31.6218 18.8914 31.6152 18.9296C31.1413 26.0337 25.2147 31.6603 17.9985 31.6603C14.3458 31.6603 10.9206 30.2382 8.34283 27.6557C5.75665 25.0838 4.33157 21.6576 4.33157 17.996C4.33157 14.3554 5.75665 10.9115 8.34283 8.33174C10.9206 5.75428 14.3458 4.33225 17.9985 4.33225C18.1559 4.33225 18.5386 4.33225 18.715 4.34158V2.93819Z" fill="var(--fill-0, white)"/>
<path id="Vector_5" d="M49.5202 6.06005H44.1132V29.4939H60.7206V24.9323H49.5202V6.06005V6.06005ZM72.6152 20.5637H77.019V24.6611C76.207 24.9705 74.6237 25.2791 73.1171 25.2791C68.2506 25.2791 66.6295 22.8046 66.6295 17.7788C66.6295 12.9861 68.1733 10.1602 73.0398 10.1602C75.7443 10.1602 77.289 11.0113 78.5618 12.6356L81.9236 9.54124C79.8761 6.6049 76.2834 5.71561 72.9244 5.71561C65.3525 5.71561 61.3752 9.85259 61.3752 17.7397C61.3752 25.5886 64.967 29.8416 72.8862 29.8416C76.5162 29.8416 80.0698 28.9141 82 27.5611V16.1932H72.6152V20.5637Z" fill="var(--fill-0, #6B6B6B)"/>
</g>
<defs>
<clipPath id="clip0_418_254">
<rect width="82" height="36" fill="white"/>
</clipPath>
</defs>
</svg>
