<svg preserveAspectRatio="none" width="100%" height="100%" overflow="visible" style="display: block;" viewBox="0 0 18.0974 13.7518" fill="none" xmlns="http://www.w3.org/2000/svg">
<path id="Vector" d="M17.6253 3.72811C17.2544 3.78971 16.8792 3.82127 16.5033 3.82247C14.0396 3.82247 13.1159 3.00249 12.0458 2.05419C11.0135 1.13891 9.72838 0 7.39017 0H5.99366C4.30275 0 2.7666 0.614274 1.66637 1.72771C0.591628 2.81566 0 4.30464 0 5.921V7.83177C0 9.44813 0.591628 10.9371 1.66637 12.0251C2.7666 13.1385 4.30275 13.7518 5.99366 13.7518H7.39017C9.72838 13.7518 11.0135 12.6139 12.0458 11.6986C13.1159 10.755 14.0396 9.9303 16.5033 9.9303C16.8791 9.93039 17.2542 9.96037 17.6253 10.0199C17.8382 9.4886 17.9963 8.93688 18.097 8.37339C18.0976 8.36396 18.0976 8.35451 18.097 8.34508C17.5699 8.24734 17.0348 8.19838 16.4986 8.19882C10.8371 8.19882 11.1334 12.0213 7.38545 12.0213H5.98894C3.41673 12.0213 1.72676 10.1832 1.72676 7.83177V5.91723C1.72676 3.56581 3.41673 1.72865 5.98894 1.72865H7.38545C11.1334 1.72865 10.839 5.54923 16.4986 5.54923C17.0348 5.55014 17.5699 5.50118 18.097 5.40298C18.097 5.39448 18.097 5.38599 18.097 5.37656C17.9956 4.81261 17.8375 4.26033 17.6253 3.72811Z" fill="var(--fill-0, #0AE8F0)"/>
</svg>
