<svg preserveAspectRatio="none" width="100%" height="100%" overflow="visible" style="display: block;" viewBox="0 0 84.0742 32.7401" fill="none" xmlns="http://www.w3.org/2000/svg">
<g id="Vector">
<path d="M62.7056 5.30027C64.1972 5.30027 65.3538 4.11908 65.3538 2.63503C65.3538 1.18125 64.1972 6.10352e-05 62.7056 6.10352e-05C61.2445 6.10352e-05 60.0269 1.18125 60.0269 2.63503C59.9965 4.11908 61.2445 5.30027 62.7056 5.30027Z" fill="#2C3242"/>
<path d="M39.876 7.1477H43.8636V9.57066C44.8681 8.11688 47.0902 6.78426 49.7079 6.78426C54.6696 6.78426 58.4442 10.9942 58.4442 16.1732C58.4442 21.322 54.6696 25.5621 49.7079 25.5621C47.0902 25.5621 44.8985 24.2295 43.8636 22.7758V32.7401H39.876V7.1477ZM48.9774 10.3884C45.7508 10.3884 43.5288 12.9022 43.5288 16.1732C43.5288 19.4139 45.7508 21.958 48.9774 21.958C52.1735 21.958 54.3957 19.4442 54.3957 16.1732C54.3957 12.9325 52.1735 10.3884 48.9774 10.3884Z" fill="#2C3242"/>
<path d="M67.6369 7.1477H71.6245V9.60094C72.7203 7.78373 74.7899 6.78426 77.1339 6.78426C81.3342 6.78426 84.0742 9.75237 84.0742 14.3257V25.1987H80.0864V14.992C80.0864 12.145 78.6251 10.4187 76.312 10.4187C73.6637 10.4187 71.6245 12.4782 71.6245 16.3246V25.1987H67.6369V7.1477Z" fill="#2C3242"/>
<path d="M9.49719 6.78427C7.15337 6.78427 5.08344 7.78374 3.98764 9.60096V0H0V25.1987H3.98764V16.3246C3.98764 12.4782 6.02704 10.4187 8.67529 10.4187C10.9887 10.4187 12.4498 12.1451 12.4498 14.9921V25.1987H16.4374V14.3258C16.407 9.75238 13.6978 6.78427 9.49719 6.78427Z" fill="#2C3242"/>
<path d="M64.6537 7.14782H60.6662V25.1988H64.6537V7.14782Z" fill="#2C3242"/>
<path d="M28.1569 25.5622C22.7995 25.5622 18.6597 21.4129 18.6597 16.1732C18.6597 10.9336 22.7995 6.7843 28.1569 6.7843C33.5142 6.7843 37.6539 10.9336 37.6539 16.1732C37.6539 21.4129 33.5142 25.5622 28.1569 25.5622ZM28.1569 21.8672C31.353 21.8672 33.6055 19.3836 33.6055 16.1732C33.6055 12.9629 31.353 10.4793 28.1569 10.4793C24.9303 10.4793 22.6777 12.9629 22.6777 16.1732C22.6777 19.3836 24.9303 21.8672 28.1569 21.8672Z" fill="#2C3242"/>
</g>
</svg>
