<svg preserveAspectRatio="none" width="100%" height="100%" overflow="visible" style="display: block;" viewBox="0 0 153 30" fill="none" xmlns="http://www.w3.org/2000/svg">
<g id="logo-layer">
<path id="Vector" d="M56.0234 0.948662H61.8087L71.646 18.3073L81.4831 0.948662H87.1432V29.4722H82.4231V7.61107L73.7972 22.7489H69.3694L60.7435 7.61107V29.4722H56.0234V0.948662Z" fill="var(--fill-0, #1C2B33)"/>
<path id="Vector_2" d="M102.369 29.9816C100.182 29.9816 98.2609 29.5096 96.6041 28.5656C94.947 27.6217 93.6556 26.3143 92.7298 24.6437C91.8037 22.9729 91.3407 21.0578 91.3409 18.8982C91.3409 16.7115 91.7934 14.776 92.6984 13.0916C93.6035 11.4076 94.8601 10.0901 96.4684 9.13896C98.0766 8.18845 99.925 7.71306 102.014 7.71281C104.088 7.71281 105.874 8.19157 107.371 9.1491C108.867 10.1069 110.02 11.4482 110.827 13.1731C111.635 14.8982 112.039 16.922 112.039 19.2445V20.5076H96.0193C96.3118 22.2465 97.0324 23.6149 98.1811 24.6129C99.3298 25.6113 100.781 26.1105 102.536 26.1104C103.942 26.1104 105.153 25.9067 106.17 25.4992C107.186 25.0917 108.14 24.4737 109.031 23.6453L111.537 26.6402C109.045 28.868 105.989 29.9818 102.369 29.9816V29.9816ZM105.815 13.0609C104.826 12.0763 103.531 11.5839 101.93 11.5838C100.37 11.5838 99.0651 12.0864 98.014 13.0916C96.9625 14.0968 96.2976 15.4482 96.0193 17.146H107.507C107.367 15.4074 106.803 14.0457 105.815 13.0609V13.0609Z" fill="var(--fill-0, #1C2B33)"/>
<path id="Vector_3" d="M117.762 11.9915H113.418V8.22227H117.762V1.98792H122.315V8.22227H128.915V11.9915H122.315V21.5468C122.315 23.1358 122.593 24.2699 123.15 24.9491C123.707 25.6285 124.661 25.9681 126.012 25.9678C126.61 25.9678 127.118 25.9441 127.536 25.8965C127.954 25.8492 128.414 25.7846 128.915 25.7029V29.4313C128.343 29.5927 127.76 29.7153 127.171 29.7982C126.497 29.895 125.816 29.9427 125.135 29.9408C120.219 29.9408 117.762 27.3194 117.762 22.0765V11.9915Z" fill="var(--fill-0, #1C2B33)"/>
<path id="Vector_4" d="M152.642 29.4722H148.172V26.4976C147.378 27.6115 146.369 28.4706 145.144 29.0749C143.918 29.679 142.526 29.9813 140.967 29.9817C139.045 29.9817 137.343 29.5028 135.86 28.5451C134.377 27.5876 133.211 26.2701 132.362 24.5927C131.512 22.9152 131.087 20.9967 131.088 18.8371C131.088 16.6639 131.519 14.7419 132.383 13.0711C133.246 11.4006 134.44 10.0899 135.964 9.13898C137.489 8.18847 139.24 7.71309 141.217 7.71284C142.707 7.71284 144.044 7.99471 145.227 8.55847C146.395 9.10942 147.406 9.93138 148.172 10.9523V8.2223H152.642V29.4722ZM148.089 15.6588C147.601 14.4499 146.832 13.4956 145.781 12.7961C144.729 12.0966 143.514 11.7469 142.136 11.7469C140.187 11.7469 138.634 12.3853 137.479 13.662C136.323 14.9388 135.745 16.6638 135.745 18.8371C135.745 21.024 136.302 22.7559 137.416 24.0325C138.53 25.3093 140.041 25.9476 141.948 25.9476C143.354 25.9476 144.607 25.5944 145.708 24.888C146.807 24.1821 147.601 23.2313 148.089 22.0357L148.089 15.6588Z" fill="var(--fill-0, #1C2B33)"/>
<path id="Vector_5" d="M5.00111 19.7843C5.00111 21.5089 5.38916 22.833 5.89635 23.634C6.56135 24.6832 7.55318 25.1277 8.56436 25.1277C9.86857 25.1277 11.0617 24.812 13.361 21.7099C15.203 19.2236 17.3735 15.7335 18.8339 13.5455L21.307 9.83875C23.0251 7.26441 25.0136 4.40261 27.2936 2.46282C29.1549 0.879587 31.1627 0 33.1835 0C36.576 0 39.8076 1.9178 42.2808 5.51466C44.9874 9.45392 46.3013 14.4157 46.3013 19.5361C46.3013 22.5801 45.6862 24.8167 44.6397 26.5838C43.6285 28.2927 41.6577 30 38.3424 30V25.1277C41.1811 25.1277 41.8895 22.5832 41.8895 19.6712C41.8895 15.5215 40.8977 10.9162 38.7127 7.62565C37.1621 5.29162 35.1527 3.86543 32.9419 3.86543C30.5509 3.86543 28.6268 5.6246 26.4643 8.76125C25.3147 10.4277 24.1345 12.4586 22.8093 14.7502L21.3505 17.2712C18.4201 22.3398 17.6778 23.4942 16.2126 25.3995C13.6444 28.7356 11.4513 30 8.56436 30C5.13957 30 2.97393 28.5534 1.63268 26.3733C0.537783 24.5969 0 22.266 0 19.61L5.00111 19.7843Z" fill="var(--fill-0, #0081FB)"/>
<path id="Vector_6" d="M3.94324 5.85862C6.23608 2.41098 9.54494 0 13.34 0C15.5379 0 17.7229 0.63456 20.0044 2.45184C22.5002 4.43875 25.1601 7.71048 28.4786 13.1026L29.6685 15.0377C32.541 19.7058 34.1753 22.1073 35.1317 23.2398C36.3619 24.6942 37.2233 25.1277 38.3424 25.1277C41.1811 25.1277 41.8895 22.5832 41.8895 19.6712L46.3013 19.5361C46.3013 22.5801 45.6862 24.8167 44.6397 26.5838C43.6285 28.2927 41.6577 30 38.3424 30C36.2814 30 34.4555 29.5633 32.4364 27.7052C30.8842 26.2791 29.0695 23.7455 27.6736 21.4681L23.521 14.7016C21.4375 11.3057 19.5262 8.77381 18.4201 7.62721C17.2302 6.39424 15.7005 4.90523 13.2595 4.90523C11.2839 4.90523 9.60612 6.25759 8.20207 8.32618L3.94324 5.85862Z" fill="url(#paint0_linear_418_376)"/>
<path id="Vector_7" d="M13.2595 4.90523C11.2839 4.90523 9.60612 6.25759 8.20207 8.32618C6.21676 11.2492 5.00111 15.6031 5.00111 19.7843C5.00111 21.5089 5.38916 22.833 5.89635 23.634L1.63268 26.3733C0.537783 24.5969 0 22.266 0 19.61C0 14.7801 1.35896 9.74606 3.94324 5.85862C6.23608 2.41098 9.54494 0 13.34 0L13.2595 4.90523Z" fill="url(#paint1_linear_418_376)"/>
</g>
<defs>
<linearGradient id="paint0_linear_418_376" x1="9.82188" y1="18.377" x2="41.6986" y2="20.0273" gradientUnits="userSpaceOnUse">
<stop stop-color="#0064E1"/>
<stop offset="0.4" stop-color="#0064E1"/>
<stop offset="0.83" stop-color="#0073EE"/>
<stop offset="1" stop-color="#0082FB"/>
</linearGradient>
<linearGradient id="paint1_linear_418_376" x1="7.24565" y1="21.8325" x2="7.24565" y2="10.3665" gradientUnits="userSpaceOnUse">
<stop stop-color="#0082FB"/>
<stop offset="1" stop-color="#0064E0"/>
</linearGradient>
</defs>
</svg>
