<svg preserveAspectRatio="none" width="100%" height="100%" overflow="visible" style="display: block;" viewBox="0 0 11.8107 14.0492" fill="none" xmlns="http://www.w3.org/2000/svg">
<path id="Vector" d="M5.97681 14.0489C3.87188 14.062 1.95106 13.4763 0.214368 12.2917C-0.0296087 12.1257 -0.0660962 12.0148 0.108837 11.7676C0.463713 11.2668 0.799275 10.7502 1.10586 10.2193C1.28651 9.90665 1.42102 9.94457 1.69576 10.1191C3.45333 11.2346 5.36901 11.592 7.41706 11.2135C7.65066 11.1702 7.88211 11.0668 8.09246 10.9537C8.54428 10.7126 8.78862 10.3177 8.77538 9.80899C8.76251 9.3146 8.48526 8.96294 8.0456 8.74472C7.30509 8.37625 6.49624 8.2929 5.69062 8.20811C4.62134 8.09543 3.57782 7.88293 2.60585 7.41179C1.25753 6.75785 0.369625 5.75833 0.338502 4.19215C0.306663 2.5945 1.14341 1.51986 2.50246 0.793648C3.43257 0.296036 4.44426 0.0863999 5.48886 0.0227227C7.51222 -0.100697 9.42075 0.270998 11.1769 1.32561C11.4548 1.49267 11.4799 1.62646 11.3049 1.88618C10.9898 2.35553 10.6886 2.83597 10.4178 3.33144C10.2496 3.63909 10.119 3.68738 9.79029 3.50208C8.17081 2.58877 6.43972 2.34122 4.6267 2.7773C3.79926 2.9762 3.36138 3.43196 3.34314 4.03368C3.32632 4.59711 3.72985 5.11691 4.27326 5.28576C5.36364 5.62632 6.50912 5.64529 7.61739 5.87853C8.28457 6.01877 8.94102 6.19477 9.56312 6.47488C10.8996 7.07516 11.7095 8.06467 11.8015 9.55464C11.8913 10.9945 11.3268 12.1382 10.1362 12.9531C8.88378 13.8103 7.46177 14.0586 5.97681 14.0489Z" fill="var(--fill-0, #453AFE)"/>
</svg>
