<svg preserveAspectRatio="none" width="100%" height="100%" overflow="visible" style="display: block;" viewBox="0 0 11.4903 15.2528" fill="none" xmlns="http://www.w3.org/2000/svg">
<path id="Vector" d="M0.44858 11.2273C0.14875 10.3178 0 9.1699 0 7.6264C0 6.0823 0.14875 4.932 0.44858 4.0249C1.28624 1.4221 3.50521 0 6.41071 0C8.56851 0 10.277 0.8779 11.4168 2.2703C11.5049 2.3905 11.5347 2.5719 11.3865 2.6926L9.49941 4.3574C9.34891 4.4793 9.19961 4.449 9.07891 4.2979C8.35901 3.4813 7.61011 3.0263 6.41131 3.0263C5.12331 3.0263 4.13521 3.6621 3.71461 4.9332C3.47662 5.6612 3.41537 6.5076 3.41537 7.627C3.41537 8.7464 3.47604 9.6237 3.71461 10.3505C4.13461 11.5901 5.12331 12.2259 6.41131 12.2259C7.61011 12.2259 8.35901 11.7715 9.07891 10.9566C9.19961 10.8032 9.34891 10.8032 9.49941 10.9245L11.3865 12.5893C11.5347 12.7101 11.5049 12.8617 11.4168 13.0134C10.2776 14.376 8.56901 15.2528 6.41071 15.2528C3.50521 15.2516 1.28624 13.8283 0.44858 11.2273Z" fill="var(--fill-0, #204156)"/>
</svg>
