<svg preserveAspectRatio="none" width="100%" height="100%" overflow="visible" style="display: block;" viewBox="0 0 13.8753 18.4207" fill="none" xmlns="http://www.w3.org/2000/svg">
<path id="Vector" d="M13.8753 12.8707C13.8753 9.74194 12.2156 8.27255 7.53623 7.26629C4.95163 6.69486 4.32589 6.12376 4.32589 5.30743C4.32589 4.27452 5.25084 3.83836 6.9648 3.83836C9.03262 3.83836 11.0731 4.46411 13.0047 5.33475V1.22643C11.1525 0.383433 9.13536 -0.034823 7.10074 0.00226806C2.47564 0.00226806 0.0816315 2.01544 0.0816315 5.30743C0.0816315 7.94635 1.30579 10.0415 6.09416 10.9664C8.95099 11.5662 9.54941 12.0273 9.54941 12.9796C9.54941 13.9046 8.94965 14.5033 6.93748 14.5033C4.50551 14.4596 2.12218 13.8147 0 12.6261V16.9243C1.44207 17.6317 3.34629 18.4207 6.88317 18.4207C11.8891 18.4207 13.8753 16.1883 13.8753 12.8707" fill="var(--fill-0, #0052CC)"/>
</svg>
