<svg preserveAspectRatio="none" width="100%" height="100%" overflow="visible" style="display: block;" viewBox="0 0 13.6054 13.9671" fill="none" xmlns="http://www.w3.org/2000/svg">
<path id="Vector" d="M7.56913 7.55286C5.73501 7.55286 3.90054 7.56933 2.06713 7.54106C1.63105 7.53427 1.5663 7.66341 1.62282 8.04941C1.98592 10.6062 3.87978 12.3659 6.49628 12.4778C8.37797 12.558 10.0944 12.0936 11.4624 10.7031C11.525 10.6394 11.5926 10.5013 11.6906 10.579C12.0105 10.8263 12.3158 11.0919 12.605 11.3746C12.7381 11.5077 12.5438 11.5996 12.468 11.6826C11.3776 12.8778 9.9928 13.5428 8.42234 13.8186C6.38323 14.1764 4.43821 13.9217 2.72394 12.6789C0.765683 11.2594 -0.0113231 9.23924 0.000124506 6.90858C0.0112144 4.59545 0.811831 2.61108 2.75935 1.20553C5.40339 -0.703355 10.1788 -0.381392 12.2752 2.42971C13.3655 3.8925 13.6736 5.5549 13.5934 7.32749C13.5777 7.67378 13.3294 7.54714 13.1699 7.54786C11.3021 7.55573 9.43581 7.55286 7.56913 7.55286ZM6.82325 6.19346C8.4463 6.19346 10.0694 6.18559 11.6924 6.20061C11.9908 6.20348 12.0795 6.13909 12.0501 5.83072C11.9178 4.38224 11.3175 3.19562 10.1084 2.35637C8.98112 1.57436 7.70185 1.3751 6.35712 1.43376C3.88873 1.54109 1.90436 3.37914 1.61674 5.82571C1.58097 6.12299 1.63856 6.20491 1.95301 6.20133C3.57714 6.18488 5.20019 6.19418 6.82325 6.19418V6.19346Z" fill="var(--fill-0, #030303)"/>
</svg>
