<svg preserveAspectRatio="none" width="100%" height="100%" overflow="visible" style="display: block;" viewBox="0 0 13.9724 14" fill="none" xmlns="http://www.w3.org/2000/svg">
<path id="Vector" d="M10.978 0C9.32448 0 7.98417 1.34331 7.98417 2.99989C7.98378 3.39345 8.0609 3.78323 8.21115 4.14698C8.36139 4.51073 8.5818 4.84132 8.85981 5.11989C9.13782 5.39846 9.46797 5.61954 9.83142 5.77051C10.1949 5.92148 10.5845 5.99939 10.978 5.99978H13.9724V2.99989C13.9731 2.20502 13.658 1.44244 13.0965 0.879863C12.5349 0.317288 11.7729 0.00079725 10.978 0V0ZM10.978 7.99971H2.99388C1.3403 7.99971 0 9.34302 0 11.0001C0 12.6567 1.3403 14 2.99388 14H10.9786C12.6316 14 13.9724 12.6567 13.9724 11.0001C13.9724 9.34302 12.6316 7.99971 10.978 7.99971" fill="var(--fill-0, #36C5F0)"/>
</svg>
