<svg preserveAspectRatio="none" width="100%" height="100%" overflow="visible" style="display: block;" viewBox="0 0 21.8475 17.232" fill="none" xmlns="http://www.w3.org/2000/svg">
<path id="Vector" d="M0 0V13.4602H1.73136V7.03324H5.89471V5.36251H1.73136V1.6842H7.14103V0H0ZM10.2736 2.73515C10.9002 2.73515 11.4054 2.22989 11.4054 1.60336C11.4054 0.976839 10.8934 0.538946 10.2736 0.538946C9.65386 0.538946 9.14186 1.04421 9.14186 1.67073C9.14186 1.97389 9.26312 2.25683 9.4787 2.47915C9.69428 2.70146 9.97723 2.81599 10.2871 2.81599L10.2736 2.73515ZM9.39786 4.43283V13.4602H11.0619V4.43283H9.34397H9.39786ZM17.5629 4.16335C15.2589 4.16335 13.6555 6.1844 13.6555 8.42102C13.6555 10.6576 15.2724 12.6652 17.5629 12.6652C18.0395 12.6736 18.5126 12.5826 18.9522 12.3982C19.3918 12.2138 19.7881 11.94 20.1161 11.5941V12.7932C20.1113 13.5137 19.8318 14.2052 19.3347 14.7267C19.0835 14.9829 18.7837 15.1864 18.4528 15.3252C18.122 15.4641 17.7667 15.5354 17.4079 15.5351C16.857 15.5177 16.3231 15.3397 15.8719 15.0231L14.9962 16.5254C15.6687 16.9579 16.4455 17.2011 17.2446 17.2293C18.0438 17.2574 18.8357 17.0696 19.537 16.6854C20.2384 16.3013 20.8232 15.7352 21.2298 15.0466C21.6364 14.3581 21.8498 13.5726 21.8475 12.773V4.41935H20.1161V5.22777C19.7881 4.88187 19.3918 4.60801 18.9522 4.4236C18.5126 4.23919 18.0395 4.14827 17.5629 4.15662V4.16335ZM15.3936 8.42102C15.3542 7.98304 15.438 7.54275 15.6356 7.1499C15.8332 6.75704 16.1368 6.42728 16.5119 6.19787C17.2799 5.72629 18.2433 5.72629 19.0046 6.19787C19.7658 6.66945 20.197 7.53176 20.1229 8.42102C20.1623 8.859 20.0785 9.29929 19.8809 9.69215C19.6833 10.085 19.3797 10.4148 19.0046 10.6442C18.2366 11.1157 17.2732 11.1157 16.5119 10.6442C15.7507 10.1726 15.3195 9.31028 15.3936 8.42102Z" fill="var(--fill-0, black)"/>
</svg>
