<svg preserveAspectRatio="none" width="100%" height="100%" overflow="visible" style="display: block;" viewBox="0 0 171.956 16.5917" fill="none" xmlns="http://www.w3.org/2000/svg">
<path id="Vector" d="M49.1393 0.190715H31.3398L30.704 0.699331V16.5282H35.5989V10.5526L36.0438 10.1077H49.1392C52.4447 10.1077 53.9705 9.21776 53.9705 6.92929V3.30578C53.9706 1.08069 52.4449 0.190715 49.1393 0.190715ZM49.1393 6.03907C49.1393 7.11967 48.44 7.31039 46.8508 7.31039H36.1075L35.5989 6.86549V3.49633L36.0438 3.05135H46.8506C48.3764 3.05135 49.1391 3.24207 49.1391 4.32267L49.1393 6.03907V6.03907ZM62.9975 3.17843L67.2566 9.40823L67.0024 9.98039H57.594L55.1784 12.9682H69.1637L70.1808 13.5403L72.3422 16.5281H77.9999L65.6039 0L62.9975 3.17843ZM119.129 13.3496V8.89979L119.638 8.45471H129.11V5.65763H114.107V16.5281H136.23V13.731H119.702L119.129 13.3496ZM114.107 0.190715H136.42V3.24207H114.107V0.190715ZM89.2518 3.11489H107.242C106.988 0.826421 105.526 0.190715 101.966 0.190715H89.0611C84.9927 0.190715 83.7213 0.953594 83.7213 4.06841V12.7138C83.7213 15.7653 84.9927 16.5917 89.0611 16.5917H101.966C105.589 16.5917 106.988 15.8924 107.115 13.5403H89.2518L88.7432 13.0317V3.49633L89.2518 3.11489ZM18.6258 6.54768H5.59409L5.21265 6.10279V3.3057L5.59409 2.98788H23.2029L23.4571 2.41573C22.885 0.889966 21.2957 0.127258 18.4351 0.127258H6.16616C2.09775 0.127258 0.826342 0.890054 0.826342 4.00487V5.84844C0.826342 8.89987 2.09775 9.72629 6.16616 9.72629H19.198L19.5793 10.1076V13.0317L19.2615 13.4768H0.444901C0.444901 13.4768 0 13.731 0 13.7946C0.31781 15.956 1.77994 16.5281 5.27619 16.5281H18.6259C22.6943 16.5281 24.0294 15.7653 24.0294 12.6504V10.4254C24.0293 7.37411 22.6943 6.54768 18.6258 6.54768V6.54768ZM150.469 0.127175H143.095L142.714 0.889963L150.851 6.86558C152.376 5.97553 154.093 5.08564 155.873 4.19558L150.469 0.127175ZM157.08 11.3154L164.264 16.5281H171.638L171.956 15.8287L161.276 8.00973C159.878 9.09034 158.416 10.1711 157.08 11.3154Z" fill="var(--fill-0, #005288)"/>
</svg>
