<svg preserveAspectRatio="none" width="100%" height="100%" overflow="visible" style="display: block;" viewBox="0 0 170.558 33" fill="none" xmlns="http://www.w3.org/2000/svg">
<g id="Vector">
<path d="M36.1119 2.76374C33.3524 1.47262 30.4018 0.534294 27.317 0C26.9381 0.684946 26.4955 1.60621 26.1903 2.33908C22.9111 1.84592 19.6621 1.84592 16.4431 2.33908C16.138 1.60621 15.6854 0.684946 15.3031 0C12.215 0.534294 9.261 1.47607 6.50146 2.77058C0.935455 11.1815 -0.573397 19.3836 0.181031 27.4692C3.8727 30.226 7.45037 31.9007 10.9677 32.9966C11.8361 31.8014 12.6106 30.5308 13.2779 29.1918C12.0071 28.7089 10.79 28.1131 9.63991 27.4213C9.94501 27.1952 10.2434 26.9589 10.5318 26.7158C17.5463 29.9966 25.1677 29.9966 32.0984 26.7158C32.3901 26.9589 32.6885 27.1952 32.9902 27.4213C31.8368 28.1164 30.6163 28.7123 29.3456 29.1953C30.0128 30.5308 30.784 31.8048 31.6558 33C35.1764 31.9041 38.7574 30.2295 42.4491 27.4692C43.3343 18.0959 40.9369 9.9692 36.1119 2.76374ZM14.2335 22.4966C12.1278 22.4966 10.401 20.5308 10.401 18.137C10.401 15.7432 12.0909 13.774 14.2335 13.774C16.3761 13.774 18.1029 15.7397 18.066 18.137C18.0693 20.5308 16.3761 22.4966 14.2335 22.4966ZM28.3966 22.4966C26.291 22.4966 24.5641 20.5308 24.5641 18.137C24.5641 15.7432 26.254 13.774 28.3966 13.774C30.5392 13.774 32.266 15.7397 32.2291 18.137C32.2291 20.5308 30.5392 22.4966 28.3966 22.4966Z" fill="#23272A"/>
<path d="M57.2857 8.41856H66.4392C68.6458 8.41856 70.51 8.77129 72.0393 9.47336C73.5645 10.1754 74.7081 11.1548 75.466 12.4083C76.2234 13.6617 76.6056 15.0966 76.6056 16.7131C76.6056 18.2953 76.21 19.7302 75.4187 21.0144C74.6275 22.3021 73.4237 23.3192 71.8044 24.0692C70.1851 24.8192 68.1795 25.1959 65.7824 25.1959H57.2857V8.41856ZM65.6883 20.9322C67.1738 20.9322 68.3174 20.5521 69.1151 19.7952C69.9133 19.035 70.3124 18.0007 70.3124 16.6891C70.3124 15.4733 69.9566 14.5041 69.246 13.7781C68.5354 13.0521 67.4589 12.6857 66.0202 12.6857H63.1568V20.9322H65.6883Z" fill="#23272A"/>
<path d="M90.3096 25.1755C89.0421 24.8399 87.8985 24.3535 86.8828 23.7131V19.7337C87.6507 20.3398 88.6798 20.8399 89.9706 21.2337C91.2615 21.6241 92.5092 21.8193 93.7159 21.8193C94.2792 21.8193 94.7053 21.744 94.9934 21.5932C95.282 21.4426 95.4264 21.2611 95.4264 21.0522C95.4264 20.8125 95.3492 20.6138 95.1915 20.4528C95.0337 20.2919 94.7286 20.1583 94.2763 20.0453L91.4596 19.398C89.8468 19.0145 88.7031 18.4837 88.0229 17.8022C87.3421 17.1241 87.0032 16.2337 87.0032 15.1309C87.0032 14.2028 87.2983 13.3981 87.8955 12.7097C88.4887 12.0214 89.3337 11.4905 90.43 11.1172C91.5268 10.7405 92.8072 10.5522 94.2793 10.5522C95.5935 10.5522 96.7973 10.696 97.8942 10.9837C98.9905 11.2714 99.8957 11.6378 100.617 12.0864V15.8501C99.8787 15.4015 99.0337 15.0488 98.0683 14.7816C97.1059 14.5179 96.1171 14.3878 95.0974 14.3878C93.6253 14.3878 92.8914 14.6446 92.8914 15.1549C92.8914 15.3947 93.0053 15.5727 93.2332 15.6926C93.4611 15.8124 93.8801 15.9357 94.4873 16.0659L96.8341 16.4974C98.3669 16.7679 99.51 17.244 100.261 17.922C101.012 18.6001 101.388 19.6036 101.388 20.9323C101.388 22.3878 100.768 23.5419 99.5234 24.3981C98.2793 25.2542 96.5157 25.6823 94.229 25.6823C92.8843 25.6789 91.5771 25.5111 90.3096 25.1755Z" fill="#23272A"/>
<path d="M106.928 24.6719C105.584 24.0006 104.568 23.0897 103.89 21.939C103.213 20.7883 102.871 19.4938 102.871 18.0554C102.871 16.6171 103.223 15.3294 103.927 14.1958C104.631 13.0623 105.664 12.1719 107.025 11.5246C108.386 10.8774 110.013 10.5554 111.907 10.5554C114.254 10.5554 116.202 11.0589 117.752 12.0657V16.4527C117.205 16.0691 116.568 15.7575 115.84 15.5178C115.113 15.278 114.335 15.1581 113.503 15.1581C112.048 15.1581 110.912 15.4287 110.09 15.9732C109.268 16.5177 108.856 17.2266 108.856 18.1068C108.856 18.9698 109.255 19.6753 110.053 20.2301C110.851 20.7815 112.008 21.0589 113.527 21.0589C114.308 21.0589 115.079 20.9424 115.84 20.713C116.598 20.4801 117.252 20.1959 117.798 19.8602V24.1033C116.079 25.1581 114.083 25.6855 111.813 25.6855C109.902 25.6787 108.272 25.3431 106.928 24.6719Z" fill="#23272A"/>
<path d="M123.606 24.6721C122.251 24.0009 121.219 23.0831 120.507 21.9153C119.797 20.7475 119.438 19.4461 119.438 18.0077C119.438 16.5694 119.793 15.2851 120.507 14.1585C121.221 13.0317 122.248 12.1481 123.596 11.5077C124.94 10.8673 126.546 10.5488 128.407 10.5488C130.268 10.5488 131.874 10.8673 133.219 11.5077C134.563 12.1481 135.59 13.0249 136.294 14.1447C136.998 15.2646 137.35 16.5488 137.35 18.0043C137.35 19.4427 136.998 20.7441 136.294 21.9118C135.59 23.0796 134.56 23.9975 133.205 24.6687C131.851 25.3399 130.251 25.6755 128.404 25.6755C126.556 25.6755 124.957 25.3433 123.606 24.6721ZM130.737 20.4187C131.308 19.8365 131.596 19.066 131.596 18.1071C131.596 17.1482 131.311 16.3845 130.737 15.8194C130.168 15.2509 129.389 14.9666 128.404 14.9666C127.401 14.9666 126.616 15.2509 126.043 15.8194C125.473 16.3879 125.188 17.1482 125.188 18.1071C125.188 19.066 125.473 19.8365 126.043 20.4187C126.614 21.0009 127.401 21.2954 128.404 21.2954C129.389 21.292 130.168 21.0009 130.737 20.4187Z" fill="#23272A"/>
<path d="M151.452 11.4392V16.6173C150.856 16.2166 150.084 16.018 149.129 16.018C147.878 16.018 146.912 16.405 146.241 17.1789C145.568 17.9529 145.232 19.1584 145.232 20.7885V25.1995H139.482V11.1755H145.115V15.6344C145.427 14.0043 145.933 12.8023 146.631 12.0248C147.325 11.2509 148.223 10.8639 149.316 10.8639C150.144 10.8639 150.856 11.0557 151.452 11.4392Z" fill="#23272A"/>
<path d="M170.558 7.93906V25.1993H164.807V22.059C164.321 23.2405 163.584 24.1412 162.591 24.7576C161.598 25.3706 160.371 25.6788 158.916 25.6788C157.615 25.6788 156.482 25.3569 155.513 24.7096C154.544 24.0624 153.797 23.1754 153.27 22.0487C152.747 20.9219 152.482 19.648 152.482 18.2234C152.465 16.7542 152.743 15.4357 153.317 14.2678C153.887 13.1 154.695 12.1891 155.734 11.535C156.774 10.8809 157.961 10.5521 159.292 10.5521C162.032 10.5521 163.869 11.7678 164.807 14.1959V7.93906H170.558ZM163.949 20.3227C164.536 19.7405 164.828 18.9836 164.828 18.059C164.828 17.1651 164.543 16.4356 163.973 15.8774C163.402 15.3193 162.621 15.0384 161.639 15.0384C160.67 15.0384 159.896 15.3226 159.315 15.8911C158.735 16.4597 158.447 17.1959 158.447 18.1069C158.447 19.0179 158.735 19.761 159.315 20.3363C159.896 20.9117 160.66 21.1994 161.615 21.1994C162.584 21.196 163.362 20.9048 163.949 20.3227Z" fill="#23272A"/>
<path d="M81.4514 12.6683C83.0345 12.6683 84.3184 11.4908 84.3184 10.0382C84.3184 8.5856 83.0345 7.40808 81.4514 7.40808C79.8678 7.40808 78.5845 8.5856 78.5845 10.0382C78.5845 11.4908 79.8678 12.6683 81.4514 12.6683Z" fill="#23272A"/>
<path d="M78.582 14.4802C80.3386 15.2541 82.5183 15.2884 84.3153 14.4802V25.2747H78.582V14.4802Z" fill="#23272A"/>
</g>
</svg>
