<svg preserveAspectRatio="none" width="100%" height="100%" overflow="visible" style="display: block;" viewBox="0 0 9.06215 26.3635" fill="none" xmlns="http://www.w3.org/2000/svg">
<path id="Vector" d="M9.06215 17.5384C8.99749 17.893 8.83306 18.2219 8.58814 18.4864L1.00397 26.0706C0.972848 26.1328 0.929767 26.1883 0.877191 26.2339C0.824615 26.2795 0.763573 26.3143 0.697549 26.3363C0.631525 26.3584 0.561812 26.3671 0.492392 26.3622C0.422971 26.3573 0.355204 26.3387 0.292956 26.3076C0.230708 26.2765 0.175199 26.2334 0.1296 26.1808C0.0840013 26.1282 0.0492041 26.0672 0.0271961 26.0012C0.00518809 25.9351 -0.00360027 25.8654 0.00133328 25.796C0.00626683 25.7266 0.0248262 25.6588 0.0559502 25.5966V9.0062L9.06215 0V17.5384Z" fill="var(--fill-0, #E34B5F)"/>
</svg>
