<svg preserveAspectRatio="none" width="100%" height="100%" overflow="visible" style="display: block;" viewBox="0 0 110.112 9.28579" fill="none" xmlns="http://www.w3.org/2000/svg">
<path id="Vector" d="M12.2382 0.190477H14.7144V6.93657H19.016V9.09532H12.2382V0.190477ZM21.5716 4.66671V4.63496C21.5716 2.07938 23.6351 0 26.3812 0C29.1272 0 31.159 2.04764 31.159 4.60321V4.63496C31.159 7.19054 29.0955 9.26992 26.3494 9.26992C23.6034 9.26992 21.5716 7.22228 21.5716 4.66671ZM28.651 4.66671V4.63496C28.651 3.34923 27.7304 2.23812 26.3653 2.23812C25.0161 2.23812 24.1113 3.33336 24.1113 4.61909V4.65083C24.1113 5.93656 25.032 7.04768 26.3812 7.04768C27.7463 7.04768 28.651 5.95243 28.651 4.66671V4.66671ZM34.1908 5.19052V0.190477H36.6987V5.1429C36.6987 6.42863 37.3495 7.03181 38.3337 7.03181C39.3178 7.03181 39.9686 6.4445 39.9686 5.20639V0.190477H42.4766V5.12703C42.4766 8.00007 40.8416 9.25405 38.3019 9.25405C35.7781 9.25405 34.1908 7.98419 34.1908 5.19052V5.19052ZM46.2544 0.190477H49.683C52.8576 0.190477 54.7148 2.01589 54.7148 4.58734V4.61909C54.7148 7.19054 52.8417 9.09532 49.6353 9.09532H46.2544V0.190477ZM49.7306 6.90482C51.2068 6.90482 52.1909 6.09529 52.1909 4.65083V4.61909C52.1909 3.1905 51.2068 2.3651 49.7306 2.3651H48.7306V6.88895H49.7306V6.90482ZM58.3021 0.190477H65.4291V2.34923H60.7624V3.87305H64.9847V5.92069H60.7624V9.09532H58.3021V0.190477ZM68.8577 0.190477H71.3181V6.93657H75.6356V9.09532H68.8577V0.190477ZM82.0801 0.126986H84.461L88.2547 9.09532H85.6039L84.9531 7.508H81.5245L80.8896 9.09532H78.3023L82.0801 0.126986ZM84.2547 5.58735L83.2706 3.06352L82.2705 5.58735H84.2547ZM91.4294 0.190477H95.6357C97.0008 0.190477 97.9373 0.539688 98.5405 1.15874C99.0643 1.66668 99.3342 2.34923 99.3342 3.23812V3.26987C99.3342 4.63496 98.604 5.53973 97.5088 6.00005L99.6358 9.11119H96.7786L94.9849 6.41275H93.9056V9.11119H91.4294V0.190477ZM95.5246 4.46036C96.3659 4.46036 96.8421 4.04765 96.8421 3.41273V3.38098C96.8421 2.68256 96.3342 2.33335 95.5088 2.33335H93.8897V4.46036H95.5246ZM102.89 0.190477H110.049V2.28573H105.334V3.63495H109.604V5.58735H105.334V7.00006H110.112V9.09532H102.89V0.190477ZM6.84133 5.71433C6.49212 6.49212 5.76195 7.04768 4.80956 7.04768C3.46035 7.04768 2.5397 5.92069 2.5397 4.65083V4.61909C2.5397 3.33336 3.44447 2.23812 4.79369 2.23812C5.80957 2.23812 6.58736 2.85717 6.90482 3.71432H9.50802C9.09532 1.58731 7.22228 0.0158741 4.80956 0.0158741C2.06351 0.0158741 0 2.09526 0 4.65083V4.68258C0 7.23816 2.03176 9.28579 4.77782 9.28579C7.12705 9.28579 8.96833 7.76197 9.44453 5.73021L6.84133 5.71433Z" fill="var(--fill-0, #404041)"/>
</svg>
