<svg preserveAspectRatio="none" width="100%" height="100%" overflow="visible" style="display: block;" viewBox="0 0 82.9014 29" fill="none" xmlns="http://www.w3.org/2000/svg">
<g id="Vector">
<path d="M0 21.987V0.0316162H3.41113V8.68732C4.48534 7.08736 6.09653 6.28709 8.24446 6.28653C10.0767 6.28653 11.4929 6.82879 12.4934 7.91332C13.4939 8.99786 13.9943 10.509 13.9944 12.4466V21.987H10.5832V12.9205C10.5832 10.4146 9.46693 9.16148 7.23442 9.16114C6.11792 9.16114 5.20188 9.49811 4.48618 10.172C3.77061 10.846 3.41233 11.7937 3.41173 13.0152V21.9867L0 21.987Z" fill="#323232"/>
<path d="M30.1158 20.092C28.5995 21.6084 26.6937 22.3665 24.3981 22.3665C22.1026 22.3665 20.1914 21.6084 18.6643 20.092C17.1374 18.5756 16.3739 16.6483 16.3741 14.3101C16.3742 11.972 17.1376 10.0503 18.6643 8.54521C20.1912 7.03974 22.1024 6.28684 24.3981 6.28649C26.6938 6.28615 28.5997 7.03906 30.1158 8.54521C31.6324 10.0512 32.3906 11.9729 32.3905 14.3101C32.3904 16.6473 31.6322 18.5746 30.1158 20.092ZM21.1601 18.1648C21.9703 19.1124 23.0497 19.5864 24.3981 19.5864C25.7466 19.5864 26.8259 19.1124 27.6361 18.1648C28.4465 17.2171 28.8519 15.9322 28.8523 14.3101C28.8523 12.7097 28.4417 11.4356 27.6204 10.4877C26.7991 9.53985 25.725 9.06598 24.3981 9.0661C23.0501 9.0661 21.9707 9.53468 21.1601 10.4718C20.3495 11.409 19.9441 12.6882 19.9438 14.3094C19.9438 15.9322 20.3492 17.2173 21.1601 18.1648Z" fill="#323232"/>
<path d="M40.2866 22.366C37.1483 22.366 35.5792 20.6811 35.5792 17.3114V9.54025H33.2105V6.66565H35.6745L36.4644 2.14907H39.0228V6.66565H45.1197V9.54025H39.023V17.2168C39.023 18.628 39.539 19.3336 40.5709 19.3335C41.5394 19.3335 42.4134 18.4488 43.1929 16.6797L45.8466 18.0382C44.5405 20.9237 42.6872 22.3663 40.2866 22.366Z" fill="#323232"/>
<path d="M46.9433 29C45.427 29 44.1738 28.5788 43.1841 27.7364L44.4478 25.0512C45.0587 25.7669 45.7221 26.125 46.438 26.1258C47.3856 26.1258 47.8594 25.5151 47.8594 24.2936V6.66564H51.2706V24.3559C51.2706 25.9986 50.8652 27.1833 50.0543 27.9097C49.2435 28.6363 48.2065 28.9997 46.9433 29ZM49.5653 4.07502C49.0045 4.09405 48.459 3.88957 48.0489 3.50655C47.8516 3.32064 47.6962 3.09494 47.5928 2.84443C47.4894 2.59392 47.4403 2.32428 47.4489 2.05338C47.4413 1.78026 47.4908 1.50857 47.5941 1.25564C47.6974 1.00271 47.8523 0.774083 48.0489 0.58436C48.4613 0.208398 48.9993 0 49.5574 0C50.1154 0 50.6535 0.208398 51.0659 0.58436C51.2666 0.771724 51.4254 0.999543 51.5316 1.25278C51.6377 1.506 51.689 1.77887 51.6819 2.05338C51.6869 2.32293 51.6345 2.59044 51.5283 2.83822C51.4221 3.086 51.2645 3.3084 51.0659 3.49068C50.8665 3.68207 50.6314 3.83221 50.3739 3.93248C50.1164 4.03275 49.8416 4.0812 49.5653 4.07502Z" fill="#323232"/>
<path d="M59.7435 22.3661C57.9952 22.3661 56.5788 21.9291 55.4945 21.0552C54.4102 20.1812 53.868 19.0074 53.8678 17.5336C53.8678 16.1859 54.4311 15.0431 55.5579 14.1054C56.6845 13.1677 58.1008 12.6991 59.8066 12.6997C61.5547 12.6997 63.029 13.2578 64.2294 14.3741V12.51C64.2294 11.4152 63.9502 10.5676 63.3921 9.96696C62.8339 9.36637 62.0389 9.06625 61.0072 9.06659C58.9222 9.06659 57.627 10.1301 57.1214 12.2571L53.9939 11.5938C54.4147 9.95116 55.2466 8.65599 56.4897 7.70825C57.7329 6.76051 59.2807 6.28665 61.1334 6.28665C63.1554 6.28665 64.7508 6.81845 65.9195 7.88206C67.0882 8.94566 67.6725 10.4988 67.6727 12.5414V21.9871H64.3556V20.0598C63.2391 21.5975 61.7018 22.3664 59.7435 22.3661ZM60.3745 19.8389C61.8911 19.8389 63.1759 19.0808 64.2292 17.5646V17.0902C63.1758 15.8266 61.891 15.1948 60.3745 15.1949C59.4901 15.1949 58.7738 15.411 58.2255 15.8431C57.9663 16.034 57.7565 16.2841 57.6137 16.5727C57.4708 16.8611 57.399 17.1796 57.4041 17.5014C57.3957 17.8267 57.4645 18.1493 57.6044 18.443C57.7445 18.7367 57.9519 18.9932 58.2098 19.1915C58.748 19.6232 59.4691 19.839 60.3745 19.8389Z" fill="#323232"/>
<path d="M70.9922 21.987V6.6656H74.3092V9.31915C75.1513 7.38172 76.6044 6.41294 78.6687 6.41283C79.8897 6.41283 80.9006 6.81296 81.7014 7.61323C82.5021 8.41349 82.9021 9.48756 82.9014 10.8354C82.8929 11.6421 82.7543 12.4422 82.4908 13.2047L79.3634 12.8888C79.4276 12.4701 79.4696 12.0484 79.4895 11.6253C79.4895 10.0458 78.8368 9.25599 77.5312 9.25588C76.6464 9.25588 75.904 9.72446 75.304 10.6616C74.704 11.5988 74.4038 12.8361 74.4035 14.3737V21.987H70.9922Z" fill="#323232"/>
</g>
</svg>
