<svg preserveAspectRatio="none" width="100%" height="100%" overflow="visible" style="display: block;" viewBox="0 0 28.4993 31" fill="none" xmlns="http://www.w3.org/2000/svg">
<path id="Vector" d="M26.9993 12.7622L14.2282 20.0056L0.64284 12.288L0 12.6328V18.2379L14.2282 26.3436L26.9993 19.1002V22.0751L14.2282 29.3186L0.64284 21.6008L0 21.9458V22.8944L14.2282 31L28.4993 22.8944V17.2893L27.8565 16.9443L14.2282 24.6621L1.49992 17.4186V14.4868L14.2282 21.6871L28.4993 13.5814V8.0626L27.7707 7.67456L14.2282 15.3491L2.18559 8.49375L14.2282 1.6815L24.1708 7.28652L25.0708 6.81225V6.1224L14.2282 0L0 8.0626V8.92491L14.2282 17.0306L26.9993 9.78722V12.7622Z" fill="var(--fill-0, #FF3621)"/>
</svg>
