<svg preserveAspectRatio="none" width="100%" height="100%" overflow="visible" style="display: block;" viewBox="0 0 102.179 27.3333" fill="none" xmlns="http://www.w3.org/2000/svg">
<g id="Vector">
<path d="M64.4555 2.49766C64.4555 1.83524 64.7186 1.19995 65.187 0.731547C65.6554 0.263146 66.2908 0 66.9532 0C67.6156 0 68.2509 0.263146 68.7193 0.731547C69.1877 1.19995 69.4508 1.83524 69.4508 2.49766C69.4267 3.14395 69.153 3.75572 68.6872 4.20443C68.2215 4.65313 67.5999 4.90382 66.9532 4.90382C66.3065 4.90382 65.6848 4.65313 65.2191 4.20443C64.7533 3.75572 64.4796 3.14395 64.4555 2.49766Z" fill="#273B7D"/>
<path d="M23.4651 18.0715C21.3153 18.0715 19.8195 16.3635 19.8195 13.9215C19.8195 11.4812 21.3153 9.77495 23.4668 9.77495C25.6288 9.77495 27.1402 11.4812 27.1402 13.9215C27.1402 16.4017 25.6618 18.0715 23.4651 18.0715ZM23.4651 6.12761C18.915 6.12761 15.6121 9.40622 15.6121 13.9215C15.6121 18.4385 18.9168 21.7154 23.4651 21.7154C28.0343 21.7154 31.3493 18.4385 31.3493 13.9232C31.3493 9.40622 28.0342 6.12761 23.4668 6.12761H23.4651ZM59.6184 14.3128C59.4601 14.0065 59.2599 13.7238 59.0236 13.4727L58.8844 13.3284L59.0306 13.1892C59.2393 12.9683 59.4532 12.7074 59.6584 12.4048L63.6762 6.43547H58.7993L55.7815 11.1055C55.611 11.356 55.2667 11.4812 54.7502 11.4812H54.0631V2.65245C54.0631 0.887049 52.9621 0.647023 51.7742 0.647023H49.7391L49.7443 21.4858H54.0648V15.2347H54.4701C54.9623 15.2347 55.2962 15.2921 55.451 15.5599L57.8339 20.0578C58.5 21.2788 59.1627 21.4858 60.4115 21.4858H63.7215L61.2552 17.4088L59.6202 14.3128H59.6184ZM80.5911 6.09282C78.3927 6.09282 76.9907 7.07031 76.2045 7.89649L75.9437 8.16086L75.8498 7.80083C75.6202 6.91552 74.841 6.43025 73.6704 6.43025H71.7345L71.7467 21.4805H76.0376V14.5442C76.0376 13.8658 76.1245 13.2779 76.3054 12.7405C76.782 11.1142 78.1143 10.1037 79.7788 10.1037C81.1181 10.1037 81.6417 10.8116 81.6417 12.6379V19.1933C81.6417 20.7518 82.3634 21.4805 83.9236 21.4805H85.9656L85.9587 11.9074C85.9587 8.10521 84.1028 6.09456 80.5911 6.09456V6.09282ZM67.0053 6.43547H64.972L64.9859 18.0732V21.4858H67.1549L67.2314 21.4892L68.2438 21.4858H69.2491V21.4805H69.256L69.2647 8.72266C69.2647 7.18337 68.529 6.4372 67.0071 6.4372L67.0053 6.43547ZM40.3173 18.0715C38.1675 18.0715 36.6699 16.3635 36.6699 13.9215C36.6699 11.4812 38.1675 9.77495 40.3191 9.77495C42.4758 9.77495 43.9925 11.4812 43.9925 13.9215C43.9925 16.4017 42.5141 18.0715 40.3191 18.0715H40.3173ZM40.3173 6.12761C35.7637 6.12761 32.459 9.40622 32.459 13.9215C32.459 18.4385 35.7638 21.7154 40.3191 21.7154C44.8813 21.7154 48.2033 18.4385 48.2033 13.9232C48.2033 9.40622 44.8813 6.12761 40.3191 6.12761" fill="#273B7D"/>
<path d="M95.0048 17.4087C92.6585 17.4087 91.8236 15.3633 91.8236 13.4448C91.8236 12.5995 92.0375 9.84619 94.7804 9.84619C96.1423 9.84619 97.9563 10.2358 97.9563 13.5857C97.9563 16.7461 96.351 17.4087 95.0048 17.4087ZM100.184 6.39538C99.3704 6.39538 98.7443 6.72064 98.4295 7.31374L98.3112 7.54333L98.1129 7.3694C97.4207 6.77108 96.1788 6.0597 94.1629 6.0597C90.1503 6.0597 87.4492 9.07393 87.4492 13.5561C87.4492 18.0366 90.2443 21.1674 94.243 21.1674C95.6084 21.1674 96.6884 20.8474 97.5441 20.2003L97.8746 19.9516V20.3691C97.8746 22.3797 96.5754 23.4894 94.2186 23.4894C93.0724 23.4894 92.0306 23.2111 91.3314 22.9572C90.4234 22.6823 89.8877 22.9102 89.5207 23.8233L89.1798 24.6652L88.698 25.8966L88.9954 26.0549C90.5052 26.855 92.4689 27.3333 94.243 27.3333C97.8956 27.3333 102.164 25.4635 102.164 20.2003L102.179 6.39538H100.184Z" fill="#273B7D"/>
<path d="M7.48774 17.8992L3.9952 17.8957V13.7214C3.9952 12.8274 4.34133 12.3647 5.10489 12.2569H7.48774C9.18705 12.2569 10.2863 13.3283 10.288 15.0624C10.2863 16.8435 9.21488 17.8975 7.48774 17.8975V17.8992ZM3.9952 5.53616C3.9952 4.57432 4.40222 4.11688 5.29449 4.05774H7.08253C8.61487 4.05774 9.53322 4.97436 9.53322 6.51018C9.53322 7.679 8.90357 9.04436 7.13816 9.04436H3.9952V5.53616ZM11.9474 10.8028L11.316 10.448L11.8673 9.97663C12.5092 9.42527 13.5824 8.18514 13.5824 6.04578C13.5824 2.76891 11.0429 0.653903 7.11035 0.653903H2.11151C1.54904 0.674411 1.01605 0.910542 0.622944 1.31336C0.229838 1.71618 0.00677353 2.25481 0 2.81761V21.4109H7.19899C11.5699 21.4109 14.3911 19.0315 14.3911 15.3459C14.3911 13.3613 13.4797 11.6655 11.9474 10.8028Z" fill="#273B7D"/>
</g>
</svg>
