<svg preserveAspectRatio="none" width="100%" height="100%" overflow="visible" style="display: block;" viewBox="0 0 22.3036 20.7585" fill="none" xmlns="http://www.w3.org/2000/svg">
<path id="Vector" d="M5.67838 0.951865C5.3132 0.077474 5.03641 0.0443598 4.48317 0.0218675C4.27308 0.00833491 4.06264 0.0010426 3.85213 0C3.13237 0 2.37982 0.210241 1.92591 0.675083C1.37266 1.23958 0 2.55663 0 5.25759C0 7.95855 1.97027 10.5708 2.2358 10.9363C2.51258 11.3012 6.077 16.9243 11.6114 19.216C15.9393 21.0091 17.2235 20.8429 18.2085 20.6327C19.6474 20.3228 21.4518 19.2597 21.9057 17.9761C22.3596 16.6918 22.3596 15.596 22.2265 15.3635C22.0938 15.1311 21.7282 14.9987 21.175 14.7216C20.6217 14.4448 17.9317 13.1165 17.4225 12.9394C16.9243 12.7513 16.4485 12.8178 16.0724 13.3492C15.541 14.0908 15.0208 14.8437 14.6 15.2973C14.268 15.6516 13.7253 15.6959 13.2717 15.5075C12.6629 15.2533 10.9585 14.655 8.85512 12.7844C7.22786 11.3346 6.12105 9.53051 5.80022 8.9882C5.47908 8.43495 5.7671 8.1135 6.02139 7.81485C6.29817 7.47153 6.56371 7.22817 6.84049 6.90703C7.11727 6.5862 7.27222 6.42001 7.44935 6.04357C7.63772 5.67839 7.50464 5.30195 7.37187 5.02517C7.23911 4.74839 6.13229 2.04743 5.67838 0.951865V0.951865Z" fill="var(--fill-0, #FEFEFE)"/>
</svg>
