<svg preserveAspectRatio="none" width="100%" height="100%" overflow="visible" style="display: block;" viewBox="0 0 122 36" fill="none" xmlns="http://www.w3.org/2000/svg">
<g id="logo-layer" clip-path="url(#clip0_418_951)">
<path id="Vector" d="M64.9436 9.59091C64.7743 9.80159 64.6785 10.0368 64.6785 10.4459V21.6935H64.6178C64.6178 21.6935 58.6215 10.718 58.3316 10.2107C58.1264 9.85075 57.8972 9.6032 57.5954 9.4171C57.2936 9.24417 56.9798 9.13269 56.377 9.13269H54.3984C53.9393 9.13269 53.6503 9.29333 53.445 9.54175C53.2757 9.75155 53.1791 9.98769 53.1791 10.3959V26.3389C53.1791 26.748 53.2757 26.9832 53.445 27.1939C53.6503 27.4415 53.9393 27.6021 54.3984 27.6021H55.5202C55.9785 27.6021 56.2684 27.4415 56.4736 27.1939C56.642 26.9832 56.7387 26.748 56.7387 26.3389V14.8184H56.7994C56.7994 14.8184 63.0249 26.1405 63.2788 26.5619C63.6286 27.1562 64.2194 27.6021 65.0642 27.6021H66.9829C67.4412 27.6021 67.731 27.4415 67.9362 27.1939C68.1047 26.9832 68.2013 26.748 68.2013 26.3389V11.9566H93.407C93.6609 11.9566 93.8533 11.8829 93.9987 11.7591C94.1551 11.6099 94.2278 11.4115 94.2278 11.1148V10.0246C94.2278 9.72697 94.1551 9.52859 93.9987 9.38023C93.8533 9.25646 93.6609 9.18185 93.407 9.18185H65.897C65.4387 9.18185 65.1488 9.34337 64.9436 9.59091ZM75.948 13.8519C71.7608 13.8519 69.4078 17.2095 69.4078 20.7524C69.4078 24.5306 71.9301 27.8505 75.9719 27.8505C77.9872 27.8505 79.9658 27.0701 81.0996 25.6946C81.5946 25.1003 81.9931 24.2699 81.9931 23.7625C81.9931 23.5887 81.9563 23.4403 81.8605 23.3288C81.7639 23.2051 81.6186 23.1305 81.3655 23.1305H79.4228C79.0364 23.1305 78.7713 23.2788 78.578 23.5764C78.0112 24.4314 77.1903 24.8773 75.9839 24.8773C74.1737 24.8773 73.0041 23.4649 72.9194 21.9164H81.3176C81.6912 21.9164 81.9563 21.8295 82.1376 21.6443C82.3428 21.4459 82.4394 21.1606 82.4394 20.6278C82.4394 19.0056 81.9443 17.321 80.9072 16.0324C79.8452 14.7314 78.2283 13.8519 75.948 13.8519M88.8941 13.8519C85.5885 13.8519 83.4167 15.4627 83.4167 18.0391C83.4167 18.9555 83.7425 19.699 84.2735 20.281C84.8891 20.9631 85.7698 21.4336 87.0489 21.7681L89.8115 22.4861C90.5717 22.6845 91.2472 22.9198 91.2472 23.601C91.2472 24.6544 90.1613 25.0134 89.0035 25.0134C88.4358 25.0134 87.845 24.9019 87.3619 24.6544C87.0241 24.4806 86.7351 24.233 86.5299 23.8986C86.3486 23.6133 86.2888 23.4026 86.0109 23.2419C85.8416 23.1427 85.6364 23.1305 85.3594 23.1305H83.863C83.5373 23.1305 83.3808 23.2297 83.2722 23.3657C83.1636 23.5018 83.1269 23.7002 83.1269 23.8986C83.1269 24.3936 83.2962 25.0134 83.6946 25.5708C84.6112 26.834 86.5299 27.8505 88.9787 27.8505C91.3925 27.8505 94.7349 26.8217 94.7349 23.5018C94.7349 22.6477 94.4929 21.9164 94.0465 21.3221C93.4797 20.5663 92.6716 20.0458 91.2959 19.6868L88.5572 18.9678C87.4226 18.6711 86.8916 18.4604 86.8916 17.7415C86.8916 17.048 87.4952 16.4906 88.8941 16.4906C89.7149 16.4906 90.4631 16.6767 90.9462 17.1973C91.3438 17.6309 91.272 17.8539 91.5858 18.0268C91.7781 18.126 91.9953 18.126 92.3339 18.126H93.6968C93.914 18.126 94.0713 18.0891 94.1911 17.9522C94.2885 17.8407 94.3484 17.6678 94.3484 17.3825C94.3484 16.7382 93.938 15.9086 93.2146 15.2766C92.2493 14.4216 90.729 13.8519 88.8941 13.8519M96.4116 14.3233H95.7361C95.483 14.3233 95.2898 14.397 95.1453 14.5208C94.9879 14.67 94.9153 14.8684 94.9153 15.1651V16.0201C94.9153 16.3177 94.9879 16.5152 95.1453 16.6644C95.2898 16.7882 95.483 16.8628 95.7361 16.8628H96.4116V23.0436C96.4116 24.6289 96.834 25.62 97.618 26.4135C98.3423 27.1439 99.2837 27.6021 100.924 27.6021H101.95C102.204 27.6021 102.396 27.5284 102.541 27.4046C102.698 27.2554 102.794 27.057 102.794 26.7603V25.6823C102.794 25.3847 102.698 25.1872 102.541 25.038C102.396 24.9142 102.204 24.8396 101.95 24.8396H101.805C101.154 24.8396 100.707 24.6667 100.405 24.3691C100.044 24.0223 99.8625 23.4895 99.8625 22.796V16.8628H102.059C102.312 16.8628 102.505 16.7882 102.65 16.6644C102.806 16.5152 102.879 16.3177 102.879 16.0201V15.1651C102.879 14.8684 102.806 14.67 102.65 14.5208C102.505 14.397 102.312 14.3233 102.059 14.3233H99.8745V10.2844C99.8745 9.96223 99.7779 9.72697 99.6334 9.54175C99.4521 9.31879 99.199 9.18185 98.8254 9.18185H97.4616C97.0871 9.18185 96.834 9.31879 96.6527 9.54175C96.5082 9.72697 96.4116 9.96223 96.4116 10.2844V14.3233V14.3233ZM103.797 26.4995C103.797 26.8217 103.892 27.057 104.038 27.2431C104.218 27.466 104.472 27.6021 104.846 27.6021H106.281C106.656 27.6021 106.909 27.466 107.09 27.2431C107.235 27.057 107.331 26.8217 107.331 26.4995V10.2853C107.331 9.96311 107.235 9.72785 107.09 9.54175C106.909 9.31879 106.656 9.18185 106.281 9.18185H104.846C104.472 9.18185 104.218 9.31879 104.038 9.54175C103.892 9.72785 103.797 9.96311 103.797 10.2853V26.4995ZM72.9433 19.2777C73.0998 17.7538 74.2345 16.6144 75.9599 16.6144C77.6495 16.6144 78.8192 17.7538 78.9765 19.2777H72.9433ZM120.399 11.9566C120.652 11.9566 120.845 11.8829 120.99 11.7591C121.147 11.6099 121.22 11.4115 121.22 11.1148V9.96223C121.22 9.5163 121.135 9.29333 120.99 9.13269C120.857 8.98346 120.64 8.89743 120.399 8.89743C120.206 8.89743 120.013 8.92201 119.687 8.95888L110.058 9.93765C109.781 9.96223 109.648 10.0491 109.552 10.1606C109.443 10.2844 109.394 10.4459 109.394 10.6689V11.3123C109.394 11.5607 109.443 11.6722 109.528 11.7714C109.636 11.8952 109.793 11.9566 110.01 11.9566H120.399V11.9566ZM115.078 13.8519C110.891 13.8519 108.538 17.2095 108.538 20.7524C108.538 24.5306 111.06 27.8505 115.102 27.8505C117.117 27.8505 119.096 27.0701 120.23 25.6946C120.725 25.1003 121.123 24.2699 121.123 23.7625C121.123 23.5887 121.086 23.4403 120.99 23.3288C120.894 23.2051 120.749 23.1305 120.495 23.1305H118.553C118.166 23.1305 117.901 23.2788 117.708 23.5764C117.141 24.4314 116.32 24.8773 115.114 24.8773C113.304 24.8773 112.133 23.4649 112.049 21.9164H120.472C120.845 21.9164 121.111 21.8295 121.292 21.6443C121.497 21.4459 121.593 21.1606 121.593 20.6278C121.593 19.0056 121.098 17.321 120.061 16.0324C118.999 14.7314 117.358 13.8519 115.078 13.8519M112.073 19.2777C112.231 17.7538 113.364 16.6144 115.09 16.6144C116.779 16.6144 117.949 17.7538 118.106 19.2777H112.073Z" fill="var(--fill-0, #939CA1)"/>
<path id="Vector_2" d="M39.5708 12.1051C36.4473 7.32187 33.7026 5.71019 32.9305 4.95175C32.0823 4.11518 31.4359 3.16714 31.0246 2.71067C30.1098 1.68449 28.9255 0.417792 26.9777 0.417792C25.0975 0.417792 23.8551 1.67571 23.4516 2.76246C23.3344 3.07233 23.2421 3.45155 23.1583 3.58937C22.9736 3.90012 22.1425 5.35643 21.7979 5.93403H23.3515L22.5957 7.39912C23.4772 7.20073 24.1065 7.05414 24.9462 7.05414C25.6935 7.05414 26.2304 7.23585 26.4656 7.71777C26.9025 8.61491 26.9025 11.3291 27.6413 13.3727C28.3296 15.2934 30.0089 17.1728 31.8976 18.6124C31.9224 18.6291 31.9481 18.6379 31.9814 18.6379C32.0738 18.6379 32.1328 18.5694 32.1328 18.5001C32.1328 18.4483 32.1157 18.4141 32.0738 18.371C30.4954 16.7506 29.2111 14.9581 28.5228 12.9935C27.8422 11.0798 27.9516 8.39018 27.3557 7.19195C26.9606 6.39928 26.1219 6.19299 25.3489 6.19299C24.7281 6.19299 24.1484 6.32203 23.8799 6.38173L24.5597 5.20105H23.4097C23.6534 4.76214 23.9047 4.35659 24.0313 4.11519C24.1399 3.90802 24.1826 3.64994 24.3169 3.29706C24.7529 2.1673 25.7183 1.45187 26.9777 1.45187C28.5561 1.45187 29.4796 2.49472 30.3945 3.53758C30.8143 4.02038 31.5026 5.029 32.3004 5.77866C32.8459 6.2957 33.8873 6.87331 35.4905 8.57189C36.414 9.55418 37.4887 10.8297 38.6217 12.5361C42.6771 18.6291 45.338 23.9988 46.824 28.1877L46.7993 28.2053C42.5429 25.24 38.8568 22.4389 35.8855 18.9829C33.7779 16.5267 31.9481 13.6826 30.3526 10.0537C30.2431 9.81226 30.1517 9.58841 30.0508 9.35579C30.0089 9.26099 29.967 9.23465 29.8994 9.23465C29.8156 9.23465 29.7566 9.29522 29.7566 9.38125C29.7566 9.47605 29.7985 9.68322 29.8909 10.0967C30.7391 13.8546 33.0896 17.2246 35.6 20.0257C38.1018 22.8102 40.9303 25.2058 43.256 26.9474L45.0695 32.2731C45.1114 32.403 45.1619 32.5409 45.1619 32.6699C45.1619 32.7647 45.1362 32.842 45.0781 32.8937C45.0276 32.9455 44.9609 32.9719 44.8096 32.9719H44.2641C44.0289 32.9719 43.9357 32.9368 43.8519 32.8683C43.7681 32.7989 43.71 32.6954 43.6672 32.5751C43.5082 32.0747 42.5506 29.2736 42.3667 28.7048C42.3325 28.6021 42.2735 28.567 42.2068 28.567C42.123 28.567 42.064 28.6363 42.064 28.7136C42.064 28.7829 42.0888 28.8601 42.1316 29.1015C42.3744 30.377 42.66 31.8079 42.7772 32.3513C42.8285 32.6006 42.8866 32.8341 42.8866 33.0061C42.8866 33.1606 42.8532 33.2475 42.7276 33.3765L42.1649 33.9629C42.0307 34.1008 41.9546 34.135 41.846 34.135C41.7118 34.135 41.6023 34.0402 41.5519 33.7988C40.914 30.7387 39.9487 26.9474 39.6964 25.8949C39.6374 25.6631 39.5956 25.5332 39.4613 25.5332C39.3442 25.5332 39.3023 25.6192 39.3023 25.7228C39.3023 25.8001 39.3185 25.8949 39.3271 25.9642C39.4784 27.0501 40.0915 31.0064 40.7541 34.6178C40.8721 35.2384 41.0987 35.5825 41.6194 35.5825C41.8546 35.5825 42.0803 35.4877 42.2906 35.2814C42.6352 34.9277 42.7353 34.8329 43.1474 34.4194C43.4407 34.1262 43.6425 34.0059 44.1461 34.0059H45.3884C45.6826 34.0059 45.8416 33.9287 45.9844 33.79C46.1186 33.661 46.2024 33.4801 46.2024 33.2212C46.2024 32.9543 46.1357 32.7392 46.0434 32.4715C45.7245 31.5928 44.7001 28.6187 44.3975 27.7831L44.4231 27.7655C45.4722 28.5845 47.0002 29.6274 47.6722 29.6274C47.8817 29.6274 48.0083 29.5326 48.0083 29.1964C48.0083 27.611 45.4389 21.0861 39.5708 12.1051" fill="var(--fill-0, #939CA1)"/>
<path id="Vector_3" d="M10.7501 2.08982C10.9262 1.69304 11.3127 1.41741 11.7744 1.41741C12.4037 1.41741 12.9073 1.91777 12.9073 2.5814C12.9073 2.96852 12.7312 3.3056 12.4541 3.51189C12.5131 3.73662 12.555 3.93413 12.555 4.12374C12.555 4.84794 12.1352 5.3562 11.3631 5.62394C11.2622 6.06285 11.0775 6.45962 10.7748 6.75282C10.2712 7.2523 9.75906 7.2523 9.75906 7.45947C9.75906 7.57183 9.83516 7.6403 10.0446 7.6403C10.9766 7.6403 11.8915 7.10658 12.001 6.21822C12.8911 5.90835 13.428 4.98576 13.428 4.25365C13.428 4.06317 13.4109 3.89989 13.3357 3.74539C13.5794 3.50311 13.865 3.08966 13.865 2.47782C13.865 1.94322 13.6375 1.40073 13.2348 1.00395C12.8825 0.650189 12.3866 0.417566 11.8077 0.417566C10.9681 0.417566 10.4226 0.88369 10.1122 1.34016C9.19645 1.34016 8.01307 2.38301 8.01307 3.87443H7.88738C7.80274 3.3574 7.28287 3.01153 6.84595 2.98608C6.49367 1.90021 5.69592 0.969717 4.386 0.969717C4.23552 0.969717 4.05083 0.978495 3.89093 1.00395C3.50531 0.641411 3.07694 0.417566 2.48098 0.417566C1.33865 0.417566 0.406653 1.35771 0.406653 2.54629C0.406653 3.28805 0.734132 3.79631 1.35575 4.24488C1.35575 4.24488 1.3472 4.33968 1.3472 4.38269C1.3472 5.33074 2.35443 6.81339 3.84904 6.81339C3.84904 7.05391 4.14317 7.38222 4.47065 7.44191V7.56305H4.3441C2.28774 7.56305 1.41474 8.58045 1.41474 9.26076C0.80168 9.51972 0.406653 10.2176 0.406653 10.8637C0.406653 12.1479 1.3224 13.0617 2.53142 13.0617C2.93415 13.0617 3.34542 12.8985 3.631 12.6737C3.84049 12.751 4.10897 12.794 4.386 12.794C4.96572 12.794 5.61213 12.5877 6.0653 11.9065C6.13285 11.9153 6.19099 11.9153 6.25854 11.9153C6.99729 11.9153 7.63515 11.4149 7.97118 10.7601C8.05497 10.5968 8.08832 10.4678 8.08832 10.3721C8.08832 10.2782 8.04642 10.2 7.95408 10.2C7.83694 10.2 7.81984 10.3124 7.61035 10.5108C7.14008 10.9506 6.41757 11.1138 5.67882 11.1138C5.31799 11.6572 4.87337 11.9416 4.36121 11.9416C3.98328 11.9416 3.69 11.838 3.38732 11.6309C3.14363 11.9065 2.8418 12.0189 2.54767 12.0189C1.88501 12.0189 1.41474 11.5449 1.41474 10.8549C1.41474 10.3721 1.71657 9.94195 2.1364 9.7778C2.21164 8.92455 3.10173 8.34694 4.20986 8.34694C4.35266 8.34694 4.49545 8.35572 4.64679 8.37328C4.81438 8.09764 5.2171 7.80445 5.78827 7.72632C5.90626 7.70964 5.99775 7.70087 6.0653 7.66663C6.13285 7.63152 6.16619 7.56305 6.16619 7.48492C6.16619 7.41645 6.14054 7.35588 6.07385 7.31287C6.01485 7.27863 5.91396 7.26195 5.79682 7.23562C5.26755 7.13204 4.63824 6.79583 4.31931 5.97682C3.05129 5.97682 2.1193 4.93397 2.1193 3.76207V3.68482C1.69947 3.51189 1.41474 3.09844 1.41474 2.60686C1.41474 1.96078 1.90981 1.44374 2.53912 1.44374C2.91705 1.44374 3.24453 1.63335 3.45487 1.91777C3.631 1.86597 3.83194 1.84842 4.02518 1.84842C4.96572 1.84842 5.97295 2.46026 6.16619 3.64971C7.37522 3.76207 7.6608 4.81371 7.73604 5.25349C7.77794 5.47734 7.81129 5.66695 7.95408 5.66695C8.10542 5.66695 8.13877 5.49402 8.18921 5.2614C8.28156 4.82248 8.44145 4.46872 8.76038 4.19308C8.76038 3.06333 9.58293 2.08982 10.7501 2.08982Z" fill="var(--fill-0, #939CA1)"/>
<path id="Vector_4" d="M13.1929 8.84691C12.7979 9.42452 12.5132 9.70893 11.6145 10.7948C10.4312 12.2344 9.80955 13.3984 8.77666 15.9836C8.9451 15.9661 9.18879 15.9494 9.45727 15.9494C9.59151 15.9494 9.7001 15.9494 9.87709 15.9573L10.0028 15.6816C10.5825 14.4062 11.3623 12.6821 12.4542 11.3549L12.8321 10.8984C13.9565 9.54566 14.6533 8.74333 15.0903 6.89902C15.2416 6.24416 15.3673 5.65865 15.7957 5.23554C16.1813 4.85632 16.6687 4.69305 17.1637 4.69305C17.5836 4.69305 17.8948 4.79663 18.348 4.99414C18.7592 5.17497 18.9097 5.21009 19.3466 5.21009C19.498 5.21009 19.6066 5.20131 19.7075 5.19253L19.1201 6.00276L19.9178 6.58037C18.9183 6.88146 18.3899 7.8734 18.2129 8.32987C18.1795 8.42468 18.1633 8.48524 18.1633 8.54581C18.1633 8.61516 18.1966 8.68363 18.2975 8.68363C18.4061 8.68363 18.4899 8.59761 18.6327 8.42468C19.1201 7.82161 19.5065 7.40728 21.3021 6.83055L20.035 5.84739L20.9917 4.40863H20.0939C19.5228 4.40863 19.1449 4.39985 18.6498 4.16723C17.9777 3.84858 17.634 3.71076 17.038 3.71076C16.3078 3.71076 15.6443 3.97762 15.0988 4.49466C14.4687 5.08895 14.2754 5.8825 14.0497 6.7533C13.8727 7.42483 13.6632 8.1666 13.1929 8.84691Z" fill="var(--fill-0, #939CA1)"/>
<path id="Vector_5" d="M15.1238 14.7164C14.6449 15.3801 13.99 16.25 13.4864 17.1726C13.6463 17.2507 14.1755 17.5439 14.3602 17.6466C14.9391 16.7503 15.7454 15.6478 16.2738 14.8112C16.7526 14.0528 16.9458 13.7254 16.9792 12.708C16.9877 12.5359 16.9877 12.3717 17.004 12.2085C17.0459 11.6827 17.181 11.1481 17.6675 10.6574C18.0283 10.286 18.549 10.0973 19.0698 10.0973C19.5734 10.0973 19.8667 10.243 20.3036 10.243C20.614 10.243 20.8405 10.1658 21.0423 10.0885L21.2022 10.028L20.8158 10.9769L21.7221 11.3552C21.1432 11.7257 19.8752 13.3207 19.8752 15.208C19.8752 15.8892 19.9761 16.5177 20.1189 17.0778C20.136 17.1383 20.1693 17.1989 20.2617 17.1989C20.3455 17.1989 20.4045 17.1471 20.413 17.0523L20.4216 16.8539C20.4464 16.2763 20.4883 15.3634 20.7149 14.5444C21.0928 13.1653 22.1086 11.8723 23.1244 11.2516L21.6802 10.6056L22.3018 9.04568L21.6221 9.19227C21.2108 9.2783 20.9081 9.35555 20.5473 9.35555C20.3121 9.35555 20.0437 9.32131 19.7247 9.24319C19.481 9.1835 19.2203 9.1317 18.8517 9.1317C18.1882 9.1317 17.4743 9.38978 16.9877 9.87259C16.0977 10.7434 16.0472 11.6827 15.9882 12.5192C15.913 13.6305 15.7112 13.9062 15.1238 14.7164Z" fill="var(--fill-0, #939CA1)"/>
<path id="Vector_6" d="M36.6659 15.2421C36.6069 15.1648 36.5565 15.1297 36.4898 15.1297C36.3889 15.1297 36.3385 15.1991 36.3385 15.2763C36.3385 15.3975 36.4222 15.5441 36.6326 15.9066C37.2704 17.0179 38.0596 18.138 39.0335 19.1905C40.0827 20.3361 41.3165 21.4044 42.635 22.3612L43.0462 22.6544C43.1052 22.6983 43.1471 22.7238 43.1976 22.7238C43.2814 22.7238 43.3404 22.6377 43.3404 22.5684C43.3404 22.5254 43.3233 22.4815 43.2728 22.4385C42.0475 21.2929 40.7291 19.8963 39.4953 18.5524C38.5291 17.4919 37.5389 16.3718 36.6659 15.2421Z" fill="var(--fill-0, #939CA1)"/>
<path id="Vector_7" d="M9.65016 11.3379C9.77585 11.1229 10.1538 10.5971 10.3051 10.4329C9.65871 9.08895 8.60103 7.80469 8.13931 7.29556L7.75283 7.68356C8.1983 8.34719 8.94475 9.63145 9.65016 11.3379Z" fill="var(--fill-0, #939CA1)"/>
<path id="Vector_8" d="M3.49652 3.55524C3.42043 3.48589 3.40418 3.44288 3.40418 3.39108C3.40418 3.33139 3.44608 3.26204 3.53842 3.26204C3.57177 3.26204 3.60511 3.27082 3.64787 3.28838C4.26862 3.54646 4.79789 3.84843 5.26816 4.21887C5.66234 4.52874 6.04881 4.90884 6.42589 5.36531L6.07361 5.77876C5.63754 5.40745 4.22673 4.19342 3.49652 3.55524Z" fill="var(--fill-0, #939CA1)"/>
<path id="Vector_9" d="M9.44873 6.44251L8.99556 6.1581C9.28884 5.44267 9.65052 4.78782 10.078 4.29624C10.3807 3.94335 10.6663 3.65806 10.9852 3.37452C11.0605 3.31395 11.1024 3.26216 11.1776 3.26216C11.2623 3.26216 11.3213 3.33151 11.3213 3.39998C11.3213 3.43421 11.3042 3.47723 11.2708 3.52902C10.7586 4.34803 9.75911 5.96849 9.44873 6.44251Z" fill="var(--fill-0, #939CA1)"/>
<path id="Vector_10" d="M3.75686 10.4414C3.64742 10.4845 3.59697 10.5108 3.53883 10.5108C3.44648 10.5108 3.40373 10.4327 3.40373 10.3721C3.40373 10.3124 3.42938 10.2782 3.48838 10.2255C4.52041 9.39859 5.42761 9.07117 6.67853 8.85522L6.82902 9.37314L3.75686 10.4414Z" fill="var(--fill-0, #939CA1)"/>
<path id="Vector_11" d="M25.2903 3.75362C25.2903 3.45165 25.4417 2.90828 25.9872 2.90828C26.1719 2.90828 26.348 2.95129 26.4908 3.02064C26.6926 3.11544 26.8268 3.25326 26.8268 3.39986C26.8268 3.55523 26.6755 3.71061 26.4489 3.90022C26.2138 4.09773 25.912 4.27944 25.6683 4.27944C25.375 4.27944 25.2903 3.99415 25.2903 3.75362Z" fill="var(--fill-0, #939CA1)"/>
<path id="Vector_12" d="M16.7693 6.2701C16.7693 5.89966 16.9873 5.4941 17.4071 5.4941C17.5918 5.4941 17.8099 5.57135 17.9698 5.7276C18.0621 5.81363 18.104 5.90756 18.104 6.00324C18.104 6.21041 17.9108 6.40792 17.6842 6.54574C17.508 6.64932 17.3233 6.71867 17.1643 6.71867C16.9035 6.71867 16.7693 6.55364 16.7693 6.2701Z" fill="var(--fill-0, #939CA1)"/>
<path id="Vector_13" d="M18.7422 11.5881C18.7422 11.502 18.7507 11.3985 18.7841 11.2949C18.8516 11.071 18.9936 10.8551 19.3467 10.8551C19.5066 10.8551 19.6819 10.8981 19.8247 11.0026C19.9512 11.0886 20.0017 11.2001 20.0017 11.3124C20.0017 11.6829 19.3972 12.1139 19.0945 12.1139C18.8764 12.1139 18.7422 11.8979 18.7422 11.5881Z" fill="var(--fill-0, #939CA1)"/>
<path id="Vector_14" d="M15.4345 22.4648C14.3015 22.4648 13.7971 21.9135 13.7971 21.2156C13.7971 19.991 15.8876 18.7937 17.7679 18.0519L18.2552 18.6989C17.0967 19.172 14.7633 20.1903 14.7633 21.069C14.7633 21.3789 14.9394 21.6036 15.6439 21.6036C16.8701 21.6036 18.1885 20.9909 19.4053 20.379C19.4976 20.336 19.607 20.293 19.7079 20.293C19.867 20.293 19.9679 20.3448 20.085 20.5169L20.2868 20.8013C18.8683 21.6036 17.0967 22.4648 15.4345 22.4648Z" fill="var(--fill-0, #939CA1)"/>
<path id="Vector_15" d="M18.5576 22.7926C17.4495 23.4299 16.2995 23.8531 15.2837 23.8531C14.1499 23.8531 13.1427 23.3527 12.303 22.0509C11.9507 21.4996 11.6737 20.8105 11.3377 20.1987C10.935 19.4745 10.498 19.0865 9.73448 19.0865C9.03762 19.0865 8.35701 19.3797 7.63536 19.6983L7.6687 19.8625C7.7277 20.1293 7.8286 20.3189 8.07143 20.3189C8.18087 20.3189 8.29032 20.268 8.34931 20.2505C8.75204 20.1205 9.04532 20.0082 9.45745 20.0082C10.0868 20.0082 10.3886 20.3883 10.817 21.3188L10.9768 21.6638C10.5399 21.8191 9.51559 21.8964 8.75204 21.8964H8.39121L8.45021 22.2668C8.47501 22.4222 8.534 22.5512 8.65969 22.6118C8.81018 22.6891 9.02907 22.6978 9.407 22.6978C10.3638 22.6978 11.0606 22.5776 11.4634 22.4731C12.4963 24.0514 13.9148 24.6545 15.2837 24.6545C16.4499 24.6545 17.6342 24.2147 18.768 23.5774L18.5576 22.7926Z" fill="var(--fill-0, #939CA1)"/>
<path id="Vector_16" d="M19.6991 23.1805L19.4982 22.3869C21.2271 21.431 22.8055 20.6638 25.3244 20.4136C25.3748 21.4047 25.3073 22.6547 26.0213 22.6547C26.6754 22.6547 28.1024 20.9219 29.7484 18.7501C29.8997 18.8967 30.1425 19.0521 30.3614 19.2241L29.9416 19.7842C28.3376 21.905 26.9695 23.7151 25.8443 23.7151C24.7951 23.7151 24.4001 22.4475 24.3839 21.4995C22.7807 21.6636 21.269 22.2149 19.6991 23.1805Z" fill="var(--fill-0, #939CA1)"/>
<path id="Vector_17" d="M41.9131 5.88226C41.2581 5.88226 41.0734 5.51094 41.0734 4.986C41.0734 3.90013 41.7369 2.34024 42.1567 1.45188H41.1401C40.6117 2.50351 38.5297 5.87348 37.4044 7.2701L38.0508 7.98464C38.6554 7.29555 39.3189 6.12366 40.0405 4.96844H40.1748C40.1748 5.02901 40.1671 5.09748 40.1671 5.15805C40.1671 6.13244 40.6536 6.85576 41.8541 6.85576C42.5928 6.85576 43.7514 6.47654 44.8433 6.09732C45.7496 5.77867 46.5807 5.45124 46.992 5.33098V4.29691C46.5217 4.44263 45.5649 4.82185 44.5739 5.17561C43.5333 5.54605 42.509 5.88226 41.9131 5.88226Z" fill="var(--fill-0, #939CA1)"/>
<path id="Vector_18" d="M44.1544 9.01072C45.1616 8.57181 46.9666 7.83005 48.008 7.44205V6.39042C45.9175 7.18397 42.2485 8.74386 39.7467 10.1405C39.8142 10.2256 40.2511 10.855 40.3007 10.9332C41.3584 10.4846 42.3075 10.1914 43.1634 10.1914C44.3647 10.1914 45.3463 10.1914 46.9923 9.79462V9.00194C46.0688 9.17487 45.0864 9.38116 44.4485 9.38116C44.0706 9.38116 43.9611 9.32937 43.9611 9.20033C43.9611 9.12308 44.0116 9.07129 44.1544 9.01072" fill="var(--fill-0, #939CA1)"/>
<path id="Vector_19" d="M22.6458 13.8545L22.2422 14.6481H26.5328L26.2139 13.8545H22.6458Z" fill="var(--fill-0, #939CA1)"/>
<path id="Vector_20" d="M7.19027 18.5864C7.64344 18.5864 8.01282 18.431 8.36595 18.2853C8.70113 18.1466 9.03716 18.0088 9.49033 18.0088C10.5651 18.0088 11.8913 18.5434 13.0584 19.0516C13.1259 19.078 13.2012 19.0946 13.2764 19.0946C13.462 19.0946 13.6048 19.0086 13.6963 18.8278L13.8476 18.5434C12.5633 17.7761 10.5147 16.9571 9.44843 16.9571C8.96191 16.9571 8.60878 17.0871 8.27361 17.224C7.89568 17.3802 7.5682 17.5435 7.22362 17.5435C6.37628 17.5435 4.20191 16.6815 4.20191 15.8458C4.20191 14.8635 7.66054 14.4843 8.03847 14.4843L8.3822 13.682C5.87266 13.682 2.88344 14.587 2.88344 15.7852C2.88344 16.1302 3.07668 16.3023 3.07668 16.6209C3.07668 17.0519 2.88344 17.3451 2.88344 17.8279C2.88344 18.1466 3.06813 18.5521 3.28617 18.9059C3.5213 19.2763 3.79833 19.5169 3.79833 19.8276C3.79833 20.0602 3.64785 20.3359 3.64785 20.8793C3.64785 22.0424 4.29426 22.7499 5.55287 24.1369L5.80511 24.4125C4.76453 24.8268 2.82444 25.6888 2.37127 25.8864C0.801424 26.5588 0.407251 27.3778 0.407251 28.6708C0.407251 29.1703 0.407251 29.7391 0.440597 30.2474H0.742426C1.37259 30.2474 1.44783 29.8603 1.44783 29.4898C1.44783 29.2396 1.43928 28.9552 1.43928 28.6445C1.44783 27.9299 1.47348 27.2918 2.59786 26.7747C3.05189 26.5675 5.27584 25.6371 6.93034 24.9129C7.41686 24.6969 7.87003 24.5161 8.37365 24.5161C8.93626 24.5161 9.58267 24.7663 10.389 25.2578C11.0687 25.6713 11.7827 26.2313 12.3453 26.8774L13.0584 26.3174C12.4453 25.5765 11.598 24.9129 10.7498 24.3958C9.9016 23.8788 9.1466 23.5768 8.50874 23.5768C8.23171 23.5768 8.00512 23.6286 7.81188 23.6804C7.5853 23.741 7.37496 23.8094 7.10648 23.8094C6.7961 23.8094 6.53531 23.7322 6.15739 23.2836C6.01459 23.1203 5.10825 22.0599 4.91501 21.7501C4.82267 21.6035 4.65508 21.3103 4.65508 20.9653C4.65508 20.8187 4.67988 20.6466 4.76453 20.4913C5.54432 21.1119 6.51052 21.4911 7.68534 21.6377L7.5263 20.8187C5.83846 20.3622 4.04202 18.8366 4.04202 17.8543C4.04202 17.6471 4.09247 17.5005 4.16857 17.3197C4.82267 17.9403 6.35917 18.5864 7.19027 18.5864Z" fill="var(--fill-0, #939CA1)"/>
<path id="Vector_21" d="M19.2712 18.7418C20.3289 17.9746 21.4199 17.8886 22.3015 17.8886C22.8308 17.8886 23.4515 17.9658 24.1065 18.0518C24.6357 18.1212 25.1137 18.173 25.6849 18.173C26.8349 18.173 27.9935 17.742 28.4971 17.5173C28.6399 17.699 28.8836 17.9404 29.0768 18.1124C28.8331 18.2678 27.2889 19.1289 25.7105 19.1289C25.0137 19.1289 24.3502 19.0438 23.779 18.9657C23.2754 18.8972 22.7299 18.8366 22.2006 18.8366C21.6217 18.8366 20.4546 19.0087 19.733 19.3624L19.2712 18.7418Z" fill="var(--fill-0, #939CA1)"/>
<path id="Vector_22" d="M34.8609 21.8187C33.6015 24.5426 31.687 26.5247 29.723 27.6712C28.791 28.2137 27.9514 28.5674 26.1387 28.5674H22.2175C20.8161 28.5674 19.9345 28.757 19.2462 28.9379C18.5066 29.1363 18.0372 29.3338 17.2899 29.3338C16.1818 29.3338 15.1574 28.7737 14.6624 28.24L15.5858 27.4903L15.1241 26.8601C14.8556 27.0593 11.5731 29.5497 10.8839 30.1098L10.842 30.0843C10.8591 29.9123 10.8591 29.7569 10.8591 29.6015C10.8591 27.7054 10.0024 27.2481 8.70189 26.7144L7.82034 27.2481C9.60823 27.8608 10.0528 28.3515 10.0528 29.7218C10.0528 30.8085 9.67492 31.2387 9.12941 31.567C8.56679 31.9032 7.86993 32.0577 7.25772 32.0577C6.99694 32.0577 6.8798 32.1095 6.78745 32.2043C6.68656 32.3078 6.63611 32.4632 6.63611 32.6783V32.9803H6.84645C7.97083 32.9803 9.01226 32.7994 10.1537 31.8768L13.8732 28.8949C14.4016 29.5155 15.7371 30.3775 17.3147 30.3775C18.2048 30.3775 18.776 30.1528 19.5985 29.9377C20.2364 29.7736 20.858 29.627 22.2175 29.627H26.1549C28.1703 29.627 29.1441 29.196 30.2181 28.5762C32.5523 27.2314 34.542 24.9561 35.6672 22.3437C35.3731 22.1549 35.0961 21.982 34.8609 21.8187Z" fill="var(--fill-0, #939CA1)"/>
<path id="Vector_23" d="M28.5394 25.0595C29.5552 23.3873 30.4615 21.9046 32.6863 20.6985C32.4512 20.5519 32.116 20.3281 31.939 20.2069C31.0746 20.5949 30.2187 21.37 29.4885 22.1548C27.8092 23.9473 27.9597 24.9814 26.1889 25.6801C25.7434 25.8522 25.1979 26.0418 24.501 26.206C24.0898 24.9041 23.0577 23.6111 21.9659 23.6111C21.21 23.6111 20.337 24.0158 19.3298 24.4731C18.1464 25.0077 17.0631 25.6196 16.7193 25.8522L17.1811 26.4904C17.5333 26.2911 18.5491 25.7741 19.5649 25.3264C20.4464 24.9384 21.2442 24.6197 21.7812 24.6197C22.6456 24.6197 23.2082 25.6284 23.5195 26.4377C22.3857 26.7142 20.5217 26.7827 19.9599 26.7827C19.6991 26.7827 19.6068 26.8257 19.5145 26.9038C19.4307 26.9811 19.3631 27.1189 19.3212 27.3085L19.2545 27.6017H19.8582C22.9987 27.6017 25.9623 27.0934 27.8673 25.904C28.1367 25.9821 28.3718 26.033 28.6736 26.033C29.7647 26.033 30.8899 25.4212 31.5953 24.8611C31.8467 24.6627 31.9057 24.481 31.9057 24.2835C31.9057 24.1887 31.8971 24.1027 31.8886 24.0158L31.8552 23.6805C30.848 24.4986 30.0083 25.1113 28.9678 25.1113C28.7831 25.1113 28.6488 25.0938 28.5394 25.0595Z" fill="var(--fill-0, #939CA1)"/>
</g>
<defs>
<clipPath id="clip0_418_951">
<rect width="122" height="36" fill="white"/>
</clipPath>
</defs>
</svg>
