<svg preserveAspectRatio="none" width="100%" height="100%" overflow="visible" style="display: block;" viewBox="0 0 19.9843 27.1435" fill="none" xmlns="http://www.w3.org/2000/svg">
<path id="Vector" d="M9.06351 27.1435C7.33005 27.1435 5.78232 26.7226 4.42031 25.8806C3.05831 25.0386 1.98109 23.8871 1.18866 22.426C0.396219 20.965 0 19.3059 0 17.4485C0 15.5913 0.396219 13.9445 1.18866 12.5082C1.98109 11.0472 3.05831 9.90804 4.42031 9.09083C5.78232 8.24887 7.33005 7.82789 9.06351 7.82789C10.4503 7.82789 11.6637 8.08791 12.7038 8.60794C13.5392 9.02563 14.2468 9.57912 14.8264 10.2684C14.9571 10.4237 15.2297 10.3354 15.2297 10.1325V1.10413C15.2297 1.00627 15.2984 0.921857 15.3942 0.902042L19.7362 0.00434832C19.8642 -0.0221291 19.9843 0.0756672 19.9843 0.20644V26.4915C19.9843 26.6054 19.8918 26.6978 19.778 26.6978H15.9193C15.8207 26.6978 15.736 26.6281 15.7168 26.5313L15.321 24.5241C15.2862 24.3474 15.0545 24.2948 14.9392 24.4331C14.3851 25.0978 13.6894 25.6917 12.8523 26.2149C11.8866 26.834 10.6236 27.1435 9.06351 27.1435ZM10.0664 22.9833C11.6017 22.9833 12.8523 22.4756 13.8181 21.4603C14.8087 20.4202 15.3039 19.0954 15.3039 17.4857C15.3039 15.8761 14.8087 14.5636 13.8181 13.5483C12.8523 12.5082 11.6017 11.9882 10.0664 11.9882C8.55585 11.9882 7.30528 12.4958 6.31474 13.5111C5.32418 14.5265 4.82892 15.8389 4.82892 17.4485C4.82892 19.0582 5.32418 20.3831 6.31474 21.4231C7.30528 22.4632 8.55585 22.9833 10.0664 22.9833Z" fill="var(--fill-0, #032674)"/>
</svg>
