<svg preserveAspectRatio="none" width="100%" height="100%" overflow="visible" style="display: block;" viewBox="0 0 23.8939 15.6054" fill="none" xmlns="http://www.w3.org/2000/svg">
<path id="Vector" d="M23.8939 7.29758V15.6054H19.7058V7.67675C19.7058 5.27618 18.5908 3.98088 16.6327 3.98088C15.7588 3.98088 14.7943 4.39144 13.9204 5.65535C13.9811 6.1923 14.041 6.72925 14.041 7.29758V15.6054H9.85289V7.67675C9.85289 5.27618 8.73789 3.98088 6.74903 3.98088C5.93584 3.98088 5.03123 4.48645 4.18811 5.68673V15.6054H0V0.474177H4.18811V1.3903C5.09192 0.505563 6.0564 0 7.74346 0C9.58183 0 11.2082 0.758344 12.3539 2.14779C13.8905 0.663339 15.3372 0 17.5972 0C21.1218 0 23.8939 2.87475 23.8939 7.29758Z" fill="var(--fill-0, #10069F)"/>
</svg>
