<svg preserveAspectRatio="none" width="100%" height="100%" overflow="visible" style="display: block;" viewBox="0 0 11.4904 15.2528" fill="none" xmlns="http://www.w3.org/2000/svg">
<path id="Vector" d="M0.448601 11.2273C0.148801 10.3178 0 9.1699 0 7.6264C0 6.0823 0.148801 4.932 0.448601 4.0249C1.288 1.4221 3.50469 0 6.41019 0C8.56849 0 10.2777 0.8779 11.4157 2.2703C11.505 2.3905 11.5359 2.5719 11.3848 2.6926L9.4972 4.3574C9.3472 4.4793 9.1985 4.449 9.0783 4.2979C8.3597 3.4813 7.61009 3.0263 6.41019 3.0263C5.12279 3.0263 4.1335 3.6621 3.7147 4.9332C3.4743 5.6612 3.416 6.5076 3.416 7.627C3.416 8.7464 3.4743 9.6237 3.7147 10.3505C4.1335 11.5901 5.12279 12.2259 6.41019 12.2259C7.61009 12.2259 8.3597 11.7715 9.0783 10.9566C9.1985 10.8032 9.3478 10.8032 9.4972 10.9245L11.3848 12.5893C11.5359 12.7101 11.505 12.8617 11.4157 13.0134C10.2777 14.376 8.56849 15.2528 6.41019 15.2528C3.50469 15.2516 1.288 13.8283 0.448601 11.2273Z" fill="var(--fill-0, #204156)"/>
</svg>
