<svg preserveAspectRatio="none" width="100%" height="100%" overflow="visible" style="display: block;" viewBox="0 0 30.0115 31.4489" fill="none" xmlns="http://www.w3.org/2000/svg">
<path id="Vector" d="M23.062 10.3496V6.60661C23.5566 6.37558 23.9755 6.00876 24.2697 5.54887C24.5639 5.08898 24.7214 4.55495 24.7238 4.00901V3.92164C24.7218 3.15869 24.4178 2.42757 23.8783 1.88807C23.3388 1.34858 22.6077 1.04459 21.8447 1.04254H21.7574C20.9944 1.04459 20.2633 1.34858 19.7238 1.88807C19.1843 2.42757 18.8803 3.15869 18.8783 3.92164V4.00901C18.8807 4.55495 19.0382 5.08898 19.3324 5.54887C19.6266 6.00876 20.0454 6.37558 20.5401 6.60661V10.3496C19.1179 10.5671 17.7784 11.1565 16.6573 12.0581L6.37947 4.06143C6.45262 3.79763 6.49177 3.52557 6.49595 3.25186C6.49672 2.60947 6.30698 1.98128 5.95072 1.44673C5.59447 0.912174 5.0877 0.495267 4.49451 0.248727C3.90131 0.00218587 3.24833 -0.0629153 2.61814 0.0616553C1.98794 0.186226 1.40884 0.494874 0.954057 0.948568C0.499277 1.40226 0.189248 1.98063 0.063171 2.61052C-0.0629061 3.24042 0.000631047 3.89355 0.245753 4.48734C0.490874 5.08112 0.906569 5.58888 1.44027 5.94641C1.97397 6.30394 2.6017 6.49518 3.24409 6.49595C3.80835 6.49385 4.36209 6.34319 4.84964 6.05914L14.9547 13.9257C14.0445 15.2989 13.5696 16.9146 13.5922 18.5619C13.6147 20.2091 14.1335 21.8113 15.0809 23.1591L12.0057 26.2343C11.7588 26.1557 11.5017 26.1138 11.2427 26.11C10.7147 26.11 10.1986 26.2666 9.75963 26.5599C9.32065 26.8532 8.9785 27.2701 8.77645 27.7579C8.57441 28.2457 8.52155 28.7824 8.62455 29.3002C8.72755 29.818 8.98179 30.2937 9.35511 30.667C9.72844 31.0403 10.2041 31.2946 10.7219 31.3976C11.2397 31.5006 11.7765 31.4477 12.2642 31.2457C12.752 31.0436 13.1689 30.7015 13.4622 30.2625C13.7556 29.8235 13.9121 29.3074 13.9121 28.7794C13.9086 28.5204 13.8667 28.2633 13.7879 28.0165L16.8301 24.9743C17.8231 25.7328 18.9764 26.2544 20.2018 26.4993C21.4271 26.7441 22.6923 26.7058 23.9006 26.3871C25.1089 26.0685 26.2284 25.478 27.1737 24.6607C28.119 23.8434 28.8651 22.8209 29.3549 21.6713C29.8448 20.5217 30.0655 19.2754 30.0003 18.0275C29.935 16.7796 29.5855 15.5631 28.9784 14.4709C28.3713 13.3786 27.5227 12.4395 26.4973 11.7253C25.4719 11.0111 24.2969 10.5405 23.062 10.3496V10.3496ZM21.802 22.6621C20.9696 22.6621 20.1558 22.4152 19.4636 21.9527C18.7715 21.4902 18.232 20.8329 17.9134 20.0638C17.5949 19.2947 17.5115 18.4484 17.6739 17.632C17.8363 16.8155 18.2372 16.0655 18.8258 15.4769C19.4145 14.8883 20.1644 14.4874 20.9809 14.325C21.7973 14.1626 22.6436 14.2459 23.4127 14.5645C24.1818 14.8831 24.8392 15.4225 25.3016 16.1147C25.7641 16.8069 26.011 17.6206 26.011 18.4531C26.011 19.5694 25.5675 20.6399 24.7782 21.4293C23.9889 22.2186 22.9183 22.6621 21.802 22.6621" fill="var(--fill-0, #FF7A59)"/>
</svg>
