<svg preserveAspectRatio="none" width="100%" height="100%" overflow="visible" style="display: block;" viewBox="0 0 13.4786 17.0193" fill="none" xmlns="http://www.w3.org/2000/svg">
<path id="Vector" d="M3.53117 17.0193C2.90366 17.0206 2.28704 16.8554 1.74429 16.5405C1.20154 16.2255 0.752125 15.7722 0.441951 15.2267C0.136525 14.685 -0.015799 14.0705 0.00129579 13.4489C0.0183906 12.8273 0.20426 12.2221 0.538995 11.6981L6.90073 1.70797C7.22634 1.17106 7.68862 0.730194 8.24036 0.430406C8.7921 0.130619 9.41353 -0.0173477 10.0412 0.00161901C10.6683 0.0166483 11.2802 0.198036 11.8143 0.52722C12.3483 0.856403 12.7853 1.32156 13.0805 1.8751C13.6736 2.99649 13.5994 4.34566 12.8891 5.39831L6.53143 15.3884C6.20902 15.8908 5.76501 16.3037 5.24054 16.5888C4.71607 16.8739 4.12811 17.0219 3.53117 17.0193V17.0193Z" fill="var(--fill-0, #F62B54)"/>
</svg>
