<svg preserveAspectRatio="none" width="100%" height="100%" overflow="visible" style="display: block;" viewBox="0 0 17.3222 12.882" fill="none" xmlns="http://www.w3.org/2000/svg">
<path id="Vector" d="M15.8322 0.511273C15.6145 0.44794 15.39 0.390364 15.1597 0.338546C14.9282 0.287879 14.691 0.24297 14.4469 0.203818C13.5925 0.0656364 12.6563 0 11.6533 0H3.18739C2.97897 0 2.78091 0.0472124 2.60357 0.132425C2.21321 0.320121 1.92303 0.689758 1.85279 1.1423L0.0518183 12.5492L0 12.882C0.118606 12.1312 0.76 11.5785 1.52115 11.5785H4.69012C10.9141 11.5785 15.7873 9.05091 17.2117 1.73879C17.2543 1.5223 17.29 1.31158 17.3222 1.10545C16.9618 0.914303 16.5715 0.750788 16.1511 0.611455C16.0475 0.576909 15.9404 0.543515 15.8322 0.511273Z" fill="var(--fill-0, #222D65)"/>
</svg>
