<svg preserveAspectRatio="none" width="100%" height="100%" overflow="visible" style="display: block;" viewBox="0 0 40.2951 42.2434" fill="none" xmlns="http://www.w3.org/2000/svg">
<path id="Vector" d="M20.1476 0C9.02028 0 0 9.45641 0 21.1217C0 32.787 9.02028 42.2434 20.1476 42.2434C31.2749 42.2434 40.2951 32.787 40.2951 21.1217C40.2951 9.45641 31.2749 0 20.1476 0ZM34.6352 21.5051C34.6336 21.5068 34.632 21.5076 34.6304 21.5093C34.6085 21.528 34.5867 21.545 34.5632 21.5619C34.5559 21.567 34.5486 21.573 34.5405 21.578C34.5252 21.5882 34.509 21.5984 34.4936 21.6077C34.479 21.6171 34.4645 21.6255 34.4499 21.634C34.4491 21.6349 34.4483 21.6349 34.4475 21.6357C34.2994 21.7172 34.1303 21.7638 33.9515 21.7638C33.9369 21.7638 24.4077 21.7638 24.4077 21.7638C24.4837 22.0955 24.5671 22.4721 24.6577 22.8818C25.1804 25.2493 26.5705 31.5392 28.0464 31.5392L28.0755 31.54L28.0917 31.5375H28.12C29.273 31.5375 29.8613 29.7901 31.1511 25.961L31.1664 25.9144C31.3736 25.2994 31.6074 24.6055 31.8607 23.8717L31.9254 23.6843H31.9262C31.9917 23.5011 32.16 23.3704 32.3583 23.3704C32.6132 23.3704 32.8203 23.5876 32.8203 23.8548C32.8203 23.9031 32.813 23.9498 32.8009 23.9939L32.7475 24.1822C32.6132 24.6377 32.4699 25.2586 32.3049 25.9771C31.5362 29.3167 30.3751 34.3622 27.3958 34.3622H27.374C25.449 34.3461 24.2968 31.1201 23.8049 29.7426C22.8849 27.1664 22.189 24.4214 21.5174 21.763H12.7318L10.908 27.8823L10.8813 27.8603C10.7146 28.1351 10.4217 28.3115 10.0989 28.3115C9.58992 28.3115 9.17321 27.8772 9.17078 27.3437L9.1724 27.3106L9.28245 26.6184C9.53409 25.0457 9.8359 23.4137 10.1806 21.7638H6.4715L6.45774 21.7494C5.78454 21.6476 5.2675 21.025 5.2675 20.2989C5.2675 19.5872 5.74813 18.9807 6.41 18.8577C6.47069 18.8492 6.59368 18.8382 6.8437 18.8382C6.8971 18.8382 6.95698 18.8382 7.02414 18.8399C8.19982 18.8611 9.44751 18.8806 10.8158 18.8992C12.752 10.6508 14.995 6.46374 17.4831 6.45187C20.1524 6.45187 22.1332 12.824 23.7183 19.0579L23.7248 19.0825C26.9816 19.1512 30.4528 19.2504 33.8277 19.504L33.9693 19.5176C34.0235 19.5185 34.0769 19.5244 34.1287 19.5329L34.1481 19.5346C34.1538 19.5354 34.1594 19.5371 34.1651 19.5388C34.1683 19.5397 34.1708 19.5405 34.174 19.5405C34.6651 19.644 35.0293 20.0953 35.0293 20.6382C35.0293 20.986 34.8755 21.299 34.6352 21.5051Z" fill="var(--fill-0, #10069F)"/>
</svg>
