<svg preserveAspectRatio="none" width="100%" height="100%" overflow="visible" style="display: block;" viewBox="0 0 78.1297 25.9987" fill="none" xmlns="http://www.w3.org/2000/svg">
<path id="Vector" d="M77.7788 10.3761H68.7227C68.5556 10.3761 68.3885 10.5265 68.3885 10.7103V14.7203C68.3885 14.8874 68.5389 15.0545 68.7227 15.0545H72.5991C72.7829 15.0545 72.9333 15.2049 72.9333 15.3887C72.8999 17.4438 72.4655 21.1699 68.7227 21.1699C65.665 21.1699 64.4286 17.4773 64.4286 13.133C64.4286 7.98674 65.6984 4.8121 68.5389 4.8121C70.6108 4.8121 71.2791 6.5665 71.4796 7.20143C71.5298 7.35181 71.6467 7.43535 71.7971 7.43535H76.5089C76.6927 7.43535 76.8598 7.26827 76.8431 7.08447C76.6593 4.51134 74.4538 0 68.6392 0C64.579 0 60.7694 2.47288 59.5497 8.58825V0.718473C59.5497 0.618221 59.4661 0.551386 59.3826 0.551386H54.4034C54.3031 0.551386 54.2363 0.63493 54.2363 0.718473V14.7872C54.2363 14.9543 54.0024 15.0044 53.9188 14.854L47.3858 0.651638C47.3523 0.584803 47.3022 0.551386 47.2354 0.551386H42.8243C42.724 0.551386 42.6572 0.63493 42.6572 0.718473V8.60496C41.0198 3.60907 36.5753 0.016709 30.7941 0.016709C24.3445 0.016709 19.5658 4.47792 18.4798 10.3928H9.4571C9.35685 10.3928 9.30672 10.4763 9.30672 10.5599V14.9041C9.30672 15.0044 9.39027 15.0712 9.4571 15.0712H13.6677C13.7679 15.0712 13.8181 15.1548 13.8181 15.2216C13.8014 17.2433 13.4505 21.1532 9.59077 21.1532C6.53308 21.1532 5.31336 17.4606 5.31336 13.1163C5.31336 7.97003 6.58321 4.79539 9.42368 4.79539C11.6125 4.79539 12.2474 6.78372 12.3978 7.30169C12.4145 7.38523 12.4814 7.43535 12.5482 7.43535H17.5608C17.6611 7.43535 17.7279 7.35181 17.7112 7.26827C17.6109 4.72855 15.4388 0.016709 9.49052 0.016709C4.56147 0.016709 0 3.67591 0 13.0829C0 19.5658 2.53972 25.9485 9.57406 25.9485C14.7872 25.9485 18.1122 21.9218 18.8474 17.0763C20.418 22.2392 24.9126 25.9485 30.7941 25.9485C36.475 25.9485 41.0031 22.3395 42.6572 17.3102V25.2802C42.6572 25.3805 42.7408 25.4473 42.8243 25.4473H47.8035C47.9037 25.4473 47.9706 25.3637 47.9706 25.2802V11.4454C47.9706 11.2783 48.2045 11.2282 48.288 11.3786L54.8211 25.3637C54.8545 25.4306 54.9047 25.464 54.9715 25.464H59.3826C59.4828 25.464 59.5497 25.3805 59.5497 25.3136V17.4104C60.5188 22.1557 63.259 25.9987 68.706 25.9987C74.6376 25.9987 78.1297 20.7689 78.1297 15.0545V10.7771C78.113 10.5097 77.9626 10.3761 77.7788 10.3761ZM30.7774 20.7522C26.5835 20.7522 23.6762 17.5274 23.6762 12.9826C23.6762 8.42117 26.5835 5.2131 30.7774 5.2131C34.9545 5.2131 37.8785 8.43787 37.8785 12.9826C37.8785 17.5274 34.9545 20.7522 30.7774 20.7522Z" fill="var(--fill-0, #3E0075)"/>
</svg>
