<svg preserveAspectRatio="none" width="100%" height="100%" overflow="visible" style="display: block;" viewBox="0 0 153.319 19.9766" fill="none" xmlns="http://www.w3.org/2000/svg">
<g id="Vector">
<path d="M131.031 7.92461V19.9766H134.883V11.942H148.972V19.9766H152.824V7.92461H131.031ZM134.443 4.01734H149.302C151.393 3.63211 152.879 1.76103 153.319 0H130.426C130.866 1.76103 132.407 3.57708 134.443 4.01734ZM119.309 19.9766C121.235 19.1511 122.281 17.7203 122.721 16.0694H105.386V0.055032H101.479V19.9766H119.309ZM72.5872 3.96231H86.3452C88.4364 3.35695 90.1424 1.76103 90.5827 0.055032H68.79V11.8319H86.6204V15.9593H72.6423C70.441 16.5646 68.5699 18.0505 67.6343 19.9766H90.4726V7.92461H72.6423L72.5872 3.96231ZM38.6875 4.01734H53.5462C55.6374 3.63211 57.1783 1.76103 57.5635 0H34.6151C35.0554 1.76103 36.5963 3.57708 38.6875 4.01734ZM38.6875 11.8869H53.5462C55.6374 11.5017 57.1783 9.63061 57.5635 7.86958H34.6151C35.0554 9.63061 36.5963 11.4467 38.6875 11.8869ZM38.6875 19.9766H53.5462C55.6374 19.5914 57.1783 17.7203 57.5635 15.9593H34.6151C35.0554 17.7203 36.5963 19.5914 38.6875 19.9766Z" fill="#5E5E5E"/>
<path d="M0 0.055032C0.440256 1.81606 1.98115 3.57708 4.01734 4.01734H10.291L10.6212 4.1274V19.9216H14.5285V4.1274L14.8586 4.01734H21.1323C23.2235 3.46702 24.7094 1.81606 25.1496 0.055032V7.45058e-09L0 0.055032Z" fill="#5E5E5E"/>
</g>
</svg>
