<svg preserveAspectRatio="none" width="100%" height="100%" overflow="visible" style="display: block;" viewBox="0 0 76.8128 28.9991" fill="none" xmlns="http://www.w3.org/2000/svg">
<path id="Vector" d="M40.6417 10.2316C40.793 10.071 40.9745 9.94201 41.1759 9.85196C41.3773 9.7619 41.5945 9.71258 41.815 9.70683C42.0355 9.70109 42.255 9.73904 42.4608 9.8185C42.6665 9.89795 42.8546 10.0173 43.014 10.1698C43.1735 10.3222 43.3012 10.5047 43.3898 10.7067C43.4784 10.9087 43.5261 11.1263 43.5303 11.3469C43.5344 11.5674 43.4949 11.7866 43.4139 11.9918C43.333 12.197 43.2122 12.3842 43.0587 12.5425C42.7513 12.8593 42.3312 13.0417 41.89 13.05C41.4487 13.0583 41.022 12.8918 40.703 12.5868C40.384 12.2818 40.1985 11.863 40.1871 11.4218C40.1756 10.9806 40.339 10.5528 40.6417 10.2316V10.2316ZM50.2217 24.9427C50.1772 23.654 49.7957 22.2928 48.8224 21.3938C47.7358 20.3906 46.1635 19.9303 44.7017 19.9303H38.1857C37.5423 19.9303 36.9732 19.4499 36.9732 18.8573C36.9732 18.3679 37.3049 17.9419 37.7779 17.8196C37.7761 17.8187 37.8894 17.7906 38.009 17.7516C39.1981 18.2997 40.4942 18.5765 41.8035 18.5618C43.8127 18.5618 45.8254 17.9746 47.2999 16.6043C48.7363 15.2694 49.4069 13.4034 49.4069 11.4931C49.4069 9.58269 48.7363 7.71853 47.2999 6.38453C46.881 5.9959 46.4141 5.66241 45.9106 5.39219C47.2945 5.71119 48.7227 5.31606 49.7051 3.63044L46.9365 1.65209L44.6283 4.84934C43.7143 4.56279 42.7614 4.41972 41.8035 4.42522C39.7952 4.42522 37.7807 5.01247 36.3062 6.38272C34.8707 7.71763 34.201 9.58359 34.201 11.4922C34.201 13.4007 34.8707 15.2685 36.3062 16.6034C36.4322 16.7185 36.5599 16.8282 36.6932 16.9333L36.4231 17.0756C35.7465 17.4631 35.1323 17.9507 34.6015 18.5219C33.6917 19.4853 32.7818 20.928 32.7818 22.8484C32.7818 22.8484 32.6549 26.9446 37.3855 26.9446H40.8121C41.6005 26.9446 42.4052 27.4431 42.4052 28.227C42.4052 28.5016 42.3255 28.7698 42.176 28.9991H48.73C49.7175 27.8811 50.2498 26.4333 50.2217 24.9418V24.9427ZM57.2723 10.2298C57.5078 10.0039 57.8045 9.85232 58.1255 9.79372C58.4464 9.73513 58.7775 9.77214 59.0777 9.90017C59.3778 10.0282 59.6336 10.2416 59.8135 10.5138C59.9933 10.7861 60.0892 11.1052 60.0892 11.4314C60.0892 11.7577 59.9933 12.0768 59.8135 12.349C59.6336 12.6213 59.3778 12.8347 59.0777 12.9627C58.7775 13.0907 58.4464 13.1277 58.1255 13.0692C57.8045 13.0106 57.5078 12.8589 57.2723 12.6331C56.975 12.3035 56.8105 11.8753 56.8105 11.4314C56.8105 10.9875 56.975 10.5594 57.2723 10.2298V10.2298ZM68.8813 24.9418C68.8378 23.6531 68.4554 22.2919 67.483 21.3929C66.3955 20.3897 64.8232 19.9293 63.3632 19.9293L55.7996 19.875C55.322 19.875 54.9586 19.5777 54.9586 19.1373C54.9586 18.7748 55.139 18.2347 55.5966 18.1449C56.5011 18.4259 57.4427 18.5654 58.3897 18.5609C60.3997 18.5609 62.4134 17.9737 63.887 16.6034C65.3225 15.2685 65.9931 13.4025 65.9931 11.4922C65.9931 9.58178 65.3225 7.71763 63.887 6.38363C63.4678 5.99525 63.0006 5.66207 62.4968 5.39219C63.8807 5.71119 65.3089 5.31606 66.2913 3.63044L63.5245 1.65209L61.2145 4.84934C60.3005 4.56279 59.3475 4.41972 58.3897 4.42522C56.3814 4.42522 54.3668 5.01247 52.8924 6.38272C51.4587 7.71763 50.7872 9.58359 50.7872 11.4922C50.7872 13.4007 51.4578 15.2685 52.8924 16.6034C53.3138 16.9931 53.7841 17.3266 54.2907 17.5967C53.9228 17.8758 53.5793 18.1857 53.263 18.521C52.3513 19.4853 51.4415 20.928 51.4415 22.8484C51.4415 22.8484 51.3155 26.9446 56.0461 26.9446H59.4727C60.262 26.9446 61.064 27.4431 61.064 28.227C61.064 28.5016 60.9861 28.7689 60.8366 28.9991H67.3897C68.3778 27.8814 68.9102 26.4334 68.8813 24.9418V24.9418ZM76.8128 22.8393V16.7258C75.4 16.9043 74.9097 15.9128 74.9097 14.9305V0H67.908V16.047C67.908 18.0389 68.2071 19.701 68.9294 20.7477C70.0386 22.3391 71.5421 23.3803 74.53 23.3939C75.081 23.3686 76.0017 23.2607 76.8128 22.8411V22.8393ZM25.2789 15.4044C24.9167 15.8045 24.4258 16.0653 23.8915 16.1414C23.3571 16.2176 22.813 16.1044 22.3533 15.8215C21.8937 15.5385 21.5475 15.1037 21.3749 14.5923C21.2022 14.0809 21.2139 13.5252 21.408 13.0216C21.602 12.5179 21.9662 12.098 22.4373 11.8347C22.9085 11.5714 23.4569 11.4812 23.9876 11.5798C24.5182 11.6784 24.9977 11.9596 25.3428 12.3746C25.6879 12.7896 25.8769 13.3123 25.8771 13.852C25.891 14.4283 25.6759 14.9865 25.2789 15.4044V15.4044ZM30.4962 7.09413C28.6882 5.25897 26.2196 4.47416 23.7573 4.47416C21.2942 4.47416 18.8237 5.25897 17.0167 7.09413C15.2558 8.88034 14.4338 11.378 14.4338 13.9327C14.4338 16.4883 15.2558 18.9868 17.0167 20.7731C18.8228 22.6073 21.2923 23.393 23.7573 23.393C26.2214 23.393 28.6882 22.6073 30.4962 20.774C32.2562 18.9868 33.079 16.4892 33.079 13.9327C33.079 11.3771 32.2562 8.88034 30.4962 7.09413V7.09413ZM11.8238 16.7511C10.6593 16.7511 10.1835 16.3959 9.75306 15.8521C9.47303 15.4969 9.33437 14.9749 9.33437 14.2979V11.1324H13.243V5.45925H9.33437V0H4.34094V2.04178C4.34094 4.30197 2.60819 6.13441 0.473062 6.13441C0.314915 6.13402 0.156937 6.12404 0 6.1045L0 11.1324H2.62269V16.1865C2.62269 18.1767 2.98337 19.7082 3.70475 20.7531C4.81944 22.3499 6.05375 23.393 9.07066 23.393C10.8197 23.393 12.2824 22.9943 13.243 22.4614V16.5164C12.7878 16.6787 12.3071 16.7582 11.8238 16.7511" fill="var(--fill-0, black)"/>
</svg>
