<svg preserveAspectRatio="none" width="100%" height="100%" overflow="visible" style="display: block;" viewBox="0 0 15.457 22.7435" fill="none" xmlns="http://www.w3.org/2000/svg">
<path id="Vector" d="M15.457 7.8973C15.457 12.2879 12.2633 15.7624 8.2856 15.7624C6.65842 15.7624 5.3023 15.3204 4.18811 14.5621V22.7435H0V0.315553H4.18811V1.20029C5.30311 0.441943 6.65923 0 8.2856 0C12.2625 0.00084826 15.457 3.44394 15.457 7.8973ZM11.3288 7.8973C11.3288 5.6545 9.76229 3.69587 7.59217 3.69587C6.35662 3.69587 5.12105 4.13781 4.1873 5.46449V10.2979C5.12105 11.5932 6.35662 12.0351 7.59217 12.0351C9.76148 12.036 11.3288 10.1087 11.3288 7.8973Z" fill="var(--fill-0, #10069F)"/>
</svg>
