<svg preserveAspectRatio="none" width="100%" height="100%" overflow="visible" style="display: block;" viewBox="0 0 116.744 44" fill="none" xmlns="http://www.w3.org/2000/svg">
<g id="Vector">
<path d="M61.3974 15.0814C60.4243 14.2641 58.7508 13.8554 56.3766 13.8554H51.0444V30.3384H55.0338V25.1619H56.8242C58.9843 25.1619 60.58 24.6754 61.592 23.7218C62.7401 22.6515 63.3045 21.2309 63.3045 19.4405C63.3045 17.6113 62.6623 16.1517 61.3974 15.0814ZM56.7074 21.4255H55.0144V17.5723H56.5323C58.381 17.5723 59.2956 18.2145 59.2956 19.5184C59.3151 20.7833 58.4394 21.4255 56.7074 21.4255ZM70.1156 13.8359H65.9706V30.3189H74.9418V26.5825H70.1156V13.8359ZM83.0957 13.8359L76.557 30.3189H81.0329L81.8892 27.9253H87.5716L88.35 30.3189H92.8843L86.404 13.8359H83.0957ZM83.0374 24.5976L84.7499 18.954L86.4429 24.5976H83.0374Z" fill="#111111"/>
<path d="M94.9668 30.3193H99.1314V13.8364H94.9668V30.3193ZM115.264 16.9306C114.739 16.1716 114.057 15.5294 113.279 15.0234C112.014 14.2256 110.302 13.8364 108.142 13.8364H102.654V30.3193H109.056C111.372 30.3193 113.24 29.5604 114.641 28.0425C116.042 26.5245 116.743 24.5201 116.743 22.0097C116.762 20.0248 116.257 18.3317 115.264 16.9306ZM108.609 26.5829H106.838V17.5728H108.647C109.912 17.5728 110.905 17.962 111.586 18.7598C112.267 19.5577 112.617 20.6864 112.617 22.146C112.598 25.1039 111.275 26.5829 108.609 26.5829ZM17.2614 0L3.77532 3.52234L0.0583811 17.0862L4.72888 21.854L0 26.544L3.50287 40.1663L16.9306 43.9222L21.6594 39.2322L26.3105 44L39.7965 40.4777L43.5135 26.9138L38.8624 22.146L43.5913 17.456L40.0885 3.8337L26.6608 0.0778434L21.9319 4.7678L17.2614 0ZM8.99071 6.13003L16.0938 4.26183L19.2074 7.45334L14.6732 11.9487L8.99071 6.13003ZM24.5785 7.51172L27.7311 4.37859L34.7952 6.36356L29.0155 12.1044C29.0349 12.0849 24.5785 7.51172 24.5785 7.51172ZM4.32021 15.977L6.28571 8.83503L11.9682 14.6537L7.43388 19.1491L4.32021 15.977ZM31.701 14.8288L37.4808 9.08801L39.3295 16.2689L36.1769 19.402C36.1574 19.402 31.701 14.8288 31.701 14.8288ZM17.3392 14.7121L21.8735 10.2167L26.3299 14.7899L21.7957 19.2853L17.3392 14.7121ZM10.1 21.893L14.6342 17.3976L19.0907 21.9708L14.5564 26.4662L10.1 21.893ZM24.4617 22.0097L28.996 17.5144L33.4524 22.0876L28.9182 26.5829C28.9182 26.6024 24.4617 22.0097 24.4617 22.0097ZM4.24237 27.7311L7.39496 24.598L11.8514 29.1712L6.09111 34.912C6.07165 34.912 4.24237 27.7311 4.24237 27.7311ZM17.2225 29.2101L21.7567 24.7147L26.2132 29.2879L21.6789 33.7833L17.2225 29.2101ZM31.5843 29.3268L36.1185 24.8315L39.2322 28.023L37.2862 35.165C37.2667 35.165 31.5843 29.3268 31.5843 29.3268ZM8.73773 37.6364L14.498 31.8956L18.9544 36.4688L15.8019 39.6019L8.73773 37.6364ZM24.345 36.5272L28.8793 32.0318L34.5617 37.8505L27.4586 39.7187L24.345 36.5272Z" fill="#111111"/>
</g>
</svg>
