<svg preserveAspectRatio="none" width="100%" height="100%" overflow="visible" style="display: block;" viewBox="0 0 228.668 28" fill="none" xmlns="http://www.w3.org/2000/svg">
<g id="logo-layer">
<path id="Vector" d="M12.444 14.584L24.888 26.834H0L12.444 14.584Z" fill="var(--fill-0, #FF2638)"/>
<path id="Vector_2" d="M0 2.33398L12.444 14.584L24.888 2.33398H0Z" fill="var(--fill-0, #FFC600)"/>
<path id="Vector_3" d="M12.4458 14.584L24.8898 26.834L37.3338 14.584L24.8898 2.33398L12.4458 14.584Z" fill="var(--fill-0, #0079F2)"/>
<path id="Vector_4" d="M225.204 8.14C225.204 8.318 224.958 8.396 224.842 8.26C223.932 7.202 222.428 6.4 220.37 6.4C215.916 6.4 213.384 9.996 213.384 14.35C213.384 18.676 215.916 22.27 220.37 22.27C222.456 22.27 224.086 21.54 225.098 20.28C225.212 20.14 225.466 20.216 225.466 20.396V21.742C225.466 21.842 225.546 21.922 225.644 21.922H228.488C228.588 21.922 228.668 21.842 228.668 21.742V0.18C228.668 0.132261 228.649 0.0864773 228.615 0.0527208C228.581 0.0189642 228.536 0 228.488 0L225.382 0C225.335 0.000526605 225.289 0.0197231 225.256 0.0534227C225.223 0.0871223 225.204 0.132606 225.204 0.18V8.14ZM225.348 14.35C225.348 17.07 223.748 19.202 221.098 19.202C218.478 19.202 216.848 17.068 216.848 14.35C216.848 11.574 218.478 9.47 221.098 9.47C223.748 9.47 225.348 11.574 225.348 14.35ZM212.52 6.8C212.52 6.75512 212.503 6.71184 212.473 6.67884C212.442 6.64583 212.401 6.62553 212.356 6.622C212.245 6.6135 212.135 6.60817 212.024 6.606C209.884 6.606 208.638 7.464 207.952 8.304C207.836 8.444 207.57 8.368 207.57 8.184V6.93C207.57 6.88261 207.551 6.83712 207.518 6.80342C207.485 6.76972 207.439 6.75053 207.392 6.75H204.546C204.499 6.75053 204.453 6.76972 204.42 6.80342C204.387 6.83712 204.368 6.88261 204.368 6.93V21.742C204.368 21.842 204.448 21.922 204.546 21.922H207.654C207.701 21.9215 207.747 21.9023 207.78 21.8686C207.813 21.8349 207.832 21.7894 207.832 21.742V14.03C207.832 11.106 209.288 9.82 211.734 9.82C211.942 9.82 212.162 9.84 212.314 9.854C212.34 9.85677 212.365 9.85422 212.39 9.8465C212.414 9.83878 212.437 9.82606 212.456 9.80915C212.476 9.79224 212.491 9.77149 212.502 9.74823C212.513 9.72497 212.519 9.6997 212.52 9.674V6.8ZM197.85 14.82C197.876 14.8163 197.902 14.8181 197.926 14.8253C197.951 14.8325 197.974 14.845 197.994 14.8619C198.013 14.8788 198.029 14.8997 198.04 14.9232C198.05 14.9467 198.056 14.9722 198.056 14.998V15.754C198.056 17.8 196.688 19.554 193.892 19.554C192.232 19.554 191.212 18.998 191.212 17.566C191.212 16.514 191.912 15.726 194.038 15.402L197.85 14.822V14.82ZM193.194 22.272C195.348 22.272 196.968 21.644 198.018 20.412C198.132 20.276 198.382 20.352 198.39 20.532C198.432 21.402 198.556 21.92 198.58 21.92H201.598C201.726 21.92 201.816 21.788 201.776 21.666C201.566 21.002 201.432 19.926 201.432 19.056V12.07C201.432 8.592 199.336 6.4 194.912 6.4C190.454 6.4 188.628 8.736 188.268 11.318C188.265 11.3428 188.268 11.368 188.275 11.3918C188.283 11.4156 188.295 11.4376 188.312 11.4563C188.328 11.4749 188.349 11.4899 188.372 11.5002C188.394 11.5105 188.419 11.5159 188.444 11.516H191.47C191.558 11.516 191.63 11.452 191.65 11.366C191.932 10.052 193 9.266 194.824 9.266C196.89 9.266 198.056 10.2 198.056 12.042V12.12C198.056 12.1632 198.04 12.205 198.012 12.2377C197.984 12.2703 197.945 12.2918 197.902 12.298L193.688 12.89C189.7 13.444 187.896 15.11 187.896 17.682C187.896 20.282 189.438 22.272 193.194 22.272V22.272ZM178.726 22.272C183.558 22.272 186.586 18.618 186.586 14.352C186.586 10.084 183.558 6.4 178.726 6.4C173.922 6.4 170.896 10.084 170.896 14.35C170.896 18.618 173.922 22.27 178.726 22.27V22.272ZM174.36 14.352C174.36 11.398 176.222 9.47 178.726 9.47C181.26 9.47 183.122 11.398 183.122 14.35C183.122 17.274 181.26 19.202 178.726 19.202C176.222 19.202 174.36 17.274 174.36 14.35V14.352ZM158.138 8.26C158.022 8.396 157.778 8.318 157.778 8.14V0.18C157.778 0.132261 157.759 0.0864773 157.725 0.0527208C157.691 0.0189642 157.646 0 157.598 0L154.492 0C154.444 0 154.398 0.0189642 154.365 0.0527208C154.331 0.0864773 154.312 0.132261 154.312 0.18V21.74C154.312 21.84 154.392 21.92 154.492 21.92H157.336C157.436 21.92 157.516 21.84 157.516 21.74V20.38C157.516 20.2 157.764 20.124 157.876 20.264C158.91 21.534 160.542 22.272 162.61 22.272C167.092 22.272 169.626 18.676 169.626 14.352C169.626 9.996 167.092 6.4 162.61 6.4C160.576 6.4 159.054 7.202 158.138 8.26V8.26ZM157.66 14.35C157.66 11.574 159.26 9.47 161.91 9.47C164.53 9.47 166.162 11.574 166.162 14.35C166.162 17.07 164.53 19.202 161.91 19.202C159.262 19.202 157.66 17.068 157.66 14.35V14.35ZM151.37 19.062C151.369 19.0339 151.362 19.0063 151.349 18.9812C151.337 18.9561 151.319 18.9341 151.297 18.9167C151.274 18.8993 151.249 18.8871 151.221 18.8807C151.194 18.8744 151.165 18.8741 151.138 18.88C150.938 18.92 150.63 18.97 150.294 18.97C149.1 18.97 148.606 18.384 148.606 17.186V9.706C148.606 9.65861 148.626 9.61334 148.659 9.58001C148.693 9.54669 148.739 9.528 148.786 9.528H151.25C151.35 9.528 151.43 9.448 151.43 9.348V6.934C151.43 6.88626 151.411 6.84048 151.377 6.80672C151.343 6.77296 151.298 6.754 151.25 6.754H148.784C148.76 6.754 148.737 6.74934 148.715 6.7403C148.693 6.73125 148.673 6.71799 148.657 6.70128C148.64 6.68456 148.627 6.66472 148.618 6.64288C148.609 6.62104 148.604 6.59764 148.604 6.574V2.988C148.604 2.94061 148.585 2.89512 148.552 2.86142C148.519 2.82772 148.473 2.80853 148.426 2.808H145.32C145.272 2.808 145.226 2.82696 145.193 2.86072C145.159 2.89448 145.14 2.94026 145.14 2.988V6.576C145.14 6.59964 145.135 6.62304 145.126 6.64488C145.117 6.66672 145.104 6.68656 145.087 6.70328C145.071 6.71999 145.051 6.73325 145.029 6.7423C145.007 6.75134 144.984 6.756 144.96 6.756H143.02C142.973 6.756 142.927 6.77469 142.893 6.80801C142.86 6.84134 142.84 6.88661 142.84 6.934V9.352C142.84 9.452 142.92 9.532 143.02 9.532H144.96C145.06 9.532 145.14 9.612 145.14 9.71V17.54C145.14 20.404 146.48 22.012 149.566 22.012C150.422 22.012 150.994 21.916 151.238 21.866C151.276 21.8577 151.31 21.8363 151.334 21.8057C151.358 21.775 151.371 21.737 151.37 21.698V19.062V19.062ZM126.934 14.35C126.934 18.734 130.02 22.27 134.474 22.27C138.846 22.27 141.114 19.298 141.602 16.63C141.606 16.6048 141.605 16.5789 141.598 16.5542C141.592 16.5295 141.58 16.5066 141.563 16.4871C141.546 16.4676 141.526 16.452 141.502 16.4414C141.479 16.4309 141.454 16.4256 141.428 16.426H138.224C138.184 16.4264 138.145 16.4398 138.113 16.4644C138.081 16.489 138.058 16.5232 138.048 16.562C137.6 18.124 136.256 19.202 134.444 19.202C131.97 19.202 130.398 17.186 130.398 14.35C130.398 11.486 131.97 9.47 134.444 9.47C136.256 9.47 137.6 10.548 138.048 12.11C138.07 12.19 138.142 12.246 138.224 12.246H141.428C141.454 12.2464 141.479 12.2411 141.502 12.2306C141.526 12.22 141.546 12.2044 141.563 12.1849C141.58 12.1655 141.592 12.1425 141.598 12.1178C141.605 12.0931 141.606 12.0672 141.602 12.042C141.114 9.374 138.846 6.402 134.474 6.402C130.02 6.402 126.934 9.938 126.934 14.35V14.35ZM121.1 15.49C121.1 17.974 119.762 19.29 117.608 19.29C115.512 19.29 114.668 17.916 114.668 15.842V6.93C114.668 6.88226 114.649 6.83648 114.615 6.80272C114.581 6.76896 114.536 6.75 114.488 6.75H111.382C111.334 6.75 111.288 6.76896 111.255 6.80272C111.221 6.83648 111.202 6.88226 111.202 6.93V16.31C111.202 19.846 113.096 22.27 116.762 22.27C118.798 22.27 120.188 21.504 120.966 20.554C121.084 20.41 121.364 20.492 121.364 20.678V21.742C121.364 21.842 121.444 21.922 121.544 21.922H124.386C124.486 21.922 124.566 21.842 124.566 21.742V6.93C124.566 6.88226 124.547 6.83648 124.513 6.80272C124.479 6.76896 124.434 6.75 124.386 6.75H121.28C121.232 6.75 121.186 6.76896 121.153 6.80272C121.119 6.83648 121.1 6.88226 121.1 6.93V15.49ZM105.08 8.14C105.08 8.318 104.834 8.396 104.718 8.26C103.808 7.202 102.304 6.4 100.246 6.4C95.792 6.4 93.258 9.996 93.258 14.35C93.258 18.676 95.792 22.27 100.246 22.27C102.33 22.27 103.96 21.54 104.974 20.28C105.088 20.14 105.34 20.216 105.34 20.396V21.742C105.34 21.842 105.42 21.922 105.52 21.922H108.364C108.464 21.922 108.544 21.842 108.544 21.742V0.18C108.544 0.132261 108.525 0.0864773 108.491 0.0527208C108.457 0.0189642 108.412 0 108.364 0L105.258 0C105.21 0 105.164 0.0189642 105.131 0.0527208C105.097 0.0864773 105.078 0.132261 105.078 0.18V8.14H105.08ZM105.224 14.35C105.224 17.07 103.624 19.202 100.974 19.202C98.354 19.202 96.722 17.068 96.722 14.35C96.722 11.574 98.354 9.47 100.974 9.47C103.622 9.47 105.224 11.574 105.224 14.35ZM84 22.272C88.834 22.272 91.86 18.618 91.86 14.352C91.86 10.082 88.836 6.4 84 6.4C79.198 6.4 76.17 10.084 76.17 14.35C76.17 18.618 79.198 22.27 84 22.27V22.272ZM79.634 14.352C79.634 11.398 81.496 9.47 84 9.47C86.534 9.47 88.396 11.398 88.396 14.35C88.396 17.274 86.534 19.202 84 19.202C81.496 19.202 79.634 17.274 79.634 14.35V14.352ZM75.772 6.8C75.7721 6.75512 75.7553 6.71184 75.7249 6.67884C75.6945 6.64583 75.6527 6.62553 75.608 6.622C75.4981 6.6135 75.3881 6.60817 75.278 6.606C73.138 6.606 71.89 7.464 71.204 8.304C71.088 8.444 70.824 8.368 70.824 8.184V6.93C70.824 6.88226 70.805 6.83648 70.7712 6.80272C70.7375 6.76896 70.6917 6.75 70.644 6.75H67.8C67.7522 6.75 67.7064 6.76896 67.6727 6.80272C67.6389 6.83648 67.62 6.88226 67.62 6.93V21.742C67.62 21.842 67.7 21.922 67.8 21.922H70.906C71.006 21.922 71.086 21.842 71.086 21.742V14.03C71.086 11.106 72.54 9.82 74.986 9.82C75.196 9.82 75.414 9.84 75.566 9.854C75.5915 9.85677 75.6174 9.85422 75.6419 9.8465C75.6664 9.83878 75.6891 9.82606 75.7084 9.80915C75.7278 9.79224 75.7434 9.77149 75.7544 9.74823C75.7653 9.72497 75.7713 9.6997 75.772 9.674V6.8ZM53.632 20.544C53.632 20.364 53.88 20.286 53.998 20.424C54.912 21.494 56.434 22.272 58.466 22.272C62.948 22.272 65.482 18.676 65.482 14.352C65.482 9.996 62.948 6.4 58.466 6.4C56.396 6.4 54.764 7.162 53.73 8.42C53.618 8.558 53.37 8.48 53.37 8.3V6.93C53.37 6.88226 53.351 6.83648 53.3172 6.80272C53.2835 6.76896 53.2377 6.75 53.19 6.75H50.348C50.3002 6.75 50.2544 6.76896 50.2207 6.80272C50.1869 6.83648 50.168 6.88226 50.168 6.93V27.82C50.168 27.92 50.248 28 50.348 28H53.454C53.554 28 53.634 27.92 53.634 27.82V20.544H53.632ZM53.516 14.35C53.516 11.544 55.116 9.41 57.766 9.41C60.386 9.41 62.018 11.544 62.018 14.35C62.018 17.07 60.386 19.202 57.766 19.202C55.118 19.202 53.516 17.068 53.516 14.35Z" fill="var(--fill-0, #000C2C)"/>
</g>
</svg>
