<svg preserveAspectRatio="none" width="100%" height="100%" overflow="visible" style="display: block;" viewBox="0 0 8.09661 8.09661" fill="none" xmlns="http://www.w3.org/2000/svg">
<path id="Vector" d="M7.6468 4.0483C7.6468 3.09393 7.26767 2.17863 6.59282 1.50379C5.91798 0.828937 5.00268 0.449812 4.0483 0.449812C3.09392 0.449812 2.17863 0.828937 1.50378 1.50379C0.828935 2.17863 0.449812 3.09393 0.449812 4.0483C0.449812 5.00268 0.828935 5.91797 1.50378 6.59282C2.17863 7.26767 3.09392 7.6468 4.0483 7.6468C5.00268 7.6468 5.91798 7.26767 6.59282 6.59282C7.26767 5.91797 7.6468 5.00268 7.6468 4.0483ZM8.09661 4.0483C8.09661 5.12198 7.67009 6.15168 6.91088 6.91089C6.15168 7.67009 5.12198 8.09661 4.0483 8.09661C2.97463 8.09661 1.94492 7.67009 1.18572 6.91089C0.426513 6.15168 0 5.12198 0 4.0483C0 2.97463 0.426513 1.94493 1.18572 1.18572C1.94492 0.426517 2.97463 0 4.0483 0C5.12198 0 6.15168 0.426517 6.91088 1.18572C7.67009 1.94493 8.09661 2.97463 8.09661 4.0483V4.0483Z" fill="var(--fill-0, white)"/>
</svg>
