<svg preserveAspectRatio="none" width="100%" height="100%" overflow="visible" style="display: block;" viewBox="0 0 131.496 32.9635" fill="none" xmlns="http://www.w3.org/2000/svg">
<path id="Vector" d="M27.4553 0H5.50829C2.4658 0 0 2.4658 0 5.50829V27.4553C0 30.4977 2.4658 32.9635 5.50829 32.9635H27.4553C30.4977 32.9635 32.9635 30.4977 32.9635 27.4553V5.50829C32.9635 2.4658 30.4977 0 27.4553 0ZM26.9714 25.2314C26.9714 26.1925 26.1925 26.9714 25.2314 26.9714H7.73215C6.77102 26.9714 5.99217 26.1925 5.99217 25.2314V7.73215C5.99217 6.77102 6.77102 5.99217 7.73215 5.99217H25.2314C26.1925 5.99217 26.9714 6.77102 26.9714 7.73215V25.2314ZM12.9852 20.956C12.4318 20.956 11.9876 20.5086 11.9876 19.9551V12.9687C11.9876 12.4152 12.4318 11.9644 12.9852 11.9644H19.9816C20.5318 11.9644 20.9792 12.4119 20.9792 12.9687V19.9518C20.9792 20.5053 20.5318 20.9527 19.9816 20.9527H12.9852V20.956ZM41.7032 20.4788H45.3025C45.4815 22.517 46.8635 24.1079 49.6508 24.1079C52.1398 24.1079 53.671 22.8783 53.671 21.019C53.671 19.279 52.4712 18.5001 50.3103 17.9898L47.5197 17.3899C44.4905 16.7303 42.2103 14.7816 42.2103 11.5999C42.2103 8.09009 45.329 5.69057 49.379 5.69057C53.6677 5.69057 56.4284 7.94095 56.6671 11.2685H53.1871C52.7728 9.71076 51.4803 8.78277 49.3823 8.78277C47.1618 8.78277 45.6339 9.98252 45.6339 11.5137C45.6339 13.0449 46.953 13.9729 49.2332 14.4833L51.994 15.0832C55.0232 15.7427 57.0913 17.5722 57.0913 20.7804C57.0913 24.8602 54.0322 27.2895 49.6541 27.2895C44.7325 27.2862 42.0048 24.6183 41.7032 20.4788ZM69.9672 32.9635V26.9946L70.2025 24.3763H69.9672C69.1419 26.2588 67.4086 27.2895 65.0554 27.2895C61.2606 27.2895 58.4369 24.2007 58.4369 19.4646C58.4369 14.7285 61.2606 11.6397 65.0554 11.6397C67.3787 11.6397 69.0259 12.7267 69.9672 14.4336H70.2025V11.9313H73.3212V32.9635H69.9672ZM70.0832 19.4613C70.0832 16.4321 68.2305 14.6656 65.9635 14.6656C63.6966 14.6656 61.8439 16.4321 61.8439 19.4613C61.8439 22.4905 63.6966 24.257 65.9635 24.257C68.2305 24.257 70.0832 22.4938 70.0832 19.4613ZM75.8102 21.0223V11.9313H79.1642V20.7273C79.1642 23.1103 80.3109 24.257 82.2233 24.257C84.5764 24.257 86.1076 22.58 86.1076 19.9617V11.9313H89.4616V26.9913H86.3429V23.8726H86.1076C85.3718 25.8744 83.7544 27.2862 81.2555 27.2862C77.6629 27.2862 75.8102 24.9928 75.8102 21.0223ZM91.5032 22.7855C91.5032 19.9617 93.4751 18.3146 96.975 18.1091L101.121 17.8439V16.6674C101.121 15.2555 100.09 14.4037 98.2676 14.4037C96.5905 14.4037 95.5896 15.2555 95.3245 16.4619H91.9705C92.3251 13.4028 94.8539 11.6363 98.2642 11.6363C102.119 11.6363 104.472 13.2835 104.472 16.4619V26.9913H101.353V24.1973H101.118C100.412 26.05 98.9404 27.2862 96.1166 27.2862C93.4155 27.2862 91.5032 25.4634 91.5032 22.7855ZM101.124 20.9328V20.1374L97.7406 20.3727C95.9178 20.4887 95.0925 21.1681 95.0925 22.5203C95.0925 23.6671 96.0338 24.4923 97.3561 24.4923C99.7424 24.4923 101.124 22.9644 101.124 20.9328ZM106.974 26.9946V11.9313H110.093V14.8147H110.328C110.769 12.8427 112.27 11.9313 114.504 11.9313H116.035V14.9605H114.123C111.945 14.9605 110.328 16.3724 110.328 19.0503V26.9913H106.974V26.9946ZM131.38 20.081H119.936C120.112 22.8451 122.054 24.4061 124.202 24.4061C126.024 24.4061 127.171 23.6704 127.821 22.4342H131.145C130.234 25.4932 127.556 27.2862 124.172 27.2862C119.731 27.2862 116.612 23.962 116.612 19.4613C116.612 14.9605 119.817 11.6363 124.202 11.6363C128.613 11.6363 131.496 14.6656 131.496 18.4305C131.5 19.1696 131.44 19.5508 131.38 20.081ZM128.175 17.7578C128.059 15.6698 126.323 14.2579 124.205 14.2579C122.203 14.2579 120.529 15.524 120.115 17.7578H128.175Z" fill="var(--fill-0, #1A1A1A)"/>
</svg>
