<svg preserveAspectRatio="none" width="100%" height="100%" overflow="visible" style="display: block;" viewBox="0 0 24.2786 24.7178" fill="none" xmlns="http://www.w3.org/2000/svg">
<path id="Vector" fill-rule="evenodd" clip-rule="evenodd" d="M15.1231 16.8775C15.2472 17.5645 15.8958 18.0358 16.5975 18.0358H18.8048L20.0842 17.8585C18.0365 20.8518 14.4819 22.2287 10.5948 21.6215C7.43017 21.1266 4.71172 18.9917 3.56377 16.0118C0.960561 9.24667 5.91729 2.78888 12.378 2.78888C15.7451 2.78888 18.6969 4.75237 20.3901 7.12362C20.8392 7.76925 21.7316 8.00564 22.3801 7.55798C22.6748 7.35844 22.8826 7.05443 22.9616 6.70746C23.0406 6.36049 22.9848 5.99648 22.8056 5.68905C21.6056 3.8203 19.9249 2.30887 17.9397 1.31328C15.9545 0.317688 13.738 -0.125379 11.5226 0.0305446C5.36178 0.442744 0.375503 5.46744 0.0209234 11.6105C-0.389798 18.7612 5.29973 24.597 12.378 24.597C14.1429 24.6043 15.8886 24.2307 17.496 23.5018C19.1033 22.7728 20.5344 21.7056 21.6917 20.3731L21.4228 21.8712V23.2245C21.4228 23.9219 21.8956 24.569 22.5855 24.6931C22.7915 24.7319 23.0035 24.7249 23.2065 24.6726C23.4095 24.6202 23.5985 24.5239 23.76 24.3904C23.9216 24.2569 24.0518 24.0894 24.1415 23.8999C24.2311 23.7104 24.2779 23.5036 24.2786 23.2939V15.1888H16.5266C16.3169 15.1885 16.1097 15.2344 15.9198 15.3233C15.7299 15.4123 15.5619 15.542 15.4279 15.7032C15.2938 15.8645 15.197 16.0534 15.1443 16.2563C15.0917 16.4593 15.0844 16.6714 15.1231 16.8775V16.8775Z" fill="var(--fill-0, white)"/>
</svg>
