<svg preserveAspectRatio="none" width="100%" height="100%" overflow="visible" style="display: block;" viewBox="0 0 12.8495 15.247" fill="none" xmlns="http://www.w3.org/2000/svg">
<path id="Vector" d="M0.4795 11.2244C0.1499 10.1936 0 9.2259 0 7.6223C0 6.0211 0.1499 5.0522 0.4795 4.0255C1.2886 1.4834 3.504 0 6.4399 0C9.3449 0 11.5615 1.4828 12.3706 4.0255C12.6984 5.0522 12.8495 6.0211 12.8495 7.6223C12.8495 9.2259 12.6984 10.1936 12.3706 11.2244C11.5609 13.7647 9.3449 15.247 6.4399 15.247C3.504 15.2476 1.2886 13.7653 0.4795 11.2244ZM9.1355 10.3167C9.3758 9.5613 9.4353 8.8642 9.4353 7.6229C9.4353 6.3851 9.3758 5.7184 9.1355 4.9326C8.7166 3.7234 7.7874 3.0257 6.4399 3.0257C5.093 3.0257 4.1329 3.7234 3.7146 4.9326C3.476 5.7189 3.4154 6.3851 3.4154 7.6229C3.4154 8.8642 3.476 9.5613 3.7146 10.3167C4.1329 11.5283 5.0936 12.2218 6.4399 12.2218C7.7874 12.2213 8.7166 11.5277 9.1355 10.3167Z" fill="var(--fill-0, #204156)"/>
</svg>
