<svg preserveAspectRatio="none" width="100%" height="100%" overflow="visible" style="display: block;" viewBox="0 0 133.582 29.0018" fill="none" xmlns="http://www.w3.org/2000/svg">
<g id="Vector">
<path fill-rule="evenodd" clip-rule="evenodd" d="M14.0838 12.6189C14.0838 5.71156 12.9244 2.84826 9.73702 2.84826C6.92584 2.84826 5.50588 4.85552 5.50588 11.8221C5.50588 18.6996 6.6071 21.5337 9.85284 21.5337C12.7217 21.5337 14.0838 19.5557 14.0838 12.6189ZM0 12.4419C0 4.67832 5.24505 1.60855 9.91098 1.60855C14.8952 1.60855 19.5896 4.64905 19.5896 11.9695C19.5896 19.7919 14.3446 22.7734 9.67866 22.7734C4.69466 22.7734 0 19.5264 0 12.4419Z" fill="#147BD1"/>
<path fill-rule="evenodd" clip-rule="evenodd" d="M43.1914 12.9436L48.1466 12.6779C48.1466 9.1063 47.6833 7.80737 45.9444 7.80737C44.4663 7.80737 43.3072 9.22428 43.1914 12.9436ZM38.6128 14.6852C38.6128 9.54895 42.3508 6.68565 46.1761 6.68565C50.1286 6.68565 52.609 8.67476 52.7502 13.8788C52.7531 13.98 52.6722 14.0653 52.5725 14.0653H43.3734C43.2736 14.0653 43.1929 14.1507 43.1954 14.2521C43.325 18.9409 45.1136 20.2348 48.0598 20.2348C49.4978 20.2348 50.6571 19.8945 51.6274 19.4562C51.6989 19.4237 51.7817 19.4428 51.8327 19.5036L52.2181 19.9653C52.2762 20.0349 52.2755 20.1379 52.2141 20.2042C51.157 21.3398 49.0049 22.7735 46.1761 22.7735C41.1337 22.7735 38.6128 19.7035 38.6128 14.6852Z" fill="#147BD1"/>
<path fill-rule="evenodd" clip-rule="evenodd" d="M98.2864 14.9214C98.2864 8.95861 97.1565 7.83689 95.1857 7.83689C93.3599 7.83689 92.2878 9.1948 92.2878 14.2721C92.2878 20.3236 93.244 21.622 95.3594 21.622C97.0985 21.622 98.2864 20.589 98.2864 14.9214ZM87.4194 14.7739C87.4194 9.10609 91.3604 6.68567 95.2728 6.68567C99.4747 6.68567 103.155 9.25379 103.155 14.6262C103.155 20.2938 99.2718 22.7737 95.2728 22.7737C91.0708 22.7737 87.4194 20.1756 87.4194 14.7739Z" fill="#147BD1"/>
<path fill-rule="evenodd" clip-rule="evenodd" d="M115.571 14.9214C115.571 8.95861 114.441 7.83689 112.471 7.83689C110.645 7.83689 109.573 9.1948 109.573 14.2721C109.573 20.3236 110.529 21.622 112.645 21.622C114.383 21.622 115.571 20.589 115.571 14.9214ZM104.704 14.7739C104.704 9.10609 108.645 6.68567 112.557 6.68567C116.759 6.68567 120.44 9.25379 120.44 14.6262C120.44 20.2938 116.557 22.7737 112.557 22.7737C108.356 22.7737 104.704 20.1756 104.704 14.7739Z" fill="#147BD1"/>
<path fill-rule="evenodd" clip-rule="evenodd" d="M64.6631 6.68567C62.5477 6.68567 60.6351 7.65992 59.0993 8.78142H58.9833L59.0403 6.92027C59.0447 6.77756 58.924 6.66435 58.785 6.68023L54.7298 7.14852C54.6107 7.16213 54.5205 7.26469 54.5205 7.38698V22.1852C54.5205 22.3145 54.6234 22.4191 54.7501 22.4191H58.8984C59.0251 22.4191 59.128 22.3145 59.128 22.1852V9.81466C59.7655 9.66695 60.8088 9.43099 61.8234 9.43099C63.1852 9.43099 63.8229 9.99186 63.8229 11.7924V22.1852C63.8229 22.3145 63.9258 22.4191 64.0526 22.4191H68.2298C68.3565 22.4191 68.4597 22.3145 68.4597 22.1852V10.6414C68.4597 7.9846 67.1266 6.68567 64.6631 6.68567Z" fill="#147BD1"/>
<path fill-rule="evenodd" clip-rule="evenodd" d="M80.8919 19.7919C80.4281 19.9691 79.6457 20.4415 78.4576 20.4415C76.2551 20.4415 75.096 18.9359 75.096 14.3015C75.096 9.43074 76.5449 7.86636 78.6313 7.86636C79.7038 7.86636 80.3992 8.48622 80.8919 9.10607V19.7919ZM85.4995 3.79285C85.4995 2.26704 85.5505 0.865117 85.5774 0.289734C85.5852 0.121384 85.4449 -0.0138398 85.2803 0.00113463L81.1066 0.483948C80.985 0.495065 80.8919 0.598752 80.8919 0.723313V4.85559C80.8919 5.91809 80.9498 7.01032 80.9498 7.01032C80.3413 6.83313 79.5298 6.68565 78.7476 6.68565C74.2267 6.68565 70.3432 9.13579 70.3432 15.2758C70.3432 20.648 73.1542 22.7735 76.0233 22.7735C78.0517 22.7735 79.6746 21.9469 80.9208 20.8549H81.0367L80.9779 22.4842C80.9712 22.6577 81.12 22.795 81.2886 22.7707L85.2645 22.3185C85.3992 22.2995 85.4995 22.182 85.4995 22.0433V3.79285Z" fill="#147BD1"/>
<path fill-rule="evenodd" clip-rule="evenodd" d="M131.209 6.68567C129.529 6.68567 127.877 7.98459 126.979 8.95861H126.863L126.919 6.97495C126.924 6.80615 126.781 6.67183 126.616 6.69066L122.609 7.14874C122.49 7.16236 122.4 7.26491 122.4 7.38743V22.1414C122.4 22.2947 122.522 22.4191 122.673 22.4191H126.735C126.885 22.4191 127.008 22.2947 127.008 22.1414V10.169C127.413 9.78516 128.08 9.40127 128.601 9.40127C128.862 9.40127 129.036 9.46048 129.21 9.78516C129.761 10.7002 130.196 11.2291 131.441 11.2291C132.572 11.2291 133.582 10.3165 133.582 8.89962C133.582 7.453 132.6 6.68567 131.209 6.68567Z" fill="#147BD1"/>
<path fill-rule="evenodd" clip-rule="evenodd" d="M28.65 21.5926C27.6646 21.5926 26.8824 21.1497 26.3605 20.5299V9.78503C26.8242 9.60806 27.5488 9.25366 28.7079 9.25366C30.9104 9.25366 32.1566 10.7296 32.1566 14.9508C32.1566 20.3529 30.9393 21.5926 28.65 21.5926ZM31.2291 6.68576C29.2004 6.68576 27.578 7.65979 26.3605 8.72252H26.2157L26.2716 6.95621C26.2768 6.79535 26.1404 6.66716 25.9836 6.68531L21.9623 7.14839C21.8429 7.16223 21.7529 7.265 21.7529 7.3873V28.7615C21.7529 28.9047 21.8752 29.0163 22.0151 29.0002L26.1514 28.5242C26.2705 28.5106 26.3605 28.4078 26.3605 28.2855V24.279C26.3605 23.2459 26.3318 22.4784 26.3318 22.4784C26.9692 22.6554 27.9257 22.7733 28.5342 22.7733C33.3736 22.7733 36.909 20.0872 36.909 13.9473C36.909 8.54532 33.9822 6.68576 31.2291 6.68576Z" fill="#147BD1"/>
</g>
</svg>
