<svg preserveAspectRatio="none" width="100%" height="100%" overflow="visible" style="display: block;" viewBox="0 0 10.6681 18.1326" fill="none" xmlns="http://www.w3.org/2000/svg">
<path id="Vector" d="M10.6681 0.37511L9.58107 4.44517C9.58107 4.44517 8.36764 3.88901 6.92669 3.99013C4.80318 4.11653 4.80318 5.45636 4.80318 5.785C4.92958 7.60515 9.70747 8.00963 9.98555 12.2819C10.1878 15.6442 8.21596 17.9446 5.33405 18.1216C1.89599 18.2985 0 16.2761 0 16.2761L0.733117 13.1667C0.733117 13.1667 2.65439 14.6077 4.17118 14.5066C5.15709 14.456 5.53629 13.6218 5.48573 13.0656C5.33405 10.6893 1.44095 10.841 1.18815 6.9226C0.985915 3.63621 3.1347 0.32455 7.88732 0.0211919C9.73275 -0.105207 10.6681 0.37511 10.6681 0.37511Z" fill="var(--fill-0, white)"/>
</svg>
