<svg preserveAspectRatio="none" width="100%" height="100%" overflow="visible" style="display: block;" viewBox="0 0 123.801 20.8274" fill="none" xmlns="http://www.w3.org/2000/svg">
<path id="Vector" d="M0 19.604L1.01452 19.3952C1.90968 19.1564 2.14839 19.0371 2.14839 17.2468V3.19274C2.14839 1.40242 1.87984 1.25323 1.01452 1.04435L0 0.835484V0H16.1726L16.471 5.9379H15.546C14.8 4.29677 14.3226 3.43145 13.875 2.775C12.9202 1.40242 12.2935 1.28306 10.2347 1.28306C8.7129 1.28306 7.96693 1.4621 7.51935 1.58145V9.19032H8.325C10.4137 9.19032 10.8911 8.95161 11.2492 8.29516C11.6669 7.54919 11.9056 6.98226 12.1742 6.02742H13.0694V13.7258H12.1742C11.9056 12.8008 11.6669 12.204 11.2492 11.3387C10.8911 10.5927 10.5032 10.4435 8.325 10.4435H7.51935V16.1726C7.51935 18.8282 7.60887 19.1266 10.5032 19.1266C12.8903 19.1266 13.3677 18.8282 14.3524 17.3661C14.8895 16.5605 15.4565 15.3073 16.2323 13.4274H17.1871L16.7694 20.4395H0.0298387L0 19.604ZM19.6935 8.41452C19.0073 6.74355 18.679 6.32581 17.9331 6.0871L17.3661 5.90806V5.13226H26.2282V5.90806L25.4226 6.11694C24.796 6.29597 24.4976 6.59435 24.4976 7.31048C24.4976 7.72823 24.6468 8.23548 24.8855 8.89194L27.3621 15.6952H27.5113L29.8984 8.89194C30.1669 8.17581 30.2863 7.66855 30.2863 7.25081C30.2863 6.59435 29.9879 6.26613 29.3613 6.11694L28.5556 5.90806V5.13226H34.0161V5.90806L33.4492 6.0871C32.6734 6.35564 32.3452 6.80323 31.629 8.74274L27.0637 20.4395H24.5573L19.6935 8.41452ZM33.3298 12.7113C33.3298 7.57903 37.1194 4.74435 41.0282 4.74435C45.0863 4.74435 47.6226 6.77339 47.7121 12.1145H37.9548C38.0443 16.9484 39.8645 18.2613 42.9081 18.2613C44.7282 18.2613 46.1306 17.7242 47.2347 17.1573V18.1419C46.1903 19.2758 43.9524 20.8274 40.9984 20.8274C35.8661 20.7677 33.3298 17.7242 33.3298 12.7113ZM37.9548 10.9806L42.9976 10.7121C42.9976 7.16129 42.5202 5.84839 40.7597 5.84839C39.2677 5.84839 38.0742 7.28064 37.9548 10.9806ZM55.4702 7.0121C56.3056 6.11694 58.0064 4.65484 59.9758 4.65484C61.229 4.65484 62.2734 5.66935 62.2734 6.95242C62.2734 8.23548 61.2589 9.25 59.9758 9.25C59.0508 9.25 58.2153 8.68306 57.8871 7.87742C57.7081 7.54919 57.3202 7.45968 57.0516 7.45968C56.5145 7.45968 55.8879 7.84758 55.5 8.20564V17.754C55.5 19.1266 55.6193 19.2758 56.5145 19.425L57.4992 19.6339V20.4395H48.9952V19.6339L49.771 19.425C50.7556 19.1565 50.875 19.0073 50.875 17.754V8.59355C50.875 7.34032 50.7258 7.25081 49.8903 6.68387L48.9056 6.02742V5.43064L55.1121 4.71452L55.4403 4.95323L55.3806 6.98226L55.4702 7.0121ZM63.1685 19.6339L63.9444 19.425C64.929 19.1565 65.0484 19.0073 65.0484 17.754V8.59355C65.0484 7.34032 64.8992 7.25081 64.0637 6.68387L63.079 6.02742V5.43064L69.2855 4.71452L69.6137 4.92339L69.554 6.80323H69.6734C71.225 5.69919 73.1645 4.71452 75.3129 4.71452C77.8193 4.71452 79.1621 5.99758 79.1621 8.65323V17.7242C79.1621 19.0073 79.2814 19.1564 80.2363 19.3952L81.0121 19.604V20.4097H72.8064V19.604L73.5226 19.425C74.4177 19.1863 74.5072 19.0968 74.5072 17.7242V9.81694C74.5072 8.02661 73.8508 7.45968 72.4782 7.45968C71.4339 7.45968 70.3895 7.69839 69.7331 7.84758V17.754C69.7331 19.1565 69.8226 19.2161 70.7177 19.4548L71.4339 19.6339V20.4395H63.2282V19.6339H63.1685ZM81.579 12.8008C81.579 7.16129 85.5774 4.74435 89.546 4.74435C93.8129 4.74435 97.5427 7.31048 97.5427 12.6516C97.5427 18.2911 93.604 20.7677 89.546 20.7677C85.279 20.7677 81.579 18.2016 81.579 12.8008ZM92.5895 12.95C92.5895 7.0121 91.4556 5.87823 89.4266 5.87823C87.5766 5.87823 86.4726 7.22097 86.4726 12.2935C86.4726 18.321 87.4573 19.6339 89.6056 19.6339C91.3661 19.6339 92.5895 18.5895 92.5895 12.95ZM100.079 16.7097V6.8629H98.229V6.14677C100.527 5.25161 102.287 3.55081 103.123 1.19355H104.794V5.13226H108.702L108.315 6.8629H104.794V16.4113C104.794 17.8734 105.241 18.4702 106.703 18.4702C107.419 18.4702 108.285 18.321 108.822 18.2016V19.0371C108.106 19.6935 106.644 20.7677 104.167 20.7677C101.511 20.7677 100.079 19.604 100.079 16.7097ZM109.419 12.7113C109.419 7.57903 113.208 4.74435 117.117 4.74435C121.175 4.74435 123.711 6.77339 123.801 12.1145H114.073C114.163 16.9484 115.983 18.2613 119.027 18.2613C120.847 18.2613 122.249 17.7242 123.353 17.1573V18.1419C122.309 19.2758 120.071 20.8274 117.117 20.8274C111.955 20.7677 109.419 17.7242 109.419 12.7113ZM114.044 10.9806L119.086 10.7121C119.086 7.16129 118.609 5.84839 116.848 5.84839C115.356 5.84839 114.163 7.28064 114.044 10.9806Z" fill="var(--fill-0, black)"/>
</svg>
