<svg preserveAspectRatio="none" width="100%" height="100%" overflow="visible" style="display: block;" viewBox="0 0 100.02 17.629" fill="none" xmlns="http://www.w3.org/2000/svg">
<path id="Vector" d="M0 17.1407V0.550332H4.2661V2.44637C4.73029 1.62415 5.42946 0.959288 6.27399 0.537025C7.11851 0.114762 8.06991 -0.0456608 9.0062 0.0763216C9.90205 0.142736 10.7655 0.439471 11.513 0.937761C12.2604 1.43605 12.8664 2.11899 13.2723 2.92039C15.1683 1.02434 16.5904 0.0763216 18.4864 0.0763216C22.2785 0.0763216 24.6486 1.97236 24.6486 6.23846V17.1407H19.9084V8.1345C19.9084 5.76445 19.4344 4.81643 17.5384 4.81643C15.6424 4.81643 14.6943 5.76445 14.6943 8.1345V17.1407H9.48021V8.1345C9.48021 5.76445 9.0062 4.81643 7.58417 4.81643C6.16214 4.81643 4.74011 5.76445 4.74011 8.1345V17.1407H0ZM30.3367 2.44637C31.5924 1.26512 33.1607 0.469091 34.8555 0.152836C36.5502 -0.163419 38.3001 0.0133897 39.8973 0.662261C41.4945 1.31113 42.872 2.4048 43.866 3.81336C44.86 5.22193 45.4289 6.8862 45.505 8.60851C45.5391 9.74158 45.3471 10.8701 44.9402 11.9281C44.5332 12.9861 43.9196 13.9525 43.135 14.7706C42.304 15.701 41.2791 16.4378 40.1325 16.9292C38.986 17.4206 37.7456 17.6546 36.4988 17.6147C35.3266 17.6174 34.168 17.3643 33.1037 16.8731C32.0394 16.3818 31.0951 15.6644 30.3367 14.7706C29.5521 13.9525 28.9384 12.9861 28.5315 11.9281C28.1245 10.8701 27.9325 9.74158 27.9666 8.60851C27.9325 7.47544 28.1245 6.34694 28.5315 5.28891C28.9384 4.23089 29.5521 3.26456 30.3367 2.44637ZM36.4988 12.8746C37.6303 12.8746 38.7154 12.4251 39.5154 11.6251C40.3155 10.825 40.7649 9.73995 40.7649 8.60851C40.7649 7.53993 40.3404 6.51512 39.5848 5.75952C38.8292 5.00391 37.8044 4.57942 36.7358 4.57942C35.6672 4.57942 34.6424 5.00391 33.8868 5.75952C33.1312 6.51512 32.7067 7.53993 32.7067 8.60851C32.7002 9.66242 33.084 10.6814 33.7842 11.4692C34.4844 12.2569 35.4514 12.7575 36.4988 12.8746V12.8746ZM48.8231 17.1407V0.550332H53.5632V2.44637C54.5112 1.02434 55.9333 0.0763216 58.3033 0.0763216C61.6214 0.0763216 63.9914 2.44637 63.9914 6.23846V17.1407H59.2513V8.1345C59.2513 5.76445 58.7773 4.81643 56.8813 4.81643C54.9852 4.81643 53.5632 5.76445 53.5632 8.1345V17.1407H48.8231ZM84.8479 2.44637C86.1036 1.26512 87.672 0.469091 89.3667 0.152836C91.0614 -0.163419 92.8113 0.0133897 94.4086 0.662261C96.0058 1.31113 97.3832 2.4048 98.3772 3.81336C99.3713 5.22193 99.9401 6.8862 100.016 8.60851C100.05 9.74158 99.8583 10.8701 99.4514 11.9281C99.0445 12.9861 98.4308 13.9525 97.6462 14.7706C96.8683 15.641 95.92 16.3425 94.8601 16.8317C93.8001 17.3209 92.6511 17.5874 91.484 17.6147C90.2329 17.6894 88.9816 17.4712 87.8296 16.9775C86.6776 16.4838 85.6567 15.7281 84.8479 14.7706C84.0633 13.9525 83.4496 12.9861 83.0427 11.9281C82.6358 10.8701 82.4437 9.74158 82.4778 8.60851C82.4437 7.47544 82.6358 6.34694 83.0427 5.28891C83.4496 4.23089 84.0633 3.26456 84.8479 2.44637V2.44637ZM91.484 12.8746C92.5315 12.7575 93.4985 12.2569 94.1986 11.4692C94.8988 10.6814 95.2827 9.66242 95.2761 8.60851C95.2761 7.53993 94.8516 6.51512 94.096 5.75952C93.3404 5.00391 92.3156 4.57942 91.247 4.57942C90.1785 4.57942 89.1536 5.00391 88.398 5.75952C87.6424 6.51512 87.218 7.53993 87.218 8.60851C87.218 9.73995 87.6674 10.825 88.4675 11.6251C89.2675 12.4251 90.3526 12.8746 91.484 12.8746ZM67.7835 17.1407V13.8226L74.4197 4.81643H67.7835V0.550332H80.1078V4.34242L73.9457 12.8746H80.1078V17.1407H67.7835Z" fill="var(--fill-0, black)"/>
</svg>
