<svg preserveAspectRatio="none" width="100%" height="100%" overflow="visible" style="display: block;" viewBox="0 0 92.8359 17.4347" fill="none" xmlns="http://www.w3.org/2000/svg">
<g id="Vector">
<path fill-rule="evenodd" clip-rule="evenodd" d="M89.6564 15.1019C89.7325 15.9714 90.428 17.0783 91.6336 17.0783H92.3382C92.612 17.0783 92.8359 16.8543 92.8359 16.5808V1.07504H92.8325C92.8189 0.813812 92.603 0.604596 92.3382 0.604596H90.1541C89.8893 0.604596 89.6734 0.813812 89.6598 1.07504H89.6564V2.33496C88.3177 0.685051 86.2075 0.000244141 84.0916 0.000244141C79.2811 0.000244141 75.3818 3.9027 75.3818 8.71689C75.3818 13.5314 79.2811 17.4339 84.0916 17.4339C86.2075 17.4339 88.5143 16.6127 89.6564 15.1V15.1019ZM84.0995 14.3833C81.0405 14.3833 78.5605 11.8466 78.5605 8.71689C78.5605 5.58784 81.0405 3.05105 84.0995 3.05105C87.1598 3.05105 89.6393 5.58784 89.6393 8.71689C89.6393 11.8466 87.1598 14.3833 84.0995 14.3833Z" fill="#0D0E10"/>
<path fill-rule="evenodd" clip-rule="evenodd" d="M72.6191 7.6116C72.6191 3.08877 69.7682 0.0375977 65.2217 0.0375977C63.0513 0.0375977 61.2722 1.29356 60.6438 2.37246C60.508 1.52885 60.0605 0.642086 58.6727 0.642086H57.9653C57.6917 0.642086 57.4683 0.866256 57.4683 1.13979V15.1407C57.4683 15.1411 57.4683 15.1422 57.4683 15.1428V16.6468H57.471C57.4853 16.9076 57.7013 17.1171 57.9655 17.1171H60.1502C60.1836 17.1171 60.2164 17.1131 60.2481 17.1069C60.2626 17.1041 60.276 17.0984 60.2901 17.0944C60.3063 17.0894 60.3233 17.0856 60.3387 17.0792C60.3581 17.0711 60.3758 17.0603 60.3938 17.0502C60.4027 17.0448 60.412 17.041 60.4205 17.0353C60.4424 17.0213 60.4623 17.0043 60.4817 16.9871C60.4848 16.9839 60.4886 16.9817 60.4918 16.9788C60.5135 16.9577 60.5334 16.9346 60.5509 16.9105C60.6055 16.8353 60.6389 16.7444 60.6444 16.6468H60.6472V7.48717C60.6472 5.05812 62.6151 3.08877 65.0425 3.08877C67.4697 3.08877 69.4377 5.05812 69.4377 7.48717L69.4396 15.1434L69.4402 15.1407C69.4402 15.1475 69.4412 15.1544 69.4412 15.1617V16.6468H69.4442C69.4586 16.9076 69.6744 17.1171 69.9385 17.1171H72.1233C72.1569 17.1171 72.1895 17.1131 72.2211 17.1069C72.2341 17.1046 72.246 17.0993 72.2587 17.0958C72.2766 17.0906 72.295 17.0861 72.3121 17.0792C72.33 17.0718 72.3462 17.0615 72.3632 17.0519C72.3735 17.0461 72.3843 17.0419 72.3942 17.0353C72.4143 17.0221 72.4328 17.006 72.451 16.9902C72.4555 16.9859 72.4608 16.9827 72.4651 16.9784C72.4859 16.9584 72.5043 16.9368 72.5211 16.9142C72.5224 16.9125 72.5237 16.9111 72.525 16.9094C72.5788 16.835 72.6118 16.7451 72.6175 16.6481C72.6175 16.6474 72.6177 16.6468 72.6177 16.6468H72.6207L72.6191 7.6116Z" fill="#0D0E10"/>
<path fill-rule="evenodd" clip-rule="evenodd" d="M49.8675 15.1018C49.9439 15.9714 50.6395 17.0782 51.8445 17.0782H52.5495C52.8228 17.0782 53.0465 16.8542 53.0465 16.5807V1.07504H53.0437C53.0295 0.813812 52.8133 0.604596 52.5495 0.604596H50.3648C50.1006 0.604596 49.8848 0.813812 49.87 1.07504H49.8675V2.33496C48.5289 0.685051 46.4186 0.000244141 44.3023 0.000244141C39.4921 0.000244141 35.5928 3.90269 35.5928 8.71696C35.5928 13.5314 39.4921 17.434 44.3023 17.434C46.4186 17.434 48.7249 16.6128 49.8673 15.0999L49.8675 15.1018ZM44.3108 14.3832C41.2517 14.3832 38.7715 11.8466 38.7715 8.71696C38.7715 5.58784 41.2517 3.05105 44.3108 3.05105C47.3703 3.05105 49.85 5.58784 49.85 8.71696C49.85 11.8466 47.3703 14.3832 44.3108 14.3832Z" fill="#0D0E10"/>
<path fill-rule="evenodd" clip-rule="evenodd" d="M22.6736 12.8811C24.132 13.8923 25.7239 14.3834 27.2537 14.3834C28.7111 14.3834 30.2178 13.6273 30.2178 12.3111C30.2178 10.5541 26.9347 10.2807 24.872 9.57909C22.8088 8.8775 21.0319 7.4271 21.0319 5.07835C21.0319 1.48436 24.2318 0 27.2184 0C29.1106 0 31.063 0.624477 32.3288 1.51903C32.7647 1.8496 32.4993 2.22913 32.4993 2.22913L31.291 3.95618C31.1552 4.1507 30.9177 4.31877 30.5769 4.10823C30.236 3.89783 29.0404 3.0509 27.2184 3.0509C25.3961 3.0509 24.2985 3.89306 24.2985 4.93689C24.2985 6.18861 25.7251 6.5823 27.396 7.00893C30.3079 7.79443 33.4844 8.73864 33.4844 12.3111C33.4844 15.4777 30.5247 17.4347 27.2537 17.4347C24.7749 17.4347 22.6645 16.7275 20.8945 15.4276C20.5257 15.0583 20.7832 14.7153 20.7832 14.7153L21.9856 12.997C22.2303 12.6758 22.5387 12.7878 22.6736 12.8811Z" fill="#0D0E10"/>
<path fill-rule="evenodd" clip-rule="evenodd" d="M14.2749 15.1018C14.3513 15.9714 15.0468 17.0782 16.2517 17.0782H16.9568C17.2301 17.0782 17.4541 16.8542 17.4541 16.5807V1.07504H17.451C17.4367 0.813812 17.2209 0.604596 16.9568 0.604596H14.7722C14.508 0.604596 14.2922 0.813812 14.2775 1.07504H14.2749V2.33496C12.9364 0.685051 10.826 0.000244141 8.70978 0.000244141C3.89955 0.000244141 0 3.90269 0 8.71696C0 13.5314 3.89955 17.434 8.70978 17.434C10.826 17.434 13.1323 16.6128 14.2745 15.0999L14.2749 15.1018ZM8.7183 14.3832C5.65898 14.3832 3.17886 11.8466 3.17886 8.71696C3.17886 5.58784 5.65898 3.05105 8.7183 3.05105C11.7775 3.05105 14.2574 5.58784 14.2574 8.71696C14.2574 11.8466 11.7775 14.3832 8.7183 14.3832Z" fill="#0D0E10"/>
</g>
</svg>
