<svg preserveAspectRatio="none" width="100%" height="100%" overflow="visible" style="display: block;" viewBox="0 0 71.9657 26.1077" fill="none" xmlns="http://www.w3.org/2000/svg">
<path id="Vector" d="M0 25.6037V0H4.72283V25.6037H0V25.6037ZM45.2972 8.204H49.8066V10.3273C50.7657 8.62983 53.004 7.70933 54.9211 7.70933C57.3012 7.70933 59.2183 8.736 60.1059 10.6085C61.4894 8.48517 63.3373 7.70933 65.6459 7.70933C68.8773 7.70933 71.9657 9.65416 71.9657 14.322V25.6037H67.3859V15.2775C67.3859 13.4027 66.462 11.9875 64.2952 11.9875C62.2703 11.9875 61.0626 13.545 61.0626 15.4198V25.6048H56.3773V15.2775C56.3773 13.4027 55.4182 11.9875 53.2866 11.9875C51.2265 11.9875 50.0189 13.51 50.0189 15.4198V25.6048H45.2972V8.204V8.204ZM15.3961 26.1077C10.0753 26.1077 6.22246 22.1795 6.22246 16.9038C6.22246 11.7122 10.0636 7.69183 15.3961 7.69183C20.7544 7.69183 24.5697 11.7495 24.5697 16.9038C24.5697 22.1422 20.7146 26.1077 15.3961 26.1077ZM15.3961 11.9502C14.0763 11.952 12.8112 12.4748 11.8783 13.4037C10.9454 14.3326 10.4209 15.5918 10.42 16.905C10.4209 18.2182 10.9454 19.4774 11.8783 20.4063C12.8112 21.3352 14.0763 21.858 15.3961 21.8598C16.7157 21.8577 17.9805 21.3348 18.9132 20.4059C19.8458 19.477 20.3701 18.218 20.371 16.905C20.3701 15.592 19.8458 14.3329 18.9132 13.4041C17.9805 12.4752 16.7157 11.9523 15.3961 11.9502V11.9502ZM34.6568 26.1077C29.336 26.1077 25.4831 22.1795 25.4831 16.9038C25.4831 11.7122 29.3242 7.69183 34.6568 7.69183C40.0151 7.69183 43.8304 11.7495 43.8304 16.9038C43.8304 22.1422 39.9729 26.1077 34.6568 26.1077ZM34.6568 11.8907C33.3218 11.8928 32.0423 12.4217 31.0987 13.3612C30.1551 14.3008 29.6245 15.5744 29.6232 16.9027C29.6245 18.2309 30.1551 19.5045 31.0987 20.4441C32.0423 21.3836 33.3218 21.9125 34.6568 21.9147C35.9917 21.9125 37.2712 21.3836 38.2149 20.4441C39.1585 19.5045 39.6891 18.2309 39.6903 16.9027C39.6891 15.5744 39.1585 14.3008 38.2149 13.3612C37.2712 12.4217 35.9917 11.8928 34.6568 11.8907V11.8907Z" fill="var(--fill-0, #212121)"/>
</svg>
