<svg preserveAspectRatio="none" width="100%" height="100%" overflow="visible" style="display: block;" viewBox="0 0 21.0735 13.6581" fill="none" xmlns="http://www.w3.org/2000/svg">
<path id="Vector" d="M1.4528 2.464C3.69581 -1.01428 9.29154 -0.665488 10.6824 3.07215C11.1307 2.29622 11.639 1.59434 12.3706 1.08564C14.2444 -0.218317 16.2538 -0.311686 18.2711 0.612708C20.2247 1.50705 20.9699 3.26211 21.03 5.27617C21.1097 7.95669 21.0529 10.6422 21.0657 13.3253C21.0657 13.5757 21.0024 13.6451 20.7438 13.6508C19.5032 13.6791 19.5039 13.6866 19.5032 12.4459C19.5012 10.1672 19.4985 7.88849 19.4949 5.60994C19.4976 4.9299 19.3659 4.25604 19.1075 3.627C18.5737 2.33915 17.5846 1.64263 16.2098 1.51993C13.4137 1.26951 11.3564 3.10363 11.3167 5.90436C11.2809 8.34448 11.2995 10.785 11.3135 13.2254C11.3153 13.5596 11.2419 13.6576 10.8935 13.6547C9.74873 13.639 9.74873 13.6547 9.74873 12.5053C9.74873 10.3234 9.74873 8.14117 9.74873 5.95873C9.74873 5.09587 9.63783 4.25268 9.27043 3.45886C8.82075 2.48689 8.0713 1.86943 7.03136 1.61759C4.15336 0.920356 1.63882 2.86252 1.58373 5.87073C1.53937 8.29404 1.5569 10.7191 1.58373 13.1432C1.58838 13.5907 1.45387 13.6647 1.04712 13.6537C0.0118295 13.625 0.0114735 13.6444 0.0114735 12.5897C0.0114735 8.62995 0.0189879 4.67052 2.78225e-05 0.711086C-0.0021186 0.290386 0.119512 0.210249 0.509446 0.223843C1.43956 0.25282 1.44135 0.232426 1.45065 1.16898C1.45602 1.55176 1.4528 1.93669 1.4528 2.464Z" fill="var(--fill-0, #030303)"/>
</svg>
