<svg preserveAspectRatio="none" width="100%" height="100%" overflow="visible" style="display: block;" viewBox="0 0 9.40007 11.9363" fill="none" xmlns="http://www.w3.org/2000/svg">
<path id="Vector" d="M6.4493 0.242917C6.3847 0.158389 6.29939 0.0919546 6.20161 0.0500348C6.10384 0.00811492 5.9969 -0.00787264 5.89114 0.00361812C5.78538 0.0151089 5.68437 0.0536893 5.59787 0.11563C5.51138 0.17757 5.44233 0.260775 5.39739 0.357204L0.0672455 11.0142C0.0186886 11.1113 -0.00423741 11.2192 0.000644203 11.3277C0.00552582 11.4362 0.038053 11.5416 0.0951376 11.634C0.152222 11.7263 0.231969 11.8026 0.326807 11.8555C0.421645 11.9084 0.528426 11.9361 0.637012 11.9361H8.05897C8.17784 11.9389 8.29496 11.9071 8.3961 11.8446C8.49724 11.782 8.57806 11.6915 8.62874 11.5839C10.2297 8.27563 9.25948 3.24535 6.4493 0.242917Z" fill="url(#paint0_linear_418_643)"/>
<defs>
<linearGradient id="paint0_linear_418_643" x1="9.37043" y1="1.88758" x2="3.7454" y2="11.6306" gradientUnits="userSpaceOnUse">
<stop stop-color="#0052CC"/>
<stop offset="0.923" stop-color="#2684FF"/>
</linearGradient>
</defs>
</svg>
