<svg preserveAspectRatio="none" width="100%" height="100%" overflow="visible" style="display: block;" viewBox="0 0 18.7275 14.6035" fill="none" xmlns="http://www.w3.org/2000/svg">
<path id="Vector" d="M17.6093 0C17.1039 0 16.7049 0.2926 16.5187 0.771403L13.1937 10.2411L10.4805 0.771403C10.3741 0.399001 9.97506 0 9.38986 0C8.80466 0 8.40565 0.399001 8.29925 0.771403L5.58603 10.2145L2.26101 0.744801C2.07481 0.265998 1.67581 0 1.17041 0C0.532001 0 0 0.505401 0 1.17041C0 1.33001 0.0265985 1.4896 0.106399 1.6492L4.54863 13.8587C4.73483 14.3375 5.13383 14.6035 5.63924 14.6035C6.17124 14.6035 6.62344 14.2577 6.75644 13.7789L9.36326 4.81463L11.9701 13.7789C12.1031 14.2577 12.5819 14.6035 13.0873 14.6035C13.5927 14.6035 13.9917 14.3109 14.1779 13.8321L18.6201 1.62261C18.6999 1.46301 18.7265 1.2768 18.7265 1.1172C18.7531 0.505398 18.2477 0 17.6093 0Z" fill="var(--fill-0, #4D4D4D)"/>
</svg>
