<svg preserveAspectRatio="none" width="100%" height="100%" overflow="visible" style="display: block;" viewBox="0 0 35.2461 36.6812" fill="none" xmlns="http://www.w3.org/2000/svg">
<g id="Vector">
<path fill-rule="evenodd" clip-rule="evenodd" d="M17.6227 36.6812C15.7708 36.6812 13.9417 36.4061 12.1865 35.862C11.7059 35.7131 11.3041 35.3793 11.0696 34.9342C10.835 34.4891 10.7868 33.969 10.9357 33.4883C11.2459 32.4827 12.3113 31.9229 13.3098 32.236C14.7006 32.6677 16.1512 32.8859 17.6227 32.8859C24.0612 32.8859 29.6515 28.7542 31.5342 22.6018C31.6071 22.3635 31.7262 22.142 31.8848 21.9499C32.0433 21.7577 32.2382 21.5987 32.4583 21.482C32.6784 21.3652 32.9193 21.293 33.1673 21.2694C33.4153 21.2459 33.6655 21.2715 33.9036 21.3447C34.9055 21.6483 35.469 22.7109 35.1626 23.7118C32.7889 31.468 25.7399 36.6812 17.6227 36.6812Z" fill="#43AF79"/>
<path fill-rule="evenodd" clip-rule="evenodd" d="M1.8977 15.4186C1.60093 15.4186 1.3083 15.349 1.0433 15.2154C0.778303 15.0819 0.548336 14.888 0.371876 14.6494C0.195416 14.4108 0.0773823 14.1341 0.0272595 13.8416C-0.0228634 13.5491 -0.0036779 13.2489 0.0832741 12.9652C2.45744 5.20941 9.50641 0 17.6227 0C19.476 0 21.3051 0.275128 23.0588 0.819692C23.2969 0.893435 23.5181 1.01334 23.7097 1.17257C23.9014 1.3318 24.0599 1.52722 24.176 1.74769C24.2922 1.96815 24.3638 2.20934 24.3867 2.45748C24.4097 2.70561 24.3835 2.95584 24.3097 3.19386C24.2362 3.43203 24.1164 3.65335 23.9572 3.84515C23.7981 4.03696 23.6026 4.19547 23.3821 4.31163C23.1615 4.42778 22.9202 4.49928 22.672 4.52204C22.4238 4.5448 22.1736 4.51837 21.9356 4.44427C20.5457 4.01735 19.0942 3.79914 17.6227 3.79914C11.1856 3.79914 5.59438 7.93081 3.71165 14.0832C3.59265 14.4715 3.35231 14.8114 3.02592 15.053C2.69952 15.2946 2.30426 15.4252 1.89817 15.4257" fill="#43AF79"/>
</g>
</svg>
