<svg preserveAspectRatio="none" width="100%" height="100%" overflow="visible" style="display: block;" viewBox="0 0 13.4781 17.0188" fill="none" xmlns="http://www.w3.org/2000/svg">
<path id="Vector" d="M3.52474 17.0188C2.24161 17.0188 1.06092 16.3328 0.440918 15.2303C0.136175 14.6901 -0.0157972 14.0772 0.00129864 13.4572C0.0183945 12.8373 0.203913 12.2336 0.537961 11.7111L6.88757 1.74392C7.20838 1.19946 7.66901 0.750743 8.22169 0.444306C8.77437 0.137869 9.39896 -0.0151292 10.0307 0.00118008C11.3246 0.0294844 12.4972 0.753267 13.0903 1.88544C13.6793 3.01761 13.593 4.37488 12.8611 5.42483L6.51287 15.392C6.19146 15.8923 5.74924 16.3035 5.22701 16.5878C4.70478 16.8722 4.11935 17.0204 3.52474 17.0188V17.0188Z" fill="var(--fill-0, #FFCC00)"/>
</svg>
