<svg preserveAspectRatio="none" width="100%" height="100%" overflow="visible" style="display: block;" viewBox="0 0 31.8772 32.484" fill="none" xmlns="http://www.w3.org/2000/svg">
<path id="Vector" d="M31.1562 19.1081C30.1924 18.4022 29.0809 17.9244 27.9056 17.7107C27.9056 17.7211 27.9056 17.7296 27.9056 17.739C27.8044 18.3024 27.6463 18.8541 27.4338 19.3856C28.4047 19.5359 29.3259 19.9153 30.1211 20.4924C30.1211 20.4999 30.1164 20.5094 30.1136 20.5179C29.0901 23.8319 26.9118 26.6689 23.9745 28.5135C21.0372 30.3581 17.5356 31.088 14.106 30.5704C10.6763 30.0529 7.54604 28.3224 5.28381 25.6931C3.02157 23.0639 1.77746 19.7105 1.77746 16.242C1.77746 12.7735 3.02157 9.42006 5.28381 6.79084C7.54604 4.16163 10.6763 2.43108 14.106 1.91355C17.5356 1.39602 21.0372 2.12585 23.9745 3.97045C26.9118 5.81506 29.0901 8.65208 30.1136 11.9661C30.1136 11.9746 30.1183 11.9841 30.1211 11.9916C29.326 12.5687 28.4048 12.9479 27.4338 13.0975C27.6461 13.6297 27.8041 14.182 27.9056 14.7459C27.905 14.7547 27.905 14.7636 27.9056 14.7724C29.0809 14.559 30.1924 14.0815 31.1562 13.3758C32.0828 12.6899 31.9035 11.9152 31.7629 11.4566C30.6173 7.74086 28.1767 4.55941 24.8845 2.49037C21.5924 0.421334 17.6672 -0.397988 13.8223 0.181291C9.97731 0.76057 6.46776 2.7 3.93135 5.64717C1.39494 8.59434 0 12.3537 0 16.242C0 20.1303 1.39494 23.8896 3.93135 26.8368C6.46776 29.784 9.97731 31.7234 13.8223 32.3027C17.6672 32.882 21.5924 32.0627 24.8845 29.9936C28.1767 27.9246 30.6173 24.7431 31.7629 21.0274C31.9035 20.5688 32.0828 19.7941 31.1562 19.1081Z" fill="var(--fill-0, #006BFF)"/>
</svg>
