<svg preserveAspectRatio="none" width="100%" height="100%" overflow="visible" style="display: block;" viewBox="0 0 27.0488 32.3921" fill="none" xmlns="http://www.w3.org/2000/svg">
<path id="Vector" d="M7.14515 32.3921L7.74739 28.5668L6.40588 28.5357H0L4.45176 0.308606C4.46558 0.223394 4.51048 0.143939 4.57612 0.0875151C4.64176 0.0310909 4.72582 0 4.81333 0H15.6145C19.2004 0 21.675 0.746182 22.967 2.21897C23.5727 2.90988 23.9584 3.63188 24.145 4.42642C24.3407 5.26012 24.3442 6.25618 24.153 7.47103L24.1392 7.5597V8.33812L24.7449 8.68127C25.255 8.95188 25.6604 9.26164 25.9713 9.6163C26.4894 10.207 26.8245 10.9578 26.9662 11.8479C27.1124 12.7634 27.0641 13.8527 26.8245 15.086C26.5482 16.5047 26.1014 17.7402 25.498 18.7513C24.943 19.6828 24.2359 20.4555 23.3965 21.0543C22.595 21.6232 21.6427 22.055 20.5661 22.3313C19.5228 22.6031 18.3333 22.7401 17.0286 22.7401H16.188C15.5869 22.7401 15.0031 22.9566 14.5448 23.3447C14.0853 23.7408 13.7813 24.282 13.6881 24.8739L13.6247 25.2182L12.5607 31.9603L12.5124 32.2079C12.4997 32.2862 12.4778 32.3253 12.4456 32.3518C12.4168 32.376 12.3753 32.3921 12.335 32.3921H7.14515Z" fill="var(--fill-0, #253B80)"/>
</svg>
