<svg preserveAspectRatio="none" width="100%" height="100%" overflow="visible" style="display: block;" viewBox="0 0 202.4 34.0364" fill="none" xmlns="http://www.w3.org/2000/svg">
<g id="logo-layer">
<path id="Vector" d="M17.0097 27.9843C15.5196 25.6266 14.2197 23.5047 14.1088 23.2847C13.9185 22.8603 13.9661 22.7503 15.472 20.1883C15.7891 19.6225 16.2012 18.9152 16.3756 18.6165C18.2303 15.3944 19.4351 13.3039 19.5936 13.0682C19.768 12.8167 19.8631 12.9267 20.4971 14.0112C20.8934 14.6871 22.2567 16.9976 23.5407 19.1509C24.8565 21.3514 25.8551 23.159 25.8076 23.3161C25.7759 23.4576 24.5236 25.3752 23.0493 27.5756C21.5751 29.7761 20.2752 31.7409 20.1643 31.9452C20.0691 32.1338 19.9265 32.291 19.8472 32.291C19.768 32.291 18.4998 30.3577 17.0097 27.9843Z" fill="var(--fill-0, #ED1B24)"/>
<path id="Vector_2" d="M94.4788 23.2846C92.9728 22.8288 92.101 22.3258 91.0389 21.257C89.2159 19.4338 88.7086 16.9503 89.6756 14.5613C89.9926 13.7282 91.451 12.3922 92.5131 11.9364C92.957 11.7478 94.13 11.402 95.1287 11.1662C98.1089 10.4746 98.8222 10.0031 98.8222 8.71425C98.8222 7.06389 96.9993 6.29372 94.6056 6.90671C93.5118 7.18963 92.0376 7.91264 91.3242 8.50992C91.0389 8.74568 90.7694 8.87143 90.7377 8.79284C90.706 8.69853 90.1512 7.75547 89.4854 6.70238L88.2965 4.76909L88.6611 4.47046C89.3269 3.92034 91.8473 2.75722 93.1472 2.41143C94.13 2.14423 94.9068 2.06564 96.5554 2.04992C98.9808 2.03421 99.8843 2.2071 101.565 2.99299C104.275 4.26613 105.765 6.74953 105.544 9.65731C105.401 11.4649 105.068 12.2507 103.927 13.3667C102.722 14.5298 101.374 15.1428 98.8856 15.6143C97.031 15.9758 96.3969 16.2273 96.0164 16.7617C95.4933 17.5005 95.9055 18.6479 96.7932 19.0251C97.9345 19.4966 99.8843 19.1823 101.359 18.2864C101.771 18.0349 102.167 17.8305 102.23 17.8305C102.373 17.8305 104.418 21.7128 104.323 21.8071C104.275 21.8543 103.784 22.1058 103.229 22.3887C100.709 23.6304 96.9993 24.0076 94.4788 23.2846Z" fill="var(--fill-0, black)"/>
<path id="Vector_3" d="M156.159 23.2375C153.131 22.4359 151.166 20.5341 150.595 17.862C150.199 15.9445 150.88 13.854 152.259 12.7695C153.417 11.8579 153.956 11.6378 156.238 11.0877C157.38 10.8048 158.584 10.4433 158.933 10.2861C160.391 9.5945 160.55 7.78696 159.218 6.96964C157.792 6.08944 154.859 6.68672 152.672 8.30565L152.133 8.71431L151.625 7.89698C151.34 7.44117 150.817 6.57669 150.452 5.99514C150.088 5.39786 149.771 4.80059 149.755 4.65913C149.739 4.31334 152.101 2.99305 153.67 2.5058C156.191 1.70419 159.662 1.65704 161.786 2.38005C165.337 3.5746 167.335 6.71815 166.78 10.1918C166.32 13.0524 164.402 14.6242 160.391 15.4258C158.362 15.8344 158.045 15.9445 157.475 16.4632C157.015 16.8718 156.983 17.7834 157.427 18.3336C157.887 18.9308 158.553 19.1352 159.789 19.0566C160.709 19.0094 161.121 18.8837 162.214 18.3336C162.928 17.9721 163.562 17.7206 163.625 17.7992C163.8 17.9878 165.67 21.4457 165.67 21.5871C165.67 21.8229 163.213 22.8446 161.866 23.1746C160.233 23.5519 157.475 23.5833 156.159 23.2375Z" fill="var(--fill-0, black)"/>
<path id="Vector_4" d="M196.375 22.7974C195.599 22.5145 195.234 22.1844 194.838 21.3828C194.362 20.3926 194.41 19.3238 194.98 18.4279C196.264 16.416 199.245 16.6518 200.243 18.8523C200.798 20.0468 200.544 21.2414 199.562 22.2002C198.706 23.0018 197.58 23.2218 196.375 22.7974ZM198.595 22.2159C199.847 21.6186 200.291 19.984 199.546 18.7108C198.452 16.7933 195.567 17.3119 195.171 19.4967C194.949 20.707 195.408 21.7129 196.423 22.2473C197.136 22.6403 197.755 22.6245 198.595 22.2159Z" fill="var(--fill-0, black)"/>
<path id="Vector_5" d="M196.423 20.0311C196.423 18.6008 196.471 18.3021 196.661 18.3021C196.835 18.3021 196.899 18.4907 196.899 19.088C196.899 20.1568 197.295 20.1568 197.897 19.088C198.198 18.5536 198.452 18.3021 198.658 18.3021C198.944 18.3021 198.928 18.365 198.484 18.9937C197.945 19.7796 197.913 19.8739 198.23 19.8739C198.547 19.8739 198.848 20.2983 198.848 20.7698C198.848 21.4142 198.294 21.76 197.279 21.76H196.423V20.0311ZM198.309 20.9113C198.373 20.5183 197.929 20.1883 197.342 20.1883C196.946 20.1883 196.899 20.2354 196.899 20.7541V21.3042L197.564 21.2571C198.087 21.2256 198.262 21.147 198.309 20.9113Z" fill="var(--fill-0, black)"/>
<path id="Vector_6" d="M39.9635 12.4866V2.11289H42.3413H44.7191L44.735 9.07585C44.735 13.1782 44.7984 15.8974 44.8777 15.7087C44.9569 15.5358 45.3691 14.2627 45.8129 12.8795C46.2568 11.4964 47.2079 8.52573 47.9529 6.27809L49.2845 2.19148H51.2343H53.1841L53.628 3.68467C54.3096 5.90087 56.1009 11.9994 56.7033 14.0269C56.9728 15.0014 57.2581 15.8502 57.3215 15.9131C57.3849 15.9759 57.4008 12.8953 57.3691 9.07585L57.2739 2.11289H59.842H62.3942V12.4552V22.7817H58.5263H54.6742L53.8024 19.9525C53.3268 18.3965 52.6293 16.0703 52.233 14.7657C51.8367 13.4768 51.488 12.298 51.4245 12.1722C51.3453 11.9522 50.4417 14.5613 48.6029 20.3769L47.8103 22.8603H43.8948H39.9635V12.4866Z" fill="var(--fill-0, black)"/>
<path id="Vector_7" d="M64.2172 12.4866V2.11289H67.1181H70.0032V12.4552V22.7817L67.1181 22.8289L64.2172 22.8603V12.4866Z" fill="var(--fill-0, black)"/>
<path id="Vector_8" d="M71.3505 20.817V18.7737H74.2831H77.2157V10.4433V2.11289H80.0374H82.8749L82.97 5.44505C83.0334 7.26831 83.081 11.0091 83.081 13.7755V18.7737H85.8551H88.6292V20.817V22.8603H79.9898H71.3505V20.817Z" fill="var(--fill-0, black)"/>
<path id="Vector_9" d="M106.542 15.7401C106.542 9.26441 106.574 8.50996 106.843 7.48831C107.826 3.7632 111.773 1.29551 115.926 1.8142C118.035 2.0814 119.509 2.75726 121.031 4.15614C122.188 5.22495 122.695 6.01084 123.155 7.37828C123.456 8.25848 123.488 8.82431 123.535 15.5515L123.583 22.7817L121.094 22.8288L118.605 22.876L118.558 15.7558C118.51 8.77716 118.51 8.61998 118.161 7.99127C117.448 6.6867 116.037 5.8851 114.801 6.12086C114.087 6.26232 112.994 7.31541 112.708 8.16417C112.55 8.6357 112.486 10.5218 112.439 15.8344L112.391 22.8603H109.474H106.542V15.7401Z" fill="var(--fill-0, black)"/>
<path id="Vector_10" d="M124.613 12.3137V1.76708L130.764 1.82995C136.502 1.89282 136.978 1.92426 138.056 2.23861C140.877 3.08737 141.892 3.999 142.463 6.2152C142.906 7.94416 142.542 9.79885 141.496 11.1663C141.274 11.4492 140.624 11.9207 140.006 12.2194L138.912 12.7695L139.673 13.2568C140.608 13.854 141.369 14.7028 141.749 15.5515C142.114 16.3532 142.415 18.2078 142.288 18.8051C142.019 19.9682 139.926 21.933 138.278 22.5459C137.485 22.8446 137.057 22.8603 131.033 22.8603H124.613V12.3137ZM135.25 18.5694C136.391 17.8149 136.455 15.9759 135.345 15.3158C134.917 15.0486 134.537 15.0014 132.825 15.0014H130.796V16.9661V18.9309H132.761C134.537 18.9309 134.759 18.8994 135.25 18.5694ZM135.535 9.87744C135.884 9.73598 136.28 9.46878 136.407 9.26445C136.962 8.43141 136.566 7.01681 135.599 6.40382C135.234 6.16805 134.822 6.1209 132.967 6.1209H130.78V8.05418C130.78 9.10727 130.78 10.0032 130.796 10.0503C130.796 10.0975 131.715 10.1289 132.856 10.1289C134.362 10.1289 135.076 10.0661 135.535 9.87744Z" fill="var(--fill-0, black)"/>
<path id="Vector_11" d="M143.16 12.4237V1.95565H146.093H149.026V12.3294V22.7031H147.409C146.505 22.7031 145.189 22.7502 144.476 22.8131L143.16 22.9074V12.4237Z" fill="var(--fill-0, black)"/>
<path id="Vector_12" d="M167.636 22.7188C167.604 22.6874 167.573 17.9877 167.573 12.2979V1.95565H170.426H173.279V6.19944V10.4432H176.212H179.145V6.19944V1.95565H181.998H184.851V12.3294V22.7031H181.998H179.145V19.088V15.4729H176.212H173.279V19.088V22.6874L170.489 22.7345C168.952 22.7659 167.668 22.7502 167.636 22.7188Z" fill="var(--fill-0, black)"/>
<path id="Vector_13" d="M186.785 12.3765L186.833 2.03427H189.607H192.381L192.428 12.3765L192.46 22.7031H189.607H186.753L186.785 12.3765Z" fill="var(--fill-0, black)"/>
<path id="Vector_14" d="M4.78774 7.37826C3.12328 4.5805 1.76 2.23855 1.76 2.1914C1.76 2.14425 4.37559 2.12853 7.5777 2.14425L13.3954 2.1914L14.7587 4.47047C15.5037 5.72789 16.867 7.99125 17.7864 9.50015C18.69 11.0091 19.4667 12.2979 19.4826 12.3608C19.5143 12.4237 16.8987 12.4865 13.6807 12.4865H7.81548L4.78774 7.37826Z" fill="var(--fill-0, #ED1B24)"/>
<path id="Vector_15" d="M20.0533 12.2508C20.1008 12.1251 20.5447 11.3235 21.0678 10.4904C21.5751 9.64165 22.8433 7.45689 23.8736 5.61791L25.7759 2.28575L32.0216 2.27003C37.3796 2.27003 38.2356 2.30146 38.1722 2.49008C38.0771 2.71013 37.1894 4.17188 35.5724 6.74959C35.1444 7.44117 34.1616 9.01294 33.3849 10.2546L31.9899 12.4866H25.9661C20.7191 12.4866 19.974 12.4551 20.0533 12.2508Z" fill="var(--fill-0, #ED1B24)"/>
</g>
</svg>
