<svg preserveAspectRatio="none" width="100%" height="100%" overflow="visible" style="display: block;" viewBox="0 0 161.31 29" fill="none" xmlns="http://www.w3.org/2000/svg">
<g id="Vector">
<path fill-rule="evenodd" clip-rule="evenodd" d="M26.5192 0.000579834H2.48031C1.11021 0.000579834 0 1.11105 0 2.48089V26.5198C0 27.8898 1.11047 29 2.48031 29H26.5192C27.8892 29 28.9995 27.8895 28.9995 26.5198V2.48089C28.9995 1.11078 27.889 0.000579834 26.5192 0.000579834ZM15.2377 15.9777C13.0699 15.9777 12.0847 13.8828 12.0847 11.9409C12.0847 8.88324 13.7415 7.79457 15.2912 7.79457C17.1931 7.79457 18.471 9.44856 18.471 11.9123C18.471 14.7226 16.8454 15.9777 15.2377 15.9777ZM22.5556 11.8584C22.5556 7.27571 19.942 4.19711 16.0549 4.19711C13.7935 4.19711 12.4844 5.22282 11.8529 5.9306C11.7771 5.32028 11.3789 4.52852 9.82318 4.52852H6.44434V8.09748H7.82917C8.06393 8.09748 8.13971 8.17244 8.13971 8.40938V24.7066H12.1664V18.5899C12.1664 18.425 12.1634 18.2705 12.159 18.1325C12.7875 18.7143 13.9896 19.5181 15.8662 19.5181C19.8023 19.5181 22.5556 16.369 22.5556 11.8584Z" fill="#192435"/>
<path fill-rule="evenodd" clip-rule="evenodd" d="M39.6401 7.80965C40.3534 7.01088 41.8321 5.85334 44.3867 5.85334C48.7773 5.85334 51.7296 9.32764 51.7296 14.4993C51.7296 19.5898 48.6195 23.1437 44.1734 23.1437C42.0537 23.1437 40.6958 22.2366 39.9859 21.58C39.9909 21.7357 39.9943 21.91 39.9943 22.0961V28.9991H35.4458V10.6071C35.4458 10.3396 35.3602 10.2551 35.0951 10.2551H33.5308V6.22734H37.3474C39.1047 6.22734 39.5545 7.12088 39.6401 7.80965ZM43.5239 9.91316C41.7734 9.91316 39.902 11.1418 39.902 14.5924C39.902 16.7839 41.0147 19.1481 43.4635 19.1481C45.2795 19.1481 47.1157 17.7317 47.1157 14.5603C47.1157 11.7798 45.6722 9.91316 43.5239 9.91316Z" fill="#192435"/>
<path d="M57.8377 18.4226V8.67652C57.8377 7.02991 57.0506 6.22775 55.4377 6.22775H51.3726V10.2554H52.9386C53.2021 10.2554 53.2876 10.3418 53.2876 10.6075V20.3196C53.2876 21.9916 54.0496 22.7684 55.6827 22.7684H59.7528V18.7763H58.1868C57.9351 18.7763 57.8377 18.6747 57.8377 18.4226Z" fill="#192435"/>
<path fill-rule="evenodd" clip-rule="evenodd" d="M64.9714 7.80965C65.6881 7.01088 67.1634 5.85334 69.7213 5.85334C74.1103 5.85334 77.0609 9.32764 77.0609 14.4993C77.0609 19.5898 73.9542 23.1437 69.5064 23.1437C67.3884 23.1437 66.0255 22.2366 65.3189 21.58C65.3239 21.7357 65.3289 21.91 65.3289 22.0961V28.9991H60.7771V10.6071C60.7771 10.3396 60.6916 10.2551 60.428 10.2551H58.8638V6.22734H62.6821C64.4394 6.22734 64.8875 7.12088 64.9714 7.80965ZM65.2332 14.5924C65.2332 16.7839 66.3511 19.1481 68.7931 19.1481C70.6142 19.1481 72.4487 17.7317 72.4487 14.5603C72.4487 11.7798 71.0052 9.91316 68.8569 9.91316C67.1047 9.91316 65.2332 11.1418 65.2332 14.5924Z" fill="#192435"/>
<path fill-rule="evenodd" clip-rule="evenodd" d="M77.293 14.5002C77.293 9.40968 80.7203 5.85413 85.6211 5.85413C89.9917 5.85413 92.9289 9.01537 92.9289 13.72C92.9289 14.1972 92.8399 15.1737 92.8314 15.2143L92.8063 15.5155H82.0193C82.4137 17.7156 84.082 19.1184 86.3613 19.1184C88.655 19.1184 90.4101 17.5605 90.5456 17.4402C90.5504 17.4359 90.5532 17.4335 90.5539 17.4329L90.8476 17.152L92.8298 20.4673L92.6468 20.65C92.5388 20.7554 90.0905 23.1445 86.0861 23.1445C80.9904 23.1445 77.293 19.5077 77.293 14.5002ZM85.6211 9.56872C83.9159 9.56872 82.6823 10.4894 82.1888 12.1123H88.231C88.0447 10.6197 86.9907 9.56872 85.6211 9.56872Z" fill="#192435"/>
<path fill-rule="evenodd" clip-rule="evenodd" d="M109.474 2.44878V18.4225C109.474 18.6747 109.571 18.7762 109.823 18.7762H111.355V22.7684H107.414C105.713 22.7684 105.254 21.8647 105.162 21.1505C104.455 21.9696 103.009 23.144 100.5 23.144C96.1089 23.144 93.1583 19.6714 93.1583 14.4997C93.1583 9.40924 96.2381 5.8537 100.652 5.8537C102.91 5.8537 104.221 6.65756 104.892 7.26848V4.38139C104.892 4.11401 104.806 4.02939 104.543 4.02939H102.977V0H107.042C108.677 0 109.474 0.802156 109.474 2.44878ZM97.799 14.4997C97.799 17.3225 99.1988 19.1485 101.362 19.1485C103.113 19.1485 104.986 17.9216 104.986 14.4693C104.986 12.1999 103.883 9.91356 101.424 9.91356C99.2559 9.91356 97.799 11.7548 97.799 14.4997Z" fill="#192435"/>
<path d="M121.477 6.00922C119.584 6.00922 117.842 7.11092 116.808 8.86584V8.48845C116.808 6.98906 115.987 6.22753 114.376 6.22753H110.465V10.2552H112.03C112.293 10.2552 112.38 10.3399 112.38 10.6072V22.7682H116.929V16.1495C116.929 15.278 117.04 14.4387 117.254 13.6618C117.939 11.3789 119.759 10.5666 121.231 10.5666C121.752 10.5666 122.132 10.6225 122.138 10.6241L122.518 10.6817V6.1226L122.241 6.07522C122.227 6.07184 121.841 6.00922 121.477 6.00922Z" fill="#192435"/>
<path d="M128.992 18.4226V8.67655C128.992 7.02994 128.209 6.22778 126.595 6.22778H122.918V10.2555H124.093C124.359 10.2555 124.442 10.3418 124.442 10.6075V20.3196C124.442 21.9916 125.206 22.7684 126.843 22.7684H130.909V18.7763H129.341C129.09 18.7763 128.992 18.6747 128.992 18.4226Z" fill="#192435"/>
<path d="M146.165 6.22778H143.738C142.32 6.22778 141.559 6.72364 141.109 7.94041L138.144 16.292C138.041 16.6017 137.945 16.9486 137.863 17.282C137.778 16.9486 137.675 16.5966 137.563 16.2869L134.597 7.93871C134.142 6.7084 133.407 6.22778 131.971 6.22778H129.389V10.2555H130.058C130.415 10.2555 130.529 10.3774 130.613 10.6008L135.203 22.7685H140.319L144.909 10.6008C144.993 10.3774 145.111 10.2555 145.466 10.2555H146.165V6.22778Z" fill="#192435"/>
<path fill-rule="evenodd" clip-rule="evenodd" d="M145.672 14.5002C145.672 9.40968 149.099 5.85413 153.998 5.85413C158.371 5.85413 161.31 9.01537 161.31 13.72C161.31 14.1972 161.218 15.1737 161.213 15.2143L161.188 15.5155H150.397C150.792 17.7156 152.46 19.1184 154.741 19.1184C157.107 19.1184 158.915 17.4481 158.931 17.4329L159.232 17.152L161.21 20.4673L161.025 20.65C160.922 20.7515 158.472 23.1445 154.463 23.1445C149.367 23.1445 145.672 19.5077 145.672 14.5002ZM153.998 9.56872C152.294 9.56872 151.065 10.4894 150.567 12.1123H156.609C156.423 10.6197 155.371 9.56872 153.998 9.56872Z" fill="#192435"/>
<path d="M57.5271 0.00109863H53.4722V4.30803H57.5271V0.00109863Z" fill="#192435"/>
<path d="M128.684 0.00109863H124.627V4.30803H128.684V0.00109863Z" fill="#192435"/>
</g>
</svg>
