<svg preserveAspectRatio="none" width="100%" height="100%" overflow="visible" style="display: block;" viewBox="0 0 85.3719 26.3411" fill="none" xmlns="http://www.w3.org/2000/svg">
<g id="Vector">
<path d="M64.865 24.2157C64.7007 24.8865 64.557 25.4135 64.4133 25.9747H61.0458V0H64.9745V9.58225C65.1799 9.32216 65.2825 9.21265 65.3715 9.09629C66.0423 8.17229 66.9115 7.56998 68.034 7.33727C69.8204 6.9882 71.3467 7.77531 71.8874 9.49327C72.2365 10.561 72.4624 11.704 72.4897 12.8197C72.5445 15.6875 72.5034 18.5485 72.4008 21.4163C72.3597 22.2924 72.0928 23.189 71.7574 24.0104C70.6554 26.7208 67.0552 27.1315 65.2688 24.7838C65.1593 24.6401 65.0567 24.4826 64.865 24.2157ZM65.0566 21.8202C65.0566 22.5936 65.4673 23.0658 66.2407 23.2438C67.0005 23.4218 67.6165 23.1274 67.9245 22.4225C68.0545 22.1282 68.1846 21.8202 68.1914 21.5121C68.2667 18.6101 68.3352 15.708 68.3557 12.7991C68.3557 12.2584 68.2256 11.6972 68.0614 11.1702C67.7534 10.2188 66.9047 9.93816 66.0696 10.4926C65.4399 10.9169 65.0566 11.5192 65.0566 12.32V21.8202ZM54.3793 7.70687H58.4928V25.9884H55.2828C55.1664 25.2971 55.05 24.5853 54.9132 23.7503C54.6941 24.072 54.5641 24.2773 54.4272 24.4826C53.3595 26.0227 51.8468 26.5497 50.0604 26.2691C48.5341 26.0227 47.617 24.8454 47.4116 22.9153C47.35 22.3403 47.3226 21.7586 47.3226 21.1836C47.309 16.9058 47.3226 12.6143 47.3226 8.33656V7.69318H51.4841V8.43922C51.4841 12.5733 51.4704 16.7005 51.4978 20.8345C51.4978 21.4232 51.5594 22.0323 51.662 22.621C51.7784 23.2233 52.2164 23.4423 52.8051 23.4012C53.7564 23.3259 54.4135 22.621 54.4135 21.6764V8.51451C54.3793 8.24758 54.3793 8.00118 54.3793 7.70687ZM26.0569 7.69318H30.1909V8.4666C30.1909 12.5801 30.1773 16.6868 30.2046 20.7866C30.2046 21.3753 30.2594 21.9844 30.3826 22.5594C30.54 23.237 30.937 23.456 31.6146 23.367C32.5523 23.237 33.1204 22.5867 33.1272 21.6353V7.72056H37.2407V25.9884H34.0444C33.928 25.3108 33.8117 24.6127 33.6611 23.7298C33.4558 24.0378 33.3394 24.2157 33.223 24.4005C32.1553 25.9679 30.6564 26.5428 28.8289 26.2622C27.3642 26.0432 26.4676 24.9618 26.1938 23.189C26.1185 22.6346 26.0637 22.0871 26.0637 21.5327C26.05 17.0906 26.05 12.628 26.05 8.18598L26.0569 7.69318ZM23.9351 17.4534C23.9214 18.0694 23.8803 18.6854 23.8461 19.3014C23.6887 21.1494 23.6134 23.7708 22.1213 25.1192C21.1699 25.9679 19.9653 26.2759 18.7196 26.317C18.1652 26.3307 17.604 26.3307 17.0496 26.2554C14.4281 25.8584 13.2098 24.7017 12.7718 21.8202C12.2721 18.4937 12.2311 15.1126 12.8265 11.7862C13.4425 8.3434 15.5643 7.12509 18.8634 7.35095C21.9434 7.56998 23.3191 9.58909 23.6819 12.4638C23.8803 14.1133 23.9762 15.7833 23.9351 17.4534ZM19.7463 16.8237C19.7463 15.6533 19.7737 14.476 19.7326 13.3056C19.7052 12.628 19.6162 11.9436 19.4725 11.2728C19.3082 10.4994 18.8154 10.1298 18.1994 10.1435C17.5971 10.1572 17.1728 10.5268 16.9537 11.2455C16.8785 11.5124 16.7963 11.7862 16.7963 12.0531C16.7963 13.8874 16.7826 15.7286 16.7689 17.5629C16.7553 19.274 16.5362 21.0673 17.0769 22.7031C17.2412 23.2027 17.6656 23.4765 18.22 23.4765C18.7607 23.4765 19.1166 23.2096 19.3151 22.7305C19.4725 22.3609 19.6094 21.957 19.6094 21.5601C19.6573 19.9858 19.7463 18.4048 19.7463 16.8237ZM6.73496 13.3809C7.09771 11.6082 7.43994 9.87656 7.81638 8.13807C8.28865 5.92731 8.81567 3.71654 9.2811 1.49894C9.39745 0.958225 9.61648 0.82818 10.1298 0.841869C11.2318 0.882936 12.3543 0.855558 13.5315 0.855558C13.1482 2.26552 12.7718 3.60703 12.4022 4.92801C11.2318 9.07576 10.0614 13.2372 8.90465 17.3986C8.81567 17.7203 8.77461 18.0694 8.77461 18.4116C8.76092 20.684 8.77461 22.9495 8.77461 25.2218V25.9611H4.7569C4.74322 25.7557 4.71584 25.5504 4.71584 25.345C4.71584 24.0583 4.61317 22.7647 4.72953 21.4916C5.02384 18.4321 4.05192 15.6191 3.26481 12.7718C2.22445 9.00732 1.17041 5.22917 0.130047 1.46472C0.0752908 1.28676 0.0547557 1.09511 0 0.876091H4.09984C4.96224 5.03068 5.83149 9.18527 6.73496 13.3809ZM85.3437 18.1515H78.4171C78.4923 19.5409 78.5197 20.8619 78.6635 22.1692C78.7661 23.0795 79.2658 23.4697 80.0529 23.4765C80.8742 23.4902 81.3533 23.0795 81.545 22.1761C81.6066 21.8818 81.6476 21.5874 81.675 21.2863C81.7024 21.0193 81.7161 20.7319 81.7366 20.3486C82.907 20.4102 84.05 20.4786 85.1794 20.5265C85.8365 22.4772 84.6524 24.9823 82.6606 25.7557C81.0932 26.3717 79.4848 26.3717 77.8832 25.8995C76.6991 25.5504 75.8162 24.7975 75.4192 23.6408C75.0496 22.5594 74.7005 21.43 74.6252 20.3007C74.4199 17.515 74.3446 14.7019 74.769 11.9094C74.8442 11.4439 74.9743 10.9991 75.118 10.5473C75.693 8.68563 76.9455 7.5426 78.8825 7.35095C79.9365 7.24829 81.0248 7.28935 82.0651 7.46731C83.7489 7.76162 84.6455 8.97309 85.0357 10.561C85.2136 11.3071 85.3437 12.0736 85.371 12.8334C85.3779 14.5787 85.3437 16.3104 85.3437 18.1515ZM81.4081 15.7491C81.4081 14.3734 81.4218 13.0798 81.3944 11.7793C81.3944 11.4713 81.278 11.1496 81.1617 10.8553C80.929 10.2804 80.443 10.123 79.8612 10.123C79.2795 10.123 78.9099 10.4173 78.7661 10.9443C78.3281 12.5254 78.4718 14.1407 78.4855 15.7628C79.5327 15.7491 80.4841 15.7491 81.4081 15.7491Z" fill="#282828"/>
<path d="M40.4165 4.20931H36.344V0.910278H48.4998V4.18878H44.4547V25.961H40.4233L40.4165 4.20931Z" fill="#282828"/>
</g>
</svg>
