<svg preserveAspectRatio="none" width="100%" height="100%" overflow="visible" style="display: block;" viewBox="0 0 21.036 14.9197" fill="none" xmlns="http://www.w3.org/2000/svg">
<path id="Vector" d="M17.98 14.9197C17.8 14.9197 17.681 14.7995 17.681 14.6164V6.2042C17.681 4.3277 16.751 3.0257 14.952 3.0257C13.215 3.0257 12.196 4.3271 12.196 6.2042V14.6164C12.196 14.7989 12.075 14.9197 11.897 14.9197H9.13899C8.95899 14.9197 8.839 14.7995 8.839 14.6164V6.2042C8.839 4.3277 7.91 3.0257 6.114 3.0257C4.376 3.0257 3.356 4.3271 3.356 6.2042V14.6164C3.356 14.7989 3.236 14.9197 3.056 14.9197H0.298996C0.117996 14.9197 0 14.7995 0 14.6164V0.635201C0 0.453201 0.117996 0.3319 0.298996 0.3319H3.056C3.236 0.3319 3.356 0.453201 3.356 0.635201V1.6945H3.386C4.016 0.7863 5.27399 0 7.19099 0C8.89999 0 10.278 0.694699 11.146 1.936H11.177C12.285 0.726799 13.724 0 15.792 0C19.147 0 21.036 2.2994 21.036 5.4167V14.6158C21.036 14.7989 20.915 14.9197 20.735 14.9197H17.98Z" fill="var(--fill-0, #204156)"/>
</svg>
