<svg preserveAspectRatio="none" width="100%" height="100%" overflow="visible" style="display: block;" viewBox="0 0 25.8467 11.2283" fill="none" xmlns="http://www.w3.org/2000/svg">
<path id="Vector" d="M6.35345 9.95318C8.09967 8.23261 10.46 7.27131 12.9172 7.28001C15.3743 7.28871 17.7278 8.26669 19.4616 9.99959C19.7909 10.3709 20.193 10.6714 20.6432 10.8823C21.0934 11.0933 21.5822 11.2104 22.0796 11.2264C22.577 11.2425 23.0724 11.1571 23.5353 10.9755C23.9983 10.7939 24.4191 10.52 24.7718 10.1706C25.1245 9.82123 25.4017 9.40373 25.5863 8.94379C25.7709 8.48384 25.859 7.99118 25.8453 7.49608C25.8315 7.00098 25.7162 6.51391 25.5063 6.06482C25.2965 5.61573 24.9966 5.2141 24.625 4.88462C23.0982 3.34534 21.2809 2.12144 19.2774 1.28322C17.274 0.444989 15.1239 0.0089482 12.9507 0.000136285C10.7774 -0.00867563 8.62384 0.409915 6.6136 1.23187C4.60337 2.05382 2.77608 3.26294 1.23668 4.78979C0.864178 5.11647 0.562567 5.51536 0.350309 5.96207C0.138051 6.40877 0.0196102 6.89389 0.00223542 7.38773C-0.0151394 7.88157 0.0689172 8.37375 0.249261 8.83414C0.429605 9.29452 0.702442 9.71344 1.05108 10.0653C1.39971 10.4171 1.8168 10.6944 2.27684 10.8802C2.73687 11.066 3.23016 11.1564 3.72652 11.1459C4.22288 11.1355 4.71187 11.0243 5.16356 10.8192C5.61525 10.6141 6.02014 10.3194 6.35345 9.95318V9.95318Z" fill="var(--fill-0, #67B3FF)"/>
</svg>
