<svg preserveAspectRatio="none" width="100%" height="100%" overflow="visible" style="display: block;" viewBox="0 0 149 32" fill="none" xmlns="http://www.w3.org/2000/svg">
<g id="logo-layer">
<path id="Vector" d="M81.0468 10.5597H84.3788V19.657C84.3788 24.2747 81.786 26.9233 77.2691 26.9233C72.7991 26.9233 70.2297 24.3208 70.2297 19.7837V10.5713H73.5617V19.68C73.5617 22.3747 74.9109 23.8141 77.316 23.8141C79.7211 23.8141 81.0468 22.4092 81.0468 19.7952V10.5597ZM62.2752 17.0545H54.7431V10.5597H51.4112V26.6815H54.7431V20.1291H62.2635V26.6815H65.5955V10.5597H62.2635V17.0545H62.2752ZM145.715 10.5597V26.6584H149V10.5597H145.715ZM132.634 19.7376H138.699V16.8012H132.634V13.4962H141.433V10.5713H129.348V26.67H141.749V23.7335H132.634V19.7376ZM119.564 21.6377L115.833 10.5482H113.111L109.38 21.6377L105.755 10.5597H102.212L107.937 26.67H110.694L114.425 16.0872L118.156 26.67H120.936L126.65 10.5597H123.189L119.564 21.6377ZM96.287 10.6519L103.455 26.67H99.9592L98.4809 23.3189H90.9606L90.855 23.5493L89.4706 26.67H86.0682L93.307 10.5597H96.2166L96.287 10.6519ZM97.0848 20.0255L94.7149 14.6247L92.3567 20.0255L92.1925 20.394H97.2373L97.0848 20.0255Z" fill="var(--fill-0, #24272A)"/>
<path id="Vector_2" d="M18.6078 24.9657C18.6548 24.9311 18.6665 24.862 18.643 24.8044C15.408 17.9796 11.3721 11.5487 6.61749 5.64261C6.61749 5.64261 2.83971 9.16636 3.10955 12.7016C3.17276 13.5167 3.39906 14.3115 3.77552 15.0406C4.15197 15.7697 4.67119 16.4189 5.30348 16.9508C8.60024 20.1061 16.5782 24.0905 18.4319 25.0002C18.4905 25.0232 18.5609 25.0117 18.6078 24.9657M17.376 27.6603C17.3525 27.5912 17.2821 27.5451 17.2 27.5451L3.91907 27.9942C5.36214 30.5161 7.79071 32.4738 10.3131 31.875C12.0612 31.4489 16.0033 28.7427 17.3056 27.8215C17.4112 27.7409 17.376 27.6718 17.376 27.6603M17.5754 26.4972C17.6458 26.3936 17.5285 26.3015 17.5285 26.3015C11.6975 22.4322 0.387666 16.4902 0.387666 16.4902C0.0127962 17.618 -0.0920715 18.8154 0.0812136 19.9895C0.254499 21.1635 0.701269 22.2825 1.3868 23.2595C2.07233 24.2365 2.97816 25.0452 4.03389 25.6227C5.08961 26.2002 6.26679 26.531 7.47394 26.5893C7.67339 26.6239 15.3697 26.5893 17.4346 26.5778C17.4933 26.5663 17.5402 26.5433 17.5754 26.4972M18.4553 0.0115155C17.8804 0.0575776 16.3201 0.414559 16.3201 0.414559C12.8004 1.30125 11.9674 4.44499 11.9674 4.44499C11.3221 6.41415 11.9791 8.59058 11.9791 8.59058C13.1523 13.7035 18.9246 22.1213 20.1682 23.8832C20.2504 23.9753 20.3207 23.9408 20.3207 23.9408C20.3911 23.9177 20.4498 23.8602 20.4498 23.7796C22.3739 4.98622 18.4553 0.0115155 18.4553 0.0115155M22.8549 23.9177C22.9253 23.9408 23.0074 23.9177 23.0426 23.8486C24.3214 22.0407 30.0585 13.6689 31.2317 8.57906C31.2317 8.57906 31.8653 6.11474 31.2552 4.43348C31.2552 4.43348 30.387 1.24368 26.8673 0.403043C26.8673 0.403043 25.8584 0.149702 24.779 0C24.779 0 20.837 4.97471 22.7611 23.768C22.7493 23.8371 22.7963 23.8947 22.8549 23.9177M25.9992 27.5566C25.9679 27.5628 25.9382 27.5752 25.912 27.593C25.8858 27.6109 25.8635 27.6337 25.8466 27.6603C25.8349 27.7294 25.8466 27.787 25.8936 27.833C27.1606 28.7312 31.0206 31.3798 32.8742 31.8865C32.8742 31.8865 36.3118 33.038 39.2918 28.0058L25.9992 27.5566ZM42.8349 16.4672C42.8349 16.4672 31.5485 22.4207 25.7058 26.2899C25.6472 26.336 25.612 26.4051 25.6355 26.4742C25.6355 26.4742 25.6941 26.5778 25.7762 26.5778C27.8646 26.5778 35.7721 26.5893 35.9833 26.5548C36.7694 26.4972 37.5437 26.3245 38.2711 26.0366C38.2711 26.0366 41.0868 25.1614 42.5416 22.0177C42.5416 22.0177 43.8439 19.4612 42.8349 16.4672ZM24.6382 24.9657C24.6851 25.0002 24.7555 25.0117 24.8142 24.9772C26.7148 24.0444 34.6341 20.0946 37.9074 16.9508C37.9074 16.9508 39.984 15.3156 40.0896 12.6786C40.3242 9.02817 36.5816 5.64261 36.5816 5.64261C36.5816 5.64261 29.6596 13.8762 24.5796 24.7584C24.5714 24.795 24.5725 24.833 24.5827 24.8691C24.5929 24.9053 24.612 24.9384 24.6382 24.9657" fill="var(--fill-0, #CE0E2D)"/>
</g>
</svg>
