<svg preserveAspectRatio="none" width="100%" height="100%" overflow="visible" style="display: block;" viewBox="0 0 13.3192 21.4138" fill="none" xmlns="http://www.w3.org/2000/svg">
<path id="Vector" d="M0.209752 0C0.0858106 0 0 0.0572063 0 0.209753V20.4985C0 20.5843 0.0858106 20.7369 0.209752 20.7655C1.63034 21.204 3.11767 21.4138 4.65268 21.4138C9.04793 21.4138 13.3192 18.687 13.3192 13.1953C13.3192 9.21956 10.5925 6.19722 6.32116 6.19722C5.33914 6.19722 4.42386 6.34977 3.62298 6.61673L3.58485 0.238354C3.58485 0.0286032 3.52764 0 3.31789 0H0.209752ZM9.66765 13.5576C9.66765 16.8469 7.41759 18.3914 4.98637 18.3914C4.48106 18.3914 4.03295 18.3628 3.62298 18.2389V9.58186C4.09016 9.40071 4.65268 9.24816 5.6919 9.24816C8.03731 9.24816 9.66765 10.7355 9.66765 13.5576Z" fill="var(--fill-0, #FA0C00)"/>
</svg>
