<svg preserveAspectRatio="none" width="100%" height="100%" overflow="visible" style="display: block;" viewBox="0 0 30.7592 35.989" fill="none" xmlns="http://www.w3.org/2000/svg">
<path id="Vector" d="M9.6379 8.08629C9.6379 8.44436 9.60806 9.04113 9.25 9.42903C8.86209 9.7871 8.26532 9.81694 7.90726 9.81694H4.0879C2.98387 9.81694 2.32742 9.81694 1.87984 9.87661C1.64113 9.90645 1.34274 10.0258 1.19355 10.0855C1.13387 10.1153 1.13387 10.0855 1.16371 10.0556L9.87661 1.19355C9.90645 1.16371 9.93629 1.16371 9.90645 1.22339C9.84677 1.37258 9.72742 1.67097 9.69758 1.90968C9.6379 2.35726 9.6379 3.01371 9.6379 4.11774V8.08629ZM17.754 34.8815C16.7395 34.225 16.2024 33.3597 15.9935 32.8226C15.7847 32.3153 15.6653 31.7484 15.6653 31.1815C15.6653 28.7048 17.6943 26.6758 20.2008 26.6758C20.9468 26.6758 21.5435 27.2726 21.5435 28.0186C21.5435 28.5258 21.275 28.9436 20.8573 29.1823C20.7081 29.2718 20.4992 29.3315 20.35 29.3613C20.2008 29.3911 19.6339 29.4508 19.3653 29.6895C19.0669 29.9282 18.8282 30.3161 18.8282 30.7339C18.8282 31.1815 19.0073 31.5992 19.3056 31.8976C19.8427 32.4347 20.5589 32.7331 21.3347 32.7331C23.3637 32.7331 25.0048 31.0919 25.0048 29.0629C25.0048 27.2427 23.7814 25.6315 22.1702 24.9153C21.9314 24.796 21.5435 24.7065 21.1855 24.6169C20.7379 24.5274 20.3202 24.4677 20.2903 24.4677C19.0371 24.3185 15.904 23.3339 15.6952 20.5589C15.6952 20.5589 14.7702 24.7363 12.9202 25.8702C12.7411 25.9597 12.5024 26.0492 12.2339 26.1089C11.9653 26.1686 11.6669 26.1984 11.5774 26.1984C8.56371 26.3774 5.37097 25.4226 3.1629 23.1548C3.1629 23.1548 1.67097 21.9315 0.895161 18.5C0.716129 17.6645 0.358064 16.1726 0.149194 14.7702C0.0596774 14.2629 0.0298387 13.875 0 13.5169C0 12.0548 0.895161 11.0702 2.02903 10.921C2.05887 10.921 2.14839 10.921 2.20806 10.921C2.89435 10.921 8.11613 10.921 8.11613 10.921C9.16048 10.921 9.75726 10.6524 10.1452 10.2944C10.6524 9.81694 10.7718 9.13065 10.7718 8.325C10.7718 8.325 10.7718 2.89435 10.7718 2.20806C10.7718 2.17823 10.7718 2.05887 10.7718 2.02903C10.921 0.925 11.9056 0 13.3677 0C13.3677 0 13.8153 0 14.0839 0C14.3823 0 14.7403 0.0298387 15.0685 0.0596774C15.3073 0.0895161 15.5161 0.149194 15.8742 0.23871C17.6943 0.68629 18.0823 2.53629 18.0823 2.53629C18.0823 2.53629 21.5137 3.13306 23.2443 3.43145C24.8855 3.72984 28.9435 3.99839 29.7193 8.08629C31.5395 17.8137 30.4355 27.2427 30.346 27.2427C29.0629 36.4331 21.4242 35.9855 21.4242 35.9855C19.7831 35.9855 18.5597 35.4484 17.754 34.8815ZM24.6169 15.3371C23.6323 15.2476 22.7968 15.6355 22.4984 16.3815C22.4387 16.5306 22.379 16.7097 22.4089 16.7992C22.4387 16.8887 22.4984 16.9185 22.5581 16.9484C22.9161 17.1274 23.5129 17.2169 24.3782 17.3065C25.2435 17.396 25.8403 17.4556 26.2282 17.396C26.2879 17.396 26.3476 17.3661 26.4073 17.2766C26.4669 17.1871 26.4371 17.0081 26.4371 16.8589C26.3177 16.0234 25.6016 15.4565 24.6169 15.3371Z" fill="var(--fill-0, #00A82D)"/>
</svg>
