<svg preserveAspectRatio="none" width="100%" height="100%" overflow="visible" style="display: block;" viewBox="0 0 12.7358 20.9087" fill="none" xmlns="http://www.w3.org/2000/svg">
<path id="Vector" d="M12.4338 0H9.6768C9.4968 0 9.3768 0.1213 9.3768 0.301V7.3814V13.238V13.284V13.3313V14.1089H9.36179C9.32879 14.9442 9.2378 15.4931 9.0778 16.0076C8.6878 17.2174 7.7568 17.8836 6.3808 17.8836C5.0338 17.8836 4.1048 17.2174 3.7138 16.0076C3.5048 15.3408 3.4138 14.6158 3.4138 13.284C3.4138 11.9535 3.5038 11.2255 3.7138 10.5617C4.0968 9.3752 4.9958 8.7114 6.2998 8.6851L7.4768 8.6857C7.6568 8.6857 7.77679 8.5649 7.77679 8.3847V5.9598C7.77679 5.779 7.6568 5.6582 7.4768 5.6582H7.33279L5.55379 5.6577C5.53979 5.6577 5.52579 5.6577 5.51279 5.6577C5.49879 5.6577 5.4868 5.6577 5.4738 5.6577H5.4328V5.6582C3.0178 5.6833 1.2498 6.8616 0.508797 9.1664C0.149297 10.2875 0 11.3171 0 13.2829C0 15.2493 0.149297 16.2794 0.508797 17.3982C1.2578 19.728 3.05679 20.9087 5.51279 20.9087C7.46179 20.9087 8.6598 20.1842 9.3488 19.1838H9.3778V20.2729C9.3778 20.456 9.49779 20.5762 9.67879 20.5762H12.4358C12.6148 20.5762 12.7358 20.4566 12.7358 20.2729V0.301C12.7338 0.1207 12.6128 0 12.4338 0Z" fill="var(--fill-0, #204156)"/>
</svg>
