<svg preserveAspectRatio="none" width="100%" height="100%" overflow="visible" style="display: block;" viewBox="0 0 23.5317 9.43932" fill="none" xmlns="http://www.w3.org/2000/svg">
<path id="Vector" d="M3.61093 1.76593C3.11298 1.7677 2.63594 1.9663 2.28384 2.3184C1.93173 2.67051 1.73314 3.14755 1.73136 3.6455V9.35832H0V0.330985H1.73136V1.09225C2.25683 0.391616 3.0922 -0.0125923 3.96798 0.000881293C5.07282 -0.026066 6.10355 0.566774 6.64923 1.53014C7.32292 0.586984 8.29302 0.0143549 9.34396 0.000881293C11.3179 0.000881293 12.544 1.59077 12.5507 3.55792V9.30442H10.8193V3.57813C10.8701 3.22143 10.8176 2.85765 10.6681 2.52983C10.5186 2.20201 10.2784 1.92386 9.97579 1.72827C9.6732 1.53269 9.32092 1.42786 8.96063 1.42617C8.60034 1.42449 8.24711 1.52602 7.94271 1.71877C7.63999 1.91612 7.40033 2.19627 7.25224 2.5259C7.10415 2.85552 7.05385 3.22075 7.10734 3.57813V9.29095H5.44335V3.58487C5.44157 3.08692 5.24297 2.60988 4.89087 2.25777C4.53877 1.90567 4.06172 1.70707 3.56377 1.7053L3.61093 1.76593ZM21.8003 1.29435C21.4063 0.883134 20.9322 0.556857 20.4074 0.335578C19.8826 0.114298 19.3181 0.00269097 18.7486 0.00761762C16.1684 0.00761762 14.3696 2.19035 14.3696 4.72339C14.3696 7.25643 16.1886 9.43916 18.7486 9.43916C19.3181 9.44409 19.8826 9.33248 20.4074 9.1112C20.9322 8.88992 21.4063 8.56364 21.8003 8.15243V9.17643H23.5317V0.149092H21.8003V1.29435ZM16.074 4.7975C15.9865 3.7196 16.5119 2.68213 17.4349 2.11624C18.3578 1.55035 19.4559 1.55035 20.4395 2.11624C20.89 2.39584 21.2551 2.7937 21.495 3.26648C21.735 3.73926 21.8406 4.26883 21.8003 4.7975C21.8879 5.87539 21.3624 6.91285 20.4395 7.47875C19.5166 8.04464 18.4185 8.04464 17.4349 7.47875C16.9844 7.19915 16.6193 6.80129 16.3793 6.32851C16.1394 5.85572 16.0338 5.32616 16.074 4.7975Z" fill="var(--fill-0, black)"/>
</svg>
