<svg preserveAspectRatio="none" width="100%" height="100%" overflow="visible" style="display: block;" viewBox="0 0 121.125 19" fill="none" xmlns="http://www.w3.org/2000/svg">
<path id="Vector" d="M6.8875 15.3188C6.4125 15.4375 5.81875 15.5562 5.225 15.5562C4.0375 15.5562 3.5625 14.8438 3.5625 13.6563V8.3125H6.8875C7.71875 8.3125 8.55 7.71875 8.55 6.76875C8.55 5.81875 7.8375 5.225 6.8875 5.225H3.5625V3.44375C3.5625 2.375 2.73125 1.6625 1.78125 1.6625C0.83125 1.6625 0 2.49375 0 3.44375V13.775C0 16.7437 1.425 18.8813 4.75 18.8813C5.7 18.8813 7.00625 18.7625 7.95625 18.2875C8.7875 17.9313 9.025 17.3375 9.025 16.7437C9.025 15.9125 8.19375 15.0813 6.8875 15.3188ZM18.7625 4.75C18.2875 4.63125 17.3375 4.5125 16.5063 4.5125C13.5375 4.5125 11.875 6.29375 11.875 9.025V17.1C11.875 18.05 12.7062 18.8813 13.6562 18.8813C14.6063 18.8813 15.4375 18.05 15.4375 17.1V9.7375C15.4375 8.55 15.9125 8.075 16.7437 8.075C17.575 8.075 18.05 8.3125 18.7625 8.3125C19.8312 8.3125 20.425 7.3625 20.425 6.65C20.3063 5.7 19.8312 5.10625 18.7625 4.75ZM28.6187 4.5125C25.2937 4.5125 22.9188 6.65 22.5625 10.0938C22.5625 10.925 22.4437 12.35 22.5625 13.4188C22.8 16.7438 25.175 19 28.7375 19C30.4 19 31.9437 18.6437 32.8937 18.05C33.6062 17.575 33.725 17.1 33.725 16.625C33.725 15.675 32.8938 14.725 31.4688 15.2C30.6375 15.5563 29.6875 15.7938 28.7375 15.7938C27.075 15.7938 25.7688 14.9625 25.7688 13.3V12.9438H32.5375C33.725 12.9438 34.3188 12.2313 34.3188 11.1625V10.5688C34.4375 6.8875 32.0625 4.5125 28.6187 4.5125ZM30.875 10.5688H25.8875C25.8875 8.7875 26.7187 7.6 28.6187 7.6C30.2812 7.6 31.2313 8.66875 31.1125 10.2125C31.1125 10.45 31.1125 10.5688 30.875 10.5688ZM42.8687 4.5125C39.5437 4.5125 37.1688 6.65 36.8125 10.0938C36.8125 10.925 36.6937 12.35 36.8125 13.4188C37.05 16.7438 39.425 19 42.9875 19C44.65 19 46.1937 18.6437 47.1437 18.05C47.8562 17.575 47.975 17.1 47.975 16.625C47.975 15.675 47.1438 14.725 45.7188 15.2C44.8875 15.5563 43.9375 15.7938 42.9875 15.7938C41.325 15.7938 40.0187 14.9625 40.0187 13.3V12.9438H46.7875C47.975 12.9438 48.5688 12.2313 48.5688 11.1625V10.5688C48.6875 6.8875 46.3125 4.5125 42.8687 4.5125ZM45.125 10.5688H40.1375C40.1375 8.7875 40.9687 7.6 42.8687 7.6C44.5312 7.6 45.4812 8.66875 45.3625 10.2125C45.3625 10.45 45.3625 10.5688 45.125 10.5688ZM102.837 10.45L100.938 9.975C99.75 9.7375 99.3937 9.38125 99.3937 8.7875C99.3937 8.19375 99.9875 7.71875 101.294 7.71875C102.006 7.71875 102.837 7.95625 103.55 8.3125C104.381 8.7875 105.331 8.66875 105.806 8.075C106.4 7.48125 106.4 6.4125 105.688 5.7C104.737 4.9875 103.075 4.5125 101.413 4.5125C98.325 4.5125 96.0688 6.05625 96.0688 8.90625C96.0688 11.1625 97.7312 12.35 99.8687 12.9438C100.937 13.1813 100.819 13.1813 101.769 13.4188C102.837 13.6563 103.312 14.1313 103.312 14.6063C103.312 15.3188 102.719 15.7938 101.294 15.7938C100.106 15.7938 99.0375 15.4375 98.2062 14.9625C97.375 14.3687 96.425 14.6063 95.95 15.3188C95.475 16.0313 95.5937 16.9812 96.3062 17.4562C97.2562 18.2875 98.8 19 101.294 19C104.381 19 106.756 17.3375 106.756 14.4875C106.756 12.35 105.45 11.0438 102.837 10.45ZM119.344 12.9438C120.531 12.9438 121.125 12.2313 121.125 11.1625V10.5688C121.125 6.8875 118.75 4.5125 115.306 4.5125C111.981 4.5125 109.606 6.65 109.25 10.0938C109.25 10.925 109.131 12.35 109.25 13.4188C109.488 16.7438 111.862 19 115.425 19C117.087 19 118.631 18.6437 119.581 18.05C120.294 17.575 120.412 17.1 120.412 16.625C120.412 15.675 119.581 14.725 118.156 15.2C117.325 15.5563 116.375 15.7938 115.425 15.7938C113.762 15.7938 112.456 14.9625 112.456 13.3V12.9438H119.344ZM115.306 7.6C116.969 7.6 117.919 8.66875 117.8 10.2125C117.8 10.45 117.681 10.5688 117.562 10.5688H112.575C112.575 8.7875 113.525 7.6 115.306 7.6ZM71.8438 4.5125C68.2812 4.5125 65.6688 6.76875 65.3125 9.85625C65.1937 10.925 65.1937 12.5875 65.3125 13.6563C65.55 16.7438 68.2812 19 71.8438 19C75.4062 19 78.0188 16.7438 78.2563 13.6563C78.375 12.5875 78.375 11.0438 78.2563 9.975C78.0188 6.76875 75.4062 4.5125 71.8438 4.5125ZM74.6938 13.0625C74.575 14.6063 73.5062 15.5562 71.8438 15.5562C70.1813 15.5562 69.1125 14.4875 68.9937 13.0625C68.9937 12.35 68.9937 11.1625 68.9937 10.45C69.1125 8.90625 70.1813 7.95625 71.8438 7.95625C73.5062 7.95625 74.575 9.025 74.6938 10.45C74.8125 11.1625 74.8125 12.35 74.6938 13.0625ZM57.7125 4.5125C56.4062 4.5125 54.9813 4.9875 54.5063 5.58125V1.78125C54.5063 0.7125 53.7938 0 52.8438 0C51.8937 0 51.1812 0.83125 51.1812 1.78125V17.1C51.1812 18.05 52.0125 18.8813 52.9625 18.8813C53.9125 18.8813 54.625 18.05 54.625 17.1V9.14375C55.2188 8.55 56.1688 8.075 57.3563 8.075C58.7813 8.075 59.6125 8.90625 59.6125 10.5688V17.1C59.6125 18.1688 60.325 19 61.275 19C62.3437 19 63.0562 18.1688 63.0562 17.1V10.3312C62.9375 6.53125 61.0375 4.5125 57.7125 4.5125ZM90.9625 4.63125C90.0125 4.63125 89.1812 5.4625 89.1812 6.4125V14.8438C88.5875 15.2 87.7562 15.5562 86.6875 15.5562C85.2625 15.5562 84.1938 14.725 84.1938 13.0625V6.4125C84.1938 5.34375 83.3625 4.5125 82.4125 4.5125C81.3438 4.5125 80.75 5.34375 80.75 6.4125V13.1812C80.75 16.8625 82.8875 18.8813 86.5688 18.8813C89.3 18.8813 91.2 17.9312 92.0312 17.3375C92.5063 17.1 92.625 16.7437 92.625 16.15V6.4125C92.625 5.4625 91.9125 4.63125 90.9625 4.63125Z" fill="var(--fill-0, #3E474F)"/>
</svg>
