<svg preserveAspectRatio="none" width="100%" height="100%" overflow="visible" style="display: block;" viewBox="0 0 75.7532 20.7469" fill="none" xmlns="http://www.w3.org/2000/svg">
<path id="Vector" d="M38.713 0.348687H36.0409V20.3546H46.8814V17.8702H38.713V0.348687ZM57.2005 16.846C56.527 17.5433 55.3974 18.2407 53.8767 18.2407C51.8346 18.2407 51.009 17.2382 51.009 15.9089C51.009 13.9257 52.3777 12.9668 55.3105 12.9668C55.8536 12.9668 56.7443 13.0322 57.2005 13.1194V16.846ZM54.4415 4.72908C52.269 4.72908 50.2921 5.49183 48.7497 6.77762L49.7056 8.43388C50.7918 7.80189 52.1387 7.1481 54.0722 7.1481C56.2663 7.1481 57.2439 8.28133 57.2439 10.1773V11.158C56.8095 11.0708 55.9405 11.0055 55.3756 11.0055C50.6832 11.0055 48.3152 12.6617 48.3152 16.105C48.3152 19.1996 50.2052 20.7469 53.0729 20.7469C55.0063 20.7469 56.8529 19.8534 57.4829 18.4151L57.9609 20.3764H59.8509V10.1337C59.8292 6.88658 58.4171 4.72908 54.4415 4.72908ZM68.4755 18.3497C67.4762 18.3497 66.5855 18.2189 65.912 17.9138V8.6736C66.8244 7.91085 67.9541 7.36603 69.3879 7.36603C71.9731 7.36603 72.9724 9.19664 72.9724 12.1605C72.9942 16.3665 71.3648 18.3497 68.4755 18.3497ZM69.6052 4.72908C67.2155 4.72908 65.912 6.36355 65.912 6.36355V3.77018V0.348687H63.2833V19.8752C64.5868 20.42 66.3899 20.7251 68.3451 20.7251C73.3418 20.7251 75.7532 17.5216 75.7532 11.9861C75.7532 7.62754 73.5373 4.72908 69.6052 4.72908ZM9.55876 2.52799C11.9267 2.52799 13.4692 3.31253 14.4685 4.11887L15.6199 2.11392C14.0557 0.740961 11.9267 0 9.68911 0C3.9973 0 0 3.48688 0 10.5042C0 17.8702 4.30144 20.7469 9.23289 20.7469C11.7095 20.7469 13.795 20.1585 15.1637 19.5919L15.0985 11.7246V9.21843H7.77736V11.7028H12.4481L12.5133 17.6741C11.905 17.9792 10.8405 18.2189 9.40669 18.2189C5.45284 18.2189 2.80245 15.7127 2.80245 10.4606C2.80245 5.12135 5.53974 2.52799 9.55876 2.52799ZM28.4156 0.348687H25.7869V3.7048V15.3205C25.7869 18.5676 27.199 20.7251 31.1746 20.7251C31.7177 20.7251 32.2608 20.6815 32.7822 20.5726V18.2189C32.4129 18.2843 32.0001 18.3061 31.5656 18.3061C29.3715 18.3061 28.3939 17.1729 28.3939 15.2769V7.27885H32.7822V5.09956H28.3939L28.4156 0.348687ZM19.1392 20.3546H21.7679V5.09956H19.1392V20.3546ZM19.1392 2.98564H21.7679V0.348687H19.1392V2.98564Z" fill="var(--fill-0, #888F9B)"/>
</svg>
