<svg preserveAspectRatio="none" width="100%" height="100%" overflow="visible" style="display: block;" viewBox="0 0 39.5141 27.8989" fill="none" xmlns="http://www.w3.org/2000/svg">
<g id="Vector">
<path fill-rule="evenodd" clip-rule="evenodd" d="M24.6316 20.6655H1.89744C0.849102 20.6655 0 19.8164 0 18.7681C0 17.7198 0.849102 16.8707 1.89744 16.8707H24.6316C25.6799 16.8707 26.529 17.7198 26.529 18.7681C26.529 19.8164 25.6799 20.6655 24.6316 20.6655Z" fill="#93C8A2"/>
<path fill-rule="evenodd" clip-rule="evenodd" d="M37.6167 11.0255H14.8835C13.8352 11.0255 12.9861 10.1764 12.9861 9.12809C12.9861 8.07976 13.8352 7.23065 14.8835 7.23065H37.6167C38.665 7.23065 39.5141 8.07976 39.5141 9.12809C39.5141 10.1764 38.665 11.0255 37.6167 11.0255Z" fill="#93C8A2"/>
<path fill-rule="evenodd" clip-rule="evenodd" d="M32.9167 1.89744C32.9167 2.40067 32.7168 2.88329 32.361 3.23913C32.0051 3.59496 31.5225 3.79487 31.0193 3.79487C30.5161 3.79487 30.0334 3.59496 29.6776 3.23913C29.3218 2.88329 29.1218 2.40067 29.1218 1.89744C29.1218 1.3942 29.3218 0.911584 29.6776 0.555746C30.0334 0.199908 30.5161 0 31.0193 0C31.5225 0 32.0051 0.199908 32.361 0.555746C32.7168 0.911584 32.9167 1.3942 32.9167 1.89744ZM10.3918 26.0015C10.3918 26.5047 10.1919 26.9874 9.83604 27.3432C9.4802 27.699 8.99758 27.8989 8.49435 27.8989C7.99111 27.8989 7.50849 27.699 7.15266 27.3432C6.79682 26.9874 6.59691 26.5047 6.59691 26.0015C6.59691 25.4983 6.79682 25.0157 7.15266 24.6598C7.50849 24.304 7.99111 24.1041 8.49435 24.1041C8.99758 24.1041 9.4802 24.304 9.83604 24.6598C10.1919 25.0157 10.3918 25.4983 10.3918 26.0015Z" fill="var(--fill-0, #93C8A2)"/>
</g>
</svg>
