<svg preserveAspectRatio="none" width="100%" height="100%" overflow="visible" style="display: block;" viewBox="0 0 41.9347 29.0084" fill="none" xmlns="http://www.w3.org/2000/svg">
<path id="Vector" d="M21.8968 28.9712L13.2933 28.8138C10.5076 28.759 7.71509 28.8685 4.98415 28.3005C0.829565 27.4517 0.535253 23.2903 0.227253 19.7996C-0.197104 14.8921 -0.0328369 9.89568 0.767965 5.02926C1.2197 2.29832 2.99926 0.669337 5.75073 0.491381C15.0387 -0.151999 24.3882 -0.0767101 33.6556 0.224446C34.6344 0.251824 35.62 0.402403 36.585 0.573514C41.3488 1.40854 41.4651 6.12438 41.7731 10.0942C42.0811 14.105 41.9511 18.1364 41.3625 22.1199C40.8902 25.4189 39.9867 28.1841 36.1744 28.451C31.3969 28.8001 26.729 29.0807 21.9379 28.9917C21.9379 28.9712 21.9105 28.9712 21.8968 28.9712V28.9712ZM16.8388 20.621C20.4389 18.5539 23.9707 16.5211 27.5503 14.4678C23.9433 12.4008 20.4184 10.3679 16.8388 8.31461V20.621Z" fill="var(--fill-0, #FF0000)"/>
</svg>
