<svg preserveAspectRatio="none" width="100%" height="100%" overflow="visible" style="display: block;" viewBox="0 0 10.9327 14.8961" fill="none" xmlns="http://www.w3.org/2000/svg">
<path id="Vector" d="M6.19783 6.25104C4.46882 5.66583 2.97922 5.13383 2.97922 3.85702C2.97922 2.44721 4.54862 2.23441 5.47963 2.23441C7.15544 2.23441 7.98005 2.81962 8.64505 3.45802C8.85785 3.67082 9.12386 3.77723 9.41646 3.77723C10.0017 3.77723 10.4805 3.29842 10.4805 2.71322C10.4805 2.36742 10.2943 2.12801 10.2411 2.02161C9.25685 0.718206 7.58104 0 5.47963 0C2.50041 0 0.665004 1.48961 0.665004 3.85702C0.665004 6.75644 3.21862 7.63424 5.45303 8.37905C7.15544 8.96425 8.61846 9.44306 8.61846 10.6933C8.61846 12.3957 6.72984 12.6617 5.58603 12.6617C4.04322 12.6617 2.84622 12.1829 1.86201 11.2253C1.56941 10.9327 1.27681 10.8795 1.06401 10.8795C0.478803 10.8795 0 11.3583 0 11.9435C0 12.1829 0.0798005 12.3691 0.266002 12.6351C1.14381 13.7523 3.13882 14.8961 5.58603 14.8961C8.93765 14.8961 10.9327 13.3267 10.9327 10.7199C10.9327 7.90024 8.43225 7.02244 6.19783 6.25104Z" fill="var(--fill-0, #4D4D4D)"/>
</svg>
