<svg preserveAspectRatio="none" width="100%" height="100%" overflow="visible" style="display: block;" viewBox="0 0 132 29.6327" fill="none" xmlns="http://www.w3.org/2000/svg">
<path id="Vector" d="M85.2601 20.5092C82.5124 20.5092 81.1013 18.2468 81.1013 15.468C81.1013 12.6892 82.4876 10.5497 85.2601 10.5497C88.0823 10.5497 89.4195 12.7875 89.4195 15.468C89.3947 18.296 87.9837 20.5092 85.2601 20.5092ZM58.3752 10.5497C59.984 10.5497 60.6526 11.4842 60.6526 12.2957C60.6526 14.263 58.6473 15.1237 54.4637 15.2467C54.4637 12.8121 55.85 10.5497 58.3752 10.5497ZM40.5506 20.5092C37.9512 20.5092 36.8619 18.3944 36.8619 15.468C36.8619 12.5662 37.976 10.5497 40.5506 10.5497C43.1748 10.5497 44.4126 12.64 44.4126 15.468C44.4126 18.419 43.1253 20.5092 40.5506 20.5092ZM18.5671 7.67254H14.5071L21.2408 23.1159C19.9535 25.9685 19.2603 26.6817 18.3691 26.6817C17.4284 26.6817 16.5371 25.9194 15.8934 25.2554L14.111 27.6162C15.3241 28.8949 16.9827 29.6327 18.6909 29.6327C20.82 29.6327 22.4538 28.4031 23.3946 26.1899L31.1681 7.64792H27.1823L23.1223 18.714L18.5671 7.67254ZM126.108 10.5497C128.088 10.5497 128.484 11.9023 128.484 15.0746V23.411H132V12.8859C132 9.09884 129.4 7.45121 126.999 7.45121C124.87 7.45121 122.915 8.77913 121.825 11.2383C121.206 8.87751 119.226 7.45121 116.923 7.45121C114.918 7.45121 112.913 8.72994 111.824 11.1153V7.67254H108.308V23.3864H111.824V16.673C111.824 13.2794 113.606 10.5497 116.032 10.5497C118.013 10.5497 118.384 11.9023 118.384 15.0746V23.411H121.9L121.875 16.673C121.875 13.2794 123.682 10.5497 126.108 10.5497ZM98.0571 7.67254H96.277V23.3864H99.792V17.3616C99.792 13.5499 101.476 10.9677 103.976 10.9677C104.619 10.9677 105.164 10.9924 105.758 11.2383L106.303 7.52497C105.858 7.47578 105.462 7.42659 105.065 7.42659C102.59 7.42659 100.807 9.12341 99.7672 11.3121V7.67254H98.0571ZM85.2601 7.42659C80.6062 7.42659 77.4619 10.9677 77.4619 15.4434C77.4619 20.0912 80.6558 23.5586 85.2601 23.5586C89.9394 23.5586 93.1327 19.9928 93.1327 15.4434C93.1079 10.9432 89.8651 7.42659 85.2601 7.42659ZM58.573 20.5092C56.7411 20.5092 55.3797 19.5748 54.8102 17.6812C59.4641 17.4845 64.0195 16.3533 64.0195 12.2465C64.0195 9.88572 61.6925 7.45121 58.3505 7.45121C53.8447 7.45121 50.7997 11.1153 50.7997 15.468C50.7997 20.0174 53.7952 23.5832 58.2761 23.5832C61.3951 23.5832 63.3756 22.329 64.9354 20.5092L63.2275 18.1976C61.4199 20.042 60.3062 20.5092 58.573 20.5092ZM41.2438 7.42659C39.4614 7.42659 37.6789 8.45942 36.9858 10.0825V7.67254H33.4704V29.5589H36.9858V21.7388C37.7285 22.87 39.4366 23.6077 40.9467 23.6077C45.6257 23.6077 48.1013 20.1403 48.1013 15.468C48.0765 10.8448 45.6504 7.42659 41.2438 7.42659ZM16.5866 1.37712H0V4.79533H6.4861V23.3864H10.1748V4.79533H16.5866V1.37712ZM68.8469 7.67254H66.7424V10.8202H68.8469V23.3864H72.3624V10.8202H75.7788V7.67254H72.3624V5.21338C72.3624 3.63953 73.0062 3.09852 74.4669 3.09852C75.011 3.09852 75.5062 3.24607 76.1748 3.46739L76.9668 0.51642C76.3235 0.147548 75.0358 0 74.1942 0C70.8274 0 68.8469 2.0165 68.8469 5.50849V7.67254Z" fill="var(--fill-0, #262627)"/>
</svg>
