<svg preserveAspectRatio="none" width="100%" height="100%" overflow="visible" style="display: block;" viewBox="0 0 25.6969 25.4646" fill="none" xmlns="http://www.w3.org/2000/svg">
<g id="Vector">
<path d="M15.6159 4.85744C15.5856 6.06426 14.7351 7.78397 13.3074 7.78397C12.4264 7.78397 11.6974 7.05988 11.6974 6.18494V6.15477C11.667 4.73676 11.0291 3.49977 10.0267 2.62482C9.26726 1.99124 8.32558 1.56887 7.29277 1.44818C8.17369 0.543069 9.41914 0 10.7861 0C12.5176 0 14.0971 0.995624 15.0084 2.44381C15.4337 3.1679 15.6464 4.04284 15.6159 4.85744Z" fill="#175FFF"/>
<path d="M9.96607 4.97808C10.7254 5.94354 11.1812 7.78394 10.0876 8.68905C9.38892 9.26229 8.38649 9.17178 7.80933 8.50803C6.86765 7.45206 5.56145 6.909 4.25525 6.87882C3.25282 6.84865 2.25039 7.15036 1.39984 7.72359C1.49097 6.48661 2.06813 5.24962 3.13131 4.37468C4.49826 3.25837 6.41199 2.9265 8.05234 3.59024C8.81175 3.86178 9.48005 4.34451 9.96607 4.97808Z" fill="#175FFF"/>
<path d="M5.71325 8.65904C6.89795 8.9004 8.47754 10.0469 8.23452 11.4348C8.08264 12.3097 7.2321 12.8829 6.35116 12.7321H6.32079C4.92346 12.5209 3.55651 12.9433 2.55408 13.7578C1.79466 14.3612 1.18713 15.2362 0.913731 16.2318C0.18469 15.206 -0.149454 13.9087 0.0631839 12.5511C0.397327 10.8313 1.64277 9.38313 3.34387 8.80989C4.10328 8.56853 4.95384 8.50819 5.71325 8.65904Z" fill="#175FFF"/>
<path d="M4.83232 14.2103C5.8955 13.6371 7.83961 13.5163 8.53828 14.7232C8.99393 15.4775 8.72053 16.473 7.96112 16.9256C6.74605 17.6497 5.98663 18.8263 5.71324 20.1237C5.53098 21.0891 5.62211 22.1149 6.07776 23.0502C4.86269 22.7485 3.73875 21.9641 3.07047 20.7875C2.18954 19.2487 2.21991 17.348 3.13122 15.8395C3.55649 15.1456 4.13365 14.5723 4.83232 14.2103Z" fill="#175FFF"/>
<path d="M7.74826 19.0074C8.20391 17.8911 9.60124 16.5636 10.9074 17.0463C11.758 17.348 12.1833 18.2833 11.8795 19.098C11.4238 20.4254 11.6061 21.8133 12.2441 22.9598C12.7301 23.8347 13.4591 24.5286 14.4008 24.9812C13.2464 25.5242 11.9098 25.645 10.6341 25.1622C8.96333 24.5588 7.74826 23.0805 7.47487 21.3305C7.38374 20.5462 7.47487 19.7315 7.74826 19.0074Z" fill="#175FFF"/>
<path d="M13.0947 20.8175C12.6999 19.671 12.9125 17.7702 14.249 17.2875C15.0996 16.9859 16.0109 17.4083 16.3147 18.253C16.8311 19.5504 17.8639 20.5158 19.1093 20.9986C20.0206 21.3605 21.0838 21.4209 22.0862 21.1795C21.5699 22.326 20.5978 23.2613 19.3219 23.7441C17.6512 24.3474 15.7375 23.9854 14.4313 22.8087C13.8238 22.2355 13.3378 21.5717 13.0947 20.8175Z" fill="#175FFF"/>
<path d="M18.3802 18.7963C17.3474 18.1627 16.2539 16.5636 16.9828 15.3569C17.4386 14.6026 18.4106 14.3311 19.2003 14.7535C20.4458 15.4172 21.8431 15.5077 23.119 15.0853C24.0606 14.7535 24.9112 14.15 25.5187 13.3053C25.8528 14.5121 25.7314 15.8396 25.0327 17.0163C24.1518 18.5549 22.4506 19.4902 20.6889 19.4299C19.8383 19.4299 19.0181 19.2187 18.3802 18.7963Z" fill="#175FFF"/>
<path d="M21.1142 13.8783C19.899 14.0594 18.0461 13.5162 17.8031 12.1285C17.6208 11.2837 18.2283 10.4389 19.1093 10.288H19.1396C20.537 10.0165 21.6609 9.17173 22.3292 8.05543C22.8456 7.21065 23.0886 6.21503 22.9975 5.18923C24.0303 5.88315 24.8201 6.99946 25.0327 8.32695C25.3365 10.0467 24.6378 11.8569 23.2709 12.9431C22.633 13.4258 21.8736 13.7879 21.1142 13.8783Z" fill="#175FFF"/>
<path d="M20.0206 8.38746C19.2005 9.29258 17.4386 10.077 16.345 9.17189C15.6464 8.59866 15.5552 7.60303 16.1324 6.90911C17.0133 5.82298 17.3474 4.43513 17.1348 3.13781C16.983 2.17235 16.5273 1.23707 15.7983 0.482805C17.0437 0.362123 18.3499 0.724168 19.4131 1.59911C20.78 2.71542 21.418 4.55582 21.0534 6.27553C20.9015 7.05996 20.537 7.81423 20.0206 8.38746Z" fill="#175FFF"/>
</g>
</svg>
