<svg preserveAspectRatio="none" width="100%" height="100%" overflow="visible" style="display: block;" viewBox="0 0 74.9091 29.1155" fill="none" xmlns="http://www.w3.org/2000/svg">
<g id="logo-layer">
<path id="Vector" d="M42.8747 0.552463C41.4295 1.27506 40.8032 2.6239 40.8032 6.28506C40.8032 6.28506 41.5258 5.56246 42.682 5.1289C43.525 4.81578 44.1272 4.40631 44.5607 4.09318C45.8132 3.15381 46.0059 2.02174 46.0059 0.0466462C45.9818 0.0466462 44.0067 -0.0737864 42.8747 0.552463V0.552463Z" fill="var(--fill-0, #FBBD71)"/>
<path id="Vector_2" d="M34.0343 1.39528C32.7818 2.431 32.4686 4.21341 32.4686 4.21341L28.4221 19.7251L25.0982 7.03153C24.785 5.68268 24.1588 4.02071 23.2194 2.86456C22.0633 1.39528 19.6546 1.29894 19.3656 1.29894C19.1488 1.29894 16.7642 1.39528 15.5117 2.86456C14.5723 4.02071 13.9461 5.68268 13.633 7.03153L10.5017 19.7251L6.45519 4.21341C6.45519 4.21341 6.14206 2.55144 4.88956 1.39528C2.91447 -0.38712 0 0.0464372 0 0.0464372L7.70769 29.0707C7.70769 29.0707 10.2127 29.2875 11.4652 28.6612C13.1272 27.8182 13.9702 27.216 14.9096 23.2418C15.8489 19.701 18.3539 9.39201 18.5466 8.66941C18.643 8.35629 18.8597 7.41691 19.486 7.41691C20.1122 7.41691 20.329 8.25994 20.4254 8.66941C20.6422 9.39201 23.1231 19.701 24.0624 23.2418C25.0982 27.1919 25.8208 27.8182 27.5068 28.6612C28.7593 29.2875 31.2643 29.0707 31.2643 29.0707L38.9238 0.0464372C38.9238 0.0464372 36.0094 -0.363034 34.0343 1.39528V1.39528ZM45.9812 4.71922C45.9812 4.71922 45.4513 5.44182 44.4155 6.06807C43.693 6.47754 43.0667 6.69432 42.3441 7.10379C41.0916 7.73004 40.7785 8.35629 40.7785 9.29566V28.9744C40.7785 28.9744 42.7536 29.1911 44.0061 28.5649C45.668 27.7219 45.9812 26.9029 45.9812 23.3622V5.87538V4.71922ZM65.13 14.6188L74.9091 0.142783C74.9091 0.142783 70.8626 -0.579812 68.767 1.29894C67.4182 2.45509 66.0693 4.62288 66.0693 4.62288L62.5286 9.82557C62.3118 10.1387 62.1191 10.3555 61.806 10.3555C61.4929 10.3555 61.1798 10.0423 61.0834 9.82557L57.5427 4.62288C57.5427 4.62288 56.0975 2.55144 54.845 1.29894C52.7736 -0.579812 48.7029 0.142783 48.7029 0.142783L58.169 14.5947L48.4862 29.0466C48.4862 29.0466 52.7495 29.5765 54.845 27.6978C56.1939 26.5416 57.4464 24.5665 57.4464 24.5665L60.9871 19.3638C61.2039 19.0507 61.3966 18.8339 61.7097 18.8339C62.0228 18.8339 62.3359 19.1471 62.4323 19.3638L65.973 24.5665C65.973 24.5665 67.3218 26.5416 68.5743 27.6978C70.6458 29.5765 74.8127 29.0466 74.8127 29.0466L65.13 14.6188Z" fill="var(--fill-0, black)"/>
</g>
</svg>
