<svg preserveAspectRatio="none" width="100%" height="100%" overflow="visible" style="display: block;" viewBox="0 0 15.9071 13.8414" fill="none" xmlns="http://www.w3.org/2000/svg">
<path id="Vector" d="M5.22444 0C5.04984 0 4.85936 -2.42442e-07 4.68475 0.0158729C4.55777 0.0158729 4.44666 0.111112 4.39904 0.238097L3.63713 2.88891C3.30379 4.03178 3.43078 5.07941 3.98634 5.85719C4.49428 6.57148 5.35143 6.98419 6.38318 7.03181L10.5419 7.28578C10.6689 7.28578 10.78 7.34927 10.8435 7.44451C10.907 7.53975 10.9229 7.6826 10.8912 7.79372C10.8277 7.98419 10.6372 8.12705 10.4308 8.14293L6.09747 8.3969C3.74824 8.50801 1.22441 10.3969 0.335513 12.7144L0.0180503 13.5239C-0.0454423 13.6827 0.0656639 13.8414 0.240269 13.8414H15.1293C15.3039 13.8414 15.4626 13.7303 15.5102 13.5557C15.7642 12.635 15.9071 11.6668 15.9071 10.6668C15.9071 4.79369 11.1134 0 5.22444 0" fill="var(--fill-0, #FAAE40)"/>
</svg>
