<svg preserveAspectRatio="none" width="100%" height="100%" overflow="visible" style="display: block;" viewBox="0 0 117.469 27.1894" fill="none" xmlns="http://www.w3.org/2000/svg">
<g id="Vector">
<path d="M0 1.59269H7.62214C12.4815 1.59269 16.4957 4.40427 16.4957 10.8238V12.1727C16.4957 18.6409 12.7415 21.55 7.76841 21.55H0V1.59269ZM4.258 5.21686V17.9096H7.52463C10.2875 17.9096 12.1402 16.1056 12.1402 12.0914V11.035C12.1402 7.02082 10.1899 5.21686 7.37836 5.21686H4.258ZM18.7547 5.41188H22.1676L22.7202 9.16607C23.3702 6.61452 25.0279 5.24936 28.0345 5.24936H29.0909V9.55612H27.3357C23.874 9.55612 23.0289 10.7588 23.0289 14.1717V21.5988H18.8197V5.41188H18.7547ZM29.936 13.8304V13.3753C29.936 7.96343 33.3977 5.00559 38.1107 5.00559C42.9213 5.00559 46.2854 7.96343 46.2854 13.3753V13.8304C46.2854 19.1447 43.0188 22.0051 38.1107 22.0051C32.8939 21.9563 29.936 19.161 29.936 13.8304ZM41.9787 13.7816V13.3753C41.9787 10.3687 40.4672 8.56475 38.062 8.56475C35.7054 8.56475 34.1452 10.2224 34.1452 13.3753V13.7816C34.1452 16.6907 35.6567 18.3484 38.062 18.3484C40.4672 18.2996 41.9787 16.6907 41.9787 13.7816ZM48.4957 5.41188H52.0061L52.4124 8.46724C53.2575 6.4195 55.0615 5.00559 57.7268 5.00559C61.8385 5.00559 64.5526 7.96343 64.5526 13.4403V13.8954C64.5526 19.2097 61.546 22.0213 57.7268 22.0213C55.1752 22.0213 53.42 20.8674 52.5587 19.0147V27.1894H48.4469L48.4957 5.41188ZM60.2783 13.7816V13.4241C60.2783 10.2062 58.6206 8.61351 56.4104 8.61351C54.0538 8.61351 52.4937 10.4175 52.4937 13.4241V13.7329C52.4937 16.5932 54.0051 18.3972 56.3616 18.3972C58.7831 18.3484 60.2783 16.8045 60.2783 13.7816ZM70.777 18.6084L70.4195 21.5663H66.8116V0H70.9233V8.27222C71.8334 6.15947 73.6374 5.00559 76.1889 5.00559C80.0569 5.05434 82.9172 7.71965 82.9172 13.0828V13.5866C82.9172 18.9497 80.2032 22.0213 76.0914 22.0213C73.3774 21.9563 71.6221 20.7049 70.777 18.6084ZM78.5942 13.5866V13.1803C78.5942 10.2224 76.9853 8.56475 74.7263 8.56475C72.4185 8.56475 70.8096 10.4175 70.8096 13.229V13.5866C70.8096 16.5932 72.3697 18.3484 74.6775 18.3484C77.1478 18.3484 78.5942 16.8045 78.5942 13.5866ZM84.7212 13.8304V13.3753C84.7212 7.96343 88.1828 5.00559 92.8959 5.00559C97.7065 5.00559 101.071 7.96343 101.071 13.3753V13.8304C101.071 19.1447 97.7552 22.0051 92.8959 22.0051C87.679 21.9563 84.7212 19.161 84.7212 13.8304ZM96.7963 13.7816V13.3753C96.7963 10.3687 95.2849 8.56475 92.8796 8.56475C90.5231 8.56475 88.9629 10.2224 88.9629 13.3753V13.7816C88.9629 16.6907 90.4744 18.3484 92.8796 18.3484C95.3012 18.2996 96.7963 16.6907 96.7963 13.7816ZM106.58 13.1803L100.908 5.41188H105.767L109.034 10.2712L112.349 5.41188H117.16L111.407 13.1315L117.469 21.5663H112.707L109.002 16.2031L105.394 21.5663H100.421L106.58 13.1803Z" fill="var(--fill-0, black)"/>
</g>
</svg>
