<svg preserveAspectRatio="none" width="100%" height="100%" overflow="visible" style="display: block;" viewBox="0 0 27.8883 27.8883" fill="none" xmlns="http://www.w3.org/2000/svg">
<path id="Vector" opacity="0.5" d="M0 13.9442C0 21.6454 6.24338 27.8883 13.9442 27.8883C21.6449 27.8883 27.8883 21.6454 27.8883 13.9442C27.8883 6.24338 21.6449 0 13.9442 0C6.24338 0 0 6.24338 0 13.9442V13.9442ZM0.449812 13.9442C0.449812 6.49213 6.49078 0.449811 13.9442 0.449811C21.3975 0.449811 27.4385 6.49213 27.4385 13.9442C27.4385 21.3962 21.3975 27.4385 13.9442 27.4385C6.49078 27.4385 0.449812 21.3962 0.449812 13.9442V13.9442ZM3.59849 13.9433C3.59849 19.6568 8.23065 24.288 13.9442 24.288C19.6577 24.288 24.2898 19.6568 24.2898 13.9433C24.2898 8.2302 19.6577 3.59849 13.9442 3.59849C8.23065 3.59849 3.59849 8.2302 3.59849 13.9433V13.9433ZM3.14868 13.9442C3.14868 7.98281 7.98146 3.14868 13.9442 3.14868C19.9069 3.14868 24.7396 7.98281 24.7396 13.9442C24.7396 19.9055 19.9073 24.7396 13.9442 24.7396C7.98101 24.7396 3.14868 19.9055 3.14868 13.9442V13.9442Z" fill="var(--fill-0, black)"/>
</svg>
