<svg preserveAspectRatio="none" width="100%" height="100%" overflow="visible" style="display: block;" viewBox="0 0 17.7591 19.4879" fill="none" xmlns="http://www.w3.org/2000/svg">
<path id="Vector" d="M12.2292 14.3585L13.9549 19.3067C14.0121 19.4307 14.0979 19.4879 14.2505 19.4879H17.5684C17.7495 19.4879 17.7781 19.4021 17.7495 19.2209L10.8945 0.18115C10.8658 0.0286032 10.8372 0 10.6847 0H6.56592C6.45153 0 6.38477 0.0858072 6.38477 0.209751C6.32756 1.21084 6.24177 1.51594 6.11782 1.81149L0.00640412 19.1923C-0.0222015 19.4021 0.0445516 19.4879 0.216161 19.4879H3.18129C3.36244 19.4879 3.44825 19.4307 3.51499 19.2495L5.14533 14.3585H12.2292ZM6.08922 11.1264C6.98544 8.41869 8.16767 4.94824 8.64438 2.96513H8.67299C9.26411 5.04359 10.6561 9.16235 11.2854 11.1264H6.08922Z" fill="var(--fill-0, #FA0C00)"/>
</svg>
