<svg preserveAspectRatio="none" width="100%" height="100%" overflow="visible" style="display: block;" viewBox="0 0 12.4223 14.9493" fill="none" xmlns="http://www.w3.org/2000/svg">
<path id="Vector" d="M12.4223 6.09143C12.4223 5.42643 12.3159 3.69742 11.3051 2.26101C10.2677 0.771405 8.64505 0 6.43724 0C2.34081 0 0 2.71322 0 7.44804C0 12.3425 2.34081 14.9493 6.72984 14.9493C9.68245 14.9493 11.3051 13.4863 11.5977 13.1937C11.7839 13.0075 11.9967 12.7681 11.9967 12.3691C11.9967 11.7839 11.5179 11.3051 10.9327 11.3051C10.6401 11.3051 10.4539 11.3849 10.2677 11.5179C9.41645 12.1563 8.43225 12.7947 6.75644 12.7947C4.12302 12.7947 2.44721 11.0657 2.36741 8.24605H11.0125C12.4223 8.21945 12.4223 6.94264 12.4223 6.09143ZM6.43724 2.12801C8.83125 2.12801 10.0815 3.48462 10.1347 6.14464H2.39401C2.60681 3.56442 4.04322 2.12801 6.43724 2.12801Z" fill="var(--fill-0, #4D4D4D)"/>
</svg>
