<svg preserveAspectRatio="none" width="100%" height="100%" overflow="visible" style="display: block;" viewBox="0 0 126.408 22.7301" fill="none" xmlns="http://www.w3.org/2000/svg">
<path id="Vector" fill-rule="evenodd" clip-rule="evenodd" d="M1.72562 21.7683C1.06669 21.5171 0.63529 20.9852 0.63529 20.2761C0.63529 19.4177 1.34445 18.71 2.20726 18.71C2.46138 18.71 2.66526 18.7602 2.84255 18.8356C4.01919 19.3782 5.30099 19.6546 6.59667 19.6452C9.23681 19.6452 10.4793 18.382 10.4793 15.9531V15.2957C9.33727 16.6623 8.09477 17.497 6.03968 17.497C2.86767 17.497 0 15.1952 0 11.1737V11.1249C0 7.0783 2.9179 4.80308 6.03968 4.80308C8.145 4.80308 9.38751 5.68953 10.4276 6.82714V6.80055C10.4276 5.7634 11.2904 4.90502 12.3571 4.90502C13.4209 4.90502 14.2837 5.7634 14.2837 6.82566V15.5498C14.2837 17.9772 13.7016 19.7457 12.5595 20.8833C11.2904 22.1494 9.33728 22.7049 6.69861 22.7049C4.99574 22.7199 3.30637 22.4017 1.72562 21.7683V21.7683ZM10.4793 11.1752V11.1249C10.4793 9.27818 9.03145 7.98839 7.15513 7.98839C5.27881 7.98839 3.85754 9.27818 3.85754 11.1249V11.1752C3.85754 13.0456 5.27881 14.3103 7.15513 14.3103C9.03145 14.3103 10.4793 13.0205 10.4793 11.1752V11.1752ZM16.4673 6.82566C16.4673 5.7634 17.3301 4.90502 18.3953 4.90502C19.462 4.90502 20.3233 5.7634 20.3233 6.82566V7.43141C20.8818 6.11798 21.7949 4.90502 22.9384 4.90502C24.1307 4.90502 24.8147 5.68805 24.8147 6.77543C24.8147 7.78599 24.1558 8.3932 23.3683 8.57049C21.4152 9.02702 20.3248 10.5177 20.3248 13.248V16.8381C20.3248 17.9004 19.462 18.7602 18.3953 18.7602C18.1426 18.7608 17.8922 18.7116 17.6585 18.6154C17.4248 18.5191 17.2124 18.3778 17.0333 18.1994C16.8543 18.0211 16.7121 17.8092 16.615 17.5758C16.5179 17.3425 16.4677 17.0923 16.4673 16.8396V6.82566V6.82566ZM24.3582 14.7151V14.6648C24.3582 11.7056 26.6157 10.3404 29.8394 10.3404C31.209 10.3404 32.1988 10.568 33.1636 10.8959V10.6684C33.1636 9.07725 32.1737 8.1908 30.2457 8.1908C29.3431 8.18116 28.4444 8.3092 27.5804 8.57049C27.4021 8.63657 27.2136 8.67107 27.0234 8.67244C26.8149 8.67636 26.6077 8.63868 26.4139 8.56159C26.2201 8.4845 26.0437 8.36955 25.8948 8.22346C25.746 8.07737 25.6278 7.90307 25.5471 7.71076C25.4664 7.51845 25.4248 7.31198 25.4249 7.10342C25.4249 6.42085 25.8533 5.84023 26.465 5.61123C27.6824 5.15618 29.0017 4.90502 30.8027 4.90502C32.908 4.90502 34.4312 5.46053 35.3945 6.42085C36.4095 7.43141 36.8675 8.92507 36.8675 10.7453V16.9135C36.8675 17.9506 36.0298 18.7602 34.9897 18.7602C33.8727 18.7602 33.137 17.9772 33.137 17.1676V17.141C32.1988 18.1781 30.9061 18.8607 29.0268 18.8607C26.465 18.8607 24.3582 17.3951 24.3582 14.7151V14.7151ZM33.2138 13.8286V13.1475C32.4383 12.8068 31.5995 12.634 30.7524 12.6408C29.1022 12.6408 28.0887 13.2982 28.0887 14.5127V14.5629C28.0887 15.6 28.9515 16.2073 30.194 16.2073C31.9964 16.2073 33.2138 15.2203 33.2138 13.8286ZM38.9226 6.82566C38.9226 5.7634 39.7854 4.90502 40.8521 4.90502C41.9173 4.90502 42.7801 5.7634 42.7801 6.82566V6.97784C43.6665 5.84023 44.8352 4.80308 46.7883 4.80308C48.5642 4.80308 49.9086 5.58611 50.6193 6.95272C51.8115 5.56247 53.2343 4.80308 55.084 4.80308C57.9517 4.80308 59.6788 6.52279 59.6788 9.78493V16.8381C59.6788 17.9004 58.8145 18.7602 57.7493 18.7602C57.4965 18.7608 57.246 18.7116 57.0122 18.6154C56.7785 18.5192 56.5659 18.3779 56.3867 18.1995C56.2076 18.0212 56.0653 17.8093 55.968 17.576C55.8707 17.3426 55.8203 17.0924 55.8198 16.8396V11.0481C55.8198 9.22794 55.0072 8.29274 53.5623 8.29274C52.1159 8.29274 51.228 9.22794 51.228 11.0481V16.8396C51.228 17.9004 50.3666 18.7602 49.2999 18.7602C48.7896 18.761 48.2999 18.5592 47.9383 18.199C47.5768 17.8389 47.3731 17.3499 47.3719 16.8396V11.0481C47.3719 9.22794 46.5593 8.29274 45.1144 8.29274C43.6665 8.29274 42.7801 9.22794 42.7801 11.0481V16.8396C42.7801 17.9004 41.9173 18.7602 40.8521 18.7602C40.5992 18.761 40.3487 18.7119 40.1148 18.6158C39.8809 18.5197 39.6683 18.3784 39.4891 18.2C39.3099 18.0216 39.1676 17.8096 39.0704 17.5762C38.9732 17.3428 38.9229 17.0925 38.9226 16.8396V6.82566V6.82566ZM61.759 6.82566C61.759 5.7634 62.6218 4.90502 63.687 4.90502C64.7537 4.90502 65.6165 5.7634 65.6165 6.82566V6.97784C66.503 5.84023 67.6701 4.80308 69.6248 4.80308C71.4006 4.80308 72.7451 5.58611 73.4557 6.95272C74.648 5.56247 76.0692 4.80308 77.9204 4.80308C80.7881 4.80308 82.5137 6.52279 82.5137 9.78493V16.8381C82.5137 17.9004 81.6509 18.7602 80.5842 18.7602C80.0739 18.761 79.5842 18.5592 79.2227 18.199C78.8611 17.8389 78.6574 17.3499 78.6562 16.8396V11.0481C78.6562 9.22794 77.8436 8.29274 76.3987 8.29274C74.9508 8.29274 74.0644 9.22794 74.0644 11.0481V16.8396C74.0644 17.9004 73.2016 18.7602 72.1364 18.7602C71.8836 18.7608 71.6333 18.7116 71.3996 18.6154C71.1659 18.5191 70.9534 18.3778 70.7744 18.1994C70.5953 18.0211 70.4532 17.8092 70.356 17.5758C70.2589 17.3425 70.2087 17.0923 70.2083 16.8396V11.0481C70.2083 9.22794 69.3957 8.29274 67.9494 8.29274C66.503 8.29274 65.615 9.22794 65.615 11.0481V16.8396C65.615 17.9004 64.7537 18.7602 63.687 18.7602C63.4343 18.7608 63.1839 18.7116 62.9502 18.6154C62.7165 18.5191 62.5041 18.3778 62.325 18.1994C62.1459 18.0211 62.0038 17.8092 61.9067 17.5758C61.8096 17.3425 61.7594 17.0923 61.759 16.8396V6.82566V6.82566ZM83.7828 14.7151V14.6648C83.7828 11.7056 86.0418 10.3404 89.2641 10.3404C90.3956 10.3302 91.5201 10.5182 92.5868 10.8959V10.6684C92.5868 9.07725 91.5969 8.1908 89.6689 8.1908C88.6037 8.1908 87.7408 8.34297 87.0051 8.57049C86.8268 8.63657 86.6383 8.67107 86.4481 8.67244C86.2394 8.67676 86.032 8.63937 85.8379 8.56244C85.6439 8.48551 85.4671 8.3706 85.3181 8.22445C85.169 8.0783 85.0507 7.90385 84.97 7.71135C84.8893 7.51884 84.8478 7.31216 84.8481 7.10342C84.8481 6.42085 85.2809 5.84023 85.8882 5.61123C87.107 5.15618 88.4264 4.90502 90.2273 4.90502C92.3341 4.90502 93.8559 5.46053 94.8191 6.42085C95.8341 7.43141 96.2907 8.92507 96.2907 10.7453V16.9135C96.2907 17.1585 96.242 17.4011 96.1473 17.6271C96.0527 17.8531 95.914 18.058 95.7393 18.2299C95.5647 18.4018 95.3576 18.5372 95.1301 18.6282C94.9027 18.7193 94.6593 18.7642 94.4143 18.7602C93.2974 18.7602 92.5617 17.9772 92.5617 17.1676V17.141C91.6235 18.1781 90.3278 18.8607 88.4515 18.8607C85.8882 18.8607 83.7828 17.3951 83.7828 14.7151V14.7151ZM92.6385 13.8286V13.1475C91.863 12.8068 91.0241 12.6341 90.1771 12.6408C88.5268 12.6408 87.5133 13.2982 87.5133 14.5127V14.5629C87.5133 15.6 88.3746 16.2073 89.6186 16.2073C91.4196 16.2073 92.6385 15.2203 92.6385 13.8286ZM98.3472 6.82566C98.3472 5.7634 99.21 4.90502 100.275 4.90502C101.342 4.90502 102.203 5.7634 102.203 6.82566V7.43141C102.762 6.11798 103.675 4.90502 104.818 4.90502C106.009 4.90502 106.695 5.68805 106.695 6.77543C106.695 7.78599 106.034 8.3932 105.248 8.57049C103.295 9.02702 102.203 10.5177 102.203 13.248V16.8381C102.203 17.9004 101.342 18.7602 100.275 18.7602C99.7649 18.761 99.2752 18.5592 98.9137 18.199C98.5521 17.8389 98.3484 17.3499 98.3472 16.8396V6.82566V6.82566ZM107.862 1.92064C107.862 0.856902 108.725 0 109.79 0C110.857 0 111.719 0.856902 111.719 1.92064V16.8381C111.719 17.9004 110.857 18.7602 109.79 18.7602C109.28 18.761 108.79 18.5592 108.428 18.199C108.067 17.8389 107.863 17.3499 107.862 16.8396V1.91916V1.92064ZM114.789 22.3755C114.231 22.1745 113.571 21.718 113.571 20.7843C113.566 20.5809 113.602 20.3787 113.677 20.1894C113.751 20.0001 113.863 19.8274 114.004 19.6815C114.146 19.5355 114.315 19.4191 114.502 19.3391C114.689 19.2591 114.89 19.217 115.094 19.2153C115.398 19.2153 115.575 19.2655 115.728 19.3172C116.057 19.4177 116.261 19.4694 116.54 19.4694C117.224 19.4694 117.555 19.3423 117.91 18.6598L118.037 18.3554L113.395 7.63529C113.279 7.35298 113.21 7.0535 113.191 6.74884C113.191 5.66294 114.029 4.90502 115.094 4.90502C116.057 4.90502 116.615 5.43542 116.945 6.3455L119.889 14.2349L122.731 6.37062C123.035 5.56247 123.592 4.90502 124.583 4.90502C125.572 4.90502 126.408 5.66294 126.408 6.67497C126.408 6.97784 126.307 7.40777 126.232 7.58506L121.487 18.9375C120.344 21.6929 119.204 22.7301 116.895 22.7301C116.032 22.7301 115.423 22.6045 114.789 22.3755Z" fill="var(--fill-0, #4C4C4C)"/>
</svg>
