<svg preserveAspectRatio="none" width="100%" height="100%" overflow="visible" style="display: block;" viewBox="0 0 103.7 25.5" fill="none" xmlns="http://www.w3.org/2000/svg">
<g id="Group">
<path id="Fill-4" fill-rule="evenodd" clip-rule="evenodd" d="M22.223 11.3882C22.6221 9.44793 23.9111 8.46139 25.6054 8.46139C27.2851 8.46139 28.5134 9.49216 28.9052 11.3882H22.223ZM25.6975 5.1001C21.3835 5.1001 18.7002 8.55417 18.7002 12.7791C18.7002 17.1547 21.5675 20.4001 25.8291 20.4001C28.7682 20.4001 30.551 19.0381 31.6544 17.3229L28.9108 15.5665C28.221 16.5108 27.1173 17.0097 25.9343 17.0097C23.9991 17.0097 22.7032 16.1017 22.2615 14.2859H29.503C29.5024 14.2882 29.5019 14.2906 29.5012 14.2931L32.1411 14.3086C32.2412 13.8308 32.3002 13.3371 32.3002 12.7791C32.3002 9.09898 30.0379 5.1001 25.6975 5.1001Z" fill="var(--fill-0, #0062FF)"/>
<path id="Fill-6" fill-rule="evenodd" clip-rule="evenodd" d="M7.65 17C4.99566 17 3.4 15.0971 3.4 12.7499C3.4 10.4027 5.02625 8.5 7.65 8.5C10.2738 8.5 11.9 10.4027 11.9 12.7499C11.9 15.0971 10.3043 17 7.65 17ZM11.6108 7.34637C10.5509 6.07337 9.04603 5.29303 7.17807 5.29303C3.00281 5.29303 0 8.67497 0 12.8465C0 17.0182 2.97431 20.4 7.17807 20.4C9.04603 20.4 10.5509 19.6197 11.6108 18.3467V20.028H15.3V0H11.6108V7.34637Z" fill="var(--fill-0, #0062FF)"/>
<path id="Combined-Shape" fill-rule="evenodd" clip-rule="evenodd" d="M43.5819 12.4992C44.5835 13.1988 45.2183 14.248 45.2183 15.6324C45.2183 18.4304 43.3323 20.3717 39.8062 20.3717C36.4879 20.3717 34.7085 18.6714 34 16.9543L37.0457 15.1757C37.0457 15.1757 37.4557 17.0314 39.7516 17.0314C41.1729 17.0314 41.6103 16.4033 41.6103 15.8485C41.6103 15.5915 41.5282 15.1186 40.517 14.7188C38.4857 13.9161 34.5583 13.556 34.5583 9.89393C34.5583 6.89636 36.908 5.29762 39.8062 5.29762C42.5163 5.29762 44.2572 6.98386 44.9181 8.2959L41.9382 10.0367C41.9382 10.0367 41.3643 8.58065 39.8336 8.58065C38.303 8.58065 38.1663 9.46583 38.1663 9.72266C38.1663 10.4721 38.9303 10.7798 40.5716 11.2645C41.5434 11.5514 42.5415 11.8119 43.585 12.4965C43.584 12.4974 43.5829 12.4983 43.5819 12.4992ZM103.7 9.23734H100.611V15.1756C100.611 17.0315 102.415 16.6317 103.7 16.6317V19.972C103.7 19.972 103.023 20.0862 101.841 20.0862C99.2175 20.0862 97.0855 19.2869 97.0855 15.1756V9.23734H94.7074V5.69714H97.0855V1.7002H100.611V5.69714H103.7V9.23734ZM53.9839 16.7744C55.4471 16.7744 56.5721 16.0454 57.1407 14.8495L60.1971 16.68C58.9996 18.8738 56.7681 20.4002 53.9839 20.4002C49.7611 20.4002 46.809 17.0257 46.809 12.8632C46.809 8.70052 49.7883 5.32608 53.9839 5.32608C56.7272 5.32608 58.9504 6.82753 60.1609 8.99221L57.1112 10.8645C56.5316 9.68424 55.4154 8.95183 53.9839 8.95183C51.8502 8.95183 50.3351 10.703 50.3351 12.8632C50.3351 15.0233 51.8363 16.7744 53.9839 16.7744Z" fill="var(--fill-0, #0062FF)"/>
<path id="Combined-Shape_2" fill-rule="evenodd" clip-rule="evenodd" d="M86.3971 16.7353C84.1003 16.7353 82.7195 14.9446 82.7195 12.7358C82.7195 10.527 84.1267 8.73645 86.3971 8.73645C88.6673 8.73645 90.0747 10.527 90.0747 12.7358C90.0747 14.9446 88.6939 16.7353 86.3971 16.7353ZM86.8353 5.24744C90.712 5.24744 93.5 8.60022 93.5 12.7358C93.5 16.8716 90.7385 20.2242 86.8353 20.2242C85.1009 20.2242 83.7036 19.4505 82.7195 18.1885V25.5H79.294V5.64467H82.7195V7.28306C83.7036 6.02105 85.1009 5.24744 86.8353 5.24744ZM72.7089 19.8553V5.6729H76.1343V19.8553H72.7089ZM66.3253 8.09551C66.9865 6.37689 68.3332 5.39389 70.3614 5.38947V9.47398C67.9833 9.23366 66.2654 10.4967 66.3281 13.4804C66.3271 13.4783 66.3263 13.476 66.3253 13.4737V19.8553H62.9V5.67308H66.3253V8.09551ZM72.7089 3.78023V0H76.2472V3.78023H72.7089Z" fill="var(--fill-0, #0062FF)"/>
</g>
</svg>
