<svg preserveAspectRatio="none" width="100%" height="100%" overflow="visible" style="display: block;" viewBox="0 0 11.2499 25.7201" fill="none" xmlns="http://www.w3.org/2000/svg">
<path id="Vector" d="M9.97846 19.3932C9.12186 18.5328 8.44421 17.5127 7.98433 16.3912C7.52445 15.2698 7.29137 14.069 7.29844 12.8578C7.29532 11.6465 7.53486 10.4469 8.00303 9.32887C8.4712 8.21087 9.15862 7.197 10.0251 6.34652C10.3962 6.01816 10.6962 5.61785 10.9065 5.17011C11.1168 4.72237 11.2331 4.23661 11.2482 3.74258C11.2633 3.24855 11.177 2.75665 10.9945 2.29699C10.8119 1.83732 10.5371 1.41958 10.1867 1.06933C9.83631 0.719081 9.4178 0.443698 8.95676 0.260042C8.49573 0.0763853 8.00188 -0.0116789 7.50547 0.00124116C7.00905 0.0141612 6.5205 0.127794 6.06974 0.335181C5.61898 0.542568 5.2155 0.839345 4.88399 1.20734C1.77015 4.28828 0.0133822 8.47411 7.61375e-05 12.8441C-0.01323 17.2142 1.71802 21.4105 4.81303 24.5102C5.14346 24.8777 5.54562 25.1743 5.995 25.3821C6.44437 25.5898 6.93155 25.7043 7.42683 25.7185C7.92211 25.7328 8.41511 25.6465 8.87578 25.4649C9.33646 25.2833 9.75515 25.0102 10.1063 24.6623C10.4575 24.3145 10.7338 23.899 10.9185 23.4414C11.1031 22.9837 11.1921 22.4934 11.1801 22.0004C11.1682 21.5074 11.0555 21.022 10.8489 20.5737C10.6423 20.1255 10.3461 19.7238 9.97846 19.3932V19.3932Z" fill="var(--fill-0, #FFDA00)"/>
</svg>
