<svg preserveAspectRatio="none" width="100%" height="100%" overflow="visible" style="display: block;" viewBox="0 0 109.232 31.0194" fill="none" xmlns="http://www.w3.org/2000/svg">
<g id="Vector">
<path d="M48.6025 9.22452C50.9162 9.22452 53.1072 10.6399 53.5696 13.6981H43.2656C43.6968 11.0145 45.7029 9.22452 48.6025 9.22452ZM53.2403 18.2226C52.4533 19.4492 50.9322 20.3928 48.8497 20.3928C45.9803 20.3928 43.7893 18.8199 43.2656 16.0429H56.1927C56.2551 15.6449 56.2866 15.2427 56.2871 14.8398C56.2871 10.521 53.2676 6.69476 48.6044 6.69476C43.7921 6.69476 40.5217 10.2426 40.5217 14.8096C40.5217 19.4332 43.8242 22.9245 48.7894 22.9245C51.8749 22.9245 54.2197 21.5355 55.5766 19.4332L53.2403 18.2226Z" fill="#006BFF"/>
<path d="M39.2514 0H36.5678V22.5225H39.2514V0Z" fill="#006BFF"/>
<path d="M71.2196 13.0508V22.5216H68.5351V13.2046C68.5351 10.6748 67.0857 9.25567 64.7098 9.25567C62.2413 9.25567 60.2362 10.706 60.2362 14.3463V22.5216H57.5517V7.09769H60.2362V9.31889C61.378 7.49871 63.0745 6.69666 65.2372 6.69666C68.8464 6.69666 71.2224 9.10281 71.2224 13.0527" fill="#006BFF"/>
<path d="M86.0195 14.8086C86.0195 11.6618 83.6436 9.28583 80.5278 9.28583C77.4423 9.28583 75.0673 11.6618 75.0673 14.8086C75.0673 17.9555 77.4423 20.3315 80.5278 20.3315C83.6417 20.3315 86.0195 17.9555 86.0195 14.8086ZM88.7031 0V22.5225H86.0195V19.8682C84.7853 21.7553 82.8113 22.9235 80.1881 22.9235C75.8995 22.9235 72.3828 19.3747 72.3828 14.8086C72.3828 10.2426 75.8995 6.6938 80.1881 6.6938C82.8104 6.6938 84.7853 7.86574 86.0195 9.74819V0H88.7031Z" fill="#006BFF"/>
<path d="M93.5511 0H90.8675V22.5225H93.5511V0Z" fill="#006BFF"/>
<path d="M31.784 14.8087C31.784 11.6618 29.409 9.28588 26.2924 9.28588C23.2078 9.28588 20.8318 11.6618 20.8318 14.8087C20.8318 17.9555 23.2078 20.3315 26.2924 20.3315C29.4062 20.3315 31.784 17.9555 31.784 14.8087ZM34.4685 7.0977V22.5216H31.784V19.8682C30.5498 21.7554 28.5758 22.9235 25.9536 22.9235C21.665 22.9235 18.1473 19.3747 18.1473 14.8087C18.1473 10.2427 21.665 6.69384 25.9536 6.69384C28.5758 6.69384 30.5498 7.86578 31.784 9.74823V7.0977H34.4685Z" fill="#006BFF"/>
<path d="M14.1663 19.553C12.7924 20.06 11.3093 20.1969 9.86575 19.9499C8.42221 19.703 7.06896 19.0809 5.94169 18.1459C4.81442 17.211 3.95274 15.9962 3.44305 14.6232C2.93336 13.2503 2.79358 11.7675 3.03771 10.3234C3.28185 8.87942 3.90132 7.52496 4.83402 6.39586C5.76672 5.26677 6.97987 4.40271 8.35183 3.89034C9.72379 3.37797 11.2063 3.23528 12.6508 3.4766C14.0953 3.71791 15.451 4.33473 16.5819 5.26522C17.0535 5.65431 17.4801 6.09487 17.8539 6.57869L20.176 4.88024C18.8232 3.11166 16.9757 1.78455 14.8678 1.06712C12.7598 0.349689 10.4864 0.274234 8.33549 0.85032C6.18463 1.42641 4.25322 2.6281 2.78607 4.30308C1.31892 5.97806 0.382089 8.05091 0.0943139 10.2589C-0.193462 12.4669 0.180779 14.7107 1.1696 16.7057C2.15842 18.7008 3.71729 20.3574 5.64865 21.4655C7.58 22.5737 9.79687 23.0834 12.0183 22.9303C14.2397 22.7771 16.3656 21.9678 18.1266 20.6051L16.581 18.1612C15.8589 18.7559 15.0429 19.2263 14.1663 19.553Z" fill="#006BFF"/>
<path d="M106.507 7.09763V15.8522C106.507 18.683 104.86 20.4758 102.346 20.4758C99.8327 20.4758 98.0125 18.683 98.0125 15.8522V7.09763H95.2968V15.5899C95.2968 20.0399 98.07 22.9291 102.346 22.9291C106.045 22.9291 106.623 20.589 106.623 20.5305V23.6802C106.623 26.8007 105.265 28.5633 102.433 28.5633C101.422 28.5683 100.443 28.2054 99.679 27.5423C98.9152 26.8791 98.4185 25.961 98.2814 24.9588L95.8536 25.808C96.201 27.2927 97.041 28.616 98.2366 29.5623C99.4322 30.5087 100.913 31.0222 102.438 31.0194C106.829 31.0194 109.232 28.1292 109.232 23.6802V7.09763H106.507Z" fill="#006BFF"/>
</g>
</svg>
