<svg preserveAspectRatio="none" width="100%" height="100%" overflow="visible" style="display: block;" viewBox="0 0 105.619 21.5369" fill="none" xmlns="http://www.w3.org/2000/svg">
<path id="Vector" d="M13.5359 12.3577L10.8588 5.35124C10.7495 5.06468 10.332 5.06468 10.2226 5.35124L7.5459 12.3581C7.5269 12.4079 7.52058 12.4615 7.5275 12.5142C7.53441 12.5669 7.55434 12.6171 7.5856 12.6607C7.61686 12.7043 7.65851 12.7399 7.70701 12.7645C7.7555 12.7891 7.8094 12.8019 7.86411 12.8019H13.2176C13.2724 12.8019 13.3263 12.789 13.3748 12.7644C13.4232 12.7398 13.4649 12.7042 13.4961 12.6606C13.5274 12.617 13.5473 12.5667 13.5541 12.514C13.561 12.4613 13.5547 12.4077 13.5356 12.3579L13.5359 12.3577ZM14.7725 16.2959H6.30945C6.24021 16.2959 6.17263 16.3165 6.11579 16.3549C6.05895 16.3933 6.01557 16.4476 5.99147 16.5107L4.32532 20.8703C4.30122 20.9333 4.25784 20.9876 4.20099 21.026C4.14415 21.0644 4.07657 21.085 4.00733 21.085H0.339167C0.283715 21.085 0.229113 21.0718 0.180138 21.0465C0.131163 21.0213 0.0893093 20.9848 0.0582419 20.9402C0.0271745 20.8956 0.00784125 20.8443 0.00193198 20.7907C-0.00397729 20.7372 0.00371816 20.6831 0.0243462 20.6331L8.46955 0.207067C8.49484 0.146057 8.53836 0.0937931 8.59451 0.0570066C8.65066 0.0202201 8.71686 0.000595066 8.7846 0.000658806H12.2969C12.4353 0.000658806 12.56 0.0823438 12.6118 0.207067L21.0567 20.6329C21.0775 20.6829 21.0852 20.7371 21.0794 20.7907C21.0735 20.8442 21.0542 20.8956 21.0231 20.9403C20.992 20.9849 20.9501 21.0215 20.9011 21.0468C20.8521 21.072 20.7974 21.0853 20.7419 21.0852H17.0744C17.0052 21.0852 16.9376 21.0646 16.8807 21.0262C16.8239 20.9877 16.7805 20.9333 16.7564 20.8703L15.0901 16.5107C15.066 16.4476 15.0226 16.3933 14.9657 16.3549C14.9089 16.3165 14.8413 16.2959 14.7721 16.2959H14.7725ZM22.7754 7.16917H25.9127C26.0027 7.16917 26.089 7.20387 26.1526 7.26564C26.2162 7.32741 26.252 7.41118 26.252 7.49854V20.7556C26.252 20.843 26.2162 20.9268 26.1526 20.9885C26.089 21.0503 26.0027 21.085 25.9127 21.085H22.7754C22.6854 21.085 22.5991 21.0503 22.5355 20.9885C22.4719 20.9268 22.4361 20.843 22.4361 20.7556V7.49832C22.4361 7.41097 22.4719 7.32719 22.5355 7.26542C22.5991 7.20365 22.6854 7.16895 22.7754 7.16895V7.16917ZM37.6941 10.394C37.6941 10.4813 37.6583 10.5651 37.5947 10.6269C37.5311 10.6886 37.4448 10.7233 37.3548 10.7233H37.2598C35.7086 10.7233 34.5707 11.0848 33.847 11.8076C33.1228 12.5305 32.7614 13.7255 32.7614 15.3921V20.7556C32.7614 20.843 32.7257 20.9268 32.6621 20.9885C32.5984 21.0503 32.5121 21.085 32.4222 21.085H29.3156C29.2256 21.085 29.1393 21.0503 29.0757 20.9885C29.0121 20.9268 28.9763 20.843 28.9763 20.7556V7.49832C28.9763 7.41097 29.0121 7.32719 29.0757 7.26542C29.1393 7.20365 29.2256 7.16895 29.3156 7.16895H32.391C32.4809 7.16895 32.5672 7.20365 32.6309 7.26542C32.6945 7.32719 32.7302 7.41097 32.7302 7.49832V10.1206H32.7924C33.1647 9.03628 33.7541 8.2034 34.561 7.62063C35.3673 7.03851 36.3601 6.74713 37.5389 6.74713H37.6941V10.3937V10.394ZM46.2725 10.2714C46.1825 10.2714 46.0962 10.3061 46.0326 10.3679C45.969 10.4297 45.9332 10.5135 45.9332 10.6008V16.115C45.9332 16.6773 46.0463 17.0789 46.2743 17.3198C46.5016 17.5607 46.8947 17.6813 47.4531 17.6813H47.7654C47.8554 17.6813 47.9417 17.716 48.0053 17.7777C48.0689 17.8395 48.1046 17.9233 48.1046 18.0106V20.7855C48.1046 20.8729 48.0689 20.9566 48.0053 21.0184C47.9417 21.0802 47.8554 21.1149 47.7654 21.1149H46.4292C45.0435 21.1149 43.9785 20.7686 43.234 20.0758C42.4892 19.383 42.1169 18.3543 42.1169 16.9885V10.6008C42.1169 10.5135 42.0812 10.4297 42.0176 10.3679C41.954 10.3061 41.8677 10.2714 41.7777 10.2714H39.8193C39.7294 10.2714 39.6431 10.2367 39.5795 10.175C39.5158 10.1132 39.4801 10.0294 39.4801 9.94206V7.49832C39.4801 7.41097 39.5158 7.32719 39.5795 7.26542C39.6431 7.20365 39.7294 7.16895 39.8193 7.16895H41.7779C41.8679 7.16895 41.9542 7.13424 42.0178 7.07247C42.0814 7.0107 42.1172 6.92693 42.1172 6.83957V1.92596C42.1172 1.83861 42.1529 1.75483 42.2165 1.69306C42.2802 1.63129 42.3664 1.59659 42.4564 1.59659H45.5938C45.6837 1.59659 45.77 1.63129 45.8336 1.69306C45.8973 1.75483 45.933 1.83861 45.933 1.92596V6.83957C45.933 6.92693 45.9688 7.0107 46.0324 7.07247C46.096 7.13424 46.1823 7.16895 46.2723 7.16895H48.5409C48.6309 7.16895 48.7172 7.20365 48.7808 7.26542C48.8444 7.32719 48.8802 7.41097 48.8802 7.49832V9.94228C48.8802 10.0296 48.8444 10.1134 48.7808 10.1752C48.7172 10.237 48.6309 10.2717 48.5409 10.2717H46.2725V10.2714ZM60.6387 16.9584C61.3522 16.2355 61.7089 15.2918 61.7089 14.1269C61.7089 12.9626 61.3522 12.0184 60.6387 11.2956C59.9251 10.5727 58.989 10.2113 57.8308 10.2113C56.6724 10.2113 55.737 10.5727 55.0232 11.2956C54.3099 12.0184 53.953 12.9626 53.953 14.1269C53.953 15.2918 54.3099 16.2355 55.0232 16.9584C55.737 17.6813 56.6724 18.0427 57.8308 18.0427C58.989 18.0427 59.9251 17.6813 60.6387 16.9584ZM53.3946 20.6632C52.3398 20.0811 51.5071 19.2324 50.8973 18.118C50.2869 17.0036 49.982 15.6734 49.982 14.1269C49.982 12.581 50.2869 11.2503 50.8973 10.136C51.5071 9.02157 52.3398 8.17354 53.3946 7.59076C54.4495 7.00843 55.6074 6.71726 56.8692 6.71726C57.986 6.71726 58.9424 6.92806 59.7392 7.34966C60.5349 7.77126 61.1708 8.36392 61.6469 9.12697H61.7089V7.49832C61.7089 7.41097 61.7446 7.32719 61.8082 7.26542C61.8719 7.20365 61.9582 7.16895 62.0481 7.16895H65.1545C65.2445 7.16895 65.3308 7.20365 65.3944 7.26542C65.458 7.32719 65.4937 7.41097 65.4937 7.49832V20.7554C65.4937 20.8428 65.458 20.9266 65.3944 20.9883C65.3308 21.0501 65.2445 21.0848 65.1545 21.0848H62.0481C61.9582 21.0848 61.8719 21.0501 61.8082 20.9883C61.7446 20.9266 61.7089 20.8428 61.7089 20.7554V19.127H61.6469C61.1708 19.8905 60.5349 20.4825 59.739 20.9041C58.9424 21.3257 57.9862 21.5365 56.8692 21.5365C55.6074 21.5365 54.4495 21.2453 53.3946 20.6632V20.6632ZM78.4129 16.9584C79.1265 16.2355 79.4832 15.2918 79.4832 14.1269C79.4832 12.9626 79.1265 12.0184 78.4129 11.2956C77.6996 10.5727 76.7635 10.2113 75.6053 10.2113C74.4469 10.2113 73.5113 10.5727 72.7977 11.2956C72.0844 12.0184 71.7273 12.9626 71.7273 14.1269C71.7273 15.2918 72.0844 16.2355 72.7977 16.9584C73.5113 17.6813 74.4469 18.0427 75.6053 18.0427C76.7635 18.0427 77.6996 17.6813 78.4129 16.9584ZM73.6974 20.9041C72.9011 20.4825 72.2649 19.8905 71.7895 19.127H71.7273V20.7554C71.7273 20.8428 71.6915 20.9266 71.6279 20.9883C71.5643 21.0501 71.478 21.0848 71.388 21.0848H68.2507C68.1607 21.0848 68.0744 21.0501 68.0108 20.9883C67.9472 20.9266 67.9115 20.8428 67.9115 20.7554V0.329375C67.9115 0.242019 67.9472 0.158241 68.0108 0.0964717C68.0744 0.034702 68.1607 0 68.2507 0H71.388C71.478 0 71.5643 0.034702 71.6279 0.0964717C71.6915 0.158241 71.7273 0.242019 71.7273 0.329375V9.12675H71.7895C72.2649 8.3637 72.9011 7.77126 73.6974 7.34966C74.4935 6.92784 75.4502 6.71704 76.5672 6.71704C77.8285 6.71704 78.9869 7.00821 80.0418 7.59055C81.0966 8.17332 81.9289 9.02135 82.5391 10.1355C83.1491 11.2506 83.4546 12.5812 83.4546 14.1271C83.4546 15.6736 83.1491 17.0036 82.5393 18.1182C81.9291 19.2326 81.0968 20.0813 80.042 20.6632C78.9872 21.2455 77.8288 21.5369 76.5674 21.5369C75.4504 21.5369 74.4937 21.3261 73.6976 20.9043L73.6974 20.9041ZM88.7405 21.085H85.6032C85.5132 21.085 85.4269 21.0503 85.3633 20.9885C85.2997 20.9268 85.2639 20.843 85.2639 20.7556V0.330033C85.2639 0.242678 85.2997 0.1589 85.3633 0.0971301C85.4269 0.0353604 85.5132 0.000658806 85.6032 0.000658806H88.7405C88.8305 0.000658806 88.9168 0.0353604 88.9804 0.0971301C89.044 0.1589 89.0798 0.242678 89.0798 0.330033V20.7556C89.0798 20.843 89.044 20.9268 88.9804 20.9885C88.9168 21.0503 88.8305 21.085 88.7405 21.085V21.085ZM96.1411 10.3922C95.6209 10.7861 95.2697 11.3549 95.0878 12.0988C95.0378 12.3039 95.2027 12.5006 95.4198 12.5006H101.391C101.598 12.5006 101.761 12.3206 101.727 12.1221C101.608 11.4183 101.297 10.8573 100.795 10.4374C100.205 9.94557 99.4345 9.69964 98.4832 9.69964C97.5318 9.69964 96.7508 9.93042 96.1411 10.3922V10.3922ZM103.788 8.66013C105.009 9.95567 105.619 11.7881 105.619 14.1572V14.5507C105.619 14.638 105.583 14.7218 105.519 14.7836C105.456 14.8453 105.369 14.88 105.279 14.88H95.3047C95.255 14.8801 95.2059 14.8908 95.1609 14.9112C95.1159 14.9316 95.076 14.9613 95.044 14.9982C95.0121 15.0351 94.9888 15.0784 94.9758 15.125C94.9628 15.1715 94.9604 15.2203 94.9689 15.2678C95.1283 16.1479 95.5293 16.8471 96.1721 17.3651C96.906 17.9579 97.8319 18.2537 98.9487 18.2537C100.39 18.2537 101.725 17.7074 102.952 16.6145C103.102 16.481 103.34 16.5093 103.456 16.6716L104.981 18.7972C105.029 18.8633 105.05 18.9442 105.041 19.0244C105.031 19.1046 104.992 19.1787 104.929 19.2324C104.181 19.8687 103.348 20.4056 102.454 20.829C101.461 21.3006 100.293 21.5369 98.9487 21.5369C97.3976 21.5369 96.0425 21.2304 94.8845 20.6182C93.7259 20.006 92.8264 19.1426 92.1857 18.0278C91.5443 16.9134 91.2238 15.6233 91.2238 14.1572C91.2238 12.6917 91.5341 11.3966 92.1545 10.2717C92.7748 9.14739 93.6435 8.27389 94.7606 7.65115C95.8774 7.02907 97.1803 6.71748 98.6696 6.71748C100.861 6.71748 102.568 7.36525 103.788 8.66013V8.66013ZM26.6618 2.26807C26.6618 3.51047 25.6244 4.5177 24.3445 4.5177C23.0644 4.5177 22.027 3.51047 22.027 2.26785C22.027 1.02523 23.0646 0.018006 24.3445 0.018006C25.6244 0.018006 26.6618 1.02523 26.6618 2.26785" fill="var(--fill-0, #333333)"/>
</svg>
