<svg preserveAspectRatio="none" width="100%" height="100%" overflow="visible" style="display: block;" viewBox="0 0 28.8012 28.561" fill="none" xmlns="http://www.w3.org/2000/svg">
<g id="Vector">
<path d="M22.2843 6.64589L12.58 16.3501L9.84353 13.6136C19.3868 4.07035 20.3296 4.8982 22.2843 6.64589Z" fill="white"/>
<path d="M12.5803 16.5802C12.5113 16.5802 12.4653 16.5572 12.4193 16.5112L9.65981 13.7747C9.56783 13.6827 9.56783 13.5448 9.65981 13.4528C19.3641 3.74853 20.3759 4.66836 22.4225 6.50803C22.4685 6.55402 22.4915 6.60002 22.4915 6.669C22.4915 6.73799 22.4685 6.78398 22.4225 6.82997L12.7183 16.5112C12.6953 16.5572 12.6263 16.5802 12.5803 16.5802ZM10.1657 13.6138L12.5803 16.0283L21.9396 6.669C20.2379 5.15128 19.0881 4.69136 10.1657 13.6138Z" fill="#FF6C37"/>
<path d="M15.3624 19.1327L12.7179 16.4882L22.4221 6.78395C25.0207 9.40548 21.1344 13.6597 15.3624 19.1327Z" fill="white"/>
<path d="M15.3627 19.3627C15.2937 19.3627 15.2477 19.3397 15.2018 19.2937L12.5572 16.6492C12.5112 16.6032 12.5112 16.5572 12.5112 16.4882C12.5112 16.4192 12.5342 16.3732 12.5802 16.3272L22.2845 6.62296C22.3765 6.53098 22.5144 6.53098 22.6064 6.62296C23.2043 7.17487 23.5263 7.95673 23.5033 8.76158C23.4573 11.3141 20.5598 14.5565 15.5467 19.2937C15.4777 19.3397 15.4087 19.3627 15.3627 19.3627ZM13.0401 16.4882C14.5119 17.9829 15.1328 18.5808 15.3627 18.8108C19.226 15.1314 22.9744 11.3601 22.9974 8.76158C23.0203 8.16369 22.7904 7.56579 22.3995 7.10588L13.0401 16.4882Z" fill="#FF6C37"/>
<path d="M9.88981 13.6827L11.8445 15.6373C11.8904 15.6833 11.8904 15.7293 11.8445 15.7753C11.8215 15.7983 11.8215 15.7983 11.7985 15.7983L7.75119 16.6722C7.54423 16.6952 7.36026 16.5572 7.31427 16.3502C7.29128 16.2352 7.33727 16.1203 7.40626 16.0513L9.75183 13.7057C9.79782 13.6597 9.86681 13.6367 9.88981 13.6827Z" fill="white"/>
<path d="M7.68207 16.9022C7.33713 16.9022 7.08418 16.6262 7.08418 16.2813C7.08418 16.1203 7.15317 15.9593 7.26815 15.8444L9.61372 13.4988C9.7517 13.3838 9.93567 13.3838 10.0736 13.4988L12.0283 15.4534C12.1663 15.5684 12.1663 15.7754 12.0283 15.9134C11.9823 15.9593 11.9363 15.9823 11.8673 16.0053L7.82005 16.8792C7.77406 16.8792 7.72806 16.9022 7.68207 16.9022ZM9.82069 13.9357L7.56709 16.1893C7.5211 16.2353 7.49811 16.3043 7.5441 16.3733C7.56709 16.4423 7.63608 16.4653 7.70507 16.4423L11.4994 15.6144L9.82069 13.9357Z" fill="#FF6C37"/>
<path d="M27.4123 1.26518C25.9405 -0.160566 23.572 -0.114574 22.1462 1.38016C20.7205 2.87489 20.7665 5.22046 22.2612 6.64621C23.48 7.819 25.3196 8.02596 26.7684 7.15212L24.1468 4.53059L27.4123 1.26518Z" fill="white"/>
<path d="M24.8367 7.91057C22.6521 7.91057 20.8814 6.13989 20.8814 3.95529C20.8814 1.77068 22.6521 0 24.8367 0C25.8485 0 26.8374 0.390929 27.5732 1.1038C27.6192 1.14979 27.6422 1.19578 27.6422 1.26477C27.6422 1.33376 27.6192 1.37975 27.5732 1.42574L24.4688 4.53018L26.9063 6.96774C26.9983 7.05973 26.9983 7.1977 26.9063 7.28969C26.8834 7.31268 26.8834 7.31268 26.8604 7.33568C26.2625 7.70361 25.5496 7.91057 24.8367 7.91057ZM24.8367 0.482913C22.9051 0.482913 21.3414 2.04663 21.3643 3.97828C21.3643 5.90993 22.9281 7.47365 24.8597 7.45066C25.3886 7.45066 25.9175 7.33568 26.4004 7.08272L23.9859 4.69115C23.9399 4.64516 23.9169 4.59917 23.9169 4.53018C23.9169 4.4612 23.9399 4.4152 23.9859 4.36921L27.0673 1.28777C26.4464 0.758863 25.6646 0.482913 24.8367 0.482913Z" fill="#FF6C37"/>
<path d="M27.4817 1.334L27.4357 1.28801L24.1468 4.53059L26.7458 7.12896C26.9987 6.96799 27.2517 6.78402 27.4587 6.57706C28.9304 5.12832 28.9304 2.78274 27.4817 1.334Z" fill="white"/>
<path d="M26.7689 7.38181C26.6999 7.38181 26.6539 7.35881 26.6079 7.31282L23.9859 4.69115C23.9399 4.64516 23.9169 4.59917 23.9169 4.53018C23.9169 4.4612 23.9399 4.4152 23.9859 4.36921L27.2518 1.10394C27.3438 1.01195 27.4812 1.01182 27.5732 1.1038L27.6427 1.14993C29.1835 2.69065 29.1835 5.17421 27.6657 6.73792C27.4358 6.96788 27.1828 7.17484 26.9069 7.33582C26.8379 7.35881 26.7919 7.38181 26.7689 7.38181ZM24.4688 4.53018L26.7919 6.8529C26.9759 6.73792 27.1598 6.57695 27.2978 6.43898C28.6086 5.12821 28.6775 2.9896 27.4128 1.60985L24.4688 4.53018Z" fill="#FF6C37"/>
<path d="M22.6755 7.05987C22.1236 6.50797 21.2267 6.50797 20.6748 7.05987L12.0054 15.7293L13.4541 17.178L22.6295 9.1295C23.2274 8.62359 23.2733 7.72675 22.7674 7.12886C22.7214 7.10586 22.6985 7.08286 22.6755 7.05987Z" fill="white"/>
<path d="M13.431 17.4081C13.362 17.4081 13.316 17.3851 13.27 17.3391L11.8213 15.8904C11.7293 15.7984 11.7293 15.6604 11.8213 15.5684L20.4907 6.899C21.1346 6.25512 22.1694 6.25512 22.8133 6.899C23.4572 7.54289 23.4572 8.5777 22.8133 9.22159C22.7903 9.24458 22.7673 9.26758 22.7443 9.29057L13.569 17.3391C13.546 17.3851 13.5 17.4081 13.431 17.4081ZM12.3272 15.7294L13.454 16.8562L22.4684 8.94564C22.9743 8.53171 23.0203 7.77285 22.6064 7.26694C22.1924 6.76103 21.4336 6.71504 20.9277 7.12896C20.9047 7.15196 20.8817 7.17495 20.8357 7.19795L12.3272 15.7294Z" fill="#FF6C37"/>
<path d="M5.3597 25.5946C5.26771 25.6406 5.22172 25.7326 5.24472 25.8246L5.63565 27.4803C5.72763 27.7103 5.58966 27.9862 5.3367 28.0552C5.15274 28.1242 4.94577 28.0552 4.83079 27.9172L2.30125 25.4107L10.5568 17.1552L13.4082 17.2012L15.3399 19.1328C14.88 19.5237 12.0975 22.2143 5.3597 25.5946Z" fill="white"/>
<path d="M5.17541 28.285C4.99145 28.285 4.80748 28.216 4.6925 28.078L2.18595 25.5715C2.13996 25.5255 2.11697 25.4795 2.11697 25.4105C2.11697 25.3415 2.13996 25.2955 2.18595 25.2495L10.4415 16.994C10.4875 16.948 10.5564 16.925 10.6024 16.925L13.4539 16.971C13.5229 16.971 13.5689 16.994 13.6149 17.04L15.5465 18.9717C15.5925 19.0176 15.6155 19.0866 15.6155 19.1556C15.6155 19.2246 15.5925 19.2706 15.5236 19.3166L15.3626 19.4546C12.925 21.5932 9.61362 23.7318 5.49736 25.7784L5.88829 27.4111C5.95727 27.7101 5.8193 28.032 5.54335 28.193C5.40537 28.262 5.29039 28.285 5.17541 28.285ZM2.64587 25.4105L5.01444 27.7561C5.08343 27.8711 5.22141 27.917 5.33639 27.8481C5.45137 27.7791 5.49736 27.6411 5.42837 27.5261L5.03744 25.8704C4.99145 25.6635 5.08343 25.4795 5.2674 25.3875C9.33767 23.3409 12.6261 21.2252 15.0406 19.1326L13.3389 17.4309L10.6944 17.3849L2.64587 25.4105Z" fill="#FF6C37"/>
<path d="M0.346292 27.3883L2.32394 25.4107L5.26741 28.3542L0.576251 28.0322C0.369288 28.0092 0.231315 27.8252 0.25431 27.6183C0.25431 27.5263 0.277305 27.4343 0.346292 27.3883Z" fill="white"/>
<path d="M5.26763 28.561L0.553482 28.2391C0.208544 28.2161 -0.0214148 27.9171 0.0015811 27.5722C0.024577 27.4342 0.0705694 27.2962 0.185549 27.2043L2.16319 25.2266C2.25518 25.1346 2.39315 25.1346 2.48514 25.2266L5.42861 28.1701C5.49759 28.2391 5.52059 28.3311 5.4746 28.423C5.42861 28.515 5.35962 28.561 5.26763 28.561ZM2.32416 25.7325L0.507491 27.5492C0.438504 27.5952 0.438504 27.7102 0.507491 27.7562C0.530487 27.7792 0.553483 27.8021 0.599475 27.8021L4.66974 28.0781L2.32416 25.7325Z" fill="#FF6C37"/>
<path d="M9.75165 18.2129C9.61367 18.2129 9.52169 18.0979 9.52169 17.9829C9.52169 17.9139 9.54469 17.868 9.59068 17.822L11.8213 15.5914C11.9133 15.4994 12.0512 15.4994 12.1432 15.5914L13.592 17.0401C13.6609 17.1091 13.6839 17.1781 13.6609 17.2701C13.638 17.3391 13.569 17.408 13.477 17.431L9.79764 18.2129C9.77465 18.2129 9.75165 18.2129 9.75165 18.2129ZM11.9822 16.0743L10.4645 17.592L12.9481 17.0631L11.9822 16.0743Z" fill="#FF6C37"/>
<path d="M13.4082 17.2012L10.8785 17.7531C10.6946 17.7991 10.5106 17.6841 10.4646 17.5001C10.4416 17.3852 10.4646 17.2702 10.5566 17.1782L11.9593 15.7754L13.4082 17.2012Z" fill="white"/>
<path d="M10.8326 17.9829C10.5106 17.9829 10.2577 17.73 10.2577 17.408C10.2577 17.2471 10.3266 17.1091 10.4186 16.9941L11.8213 15.5914C11.9133 15.4994 12.0512 15.4994 12.1432 15.5914L13.592 17.0401C13.6609 17.1091 13.6839 17.1781 13.6609 17.2701C13.638 17.3391 13.569 17.408 13.477 17.431L10.9475 17.9829C10.9015 17.9829 10.8556 17.9829 10.8326 17.9829ZM11.9822 16.0743L10.7406 17.3161C10.6946 17.362 10.6946 17.408 10.7176 17.454C10.7406 17.5 10.7866 17.523 10.8556 17.523L12.9712 17.0631L11.9822 16.0743Z" fill="#FF6C37"/>
<path d="M27.5047 3.54168C27.4587 3.40371 27.2978 3.33472 27.1598 3.38071C27.0218 3.4267 26.9528 3.58767 26.9988 3.72565C26.9988 3.74864 27.0218 3.77164 27.0218 3.79464C27.1598 4.07059 27.1138 4.41552 26.9298 4.66848C26.8378 4.78346 26.8608 4.94443 26.9528 5.03641C27.0678 5.1284 27.2288 5.1054 27.3208 4.99042C27.6657 4.5535 27.7347 4.0016 27.5047 3.54168Z" fill="#FF6C37"/>
</g>
</svg>
