<svg preserveAspectRatio="none" width="100%" height="100%" overflow="visible" style="display: block;" viewBox="0 0 46.2339 36.2736" fill="none" xmlns="http://www.w3.org/2000/svg">
<g id="g891">
<path id="path4" fill-rule="evenodd" clip-rule="evenodd" d="M4.82698 25.8326L0 20.4342L14.7751 15.0561L17.0749 21.3748L4.82698 25.8326Z" fill="var(--fill-0, #F89920)"/>
<path id="path6" fill-rule="evenodd" clip-rule="evenodd" d="M4.79145 25.7356L4.56403 32.9741L19.3392 27.596L17.0394 21.2778L4.79145 25.7356Z" fill="var(--fill-0, #FFBE22)"/>
<path id="path8" fill-rule="evenodd" clip-rule="evenodd" d="M45.8504 10.9124C47.9586 17.0202 41.1657 25.046 30.5992 28.8922C20.0317 32.7379 9.66934 30.9563 7.35794 24.9221L45.8504 10.9124Z" fill="var(--fill-0, #F0670A)"/>
<path id="path10" fill-rule="evenodd" clip-rule="evenodd" d="M45.8509 10.9115C43.5545 4.86176 33.181 3.07294 22.6029 6.92252C12.0242 10.7726 5.22795 18.8114 7.3579 24.9221L45.8509 10.9115Z" fill="var(--fill-0, #FFD00E)"/>
<path id="path12" fill-rule="evenodd" clip-rule="evenodd" d="M45.848 10.9129C47.1622 14.9996 39.7872 21.3642 29.2531 25.1979C18.7185 29.0324 8.9779 28.8975 7.35794 24.9221L45.848 10.9129Z" fill="var(--fill-0, #F89920)"/>
<path id="path14" fill-rule="evenodd" clip-rule="evenodd" d="M45.8513 10.912C44.2555 6.91777 34.4999 6.776 23.9484 10.6169C13.3969 14.4573 6.01512 20.836 7.35977 24.9217L45.8513 10.912Z" fill="var(--fill-0, #FFBE22)"/>
<path id="path16" d="M28.0914 5.36853C27.0859 1.89199 25.9421 -0.0361852 24.6415 0.000588147C22.1268 0.0721993 21.2815 8.04524 22.0954 18.2619C22.918 28.587 25.0513 36.3433 27.7111 36.2731C29.2972 36.2315 30.1904 33.6941 30.5039 29.2886C30.5102 29.1986 30.41 29.261 30.4158 29.1691C30.4158 29.1691 30.4028 29.0084 30.3433 29.0046L30.006 28.9828C29.7297 33.2601 28.8927 35.7249 27.6975 35.7563C25.5114 35.8134 23.4008 28.1409 22.6112 18.2213C21.8336 8.46425 22.6707 0.573955 24.6565 0.517344C25.5966 0.490731 26.65 2.2665 27.5819 5.46819C27.5819 5.46819 28.0919 5.36997 28.0914 5.36852L28.0914 5.36853Z" fill="var(--fill-0, #F0670A)"/>
<path id="path18" d="M15.6337 2.88795C13.4916 4.20743 16.7461 11.5345 22.5591 19.9759C28.4337 28.5064 34.1597 34.1569 36.428 32.7663C37.6957 31.9892 37.3401 29.6299 35.7071 26.0687C35.6938 26.0366 35.6742 26.0074 35.6494 25.983C35.6246 25.9587 35.5951 25.9395 35.5628 25.9268C35.5304 25.9141 35.4958 25.908 35.4611 25.909C35.4263 25.91 35.3921 25.918 35.3605 25.9324C35.3289 25.9469 35.3005 25.9677 35.2771 25.9934C35.2537 26.0191 35.2358 26.0493 35.2243 26.0821C35.2128 26.1149 35.2081 26.1497 35.2104 26.1844C35.2127 26.2191 35.222 26.253 35.2377 26.284C36.7551 29.5951 37.0812 31.7594 36.1575 32.3255C34.2932 33.4679 28.6296 27.8788 22.9849 19.6822C17.4336 11.6216 14.2131 4.37049 15.9051 3.32826C16.8032 2.77473 18.9399 4.11018 21.7632 6.99447C21.7946 7.0264 21.9751 7.21365 22.0153 7.22575C22.1029 7.25236 22.0588 7.06704 22.129 6.99834C22.1533 6.97459 22.1727 6.94629 22.186 6.91504C22.1994 6.8838 22.2065 6.85023 22.2068 6.81625C22.2072 6.78227 22.2008 6.74855 22.1882 6.71703C22.1755 6.68551 22.1567 6.65679 22.1329 6.63254C19.1165 3.55132 16.853 2.13652 15.6337 2.88747V2.88795Z" fill="var(--fill-0, #F0670A)"/>
</g>
</svg>
