<svg preserveAspectRatio="none" width="100%" height="100%" overflow="visible" style="display: block;" viewBox="0 0 62.6303 12.6367" fill="none" xmlns="http://www.w3.org/2000/svg">
<path id="Vector" d="M6.42527 6.74816L2.2117 0.00198614H0V12.4153H2.0852V3.35522L6.36905 10.158L10.681 3.30856V12.4252H12.7522V0H10.5917L6.42527 6.74816ZM19.7748 12.4143L19.7607 11.2926C19.1363 12.19 18.1142 12.6248 17.023 12.6248C15.4337 12.6248 14.3123 11.6023 14.3123 10.1282C14.3123 8.51511 15.3464 7.56116 17.4185 7.24946L19.6874 6.89905V6.76007C19.6874 5.83391 18.9927 5.33063 17.787 5.33063C16.6374 5.33063 15.6586 5.80711 14.8082 6.56452V4.55933C15.5743 3.94189 16.6384 3.53688 17.9205 3.53688C20.3741 3.53688 21.7084 4.77077 21.7084 6.84743V12.4302L19.7748 12.4143ZM17.5189 10.9551C18.81 10.9551 19.7035 10.1272 19.7035 8.93501V8.45853L17.7458 8.78115C16.7951 8.93501 16.3132 9.342 16.3132 9.97235C16.3272 10.5759 16.8151 10.965 17.5179 10.965M28.6115 5.69593C28.5262 5.63935 28.3425 5.62645 28.0724 5.62645C26.5544 5.62645 25.6188 6.79084 25.6188 8.5846V12.4133H23.5607V3.71754H25.6037V5.20456C26.0294 4.19502 27.0795 3.53688 28.214 3.53688C28.4409 3.53688 28.5684 3.55078 28.6115 3.59346V5.69593ZM29.9468 12.4143H32.0049V8.96379L32.4587 8.56673L35.594 12.4242H38.134L34.0319 7.50457L37.8469 3.71754H35.3069L32.0019 6.99931V0.000994017H29.9438L29.9468 12.4143ZM45.9477 11.6996C45.0402 12.2604 43.8625 12.6258 42.5574 12.6258C39.6489 12.6258 37.8188 10.6762 37.8188 8.05352C37.8188 5.44479 39.6489 3.52298 42.2301 3.52298C44.7982 3.52298 46.4437 5.43089 46.4437 8.01183C46.4437 8.29275 46.4437 8.46051 46.3864 8.72655H39.8768C40.0325 9.93264 41.0414 10.8866 42.6859 10.8866C43.7922 10.8866 44.8705 10.4935 45.9347 9.72219V11.6996H45.9477ZM44.4157 7.18295C44.2882 5.99175 43.4368 5.17776 42.1889 5.17776C40.941 5.17776 40.0184 6.14561 39.8768 7.18295H44.4157ZM51.6793 10.7566C52.0206 10.7566 52.374 10.6871 52.6431 10.4905V12.3141C52.3017 12.5106 51.7777 12.6367 51.0689 12.6367C49.2959 12.6367 48.2598 11.5705 48.2598 9.75793V5.48946H46.6997L50.3169 0.931123V3.7503H52.6431V5.48946H50.3179V9.38866C50.3179 10.3813 50.7436 10.7784 51.6793 10.7784M62.6303 8.07635C62.6303 10.6295 60.6445 12.6347 57.9489 12.6347C55.2533 12.6347 53.2675 10.6295 53.2675 8.07635C53.2675 5.52321 55.2533 3.51802 57.9489 3.51802C60.6295 3.51802 62.6303 5.52321 62.6303 8.07635ZM55.3246 8.07635C55.3246 9.56337 56.4741 10.7566 57.9349 10.7566C59.4107 10.7566 60.5451 9.56535 60.5451 8.07635C60.5451 6.58735 59.3956 5.39615 57.9349 5.39615C56.4741 5.39615 55.3246 6.58735 55.3246 8.07635" fill="var(--fill-0, #1F1646)"/>
</svg>
