<svg preserveAspectRatio="none" width="100%" height="100%" overflow="visible" style="display: block;" viewBox="0 0 114.129 24.5336" fill="none" xmlns="http://www.w3.org/2000/svg">
<path id="Vector" d="M0.0257954 0H15.685V2.91514H9.51936V19.3483H6.13985V2.91514H0L0.0257954 0ZM15.0143 5.34012H17.9036V8.04888H17.9552C18.0584 7.66191 18.239 7.30075 18.497 6.93958C18.7549 6.57841 19.0645 6.24304 19.4515 5.95926C19.8126 5.64969 20.2254 5.41751 20.6898 5.23693C21.1283 5.05635 21.5927 4.95315 22.057 4.95315C22.4182 4.95315 22.6762 4.97895 22.8052 4.97895C22.9342 5.00475 23.089 5.03055 23.2179 5.03055V7.99729C23.0116 7.94569 22.7794 7.91989 22.5472 7.89409C22.315 7.86829 22.1086 7.8425 21.8765 7.8425C21.3605 7.8425 20.8704 7.94568 20.406 8.15207C19.9416 8.35845 19.5547 8.66802 19.1935 9.05498C18.8581 9.46775 18.5744 9.95791 18.368 10.5513C18.1616 11.1446 18.0584 11.8411 18.0584 12.6151V19.2709H14.9627L15.0143 5.34012ZM37.4067 19.3483H34.3626V17.3876H34.311C33.924 18.11 33.3564 18.6517 32.6083 19.0903C31.8602 19.5289 31.0862 19.7352 30.3123 19.7352C28.4807 19.7352 27.1392 19.2967 26.3137 18.368C25.4881 17.465 25.0754 16.072 25.0754 14.2403V5.34012H28.1711V13.9308C28.1711 15.169 28.4033 16.0462 28.8934 16.5363C29.3578 17.0523 30.0285 17.3102 30.8799 17.3102C31.5248 17.3102 32.0666 17.2071 32.5051 17.0007C32.9437 16.7943 33.3049 16.5363 33.5628 16.2009C33.8466 15.8656 34.0272 15.4528 34.1562 14.9885C34.2852 14.5241 34.3368 14.0081 34.3368 13.4664V5.34012H37.4325V19.3483H37.4067ZM42.6694 14.8595C42.7726 15.7624 43.108 16.3815 43.7013 16.7685C44.2947 17.1297 45.017 17.3102 45.8425 17.3102C46.1263 17.3102 46.4617 17.2845 46.8229 17.2329C47.184 17.1813 47.5452 17.1039 47.8548 16.9749C48.1901 16.8459 48.4481 16.6653 48.6545 16.4073C48.8609 16.1494 48.9641 15.8398 48.9383 15.4528C48.9125 15.0659 48.7835 14.7305 48.4997 14.4725C48.2159 14.2145 47.8806 14.0339 47.4678 13.8534C47.055 13.6986 46.5649 13.5696 46.0231 13.4664C45.4814 13.3632 44.9396 13.2342 44.3721 13.1052C43.8045 12.9762 43.237 12.8215 42.6952 12.6409C42.1535 12.4603 41.6891 12.2281 41.2505 11.8927C40.8378 11.5832 40.4766 11.1962 40.2444 10.706C39.9865 10.2159 39.8575 9.64833 39.8575 8.926C39.8575 8.15207 40.0381 7.53292 40.425 7.01697C40.7862 6.50101 41.2763 6.08825 41.8439 5.77868C42.4114 5.46911 43.0564 5.23693 43.7529 5.10794C44.4495 4.97895 45.1202 4.92735 45.7393 4.92735C46.4617 4.92735 47.1582 5.00475 47.8032 5.15954C48.4481 5.31433 49.0673 5.5465 49.5832 5.90767C50.125 6.24304 50.5635 6.70739 50.8989 7.24915C51.2601 7.7909 51.4664 8.46164 51.5696 9.23557H48.3449C48.1901 8.48744 47.8548 7.99729 47.3388 7.73931C46.7971 7.48133 46.2037 7.35234 45.5072 7.35234C45.3008 7.35234 45.017 7.37814 44.7332 7.40393C44.4237 7.45553 44.1657 7.50713 43.8819 7.61032C43.6239 7.71351 43.3918 7.86829 43.2112 8.04888C43.0306 8.22946 42.9274 8.48744 42.9274 8.79701C42.9274 9.18397 43.0564 9.46775 43.3144 9.69993C43.5723 9.93211 43.9077 10.1127 44.3463 10.2933C44.759 10.4481 45.2492 10.5771 45.7909 10.6802C46.3327 10.7834 46.9002 10.9124 47.4678 11.0414C48.0353 11.1704 48.5771 11.3252 49.1188 11.5058C49.6606 11.6863 50.1508 11.9185 50.5635 12.2539C50.9763 12.5635 51.3375 12.9504 51.5954 13.4148C51.8534 13.8792 51.9824 14.4725 51.9824 15.1432C51.9824 15.9688 51.8018 16.6653 51.4148 17.2587C51.0279 17.8262 50.5377 18.3164 49.9444 18.6775C49.351 19.0387 48.6545 19.2967 47.9322 19.4773C47.184 19.632 46.4617 19.7352 45.7393 19.7352C44.8622 19.7352 44.0367 19.632 43.2886 19.4257C42.5404 19.2193 41.8697 18.9097 41.3279 18.5227C40.7862 18.11 40.3476 17.6198 40.0381 17.0007C39.7285 16.4073 39.5479 15.685 39.5221 14.8337H42.6436V14.8595H42.6694ZM52.8595 5.34012H55.2071V1.1093H58.3028V5.31432H61.089V7.61032H58.3028V15.0917C58.3028 15.427 58.3286 15.685 58.3544 15.943C58.3802 16.1752 58.4576 16.3815 58.535 16.5363C58.6382 16.6911 58.793 16.8201 58.9736 16.8975C59.18 16.9749 59.4379 17.0265 59.7991 17.0265C60.0055 17.0265 60.2377 17.0265 60.444 17.0007C60.6504 16.9749 60.8826 16.9491 61.089 16.8975V19.2967C60.7536 19.3483 60.4182 19.3741 60.0829 19.3999C59.7475 19.4515 59.4379 19.4515 59.0768 19.4515C58.2512 19.4515 57.6063 19.3741 57.1161 19.2193C56.626 19.0645 56.239 18.8323 55.9552 18.5485C55.6715 18.239 55.4909 17.8778 55.3877 17.4392C55.2845 17.0007 55.2329 16.4589 55.2071 15.8914V7.63611H52.8595V5.28853V5.34012ZM63.256 5.34012H66.1711V7.24915H66.2227C66.6613 6.42362 67.2546 5.85607 68.0286 5.49491C68.8025 5.13374 69.628 4.95315 70.5568 4.95315C71.6661 4.95315 72.6206 5.13374 73.4461 5.5465C74.2716 5.93347 74.9424 6.44942 75.4841 7.14596C76.0259 7.8167 76.4386 8.61643 76.6966 9.51935C76.9546 10.4223 77.1094 11.4026 77.1094 12.4087C77.1094 13.3632 76.9804 14.2661 76.7482 15.1432C76.4902 16.0204 76.1291 16.8201 75.6389 17.4908C75.1487 18.1616 74.5296 18.7033 73.7557 19.1161C72.9817 19.5288 72.1046 19.7352 71.0727 19.7352C70.6341 19.7352 70.1698 19.6836 69.7312 19.6062C69.2927 19.5289 68.8541 19.3999 68.4413 19.2193C68.0286 19.0387 67.6416 18.8065 67.3062 18.5227C66.9451 18.239 66.6613 17.9036 66.4291 17.5424H66.3775V24.5336H63.2818V5.34012H63.256ZM74.0652 12.3571C74.0652 11.7379 73.9879 11.1188 73.8073 10.5255C73.6525 9.93211 73.3945 9.41615 73.0591 8.9518C72.7238 8.48744 72.311 8.12627 71.8466 7.8425C71.3565 7.55872 70.7889 7.42973 70.1698 7.42973C68.8799 7.42973 67.8996 7.8683 67.2288 8.77122C66.5839 9.67414 66.2485 10.8866 66.2485 12.3829C66.2485 13.1052 66.3259 13.7502 66.5065 14.3435C66.6871 14.9369 66.9193 15.4528 67.2804 15.8914C67.6158 16.3299 68.0286 16.6653 68.5187 16.9233C69.0089 17.1813 69.5506 17.3102 70.1956 17.3102C70.9179 17.3102 71.4855 17.1555 71.9756 16.8717C72.4658 16.5879 72.8527 16.2009 73.1881 15.7624C73.4977 15.298 73.7299 14.7821 73.8589 14.1887C73.9878 13.5696 74.0652 12.9762 74.0652 12.3571V12.3571ZM79.5086 0H82.6043V2.91514H79.5086V0ZM79.5086 5.34012H82.6043V19.3483H79.5086V5.34012ZM85.3646 0H88.4604V19.3483H85.3646V0ZM97.9023 19.7352C96.793 19.7352 95.7869 19.5546 94.9098 19.1677C94.0327 18.7807 93.3103 18.2906 92.6912 17.6456C92.0979 17.0007 91.6335 16.2009 91.3239 15.298C91.0143 14.3951 90.8338 13.389 90.8338 12.3313C90.8338 11.2736 90.9885 10.2933 91.3239 9.39036C91.6335 8.48744 92.0979 7.71351 92.6912 7.04277C93.2845 6.39783 94.0327 5.88187 94.9098 5.52071C95.7869 5.15954 96.793 4.95315 97.9023 4.95315C99.0116 4.95315 100.018 5.13374 100.895 5.52071C101.772 5.88187 102.494 6.39783 103.113 7.04277C103.707 7.68771 104.171 8.48744 104.481 9.39036C104.79 10.2933 104.971 11.2736 104.971 12.3313C104.971 13.4148 104.816 14.3951 104.481 15.298C104.145 16.2009 103.707 16.9749 103.113 17.6456C102.52 18.2906 101.772 18.8065 100.895 19.1677C100.018 19.5289 99.0374 19.7352 97.9023 19.7352ZM97.9023 17.2845C98.5731 17.2845 99.1922 17.1297 99.6824 16.8459C100.198 16.5621 100.585 16.1752 100.921 15.7108C101.256 15.2464 101.488 14.7047 101.643 14.1371C101.798 13.5438 101.875 12.9504 101.875 12.3313C101.875 11.7379 101.798 11.1446 101.643 10.5513C101.488 9.95791 101.256 9.44195 100.921 8.97759C100.585 8.51324 100.173 8.15207 99.6824 7.8683C99.1664 7.58452 98.5731 7.42973 97.9023 7.42973C97.2316 7.42973 96.6124 7.58452 96.1223 7.8683C95.6063 8.15207 95.2194 8.53903 94.884 8.97759C94.5486 9.44195 94.3164 9.95791 94.1617 10.5513C94.0069 11.1446 93.9295 11.7379 93.9295 12.3313C93.9295 12.9504 94.0069 13.5438 94.1617 14.1371C94.3164 14.7305 94.5486 15.2464 94.884 15.7108C95.2194 16.1752 95.6321 16.5621 96.1223 16.8459C96.6382 17.1555 97.2316 17.2845 97.9023 17.2845ZM105.9 5.34012H108.247V1.1093H111.343V5.31432H114.129V7.61032H111.343V15.0917C111.343 15.427 111.369 15.685 111.395 15.943C111.42 16.1752 111.498 16.3815 111.575 16.5363C111.678 16.6911 111.833 16.8201 112.014 16.8975C112.22 16.9749 112.478 17.0265 112.839 17.0265C113.046 17.0265 113.278 17.0265 113.484 17.0007C113.691 16.9749 113.923 16.9491 114.129 16.8975V19.2967C113.794 19.3483 113.458 19.3741 113.123 19.3999C112.788 19.4515 112.478 19.4515 112.117 19.4515C111.291 19.4515 110.646 19.3741 110.156 19.2193C109.666 19.0645 109.279 18.8323 108.995 18.5485C108.712 18.239 108.531 17.8778 108.428 17.4392C108.325 17.0007 108.273 16.4589 108.247 15.8914V7.63611H105.9V5.28853V5.34012Z" fill="var(--fill-0, black)"/>
</svg>
