<svg preserveAspectRatio="none" width="100%" height="100%" overflow="visible" style="display: block;" viewBox="0 0 26.5131 10.9208" fill="none" xmlns="http://www.w3.org/2000/svg">
<path id="Vector" d="M26.5131 10.8718H25.6448H25.0334H24.96C22.9177 10.8718 20.5024 10.9819 17.6713 10.8718H17.2188C16.6074 10.8718 15.3111 10.7557 15.2927 10.7557L14.3878 10.6762C13.1648 10.5722 11.9052 10.4132 10.5661 10.187L9.57554 10.0158L9.03745 9.93631C8.69503 9.86904 7.25197 9.55108 6.9279 9.47159C6.60382 9.3921 6.36535 9.33707 6.07796 9.26369C5.56433 9.13529 5.04459 8.98854 4.51261 8.83567L3.77885 8.61554C3.28357 8.4749 2.78216 8.30981 2.26853 8.1386L1.35134 7.82675C0.904967 7.67388 0.458598 7.50879 0 7.33758L10.0831 0L26.5131 10.8718Z" fill="var(--fill-0, #C6EBF4)"/>
</svg>
