<svg preserveAspectRatio="none" width="100%" height="100%" overflow="visible" style="display: block;" viewBox="0 0 164.854 36.1872" fill="none" xmlns="http://www.w3.org/2000/svg">
<g id="Vector">
<path d="M48.3649 9.99846H55.283C59.1151 9.99846 61.1046 11.5697 61.1046 14.5201V14.667C61.1592 15.5316 60.9017 16.3871 60.3789 17.0779C59.8562 17.7687 59.1028 18.2489 58.2559 18.4313C59.2701 18.5206 60.2082 19.0063 60.8664 19.783C61.5246 20.5598 61.8499 21.5648 61.7715 22.5799V22.6816C61.7715 25.9033 59.6576 27.5989 55.5995 27.5989H48.3649V9.99846ZM54.6386 17.2218C56.5603 17.2218 57.3177 16.5322 57.3177 14.9609V14.8592C57.3177 13.3897 56.4812 12.7227 54.616 12.7227H52.2535V17.2444L54.6386 17.2218ZM54.9778 24.8294C56.9447 24.8294 57.8377 23.9364 57.8377 22.3425V22.2408C57.8377 20.613 56.9447 19.7878 54.7856 19.7878H52.2535V24.8407L54.9778 24.8294Z" fill="var(--fill-0, #1D2D35)"/>
<path d="M62.8117 24.0155C62.8117 21.0087 65.5586 19.8783 69.5037 19.8783H70.9506V19.3696C70.9506 17.8435 70.4871 17.007 68.8593 17.007C68.5958 16.9757 68.3287 16.9987 68.0745 17.0745C67.8202 17.1504 67.5841 17.2774 67.3808 17.4479C67.1775 17.6184 67.0112 17.8287 66.8922 18.0659C66.7733 18.3031 66.7041 18.5621 66.689 18.827H63.2977C63.5238 15.7749 65.9316 14.4184 69.0854 14.4184C72.2393 14.4184 74.4662 15.6957 74.4662 19.1887V27.5763H70.9958V26.0277C70.5603 26.6413 69.9731 27.1316 69.2916 27.4505C68.61 27.7695 67.8574 27.9063 67.1072 27.8476C64.7786 27.8476 62.8117 26.7172 62.8117 24.0155ZM70.9506 23.0773V21.9469H69.5715C67.5028 21.9469 66.3046 22.3991 66.3046 23.7668C66.3046 24.7051 66.8698 25.3268 68.1698 25.3268C69.7411 25.372 70.9506 24.5016 70.9506 23.0773Z" fill="var(--fill-0, #1D2D35)"/>
<path d="M75.9694 23.5408H79.2928C79.4397 24.6712 80.0049 25.372 81.5536 25.372C82.9327 25.372 83.577 24.852 83.577 23.959C83.577 23.066 82.8083 22.7043 80.9658 22.4443C77.5746 21.9243 76.2181 20.9408 76.2181 18.4313C76.2181 15.9218 78.6824 14.4184 81.3049 14.4184C84.1648 14.4184 86.3013 15.4584 86.6178 18.4087H83.3509C83.1588 17.3461 82.5596 16.8601 81.3388 16.8601C80.118 16.8601 79.5189 17.4027 79.5189 18.1826C79.5189 18.9626 80.1293 19.313 81.9944 19.5843C85.2161 20.0478 86.9908 20.8617 86.9908 23.6199C86.9908 26.3781 84.9787 27.8476 81.5762 27.8476C78.1737 27.8476 76.0937 26.3216 75.9694 23.5408Z" fill="var(--fill-0, #1D2D35)"/>
<path d="M87.9065 21.3025V21.1104C87.8636 20.2269 88.0048 19.3442 88.3209 18.5182C88.637 17.6922 89.1212 16.9408 89.7429 16.3117C90.3646 15.6825 91.1101 15.1894 91.9324 14.8635C92.7546 14.5376 93.6355 14.386 94.5194 14.4183C97.8428 14.4183 100.793 16.3626 100.793 20.9634V21.9469H91.5577C91.6482 24.0833 92.8125 25.3381 94.7455 25.3381C96.3959 25.3381 97.2098 24.6259 97.4358 23.5407H100.827C100.409 26.3215 98.1932 27.8702 94.6777 27.8702C90.7325 27.8476 87.9065 25.4172 87.9065 21.3025ZM97.3228 19.7539C97.2098 17.8096 96.215 16.9278 94.5194 16.9278C93.756 16.9242 93.021 17.2167 92.4687 17.7436C91.9164 18.2706 91.5899 18.9912 91.5577 19.7539H97.3228Z" fill="var(--fill-0, #1D2D35)"/>
<path d="M101.731 21.3024V21.1103C101.688 20.2249 101.83 19.3402 102.148 18.5126C102.465 17.6849 102.951 16.9324 103.575 16.3029C104.2 15.6735 104.948 15.1808 105.773 14.8564C106.598 14.5319 107.481 14.3827 108.367 14.4182C111.351 14.4182 114.098 15.7182 114.426 19.4146H111.035C111.012 19.0974 110.926 18.7879 110.782 18.5045C110.637 18.2212 110.437 17.9697 110.193 17.7652C109.95 17.5606 109.668 17.4071 109.364 17.3137C109.06 17.2204 108.74 17.1891 108.423 17.2217C106.581 17.2217 105.349 18.6008 105.349 21.065V21.2572C105.349 23.8458 106.479 25.1684 108.503 25.1684C108.847 25.1882 109.192 25.1393 109.517 25.0246C109.842 24.9099 110.141 24.7316 110.397 24.5002C110.652 24.2687 110.859 23.9887 111.006 23.6765C111.152 23.3643 111.235 23.0261 111.249 22.6815H114.471C114.279 25.7336 112.063 27.8475 108.322 27.8475C104.58 27.8475 101.731 25.5075 101.731 21.3024Z" fill="var(--fill-0, #1D2D35)"/>
<path d="M115.296 24.0155C115.296 21.0086 118.043 19.8782 121.977 19.8782H123.435V19.3695C123.435 17.8435 122.961 17.007 121.344 17.007C121.079 16.9724 120.809 16.9928 120.552 17.0671C120.295 17.1414 120.057 17.2679 119.851 17.4387C119.645 17.6096 119.477 17.821 119.356 18.0599C119.236 18.2987 119.166 18.5599 119.151 18.8269H115.76C115.986 15.7748 118.394 14.4184 121.536 14.4184C124.679 14.4184 126.928 15.6957 126.928 19.1887V27.5763H123.458V26.0276C123.023 26.6413 122.435 27.1315 121.754 27.4505C121.072 27.7695 120.32 27.9063 119.569 27.8476C117.309 27.8476 115.296 26.7172 115.296 24.0155ZM123.435 23.0773V21.9469H122.079C120.01 21.9469 118.801 22.399 118.801 23.7668C118.801 24.7051 119.377 25.3268 120.677 25.3268C122.271 25.372 123.481 24.5016 123.481 23.0773H123.435Z" fill="var(--fill-0, #1D2D35)"/>
<path d="M129.438 14.667H132.998V16.6339C133.387 15.9351 133.958 15.3553 134.651 14.9569C135.344 14.5586 136.133 14.3567 136.932 14.3731C137.695 14.3121 138.457 14.4992 139.105 14.9066C139.753 15.314 140.252 15.9199 140.527 16.6339C141.002 15.9248 141.647 15.3463 142.403 14.9513C143.16 14.5563 144.003 14.3575 144.856 14.3731C147.242 14.3731 149.084 15.8765 149.084 19.2904V27.531H145.546V19.7312C145.546 18.0808 144.811 17.3461 143.522 17.3461C143.18 17.3311 142.838 17.3904 142.52 17.5197C142.202 17.649 141.916 17.8454 141.681 18.0954C141.446 18.3454 141.268 18.6432 141.158 18.9685C141.049 19.2937 141.011 19.6387 141.047 19.9799V27.5762H137.497V19.7312C137.497 18.0808 136.74 17.3461 135.485 17.3461C135.142 17.3295 134.798 17.3874 134.479 17.516C134.16 17.6446 133.872 17.8407 133.636 18.0909C133.4 18.3412 133.22 18.6396 133.11 18.9656C133 19.2917 132.962 19.6377 132.998 19.9799V27.5762H129.438V14.667Z" fill="var(--fill-0, #1D2D35)"/>
<path d="M151.526 14.667H155.098V16.6904C155.524 15.9827 156.125 15.3973 156.844 14.9912C157.564 14.5851 158.376 14.3721 159.201 14.3731C162.355 14.3731 164.854 16.713 164.854 20.9634V21.1668C164.854 25.4172 162.446 27.8023 159.201 27.8023C158.376 27.8362 157.558 27.6434 156.834 27.2448C156.111 26.8463 155.51 26.2572 155.098 25.5415V31.9622H151.526V14.667ZM161.191 20.9973C161.191 18.386 159.914 17.1087 158.116 17.1087C156.319 17.1087 154.974 18.4087 154.974 20.9973V21.1895C154.974 23.7668 156.206 25.0215 158.15 25.0215C160.095 25.0215 161.191 23.7103 161.191 21.2347V20.9973Z" fill="var(--fill-0, #1D2D35)"/>
<path fill-rule="evenodd" clip-rule="evenodd" d="M21.9361 3.85469C11.9054 3.85469 6.67436 12.3508 3.74547 20.6549C3.39142 21.6588 2.29063 22.1855 1.2868 21.8315C0.568808 21.5782 0.0948848 20.943 0.0127491 20.2344C-0.0199508 19.9523 0.00944776 19.6586 0.110267 19.3728C3.0821 10.9469 9.15509 0 21.9361 0C28.6167 0 33.3984 4.41963 36.491 9.72928C39.5917 15.0529 41.2449 21.6447 41.6174 26.9669C41.6442 27.3495 41.5563 27.7313 41.3648 28.0636C39.5738 31.1725 36.5942 33.1986 33.1979 34.4395C29.8099 35.6774 25.8854 36.183 21.9516 36.1843C18.6094 36.2365 15.2952 35.5676 12.2347 34.2232C9.16941 32.8767 6.43095 30.8843 4.20648 28.3821C3.73326 27.8498 3.59217 27.0999 3.8396 26.432L3.84105 26.4281L3.84381 26.4207L3.85324 26.3955L3.88736 26.3055C3.91678 26.2285 3.95944 26.118 4.0144 25.9789C4.12424 25.7009 4.28367 25.3073 4.48523 24.8363C4.88659 23.8984 5.4632 22.6344 6.15586 21.3581C6.8394 20.0987 7.67994 18.7448 8.62517 17.678C9.48688 16.7056 10.8263 15.5209 12.5406 15.5092L12.5537 15.5091C13.7651 15.5091 14.7602 16.0638 15.4765 16.597C16.1985 17.1345 16.8542 17.8175 17.3797 18.3736C17.4399 18.4374 17.4985 18.4995 17.5555 18.56C18.0449 19.0788 18.4191 19.4756 18.7747 19.7727C18.8146 19.8061 18.8513 19.8356 18.8848 19.8615C19.0005 19.7434 19.1384 19.5885 19.2972 19.3916C19.8621 18.6913 20.4966 17.7048 21.1106 16.6487C21.7165 15.6065 22.268 14.5566 22.6701 13.7625C22.8704 13.3669 23.0321 13.0378 23.1431 12.8088C23.1985 12.6944 23.2413 12.6052 23.2697 12.5454L23.3016 12.4783L23.3091 12.4623L23.3107 12.4589C23.7626 11.4953 24.9103 11.0798 25.874 11.5315C26.8378 11.9833 27.2529 13.1309 26.8011 14.0947L26.797 14.1035L26.787 14.1248L26.7499 14.2029C26.7178 14.2702 26.6712 14.3675 26.6116 14.4905C26.4924 14.7364 26.3208 15.0855 26.1091 15.5037C25.687 16.3374 25.0989 17.4579 24.443 18.5861C23.7952 19.7004 23.0456 20.8843 22.2975 21.8117C21.9265 22.2717 21.5059 22.7317 21.0511 23.0935C20.6491 23.4133 19.94 23.8855 19.0309 23.8855C17.8289 23.8855 16.8818 23.2143 16.3029 22.7306C15.7574 22.2747 15.2123 21.6952 14.7545 21.2085C14.6941 21.1443 14.6352 21.0816 14.578 21.0211C14.0352 20.4468 13.5916 19.9994 13.1747 19.689C12.8094 19.4171 12.6228 19.3723 12.5693 19.3652C12.5693 19.3652 12.5654 19.3666 12.562 19.3678C12.5031 19.3886 12.1491 19.5134 11.5102 20.2344C10.8478 20.982 10.17 22.0429 9.54373 23.1969C8.92652 24.3341 8.40169 25.4821 8.02907 26.3528C7.98106 26.465 7.93571 26.5723 7.89316 26.674C9.58942 28.3642 11.5864 29.7282 13.785 30.694C16.3423 31.8174 19.1119 32.3754 21.9047 32.3299L21.9361 32.3297C25.5821 32.3297 29.0333 31.8572 31.8751 30.8189C34.4894 29.8637 36.4838 28.4716 37.7235 26.6234C37.3034 21.8869 35.7946 16.1926 33.1601 11.6693C30.4028 6.93531 26.6613 3.85469 21.9361 3.85469ZM18.568 20.1354C18.568 20.1354 18.5764 20.129 18.5926 20.1207C18.576 20.132 18.568 20.1354 18.568 20.1354Z" fill="#1D2D35"/>
</g>
</svg>
