<svg preserveAspectRatio="none" width="100%" height="100%" overflow="visible" style="display: block;" viewBox="0 0 139.812 36.0466" fill="none" xmlns="http://www.w3.org/2000/svg">
<g id="Vector">
<path d="M65.7353 10.5087C64.9897 10.4854 64.3839 11.068 64.3606 11.7903C64.3606 11.8136 64.3606 11.8602 64.3606 11.8835V18.501C61.1683 15.9379 56.4848 16.4505 53.9217 19.6427C52.8732 20.9709 52.2907 22.6019 52.2907 24.3029C52.2208 28.4039 55.4829 31.7825 59.5839 31.8524C63.6848 31.9223 67.0635 28.6602 67.1334 24.5592C67.1334 24.466 67.1334 24.3961 67.1334 24.3029V11.8835C67.1334 11.5107 66.9936 11.1612 66.7373 10.9049C66.4576 10.6485 66.1081 10.5087 65.7353 10.5087ZM63.9877 26.0971C63.5217 27.2155 62.6363 28.101 61.5178 28.5903C60.3528 29.0796 59.0479 29.0796 57.8829 28.5903C56.7644 28.1243 55.9023 27.2155 55.4363 26.1204C54.947 24.9786 54.947 23.6738 55.4363 22.5087C55.9023 21.3903 56.7877 20.5048 57.8829 20.0388C59.0479 19.5495 60.3528 19.5495 61.5178 20.0388C62.6363 20.5281 63.5217 21.4136 63.9877 22.532C64.4771 23.6505 64.4771 24.9553 63.9877 26.0971Z" fill="#0091E2"/>
<path d="M81.2304 19.0602C78.3411 16.1709 73.6343 16.1709 70.745 19.0602C69.3469 20.4582 68.578 22.3456 68.578 24.3029C68.5081 28.4039 71.7702 31.7825 75.8712 31.8524C79.9722 31.9223 83.3508 28.6602 83.4207 24.5592C83.4207 24.466 83.4207 24.3961 83.4207 24.3029C83.4207 23.3243 83.2343 22.3689 82.8615 21.4602C82.4887 20.5514 81.9295 19.7359 81.2304 19.0602ZM80.2751 26.0738C80.0421 26.633 79.6926 27.1223 79.2731 27.5417C78.8537 27.9612 78.3411 28.3107 77.8052 28.5437C76.6401 29.033 75.3353 29.033 74.1702 28.5437C73.0518 28.0777 72.1664 27.1689 71.7003 26.0738C71.211 24.932 71.211 23.6272 71.7003 22.4621C72.1664 21.3437 73.0518 20.4815 74.1702 19.9922C75.3353 19.5029 76.6401 19.5029 77.8052 19.9922C78.3644 20.2252 78.8537 20.5747 79.2731 20.9942C79.6926 21.4136 80.0421 21.9262 80.2751 22.4621C80.7644 23.6505 80.7644 24.9553 80.2751 26.0738Z" fill="#0091E2"/>
<path d="M111.918 18.2447C111.918 18.0583 111.871 17.8719 111.801 17.7088C111.731 17.5457 111.615 17.4059 111.498 17.2661C111.382 17.1496 111.219 17.0331 111.056 16.9632C110.892 16.8933 110.706 16.8467 110.52 16.8467C110.263 16.8467 110.007 16.9166 109.774 17.0564L101.852 22.2059V11.9068C101.852 11.534 101.712 11.1845 101.456 10.9282C101.199 10.6719 100.85 10.5088 100.477 10.5088C99.708 10.5088 99.1022 11.1146 99.0789 11.8835C99.0789 11.8835 99.0789 11.8835 99.0789 11.9068V30.3146C99.0789 30.6874 99.2187 31.037 99.475 31.2933C99.7313 31.5729 100.081 31.7127 100.454 31.7127C100.826 31.7127 101.176 31.5729 101.432 31.2933C101.689 31.037 101.852 30.6874 101.828 30.3146V25.5379L103.436 24.4894L109.564 31.3632C109.821 31.5962 110.147 31.736 110.496 31.7127C110.683 31.7127 110.869 31.6894 111.032 31.5962C111.195 31.5263 111.335 31.4331 111.475 31.2933C111.591 31.1535 111.708 31.0136 111.778 30.8505C111.848 30.6874 111.894 30.501 111.894 30.3146C111.894 29.9651 111.755 29.6156 111.522 29.3593L105.836 22.9515L111.382 19.3399C111.755 19.1068 111.941 18.6874 111.918 18.2447Z" fill="#0091E2"/>
<path d="M88.9197 20.9941C89.3391 20.5747 89.8517 20.2252 90.4109 19.9922C90.9935 19.7592 91.5993 19.6194 92.2284 19.6194C92.7876 19.6194 93.3236 19.7126 93.8362 19.899C94.3488 20.1087 94.8381 20.3883 95.2576 20.7611C95.5139 20.9708 95.8401 21.064 96.1663 21.064C96.5391 21.0873 96.9119 20.9475 97.1682 20.6679C97.4245 20.4116 97.5643 20.0388 97.5643 19.666C97.5643 19.2699 97.4012 18.8737 97.075 18.6174C95.7469 17.4291 94.0226 16.7767 92.2284 16.8233C88.1275 16.8233 84.7954 20.1553 84.7954 24.2563C84.7954 28.3572 88.1042 31.666 92.1818 31.6893C93.976 31.6893 95.7003 31.0602 97.0517 29.8951C97.3313 29.6388 97.4944 29.266 97.4944 28.8699C97.5177 28.1242 96.9352 27.5184 96.2129 27.4951C96.1896 27.4951 96.143 27.4951 96.1197 27.4951C95.7935 27.4951 95.4906 27.5883 95.2343 27.7747C94.8148 28.1475 94.3488 28.4271 93.8362 28.6368C93.3236 28.8233 92.7643 28.9165 92.2284 28.9165C91.5993 28.9165 90.9935 28.8 90.4109 28.5436C89.8517 28.3106 89.3624 27.9611 88.9197 27.5417C87.1022 25.7242 87.1022 22.7883 88.8964 20.9708C88.9197 21.0174 88.9197 21.0174 88.9197 20.9941Z" fill="#0091E2"/>
<path d="M139.436 17.8019C139.157 17.5456 138.854 17.3592 138.504 17.2427C138.108 17.1029 137.689 17.0097 137.269 16.9631C136.85 16.9165 136.431 16.8932 136.011 16.8932C135.172 16.8932 134.31 17.033 133.518 17.3359C132.726 17.6155 132.003 18.0349 131.351 18.5476V18.2679C131.328 17.499 130.675 16.9165 129.906 16.9398C129.184 16.9631 128.601 17.5456 128.578 18.2679V30.3612C128.601 31.1301 129.254 31.7126 130.023 31.6893C130.745 31.666 131.328 31.0835 131.351 30.3612V24.3262C131.351 23.6971 131.467 23.0912 131.724 22.5087C131.957 21.9495 132.283 21.4602 132.726 21.0408C133.145 20.6213 133.658 20.2718 134.194 20.0388C134.776 19.8058 135.382 19.666 136.011 19.666C136.64 19.666 137.246 19.7825 137.829 19.9922C138.015 20.0854 138.201 20.132 138.411 20.132C138.598 20.132 138.784 20.1087 138.947 20.0155C139.11 19.9456 139.25 19.8524 139.39 19.7126C139.506 19.5961 139.623 19.433 139.693 19.2699C139.763 19.1068 139.809 18.9204 139.809 18.734C139.832 18.3844 139.693 18.0582 139.436 17.8019Z" fill="#0091E2"/>
<path d="M126.574 21.4602C125.386 18.7107 122.683 16.9165 119.7 16.8932C115.599 16.8932 112.291 20.2019 112.267 24.3029C112.267 28.4039 115.599 31.7359 119.7 31.7359C121.471 31.7359 123.195 31.1068 124.547 29.9417C124.57 29.9184 124.594 29.8951 124.594 29.8951C124.71 29.8019 124.827 29.6854 124.896 29.5456C125.339 28.8932 125.176 28.031 124.547 27.5883C124.011 27.2388 123.312 27.3087 122.846 27.7514C122.799 27.798 122.66 27.9145 122.66 27.9378L122.636 27.9611C122.24 28.2874 121.797 28.567 121.308 28.7301C120.795 28.9165 120.26 29.0097 119.7 28.9864C119.188 28.9864 118.698 28.9165 118.209 28.7534C117.743 28.5903 117.3 28.3806 116.904 28.0777C116.508 27.798 116.159 27.4485 115.879 27.0524C115.576 26.6563 115.366 26.1903 115.227 25.7243H125.712C126.085 25.7243 126.434 25.5845 126.691 25.3281C126.97 25.0718 127.11 24.7223 127.087 24.3495C127.11 23.3476 126.924 22.3689 126.574 21.4602ZM115.227 22.9514C115.366 22.4621 115.576 22.0194 115.879 21.6233C116.159 21.2272 116.508 20.8777 116.904 20.598C117.3 20.3184 117.743 20.0854 118.209 19.9223C118.675 19.7592 119.188 19.6893 119.677 19.6893C120.166 19.6893 120.679 19.7592 121.145 19.9223C122.077 20.2252 122.893 20.8311 123.475 21.6233C123.778 22.0194 123.988 22.4854 124.151 22.9514H115.227Z" fill="#0091E2"/>
<path d="M134.706 29.7087C134.17 29.7087 133.751 30.1515 133.751 30.6874C133.751 31.2233 134.193 31.6427 134.729 31.6427C135.265 31.6427 135.685 31.2 135.685 30.6874C135.685 30.1282 135.242 29.7087 134.706 29.7087ZM134.706 31.433C134.287 31.4563 133.937 31.1301 133.914 30.7107C133.891 30.2913 134.217 29.9417 134.636 29.9184C135.056 29.8951 135.405 30.2214 135.428 30.6408C135.428 30.6641 135.428 30.6641 135.428 30.6874C135.452 31.0835 135.125 31.433 134.729 31.433C134.729 31.433 134.729 31.433 134.706 31.433Z" fill="#0091E2"/>
<path d="M134.939 30.6873C135.056 30.664 135.125 30.5708 135.125 30.4543C135.125 30.3611 135.102 30.2912 135.032 30.2446C134.939 30.198 134.823 30.1747 134.706 30.1747C134.59 30.1747 134.45 30.1747 134.333 30.198V31.1533H134.543V30.7805H134.636C134.753 30.7805 134.823 30.8271 134.846 30.9203C134.869 30.9902 134.892 31.0834 134.916 31.1533H135.149C135.102 31.0834 135.079 30.9902 135.079 30.9203C135.102 30.8271 135.032 30.7339 134.939 30.6873ZM134.659 30.6174H134.543V30.3378C134.59 30.3378 134.636 30.3378 134.659 30.3378C134.799 30.3378 134.869 30.4077 134.869 30.4776C134.892 30.5708 134.776 30.6407 134.659 30.6174Z" fill="#0091E2"/>
<path d="M49.7506 13.6311C49.6108 13.5146 48.3526 12.5593 45.6497 12.5593C44.9506 12.5593 44.2283 12.6292 43.5293 12.7457C43.0166 9.18062 40.0574 7.45634 39.9409 7.36314L39.2186 6.94373L38.7526 7.61945C38.17 8.52819 37.7273 9.55343 37.471 10.602C36.9817 12.6292 37.2846 14.5398 38.3098 16.1709C37.0749 16.8699 35.071 17.033 34.6516 17.0563H1.56421C0.702071 17.0563 0.00304118 17.7554 0.00304118 18.6175C-0.0435608 21.5068 0.44576 24.3961 1.4477 27.1224C2.58945 30.1049 4.29042 32.3185 6.48071 33.6699C8.95062 35.1845 12.9817 36.0466 17.5254 36.0466C19.5759 36.0466 21.6263 35.8602 23.6535 35.4874C26.473 34.9748 29.1759 33.9962 31.6691 32.5748C33.7196 31.3864 35.5603 29.8719 37.1215 28.101C39.7545 25.1418 41.3157 21.833 42.4574 18.8971C42.6205 18.8971 42.7603 18.8971 42.9234 18.8971C45.7895 18.8971 47.5603 17.7554 48.539 16.7767C49.1914 16.1709 49.6807 15.4253 50.0302 14.5864L50.2399 13.9806L49.7506 13.6311Z" fill="#0091E2"/>
<path d="M4.64001 16.1011H9.0672C9.27691 16.1011 9.46331 15.9379 9.46331 15.7049V11.7438C9.46331 11.5341 9.30021 11.3477 9.0672 11.3477H4.64001C4.4303 11.3477 4.2439 11.5108 4.2439 11.7438V15.7049C4.2672 15.9379 4.4303 16.1011 4.64001 16.1011Z" fill="#0091E2"/>
<path d="M10.745 16.1011H15.1722C15.3819 16.1011 15.5683 15.9379 15.5683 15.7049V11.7438C15.5683 11.5341 15.4052 11.3477 15.1722 11.3477H10.745C10.5353 11.3477 10.3489 11.5108 10.3489 11.7438V15.7049C10.3722 15.9379 10.5353 16.1011 10.745 16.1011Z" fill="#0091E2"/>
<path d="M16.9664 16.1011H21.3936C21.6033 16.1011 21.7897 15.9379 21.7897 15.7049V11.7438C21.7897 11.5341 21.6266 11.3477 21.3936 11.3477H16.9664C16.7567 11.3477 16.5703 11.5108 16.5703 11.7438V15.7049C16.5703 15.9379 16.7334 16.1011 16.9664 16.1011Z" fill="#0091E2"/>
<path d="M23.0944 16.1011H27.5215C27.7312 16.1011 27.9177 15.9379 27.9177 15.7049V11.7438C27.9177 11.5341 27.7545 11.3477 27.5215 11.3477H23.0944C22.8846 11.3477 22.6982 11.5108 22.6982 11.7438V15.7049C22.6982 15.9379 22.8846 16.1011 23.0944 16.1011Z" fill="#0091E2"/>
<path d="M10.745 10.4388H15.1722C15.3819 10.4388 15.5683 10.2524 15.5683 10.0427V6.08154C15.5683 5.87184 15.4052 5.68542 15.1722 5.68542H10.745C10.5353 5.68542 10.3489 5.84853 10.3489 6.08154V10.0427C10.3722 10.2524 10.5353 10.4388 10.745 10.4388Z" fill="#0091E2"/>
<path d="M16.9664 10.4388H21.3936C21.6033 10.4388 21.7897 10.2524 21.7897 10.0427V6.08154C21.7897 5.87184 21.6266 5.68542 21.3936 5.68542H16.9664C16.7567 5.68542 16.5703 5.84853 16.5703 6.08154V10.0427C16.5703 10.2524 16.7334 10.4388 16.9664 10.4388Z" fill="#0091E2"/>
<path d="M23.0944 10.4388H27.5215C27.7312 10.4388 27.9177 10.2524 27.9177 10.0427V6.08154C27.9177 5.87184 27.7312 5.68542 27.5215 5.68542H23.0944C22.8846 5.68542 22.6982 5.84853 22.6982 6.08154V10.0427C22.6982 10.2524 22.8846 10.4388 23.0944 10.4388Z" fill="#0091E2"/>
<path d="M23.0944 4.7534H27.5215C27.7312 4.7534 27.9177 4.59029 27.9177 4.35728V0.396119C27.9177 0.186411 27.7312 0 27.5215 0H23.0944C22.8846 0 22.6982 0.16311 22.6982 0.396119V4.35728C22.6982 4.56699 22.8846 4.7534 23.0944 4.7534Z" fill="#0091E2"/>
<path d="M29.2692 16.1011H33.6964C33.9061 16.1011 34.0925 15.9379 34.0925 15.7049V11.7438C34.0925 11.5341 33.9294 11.3477 33.6964 11.3477H29.2692C29.0595 11.3477 28.873 11.5108 28.873 11.7438V15.7049C28.8963 15.9379 29.0595 16.1011 29.2692 16.1011Z" fill="#0091E2"/>
</g>
</svg>
