<svg preserveAspectRatio="none" width="100%" height="100%" overflow="visible" style="display: block;" viewBox="0 0 102.587 34" fill="none" xmlns="http://www.w3.org/2000/svg">
<path id="path3373" fill-rule="evenodd" clip-rule="evenodd" d="M100.244 22.2764L96.1409 26.379H88.519V31.6557H82.0694V7.6204H88.519V19.9318H93.7942V7.6204H100.244V22.2764ZM79.726 26.379H69.7601L65.6563 22.2764V11.7248L69.7601 7.6204H79.726V14.0682H72.1041V19.9318H79.726V26.379V26.379ZM63.3114 26.379H58.0362V31.6557H51.5866V11.7248L55.6904 7.6204H63.3114V14.0682H58.0362V19.9318H63.3114V26.379V26.379ZM49.2417 31.6557H42.7939V28.7236H49.2417V31.6557ZM49.2417 26.379H42.7939V7.6207H49.2417V26.379V26.379ZM40.449 26.379H34.0006V14.0682H31.6563V26.379H25.2076V14.0682H22.8636V26.379H16.414V7.6204H36.3461L40.449 11.7248V26.379V26.379ZM14.0691 26.379H8.7936V31.6557H2.3452V11.7248L6.4487 7.6204H14.0691V14.0682H8.7936V19.9318H14.0691V26.379V26.379ZM102.587 23.449V5.8627L93.7942 0H87.9324V2.9321L83.8289 0H78.5537V2.9321L75.6234 0H66.2435L63.3114 2.9321L62.7245 0H54.5187L51.163 2.9321L50.975 0H41.6739L41.345 2.9321L38.8272 0H24.6207L21.6892 1.1726V0H14.0691L5.2755 5.2773L0 10.5507V34H11.1388L16.414 28.7236H40.449V34H60.3802V28.7236H65.6563V25.7933L68.5884 28.7236H74.4493L79.726 34H90.8639V28.7236H97.3126L102.587 23.449Z" fill="var(--fill-0, #6441A5)"/>
</svg>
