<svg preserveAspectRatio="none" width="100%" height="100%" overflow="visible" style="display: block;" viewBox="0 0 146.684 20" fill="none" xmlns="http://www.w3.org/2000/svg">
<g id="Vector">
<path d="M87.1847 0.000332958C84.1544 0.000332958 81.192 2.74452 80.8513 6.70959V0.327211H76.4995V19.5718H80.9047V10.2566C80.9047 7.64723 82.7542 3.96639 87.1847 3.96639V0.000332958Z" fill="black"/>
<path d="M133.393 16.4909V3.30607H135.944C139.347 3.30607 142.112 5.43265 142.112 9.79218C142.112 14.1516 139.347 16.4909 135.944 16.4909H133.393ZM129.033 19.5744H136.476C141.048 19.5744 146.684 16.5972 146.684 9.79218C146.684 3.09341 141.048 0.328851 136.476 0.328851H129.033V19.5744Z" fill="black"/>
<path d="M112.352 10.005C112.352 6.49618 114.16 3.62529 117.137 3.62529C120.008 3.62529 121.603 6.49618 121.603 10.005C121.603 13.5139 120.008 16.3848 117.137 16.3848C114.16 16.3848 112.352 13.5139 112.352 10.005ZM107.887 10.2177C107.887 15.9595 110.864 20 115.542 20C118.944 20 120.965 17.7671 122.028 14.1519V19.5747H126.387V0.329087H122.028V5.43289C121.071 2.03035 119.051 0.0100997 115.861 0.0100997C111.076 0.0100997 107.887 4.3696 107.887 10.2177Z" fill="black"/>
<path d="M8.61267 20C3.18987 20 0 15.6405 0 10.2177C0 4.58225 3.50886 0.0100997 10.2076 0.0100997C17.119 0.0100997 19.4583 4.68858 19.5645 7.3468H14.5671C14.4607 5.8582 13.1848 3.62529 10.1012 3.62529C6.80506 3.62529 4.67848 6.49618 4.67848 10.005C4.67848 13.5139 6.80506 16.3848 10.1012 16.3848C13.0785 16.3848 14.3544 14.0456 14.8861 11.7063H10.1012V9.79235H20.1414V19.5747H15.7367V13.4076C15.4177 15.6405 14.0354 20 8.61267 20Z" fill="black"/>
<path d="M29.0721 19.9998C24.9253 19.9998 22.3734 17.2352 22.3734 11.7061V0.328851H26.8392V11.7061C26.8392 14.5769 28.2215 15.9592 30.5607 15.9592C35.1329 15.9592 36.8342 10.3238 36.8342 6.38961V0.328851H41.3V19.5744H36.9405V12.4504C36.0898 16.3845 33.7506 19.9998 29.0721 19.9998Z" fill="black"/>
<path d="M67.9865 0C64.1763 0 61.7728 3.68057 60.9882 7.08369C60.8541 2.52309 58.6113 0 55.0228 0C51.9226 0 49.0462 2.76481 48.2992 7.13876V0.327387H43.9458V19.5734H48.355V12.6738C48.355 10.9633 49.0681 3.94376 53.5067 3.94376C56.3821 3.94376 56.6818 6.53738 56.6818 10.0827V19.5734H61.089V12.6738C61.089 10.9633 61.8316 3.94376 66.2702 3.94376C69.1433 3.94376 69.44 6.53738 69.44 10.0827V19.5734H73.8532V8.18949C73.8732 2.72815 71.9449 0 67.9865 0Z" fill="black"/>
<path d="M96.6444 0C90.9365 0 87.0687 4.47571 87.0687 9.99996C87.0687 16.0869 90.7471 19.9999 96.6444 19.9999C102.352 19.9999 106.289 15.5243 106.289 9.99996C106.289 3.91305 102.539 0 96.6444 0ZM96.6444 16.5933C93.3214 16.5933 91.1692 13.78 91.1692 9.99996C91.1692 6.21994 93.3287 3.40659 96.6444 3.40659C99.9595 3.40659 102.033 6.21994 102.033 9.99996C102.033 13.78 99.9575 16.5933 96.6444 16.5933Z" fill="black"/>
</g>
</svg>
