<svg preserveAspectRatio="none" width="100%" height="100%" overflow="visible" style="display: block;" viewBox="0 0 98.9091 31.7237" fill="none" xmlns="http://www.w3.org/2000/svg">
<path id="Vector" d="M98.2351 21.6997C98.1423 21.7037 98.0532 21.7372 97.9809 21.7955C97.9086 21.8538 97.8569 21.9338 97.8334 22.0236C96.8197 24.9158 95.4497 26.6389 94.3226 26.6389C93.6749 26.6389 93.4125 25.9166 93.4125 24.7831C93.4125 21.9491 95.1096 15.9412 95.9647 13.2012C96.0592 12.9165 96.1137 12.62 96.1266 12.3203C96.1266 11.5235 95.6926 11.1316 94.6141 11.1316C93.4514 11.1316 92.2012 11.5851 90.9834 13.7227C90.5624 11.8442 89.2928 11.0215 87.5147 11.0215C85.4613 11.0215 83.4792 12.3429 81.8469 14.4838C80.2145 16.6246 78.2842 17.3274 76.8527 16.9809C77.8924 14.4384 78.2778 12.5405 78.2778 11.1284C78.2778 8.91632 77.1863 7.58196 75.4179 7.58196C72.733 7.58196 71.1849 10.1438 71.1849 12.8385C71.1849 14.921 72.1306 17.0489 74.2066 18.1015C72.4642 22.0398 69.925 25.5992 68.9598 25.5992C67.7129 25.5992 67.3404 19.5006 67.4182 15.138C67.4635 12.6344 67.6708 12.5081 67.6708 11.7502C67.6708 11.3163 67.389 11.0183 66.2555 11.0183C63.6159 11.0183 62.7997 13.253 62.6734 15.8214C62.6339 16.7965 62.4818 17.7637 62.22 18.7039C61.1155 22.6422 58.8419 25.6284 57.3618 25.6284C56.6752 25.6284 56.4873 24.9417 56.4873 24.0414C56.4873 21.2074 58.0743 17.6675 58.0743 14.6489C58.0743 12.4272 57.1027 11.0248 55.2663 11.0248C53.1061 11.0248 50.2462 13.5963 47.5419 18.4156C48.4325 14.7267 48.7985 11.1543 46.1621 11.1543C45.5908 11.1625 45.0299 11.3081 44.5266 11.5786C44.3574 11.6576 44.2159 11.7858 44.1205 11.9464C44.0252 12.107 43.9805 12.2926 43.9922 12.479C44.2448 16.4076 40.8279 26.4672 37.5859 26.4672C36.9964 26.4672 36.7114 25.8195 36.7114 24.7992C36.7114 21.9588 38.4021 15.9671 39.2539 13.2207C39.3549 12.9206 39.4116 12.6075 39.4223 12.2911C39.4223 11.5397 38.9559 11.1543 37.9033 11.1543C36.7471 11.1543 35.4904 11.5948 34.2791 13.7259C33.8548 11.8474 32.582 11.0248 30.8072 11.0248C27.8923 11.0248 24.6535 14.1048 23.209 18.1209C21.2949 23.4811 17.4375 28.6598 12.2425 28.6598C7.53013 28.6598 5.04276 24.7377 5.04276 18.5419C5.04276 9.59323 11.611 2.28333 16.4821 2.28333C18.8108 2.28333 19.9249 3.76669 19.9249 6.04354C19.9249 8.79973 18.3865 10.079 18.3865 11.1284C18.3865 11.4523 18.6521 11.7762 19.1832 11.7762C21.3014 11.7762 23.792 9.28879 23.792 5.89456C23.792 2.50033 21.0293 0 16.155 0C8.1034 0 0 8.09692 0 18.4836C0 26.7425 4.07437 31.7237 11.1219 31.7237C15.9283 31.7237 20.1289 27.9862 22.3928 23.6268C22.6487 27.2413 24.2908 29.1327 26.7943 29.1327C29.0194 29.1327 30.8201 27.808 32.1966 25.4761C32.7245 27.9149 34.1398 29.1068 35.9568 29.1068C38.049 29.1068 39.8012 27.7821 41.4627 25.3174C41.4368 27.2607 41.8773 29.0712 43.5549 29.0712C44.3452 29.0712 45.2909 28.8866 45.4593 28.1967C47.2245 20.8965 51.5871 14.9372 52.9085 14.9372C53.3036 14.9372 53.4138 15.3194 53.4138 15.7696C53.4138 17.7517 52.0146 21.8196 52.0146 24.4138C52.0146 27.2186 53.2065 29.0744 55.6712 29.0744C58.4014 29.0744 61.1771 25.732 63.0264 20.8447C63.6061 25.4114 64.8563 29.0939 66.8158 29.0939C69.2189 29.0939 73.4876 24.0349 76.0754 18.678C77.4796 18.8846 78.9098 18.5488 80.0753 17.7387C79.4349 19.339 79.0998 21.045 79.0874 22.7685C79.0874 27.74 81.4615 29.1327 83.5051 29.1327C85.7269 29.1327 87.5277 27.808 88.9074 25.4761C89.3608 27.5781 90.5268 29.1003 92.6611 29.1003C96.0035 29.1003 98.9087 25.6834 98.9087 22.8787C98.9217 22.1402 98.6043 21.6997 98.2351 21.6997ZM28.838 26.3798C27.4874 26.3798 26.9595 25.0195 26.9595 22.992C26.9595 19.4715 29.3691 13.5996 31.9148 13.5996C33.0289 13.5996 33.4467 14.8951 33.4467 16.5145C33.4467 20.0804 31.1569 26.3798 28.838 26.3798ZM75.0876 15.87C74.3377 14.8884 73.9498 13.6779 73.9896 12.4433C73.9896 11.0086 74.5143 9.79727 75.1426 9.79727C75.7709 9.79727 75.9653 10.4159 75.9653 11.2774C75.962 12.7154 75.4471 14.8174 75.0876 15.87ZM85.5585 26.3798C84.2079 26.3798 83.68 24.8154 83.68 22.992C83.68 19.5945 86.0897 13.5996 88.6548 13.5996C89.7689 13.5996 90.164 14.8951 90.164 16.5145C90.164 20.0804 87.9131 26.3798 85.5585 26.3798Z" fill="url(#paint0_radial_418_404)"/>
<defs>
<radialGradient id="paint0_radial_418_404" cx="0" cy="0" r="1" gradientTransform="matrix(28.5902 -23.0276 -15.7458 -19.5492 40.4432 30.6685)" gradientUnits="userSpaceOnUse">
<stop stop-color="#6420FF"/>
<stop offset="1" stop-color="#6420FF" stop-opacity="0"/>
</radialGradient>
</defs>
</svg>
