<svg preserveAspectRatio="none" width="100%" height="100%" overflow="visible" style="display: block;" viewBox="0 0 3.06762 19.0371" fill="none" xmlns="http://www.w3.org/2000/svg">
<path id="Vector" d="M3.05901 9.54274C3.05901 12.5477 3.05186 15.5527 3.0676 18.5549C3.06939 18.9326 2.97422 19.0521 2.58787 19.0357C1.84306 19.0045 1.09611 19.0146 0.350586 19.0332C0.0697619 19.04 -0.000356378 18.9491 1.35963e-06 18.6776C0.00763309 12.5722 0.00763309 6.4668 1.35963e-06 0.361418C1.35963e-06 0.0344457 0.127709 -0.00168575 0.398159 0.00368032C1.14404 0.0179898 1.89064 0.026215 2.63545 0.000815622C2.97959 -0.010632 3.06652 0.0966917 3.06473 0.432607C3.05186 3.46908 3.05722 6.5052 3.05722 9.54167L3.05901 9.54274Z" fill="var(--fill-0, #453AFE)"/>
</svg>
