<svg preserveAspectRatio="none" width="100%" height="100%" overflow="visible" style="display: block;" viewBox="0 0 26.8088 25.3676" fill="none" xmlns="http://www.w3.org/2000/svg">
<path id="Vector" fill-rule="evenodd" clip-rule="evenodd" d="M17.9565 23.1554C22.0628 21.4052 24.9411 17.3407 24.9411 12.6046C24.9411 6.27037 19.7926 1.13532 13.4417 1.13532C7.09083 1.13532 1.94274 6.27037 1.94274 12.6046C1.94274 18.92 7.06069 24.042 13.3859 24.0721C13.3662 24.0726 13.3473 24.0739 13.3279 24.0739C6.66261 24.0739 1.25947 18.6847 1.25947 12.037C1.25947 5.38919 6.66261 0 13.3279 0C19.9932 0 25.3964 5.38919 25.3964 12.037C25.3964 17.0492 22.3242 21.344 17.9565 23.1554ZM13.0949 24.2089C20.5406 24.2089 26.5762 18.189 26.5762 10.7635C26.5762 10.0708 26.5236 9.39072 26.4224 8.72634C26.6729 9.75101 26.8088 10.8207 26.8088 11.9223C26.8088 19.3486 20.7727 25.3676 13.3275 25.3676C6.57579 25.3676 0.984188 20.4183 0 13.9595C1.4385 19.8416 6.75392 24.2089 13.0949 24.2089Z" fill="var(--fill-0, black)" fill-opacity="0.1"/>
</svg>
