<svg preserveAspectRatio="none" width="100%" height="100%" overflow="visible" style="display: block;" viewBox="0 0 150.231 41" fill="none" xmlns="http://www.w3.org/2000/svg">
<g id="Vector">
<path d="M53.8828 30.1798V22.3309H46.9795V30.1798H43.4645V11.5681H46.9795V19.2237H53.8828V11.5681H57.3977V30.1798H53.8828ZM70.2835 30.1798H67.4927L67.2396 29.2589C66.0333 30.0427 64.6255 30.461 63.1869 30.461C60.6983 30.461 59.6368 28.7562 59.6368 26.4082C59.6368 23.642 60.8389 22.5805 63.6051 22.5805H66.874V21.1534C66.874 19.6455 66.4557 19.1147 64.2765 19.1147C63.009 19.1234 61.7457 19.2588 60.505 19.5189L60.0867 16.9214C61.6072 16.5007 63.177 16.2841 64.7545 16.2782C69.0287 16.2782 70.287 17.7861 70.287 21.1991L70.2835 30.1798ZM66.874 25.0374H64.3608C63.2431 25.0374 62.9373 25.3432 62.9373 26.3801C62.9373 27.3291 63.2431 27.7509 64.3081 27.7509C65.2101 27.7369 66.0937 27.4944 66.8775 27.048L66.874 25.0374ZM76.8811 30.4574C75.2853 30.4311 73.7029 30.1671 72.1851 29.6736L72.6596 27.0761C73.9777 27.4532 75.3415 27.6508 76.7123 27.6631C78.2203 27.6631 78.4452 27.3116 78.4452 26.2922C78.4452 25.4557 78.2765 25.0339 76.0691 24.5031C72.744 23.6912 72.3538 22.8546 72.3538 20.229C72.3538 17.4908 73.5559 16.2887 77.4399 16.2887C78.8143 16.2902 80.1834 16.4493 81.5208 16.7632L81.1693 19.4733C79.9338 19.2448 78.6821 19.1147 77.4259 19.0831C75.9461 19.0831 75.693 19.4346 75.693 20.2571C75.693 21.3467 75.7774 21.4311 77.6227 21.9056C81.4329 22.9144 81.7985 23.417 81.7985 26.1973C81.7985 28.8371 80.9865 30.4574 76.8811 30.4574ZM91.9426 30.1798V20.6894C91.9426 19.9618 91.6368 19.5998 90.853 19.5998C90.0164 19.5998 88.5331 20.1024 87.3029 20.7457V30.1798H83.8934V11.0093L87.3029 10.5348V17.6033C88.8459 16.811 90.5436 16.3625 92.2765 16.2887C94.5401 16.2887 95.3486 17.881 95.3486 20.3133V30.1798H91.9426ZM97.8653 14.6437V10.7035H101.275V14.6437H97.8653ZM97.8653 30.1798V16.5699H101.275V30.1798H97.8653ZM103.651 16.6824C103.651 13.2729 105.633 11.2905 110.273 11.2905C111.978 11.2905 113.676 11.4968 115.331 11.9056L114.944 14.9495C113.437 14.6638 111.909 14.5052 110.375 14.475C107.943 14.475 107.162 15.3151 107.162 17.287V24.4399C107.162 26.4223 107.946 27.2518 110.375 27.2518C111.909 27.2216 113.437 27.0631 114.944 26.7773L115.335 29.8248C113.68 30.2335 111.981 30.4399 110.277 30.4399C105.637 30.4399 103.654 28.4574 103.654 25.048L103.651 16.6824ZM122.326 30.4574C117.658 30.4574 116.403 27.888 116.403 25.0936V21.656C116.403 18.8617 117.661 16.2922 122.326 16.2922C126.99 16.2922 128.248 18.8617 128.248 21.656V25.0936C128.238 27.888 126.983 30.4574 122.326 30.4574ZM122.326 19.2096C120.509 19.2096 119.813 20.0216 119.813 21.5576V25.2061C119.813 26.7422 120.516 27.5541 122.326 27.5541C124.136 27.5541 124.839 26.7422 124.839 25.2061V21.5436C124.832 20.0075 124.132 19.1956 122.326 19.1956V19.2096ZM137.292 19.4205C136.041 19.9875 134.835 20.6508 133.686 21.403V30.1903H130.277V16.5699H133.155L133.38 18.0778C134.489 17.327 135.692 16.7253 136.958 16.2887L137.292 19.4205ZM150.22 25.6525C150.22 28.6719 148.878 30.4574 145.721 30.4574C144.5 30.4444 143.283 30.3126 142.087 30.0638V35.6877L138.677 36.1622V16.5699H141.387L141.739 17.7158C142.981 16.7878 144.491 16.2887 146.041 16.2922C148.779 16.2922 150.231 17.9126 150.231 21.0163L150.22 25.6525ZM142.09 27.1886C143.082 27.4065 144.094 27.5246 145.11 27.5401C146.34 27.5401 146.814 26.9531 146.814 25.7228V20.9249C146.814 19.8072 146.396 19.1921 145.138 19.1921C144.009 19.2328 142.93 19.668 142.09 20.4223V27.1886Z" fill="black"/>
<path d="M16.142 0L0 9.31267V31.6757L6.06485 35.177V12.8139L16.142 6.994" fill="black"/>
<path d="M22.583 0V17.8102H16.1423V11.1625L10.0775 14.6638V37.483L16.1423 40.9926V23.2331H22.583V29.8343L28.6479 26.3373V3.50122" fill="black"/>
<path d="M22.5828 41L38.7248 31.6873V9.32428L32.6599 5.82305V28.1861L22.5828 34.006" fill="black"/>
</g>
</svg>
