<svg preserveAspectRatio="none" width="100%" height="100%" overflow="visible" style="display: block;" viewBox="0 0 111.467 27.2287" fill="none" xmlns="http://www.w3.org/2000/svg">
<path id="Vector" fill-rule="evenodd" clip-rule="evenodd" d="M111.294 21.4969C106.636 29.3942 99.259 27.1027 97.0435 25.3085C96.1005 25.9483 94.4472 27.3506 92.2425 27.1886C87.5472 26.844 85.8659 20.1343 85.8659 20.1343C85.8996 20.1611 84.4672 20.6285 83.6931 20.6202C83.6832 22.5878 81.9823 27.2882 77.3919 27.2281C72.2408 27.1609 71.1936 19.4867 71.1936 19.4867C71.1936 19.4867 70.681 20.1985 68.732 20.9075C68.8301 19.3958 68.7584 26.998 62.5846 27.1097C57.7038 27.1982 56.3863 19.3684 56.3863 19.3684C56.3863 19.3684 55.5396 20.2479 53.8987 20.553C54.003 19.0167 53.8334 27.1355 47.6589 27.1097C43.4862 27.0924 42.0603 22.2866 42.1712 21.6195C42.3127 20.7695 40.761 27.2293 36.7079 27.1286C35.0353 27.0795 33.7883 25.8685 33.0059 24.254C31.9584 25.4525 30.4376 27.1286 28.7316 27.1286C25.6692 27.1286 24.3191 24.5673 24.5477 17.2515C24.5673 16.3838 24.5046 16.0425 23.6421 15.9127C23.1243 15.8264 22.5941 15.6628 22.0331 15.5766C21.8533 16.1766 20.3283 26.9334 15.0842 27.1376C13.3249 27.2061 12.363 25.6821 11.573 24.551C10.362 26.153 8.76335 27.1886 6.486 27.1886C2.62834 27.1886 0 24.0701 0 20.2231C0 16.3761 2.62834 13.2578 6.486 13.2578C7.16807 13.2578 7.35954 13.3556 7.98266 13.5374C6.7012 1.87006 9.72749 0.0466204 12.3748 0.0466204C14.9164 0.0466204 19.2585 5.94563 13.1488 20.9087C14.5053 25.3717 17.4296 25.1193 18.8348 15.9318C19.1208 14.0643 18.3561 11.5441 19.5455 11.1924C21.7199 10.5496 21.9506 12.4782 22.9701 12.7996C24.0481 13.1392 24.6773 13.106 25.7121 13.3221C27.4805 13.6675 28.1706 14.6174 27.9551 16.7332C27.6964 19.4103 27.2438 23.3068 28.6238 23.7817C29.6189 24.1267 31.4358 22.0629 31.7547 20.9337C32.0734 19.8045 32.1399 19.4181 32.1683 18.5899C32.2114 16.8197 32.2655 15.5222 32.5673 14.1835C32.6965 13.6655 32.8438 13.3224 33.4299 13.299C33.9121 13.2867 34.794 13.1415 35.1823 13.4436C35.6997 13.8324 35.635 14.2269 35.5756 15.2652C34.9738 30.0689 39.6056 22.6788 40.9866 16.7615C40.4948 10.0705 40.8324 0.169145 45.0253 0.00308165C47.206 -0.0832806 48.17 1.66365 48.2761 2.96758C48.576 6.65035 46.8959 12.7508 44.6864 16.8533C43.4236 25.2243 50.2077 26.8795 51.2926 20.1978C49.5176 19.3538 47.5993 15.938 49.1603 14.2733C50.0362 13.3391 53.6822 14.6812 53.7419 17.6084C55.5303 17.1301 55.7691 16.1203 55.7939 16.2876C55.3023 9.59658 55.7583 0.169231 59.9515 0.00316714C62.1318 -0.0831951 63.0957 1.66374 63.2017 2.96767C63.5017 6.65042 61.8216 12.7509 59.6124 16.8535C58.3494 25.2243 65.1336 26.8796 66.2182 20.1979C64.9041 19.9443 62.1301 16.3111 63.7306 14.2734C64.586 13.1845 68.2186 15.449 68.6253 17.7053C70.3434 17.2191 70.5767 16.2414 70.6014 16.406C70.1096 9.71516 70.5656 0.287811 74.7588 0.121748C76.9391 0.0353854 77.903 1.78232 78.0091 3.08625C78.309 6.769 76.6289 12.8696 74.4194 16.9721C73.1568 25.3431 79.9408 26.998 81.0257 20.3163C79.2198 20.0156 76.6533 16.1794 78.7189 14.2169C79.5442 13.4327 82.6977 15.4682 83.4359 17.7904C84.4615 17.7509 85.1 17.3972 85.2368 17.3615C83.5994 9.50664 84.8184 0.0819546 89.3291 0.00328231C91.7671 -0.0391984 94.1506 1.32133 93.1044 8.79419C92.1058 15.9242 88.5161 18.9163 88.5245 18.9621C88.7333 19.8163 90.5753 26.9648 95.2138 23.193C94.9737 22.6493 94.7333 22.0939 94.599 21.421C93.8301 17.5013 95.3402 13.074 99.4447 12.3585C101.796 11.9485 104.012 13.0934 104.362 15.6746C104.938 19.8981 101.124 22.9569 99.6741 23.6204C99.0245 23.2514 105.562 27.4443 109.442 19.0416C109.667 18.5618 109.938 18.6025 110.29 18.8497C110.538 19.0244 111.951 20.3635 111.294 21.4969ZM9.2921 19.1853C9.09468 18.5951 8.68955 17.2946 8.54628 16.7311C7.75727 16.045 7.1941 15.9336 6.18134 15.9336C3.93067 15.9336 2.60596 18.0145 2.60596 20.2583C2.60596 22.502 4.04913 24.5832 6.29982 24.5832C8.25029 24.5832 9.73478 23.2571 10.1877 21.3797C9.87068 20.6479 9.55621 19.9753 9.2921 19.1853ZM12.3197 3.13504C10.7382 3.13504 10.2018 6.9076 10.3059 10.126C10.398 12.9714 11.1931 15.4764 11.6055 16.5989C11.7102 16.7395 11.6908 16.648 11.7843 16.7971C14.5302 10.7808 13.3913 3.13504 12.3197 3.13504ZM45.2512 3.25355C43.2073 3.01913 43.2205 11.5337 43.4742 13.4436C44.5358 11.7454 46.3798 3.7108 45.2512 3.25355ZM60.1769 3.25355C58.1329 3.01913 58.1461 11.5337 58.4 13.4436C59.4615 11.7454 61.3056 3.7108 60.1769 3.25355ZM74.9844 3.37201C72.9403 3.1376 72.9535 11.6522 73.2073 13.5623C74.2688 11.8639 76.113 3.82923 74.9844 3.37201ZM89.5547 2.75512C86.3701 3.39461 87.1116 14.0125 87.5953 15.8748C91.3465 10.7226 91.4238 2.56159 89.5547 2.75512ZM101.49 16.0239C101.328 15.3469 100.518 14.9851 99.9593 15.0743C98.3604 15.2926 96.8095 17.2841 97.4098 20.316C97.5435 20.9912 97.8779 21.6128 97.8724 21.5921C101.451 19.1913 101.755 17.2995 101.49 16.0239ZM34.0567 10.9554C33.5997 10.9555 33.153 10.82 32.773 10.5662C32.3929 10.3123 32.0967 9.95151 31.9217 9.5293C31.7467 9.10711 31.701 8.6425 31.7901 8.19427C31.8792 7.74602 32.0993 7.33429 32.4224 7.01111C32.7455 6.68793 33.1572 6.46784 33.6054 6.37867C34.0537 6.28949 34.5183 6.33524 34.9405 6.51014C35.3628 6.68502 35.7236 6.9812 35.9775 7.3612C36.2314 7.7412 36.3669 8.18796 36.3669 8.64496C36.3669 8.94835 36.3072 9.24879 36.191 9.52908C36.075 9.80939 35.9049 10.0641 35.6903 10.2786C35.4757 10.4932 35.2211 10.6634 34.9408 10.7795C34.6606 10.8956 34.3602 10.9554 34.0567 10.9554Z" fill="var(--fill-0, #0D0C22)"/>
</svg>
