<svg preserveAspectRatio="none" width="100%" height="100%" overflow="visible" style="display: block;" viewBox="0 0 69.4746 34.9972" fill="none" xmlns="http://www.w3.org/2000/svg">
<path id="Vector" d="M69.4035 0.0974097C69.3988 0.0927497 69.3959 0.08691 69.3918 0.08283C69.3912 0.08225 69.3906 0.0822496 69.3906 0.0822496C69.3381 0.0303296 69.2635 0 69.1748 0H69.1713H0.300996C0.278246 0 0.256663 0.00232981 0.235663 0.00582981C0.22983 0.00699981 0.22458 0.00932995 0.218164 0.0105C0.204747 0.014 0.190164 0.0169096 0.177914 0.0221596C0.175581 0.0227496 0.173831 0.0239097 0.172081 0.0250797C0.0653324 0.0688297 0 0.16858 0 0.30041V0.30158V34.6945V34.6968C0 34.8018 0.0408328 34.884 0.109665 34.9365C0.114915 34.9418 0.119582 34.9464 0.126582 34.9499V34.9505C0.174414 34.9809 0.232747 34.9972 0.300996 34.9972H69.1707H69.1742C69.2757 34.9972 69.358 34.9581 69.4099 34.891C69.4507 34.8409 69.4746 34.7749 69.4746 34.6962V34.6939V0.30158V0.30041C69.4746 0.21816 69.4484 0.14874 69.4035 0.0974097ZM3.65512 31.6402C3.63353 31.6402 3.61253 31.6384 3.59387 31.6355C3.58803 31.6343 3.58162 31.6314 3.57579 31.6297C3.56179 31.6267 3.54779 31.6238 3.53495 31.6186C3.53262 31.618 3.53145 31.6162 3.52912 31.6157C3.42295 31.5725 3.3582 31.4733 3.35762 31.3427V6.4137V3.6574C3.35762 3.525 3.42295 3.4265 3.52912 3.3821C3.53204 3.3815 3.53379 3.3798 3.53554 3.3792C3.54779 3.3745 3.58745 3.3646 3.59387 3.3629C3.6137 3.36 3.6347 3.3582 3.65628 3.3582H65.8178C65.8399 3.3582 65.8604 3.36 65.8802 3.3629C65.8866 3.3646 65.8924 3.367 65.8977 3.3687C65.9117 3.3716 65.9257 3.3745 65.9385 3.3798C65.9414 3.3804 65.9426 3.3821 65.9449 3.3827C66.0517 3.4265 66.1164 3.5256 66.1164 3.658V31.3432C66.1159 31.4745 66.0505 31.5737 65.9455 31.6168C65.9432 31.6174 65.942 31.6192 65.9391 31.6197C65.9269 31.6244 65.9123 31.6279 65.8989 31.6308C65.8924 31.6326 65.8872 31.6355 65.8808 31.6367C65.8609 31.6402 65.8417 31.6413 65.8201 31.6413H3.65512V31.6402Z" fill="var(--fill-0, #204156)"/>
</svg>
