<svg preserveAspectRatio="none" width="100%" height="100%" overflow="visible" style="display: block;" viewBox="0 0 22.8987 22.6225" fill="none" xmlns="http://www.w3.org/2000/svg">
<path id="Vector" d="M17.3184 16.1334C16.287 17.0487 14.999 18.1876 12.6637 18.1876H11.2672C9.57719 18.1876 8.04009 17.5734 6.93986 16.4599C5.86512 15.372 5.27349 13.883 5.27349 12.2666V10.3559C5.27349 8.7395 5.86512 7.25052 6.93986 6.16256C8.04009 5.04913 9.57719 4.4358 11.2672 4.4358H12.6637C15.0019 4.4358 16.287 5.57376 17.3184 6.48904C18.3893 7.43263 19.3131 8.25732 21.7768 8.25732C22.1526 8.25723 22.5277 8.22726 22.8987 8.16768L22.8902 8.14598C22.7427 7.77952 22.5696 7.42386 22.3722 7.08162L20.7257 4.22915C19.9831 2.94326 18.9152 1.87547 17.6292 1.1331C16.3433 0.390731 14.8845 -6.14329e-05 13.3997 7.24355e-09H10.1056C8.62072 -6.14329e-05 7.16199 0.390731 5.87601 1.1331C4.59003 1.87547 3.52211 2.94326 2.77959 4.22915L1.13303 7.08162C0.390763 8.36765 0 9.82637 0 11.3112C0 12.7961 0.390763 14.2548 1.13303 15.5409L2.77959 18.3933C3.52211 19.6792 4.59003 20.747 5.87601 21.4894C7.16199 22.2318 8.62072 22.6225 10.1056 22.6225H13.3997C14.8845 22.6225 16.3433 22.2318 17.6292 21.4894C18.9152 20.747 19.9831 19.6792 20.7257 18.3933L22.3722 15.5456C22.5696 15.2033 22.7427 14.8477 22.8902 14.4812L22.8987 14.4605C22.5279 14.3989 22.1527 14.3673 21.7768 14.3661C19.3131 14.3661 18.3893 15.1861 17.3184 16.1344" fill="var(--fill-0, #006BFF)"/>
</svg>
