<svg preserveAspectRatio="none" width="100%" height="100%" overflow="visible" style="display: block;" viewBox="0 0 26.6968 30.8952" fill="none" xmlns="http://www.w3.org/2000/svg">
<path id="Vector" d="M11.0707 8.86551C11.1409 8.41297 11.4311 8.04333 11.8214 7.85679C11.9999 7.77158 12.1968 7.72436 12.4053 7.72436H20.8712C21.8742 7.72436 22.8103 7.79 23.6648 7.92818C23.9089 7.96733 24.1461 8.01224 24.3776 8.06291C24.6079 8.11473 24.8324 8.1723 25.05 8.23564C25.1583 8.26788 25.2654 8.30127 25.3702 8.33467C25.7905 8.474 26.1808 8.63867 26.5413 8.82867C26.965 6.12606 26.5378 4.28594 25.0765 2.6197C23.4656 0.785333 20.558 0 16.8374 0H6.03623C5.27623 0 4.62793 0.552727 4.51047 1.30467L0.0115023 29.8219C-0.0771644 30.3862 0.358108 30.8952 0.926957 30.8952H7.59538L9.26968 20.2724L11.0707 8.86551Z" fill="var(--fill-0, #253B80)"/>
</svg>
