<svg preserveAspectRatio="none" width="100%" height="100%" overflow="visible" style="display: block;" viewBox="0 0 219.298 31.7449" fill="none" xmlns="http://www.w3.org/2000/svg">
<g id="Vector">
<path fill-rule="evenodd" clip-rule="evenodd" d="M8.14007 16.8062L20.4327 4.36304C21.2679 3.51764 22.3791 3.05278 23.5636 3.05278C24.7473 3.05278 25.8585 3.5172 26.6928 4.3626L27.6506 5.33206L29.5665 3.3927L28.6087 2.42325C27.2633 1.06133 25.4717 0.311279 23.5628 0.311279C21.6547 0.311721 19.8627 1.06177 18.5172 2.42413L6.22461 14.8668L8.14007 16.8062Z" fill="black"/>
<path fill-rule="evenodd" clip-rule="evenodd" d="M24.5867 8.49619L22.6618 6.55971L10.3114 18.9844C8.5771 20.7291 5.75516 20.7296 4.02125 18.9853C2.2869 17.2406 2.2869 14.4013 4.02125 12.6566L14.6784 1.93604L12.7535 0L2.09673 10.7205C-0.69891 13.5329 -0.69891 18.1094 2.09673 20.9213C3.44854 22.2812 5.24862 23.0306 7.16569 23.0306C9.0832 23.0306 10.8842 22.2808 12.236 20.9209L24.5867 8.49619Z" fill="black"/>
<path fill-rule="evenodd" clip-rule="evenodd" d="M36.806 10.8232C35.4546 9.46324 33.6546 8.71428 31.7366 8.71428C29.8191 8.71472 28.0181 9.46368 26.6663 10.824L14.3163 23.2485L16.2404 25.1851L28.5913 12.7601C30.3261 11.0154 33.1476 11.0158 34.8815 12.7597C35.7202 13.6034 36.182 14.7266 36.182 15.9234C36.182 17.1207 35.7202 18.2444 34.8815 19.0881L24.2247 29.8088L26.1497 31.7449L36.806 21.0246C39.6021 18.2122 39.6021 13.6356 36.806 10.8232Z" fill="black"/>
<path fill-rule="evenodd" clip-rule="evenodd" d="M30.7633 14.9387L18.4709 27.3819C16.7444 29.1287 13.9362 29.1296 12.2105 27.3823L11.2528 26.4128L9.33691 28.3522L10.2946 29.3216C11.64 30.6836 13.4316 31.4336 15.3409 31.4336C17.2489 31.4332 19.0405 30.6831 20.3864 29.3208L32.6788 16.8781L30.7633 14.9387Z" fill="black"/>
<path fill-rule="evenodd" clip-rule="evenodd" d="M50.2548 19.1124C50.4134 19.9064 50.785 20.528 51.3687 20.9758C51.952 21.4246 52.7196 21.6485 53.6714 21.6485C54.6079 21.6485 55.3319 21.4282 55.8438 20.987C56.3556 20.5462 56.6113 19.9655 56.6113 19.2448C56.6113 18.892 56.5429 18.5944 56.4062 18.3518C56.2689 18.1092 56.0781 17.9035 55.8333 17.7342C55.5876 17.5658 55.2853 17.4218 54.9251 17.3045C54.5648 17.1868 54.161 17.0619 53.7141 16.9295L52.547 16.599C51.8549 16.4079 51.235 16.1764 50.6874 15.9041C50.1394 15.6322 49.6711 15.3123 49.2821 14.9448C48.8931 14.5774 48.5973 14.1548 48.3956 13.6768C48.1939 13.1991 48.0929 12.6438 48.0929 12.012C48.0929 11.3504 48.2227 10.7403 48.4823 10.1814C48.7415 9.62336 49.1092 9.14484 49.5849 8.74808C50.0606 8.35131 50.6369 8.03896 51.3147 7.81059C51.9916 7.58355 52.7553 7.46936 53.606 7.46936C55.206 7.46936 56.4741 7.85502 57.4116 8.62678C58.3481 9.39899 58.8957 10.4316 59.0547 11.7254L56.4602 11.9458C56.3012 11.2842 55.9845 10.7697 55.5088 10.4022C55.0331 10.0348 54.3701 9.85085 53.5198 9.85085C52.727 9.85085 52.1071 10.0383 51.6606 10.4133C51.2132 10.7883 50.9897 11.27 50.9897 11.8578C50.9897 12.1959 51.0551 12.4785 51.1849 12.7064C51.3147 12.9348 51.5016 13.1329 51.7468 13.3018C51.9916 13.4711 52.2909 13.6217 52.6438 13.7536C52.997 13.886 53.3969 14.0264 53.8439 14.1731L54.9469 14.5258C55.6382 14.7462 56.262 14.9777 56.8165 15.2203C57.3715 15.4629 57.8437 15.7535 58.2327 16.0916C58.6221 16.4297 58.9214 16.834 59.1301 17.3045C59.3392 17.7751 59.4437 18.3558 59.4437 19.0467C59.4437 19.782 59.2995 20.4547 59.0116 21.0643C58.7228 21.6747 58.3198 22.1928 57.8006 22.6189C57.2818 23.0454 56.6658 23.3764 55.9518 23.611C55.2383 23.8461 54.4494 23.9643 53.5847 23.9643C51.9847 23.9643 50.6512 23.5822 49.5849 22.8175C48.518 22.0528 47.8624 20.899 47.6172 19.355L50.2548 19.1124Z" fill="black"/>
<path fill-rule="evenodd" clip-rule="evenodd" d="M70.6045 10.1512C69.8267 10.1512 69.1313 10.2975 68.5191 10.5894C67.9064 10.8818 67.3877 11.2869 66.9632 11.8052C66.5377 12.324 66.2133 12.9378 65.9899 13.6454C65.7669 14.3544 65.6554 15.1248 65.6554 15.9571C65.6554 16.7899 65.7704 17.5639 66.0012 18.2799C66.2311 18.9955 66.5595 19.616 66.9845 20.1422C67.4091 20.6676 67.9281 21.0803 68.5408 21.3801C69.1526 21.6791 69.8481 21.8286 70.6263 21.8286C71.4044 21.8286 72.0994 21.6866 72.7121 21.4018C73.3239 21.117 73.843 20.7189 74.268 20.2073C74.693 19.6964 75.0209 19.0791 75.2513 18.3564C75.4817 17.6333 75.5971 16.8408 75.5971 15.9793C75.5971 15.1319 75.4817 14.3504 75.2513 13.6348C75.0209 12.9197 74.693 12.3058 74.268 11.7946C73.843 11.2838 73.3205 10.8818 72.7008 10.5894C72.0816 10.2975 71.3827 10.1512 70.6045 10.1512ZM70.6263 7.78064C71.7933 7.78064 72.8597 7.98187 73.8252 8.38432C74.7901 8.78678 75.6114 9.34978 76.289 10.0742C76.9657 10.7991 77.4913 11.6659 77.8667 12.6756C78.2412 13.6852 78.4284 14.79 78.4284 15.9899C78.4284 17.2344 78.2303 18.3573 77.8345 19.3594C77.4373 20.362 76.8725 21.2289 76.1375 21.9604L78.2124 24.441V25.2092H75.5757L74.1274 23.4097C73.6231 23.6436 73.0823 23.8263 72.5066 23.9581C71.93 24.0899 71.3104 24.1557 70.648 24.1557C69.4518 24.1557 68.3749 23.9541 67.4169 23.5521C66.4584 23.1496 65.6441 22.5862 64.9744 21.8617C64.3042 21.1373 63.7856 20.2745 63.4185 19.2714C63.051 18.2693 62.8672 17.1756 62.8672 15.9899C62.8672 14.79 63.051 13.6892 63.4185 12.6862C63.7856 11.6845 64.3077 10.8207 64.9853 10.0963C65.662 9.37189 66.4798 8.80491 67.4382 8.39494C68.3967 7.98585 69.4592 7.78064 70.6263 7.78064Z" fill="black"/>
<path fill-rule="evenodd" clip-rule="evenodd" d="M89.0101 21.6933C90.1158 21.6933 90.9772 21.3446 91.5947 20.6462C92.2118 19.9478 92.5208 18.8785 92.5208 17.4378V7.78064H95.2346V17.504C95.2346 18.6506 95.091 19.6315 94.8037 20.4476C94.516 21.2633 94.1073 21.9323 93.5761 22.4543C93.045 22.9763 92.3914 23.3584 91.6164 23.6009C90.841 23.8435 89.9722 23.9643 89.0101 23.9643C88.0333 23.9643 87.1611 23.8435 86.3935 23.6009C85.6249 23.3584 84.9753 22.9763 84.4442 22.4543C83.913 21.9323 83.5038 21.2633 83.2161 20.4476C82.9288 19.6315 82.7856 18.6506 82.7856 17.504V7.78064H85.4995V17.4378C85.4995 18.8785 85.8081 19.9478 86.4256 20.6462C87.0431 21.3446 87.9045 21.6933 89.0101 21.6933Z" fill="black"/>
<path fill-rule="evenodd" clip-rule="evenodd" d="M103.01 16.8693H108.203L107.348 14.3986C107.012 13.431 106.742 12.6432 106.537 12.0367C106.333 11.4297 106.15 10.8952 105.99 10.4328H105.311C105.223 10.6782 105.135 10.924 105.047 11.1695C104.96 11.4153 104.861 11.69 104.752 11.993C104.642 12.2965 104.522 12.6432 104.39 13.0336C104.259 13.4231 104.098 13.8786 103.908 14.3986L103.01 16.8693ZM98.0356 22.8945L103.623 8.0918H107.765L113.286 22.8945V23.653H110.569L108.991 19.2099H102.177L100.6 23.653H98.0356V22.8945Z" fill="black"/>
<path fill-rule="evenodd" clip-rule="evenodd" d="M119.4 15.2006H121.766C122.807 15.2006 123.628 15.0106 124.228 14.6316C124.829 14.2521 125.13 13.6329 125.13 12.773C125.13 11.8997 124.825 11.2914 124.218 10.9477C123.61 10.6045 122.793 10.4324 121.766 10.4324H119.4V15.2006ZM128.536 23.653H125.91L121.158 17.5412H119.4V23.653H116.709V8.0918H121.766C122.561 8.0918 123.317 8.14595 124.033 8.25424C124.749 8.36254 125.397 8.61189 125.976 9.00185C127.205 9.81058 127.82 11.0316 127.82 12.6634C127.82 13.3717 127.715 13.9892 127.505 14.5167C127.295 15.0438 127.017 15.4914 126.67 15.86C126.322 16.2285 125.921 16.5281 125.466 16.7587C125.01 16.9901 124.536 17.1635 124.044 17.2787L128.536 22.8941V23.653Z" fill="black"/>
<path fill-rule="evenodd" clip-rule="evenodd" d="M131.959 8.0918H142.077V10.4756H134.635V14.5502H141.555V16.8907H134.635V21.2688H142.229V23.653H131.959V8.0918Z" fill="black"/>
<path fill-rule="evenodd" clip-rule="evenodd" d="M148.291 19.1124C148.449 19.9064 148.821 20.528 149.405 20.9758C149.988 21.4246 150.756 21.6485 151.707 21.6485C152.644 21.6485 153.368 21.4282 153.88 20.987C154.391 20.5462 154.648 19.9655 154.648 19.2448C154.648 18.892 154.579 18.5944 154.442 18.3518C154.305 18.1092 154.114 17.9035 153.869 17.7342C153.624 17.5658 153.321 17.4218 152.961 17.3045C152.601 17.1868 152.197 17.0619 151.75 16.9295L150.583 16.599C149.891 16.4079 149.271 16.1764 148.723 15.9041C148.175 15.6322 147.707 15.3123 147.319 14.9448C146.929 14.5774 146.633 14.1548 146.432 13.6768C146.23 13.1991 146.129 12.6438 146.129 12.012C146.129 11.3504 146.259 10.7403 146.518 10.1814C146.778 9.62336 147.145 9.14484 147.621 8.74808C148.097 8.35131 148.673 8.03896 149.351 7.81059C150.028 7.58355 150.792 7.46936 151.642 7.46936C153.242 7.46936 154.51 7.85502 155.447 8.62678C156.384 9.39899 156.932 10.4316 157.09 11.7254L154.496 11.9458C154.337 11.2842 154.02 10.7697 153.545 10.4022C153.069 10.0348 152.406 9.85085 151.556 9.85085C150.763 9.85085 150.143 10.0383 149.697 10.4133C149.25 10.7883 149.026 11.27 149.026 11.8578C149.026 12.1959 149.091 12.4785 149.221 12.7064C149.351 12.9348 149.538 13.1329 149.783 13.3018C150.028 13.4711 150.327 13.6217 150.68 13.7536C151.033 13.886 151.433 14.0264 151.88 14.1731L152.983 14.5258C153.674 14.7462 154.298 14.9777 154.853 15.2203C155.407 15.4629 155.88 15.7535 156.268 16.0916C156.658 16.4297 156.957 16.834 157.166 17.3045C157.375 17.7751 157.48 18.3558 157.48 19.0467C157.48 19.782 157.336 20.4547 157.047 21.0643C156.759 21.6747 156.356 22.1928 155.836 22.6189C155.318 23.0454 154.702 23.3764 153.988 23.611C153.274 23.8461 152.485 23.9643 151.621 23.9643C150.021 23.9643 148.687 23.5822 147.621 22.8175C146.554 22.0528 145.899 20.899 145.653 19.355L148.291 19.1124Z" fill="black"/>
<path fill-rule="evenodd" clip-rule="evenodd" d="M164.283 15.3305H166.93C167.416 15.3305 167.86 15.2912 168.265 15.2122C168.669 15.1336 169.022 15.0012 169.324 14.8148C169.625 14.6288 169.861 14.3781 170.03 14.0628C170.199 13.748 170.283 13.3611 170.283 12.9026C170.283 12.4301 170.199 12.0332 170.03 11.7109C169.861 11.3887 169.629 11.1345 169.335 10.9481C169.04 10.7616 168.691 10.6293 168.287 10.5507C167.882 10.4721 167.445 10.4324 166.975 10.4324H164.283V15.3305ZM161.525 8.0918H167.305C168.379 8.0918 169.28 8.2145 170.008 8.46035C170.736 8.70576 171.324 9.04505 171.773 9.4791C172.221 9.91228 172.545 10.4214 172.743 11.007C172.941 11.5917 173.041 12.224 173.041 12.903C173.041 13.7126 172.905 14.4165 172.633 15.0161C172.361 15.6156 171.967 16.1104 171.453 16.5008C170.937 16.8907 170.313 17.1833 169.577 17.3785C168.842 17.5737 168.011 17.6711 167.085 17.6711H164.283V23.653H161.525V8.0918Z" fill="black"/>
<path fill-rule="evenodd" clip-rule="evenodd" d="M178.638 16.8693H183.831L182.976 14.3986C182.639 13.431 182.369 12.6432 182.165 12.0367C181.96 11.4297 181.778 10.8952 181.617 10.4328H180.938C180.851 10.6782 180.763 10.924 180.675 11.1695C180.588 11.4153 180.489 11.69 180.379 11.993C180.27 12.2965 180.15 12.6432 180.018 13.0336C179.886 13.4231 179.726 13.8786 179.536 14.3986L178.638 16.8693ZM173.664 22.8945L179.251 8.0918H183.392L188.914 22.8945V23.653H186.197L184.619 19.2099H177.805L176.227 23.653H173.664V22.8945Z" fill="black"/>
<path fill-rule="evenodd" clip-rule="evenodd" d="M205.408 19.5388C205.161 20.1463 204.837 20.718 204.437 21.2543C204.036 21.7906 203.552 22.2605 202.985 22.6618C202.417 23.063 201.759 23.3803 201.009 23.6137C200.259 23.8471 199.426 23.9643 198.509 23.9643C197.345 23.9643 196.286 23.7615 195.333 23.3563C194.379 22.952 193.566 22.3912 192.892 21.6757C192.218 20.9593 191.697 20.1065 191.331 19.1156C190.964 18.1252 190.781 17.0513 190.781 15.8939C190.781 14.7373 190.964 13.6634 191.331 12.6725C191.697 11.6821 192.221 10.8249 192.902 10.1016C193.584 9.37905 194.401 8.81083 195.355 8.39909C196.308 7.98648 197.374 7.78061 198.553 7.78061C200.27 7.78061 201.708 8.1788 202.865 8.97386C204.022 9.76893 204.841 10.8249 205.321 12.141L202.549 12.683C202.17 11.8879 201.642 11.262 200.965 10.8066C200.288 10.3511 199.47 10.1234 198.509 10.1234C197.738 10.1234 197.05 10.2711 196.446 10.5666C195.842 10.8621 195.333 11.269 194.918 11.7878C194.503 12.3062 194.186 12.9186 193.968 13.6249C193.75 14.3308 193.641 15.087 193.641 15.8939C193.641 16.7152 193.753 17.4753 193.979 18.1742C194.204 18.8735 194.532 19.478 194.961 19.9898C195.391 20.5012 195.911 20.9007 196.523 21.1888C197.134 21.4772 197.833 21.6215 198.618 21.6215C199.637 21.6215 200.478 21.3754 201.14 20.8837C201.803 20.392 202.315 19.7918 202.679 19.0829L205.408 19.5388Z" fill="black"/>
<path fill-rule="evenodd" clip-rule="evenodd" d="M208.969 7.90393H219.144V10.3108H211.66V14.4249H218.619V16.7881H211.66V21.2086H219.298V23.6159H208.969V7.90393Z" fill="black"/>
</g>
</svg>
