<svg preserveAspectRatio="none" width="100%" height="100%" overflow="visible" style="display: block;" viewBox="0 0 101 32" fill="none" xmlns="http://www.w3.org/2000/svg">
<g id="logo-layer" clip-path="url(#clip0_418_270)">
<path id="Vector" d="M38.7852 27.9145C35.027 25.572 29.9266 25.1609 21.701 27.3691C12.9321 29.363 10.0084 30.6411 6.16875 28.0753C4.69365 26.8149 4.16479 24.7854 4.5597 21.8622C5.47564 17.0967 7.9509 12.5108 12.3476 7.42382C14.8017 4.77761 17.0781 2.50667 20.0842 1.59475C22.388 1.02268 22.1726 2.77456 21.8938 3.02511C21.5997 3.02511 21.1055 3.06995 20.7236 3.31109C20.4137 3.54368 19.5629 4.29471 19.5172 5.30497C19.4513 6.8515 21.1054 6.52961 21.8188 5.68048C22.5878 4.72361 23.7243 2.89123 22.8303 1.18344C22.4556 0.575579 21.8082 0.155474 21.0044 0.0124261C18.2519 -0.139784 15.6884 1.12982 13.3226 2.53342C8.14861 6.01117 4.00975 10.8301 1.66781 16.1049C0.31757 19.2875 -0.90352 23.8465 0.926853 27.5571C2.34275 30.1317 5.28235 31.4993 8.78945 31.2133C11.2492 30.9633 14.2235 30.194 16.2239 29.7296C18.2244 29.2644 28.4644 25.8585 31.8289 31.7862C31.8289 31.7862 32.9478 29.6847 35.7438 29.6399C38.0426 29.4347 41.3588 30.2838 43.7738 32C42.9692 30.8293 40.6882 29.1038 38.7852 27.9145V27.9145Z" fill="var(--fill-0, #E61D2A)"/>
<path id="Vector_2" d="M22.7452 8.02274C20.83 6.80689 16.9806 9.13134 13.8975 13.1185C11.0781 16.6949 9.86063 20.8516 11.1855 22.7738C13.1564 25.0356 16.8151 21.7457 18.371 19.9848L18.5718 19.779C19.6299 18.6793 20.4473 17.3561 21.2385 16.0865C21.2385 16.0865 21.9657 14.9242 22.0005 14.8705C22.4499 14.7904 22.9913 14.6651 23.6013 14.4952C23.5926 14.5218 21.2673 18.3036 21.5045 20.1807C21.5784 20.7534 21.522 22.8454 23.6329 23.48C26.4462 23.9363 28.6927 21.8261 30.6746 19.9486C30.6746 19.9486 31.0123 19.636 31.2033 19.4576C31.155 19.6448 31.092 19.8946 31.092 19.8946C30.2683 22.6662 31.3786 23.2477 32.0731 23.4623C34.172 24.0527 36.6794 21.1022 36.6875 21.1022C36.6225 22.0316 36.4323 22.8004 37.4449 23.4173C38.4006 23.7484 39.3678 23.2438 40.1029 22.7699C42.751 20.964 44.8844 18.1376 46.6076 15.6945H45.5085C45.4955 15.6945 42.7962 19.4799 41.0435 20.3027C41.0407 20.3027 40.7218 20.4611 40.538 20.3358C40.3105 20.1479 40.4003 19.7575 40.5408 19.4809C40.5496 19.4628 47.3082 8.12059 47.3082 8.12059H44.1171C44.1171 8.12059 43.7685 8.66628 43.7401 8.70207C43.7186 8.68423 43.6675 8.59042 43.632 8.54546C41.6549 5.89925 37.1777 9.96959 33.807 14.6898C32.5093 16.5049 30.857 18.5485 29.1438 20.0235C29.1438 20.0235 26.6058 22.2747 25.5213 20.6573C25.1249 19.9777 25.2468 18.9842 25.4704 18.3317C26.7331 14.854 28.9087 11.6978 31.3845 9.79332C32.0834 9.2662 32.8431 9.11374 33.22 9.3373C33.5792 9.54326 33.6372 10.0524 33.4099 10.4012C32.8333 10.3833 32.3714 10.5529 31.9958 10.9284C31.256 11.6795 30.9989 12.4037 31.2341 13.0833C32.3768 14.6567 34.6558 11.5454 34.5455 9.65014C34.5061 8.97057 34.1314 8.32704 33.5723 8.01382C32.7389 7.5313 31.4676 7.65626 30.6448 8.04094C29.5434 8.44309 27.7999 9.84658 26.7822 10.9375C25.501 12.3055 23.3037 13.8252 22.6166 13.655C22.8417 13.0737 24.6977 9.39935 22.7452 8.02274V8.02274ZM38.1302 13.4583C38.7509 12.627 40.5577 10.4008 40.9982 10.0254C42.4796 8.76437 43.0717 9.31922 43.123 9.71232C41.7404 12.1082 40.1086 14.853 38.5744 17.3206C38.5776 17.3118 38.0943 18.0268 38.0943 18.0268C37.4167 19.0279 36.7345 19.8862 35.6216 20.4852C35.4629 20.5301 35.2013 20.5481 35.0272 20.4225C34.8176 20.2884 34.7349 20.0648 34.7585 19.8322C34.8252 19.0636 35.6341 16.7128 38.1302 13.4583V13.4583ZM20.7701 14.8976C20.7701 14.8976 20.7424 14.9784 20.7286 15.0047C20.7251 15.0047 19.3373 17.1948 19.3373 17.1948C18.4998 18.2768 17.4541 19.636 16.1469 20.2884C15.7594 20.4136 15.2239 20.4942 14.9509 20.1636C14.3723 19.493 14.6705 18.5632 14.9128 17.8123L14.9985 17.5441C15.6931 15.7205 16.7953 14.1109 17.868 12.6179C17.8814 12.6091 17.9115 12.6002 17.9223 12.6002C17.9249 12.6091 17.9291 12.6091 17.931 12.627C18.6042 13.8784 19.8665 14.4593 20.8104 14.7279C20.8161 14.7279 20.8222 14.7368 20.8222 14.7548C20.8223 14.7814 20.8069 14.8175 20.7701 14.8976V14.8976ZM22.0849 12.3142C22.0789 12.332 21.4668 13.6908 21.4668 13.6908C21.3783 13.7623 21.2384 13.7266 21.0781 13.6908L20.8034 13.6458C19.9407 13.3867 19.29 12.8324 19.0894 12.1709C18.8126 10.8835 19.9493 9.87321 20.4501 9.50685C20.9306 9.18472 21.6776 9.01492 22.1114 9.34585C22.379 9.6499 22.4803 10.0431 22.4803 10.4725C22.4805 11.0535 22.2951 11.7061 22.0849 12.3142V12.3142Z" fill="var(--fill-0, #E61D2A)"/>
<path id="Vector_3" d="M62.4268 16.4621C62.1192 15.8186 61.3887 15.4073 60.6102 15.4519C58.0823 15.6755 55.6097 17.687 54.3115 20.5745C53.6302 22.0587 53.2584 23.2833 53.0146 25.2323C53.8007 24.3564 55.4041 22.9171 57.2236 22.1303C57.2236 22.1303 57.4711 20.2619 58.7336 18.5989C59.2114 17.9103 60.1675 16.8018 61.241 17.0967C62.1789 17.4009 61.8492 19.9131 60.6026 22.3443C59.6803 24.1326 58.2688 25.9211 56.8407 27.1546C55.578 28.1917 53.7099 29.4432 52.0755 28.4778C51.046 27.888 50.521 26.654 50.6319 25.0626C51.1238 20.548 53.2477 16.7036 56.2872 12.323C59.4212 8.25522 62.8759 4.08019 67.5299 1.85372C68.4791 1.3889 69.3582 1.28165 70.1181 1.56775C70.1181 1.56775 65.7494 3.89219 63.6669 8.19255C63.1371 9.28343 62.4003 10.7581 63.1423 12.0635C63.53 12.7429 64.2185 12.7966 64.7727 12.7608C67.3253 12.1885 68.9745 9.88201 70.322 7.77233C71.1032 6.17204 71.7976 4.58068 71.7976 2.81047C71.7976 2.59596 71.7861 2.30998 71.7673 2.09523C72.9869 1.46965 75.4877 2.578 75.4877 2.578C77.4419 3.20407 81.603 6.28858 83.0066 6.87837C83.6913 6.10962 84.8164 4.94752 85.4499 4.36629L84.5328 3.82085C83.0645 2.95364 81.5126 2.13102 79.9849 1.31756C76.5157 -0.514944 73.6919 0.12859 72.2546 0.62932C71.6898 0.825874 71.1736 0.995797 71.1736 0.995797C70.107 -0.130631 68.3578 -0.0236201 67.0689 0.280556C62.4338 1.56787 58.1303 4.70577 53.5165 10.1505C50.1244 14.4151 48.0203 18.0986 46.8988 21.7371C46.0344 24.1865 45.7717 27.7894 47.8816 29.9262C49.6755 31.7405 52.0541 31.3476 53.7339 30.6951C57.3733 28.9607 60.6443 25.2235 62.2742 20.9232C62.6675 19.645 63.104 17.8391 62.4268 16.4621V16.4621ZM70.7954 2.98943C70.3137 8.33572 66.0188 11.474 64.9561 11.7239C64.3121 11.8489 63.2132 11.572 64.1942 9.32827C65.6389 6.30617 68.1053 3.74059 70.7516 2.42628C70.816 2.64983 70.8144 2.79251 70.7954 2.98943V2.98943Z" fill="var(--fill-0, #E61D2A)"/>
<path id="Vector_4" d="M96.2726 3.66864C93.9623 4.93836 91.5675 5.76062 88.6684 5.47464C87.865 6.35101 87.0827 7.25389 86.3617 8.18352C90.4306 9.18486 94.7443 6.95875 97.15 4.84015C99.695 2.70334 101 0.0125434 101 0.0125434C101 0.0125434 99.0924 2.12223 96.2726 3.66864Z" fill="var(--fill-0, #E61D2A)"/>
<path id="Vector_5" d="M50.902 10.8082L52.612 8.1207H49.5815L47.8721 10.8082H50.902Z" fill="var(--fill-0, #E61D2A)"/>
<path id="Vector_6" d="M88.6563 28.1633C88.3305 28.3779 87.8727 28.2129 88.0439 27.7214C88.4702 26.4697 90.1652 23.919 90.1652 23.919L94.8865 15.8167H91.6525C91.4988 16.061 91.1701 16.6221 91.1701 16.6221C91.0205 16.381 90.573 15.8447 90.3888 15.7289C89.5988 15.2458 88.4395 15.4742 87.6399 15.9121C84.1631 17.8793 81.6263 21.7657 79.6258 24.7966C79.6258 24.7966 77.5198 28.1658 76.3507 28.4163C75.4381 28.4879 75.5322 27.2983 75.5718 27.0212C75.9246 25.0182 76.7441 23.1141 77.5698 21.3886C79.249 20.2622 81.1655 18.7871 82.9071 17.169C86.6868 13.6731 89.8732 9.71256 90.339 8.82752C90.339 8.82752 89.8348 8.92598 89.2396 8.94369C86.3318 12.8684 80.3814 18.5725 78.5774 19.4216C79.3765 17.5618 84.5398 8.68435 88.9337 4.43785L89.6251 3.79395C90.6942 2.7837 91.8021 1.74669 92.6654 1.57677C92.7565 1.56785 92.8739 1.57677 92.9753 1.78273C93.0138 2.56931 92.7112 3.15054 92.364 3.81203L91.8774 4.7777C91.8774 4.7777 92.5666 4.65249 93.0192 4.50907C93.5444 3.55293 94.1261 2.47977 93.9117 1.20162C93.8401 0.790306 93.5325 0.477456 93.1304 0.405871C91.8196 0.164485 90.3911 1.10291 89.2417 1.86311L89.1953 1.88974C83.2866 6.36882 78.2972 12.8237 73.9352 21.6388C73.619 21.8709 72.3976 22.1483 72.1899 22.0141C72.6207 21.1561 73.163 20.0025 73.4345 18.7509C73.4814 18.3932 73.5251 18.0268 73.5251 17.6693C73.5251 16.8998 73.3342 16.1759 72.6218 15.6754C71.7865 15.273 70.7542 15.4609 70.0582 15.7647C66.94 17.0163 64.6096 20.1099 62.9279 22.6575C62.0235 24.2761 61.1217 26.0097 60.872 27.9948C60.6961 29.5501 61.0541 30.5514 61.9681 31.0523C62.908 31.5168 64.091 31.034 64.5557 30.8017C67.7146 29.1925 69.9217 25.9653 71.6615 23.0148C71.7307 23.006 72.6806 22.9794 73.3991 22.8003C73.4087 22.8003 73.4127 22.8003 73.4287 22.8097C73.3875 22.9432 73.0162 24.0164 73.0162 24.0164C71.9135 27.1453 71.4036 29.2733 72.4452 30.5336C73.9335 32.3128 76.3975 30.4713 78.402 28.0391C77.9718 30.9536 79.5328 31.4097 80.7227 31.1864C82.0897 30.829 83.6129 29.4161 84.3197 28.6922C84.0927 29.5413 84.1545 31.0613 85.3979 31.2132C86.2502 31.3656 86.888 30.917 87.6261 30.5325C90.2734 29.1377 93.4424 24.4899 94.2652 23.1461H93.1864C92.0168 24.8565 90.5285 27.099 88.6563 28.1633V28.1633ZM64.8938 27.8521C64.7259 27.6107 64.6702 27.3467 64.6646 27.0613C64.6324 25.3084 66.5816 22.169 67.9575 20.4588C67.9604 20.4588 67.9604 20.4588 67.9604 20.4588C68.537 21.6804 69.8427 22.4656 70.6308 22.7965C69.6519 24.9066 66.2945 29.4255 64.8938 27.8521V27.8521ZM71.1833 21.8532C71.09 21.9161 69.4436 21.3795 69.1254 19.9044C68.8555 18.6344 69.7593 17.6421 70.6337 17.1419C71.0091 16.8557 71.5744 16.7576 71.9892 16.9C72.3741 17.1507 72.4784 17.598 72.4784 18.0801C72.4784 18.3757 72.4378 18.6794 72.4021 18.9565C72.4021 18.9565 72.3953 19.0103 72.3942 19.0192C72.1198 20.0113 71.7 20.9859 71.1833 21.8532V21.8532ZM84.3885 27.2889C84.3872 27.2889 84.0762 27.5571 84.0762 27.5571C83.6321 27.9413 83.175 28.3526 82.6233 28.1468C82.4709 28.0932 82.3637 27.8968 82.338 27.7443C82.3129 26.6447 82.8247 25.6257 83.321 24.6336L83.4482 24.3741C84.8759 22.0676 86.5353 19.3498 88.9724 17.4637C89.3831 17.177 89.8288 16.9361 90.2992 17.1239C90.4074 17.222 90.5334 17.3921 90.5334 17.5618C90.5334 17.6156 90.484 17.7586 90.4555 17.803C89.7749 18.8674 89.1266 19.9848 88.4962 21.0575C87.2643 23.1764 85.9862 25.3665 84.3885 27.2889V27.2889Z" fill="var(--fill-0, #E61D2A)"/>
</g>
<defs>
<clipPath id="clip0_418_270">
<rect width="101" height="32" fill="white"/>
</clipPath>
</defs>
</svg>
