<svg preserveAspectRatio="none" width="100%" height="100%" overflow="visible" style="display: block;" viewBox="0 0 12.795 15.251" fill="none" xmlns="http://www.w3.org/2000/svg">
<path id="Vector" d="M5.044 6.1716C4.967 6.1716 4.914 6.2235 4.914 6.3016V6.388V6.6411V8.2441V8.4594V8.5836C4.914 8.6618 4.967 8.7143 5.044 8.7143H5.12H12.465C12.675 8.7143 12.795 8.5941 12.795 8.4139C12.795 6.0514 12.645 5.0522 12.316 4.0243C11.506 1.5429 9.349 0 6.383 0C3.506 0 1.29 1.4822 0.479004 4.0243C0.181004 4.9623 0 6.1127 0 7.6258C0 9.1389 0.210002 10.2578 0.511002 11.1969C1.319 13.7379 3.476 15.251 6.532 15.251C9.198 15.251 11.238 14.222 12.465 12.7696C12.584 12.6191 12.584 12.468 12.435 12.3455L10.668 10.7723C10.518 10.6515 10.368 10.683 10.218 10.8329C9.5 11.6204 8.452 12.2253 6.832 12.2253C5.216 12.2253 4.077 11.439 3.597 10.0174C3.525 9.8185 3.464 9.6097 3.427 9.3828C3.317 8.7668 3.253 8.1671 3.253 7.2863C3.275 6.4562 3.323 5.926 3.441 5.2522C3.444 5.2429 3.445 5.2347 3.446 5.226C3.447 5.219 3.448 5.2137 3.45 5.2067V5.2073C3.479 5.0487 3.518 4.8993 3.566 4.7506C3.955 3.5705 5.034 2.8746 6.414 2.8746C7.763 2.8746 8.84 3.5705 9.229 4.7506C9.349 5.1157 9.409 5.4768 9.409 5.9925C9.409 6.1132 9.349 6.1727 9.229 6.1727H5.292V6.1721L5.044 6.1716Z" fill="var(--fill-0, #204156)"/>
</svg>
