<svg preserveAspectRatio="none" width="100%" height="100%" overflow="visible" style="display: block;" viewBox="0 0 124.86 35.42" fill="none" xmlns="http://www.w3.org/2000/svg">
<g id="Vector">
<path d="M6.42617 0.124192C3.8706 1.19392 1.06117 4.21603 0.173863 8.00944C-0.949845 12.8158 3.72643 14.8483 4.10998 14.1819C4.56141 13.3988 3.27204 13.134 3.00664 10.6402C2.66362 7.41932 4.16102 3.8203 6.04556 2.24115C6.39586 1.94776 6.37919 2.35611 6.37919 3.11143C6.37919 4.46213 6.30456 16.5874 6.30456 19.1179C6.30456 22.5421 6.16313 23.6234 5.90913 24.6918C5.65176 25.7746 5.238 26.5062 5.55152 26.788C5.90181 27.1033 7.3974 26.3534 8.26322 25.145C9.30147 23.6957 9.6649 21.9552 9.73015 20.065C9.80896 17.7864 9.80561 14.1708 9.80896 12.1085C9.81212 10.217 9.84082 4.67846 9.77581 1.34886C9.75987 0.532178 7.49492 -0.324642 6.42605 0.123198L6.42617 0.124192ZM97.1745 16.149C97.0921 17.9291 96.698 19.3205 96.209 20.302C95.2622 22.202 93.2976 22.792 92.4635 20.0606C92.0089 18.5718 91.9877 16.0852 92.3145 14.0076C92.6472 11.891 93.5761 10.2926 95.1143 10.4367C96.6314 10.5792 97.3416 12.5342 97.1745 16.149ZM71.5978 27.1934C71.5772 30.1512 71.1117 32.7446 70.1135 33.4978C68.6976 34.5658 66.7946 33.7647 67.1887 31.6064C67.5373 29.6964 69.1862 27.7459 71.6018 25.3627C71.6018 25.3627 71.6068 25.9062 71.5978 27.1934ZM71.2111 16.1318C71.1246 17.7531 70.7042 19.3819 70.2457 20.3022C69.2991 22.2022 67.3202 22.7962 66.5002 20.0609C65.9395 18.192 66.0737 15.7731 66.3512 14.2491C66.7112 12.2716 67.5838 10.4371 69.1509 10.4371C70.6746 10.4371 71.4259 12.1086 71.2111 16.1318ZM56.3946 16.107C56.3017 17.8241 55.9667 19.2596 55.4291 20.3022C54.4564 22.1891 52.5322 22.7876 51.6836 20.0609C51.0718 18.0947 51.2801 15.4138 51.5346 13.9655C51.9122 11.8164 52.858 10.2928 54.3343 10.4371C55.8509 10.5853 56.5881 12.5342 56.3946 16.107ZM124.296 18.1127C123.925 18.1127 123.756 18.4948 123.616 19.1381C123.13 21.3746 122.62 21.8796 121.962 21.8796C121.227 21.8796 120.566 20.7722 120.396 18.5553C120.263 16.8121 120.284 13.6028 120.455 10.4105C120.49 9.75456 120.309 9.10559 118.55 8.46648C117.793 8.19159 116.692 7.78682 116.144 9.10937C114.596 12.8458 113.991 15.8123 113.848 17.0173C113.841 17.0797 113.764 17.0924 113.751 16.9467C113.66 15.9815 113.457 14.2276 113.432 10.5427C113.427 9.8237 113.275 9.21172 112.481 8.71069C111.966 8.38558 110.403 7.81058 109.84 8.49464C109.352 9.0541 108.787 10.5597 108.2 12.3444C107.723 13.7949 107.391 14.7762 107.391 14.7762C107.391 14.7762 107.397 10.8623 107.403 9.37774C107.405 8.81767 107.021 8.63104 106.905 8.59721C106.384 8.44588 105.356 8.19307 104.92 8.19307C104.382 8.19307 104.251 8.4938 104.251 8.932C104.251 8.98937 104.166 14.0849 104.166 17.648C104.166 17.8028 104.166 17.9716 104.167 18.151C103.87 19.7886 102.905 22.0117 101.855 22.0117C100.804 22.0117 100.309 21.0823 100.309 16.8346C100.309 14.3565 100.383 13.279 100.419 11.4868C100.441 10.4545 100.482 9.66175 100.479 9.48185C100.472 8.93018 99.5177 8.65213 99.0738 8.54938C98.6279 8.44575 98.2403 8.40561 97.9377 8.42285C97.5094 8.44701 97.2063 8.72801 97.2063 9.11449C97.2063 9.32171 97.2087 9.71576 97.2087 9.71576C96.657 8.84885 95.7697 8.24547 95.1794 8.07062C93.5893 7.59839 91.9301 8.01682 90.6786 9.7681C89.6839 11.1596 89.0843 12.7356 88.8483 14.9999C88.6757 16.6552 88.7321 18.3339 89.0387 19.7535C88.6682 21.3554 87.9803 22.0117 87.2271 22.0117C86.1336 22.0117 85.3409 20.2269 85.4329 17.1401C85.4937 15.1099 85.8999 13.6851 86.344 11.6238C86.5333 10.7451 86.3795 10.2851 85.9936 9.84417C85.6397 9.43982 84.8857 9.23324 83.8017 9.48732C83.0295 9.66848 81.9256 9.86329 80.9155 10.0129C80.9155 10.0129 80.9765 9.76977 81.0265 9.34105C81.2892 7.09274 78.8461 7.27516 78.0666 7.99328C77.6013 8.42201 77.2846 8.92766 77.1644 9.83682C76.9737 11.2796 78.1504 11.9601 78.1504 11.9601C77.7644 13.7273 76.818 16.0359 75.841 17.705C75.3177 18.5993 74.9173 19.262 74.4005 19.9664C74.3986 19.7041 74.3972 19.4418 74.3963 19.1807C74.3844 15.4653 74.4339 12.5411 74.4557 11.4871C74.477 10.4548 74.5184 9.68313 74.516 9.50323C74.5102 9.09972 74.2746 8.94735 73.7845 8.75442C73.3511 8.58378 72.8387 8.46566 72.3073 8.42447C71.6364 8.37215 71.2323 8.72795 71.2428 9.14869C71.2448 9.22813 71.2448 9.71592 71.2448 9.71592C70.6931 8.84899 69.8058 8.24563 69.2155 8.07076C67.6254 7.59874 65.9662 8.01718 64.7147 9.76824C63.7202 11.1597 63.0689 13.1123 62.8844 14.9828C62.7125 16.726 62.7442 18.2075 62.9785 19.4554C62.7257 20.7051 61.9988 22.0118 61.1768 22.0118C60.126 22.0118 59.5281 21.0824 59.5281 16.8347C59.5281 14.3567 59.6025 13.2792 59.6391 11.4871C59.6603 10.4548 59.7013 9.66191 59.699 9.48222C59.6912 8.93055 58.7373 8.6525 58.2934 8.54952C57.829 8.44213 57.428 8.40262 57.1201 8.42531C56.7138 8.45557 56.4282 8.81937 56.4282 9.09069V9.71592C55.8766 8.84899 54.9893 8.24563 54.3989 8.07076C52.8088 7.59874 51.1589 8.02391 49.8981 9.76824C49.076 10.9056 48.4104 12.1666 48.0678 14.958C47.9688 15.7646 47.9251 16.52 47.9308 17.226C47.6029 19.231 46.1549 21.5419 44.9704 21.5419C44.2773 21.5419 43.6172 20.1975 43.6172 17.3324C43.6172 13.5158 43.8534 8.08191 43.8934 7.55819C43.8934 7.55819 45.3899 7.53276 45.6797 7.52939C46.4262 7.52119 47.1023 7.53885 48.0966 7.48799C48.5953 7.46256 49.0757 5.67282 48.561 5.45132C48.3278 5.35107 46.679 5.26323 46.0255 5.24936C45.4759 5.2369 43.9459 5.12368 43.9459 5.12368C43.9459 5.12368 44.0831 1.51688 44.1151 1.13587C44.1422 0.818315 43.7313 0.654815 43.4957 0.555605C42.9228 0.313295 42.4103 0.197279 41.8027 0.0720248C40.9633 -0.101139 40.5825 0.0682416 40.5081 0.776695C40.3961 1.85189 40.3381 5.00115 40.3381 5.00115C39.7221 5.00115 37.6179 4.88074 37.0018 4.88074C36.4293 4.88074 35.8114 7.34278 36.6029 7.37303C37.5135 7.40835 39.1004 7.43882 40.1525 7.47055C40.1525 7.47055 40.1056 12.994 40.1056 14.6993C40.1056 14.8807 40.1072 15.0554 40.1075 15.2249C39.5285 18.2428 37.4891 19.873 37.4891 19.873C37.9271 17.8765 37.0324 16.3772 35.4209 15.1081C34.8272 14.6404 33.6551 13.755 32.3437 12.7847C32.3437 12.7847 33.1033 12.0361 33.7768 10.5301C34.2541 9.46334 34.2747 8.24251 33.1033 7.9733C31.1677 7.52818 29.5717 8.9497 29.0957 10.4673C28.7269 11.6429 28.9236 12.5153 29.6461 13.4215C29.6989 13.4877 29.756 13.5554 29.8151 13.6235C29.3781 14.4656 28.7779 15.5995 28.2695 16.4787C26.8585 18.92 25.7926 20.8509 24.987 20.8509C24.3431 20.8509 24.3517 18.8905 24.3517 17.055C24.3517 15.4726 24.4686 13.0937 24.5619 10.6306C24.5928 9.816 24.1855 9.35195 23.5027 8.93163C23.0878 8.67629 22.2024 8.17421 21.6896 8.17421C20.9221 8.17421 18.7076 8.27866 16.6153 14.3311C16.3516 15.094 15.8335 16.484 15.8335 16.484L15.8781 9.20568C15.8781 9.03504 15.7872 8.87006 15.5791 8.75719C15.2266 8.56574 14.2848 8.17421 13.4475 8.17421C13.0485 8.17421 12.8494 8.35979 12.8494 8.72967L12.7764 20.1166C12.7764 20.9818 12.7989 21.9912 12.8845 22.4326C12.9697 22.8746 13.1078 23.2342 13.2788 23.4481C13.4495 23.6616 13.647 23.8245 13.9727 23.8918C14.2758 23.9542 15.9355 24.1673 16.0218 23.533C16.1251 22.7729 16.1291 21.9507 17.0006 18.8844C18.3574 14.1106 20.1263 11.7814 20.9579 10.9542C21.1033 10.8096 21.2694 10.801 21.2614 11.0377C21.2259 12.0843 21.101 14.6995 21.017 16.9213C20.7917 22.8672 21.8734 23.9693 23.4191 23.9693C24.6017 23.9693 26.2687 22.7943 28.0557 19.8199C29.1698 17.9663 30.2515 16.1488 31.0286 14.8388C31.5702 15.3402 32.178 15.8798 32.7854 16.4563C34.1968 17.7959 34.6602 19.0688 34.3528 20.2764C34.1176 21.1995 33.232 22.1509 31.6558 21.2262C31.1964 20.9564 31.0003 20.748 30.5383 20.4439C30.2901 20.2805 29.9112 20.2316 29.684 20.4028C29.0939 20.8477 28.7564 21.4137 28.5637 22.1144C28.3762 22.7962 29.059 23.1566 29.7668 23.4718C30.3763 23.7431 31.6862 23.989 32.5216 24.017C35.7766 24.1258 38.3841 22.4454 40.1992 18.1106C40.5242 21.8542 41.907 23.9726 44.3096 23.9726C45.9159 23.9726 47.5263 21.8964 48.2306 19.8539C48.4327 20.6865 48.732 21.4105 49.1185 22.0228C50.9698 24.956 54.5613 24.3247 56.3653 21.8339C56.9231 21.0642 57.008 20.7877 57.008 20.7877C57.2711 23.1396 59.1651 23.9613 60.2495 23.9613C61.464 23.9613 62.718 23.3872 63.5969 21.4085C63.6999 21.6232 63.8124 21.8283 63.9351 22.0227C65.7864 24.9559 69.3778 24.3246 71.1819 21.8338C71.267 21.717 71.3408 21.611 71.4053 21.5159L71.4582 23.0607C71.4582 23.0607 70.4291 24.0048 69.7973 24.584C67.0169 27.1349 64.9027 29.0703 64.7472 31.3241C64.5475 34.1978 66.8782 35.2658 68.6414 35.4058C70.514 35.5544 72.1175 34.52 73.1032 33.0724C73.9701 31.7982 74.5375 29.0558 74.4959 26.3472C74.4793 25.2626 74.452 23.8835 74.4305 22.4052C75.4078 21.2704 76.5088 19.836 77.5227 18.157C78.6275 16.3273 79.8115 13.8702 80.4178 11.9579C80.4178 11.9579 81.4466 11.9667 82.5445 11.8948C82.8956 11.8719 82.9965 11.9436 82.9316 12.2011C82.8532 12.5121 81.5445 17.5597 82.7389 20.9223C83.5564 23.2242 85.3993 23.9648 86.4919 23.9648C87.771 23.9648 88.9945 22.9989 89.6502 21.5646C89.7292 21.7245 89.8118 21.8792 89.902 22.0221C91.7533 24.9553 95.3322 24.3202 97.1488 21.8332C97.5588 21.2721 97.7915 20.787 97.7915 20.787C98.1813 23.2211 100.074 23.973 101.158 23.973C102.288 23.973 103.36 23.51 104.229 21.4524C104.266 22.3583 104.323 23.0992 104.413 23.3327C104.468 23.4756 104.789 23.6549 105.023 23.7415C106.056 24.1246 107.11 23.9434 107.499 23.8646C107.769 23.8099 107.98 23.5933 108.009 23.0338C108.085 21.5648 108.038 19.0966 108.483 17.2624C109.231 14.1839 109.928 12.9898 110.259 12.3986C110.444 12.0674 110.653 12.0127 110.661 12.3633C110.676 13.0726 110.712 15.1555 111.001 17.954C111.214 20.0122 111.498 21.2287 111.716 21.6138C112.339 22.7148 113.109 22.7669 113.736 22.7669C114.134 22.7669 114.968 22.6568 114.894 21.9561C114.857 21.6146 114.921 19.5039 115.658 16.4711C116.139 14.4905 116.942 12.701 117.231 12.0468C117.338 11.8055 117.387 11.9957 117.386 12.0327C117.325 13.3967 117.188 17.858 117.744 20.298C118.497 23.6034 120.676 23.9733 121.435 23.9733C123.056 23.9733 124.382 22.7402 124.828 19.4958C124.936 18.715 124.777 18.1121 124.299 18.1121" fill="#262626"/>
</g>
</svg>
