<svg preserveAspectRatio="none" width="100%" height="100%" overflow="visible" style="display: block;" viewBox="0 0 160.549 18.8382" fill="none" xmlns="http://www.w3.org/2000/svg">
<g id="Vector">
<path fill-rule="evenodd" clip-rule="evenodd" d="M135.657 15.2689C135.37 14.4641 135.226 13.4441 135.226 12.0756C135.226 10.7071 135.37 9.6876 135.657 8.88231C136.459 6.57468 138.583 5.31352 141.364 5.31352C143.43 5.31352 145.065 6.09142 146.154 7.32608C146.241 7.43342 146.269 7.59465 146.126 7.70199L144.319 9.1774C144.176 9.28474 144.032 9.25823 143.917 9.12395C143.229 8.3995 142.512 7.99707 141.364 7.99707C140.131 7.99707 139.184 8.56073 138.783 9.6876C138.553 10.3317 138.496 11.083 138.496 12.0756C138.496 13.0687 138.553 13.847 138.783 14.4911C139.184 15.591 140.131 16.1546 141.364 16.1546C142.512 16.1546 143.229 15.7522 143.917 15.0278C144.032 14.8935 144.176 14.8935 144.319 15.0008L146.126 16.4767C146.269 16.584 146.241 16.7183 146.154 16.8521C145.065 18.0598 143.43 18.8382 141.364 18.8382C138.583 18.8382 136.459 17.577 135.657 15.2689Z" fill="black"/>
<path fill-rule="evenodd" clip-rule="evenodd" d="M157.354 18.5428C157.154 18.5428 157.01 18.4624 156.895 18.2742L153.396 12.8537L151.532 14.8662V18.2742C151.532 18.4355 151.417 18.5428 151.245 18.5428H148.606C148.434 18.5428 148.319 18.4355 148.319 18.2742V0.563214C148.319 0.402422 148.434 0.29508 148.606 0.29508H151.245C151.417 0.29508 151.532 0.402422 151.532 0.563214V11.0827L156.265 5.87687C156.436 5.68869 156.58 5.60829 156.809 5.60829H159.735C159.907 5.60829 159.965 5.76909 159.85 5.87687L155.461 10.5995L160.51 18.2742C160.596 18.3816 160.538 18.5428 160.366 18.5428H157.354Z" fill="black"/>
<path fill-rule="evenodd" clip-rule="evenodd" d="M3.55663 15.7519H7.62989C9.52306 15.7519 10.5843 14.7319 10.5843 13.2027C10.5843 11.6999 9.52306 10.6803 7.62989 10.6803H3.55663C3.44221 10.6803 3.38456 10.7338 3.38456 10.8411V15.5907C3.38456 15.698 3.44221 15.7519 3.55663 15.7519ZM7.45782 7.88944C9.17892 7.88944 10.2401 6.92336 10.2401 5.50097C10.2401 4.05207 9.17892 3.08599 7.45782 3.08599H3.55663C3.44221 3.08599 3.38456 3.13944 3.38456 3.24679V7.72821C3.38456 7.83555 3.44221 7.88944 3.55663 7.88944H7.45782ZM0 0.563234C0 0.402442 0.114857 0.2951 0.286487 0.2951H7.54385C11.6743 0.2951 13.6247 2.22726 13.6247 5.152C13.6247 7.21844 12.5923 8.39921 11.3586 9.01631V9.07021C12.5635 9.49913 13.9688 10.9485 13.9688 13.1757C13.9688 16.7984 11.5306 18.5428 7.25693 18.5428H0.286487C0.114857 18.5428 0 18.4355 0 18.2742V0.563234Z" fill="black"/>
<path fill-rule="evenodd" clip-rule="evenodd" d="M16.3491 18.5431C16.1766 18.5431 16.0618 18.4357 16.0618 18.2745V5.87716C16.0618 5.71593 16.1766 5.60859 16.3491 5.60859H18.9878C19.1598 5.60859 19.2747 5.71593 19.2747 5.87716V6.97709H19.3035C19.9629 5.9845 21.139 5.31351 22.889 5.31351C23.9786 5.31351 25.0686 5.71593 25.7857 6.38693C25.9294 6.52077 25.9582 6.62856 25.8429 6.7624L24.3227 8.56071C24.2083 8.69456 24.0646 8.72151 23.9214 8.61417C23.2903 8.23825 22.6304 7.99706 21.8849 7.99706C20.0778 7.99706 19.2747 9.20432 19.2747 11.2708V18.2745C19.2747 18.4357 19.1598 18.5431 18.9878 18.5431H16.3491Z" fill="black"/>
<path fill-rule="evenodd" clip-rule="evenodd" d="M34.6611 14.4641C34.8909 13.7931 34.9481 13.176 34.9481 12.0756C34.9481 10.9757 34.8909 10.3851 34.6611 9.6876C34.2594 8.61418 33.3706 7.99707 32.0797 7.99707C30.7888 7.99707 29.8708 8.61418 29.4694 9.6876C29.2402 10.3851 29.1825 10.9757 29.1825 12.0756C29.1825 13.176 29.2402 13.7931 29.4694 14.4641C29.8708 15.5375 30.7888 16.1546 32.0797 16.1546C33.3706 16.1546 34.2594 15.5375 34.6611 14.4641ZM26.3718 15.2689C26.0561 14.3568 25.9128 13.498 25.9128 12.0756C25.9128 10.6537 26.0561 9.79494 26.3718 8.88231C27.1461 6.62857 29.2686 5.31352 32.0797 5.31352C34.862 5.31352 36.9845 6.62857 37.7592 8.88231C38.0745 9.79494 38.2182 10.6537 38.2182 12.0756C38.2182 13.498 38.0745 14.3568 37.7592 15.2689C36.9845 17.5231 34.862 18.8382 32.0797 18.8382C29.2686 18.8382 27.1461 17.5231 26.3718 15.2689Z" fill="black"/>
<path fill-rule="evenodd" clip-rule="evenodd" d="M52.1329 18.543C51.9604 18.543 51.846 18.4356 51.7884 18.2744L49.1209 10.0095H49.0637L46.3674 18.2744C46.3097 18.4356 46.1953 18.543 46.0228 18.543H43.6711C43.4986 18.543 43.3842 18.4356 43.327 18.2744L38.9668 5.87703C38.9091 5.7158 38.9956 5.60846 39.1677 5.60846H41.9212C42.1221 5.60846 42.2369 5.68885 42.2941 5.87703L44.9616 14.4105H45.0192L47.6579 5.87703C47.7155 5.7158 47.8588 5.60846 48.0308 5.60846H50.0961C50.2681 5.60846 50.4118 5.7158 50.469 5.87703L53.2802 14.4105H53.3374L55.8616 5.87703C55.9188 5.68885 56.0337 5.60846 56.2346 5.60846H58.9881C59.1601 5.60846 59.2462 5.7158 59.189 5.87703L54.8288 18.2744C54.7716 18.4356 54.6567 18.543 54.4847 18.543H52.1329Z" fill="black"/>
<path fill-rule="evenodd" clip-rule="evenodd" d="M59.7537 16.7987C59.6393 16.6913 59.6393 16.5305 59.7537 16.4232L61.3888 14.8131C61.5036 14.7057 61.6757 14.7057 61.7906 14.8131C62.7946 15.6718 64.4008 16.2889 65.835 16.2889C67.5273 16.2889 68.3876 15.6449 68.3876 14.7592C68.3876 13.9808 67.9002 13.498 66.0931 13.3368L64.6013 13.2029C61.7906 12.9344 60.356 11.5928 60.356 9.39206C60.356 6.89669 62.2779 5.31351 65.7202 5.31351C67.8714 5.31351 69.6786 5.9845 70.9118 6.89669C71.0555 7.00403 71.0555 7.16483 70.9695 7.27217L69.5637 8.85579C69.4493 8.98964 69.3056 8.98964 69.1624 8.90925C68.3016 8.34559 66.9251 7.83582 65.5481 7.83582C64.1711 7.83582 63.454 8.39948 63.454 9.17738C63.454 9.92922 63.9418 10.3851 65.7202 10.5463L67.2115 10.6806C70.1087 10.9487 71.4857 12.3442 71.4857 14.4641C71.4857 17.0403 69.4777 18.8382 65.6913 18.8382C62.8518 18.8382 60.9014 17.7917 59.7537 16.7987Z" fill="black"/>
<path fill-rule="evenodd" clip-rule="evenodd" d="M82.0333 9.52637C81.6603 8.47989 80.6275 7.86279 79.337 7.86279C78.0177 7.86279 76.9848 8.47989 76.6123 9.52637C76.497 9.84839 76.4398 10.1704 76.4398 10.6267C76.4398 10.7341 76.497 10.788 76.6123 10.788H82.0333C82.1482 10.788 82.2054 10.7341 82.2054 10.6267C82.2054 10.1704 82.1482 9.84839 82.0333 9.52637ZM73.6863 15.242C73.3994 14.4107 73.1985 13.4176 73.1985 12.0756C73.1985 10.7341 73.371 9.71455 73.6575 8.88231C74.4318 6.62857 76.5542 5.31352 79.3082 5.31352C82.1482 5.31352 84.2134 6.68202 84.9877 8.88231C85.3034 9.79494 85.4467 10.6806 85.4467 12.7736C85.4467 12.9344 85.3318 13.0417 85.1314 13.0417H76.6123C76.497 13.0417 76.4398 13.0956 76.4398 13.2029C76.4398 13.5784 76.5259 13.9004 76.6407 14.1955C77.0997 15.4571 78.1897 16.1546 79.7383 16.1546C81.2874 16.1546 82.2918 15.6179 82.9797 14.9204C83.1233 14.7861 83.2666 14.7592 83.4098 14.8665L85.1025 16.262C85.2458 16.3693 85.2458 16.5036 85.1314 16.6379C83.9553 17.9256 82.0045 18.8382 79.4519 18.8382C76.5259 18.8382 74.4606 17.4966 73.6863 15.242Z" fill="black"/>
<path fill-rule="evenodd" clip-rule="evenodd" d="M87.8255 18.5431C87.6539 18.5431 87.5391 18.4358 87.5391 18.2745V5.87718C87.5391 5.71594 87.6539 5.6086 87.8255 5.6086H90.4646C90.6371 5.6086 90.7516 5.71594 90.7516 5.87718V6.9771H90.7804C91.4398 5.98452 92.6159 5.31352 94.3658 5.31352C95.4559 5.31352 96.5455 5.71594 97.2626 6.38694C97.4063 6.52079 97.4346 6.62857 97.3202 6.76242L95.8 8.56073C95.6856 8.69458 95.5419 8.72152 95.3982 8.61418C94.7676 8.23826 94.1077 7.99707 93.3622 7.99707C91.5551 7.99707 90.7516 9.20434 90.7516 11.2708V18.2745C90.7516 18.4358 90.6371 18.5431 90.4646 18.5431H87.8255Z" fill="black"/>
<path fill-rule="evenodd" clip-rule="evenodd" d="M97.8139 16.4229C97.6991 16.3156 97.6419 16.1543 97.7567 16.02L99.535 14.0879C99.6499 13.954 99.822 13.954 99.9364 14.0614C101.199 15.0005 103.063 15.9931 105.243 15.9931C107.566 15.9931 108.914 14.8932 108.914 13.3639C108.914 12.0488 108.054 11.1901 105.358 10.8411L104.325 10.7068C100.568 10.224 98.445 8.53303 98.445 5.50095C98.445 2.20029 101.026 0 105.042 0C107.48 0 109.804 0.724449 111.353 1.82437C111.496 1.93216 111.525 2.0395 111.41 2.20029L110.033 4.1859C109.919 4.32019 109.775 4.34713 109.632 4.26674C108.054 3.30066 106.591 2.84434 104.956 2.84434C102.977 2.84434 101.887 3.86432 101.887 5.28627C101.887 6.54743 102.834 7.40616 105.473 7.75513L106.505 7.88942C110.263 8.37224 112.328 10.0358 112.328 13.1757C112.328 16.4229 109.832 18.8379 104.985 18.8379C102.117 18.8379 99.3341 17.7645 97.8139 16.4229Z" fill="black"/>
<path fill-rule="evenodd" clip-rule="evenodd" d="M118.272 18.7707C115.489 18.7707 114.428 17.5096 114.428 14.9868V8.17126C114.428 8.06392 114.37 8.01002 114.256 8.01002H113.338C113.166 8.01002 113.051 7.90268 113.051 7.74145V5.94358C113.051 5.78279 113.166 5.67544 113.338 5.67544H114.256C114.37 5.67544 114.428 5.62155 114.428 5.51421V1.97192C114.428 1.81113 114.543 1.70379 114.715 1.70379H117.354C117.526 1.70379 117.641 1.81113 117.641 1.97192V5.51421C117.641 5.62155 117.698 5.67544 117.813 5.67544H119.649C119.82 5.67544 119.935 5.78279 119.935 5.94358V7.74145C119.935 7.90268 119.82 8.01002 119.649 8.01002H117.813C117.698 8.01002 117.641 8.06392 117.641 8.17126V14.8799C117.641 15.7921 118.042 16.0872 118.932 16.0872H119.649C119.82 16.0872 119.935 16.1945 119.935 16.3558V18.5022C119.935 18.6634 119.82 18.7707 119.649 18.7707H118.272Z" fill="black"/>
<path fill-rule="evenodd" clip-rule="evenodd" d="M130.094 14.1955V13.2029C130.094 13.0956 130.036 13.0417 129.921 13.0417H127.626C125.561 13.0417 124.643 13.5784 124.643 14.7861C124.643 15.8596 125.475 16.3963 127.024 16.3963C129.003 16.3963 130.094 15.6718 130.094 14.1955ZM130.437 18.5431C130.265 18.5431 130.151 18.4358 130.151 18.2745V17.3354H130.122C129.462 18.2211 128.171 18.8382 126.221 18.8382C123.697 18.8382 121.574 17.604 121.574 14.8935C121.574 12.0756 123.697 10.788 127.11 10.788H129.921C130.036 10.788 130.094 10.7341 130.094 10.6267V10.0096C130.094 8.53334 129.347 7.86279 127.024 7.86279C125.475 7.86279 124.528 8.26521 123.869 8.74847C123.725 8.85581 123.553 8.82886 123.467 8.69458L122.406 6.92365C122.32 6.78936 122.349 6.65508 122.463 6.57468C123.582 5.82329 125.102 5.31352 127.368 5.31352C131.585 5.31352 133.134 6.65508 133.134 9.82189V18.2745C133.134 18.4358 133.019 18.5431 132.847 18.5431H130.437Z" fill="black"/>
</g>
</svg>
