<svg preserveAspectRatio="none" width="100%" height="100%" overflow="visible" style="display: block;" viewBox="0 0 18.7957 19.3156" fill="none" xmlns="http://www.w3.org/2000/svg">
<path id="Vector" d="M9.54645 19.3156C7.68913 19.3156 6.04232 18.9194 4.60604 18.127C3.16976 17.3346 2.04304 16.2202 1.22587 14.7839C0.408585 13.3476 0 11.6885 0 9.80645C0 7.8996 0.396235 6.20329 1.1887 4.71749C2.00587 3.23165 3.12025 2.08015 4.53183 1.26294C5.9681 0.42098 7.65196 0 9.58362 0C11.3913 0 12.9886 0.396212 14.3754 1.18866C15.7621 1.98109 16.8393 3.07069 17.607 4.45745C18.3995 5.8194 18.7957 7.34247 18.7957 9.02633C18.7957 9.29872 18.7832 9.58357 18.7585 9.88066C18.7585 10.1187 18.7506 10.3647 18.7346 10.6187C18.7279 10.7263 18.6381 10.8093 18.5302 10.8093H4.9386C4.81906 10.8093 4.72422 10.9108 4.73612 11.0298C4.86892 12.3614 5.35795 13.4147 6.20333 14.1896C7.11964 15.0068 8.22155 15.4154 9.50929 15.4154C10.4751 15.4154 11.2799 15.2048 11.9237 14.7839C12.5538 14.3639 13.03 13.8338 13.3522 13.1938C13.3884 13.122 13.461 13.0752 13.5413 13.0752H17.9617C18.0998 13.0752 18.1988 13.2081 18.1553 13.3392C17.8019 14.4006 17.2477 15.3774 16.4926 16.2697C15.7002 17.2107 14.7096 17.9537 13.521 18.4985C12.3571 19.0432 11.0322 19.3156 9.54645 19.3156ZM9.58362 3.86316C8.41973 3.86316 7.39203 4.19741 6.50054 4.86604C5.66388 5.4703 5.11082 6.3797 4.84127 7.59458C4.81328 7.72058 4.91084 7.83774 5.03989 7.83774H13.7473C13.8663 7.83774 13.961 7.73735 13.9491 7.61906C13.8368 6.50774 13.397 5.61477 12.6295 4.94037C11.8123 4.22223 10.797 3.86316 9.58362 3.86316Z" fill="var(--fill-0, #032674)"/>
</svg>
