<svg preserveAspectRatio="none" width="100%" height="100%" overflow="visible" style="display: block;" viewBox="0 0 13.8753 18.4207" fill="none" xmlns="http://www.w3.org/2000/svg">
<path id="Vector" d="M0.0816316 5.30743C0.0816316 7.94635 1.3058 10.0415 6.09417 10.9664C8.951 11.5662 9.54942 12.0273 9.54942 12.9796C9.54942 13.9046 8.94967 14.5033 6.9375 14.5033C4.50553 14.4596 2.12218 13.8147 0 12.6261V16.9243C1.44208 17.6317 3.34629 18.4207 6.88318 18.4207C11.8891 18.4207 13.8753 16.1883 13.8753 12.8707L0.0816316 5.30743ZM13.8753 12.8707C13.8753 9.74194 12.2157 8.27255 7.53625 7.26629C4.95164 6.69486 4.3259 6.12376 4.3259 5.30743C4.3259 4.27452 5.25084 3.83836 6.96481 3.83836C9.03263 3.83836 11.0731 4.46411 13.0047 5.33475V1.22643C11.1525 0.383433 9.13537 -0.034823 7.10076 0.00226806C2.47565 0.00226806 0.0816316 2.01544 0.0816316 5.30743" fill="var(--fill-0, #0052CC)"/>
</svg>
