<svg preserveAspectRatio="none" width="100%" height="100%" overflow="visible" style="display: block;" viewBox="0 0 13.9724 14" fill="none" xmlns="http://www.w3.org/2000/svg">
<path id="Vector" d="M1.51064e-06 2.99989C-0.000393626 3.39345 0.0767319 3.78323 0.226974 4.14698C0.377217 4.51073 0.597634 4.84132 0.875642 5.11989C1.15365 5.39846 1.4838 5.61954 1.84725 5.77051C2.2107 5.92148 2.60032 5.99939 2.99388 5.99978C3.78875 5.99899 4.55075 5.6825 5.11229 5.11992C5.67383 4.55735 5.98892 3.79476 5.98826 2.99989V0H2.99388C1.3403 0 1.51064e-06 1.34331 1.51064e-06 2.99989V2.99989ZM7.98417 2.99989V10.9996C7.98417 12.6567 9.32448 14 10.9781 14C11.7729 13.9992 12.5349 13.6827 13.0965 13.1201C13.658 12.5576 13.9731 11.795 13.9724 11.0001V2.99989C13.9728 2.60629 13.8957 2.21647 13.7454 1.85269C13.5951 1.48891 13.3747 1.15829 13.0966 0.879716C12.8186 0.601144 12.4883 0.380075 12.1248 0.229132C11.7613 0.0781888 11.3716 0.000328953 10.9781 0C9.32448 0 7.98417 1.34331 7.98417 2.99989Z" fill="var(--fill-0, #E01E5A)"/>
</svg>
