<svg preserveAspectRatio="none" width="100%" height="100%" overflow="visible" style="display: block;" viewBox="0 0 67.8176 20.8645" fill="none" xmlns="http://www.w3.org/2000/svg">
<path id="Vector" d="M67.8176 15.5434C28.8061 27.5159 0 15.5434 0 15.5434L21.4624 0C29.6071 5.97401 36.6879 9.67949 42.7536 11.9664C43.2122 12.1376 43.6586 12.3027 44.105 12.4555L45.0222 12.7674C45.5358 12.9386 46.0372 13.1037 46.5325 13.2443L47.2662 13.4645C47.7982 13.6173 48.318 13.7641 48.8316 13.8925C49.119 13.9659 49.4003 14.0392 49.6815 14.1004C49.9628 14.1615 52.1702 14.6385 52.3597 14.6752L53.3503 14.8464C54.6894 15.0726 55.9613 15.2316 57.172 15.3355L58.0769 15.415C58.0769 15.415 59.3916 15.5068 60.0031 15.5312H60.4555C63.2866 15.6352 65.7019 15.5312 67.7442 15.5312L67.8176 15.5434Z" fill="var(--fill-0, #1B98ED)"/>
</svg>
