<svg preserveAspectRatio="none" width="100%" height="100%" overflow="visible" style="display: block;" viewBox="0 0 44.1721 43.9984" fill="none" xmlns="http://www.w3.org/2000/svg">
<path id="Vector" d="M44.172 23.0545C44.1762 21.2621 43.6261 19.5123 42.597 18.0447C41.5679 16.5771 40.1102 15.4637 38.4236 14.8569C38.5771 14.0746 38.6545 13.2792 38.6547 12.482C38.6562 9.84323 37.8209 7.27193 36.2689 5.1378C34.7169 3.00368 32.5281 1.41666 30.0173 0.604915C27.5064 -0.206827 24.8029 -0.201477 22.2953 0.620194C19.7877 1.44187 17.6052 3.03753 16.0616 5.17779C14.9229 4.29533 13.5275 3.80803 12.087 3.78972C10.6464 3.7714 9.23914 4.22306 8.0783 5.07627C6.91746 5.92949 6.06631 7.13778 5.65377 8.51812C5.24123 9.89846 5.28978 11.3756 5.79207 12.7259C4.10152 13.3421 2.64022 14.4612 1.60473 15.9328C0.56924 17.4043 0.00923079 19.1577 2.95997e-05 20.957C-0.00466136 22.7556 0.548321 24.5114 1.58284 25.9827C2.61736 27.4541 4.08255 28.5685 5.77666 29.1726C5.6267 29.9545 5.5502 30.7488 5.54817 31.5449C5.54565 34.1806 6.38025 36.7491 7.93163 38.8799C9.48302 41.0107 11.671 42.5937 14.1802 43.4008C16.6893 44.2079 19.3899 44.1972 21.8926 43.3704C24.3953 42.5436 26.5707 40.9433 28.1053 38.8004C29.2407 39.685 30.6337 40.1753 32.0729 40.1968C33.5121 40.2182 34.9191 39.7698 36.0805 38.9194C37.2418 38.069 38.0941 36.8631 38.5082 35.4845C38.9222 34.106 38.8754 32.63 38.3749 31.2805C40.0663 30.6653 41.5286 29.5465 42.5646 28.0748C43.6007 26.6031 44.1608 24.8492 44.1695 23.0494" fill="var(--fill-0, white)"/>
</svg>
